G04 #@! TF.FileFunction,Copper,L1,Top,Signal*
%FSLAX46Y46*%
G04 Gerber Fmt 4.6, Leading zero omitted, Abs format (unit mm)*
G04 Created by KiCad (PCBNEW 4.0.7) date 07/22/18 11:21:55*
%MOMM*%
%LPD*%
G01*
G04 APERTURE LIST*
%ADD10C,0.100000*%
%ADD11R,1.250000X1.500000*%
%ADD12R,1.500000X1.250000*%
%ADD13R,1.000000X1.500000*%
%ADD14R,1.700000X1.700000*%
%ADD15O,1.700000X1.700000*%
%ADD16C,5.500000*%
%ADD17R,2.000000X3.800000*%
%ADD18R,2.000000X1.500000*%
%ADD19R,1.300000X1.500000*%
%ADD20R,1.500000X1.300000*%
%ADD21C,0.600000*%
%ADD22C,0.250000*%
%ADD23C,0.254000*%
G04 APERTURE END LIST*
D10*
D11*
X30861000Y-17125000D03*
X30861000Y-14625000D03*
D12*
X44470000Y-21209000D03*
X46970000Y-21209000D03*
D13*
X53148000Y-18006000D03*
X54548000Y-18006000D03*
X53148000Y-14506000D03*
X54548000Y-14506000D03*
D14*
X14605000Y-14605000D03*
D15*
X14605000Y-17145000D03*
X14605000Y-19685000D03*
X14605000Y-22225000D03*
D16*
X60000000Y-34000000D03*
X60000000Y-16000000D03*
X17000000Y-29000000D03*
D17*
X28423000Y-17145000D03*
D18*
X22123000Y-17145000D03*
X22123000Y-19445000D03*
X22123000Y-14845000D03*
D14*
X53000000Y-35000000D03*
D15*
X50460000Y-35000000D03*
X47920000Y-35000000D03*
X45380000Y-35000000D03*
X42840000Y-35000000D03*
X40300000Y-35000000D03*
X37760000Y-35000000D03*
X35220000Y-35000000D03*
X32680000Y-35000000D03*
X30140000Y-35000000D03*
X27600000Y-35000000D03*
X25060000Y-35000000D03*
X22520000Y-35000000D03*
X19980000Y-35000000D03*
X17440000Y-35000000D03*
X14900000Y-35000000D03*
D19*
X34925000Y-19511000D03*
X34925000Y-16811000D03*
D14*
X18415000Y-19685000D03*
D15*
X18415000Y-17145000D03*
D14*
X60706000Y-22733000D03*
D15*
X60706000Y-25273000D03*
X58166000Y-22733000D03*
X58166000Y-25273000D03*
X55626000Y-22733000D03*
X55626000Y-25273000D03*
X53086000Y-22733000D03*
X53086000Y-25273000D03*
D19*
X44958000Y-23542000D03*
X44958000Y-26242000D03*
X46990000Y-26242000D03*
X46990000Y-23542000D03*
D20*
X44243000Y-18669000D03*
X46943000Y-18669000D03*
D14*
X18161000Y-24130000D03*
D21*
X44831000Y-14605000D03*
X31369000Y-25400000D03*
X39243000Y-28575000D03*
X23622000Y-25400000D03*
X52250000Y-31000000D03*
X56388000Y-17399000D03*
X51054000Y-14605000D03*
X46990000Y-26242000D03*
X45847000Y-14605000D03*
X33782000Y-29972000D03*
X54483000Y-18034000D03*
X54483000Y-14732000D03*
X53213000Y-14478000D03*
X34925000Y-16811000D03*
X39243000Y-14732000D03*
X38227000Y-14605000D03*
X37084000Y-14605000D03*
X36068000Y-14605000D03*
X44958000Y-26242000D03*
X49008000Y-23664000D03*
D22*
X30861000Y-17125000D02*
X31516000Y-17125000D01*
X44196000Y-13970000D02*
X44831000Y-14605000D01*
X33655000Y-13970000D02*
X44196000Y-13970000D01*
X32258000Y-15367000D02*
X33655000Y-13970000D01*
X32258000Y-16383000D02*
X32258000Y-15367000D01*
X31516000Y-17125000D02*
X32258000Y-16383000D01*
X30734000Y-17252000D02*
X28824000Y-17252000D01*
X28824000Y-17252000D02*
X28804000Y-17272000D01*
X22504000Y-17272000D02*
X22225000Y-17272000D01*
X22225000Y-17272000D02*
X19558000Y-14605000D01*
X19558000Y-14605000D02*
X14605000Y-14605000D01*
X28804000Y-17272000D02*
X26035000Y-17272000D01*
X26035000Y-17272000D02*
X22504000Y-17272000D01*
X23622000Y-25400000D02*
X31369000Y-25400000D01*
X55245000Y-16256000D02*
X56388000Y-17399000D01*
X52705000Y-16256000D02*
X55245000Y-16256000D01*
X51054000Y-14605000D02*
X52705000Y-16256000D01*
X44243000Y-18669000D02*
X44243000Y-18368000D01*
X44243000Y-18368000D02*
X45847000Y-16764000D01*
X45847000Y-16764000D02*
X45847000Y-14605000D01*
X44958000Y-23542000D02*
X41482000Y-23542000D01*
X34798000Y-28956000D02*
X33782000Y-29972000D01*
X36068000Y-28956000D02*
X34798000Y-28956000D01*
X41482000Y-23542000D02*
X36068000Y-28956000D01*
X44958000Y-23542000D02*
X46990000Y-23542000D01*
X46990000Y-23542000D02*
X46990000Y-21356000D01*
X46990000Y-21356000D02*
X46970000Y-21336000D01*
X53148000Y-18006000D02*
X47606000Y-18006000D01*
X47606000Y-18006000D02*
X46943000Y-18669000D01*
X54483000Y-18034000D02*
X54511000Y-18006000D01*
X54511000Y-18006000D02*
X54548000Y-18006000D01*
X54483000Y-14732000D02*
X54548000Y-14667000D01*
X54548000Y-14667000D02*
X54548000Y-14506000D01*
X53213000Y-14478000D02*
X53185000Y-14506000D01*
X53185000Y-14506000D02*
X53148000Y-14506000D01*
X22520000Y-35000000D02*
X22520000Y-33360000D01*
X39243000Y-25019000D02*
X39243000Y-14732000D01*
X35941000Y-28321000D02*
X39243000Y-25019000D01*
X27559000Y-28321000D02*
X35941000Y-28321000D01*
X22520000Y-33360000D02*
X27559000Y-28321000D01*
X19980000Y-35000000D02*
X20118000Y-35000000D01*
X20118000Y-35000000D02*
X27305000Y-27813000D01*
X27305000Y-27813000D02*
X35744998Y-27813000D01*
X35744998Y-27813000D02*
X38227000Y-25330998D01*
X38227000Y-25330998D02*
X38227000Y-14605000D01*
X17440000Y-35000000D02*
X17440000Y-34884000D01*
X17440000Y-34884000D02*
X19177000Y-33147000D01*
X19177000Y-33147000D02*
X21082000Y-33147000D01*
X21082000Y-33147000D02*
X26924000Y-27305000D01*
X26924000Y-27305000D02*
X35560000Y-27305000D01*
X35560000Y-27305000D02*
X37084000Y-25781000D01*
X37084000Y-25781000D02*
X37084000Y-14605000D01*
X14900000Y-35000000D02*
X15165000Y-35000000D01*
X15165000Y-35000000D02*
X17780000Y-32385000D01*
X17780000Y-32385000D02*
X21082000Y-32385000D01*
X21082000Y-32385000D02*
X26670000Y-26797000D01*
X26670000Y-26797000D02*
X35306000Y-26797000D01*
X35306000Y-26797000D02*
X36068000Y-26035000D01*
X36068000Y-26035000D02*
X36068000Y-14605000D01*
X22504000Y-19572000D02*
X22479000Y-19558000D01*
X22479000Y-19558000D02*
X18542000Y-19558000D01*
X18542000Y-19558000D02*
X18415000Y-19685000D01*
X34925000Y-19511000D02*
X34925000Y-21971000D01*
X32766000Y-24130000D02*
X18161000Y-24130000D01*
X34925000Y-21971000D02*
X32766000Y-24130000D01*
X27600000Y-35000000D02*
X29580000Y-33020000D01*
X44831000Y-33020000D02*
X29580000Y-33020000D01*
X47371000Y-30480000D02*
X44831000Y-33020000D01*
X47371000Y-28194000D02*
X47371000Y-30480000D01*
X49093000Y-26472000D02*
X47371000Y-28194000D01*
X49093000Y-23749000D02*
X49093000Y-26472000D01*
X49093000Y-23749000D02*
X49008000Y-23664000D01*
D23*
G36*
X52000560Y-13756000D02*
X52000560Y-15256000D01*
X52044838Y-15491317D01*
X52183910Y-15707441D01*
X52396110Y-15852431D01*
X52648000Y-15903440D01*
X53648000Y-15903440D01*
X53855342Y-15864426D01*
X54048000Y-15903440D01*
X55048000Y-15903440D01*
X55283317Y-15859162D01*
X55499441Y-15720090D01*
X55644431Y-15507890D01*
X55695440Y-15256000D01*
X55695440Y-13756000D01*
X55686784Y-13710000D01*
X57502704Y-13710000D01*
X57132010Y-14080048D01*
X56615589Y-15323728D01*
X56614414Y-16670364D01*
X57128663Y-17914943D01*
X58080048Y-18867990D01*
X59323728Y-19384411D01*
X60670364Y-19385586D01*
X61914943Y-18871337D01*
X62290000Y-18496934D01*
X62290000Y-31502704D01*
X61919952Y-31132010D01*
X60676272Y-30615589D01*
X59329636Y-30614414D01*
X58085057Y-31128663D01*
X57132010Y-32080048D01*
X56615589Y-33323728D01*
X56614414Y-34670364D01*
X57128663Y-35914943D01*
X57503066Y-36290000D01*
X54317901Y-36290000D01*
X54446431Y-36101890D01*
X54497440Y-35850000D01*
X54497440Y-34150000D01*
X54453162Y-33914683D01*
X54314090Y-33698559D01*
X54101890Y-33553569D01*
X53850000Y-33502560D01*
X52150000Y-33502560D01*
X51914683Y-33546838D01*
X51698559Y-33685910D01*
X51553569Y-33898110D01*
X51539914Y-33965541D01*
X51510054Y-33920853D01*
X51028285Y-33598946D01*
X50460000Y-33485907D01*
X49891715Y-33598946D01*
X49409946Y-33920853D01*
X49190000Y-34250026D01*
X48970054Y-33920853D01*
X48488285Y-33598946D01*
X47920000Y-33485907D01*
X47351715Y-33598946D01*
X46869946Y-33920853D01*
X46650000Y-34250026D01*
X46430054Y-33920853D01*
X45948285Y-33598946D01*
X45429958Y-33495844D01*
X47908401Y-31017401D01*
X48073148Y-30770840D01*
X48104263Y-30614414D01*
X48131000Y-30480000D01*
X48131000Y-28508802D01*
X49630401Y-27009401D01*
X49795148Y-26762839D01*
X49853000Y-26472000D01*
X49853000Y-24067152D01*
X49942838Y-23850799D01*
X49943162Y-23478833D01*
X49801117Y-23135057D01*
X49538327Y-22871808D01*
X49194799Y-22729162D01*
X48822833Y-22728838D01*
X48479057Y-22870883D01*
X48287440Y-23062166D01*
X48287440Y-22792000D01*
X48270865Y-22703907D01*
X51601000Y-22703907D01*
X51601000Y-22762093D01*
X51714039Y-23330378D01*
X52035946Y-23812147D01*
X52321578Y-24003000D01*
X52035946Y-24193853D01*
X51714039Y-24675622D01*
X51601000Y-25243907D01*
X51601000Y-25302093D01*
X51714039Y-25870378D01*
X52035946Y-26352147D01*
X52517715Y-26674054D01*
X53086000Y-26787093D01*
X53654285Y-26674054D01*
X54136054Y-26352147D01*
X54356000Y-26022974D01*
X54575946Y-26352147D01*
X55057715Y-26674054D01*
X55626000Y-26787093D01*
X56194285Y-26674054D01*
X56676054Y-26352147D01*
X56896000Y-26022974D01*
X57115946Y-26352147D01*
X57597715Y-26674054D01*
X58166000Y-26787093D01*
X58734285Y-26674054D01*
X59216054Y-26352147D01*
X59436000Y-26022974D01*
X59655946Y-26352147D01*
X60137715Y-26674054D01*
X60706000Y-26787093D01*
X61274285Y-26674054D01*
X61756054Y-26352147D01*
X62077961Y-25870378D01*
X62191000Y-25302093D01*
X62191000Y-25243907D01*
X62077961Y-24675622D01*
X61756054Y-24193853D01*
X61754821Y-24193029D01*
X61791317Y-24186162D01*
X62007441Y-24047090D01*
X62152431Y-23834890D01*
X62203440Y-23583000D01*
X62203440Y-21883000D01*
X62159162Y-21647683D01*
X62020090Y-21431559D01*
X61807890Y-21286569D01*
X61556000Y-21235560D01*
X59856000Y-21235560D01*
X59620683Y-21279838D01*
X59404559Y-21418910D01*
X59259569Y-21631110D01*
X59245914Y-21698541D01*
X59216054Y-21653853D01*
X58734285Y-21331946D01*
X58166000Y-21218907D01*
X57597715Y-21331946D01*
X57115946Y-21653853D01*
X56896000Y-21983026D01*
X56676054Y-21653853D01*
X56194285Y-21331946D01*
X55626000Y-21218907D01*
X55057715Y-21331946D01*
X54575946Y-21653853D01*
X54356000Y-21983026D01*
X54136054Y-21653853D01*
X53654285Y-21331946D01*
X53086000Y-21218907D01*
X52517715Y-21331946D01*
X52035946Y-21653853D01*
X51714039Y-22135622D01*
X51601000Y-22703907D01*
X48270865Y-22703907D01*
X48243162Y-22556683D01*
X48104486Y-22341174D01*
X48171441Y-22298090D01*
X48316431Y-22085890D01*
X48367440Y-21834000D01*
X48367440Y-20584000D01*
X48323162Y-20348683D01*
X48184090Y-20132559D01*
X47971890Y-19987569D01*
X47783480Y-19949415D01*
X47928317Y-19922162D01*
X48144441Y-19783090D01*
X48289431Y-19570890D01*
X48340440Y-19319000D01*
X48340440Y-18766000D01*
X52002442Y-18766000D01*
X52044838Y-18991317D01*
X52183910Y-19207441D01*
X52396110Y-19352431D01*
X52648000Y-19403440D01*
X53648000Y-19403440D01*
X53855342Y-19364426D01*
X54048000Y-19403440D01*
X55048000Y-19403440D01*
X55283317Y-19359162D01*
X55499441Y-19220090D01*
X55644431Y-19007890D01*
X55695440Y-18756000D01*
X55695440Y-17256000D01*
X55651162Y-17020683D01*
X55512090Y-16804559D01*
X55299890Y-16659569D01*
X55048000Y-16608560D01*
X54048000Y-16608560D01*
X53840658Y-16647574D01*
X53648000Y-16608560D01*
X52648000Y-16608560D01*
X52412683Y-16652838D01*
X52196559Y-16791910D01*
X52051569Y-17004110D01*
X52002585Y-17246000D01*
X47606000Y-17246000D01*
X47315161Y-17303852D01*
X47213829Y-17371560D01*
X46193000Y-17371560D01*
X45957683Y-17415838D01*
X45741559Y-17554910D01*
X45596569Y-17767110D01*
X45589809Y-17800490D01*
X45531327Y-17659301D01*
X45352698Y-17480673D01*
X45119309Y-17384000D01*
X44528750Y-17384000D01*
X44370000Y-17542750D01*
X44370000Y-18542000D01*
X44390000Y-18542000D01*
X44390000Y-18796000D01*
X44370000Y-18796000D01*
X44370000Y-19795250D01*
X44528750Y-19954000D01*
X44750750Y-19954000D01*
X44597000Y-20107750D01*
X44597000Y-21082000D01*
X44617000Y-21082000D01*
X44617000Y-21336000D01*
X44597000Y-21336000D01*
X44597000Y-21356000D01*
X44343000Y-21356000D01*
X44343000Y-21336000D01*
X43243750Y-21336000D01*
X43085000Y-21494750D01*
X43085000Y-21960310D01*
X43181673Y-22193699D01*
X43360302Y-22372327D01*
X43593691Y-22469000D01*
X43760156Y-22469000D01*
X43711569Y-22540110D01*
X43662585Y-22782000D01*
X41482000Y-22782000D01*
X41191160Y-22839852D01*
X40944599Y-23004599D01*
X40003000Y-23946198D01*
X40003000Y-18954750D01*
X42858000Y-18954750D01*
X42858000Y-19445310D01*
X42954673Y-19678699D01*
X43133302Y-19857327D01*
X43366691Y-19954000D01*
X43581620Y-19954000D01*
X43360302Y-20045673D01*
X43181673Y-20224301D01*
X43085000Y-20457690D01*
X43085000Y-20923250D01*
X43243750Y-21082000D01*
X44343000Y-21082000D01*
X44343000Y-20107750D01*
X44184250Y-19949000D01*
X43962250Y-19949000D01*
X44116000Y-19795250D01*
X44116000Y-18796000D01*
X43016750Y-18796000D01*
X42858000Y-18954750D01*
X40003000Y-18954750D01*
X40003000Y-17892690D01*
X42858000Y-17892690D01*
X42858000Y-18383250D01*
X43016750Y-18542000D01*
X44116000Y-18542000D01*
X44116000Y-17542750D01*
X43957250Y-17384000D01*
X43366691Y-17384000D01*
X43133302Y-17480673D01*
X42954673Y-17659301D01*
X42858000Y-17892690D01*
X40003000Y-17892690D01*
X40003000Y-15294463D01*
X40035192Y-15262327D01*
X40177838Y-14918799D01*
X40178002Y-14730000D01*
X43881198Y-14730000D01*
X43895878Y-14744680D01*
X43895838Y-14790167D01*
X44037883Y-15133943D01*
X44300673Y-15397192D01*
X44644201Y-15539838D01*
X45016167Y-15540162D01*
X45359943Y-15398117D01*
X45623192Y-15135327D01*
X45765838Y-14791799D01*
X45766162Y-14419833D01*
X45624117Y-14076057D01*
X45361327Y-13812808D01*
X45113739Y-13710000D01*
X52009875Y-13710000D01*
X52000560Y-13756000D01*
X52000560Y-13756000D01*
G37*
X52000560Y-13756000D02*
X52000560Y-15256000D01*
X52044838Y-15491317D01*
X52183910Y-15707441D01*
X52396110Y-15852431D01*
X52648000Y-15903440D01*
X53648000Y-15903440D01*
X53855342Y-15864426D01*
X54048000Y-15903440D01*
X55048000Y-15903440D01*
X55283317Y-15859162D01*
X55499441Y-15720090D01*
X55644431Y-15507890D01*
X55695440Y-15256000D01*
X55695440Y-13756000D01*
X55686784Y-13710000D01*
X57502704Y-13710000D01*
X57132010Y-14080048D01*
X56615589Y-15323728D01*
X56614414Y-16670364D01*
X57128663Y-17914943D01*
X58080048Y-18867990D01*
X59323728Y-19384411D01*
X60670364Y-19385586D01*
X61914943Y-18871337D01*
X62290000Y-18496934D01*
X62290000Y-31502704D01*
X61919952Y-31132010D01*
X60676272Y-30615589D01*
X59329636Y-30614414D01*
X58085057Y-31128663D01*
X57132010Y-32080048D01*
X56615589Y-33323728D01*
X56614414Y-34670364D01*
X57128663Y-35914943D01*
X57503066Y-36290000D01*
X54317901Y-36290000D01*
X54446431Y-36101890D01*
X54497440Y-35850000D01*
X54497440Y-34150000D01*
X54453162Y-33914683D01*
X54314090Y-33698559D01*
X54101890Y-33553569D01*
X53850000Y-33502560D01*
X52150000Y-33502560D01*
X51914683Y-33546838D01*
X51698559Y-33685910D01*
X51553569Y-33898110D01*
X51539914Y-33965541D01*
X51510054Y-33920853D01*
X51028285Y-33598946D01*
X50460000Y-33485907D01*
X49891715Y-33598946D01*
X49409946Y-33920853D01*
X49190000Y-34250026D01*
X48970054Y-33920853D01*
X48488285Y-33598946D01*
X47920000Y-33485907D01*
X47351715Y-33598946D01*
X46869946Y-33920853D01*
X46650000Y-34250026D01*
X46430054Y-33920853D01*
X45948285Y-33598946D01*
X45429958Y-33495844D01*
X47908401Y-31017401D01*
X48073148Y-30770840D01*
X48104263Y-30614414D01*
X48131000Y-30480000D01*
X48131000Y-28508802D01*
X49630401Y-27009401D01*
X49795148Y-26762839D01*
X49853000Y-26472000D01*
X49853000Y-24067152D01*
X49942838Y-23850799D01*
X49943162Y-23478833D01*
X49801117Y-23135057D01*
X49538327Y-22871808D01*
X49194799Y-22729162D01*
X48822833Y-22728838D01*
X48479057Y-22870883D01*
X48287440Y-23062166D01*
X48287440Y-22792000D01*
X48270865Y-22703907D01*
X51601000Y-22703907D01*
X51601000Y-22762093D01*
X51714039Y-23330378D01*
X52035946Y-23812147D01*
X52321578Y-24003000D01*
X52035946Y-24193853D01*
X51714039Y-24675622D01*
X51601000Y-25243907D01*
X51601000Y-25302093D01*
X51714039Y-25870378D01*
X52035946Y-26352147D01*
X52517715Y-26674054D01*
X53086000Y-26787093D01*
X53654285Y-26674054D01*
X54136054Y-26352147D01*
X54356000Y-26022974D01*
X54575946Y-26352147D01*
X55057715Y-26674054D01*
X55626000Y-26787093D01*
X56194285Y-26674054D01*
X56676054Y-26352147D01*
X56896000Y-26022974D01*
X57115946Y-26352147D01*
X57597715Y-26674054D01*
X58166000Y-26787093D01*
X58734285Y-26674054D01*
X59216054Y-26352147D01*
X59436000Y-26022974D01*
X59655946Y-26352147D01*
X60137715Y-26674054D01*
X60706000Y-26787093D01*
X61274285Y-26674054D01*
X61756054Y-26352147D01*
X62077961Y-25870378D01*
X62191000Y-25302093D01*
X62191000Y-25243907D01*
X62077961Y-24675622D01*
X61756054Y-24193853D01*
X61754821Y-24193029D01*
X61791317Y-24186162D01*
X62007441Y-24047090D01*
X62152431Y-23834890D01*
X62203440Y-23583000D01*
X62203440Y-21883000D01*
X62159162Y-21647683D01*
X62020090Y-21431559D01*
X61807890Y-21286569D01*
X61556000Y-21235560D01*
X59856000Y-21235560D01*
X59620683Y-21279838D01*
X59404559Y-21418910D01*
X59259569Y-21631110D01*
X59245914Y-21698541D01*
X59216054Y-21653853D01*
X58734285Y-21331946D01*
X58166000Y-21218907D01*
X57597715Y-21331946D01*
X57115946Y-21653853D01*
X56896000Y-21983026D01*
X56676054Y-21653853D01*
X56194285Y-21331946D01*
X55626000Y-21218907D01*
X55057715Y-21331946D01*
X54575946Y-21653853D01*
X54356000Y-21983026D01*
X54136054Y-21653853D01*
X53654285Y-21331946D01*
X53086000Y-21218907D01*
X52517715Y-21331946D01*
X52035946Y-21653853D01*
X51714039Y-22135622D01*
X51601000Y-22703907D01*
X48270865Y-22703907D01*
X48243162Y-22556683D01*
X48104486Y-22341174D01*
X48171441Y-22298090D01*
X48316431Y-22085890D01*
X48367440Y-21834000D01*
X48367440Y-20584000D01*
X48323162Y-20348683D01*
X48184090Y-20132559D01*
X47971890Y-19987569D01*
X47783480Y-19949415D01*
X47928317Y-19922162D01*
X48144441Y-19783090D01*
X48289431Y-19570890D01*
X48340440Y-19319000D01*
X48340440Y-18766000D01*
X52002442Y-18766000D01*
X52044838Y-18991317D01*
X52183910Y-19207441D01*
X52396110Y-19352431D01*
X52648000Y-19403440D01*
X53648000Y-19403440D01*
X53855342Y-19364426D01*
X54048000Y-19403440D01*
X55048000Y-19403440D01*
X55283317Y-19359162D01*
X55499441Y-19220090D01*
X55644431Y-19007890D01*
X55695440Y-18756000D01*
X55695440Y-17256000D01*
X55651162Y-17020683D01*
X55512090Y-16804559D01*
X55299890Y-16659569D01*
X55048000Y-16608560D01*
X54048000Y-16608560D01*
X53840658Y-16647574D01*
X53648000Y-16608560D01*
X52648000Y-16608560D01*
X52412683Y-16652838D01*
X52196559Y-16791910D01*
X52051569Y-17004110D01*
X52002585Y-17246000D01*
X47606000Y-17246000D01*
X47315161Y-17303852D01*
X47213829Y-17371560D01*
X46193000Y-17371560D01*
X45957683Y-17415838D01*
X45741559Y-17554910D01*
X45596569Y-17767110D01*
X45589809Y-17800490D01*
X45531327Y-17659301D01*
X45352698Y-17480673D01*
X45119309Y-17384000D01*
X44528750Y-17384000D01*
X44370000Y-17542750D01*
X44370000Y-18542000D01*
X44390000Y-18542000D01*
X44390000Y-18796000D01*
X44370000Y-18796000D01*
X44370000Y-19795250D01*
X44528750Y-19954000D01*
X44750750Y-19954000D01*
X44597000Y-20107750D01*
X44597000Y-21082000D01*
X44617000Y-21082000D01*
X44617000Y-21336000D01*
X44597000Y-21336000D01*
X44597000Y-21356000D01*
X44343000Y-21356000D01*
X44343000Y-21336000D01*
X43243750Y-21336000D01*
X43085000Y-21494750D01*
X43085000Y-21960310D01*
X43181673Y-22193699D01*
X43360302Y-22372327D01*
X43593691Y-22469000D01*
X43760156Y-22469000D01*
X43711569Y-22540110D01*
X43662585Y-22782000D01*
X41482000Y-22782000D01*
X41191160Y-22839852D01*
X40944599Y-23004599D01*
X40003000Y-23946198D01*
X40003000Y-18954750D01*
X42858000Y-18954750D01*
X42858000Y-19445310D01*
X42954673Y-19678699D01*
X43133302Y-19857327D01*
X43366691Y-19954000D01*
X43581620Y-19954000D01*
X43360302Y-20045673D01*
X43181673Y-20224301D01*
X43085000Y-20457690D01*
X43085000Y-20923250D01*
X43243750Y-21082000D01*
X44343000Y-21082000D01*
X44343000Y-20107750D01*
X44184250Y-19949000D01*
X43962250Y-19949000D01*
X44116000Y-19795250D01*
X44116000Y-18796000D01*
X43016750Y-18796000D01*
X42858000Y-18954750D01*
X40003000Y-18954750D01*
X40003000Y-17892690D01*
X42858000Y-17892690D01*
X42858000Y-18383250D01*
X43016750Y-18542000D01*
X44116000Y-18542000D01*
X44116000Y-17542750D01*
X43957250Y-17384000D01*
X43366691Y-17384000D01*
X43133302Y-17480673D01*
X42954673Y-17659301D01*
X42858000Y-17892690D01*
X40003000Y-17892690D01*
X40003000Y-15294463D01*
X40035192Y-15262327D01*
X40177838Y-14918799D01*
X40178002Y-14730000D01*
X43881198Y-14730000D01*
X43895878Y-14744680D01*
X43895838Y-14790167D01*
X44037883Y-15133943D01*
X44300673Y-15397192D01*
X44644201Y-15539838D01*
X45016167Y-15540162D01*
X45359943Y-15398117D01*
X45623192Y-15135327D01*
X45765838Y-14791799D01*
X45766162Y-14419833D01*
X45624117Y-14076057D01*
X45361327Y-13812808D01*
X45113739Y-13710000D01*
X52009875Y-13710000D01*
X52000560Y-13756000D01*
G36*
X43704838Y-24527317D02*
X43843910Y-24743441D01*
X44056110Y-24888431D01*
X44069197Y-24891081D01*
X43856559Y-25027910D01*
X43711569Y-25240110D01*
X43660560Y-25492000D01*
X43660560Y-26992000D01*
X43704838Y-27227317D01*
X43843910Y-27443441D01*
X44056110Y-27588431D01*
X44308000Y-27639440D01*
X45608000Y-27639440D01*
X45843317Y-27595162D01*
X45966117Y-27516143D01*
X45980301Y-27530327D01*
X46213690Y-27627000D01*
X46704250Y-27627000D01*
X46862998Y-27468252D01*
X46862998Y-27627000D01*
X46863198Y-27627000D01*
X46833599Y-27656599D01*
X46668852Y-27903161D01*
X46611000Y-28194000D01*
X46611000Y-30165198D01*
X44516198Y-32260000D01*
X29580000Y-32260000D01*
X29289161Y-32317852D01*
X29042599Y-32482599D01*
X27966408Y-33558790D01*
X27600000Y-33485907D01*
X27031715Y-33598946D01*
X26549946Y-33920853D01*
X26330000Y-34250026D01*
X26110054Y-33920853D01*
X25628285Y-33598946D01*
X25060000Y-33485907D01*
X24491715Y-33598946D01*
X24009946Y-33920853D01*
X23790000Y-34250026D01*
X23570054Y-33920853D01*
X23280000Y-33727046D01*
X23280000Y-33674802D01*
X27873802Y-29081000D01*
X33489953Y-29081000D01*
X33253057Y-29178883D01*
X32989808Y-29441673D01*
X32847162Y-29785201D01*
X32846838Y-30157167D01*
X32988883Y-30500943D01*
X33251673Y-30764192D01*
X33595201Y-30906838D01*
X33967167Y-30907162D01*
X34310943Y-30765117D01*
X34574192Y-30502327D01*
X34716838Y-30158799D01*
X34716879Y-30111923D01*
X35112802Y-29716000D01*
X36068000Y-29716000D01*
X36358839Y-29658148D01*
X36605401Y-29493401D01*
X41796802Y-24302000D01*
X43662442Y-24302000D01*
X43704838Y-24527317D01*
X43704838Y-24527317D01*
G37*
X43704838Y-24527317D02*
X43843910Y-24743441D01*
X44056110Y-24888431D01*
X44069197Y-24891081D01*
X43856559Y-25027910D01*
X43711569Y-25240110D01*
X43660560Y-25492000D01*
X43660560Y-26992000D01*
X43704838Y-27227317D01*
X43843910Y-27443441D01*
X44056110Y-27588431D01*
X44308000Y-27639440D01*
X45608000Y-27639440D01*
X45843317Y-27595162D01*
X45966117Y-27516143D01*
X45980301Y-27530327D01*
X46213690Y-27627000D01*
X46704250Y-27627000D01*
X46862998Y-27468252D01*
X46862998Y-27627000D01*
X46863198Y-27627000D01*
X46833599Y-27656599D01*
X46668852Y-27903161D01*
X46611000Y-28194000D01*
X46611000Y-30165198D01*
X44516198Y-32260000D01*
X29580000Y-32260000D01*
X29289161Y-32317852D01*
X29042599Y-32482599D01*
X27966408Y-33558790D01*
X27600000Y-33485907D01*
X27031715Y-33598946D01*
X26549946Y-33920853D01*
X26330000Y-34250026D01*
X26110054Y-33920853D01*
X25628285Y-33598946D01*
X25060000Y-33485907D01*
X24491715Y-33598946D01*
X24009946Y-33920853D01*
X23790000Y-34250026D01*
X23570054Y-33920853D01*
X23280000Y-33727046D01*
X23280000Y-33674802D01*
X27873802Y-29081000D01*
X33489953Y-29081000D01*
X33253057Y-29178883D01*
X32989808Y-29441673D01*
X32847162Y-29785201D01*
X32846838Y-30157167D01*
X32988883Y-30500943D01*
X33251673Y-30764192D01*
X33595201Y-30906838D01*
X33967167Y-30907162D01*
X34310943Y-30765117D01*
X34574192Y-30502327D01*
X34716838Y-30158799D01*
X34716879Y-30111923D01*
X35112802Y-29716000D01*
X36068000Y-29716000D01*
X36358839Y-29658148D01*
X36605401Y-29493401D01*
X41796802Y-24302000D01*
X43662442Y-24302000D01*
X43704838Y-24527317D01*
G36*
X35308000Y-25720198D02*
X34991198Y-26037000D01*
X26670000Y-26037000D01*
X26379160Y-26094852D01*
X26132599Y-26259599D01*
X20767198Y-31625000D01*
X19161710Y-31625000D01*
X19867990Y-30919952D01*
X20384411Y-29676272D01*
X20385586Y-28329636D01*
X19871337Y-27085057D01*
X18919952Y-26132010D01*
X17704812Y-25627440D01*
X19011000Y-25627440D01*
X19246317Y-25583162D01*
X19462441Y-25444090D01*
X19607431Y-25231890D01*
X19658440Y-24980000D01*
X19658440Y-24890000D01*
X32766000Y-24890000D01*
X33056839Y-24832148D01*
X33303401Y-24667401D01*
X35308000Y-22662802D01*
X35308000Y-25720198D01*
X35308000Y-25720198D01*
G37*
X35308000Y-25720198D02*
X34991198Y-26037000D01*
X26670000Y-26037000D01*
X26379160Y-26094852D01*
X26132599Y-26259599D01*
X20767198Y-31625000D01*
X19161710Y-31625000D01*
X19867990Y-30919952D01*
X20384411Y-29676272D01*
X20385586Y-28329636D01*
X19871337Y-27085057D01*
X18919952Y-26132010D01*
X17704812Y-25627440D01*
X19011000Y-25627440D01*
X19246317Y-25583162D01*
X19462441Y-25444090D01*
X19607431Y-25231890D01*
X19658440Y-24980000D01*
X19658440Y-24890000D01*
X32766000Y-24890000D01*
X33056839Y-24832148D01*
X33303401Y-24667401D01*
X35308000Y-22662802D01*
X35308000Y-25720198D01*
G36*
X35132838Y-14790167D02*
X35274883Y-15133943D01*
X35308000Y-15167118D01*
X35308000Y-15413560D01*
X34275000Y-15413560D01*
X34039683Y-15457838D01*
X33823559Y-15596910D01*
X33678569Y-15809110D01*
X33627560Y-16061000D01*
X33627560Y-17561000D01*
X33671838Y-17796317D01*
X33810910Y-18012441D01*
X34023110Y-18157431D01*
X34036197Y-18160081D01*
X33823559Y-18296910D01*
X33678569Y-18509110D01*
X33627560Y-18761000D01*
X33627560Y-20261000D01*
X33671838Y-20496317D01*
X33810910Y-20712441D01*
X34023110Y-20857431D01*
X34165000Y-20886164D01*
X34165000Y-21656198D01*
X32451198Y-23370000D01*
X19658440Y-23370000D01*
X19658440Y-23280000D01*
X19614162Y-23044683D01*
X19475090Y-22828559D01*
X19262890Y-22683569D01*
X19011000Y-22632560D01*
X17311000Y-22632560D01*
X17075683Y-22676838D01*
X16859559Y-22815910D01*
X16714569Y-23028110D01*
X16663560Y-23280000D01*
X16663560Y-24980000D01*
X16707838Y-25215317D01*
X16846910Y-25431441D01*
X17059110Y-25576431D01*
X17250644Y-25615218D01*
X16329636Y-25614414D01*
X15085057Y-26128663D01*
X14132010Y-27080048D01*
X13960000Y-27494294D01*
X13960000Y-23565141D01*
X14007622Y-23596961D01*
X14575907Y-23710000D01*
X14634093Y-23710000D01*
X15202378Y-23596961D01*
X15684147Y-23275054D01*
X16006054Y-22793285D01*
X16119093Y-22225000D01*
X16006054Y-21656715D01*
X15684147Y-21174946D01*
X15354974Y-20955000D01*
X15684147Y-20735054D01*
X16006054Y-20253285D01*
X16119093Y-19685000D01*
X16006054Y-19116715D01*
X15684147Y-18634946D01*
X15343447Y-18407298D01*
X15486358Y-18340183D01*
X15876645Y-17911924D01*
X16046476Y-17501890D01*
X15925155Y-17272000D01*
X14732000Y-17272000D01*
X14732000Y-17292000D01*
X14478000Y-17292000D01*
X14478000Y-17272000D01*
X14458000Y-17272000D01*
X14458000Y-17018000D01*
X14478000Y-17018000D01*
X14478000Y-16998000D01*
X14732000Y-16998000D01*
X14732000Y-17018000D01*
X15925155Y-17018000D01*
X16046476Y-16788110D01*
X16973524Y-16788110D01*
X17094845Y-17018000D01*
X18288000Y-17018000D01*
X18288000Y-15824181D01*
X18542000Y-15824181D01*
X18542000Y-17018000D01*
X19735155Y-17018000D01*
X19856476Y-16788110D01*
X19686645Y-16378076D01*
X19296358Y-15949817D01*
X18771892Y-15703514D01*
X18542000Y-15824181D01*
X18288000Y-15824181D01*
X18058108Y-15703514D01*
X17533642Y-15949817D01*
X17143355Y-16378076D01*
X16973524Y-16788110D01*
X16046476Y-16788110D01*
X15876645Y-16378076D01*
X15600499Y-16075063D01*
X15690317Y-16058162D01*
X15906441Y-15919090D01*
X16051431Y-15706890D01*
X16102440Y-15455000D01*
X16102440Y-15365000D01*
X19243198Y-15365000D01*
X20475560Y-16597362D01*
X20475560Y-17895000D01*
X20519838Y-18130317D01*
X20626759Y-18296477D01*
X20526569Y-18443110D01*
X20475560Y-18695000D01*
X20475560Y-18798000D01*
X19905478Y-18798000D01*
X19868162Y-18599683D01*
X19729090Y-18383559D01*
X19516890Y-18238569D01*
X19408893Y-18216699D01*
X19686645Y-17911924D01*
X19856476Y-17501890D01*
X19735155Y-17272000D01*
X18542000Y-17272000D01*
X18542000Y-17292000D01*
X18288000Y-17292000D01*
X18288000Y-17272000D01*
X17094845Y-17272000D01*
X16973524Y-17501890D01*
X17143355Y-17911924D01*
X17419501Y-18214937D01*
X17329683Y-18231838D01*
X17113559Y-18370910D01*
X16968569Y-18583110D01*
X16917560Y-18835000D01*
X16917560Y-20535000D01*
X16961838Y-20770317D01*
X17100910Y-20986441D01*
X17313110Y-21131431D01*
X17565000Y-21182440D01*
X19265000Y-21182440D01*
X19500317Y-21138162D01*
X19716441Y-20999090D01*
X19861431Y-20786890D01*
X19912440Y-20535000D01*
X19912440Y-20318000D01*
X20498704Y-20318000D01*
X20519838Y-20430317D01*
X20658910Y-20646441D01*
X20871110Y-20791431D01*
X21123000Y-20842440D01*
X23123000Y-20842440D01*
X23358317Y-20798162D01*
X23574441Y-20659090D01*
X23719431Y-20446890D01*
X23770440Y-20195000D01*
X23770440Y-18695000D01*
X23726162Y-18459683D01*
X23619241Y-18293523D01*
X23719431Y-18146890D01*
X23742697Y-18032000D01*
X26775560Y-18032000D01*
X26775560Y-19045000D01*
X26819838Y-19280317D01*
X26958910Y-19496441D01*
X27171110Y-19641431D01*
X27423000Y-19692440D01*
X29423000Y-19692440D01*
X29658317Y-19648162D01*
X29874441Y-19509090D01*
X30019431Y-19296890D01*
X30070440Y-19045000D01*
X30070440Y-18488913D01*
X30236000Y-18522440D01*
X31486000Y-18522440D01*
X31721317Y-18478162D01*
X31937441Y-18339090D01*
X32082431Y-18126890D01*
X32133440Y-17875000D01*
X32133440Y-17582362D01*
X32795401Y-16920401D01*
X32960148Y-16673840D01*
X32980832Y-16569852D01*
X33018000Y-16383000D01*
X33018000Y-15681802D01*
X33969802Y-14730000D01*
X35132890Y-14730000D01*
X35132838Y-14790167D01*
X35132838Y-14790167D01*
G37*
X35132838Y-14790167D02*
X35274883Y-15133943D01*
X35308000Y-15167118D01*
X35308000Y-15413560D01*
X34275000Y-15413560D01*
X34039683Y-15457838D01*
X33823559Y-15596910D01*
X33678569Y-15809110D01*
X33627560Y-16061000D01*
X33627560Y-17561000D01*
X33671838Y-17796317D01*
X33810910Y-18012441D01*
X34023110Y-18157431D01*
X34036197Y-18160081D01*
X33823559Y-18296910D01*
X33678569Y-18509110D01*
X33627560Y-18761000D01*
X33627560Y-20261000D01*
X33671838Y-20496317D01*
X33810910Y-20712441D01*
X34023110Y-20857431D01*
X34165000Y-20886164D01*
X34165000Y-21656198D01*
X32451198Y-23370000D01*
X19658440Y-23370000D01*
X19658440Y-23280000D01*
X19614162Y-23044683D01*
X19475090Y-22828559D01*
X19262890Y-22683569D01*
X19011000Y-22632560D01*
X17311000Y-22632560D01*
X17075683Y-22676838D01*
X16859559Y-22815910D01*
X16714569Y-23028110D01*
X16663560Y-23280000D01*
X16663560Y-24980000D01*
X16707838Y-25215317D01*
X16846910Y-25431441D01*
X17059110Y-25576431D01*
X17250644Y-25615218D01*
X16329636Y-25614414D01*
X15085057Y-26128663D01*
X14132010Y-27080048D01*
X13960000Y-27494294D01*
X13960000Y-23565141D01*
X14007622Y-23596961D01*
X14575907Y-23710000D01*
X14634093Y-23710000D01*
X15202378Y-23596961D01*
X15684147Y-23275054D01*
X16006054Y-22793285D01*
X16119093Y-22225000D01*
X16006054Y-21656715D01*
X15684147Y-21174946D01*
X15354974Y-20955000D01*
X15684147Y-20735054D01*
X16006054Y-20253285D01*
X16119093Y-19685000D01*
X16006054Y-19116715D01*
X15684147Y-18634946D01*
X15343447Y-18407298D01*
X15486358Y-18340183D01*
X15876645Y-17911924D01*
X16046476Y-17501890D01*
X15925155Y-17272000D01*
X14732000Y-17272000D01*
X14732000Y-17292000D01*
X14478000Y-17292000D01*
X14478000Y-17272000D01*
X14458000Y-17272000D01*
X14458000Y-17018000D01*
X14478000Y-17018000D01*
X14478000Y-16998000D01*
X14732000Y-16998000D01*
X14732000Y-17018000D01*
X15925155Y-17018000D01*
X16046476Y-16788110D01*
X16973524Y-16788110D01*
X17094845Y-17018000D01*
X18288000Y-17018000D01*
X18288000Y-15824181D01*
X18542000Y-15824181D01*
X18542000Y-17018000D01*
X19735155Y-17018000D01*
X19856476Y-16788110D01*
X19686645Y-16378076D01*
X19296358Y-15949817D01*
X18771892Y-15703514D01*
X18542000Y-15824181D01*
X18288000Y-15824181D01*
X18058108Y-15703514D01*
X17533642Y-15949817D01*
X17143355Y-16378076D01*
X16973524Y-16788110D01*
X16046476Y-16788110D01*
X15876645Y-16378076D01*
X15600499Y-16075063D01*
X15690317Y-16058162D01*
X15906441Y-15919090D01*
X16051431Y-15706890D01*
X16102440Y-15455000D01*
X16102440Y-15365000D01*
X19243198Y-15365000D01*
X20475560Y-16597362D01*
X20475560Y-17895000D01*
X20519838Y-18130317D01*
X20626759Y-18296477D01*
X20526569Y-18443110D01*
X20475560Y-18695000D01*
X20475560Y-18798000D01*
X19905478Y-18798000D01*
X19868162Y-18599683D01*
X19729090Y-18383559D01*
X19516890Y-18238569D01*
X19408893Y-18216699D01*
X19686645Y-17911924D01*
X19856476Y-17501890D01*
X19735155Y-17272000D01*
X18542000Y-17272000D01*
X18542000Y-17292000D01*
X18288000Y-17292000D01*
X18288000Y-17272000D01*
X17094845Y-17272000D01*
X16973524Y-17501890D01*
X17143355Y-17911924D01*
X17419501Y-18214937D01*
X17329683Y-18231838D01*
X17113559Y-18370910D01*
X16968569Y-18583110D01*
X16917560Y-18835000D01*
X16917560Y-20535000D01*
X16961838Y-20770317D01*
X17100910Y-20986441D01*
X17313110Y-21131431D01*
X17565000Y-21182440D01*
X19265000Y-21182440D01*
X19500317Y-21138162D01*
X19716441Y-20999090D01*
X19861431Y-20786890D01*
X19912440Y-20535000D01*
X19912440Y-20318000D01*
X20498704Y-20318000D01*
X20519838Y-20430317D01*
X20658910Y-20646441D01*
X20871110Y-20791431D01*
X21123000Y-20842440D01*
X23123000Y-20842440D01*
X23358317Y-20798162D01*
X23574441Y-20659090D01*
X23719431Y-20446890D01*
X23770440Y-20195000D01*
X23770440Y-18695000D01*
X23726162Y-18459683D01*
X23619241Y-18293523D01*
X23719431Y-18146890D01*
X23742697Y-18032000D01*
X26775560Y-18032000D01*
X26775560Y-19045000D01*
X26819838Y-19280317D01*
X26958910Y-19496441D01*
X27171110Y-19641431D01*
X27423000Y-19692440D01*
X29423000Y-19692440D01*
X29658317Y-19648162D01*
X29874441Y-19509090D01*
X30019431Y-19296890D01*
X30070440Y-19045000D01*
X30070440Y-18488913D01*
X30236000Y-18522440D01*
X31486000Y-18522440D01*
X31721317Y-18478162D01*
X31937441Y-18339090D01*
X32082431Y-18126890D01*
X32133440Y-17875000D01*
X32133440Y-17582362D01*
X32795401Y-16920401D01*
X32960148Y-16673840D01*
X32980832Y-16569852D01*
X33018000Y-16383000D01*
X33018000Y-15681802D01*
X33969802Y-14730000D01*
X35132890Y-14730000D01*
X35132838Y-14790167D01*
G36*
X47117000Y-26115000D02*
X47137000Y-26115000D01*
X47137000Y-26369000D01*
X47117000Y-26369000D01*
X47117000Y-26389000D01*
X46863000Y-26389000D01*
X46863000Y-26369000D01*
X46843000Y-26369000D01*
X46843000Y-26115000D01*
X46863000Y-26115000D01*
X46863000Y-26095000D01*
X47117000Y-26095000D01*
X47117000Y-26115000D01*
X47117000Y-26115000D01*
G37*
X47117000Y-26115000D02*
X47137000Y-26115000D01*
X47137000Y-26369000D01*
X47117000Y-26369000D01*
X47117000Y-26389000D01*
X46863000Y-26389000D01*
X46863000Y-26369000D01*
X46843000Y-26369000D01*
X46843000Y-26115000D01*
X46863000Y-26115000D01*
X46863000Y-26095000D01*
X47117000Y-26095000D01*
X47117000Y-26115000D01*
G36*
X29601000Y-13748691D02*
X29601000Y-14339250D01*
X29759750Y-14498000D01*
X30734000Y-14498000D01*
X30734000Y-14478000D01*
X30988000Y-14478000D01*
X30988000Y-14498000D01*
X31008000Y-14498000D01*
X31008000Y-14752000D01*
X30988000Y-14752000D01*
X30988000Y-14772000D01*
X30734000Y-14772000D01*
X30734000Y-14752000D01*
X29826266Y-14752000D01*
X29674890Y-14648569D01*
X29423000Y-14597560D01*
X27423000Y-14597560D01*
X27187683Y-14641838D01*
X26971559Y-14780910D01*
X26826569Y-14993110D01*
X26775560Y-15245000D01*
X26775560Y-16512000D01*
X23770440Y-16512000D01*
X23770440Y-16395000D01*
X23726162Y-16159683D01*
X23620518Y-15995508D01*
X23661327Y-15954699D01*
X23758000Y-15721310D01*
X23758000Y-15130750D01*
X23599250Y-14972000D01*
X22250000Y-14972000D01*
X22250000Y-14992000D01*
X21996000Y-14992000D01*
X21996000Y-14972000D01*
X21976000Y-14972000D01*
X21976000Y-14718000D01*
X21996000Y-14718000D01*
X21996000Y-14698000D01*
X22250000Y-14698000D01*
X22250000Y-14718000D01*
X23599250Y-14718000D01*
X23758000Y-14559250D01*
X23758000Y-13968690D01*
X23661327Y-13735301D01*
X23636026Y-13710000D01*
X29617026Y-13710000D01*
X29601000Y-13748691D01*
X29601000Y-13748691D01*
G37*
X29601000Y-13748691D02*
X29601000Y-14339250D01*
X29759750Y-14498000D01*
X30734000Y-14498000D01*
X30734000Y-14478000D01*
X30988000Y-14478000D01*
X30988000Y-14498000D01*
X31008000Y-14498000D01*
X31008000Y-14752000D01*
X30988000Y-14752000D01*
X30988000Y-14772000D01*
X30734000Y-14772000D01*
X30734000Y-14752000D01*
X29826266Y-14752000D01*
X29674890Y-14648569D01*
X29423000Y-14597560D01*
X27423000Y-14597560D01*
X27187683Y-14641838D01*
X26971559Y-14780910D01*
X26826569Y-14993110D01*
X26775560Y-15245000D01*
X26775560Y-16512000D01*
X23770440Y-16512000D01*
X23770440Y-16395000D01*
X23726162Y-16159683D01*
X23620518Y-15995508D01*
X23661327Y-15954699D01*
X23758000Y-15721310D01*
X23758000Y-15130750D01*
X23599250Y-14972000D01*
X22250000Y-14972000D01*
X22250000Y-14992000D01*
X21996000Y-14992000D01*
X21996000Y-14972000D01*
X21976000Y-14972000D01*
X21976000Y-14718000D01*
X21996000Y-14718000D01*
X21996000Y-14698000D01*
X22250000Y-14698000D01*
X22250000Y-14718000D01*
X23599250Y-14718000D01*
X23758000Y-14559250D01*
X23758000Y-13968690D01*
X23661327Y-13735301D01*
X23636026Y-13710000D01*
X29617026Y-13710000D01*
X29601000Y-13748691D01*
M02*
