G04 #@! TF.FileFunction,Legend,Top*
%FSLAX46Y46*%
G04 Gerber Fmt 4.6, Leading zero omitted, Abs format (unit mm)*
G04 Created by KiCad (PCBNEW 4.0.7) date 07/22/18 11:21:55*
%MOMM*%
%LPD*%
G01*
G04 APERTURE LIST*
%ADD10C,0.100000*%
%ADD11C,0.120000*%
%ADD12C,0.150000*%
%ADD13C,0.010000*%
G04 APERTURE END LIST*
D10*
D11*
X30011000Y-15375000D02*
X30011000Y-16375000D01*
X31711000Y-16375000D02*
X31711000Y-15375000D01*
X46220000Y-20359000D02*
X45220000Y-20359000D01*
X45220000Y-22059000D02*
X46220000Y-22059000D01*
D12*
X55348000Y-13556000D02*
X55348000Y-18956000D01*
X52348000Y-13556000D02*
X52348000Y-19056000D01*
X53348000Y-19056000D02*
X52348000Y-19056000D01*
D11*
X13275000Y-23555000D02*
X15935000Y-23555000D01*
X13275000Y-15875000D02*
X13275000Y-23555000D01*
X15935000Y-15875000D02*
X15935000Y-23555000D01*
X13275000Y-15875000D02*
X15935000Y-15875000D01*
X13275000Y-14605000D02*
X13275000Y-13275000D01*
X13275000Y-13275000D02*
X14605000Y-13275000D01*
X27183000Y-20555000D02*
X27183000Y-19295000D01*
X27183000Y-13735000D02*
X27183000Y-14995000D01*
X23423000Y-20555000D02*
X27183000Y-20555000D01*
X21173000Y-13735000D02*
X27183000Y-13735000D01*
X13570000Y-33670000D02*
X13570000Y-36330000D01*
X51730000Y-33670000D02*
X13570000Y-33670000D01*
X51730000Y-36330000D02*
X13570000Y-36330000D01*
X51730000Y-33670000D02*
X51730000Y-36330000D01*
X53000000Y-33670000D02*
X54330000Y-33670000D01*
X54330000Y-33670000D02*
X54330000Y-35000000D01*
X35805000Y-17561000D02*
X35805000Y-18761000D01*
X34045000Y-18761000D02*
X34045000Y-17561000D01*
X19745000Y-15815000D02*
X17085000Y-15815000D01*
X19745000Y-18415000D02*
X19745000Y-15815000D01*
X17085000Y-18415000D02*
X17085000Y-15815000D01*
X19745000Y-18415000D02*
X17085000Y-18415000D01*
X19745000Y-19685000D02*
X19745000Y-21015000D01*
X19745000Y-21015000D02*
X18415000Y-21015000D01*
X51756000Y-21403000D02*
X51756000Y-26603000D01*
X59436000Y-21403000D02*
X51756000Y-21403000D01*
X62036000Y-26603000D02*
X51756000Y-26603000D01*
X59436000Y-21403000D02*
X59436000Y-24003000D01*
X59436000Y-24003000D02*
X62036000Y-24003000D01*
X62036000Y-24003000D02*
X62036000Y-26603000D01*
X60706000Y-21403000D02*
X62036000Y-21403000D01*
X62036000Y-21403000D02*
X62036000Y-22733000D01*
X44078000Y-25492000D02*
X44078000Y-24292000D01*
X45838000Y-24292000D02*
X45838000Y-25492000D01*
X47870000Y-24292000D02*
X47870000Y-25492000D01*
X46110000Y-25492000D02*
X46110000Y-24292000D01*
X46193000Y-19549000D02*
X44993000Y-19549000D01*
X44993000Y-17789000D02*
X46193000Y-17789000D01*
X16831000Y-25460000D02*
X19491000Y-25460000D01*
X16831000Y-25400000D02*
X16831000Y-25460000D01*
X19491000Y-25400000D02*
X19491000Y-25460000D01*
X16831000Y-25400000D02*
X19491000Y-25400000D01*
X16831000Y-24130000D02*
X16831000Y-22800000D01*
X16831000Y-22800000D02*
X18161000Y-22800000D01*
D13*
G36*
X22263922Y-23159944D02*
X22359012Y-22957670D01*
X22487737Y-22762256D01*
X22601810Y-22638859D01*
X22804721Y-22489747D01*
X23013992Y-22376047D01*
X23021014Y-22373171D01*
X23164175Y-22332000D01*
X23285350Y-22357452D01*
X23436483Y-22465938D01*
X23505828Y-22526348D01*
X23685457Y-22706323D01*
X23903221Y-22953395D01*
X24113757Y-23215945D01*
X24125341Y-23231293D01*
X24475050Y-23696526D01*
X24741396Y-23604372D01*
X25072219Y-23540709D01*
X25447726Y-23544871D01*
X25802793Y-23611928D01*
X26017289Y-23700983D01*
X26203194Y-23843288D01*
X26407158Y-24049855D01*
X26510413Y-24176753D01*
X26768126Y-24502439D01*
X26982894Y-24717636D01*
X27179037Y-24840475D01*
X27380870Y-24889088D01*
X27469462Y-24891797D01*
X27703605Y-24871164D01*
X27900858Y-24826296D01*
X27929765Y-24814960D01*
X28030432Y-24753133D01*
X28046817Y-24664158D01*
X27988090Y-24497146D01*
X27987340Y-24495356D01*
X27922360Y-24238487D01*
X27960403Y-24047608D01*
X28096086Y-23944395D01*
X28125849Y-23937578D01*
X28250266Y-23948759D01*
X28459122Y-23998406D01*
X28714561Y-24073863D01*
X28978729Y-24162476D01*
X29213771Y-24251592D01*
X29381834Y-24328555D01*
X29444917Y-24378522D01*
X29408776Y-24470667D01*
X29396566Y-24482996D01*
X29375890Y-24581952D01*
X29401415Y-24670716D01*
X29417247Y-24788635D01*
X29348429Y-24827368D01*
X29265668Y-24886989D01*
X29266509Y-24933926D01*
X29237708Y-25011884D01*
X29175895Y-25032216D01*
X29104603Y-25059777D01*
X29094597Y-25146441D01*
X29142895Y-25328260D01*
X29149643Y-25349412D01*
X29203845Y-25543292D01*
X29194815Y-25655895D01*
X29108771Y-25742409D01*
X29040023Y-25788323D01*
X28832423Y-25922140D01*
X29580776Y-26090430D01*
X30106343Y-26196441D01*
X30564242Y-26257383D01*
X31022285Y-26280261D01*
X31387902Y-26277160D01*
X31598725Y-26255675D01*
X31881540Y-26205920D01*
X32197862Y-26137284D01*
X32509207Y-26059151D01*
X32777085Y-25980909D01*
X32963011Y-25911943D01*
X33018638Y-25879447D01*
X33045047Y-25806735D01*
X33007221Y-25670833D01*
X32897140Y-25445702D01*
X32869027Y-25393684D01*
X32756981Y-25163167D01*
X32689742Y-24974146D01*
X32680801Y-24874532D01*
X32741954Y-24776235D01*
X32873798Y-24597271D01*
X33053520Y-24367982D01*
X33162171Y-24234259D01*
X33375705Y-23958848D01*
X33567280Y-23683638D01*
X33706163Y-23453820D01*
X33740490Y-23383787D01*
X33857237Y-23154483D01*
X33946315Y-23066996D01*
X34007411Y-23121532D01*
X34026194Y-23195291D01*
X34060638Y-23286601D01*
X34145348Y-23298297D01*
X34293836Y-23250433D01*
X34462745Y-23196494D01*
X34533041Y-23218517D01*
X34522769Y-23339076D01*
X34480502Y-23483959D01*
X34438465Y-23639134D01*
X34462121Y-23693763D01*
X34571953Y-23685225D01*
X34589151Y-23682215D01*
X34740391Y-23679669D01*
X34768451Y-23742263D01*
X34675717Y-23862343D01*
X34564998Y-23952427D01*
X34544721Y-23837431D01*
X34574155Y-23795395D01*
X34532119Y-23765962D01*
X34502686Y-23807997D01*
X34544721Y-23837431D01*
X34564998Y-23952427D01*
X34484442Y-24017971D01*
X34176872Y-24254409D01*
X33923016Y-24475595D01*
X33742621Y-24662313D01*
X33655436Y-24795348D01*
X33651030Y-24828927D01*
X33716942Y-24922738D01*
X33864060Y-25051254D01*
X33940492Y-25106213D01*
X34213682Y-25291212D01*
X34593683Y-24944857D01*
X34812721Y-24724037D01*
X35019001Y-24479652D01*
X35189701Y-24243239D01*
X35302002Y-24046334D01*
X35333479Y-23922515D01*
X35365581Y-23791225D01*
X35473472Y-23601719D01*
X35627860Y-23395906D01*
X35799456Y-23215694D01*
X35866174Y-23160300D01*
X36144994Y-22978704D01*
X36516715Y-22787010D01*
X36992889Y-22580288D01*
X37585069Y-22353605D01*
X38304807Y-22102030D01*
X38491935Y-22039353D01*
X38966896Y-21879888D01*
X39324734Y-21754839D01*
X39586705Y-21654831D01*
X39774065Y-21570488D01*
X39908070Y-21492434D01*
X40009977Y-21411293D01*
X40082899Y-21337616D01*
X40269126Y-21168473D01*
X40474487Y-21071250D01*
X40688389Y-21022399D01*
X40938943Y-20992529D01*
X41121535Y-21019344D01*
X41306224Y-21114616D01*
X41330416Y-21130265D01*
X41567819Y-21329768D01*
X41796446Y-21595255D01*
X41981692Y-21879613D01*
X42088952Y-22135727D01*
X42097126Y-22174129D01*
X42101394Y-22393274D01*
X42061911Y-22635779D01*
X42057149Y-22652817D01*
X41954016Y-22869603D01*
X41789278Y-23091598D01*
X41729814Y-23152681D01*
X41619357Y-23276834D01*
X41441190Y-23501293D01*
X41209782Y-23806730D01*
X40939600Y-24173813D01*
X40645113Y-24583211D01*
X40414592Y-24909846D01*
X40103294Y-25347513D01*
X39796948Y-25765164D01*
X39511879Y-26141521D01*
X39264414Y-26455295D01*
X39070880Y-26685206D01*
X38976471Y-26784628D01*
X38768091Y-26965248D01*
X38565521Y-27093147D01*
X38335385Y-27178832D01*
X38044308Y-27232809D01*
X37658914Y-27265586D01*
X37410148Y-27277739D01*
X37179132Y-27291742D01*
X37007010Y-27322774D01*
X36848595Y-27388967D01*
X36658693Y-27508451D01*
X36432505Y-27670006D01*
X36186256Y-27851868D01*
X36034160Y-27981876D01*
X35952582Y-28092983D01*
X35917883Y-28218139D01*
X35906428Y-28390296D01*
X35905917Y-28404107D01*
X35899337Y-28618491D01*
X35897279Y-28764567D01*
X35898472Y-28798439D01*
X35963380Y-28807433D01*
X36119995Y-28760465D01*
X36333336Y-28672397D01*
X36568421Y-28558094D01*
X36790269Y-28432417D01*
X36849632Y-28394307D01*
X37129498Y-28221702D01*
X37310235Y-28143941D01*
X37399935Y-28158030D01*
X37411767Y-28186474D01*
X37379331Y-28288353D01*
X37331983Y-28356274D01*
X37274828Y-28471881D01*
X37346837Y-28539680D01*
X37550660Y-28564946D01*
X37731518Y-28594611D01*
X37775364Y-28672013D01*
X37682151Y-28796865D01*
X37598668Y-28866026D01*
X37470335Y-28973291D01*
X37450878Y-29043102D01*
X37531307Y-29122709D01*
X37547445Y-29135320D01*
X37652801Y-29241173D01*
X37635927Y-29306708D01*
X37489782Y-29336570D01*
X37242231Y-29336799D01*
X36976474Y-29345897D01*
X36659574Y-29395831D01*
X36256191Y-29492791D01*
X36088371Y-29538889D01*
X35766818Y-29625087D01*
X35491238Y-29691115D01*
X35294870Y-29729484D01*
X35222650Y-29734780D01*
X35195553Y-29581103D01*
X36306554Y-29385203D01*
X36748005Y-29304363D01*
X37056004Y-29240502D01*
X37240906Y-29190969D01*
X37313070Y-29153110D01*
X37299620Y-29130872D01*
X37240159Y-29076403D01*
X37277179Y-28994650D01*
X37387832Y-28884597D01*
X37593977Y-28696755D01*
X37314826Y-28656208D01*
X37137669Y-28625050D01*
X37078114Y-28581587D01*
X37109909Y-28494198D01*
X37139320Y-28444811D01*
X37207025Y-28326329D01*
X37191137Y-28309913D01*
X37110390Y-28357930D01*
X36703911Y-28598472D01*
X36351957Y-28773272D01*
X36071610Y-28875415D01*
X35879954Y-28897991D01*
X35824264Y-28878384D01*
X35798620Y-28793608D01*
X35784269Y-28613969D01*
X35783059Y-28503345D01*
X35768527Y-28259920D01*
X35721308Y-28136969D01*
X35707600Y-28128155D01*
X35731933Y-28077755D01*
X35856713Y-27963901D01*
X36061565Y-27803561D01*
X36322015Y-27616537D01*
X37015381Y-27136366D01*
X37480151Y-27139935D01*
X37893793Y-27133200D01*
X38202213Y-27097253D01*
X38444372Y-27019524D01*
X38659235Y-26887441D01*
X38885762Y-26688436D01*
X38888858Y-26685447D01*
X39148661Y-26407456D01*
X39460021Y-26024600D01*
X39827261Y-25531076D01*
X40254708Y-24921082D01*
X40726917Y-24218702D01*
X40948041Y-23899661D01*
X41168205Y-23608191D01*
X41362492Y-23375720D01*
X41505993Y-23233674D01*
X41510585Y-23230118D01*
X41794700Y-22936801D01*
X41943231Y-22600855D01*
X41954550Y-22235536D01*
X41827028Y-21854093D01*
X41704464Y-21652575D01*
X41415869Y-21338407D01*
X41097896Y-21158154D01*
X40767174Y-21112905D01*
X40440338Y-21203749D01*
X40134017Y-21431775D01*
X40035474Y-21543265D01*
X39928121Y-21626640D01*
X39719728Y-21728098D01*
X39397903Y-21852806D01*
X38950254Y-22005925D01*
X38834137Y-22043780D01*
X38079912Y-22293171D01*
X37452578Y-22514070D01*
X36938456Y-22714137D01*
X36523867Y-22901028D01*
X36195133Y-23082398D01*
X35938574Y-23265904D01*
X35740513Y-23459204D01*
X35587269Y-23669954D01*
X35465164Y-23905811D01*
X35451521Y-23937175D01*
X35131424Y-24507532D01*
X34694399Y-25011255D01*
X34410060Y-25251171D01*
X34218187Y-25391354D01*
X34111873Y-25451998D01*
X34062717Y-25443456D01*
X34043785Y-25384664D01*
X33979907Y-25293478D01*
X33836061Y-25162611D01*
X33756157Y-25101527D01*
X33605822Y-24977831D01*
X33537756Y-24865150D01*
X33559113Y-24740557D01*
X33677049Y-24581120D01*
X33898715Y-24363908D01*
X34020822Y-24253204D01*
X34210693Y-24070758D01*
X34329302Y-23931763D01*
X34358942Y-23857877D01*
X34348967Y-23851820D01*
X34290411Y-23809837D01*
X34300064Y-23693084D01*
X34331745Y-23589344D01*
X34374610Y-23422332D01*
X34340992Y-23366354D01*
X34215346Y-23412374D01*
X34120365Y-23466497D01*
X33988952Y-23523406D01*
X33918834Y-23479723D01*
X33903994Y-23449381D01*
X33861335Y-23390343D01*
X33818570Y-23453362D01*
X33793287Y-23527783D01*
X33722353Y-23665630D01*
X33580499Y-23879898D01*
X33391107Y-24136671D01*
X33255185Y-24308338D01*
X33058407Y-24561519D01*
X32904895Y-24781336D01*
X32813499Y-24939407D01*
X32796657Y-24998604D01*
X32843176Y-25112276D01*
X32945644Y-25302806D01*
X33060446Y-25494193D01*
X33305772Y-25885068D01*
X33160925Y-25959551D01*
X33036205Y-26003529D01*
X32802488Y-26068782D01*
X32492795Y-26146629D01*
X32140147Y-26228391D01*
X32126998Y-26231314D01*
X31713789Y-26318469D01*
X31394439Y-26371993D01*
X31122801Y-26396514D01*
X30852723Y-26396659D01*
X30615146Y-26382954D01*
X30321393Y-26348538D01*
X29968453Y-26287606D01*
X29586970Y-26207796D01*
X29207593Y-26116751D01*
X28860965Y-26022110D01*
X28577733Y-25931516D01*
X28388543Y-25852608D01*
X28332780Y-25813899D01*
X28306250Y-25757623D01*
X28399175Y-25766156D01*
X28406661Y-25767994D01*
X28649075Y-25781226D01*
X28883212Y-25720442D01*
X29044231Y-25602761D01*
X29046972Y-25598933D01*
X29087060Y-25517506D01*
X29077165Y-25424067D01*
X29005132Y-25283407D01*
X28863212Y-25066823D01*
X28735044Y-24861591D01*
X28653529Y-24700383D01*
X28623785Y-24602937D01*
X28650930Y-24588994D01*
X28740082Y-24678293D01*
X28773250Y-24719826D01*
X28898024Y-24847266D01*
X29021970Y-24927029D01*
X29113041Y-24948366D01*
X29139188Y-24900520D01*
X29109495Y-24832653D01*
X29104668Y-24738615D01*
X29157614Y-24713632D01*
X29225549Y-24655352D01*
X29198297Y-24547553D01*
X29170489Y-24441771D01*
X29222563Y-24437087D01*
X29301673Y-24449085D01*
X29307823Y-24436868D01*
X29237075Y-24382171D01*
X29065373Y-24305614D01*
X28832662Y-24220167D01*
X28578888Y-24138800D01*
X28343998Y-24074485D01*
X28167939Y-24040193D01*
X28095873Y-24043337D01*
X28044502Y-24106533D01*
X28044144Y-24227558D01*
X28096127Y-24441311D01*
X28113279Y-24499448D01*
X28231901Y-24894757D01*
X27720969Y-24955374D01*
X27424835Y-24980535D01*
X27202109Y-24962333D01*
X27017171Y-24882937D01*
X26834404Y-24724513D01*
X26618193Y-24469229D01*
X26533551Y-24360842D01*
X26300664Y-24093464D01*
X26061177Y-23874303D01*
X25893560Y-23761230D01*
X25729848Y-23686509D01*
X25577898Y-23652129D01*
X25391105Y-23655405D01*
X25122867Y-23693654D01*
X25022263Y-23711069D01*
X24444734Y-23812903D01*
X24064216Y-23326565D01*
X23858410Y-23071042D01*
X23657464Y-22834117D01*
X23498884Y-22659764D01*
X23474722Y-22635457D01*
X23265748Y-22430687D01*
X23002039Y-22776463D01*
X22828569Y-22986491D01*
X22660873Y-23161494D01*
X22571329Y-23236998D01*
X22404329Y-23351755D01*
X23024519Y-23763398D01*
X23385628Y-24009237D01*
X23640156Y-24202621D01*
X23806572Y-24364772D01*
X23903348Y-24516909D01*
X23948954Y-24680256D01*
X23961179Y-24839538D01*
X23989163Y-25072137D01*
X24071999Y-25316949D01*
X24226744Y-25623612D01*
X24236807Y-25641698D01*
X24484862Y-26049572D01*
X24749054Y-26398525D01*
X25064286Y-26728526D01*
X25465457Y-27079545D01*
X25558103Y-27155005D01*
X26016560Y-27570502D01*
X26381577Y-27996213D01*
X26633526Y-28408310D01*
X26681650Y-28519320D01*
X26723551Y-28644730D01*
X26706871Y-28722394D01*
X26605133Y-28784118D01*
X26398591Y-28859379D01*
X26191134Y-28945593D01*
X26052446Y-29030641D01*
X26019304Y-29074138D01*
X26074256Y-29142576D01*
X26232690Y-29255459D01*
X26467176Y-29394549D01*
X26638485Y-29485829D01*
X26981884Y-29660662D01*
X27214572Y-29775331D01*
X27354559Y-29836735D01*
X27419854Y-29851771D01*
X27428463Y-29827341D01*
X27403629Y-29778966D01*
X27386650Y-29700186D01*
X27453980Y-29696737D01*
X27552474Y-29657564D01*
X27579424Y-29564917D01*
X27571731Y-29471838D01*
X27503841Y-29439510D01*
X27339664Y-29455952D01*
X27281243Y-29465945D01*
X27078736Y-29486072D01*
X26938886Y-29471590D01*
X26913769Y-29457049D01*
X26944622Y-29408718D01*
X27106045Y-29355076D01*
X27294727Y-29316185D01*
X27628921Y-29241548D01*
X27833429Y-29152473D01*
X27923680Y-29037411D01*
X27915101Y-28884813D01*
X27906369Y-28858322D01*
X27800601Y-28683362D01*
X27685998Y-28583975D01*
X27527028Y-28498107D01*
X27311891Y-28383466D01*
X27235447Y-28343035D01*
X27033145Y-28228533D01*
X26954015Y-28166303D01*
X26986559Y-28154470D01*
X27119282Y-28191164D01*
X27340688Y-28274512D01*
X27639281Y-28402642D01*
X27660647Y-28412277D01*
X28122739Y-28601762D01*
X28661033Y-28791111D01*
X29236768Y-28969340D01*
X29811184Y-29125461D01*
X30345520Y-29248490D01*
X30801018Y-29327438D01*
X30946789Y-29343721D01*
X31438807Y-29353019D01*
X32009917Y-29308515D01*
X32623286Y-29217974D01*
X33242079Y-29089152D01*
X33829463Y-28929811D01*
X34348604Y-28747714D01*
X34762668Y-28550618D01*
X34791390Y-28533691D01*
X34872774Y-28513270D01*
X34883051Y-28611720D01*
X34883041Y-28611809D01*
X34900223Y-28753935D01*
X34961525Y-28974778D01*
X35031129Y-29167950D01*
X35195553Y-29581103D01*
X35222650Y-29734780D01*
X35216954Y-29735197D01*
X35140446Y-29657975D01*
X35040961Y-29468089D01*
X34932908Y-29193123D01*
X34931310Y-29188535D01*
X34831489Y-28918266D01*
X34756639Y-28765402D01*
X34692905Y-28707494D01*
X34639089Y-28715183D01*
X34509459Y-28778374D01*
X34311364Y-28874750D01*
X34224482Y-28916980D01*
X34005401Y-28996701D01*
X33655530Y-29088738D01*
X33188391Y-29189867D01*
X32668669Y-29287812D01*
X32175000Y-29372721D01*
X31794217Y-29430157D01*
X31497251Y-29462920D01*
X31255038Y-29473802D01*
X31038508Y-29465599D01*
X30929579Y-29455079D01*
X30422279Y-29377578D01*
X29842365Y-29256460D01*
X29250247Y-29106174D01*
X28706332Y-28941170D01*
X28542683Y-28884127D01*
X28002463Y-28687874D01*
X28020416Y-28918045D01*
X27986895Y-29139529D01*
X27890642Y-29246700D01*
X27784653Y-29347732D01*
X27762793Y-29416625D01*
X27761201Y-29631387D01*
X27671087Y-29843576D01*
X27613144Y-29910499D01*
X27517807Y-29969346D01*
X27398517Y-29965749D01*
X27209752Y-29895527D01*
X27147849Y-29867747D01*
X26654123Y-29632538D01*
X26293258Y-29435365D01*
X26059997Y-29269654D01*
X25949083Y-29128833D01*
X25955260Y-29006331D01*
X26073271Y-28895574D01*
X26288643Y-28793521D01*
X26640861Y-28657724D01*
X26507828Y-28419234D01*
X26124065Y-27857585D01*
X25632568Y-27367208D01*
X25502789Y-27262263D01*
X24982392Y-26804156D01*
X24540215Y-26309287D01*
X24191992Y-25799878D01*
X23953467Y-25298156D01*
X23855265Y-24935832D01*
X23802102Y-24672976D01*
X23734762Y-24499726D01*
X23624865Y-24361238D01*
X23500009Y-24249358D01*
X23288348Y-24086744D01*
X23014309Y-23896858D01*
X22771248Y-23741891D01*
X22539565Y-23601226D01*
X22353573Y-23487787D01*
X22251143Y-23424676D01*
X22247967Y-23422668D01*
X22220797Y-23328477D01*
X22263922Y-23159944D01*
X22263922Y-23159944D01*
G37*
X22263922Y-23159944D02*
X22359012Y-22957670D01*
X22487737Y-22762256D01*
X22601810Y-22638859D01*
X22804721Y-22489747D01*
X23013992Y-22376047D01*
X23021014Y-22373171D01*
X23164175Y-22332000D01*
X23285350Y-22357452D01*
X23436483Y-22465938D01*
X23505828Y-22526348D01*
X23685457Y-22706323D01*
X23903221Y-22953395D01*
X24113757Y-23215945D01*
X24125341Y-23231293D01*
X24475050Y-23696526D01*
X24741396Y-23604372D01*
X25072219Y-23540709D01*
X25447726Y-23544871D01*
X25802793Y-23611928D01*
X26017289Y-23700983D01*
X26203194Y-23843288D01*
X26407158Y-24049855D01*
X26510413Y-24176753D01*
X26768126Y-24502439D01*
X26982894Y-24717636D01*
X27179037Y-24840475D01*
X27380870Y-24889088D01*
X27469462Y-24891797D01*
X27703605Y-24871164D01*
X27900858Y-24826296D01*
X27929765Y-24814960D01*
X28030432Y-24753133D01*
X28046817Y-24664158D01*
X27988090Y-24497146D01*
X27987340Y-24495356D01*
X27922360Y-24238487D01*
X27960403Y-24047608D01*
X28096086Y-23944395D01*
X28125849Y-23937578D01*
X28250266Y-23948759D01*
X28459122Y-23998406D01*
X28714561Y-24073863D01*
X28978729Y-24162476D01*
X29213771Y-24251592D01*
X29381834Y-24328555D01*
X29444917Y-24378522D01*
X29408776Y-24470667D01*
X29396566Y-24482996D01*
X29375890Y-24581952D01*
X29401415Y-24670716D01*
X29417247Y-24788635D01*
X29348429Y-24827368D01*
X29265668Y-24886989D01*
X29266509Y-24933926D01*
X29237708Y-25011884D01*
X29175895Y-25032216D01*
X29104603Y-25059777D01*
X29094597Y-25146441D01*
X29142895Y-25328260D01*
X29149643Y-25349412D01*
X29203845Y-25543292D01*
X29194815Y-25655895D01*
X29108771Y-25742409D01*
X29040023Y-25788323D01*
X28832423Y-25922140D01*
X29580776Y-26090430D01*
X30106343Y-26196441D01*
X30564242Y-26257383D01*
X31022285Y-26280261D01*
X31387902Y-26277160D01*
X31598725Y-26255675D01*
X31881540Y-26205920D01*
X32197862Y-26137284D01*
X32509207Y-26059151D01*
X32777085Y-25980909D01*
X32963011Y-25911943D01*
X33018638Y-25879447D01*
X33045047Y-25806735D01*
X33007221Y-25670833D01*
X32897140Y-25445702D01*
X32869027Y-25393684D01*
X32756981Y-25163167D01*
X32689742Y-24974146D01*
X32680801Y-24874532D01*
X32741954Y-24776235D01*
X32873798Y-24597271D01*
X33053520Y-24367982D01*
X33162171Y-24234259D01*
X33375705Y-23958848D01*
X33567280Y-23683638D01*
X33706163Y-23453820D01*
X33740490Y-23383787D01*
X33857237Y-23154483D01*
X33946315Y-23066996D01*
X34007411Y-23121532D01*
X34026194Y-23195291D01*
X34060638Y-23286601D01*
X34145348Y-23298297D01*
X34293836Y-23250433D01*
X34462745Y-23196494D01*
X34533041Y-23218517D01*
X34522769Y-23339076D01*
X34480502Y-23483959D01*
X34438465Y-23639134D01*
X34462121Y-23693763D01*
X34571953Y-23685225D01*
X34589151Y-23682215D01*
X34740391Y-23679669D01*
X34768451Y-23742263D01*
X34675717Y-23862343D01*
X34564998Y-23952427D01*
X34544721Y-23837431D01*
X34574155Y-23795395D01*
X34532119Y-23765962D01*
X34502686Y-23807997D01*
X34544721Y-23837431D01*
X34564998Y-23952427D01*
X34484442Y-24017971D01*
X34176872Y-24254409D01*
X33923016Y-24475595D01*
X33742621Y-24662313D01*
X33655436Y-24795348D01*
X33651030Y-24828927D01*
X33716942Y-24922738D01*
X33864060Y-25051254D01*
X33940492Y-25106213D01*
X34213682Y-25291212D01*
X34593683Y-24944857D01*
X34812721Y-24724037D01*
X35019001Y-24479652D01*
X35189701Y-24243239D01*
X35302002Y-24046334D01*
X35333479Y-23922515D01*
X35365581Y-23791225D01*
X35473472Y-23601719D01*
X35627860Y-23395906D01*
X35799456Y-23215694D01*
X35866174Y-23160300D01*
X36144994Y-22978704D01*
X36516715Y-22787010D01*
X36992889Y-22580288D01*
X37585069Y-22353605D01*
X38304807Y-22102030D01*
X38491935Y-22039353D01*
X38966896Y-21879888D01*
X39324734Y-21754839D01*
X39586705Y-21654831D01*
X39774065Y-21570488D01*
X39908070Y-21492434D01*
X40009977Y-21411293D01*
X40082899Y-21337616D01*
X40269126Y-21168473D01*
X40474487Y-21071250D01*
X40688389Y-21022399D01*
X40938943Y-20992529D01*
X41121535Y-21019344D01*
X41306224Y-21114616D01*
X41330416Y-21130265D01*
X41567819Y-21329768D01*
X41796446Y-21595255D01*
X41981692Y-21879613D01*
X42088952Y-22135727D01*
X42097126Y-22174129D01*
X42101394Y-22393274D01*
X42061911Y-22635779D01*
X42057149Y-22652817D01*
X41954016Y-22869603D01*
X41789278Y-23091598D01*
X41729814Y-23152681D01*
X41619357Y-23276834D01*
X41441190Y-23501293D01*
X41209782Y-23806730D01*
X40939600Y-24173813D01*
X40645113Y-24583211D01*
X40414592Y-24909846D01*
X40103294Y-25347513D01*
X39796948Y-25765164D01*
X39511879Y-26141521D01*
X39264414Y-26455295D01*
X39070880Y-26685206D01*
X38976471Y-26784628D01*
X38768091Y-26965248D01*
X38565521Y-27093147D01*
X38335385Y-27178832D01*
X38044308Y-27232809D01*
X37658914Y-27265586D01*
X37410148Y-27277739D01*
X37179132Y-27291742D01*
X37007010Y-27322774D01*
X36848595Y-27388967D01*
X36658693Y-27508451D01*
X36432505Y-27670006D01*
X36186256Y-27851868D01*
X36034160Y-27981876D01*
X35952582Y-28092983D01*
X35917883Y-28218139D01*
X35906428Y-28390296D01*
X35905917Y-28404107D01*
X35899337Y-28618491D01*
X35897279Y-28764567D01*
X35898472Y-28798439D01*
X35963380Y-28807433D01*
X36119995Y-28760465D01*
X36333336Y-28672397D01*
X36568421Y-28558094D01*
X36790269Y-28432417D01*
X36849632Y-28394307D01*
X37129498Y-28221702D01*
X37310235Y-28143941D01*
X37399935Y-28158030D01*
X37411767Y-28186474D01*
X37379331Y-28288353D01*
X37331983Y-28356274D01*
X37274828Y-28471881D01*
X37346837Y-28539680D01*
X37550660Y-28564946D01*
X37731518Y-28594611D01*
X37775364Y-28672013D01*
X37682151Y-28796865D01*
X37598668Y-28866026D01*
X37470335Y-28973291D01*
X37450878Y-29043102D01*
X37531307Y-29122709D01*
X37547445Y-29135320D01*
X37652801Y-29241173D01*
X37635927Y-29306708D01*
X37489782Y-29336570D01*
X37242231Y-29336799D01*
X36976474Y-29345897D01*
X36659574Y-29395831D01*
X36256191Y-29492791D01*
X36088371Y-29538889D01*
X35766818Y-29625087D01*
X35491238Y-29691115D01*
X35294870Y-29729484D01*
X35222650Y-29734780D01*
X35195553Y-29581103D01*
X36306554Y-29385203D01*
X36748005Y-29304363D01*
X37056004Y-29240502D01*
X37240906Y-29190969D01*
X37313070Y-29153110D01*
X37299620Y-29130872D01*
X37240159Y-29076403D01*
X37277179Y-28994650D01*
X37387832Y-28884597D01*
X37593977Y-28696755D01*
X37314826Y-28656208D01*
X37137669Y-28625050D01*
X37078114Y-28581587D01*
X37109909Y-28494198D01*
X37139320Y-28444811D01*
X37207025Y-28326329D01*
X37191137Y-28309913D01*
X37110390Y-28357930D01*
X36703911Y-28598472D01*
X36351957Y-28773272D01*
X36071610Y-28875415D01*
X35879954Y-28897991D01*
X35824264Y-28878384D01*
X35798620Y-28793608D01*
X35784269Y-28613969D01*
X35783059Y-28503345D01*
X35768527Y-28259920D01*
X35721308Y-28136969D01*
X35707600Y-28128155D01*
X35731933Y-28077755D01*
X35856713Y-27963901D01*
X36061565Y-27803561D01*
X36322015Y-27616537D01*
X37015381Y-27136366D01*
X37480151Y-27139935D01*
X37893793Y-27133200D01*
X38202213Y-27097253D01*
X38444372Y-27019524D01*
X38659235Y-26887441D01*
X38885762Y-26688436D01*
X38888858Y-26685447D01*
X39148661Y-26407456D01*
X39460021Y-26024600D01*
X39827261Y-25531076D01*
X40254708Y-24921082D01*
X40726917Y-24218702D01*
X40948041Y-23899661D01*
X41168205Y-23608191D01*
X41362492Y-23375720D01*
X41505993Y-23233674D01*
X41510585Y-23230118D01*
X41794700Y-22936801D01*
X41943231Y-22600855D01*
X41954550Y-22235536D01*
X41827028Y-21854093D01*
X41704464Y-21652575D01*
X41415869Y-21338407D01*
X41097896Y-21158154D01*
X40767174Y-21112905D01*
X40440338Y-21203749D01*
X40134017Y-21431775D01*
X40035474Y-21543265D01*
X39928121Y-21626640D01*
X39719728Y-21728098D01*
X39397903Y-21852806D01*
X38950254Y-22005925D01*
X38834137Y-22043780D01*
X38079912Y-22293171D01*
X37452578Y-22514070D01*
X36938456Y-22714137D01*
X36523867Y-22901028D01*
X36195133Y-23082398D01*
X35938574Y-23265904D01*
X35740513Y-23459204D01*
X35587269Y-23669954D01*
X35465164Y-23905811D01*
X35451521Y-23937175D01*
X35131424Y-24507532D01*
X34694399Y-25011255D01*
X34410060Y-25251171D01*
X34218187Y-25391354D01*
X34111873Y-25451998D01*
X34062717Y-25443456D01*
X34043785Y-25384664D01*
X33979907Y-25293478D01*
X33836061Y-25162611D01*
X33756157Y-25101527D01*
X33605822Y-24977831D01*
X33537756Y-24865150D01*
X33559113Y-24740557D01*
X33677049Y-24581120D01*
X33898715Y-24363908D01*
X34020822Y-24253204D01*
X34210693Y-24070758D01*
X34329302Y-23931763D01*
X34358942Y-23857877D01*
X34348967Y-23851820D01*
X34290411Y-23809837D01*
X34300064Y-23693084D01*
X34331745Y-23589344D01*
X34374610Y-23422332D01*
X34340992Y-23366354D01*
X34215346Y-23412374D01*
X34120365Y-23466497D01*
X33988952Y-23523406D01*
X33918834Y-23479723D01*
X33903994Y-23449381D01*
X33861335Y-23390343D01*
X33818570Y-23453362D01*
X33793287Y-23527783D01*
X33722353Y-23665630D01*
X33580499Y-23879898D01*
X33391107Y-24136671D01*
X33255185Y-24308338D01*
X33058407Y-24561519D01*
X32904895Y-24781336D01*
X32813499Y-24939407D01*
X32796657Y-24998604D01*
X32843176Y-25112276D01*
X32945644Y-25302806D01*
X33060446Y-25494193D01*
X33305772Y-25885068D01*
X33160925Y-25959551D01*
X33036205Y-26003529D01*
X32802488Y-26068782D01*
X32492795Y-26146629D01*
X32140147Y-26228391D01*
X32126998Y-26231314D01*
X31713789Y-26318469D01*
X31394439Y-26371993D01*
X31122801Y-26396514D01*
X30852723Y-26396659D01*
X30615146Y-26382954D01*
X30321393Y-26348538D01*
X29968453Y-26287606D01*
X29586970Y-26207796D01*
X29207593Y-26116751D01*
X28860965Y-26022110D01*
X28577733Y-25931516D01*
X28388543Y-25852608D01*
X28332780Y-25813899D01*
X28306250Y-25757623D01*
X28399175Y-25766156D01*
X28406661Y-25767994D01*
X28649075Y-25781226D01*
X28883212Y-25720442D01*
X29044231Y-25602761D01*
X29046972Y-25598933D01*
X29087060Y-25517506D01*
X29077165Y-25424067D01*
X29005132Y-25283407D01*
X28863212Y-25066823D01*
X28735044Y-24861591D01*
X28653529Y-24700383D01*
X28623785Y-24602937D01*
X28650930Y-24588994D01*
X28740082Y-24678293D01*
X28773250Y-24719826D01*
X28898024Y-24847266D01*
X29021970Y-24927029D01*
X29113041Y-24948366D01*
X29139188Y-24900520D01*
X29109495Y-24832653D01*
X29104668Y-24738615D01*
X29157614Y-24713632D01*
X29225549Y-24655352D01*
X29198297Y-24547553D01*
X29170489Y-24441771D01*
X29222563Y-24437087D01*
X29301673Y-24449085D01*
X29307823Y-24436868D01*
X29237075Y-24382171D01*
X29065373Y-24305614D01*
X28832662Y-24220167D01*
X28578888Y-24138800D01*
X28343998Y-24074485D01*
X28167939Y-24040193D01*
X28095873Y-24043337D01*
X28044502Y-24106533D01*
X28044144Y-24227558D01*
X28096127Y-24441311D01*
X28113279Y-24499448D01*
X28231901Y-24894757D01*
X27720969Y-24955374D01*
X27424835Y-24980535D01*
X27202109Y-24962333D01*
X27017171Y-24882937D01*
X26834404Y-24724513D01*
X26618193Y-24469229D01*
X26533551Y-24360842D01*
X26300664Y-24093464D01*
X26061177Y-23874303D01*
X25893560Y-23761230D01*
X25729848Y-23686509D01*
X25577898Y-23652129D01*
X25391105Y-23655405D01*
X25122867Y-23693654D01*
X25022263Y-23711069D01*
X24444734Y-23812903D01*
X24064216Y-23326565D01*
X23858410Y-23071042D01*
X23657464Y-22834117D01*
X23498884Y-22659764D01*
X23474722Y-22635457D01*
X23265748Y-22430687D01*
X23002039Y-22776463D01*
X22828569Y-22986491D01*
X22660873Y-23161494D01*
X22571329Y-23236998D01*
X22404329Y-23351755D01*
X23024519Y-23763398D01*
X23385628Y-24009237D01*
X23640156Y-24202621D01*
X23806572Y-24364772D01*
X23903348Y-24516909D01*
X23948954Y-24680256D01*
X23961179Y-24839538D01*
X23989163Y-25072137D01*
X24071999Y-25316949D01*
X24226744Y-25623612D01*
X24236807Y-25641698D01*
X24484862Y-26049572D01*
X24749054Y-26398525D01*
X25064286Y-26728526D01*
X25465457Y-27079545D01*
X25558103Y-27155005D01*
X26016560Y-27570502D01*
X26381577Y-27996213D01*
X26633526Y-28408310D01*
X26681650Y-28519320D01*
X26723551Y-28644730D01*
X26706871Y-28722394D01*
X26605133Y-28784118D01*
X26398591Y-28859379D01*
X26191134Y-28945593D01*
X26052446Y-29030641D01*
X26019304Y-29074138D01*
X26074256Y-29142576D01*
X26232690Y-29255459D01*
X26467176Y-29394549D01*
X26638485Y-29485829D01*
X26981884Y-29660662D01*
X27214572Y-29775331D01*
X27354559Y-29836735D01*
X27419854Y-29851771D01*
X27428463Y-29827341D01*
X27403629Y-29778966D01*
X27386650Y-29700186D01*
X27453980Y-29696737D01*
X27552474Y-29657564D01*
X27579424Y-29564917D01*
X27571731Y-29471838D01*
X27503841Y-29439510D01*
X27339664Y-29455952D01*
X27281243Y-29465945D01*
X27078736Y-29486072D01*
X26938886Y-29471590D01*
X26913769Y-29457049D01*
X26944622Y-29408718D01*
X27106045Y-29355076D01*
X27294727Y-29316185D01*
X27628921Y-29241548D01*
X27833429Y-29152473D01*
X27923680Y-29037411D01*
X27915101Y-28884813D01*
X27906369Y-28858322D01*
X27800601Y-28683362D01*
X27685998Y-28583975D01*
X27527028Y-28498107D01*
X27311891Y-28383466D01*
X27235447Y-28343035D01*
X27033145Y-28228533D01*
X26954015Y-28166303D01*
X26986559Y-28154470D01*
X27119282Y-28191164D01*
X27340688Y-28274512D01*
X27639281Y-28402642D01*
X27660647Y-28412277D01*
X28122739Y-28601762D01*
X28661033Y-28791111D01*
X29236768Y-28969340D01*
X29811184Y-29125461D01*
X30345520Y-29248490D01*
X30801018Y-29327438D01*
X30946789Y-29343721D01*
X31438807Y-29353019D01*
X32009917Y-29308515D01*
X32623286Y-29217974D01*
X33242079Y-29089152D01*
X33829463Y-28929811D01*
X34348604Y-28747714D01*
X34762668Y-28550618D01*
X34791390Y-28533691D01*
X34872774Y-28513270D01*
X34883051Y-28611720D01*
X34883041Y-28611809D01*
X34900223Y-28753935D01*
X34961525Y-28974778D01*
X35031129Y-29167950D01*
X35195553Y-29581103D01*
X35222650Y-29734780D01*
X35216954Y-29735197D01*
X35140446Y-29657975D01*
X35040961Y-29468089D01*
X34932908Y-29193123D01*
X34931310Y-29188535D01*
X34831489Y-28918266D01*
X34756639Y-28765402D01*
X34692905Y-28707494D01*
X34639089Y-28715183D01*
X34509459Y-28778374D01*
X34311364Y-28874750D01*
X34224482Y-28916980D01*
X34005401Y-28996701D01*
X33655530Y-29088738D01*
X33188391Y-29189867D01*
X32668669Y-29287812D01*
X32175000Y-29372721D01*
X31794217Y-29430157D01*
X31497251Y-29462920D01*
X31255038Y-29473802D01*
X31038508Y-29465599D01*
X30929579Y-29455079D01*
X30422279Y-29377578D01*
X29842365Y-29256460D01*
X29250247Y-29106174D01*
X28706332Y-28941170D01*
X28542683Y-28884127D01*
X28002463Y-28687874D01*
X28020416Y-28918045D01*
X27986895Y-29139529D01*
X27890642Y-29246700D01*
X27784653Y-29347732D01*
X27762793Y-29416625D01*
X27761201Y-29631387D01*
X27671087Y-29843576D01*
X27613144Y-29910499D01*
X27517807Y-29969346D01*
X27398517Y-29965749D01*
X27209752Y-29895527D01*
X27147849Y-29867747D01*
X26654123Y-29632538D01*
X26293258Y-29435365D01*
X26059997Y-29269654D01*
X25949083Y-29128833D01*
X25955260Y-29006331D01*
X26073271Y-28895574D01*
X26288643Y-28793521D01*
X26640861Y-28657724D01*
X26507828Y-28419234D01*
X26124065Y-27857585D01*
X25632568Y-27367208D01*
X25502789Y-27262263D01*
X24982392Y-26804156D01*
X24540215Y-26309287D01*
X24191992Y-25799878D01*
X23953467Y-25298156D01*
X23855265Y-24935832D01*
X23802102Y-24672976D01*
X23734762Y-24499726D01*
X23624865Y-24361238D01*
X23500009Y-24249358D01*
X23288348Y-24086744D01*
X23014309Y-23896858D01*
X22771248Y-23741891D01*
X22539565Y-23601226D01*
X22353573Y-23487787D01*
X22251143Y-23424676D01*
X22247967Y-23422668D01*
X22220797Y-23328477D01*
X22263922Y-23159944D01*
G36*
X41271617Y-22209150D02*
X41347396Y-22084765D01*
X41430613Y-21986393D01*
X41461242Y-22003181D01*
X41462928Y-22149856D01*
X41462774Y-22156625D01*
X41476773Y-22319448D01*
X41544785Y-22381245D01*
X41594952Y-22386901D01*
X41692861Y-22395639D01*
X41658872Y-22434491D01*
X41607488Y-22466564D01*
X41448435Y-22497751D01*
X41303285Y-22432962D01*
X41242234Y-22327267D01*
X41271617Y-22209150D01*
X41271617Y-22209150D01*
G37*
X41271617Y-22209150D02*
X41347396Y-22084765D01*
X41430613Y-21986393D01*
X41461242Y-22003181D01*
X41462928Y-22149856D01*
X41462774Y-22156625D01*
X41476773Y-22319448D01*
X41544785Y-22381245D01*
X41594952Y-22386901D01*
X41692861Y-22395639D01*
X41658872Y-22434491D01*
X41607488Y-22466564D01*
X41448435Y-22497751D01*
X41303285Y-22432962D01*
X41242234Y-22327267D01*
X41271617Y-22209150D01*
G36*
X40692931Y-21473084D02*
X40753598Y-21358366D01*
X40837314Y-21336691D01*
X40889906Y-21411746D01*
X40891101Y-21459602D01*
X40922068Y-21573105D01*
X41040135Y-21599128D01*
X41147316Y-21619000D01*
X41155865Y-21658458D01*
X41026367Y-21741649D01*
X40869976Y-21729175D01*
X40739917Y-21642349D01*
X40689418Y-21502485D01*
X40692931Y-21473084D01*
X40692931Y-21473084D01*
G37*
X40692931Y-21473084D02*
X40753598Y-21358366D01*
X40837314Y-21336691D01*
X40889906Y-21411746D01*
X40891101Y-21459602D01*
X40922068Y-21573105D01*
X41040135Y-21599128D01*
X41147316Y-21619000D01*
X41155865Y-21658458D01*
X41026367Y-21741649D01*
X40869976Y-21729175D01*
X40739917Y-21642349D01*
X40689418Y-21502485D01*
X40692931Y-21473084D01*
G36*
X37929981Y-26387428D02*
X38079924Y-26160632D01*
X38094104Y-26140795D01*
X38277760Y-25875635D01*
X38449620Y-25611640D01*
X38568840Y-25412290D01*
X38725439Y-25126759D01*
X38653277Y-25375319D01*
X38600526Y-25575554D01*
X38596491Y-25670591D01*
X38642951Y-25692573D01*
X38670654Y-25689102D01*
X38705618Y-25637791D01*
X38689568Y-25612075D01*
X38694982Y-25548034D01*
X38744218Y-25528748D01*
X38838850Y-25569725D01*
X38887430Y-25695521D01*
X38879015Y-25850123D01*
X38827119Y-25953196D01*
X38757228Y-25995788D01*
X38739976Y-25897951D01*
X38769410Y-25855915D01*
X38727374Y-25826481D01*
X38697940Y-25868517D01*
X38739976Y-25897951D01*
X38757228Y-25995788D01*
X38692821Y-26035040D01*
X38646266Y-26045552D01*
X38633178Y-25971326D01*
X38589693Y-25925011D01*
X38578799Y-25917227D01*
X38475140Y-25877297D01*
X38442041Y-25891025D01*
X38472864Y-25940407D01*
X38545845Y-25964289D01*
X38633178Y-25971326D01*
X38646266Y-26045552D01*
X38528209Y-26072209D01*
X38307981Y-26148454D01*
X38120801Y-26322331D01*
X37957153Y-26502433D01*
X37869917Y-26567322D01*
X37860419Y-26525989D01*
X37929981Y-26387428D01*
X37929981Y-26387428D01*
G37*
X37929981Y-26387428D02*
X38079924Y-26160632D01*
X38094104Y-26140795D01*
X38277760Y-25875635D01*
X38449620Y-25611640D01*
X38568840Y-25412290D01*
X38725439Y-25126759D01*
X38653277Y-25375319D01*
X38600526Y-25575554D01*
X38596491Y-25670591D01*
X38642951Y-25692573D01*
X38670654Y-25689102D01*
X38705618Y-25637791D01*
X38689568Y-25612075D01*
X38694982Y-25548034D01*
X38744218Y-25528748D01*
X38838850Y-25569725D01*
X38887430Y-25695521D01*
X38879015Y-25850123D01*
X38827119Y-25953196D01*
X38757228Y-25995788D01*
X38739976Y-25897951D01*
X38769410Y-25855915D01*
X38727374Y-25826481D01*
X38697940Y-25868517D01*
X38739976Y-25897951D01*
X38757228Y-25995788D01*
X38692821Y-26035040D01*
X38646266Y-26045552D01*
X38633178Y-25971326D01*
X38589693Y-25925011D01*
X38578799Y-25917227D01*
X38475140Y-25877297D01*
X38442041Y-25891025D01*
X38472864Y-25940407D01*
X38545845Y-25964289D01*
X38633178Y-25971326D01*
X38646266Y-26045552D01*
X38528209Y-26072209D01*
X38307981Y-26148454D01*
X38120801Y-26322331D01*
X37957153Y-26502433D01*
X37869917Y-26567322D01*
X37860419Y-26525989D01*
X37929981Y-26387428D01*
G36*
X36327159Y-24051988D02*
X36434635Y-24003919D01*
X36469142Y-23989869D01*
X36656582Y-23902311D01*
X36769541Y-23826448D01*
X36785420Y-23798440D01*
X36820367Y-23682721D01*
X36922459Y-23536213D01*
X37044928Y-23418076D01*
X37112497Y-23384663D01*
X37265002Y-23411547D01*
X37397090Y-23512071D01*
X37451877Y-23639993D01*
X37449867Y-23658917D01*
X37479429Y-23746926D01*
X37538693Y-23751658D01*
X37661204Y-23760967D01*
X37690938Y-23780082D01*
X37641472Y-23811350D01*
X37475666Y-23859938D01*
X37314323Y-23897204D01*
X37283597Y-23722948D01*
X37347228Y-23658235D01*
X37346682Y-23638133D01*
X37310024Y-23572823D01*
X37302563Y-23572222D01*
X37250376Y-23633061D01*
X37239478Y-23657036D01*
X37256758Y-23721895D01*
X37283597Y-23722948D01*
X37314323Y-23897204D01*
X37220286Y-23918924D01*
X36950611Y-23972306D01*
X36928221Y-23845329D01*
X37025368Y-23726371D01*
X37104858Y-23588505D01*
X37082866Y-23540564D01*
X37052794Y-23542572D01*
X36986498Y-23609503D01*
X36934454Y-23710820D01*
X36895624Y-23839779D01*
X36928221Y-23845329D01*
X36950611Y-23972306D01*
X36937462Y-23974910D01*
X36603280Y-24035400D01*
X36398694Y-24068136D01*
X36310917Y-24073529D01*
X36327159Y-24051988D01*
X36327159Y-24051988D01*
G37*
X36327159Y-24051988D02*
X36434635Y-24003919D01*
X36469142Y-23989869D01*
X36656582Y-23902311D01*
X36769541Y-23826448D01*
X36785420Y-23798440D01*
X36820367Y-23682721D01*
X36922459Y-23536213D01*
X37044928Y-23418076D01*
X37112497Y-23384663D01*
X37265002Y-23411547D01*
X37397090Y-23512071D01*
X37451877Y-23639993D01*
X37449867Y-23658917D01*
X37479429Y-23746926D01*
X37538693Y-23751658D01*
X37661204Y-23760967D01*
X37690938Y-23780082D01*
X37641472Y-23811350D01*
X37475666Y-23859938D01*
X37314323Y-23897204D01*
X37283597Y-23722948D01*
X37347228Y-23658235D01*
X37346682Y-23638133D01*
X37310024Y-23572823D01*
X37302563Y-23572222D01*
X37250376Y-23633061D01*
X37239478Y-23657036D01*
X37256758Y-23721895D01*
X37283597Y-23722948D01*
X37314323Y-23897204D01*
X37220286Y-23918924D01*
X36950611Y-23972306D01*
X36928221Y-23845329D01*
X37025368Y-23726371D01*
X37104858Y-23588505D01*
X37082866Y-23540564D01*
X37052794Y-23542572D01*
X36986498Y-23609503D01*
X36934454Y-23710820D01*
X36895624Y-23839779D01*
X36928221Y-23845329D01*
X36950611Y-23972306D01*
X36937462Y-23974910D01*
X36603280Y-24035400D01*
X36398694Y-24068136D01*
X36310917Y-24073529D01*
X36327159Y-24051988D01*
G36*
X34455984Y-27095480D02*
X34498020Y-27124913D01*
X34468586Y-27166949D01*
X34426551Y-27137515D01*
X34455984Y-27095480D01*
X34455984Y-27095480D01*
G37*
X34455984Y-27095480D02*
X34498020Y-27124913D01*
X34468586Y-27166949D01*
X34426551Y-27137515D01*
X34455984Y-27095480D01*
G36*
X34133365Y-27250944D02*
X34278023Y-27215705D01*
X34312037Y-27219440D01*
X34325615Y-27243942D01*
X34229057Y-27271240D01*
X34125617Y-27277898D01*
X34133365Y-27250944D01*
X34133365Y-27250944D01*
G37*
X34133365Y-27250944D02*
X34278023Y-27215705D01*
X34312037Y-27219440D01*
X34325615Y-27243942D01*
X34229057Y-27271240D01*
X34125617Y-27277898D01*
X34133365Y-27250944D01*
G36*
X26523605Y-26137706D02*
X26677109Y-26229256D01*
X26806966Y-26313167D01*
X27657986Y-26837591D01*
X28446130Y-27249162D01*
X29189878Y-27555224D01*
X29907710Y-27763120D01*
X30618109Y-27880197D01*
X30788451Y-27895513D01*
X31172630Y-27898196D01*
X31649103Y-27861804D01*
X32172515Y-27793310D01*
X32697515Y-27699683D01*
X33178750Y-27587897D01*
X33557698Y-27469877D01*
X33777720Y-27394177D01*
X33938347Y-27350917D01*
X33995819Y-27347514D01*
X33953826Y-27383107D01*
X33806601Y-27450023D01*
X33597016Y-27529748D01*
X32636073Y-27816244D01*
X31725769Y-27972420D01*
X30854185Y-27998928D01*
X30009404Y-27896418D01*
X29453388Y-27756165D01*
X29010717Y-27596565D01*
X28507628Y-27375118D01*
X27981682Y-27111969D01*
X27470438Y-26827261D01*
X27011452Y-26541137D01*
X26642286Y-26273743D01*
X26558549Y-26203591D01*
X26483310Y-26128809D01*
X26523605Y-26137706D01*
X26523605Y-26137706D01*
G37*
X26523605Y-26137706D02*
X26677109Y-26229256D01*
X26806966Y-26313167D01*
X27657986Y-26837591D01*
X28446130Y-27249162D01*
X29189878Y-27555224D01*
X29907710Y-27763120D01*
X30618109Y-27880197D01*
X30788451Y-27895513D01*
X31172630Y-27898196D01*
X31649103Y-27861804D01*
X32172515Y-27793310D01*
X32697515Y-27699683D01*
X33178750Y-27587897D01*
X33557698Y-27469877D01*
X33777720Y-27394177D01*
X33938347Y-27350917D01*
X33995819Y-27347514D01*
X33953826Y-27383107D01*
X33806601Y-27450023D01*
X33597016Y-27529748D01*
X32636073Y-27816244D01*
X31725769Y-27972420D01*
X30854185Y-27998928D01*
X30009404Y-27896418D01*
X29453388Y-27756165D01*
X29010717Y-27596565D01*
X28507628Y-27375118D01*
X27981682Y-27111969D01*
X27470438Y-26827261D01*
X27011452Y-26541137D01*
X26642286Y-26273743D01*
X26558549Y-26203591D01*
X26483310Y-26128809D01*
X26523605Y-26137706D01*
G36*
X26212205Y-25896206D02*
X26254241Y-25925640D01*
X26224807Y-25967674D01*
X26182772Y-25938241D01*
X26212205Y-25896206D01*
X26212205Y-25896206D01*
G37*
X26212205Y-25896206D02*
X26254241Y-25925640D01*
X26224807Y-25967674D01*
X26182772Y-25938241D01*
X26212205Y-25896206D01*
D12*
X29468143Y-16041666D02*
X29515762Y-16089285D01*
X29563381Y-16232142D01*
X29563381Y-16327380D01*
X29515762Y-16470238D01*
X29420524Y-16565476D01*
X29325286Y-16613095D01*
X29134810Y-16660714D01*
X28991952Y-16660714D01*
X28801476Y-16613095D01*
X28706238Y-16565476D01*
X28611000Y-16470238D01*
X28563381Y-16327380D01*
X28563381Y-16232142D01*
X28611000Y-16089285D01*
X28658619Y-16041666D01*
X29563381Y-15089285D02*
X29563381Y-15660714D01*
X29563381Y-15375000D02*
X28563381Y-15375000D01*
X28706238Y-15470238D01*
X28801476Y-15565476D01*
X28849095Y-15660714D01*
X44362857Y-19816143D02*
X44315238Y-19863762D01*
X44172381Y-19911381D01*
X44077143Y-19911381D01*
X43934285Y-19863762D01*
X43839047Y-19768524D01*
X43791428Y-19673286D01*
X43743809Y-19482810D01*
X43743809Y-19339952D01*
X43791428Y-19149476D01*
X43839047Y-19054238D01*
X43934285Y-18959000D01*
X44077143Y-18911381D01*
X44172381Y-18911381D01*
X44315238Y-18959000D01*
X44362857Y-19006619D01*
X44791428Y-19911381D02*
X44791428Y-18911381D01*
X44791428Y-19292333D02*
X44886666Y-19244714D01*
X45077143Y-19244714D01*
X45172381Y-19292333D01*
X45220000Y-19339952D01*
X45267619Y-19435190D01*
X45267619Y-19720905D01*
X45220000Y-19816143D01*
X45172381Y-19863762D01*
X45077143Y-19911381D01*
X44886666Y-19911381D01*
X44791428Y-19863762D01*
X46124762Y-19911381D02*
X46124762Y-19387571D01*
X46077143Y-19292333D01*
X45981905Y-19244714D01*
X45791428Y-19244714D01*
X45696190Y-19292333D01*
X46124762Y-19863762D02*
X46029524Y-19911381D01*
X45791428Y-19911381D01*
X45696190Y-19863762D01*
X45648571Y-19768524D01*
X45648571Y-19673286D01*
X45696190Y-19578048D01*
X45791428Y-19530429D01*
X46029524Y-19530429D01*
X46124762Y-19482810D01*
X46458095Y-19244714D02*
X46839047Y-19244714D01*
X46600952Y-18911381D02*
X46600952Y-19768524D01*
X46648571Y-19863762D01*
X46743809Y-19911381D01*
X46839047Y-19911381D01*
X47696191Y-19911381D02*
X47124762Y-19911381D01*
X47410476Y-19911381D02*
X47410476Y-18911381D01*
X47315238Y-19054238D01*
X47220000Y-19149476D01*
X47124762Y-19197095D01*
X52000381Y-16994095D02*
X51000381Y-16994095D01*
X51000381Y-16756000D01*
X51048000Y-16613142D01*
X51143238Y-16517904D01*
X51238476Y-16470285D01*
X51428952Y-16422666D01*
X51571810Y-16422666D01*
X51762286Y-16470285D01*
X51857524Y-16517904D01*
X51952762Y-16613142D01*
X52000381Y-16756000D01*
X52000381Y-16994095D01*
X52000381Y-15470285D02*
X52000381Y-16041714D01*
X52000381Y-15756000D02*
X51000381Y-15756000D01*
X51143238Y-15851238D01*
X51238476Y-15946476D01*
X51286095Y-16041714D01*
X14271667Y-11727381D02*
X14271667Y-12441667D01*
X14224047Y-12584524D01*
X14128809Y-12679762D01*
X13985952Y-12727381D01*
X13890714Y-12727381D01*
X15271667Y-12727381D02*
X14700238Y-12727381D01*
X14985952Y-12727381D02*
X14985952Y-11727381D01*
X14890714Y-11870238D01*
X14795476Y-11965476D01*
X14700238Y-12013095D01*
X57547619Y-30654762D02*
X57690476Y-30702381D01*
X57928572Y-30702381D01*
X58023810Y-30654762D01*
X58071429Y-30607143D01*
X58119048Y-30511905D01*
X58119048Y-30416667D01*
X58071429Y-30321429D01*
X58023810Y-30273810D01*
X57928572Y-30226190D01*
X57738095Y-30178571D01*
X57642857Y-30130952D01*
X57595238Y-30083333D01*
X57547619Y-29988095D01*
X57547619Y-29892857D01*
X57595238Y-29797619D01*
X57642857Y-29750000D01*
X57738095Y-29702381D01*
X57976191Y-29702381D01*
X58119048Y-29750000D01*
X58976191Y-30654762D02*
X58880953Y-30702381D01*
X58690476Y-30702381D01*
X58595238Y-30654762D01*
X58547619Y-30607143D01*
X58500000Y-30511905D01*
X58500000Y-30226190D01*
X58547619Y-30130952D01*
X58595238Y-30083333D01*
X58690476Y-30035714D01*
X58880953Y-30035714D01*
X58976191Y-30083333D01*
X59404762Y-30702381D02*
X59404762Y-30035714D01*
X59404762Y-30226190D02*
X59452381Y-30130952D01*
X59500000Y-30083333D01*
X59595238Y-30035714D01*
X59690477Y-30035714D01*
X60404763Y-30654762D02*
X60309525Y-30702381D01*
X60119048Y-30702381D01*
X60023810Y-30654762D01*
X59976191Y-30559524D01*
X59976191Y-30178571D01*
X60023810Y-30083333D01*
X60119048Y-30035714D01*
X60309525Y-30035714D01*
X60404763Y-30083333D01*
X60452382Y-30178571D01*
X60452382Y-30273810D01*
X59976191Y-30369048D01*
X60785715Y-30035714D02*
X60976191Y-30702381D01*
X61166668Y-30226190D01*
X61357144Y-30702381D01*
X61547620Y-30035714D01*
X62452382Y-30702381D02*
X61880953Y-30702381D01*
X62166667Y-30702381D02*
X62166667Y-29702381D01*
X62071429Y-29845238D01*
X61976191Y-29940476D01*
X61880953Y-29988095D01*
X57547619Y-12654762D02*
X57690476Y-12702381D01*
X57928572Y-12702381D01*
X58023810Y-12654762D01*
X58071429Y-12607143D01*
X58119048Y-12511905D01*
X58119048Y-12416667D01*
X58071429Y-12321429D01*
X58023810Y-12273810D01*
X57928572Y-12226190D01*
X57738095Y-12178571D01*
X57642857Y-12130952D01*
X57595238Y-12083333D01*
X57547619Y-11988095D01*
X57547619Y-11892857D01*
X57595238Y-11797619D01*
X57642857Y-11750000D01*
X57738095Y-11702381D01*
X57976191Y-11702381D01*
X58119048Y-11750000D01*
X58976191Y-12654762D02*
X58880953Y-12702381D01*
X58690476Y-12702381D01*
X58595238Y-12654762D01*
X58547619Y-12607143D01*
X58500000Y-12511905D01*
X58500000Y-12226190D01*
X58547619Y-12130952D01*
X58595238Y-12083333D01*
X58690476Y-12035714D01*
X58880953Y-12035714D01*
X58976191Y-12083333D01*
X59404762Y-12702381D02*
X59404762Y-12035714D01*
X59404762Y-12226190D02*
X59452381Y-12130952D01*
X59500000Y-12083333D01*
X59595238Y-12035714D01*
X59690477Y-12035714D01*
X60404763Y-12654762D02*
X60309525Y-12702381D01*
X60119048Y-12702381D01*
X60023810Y-12654762D01*
X59976191Y-12559524D01*
X59976191Y-12178571D01*
X60023810Y-12083333D01*
X60119048Y-12035714D01*
X60309525Y-12035714D01*
X60404763Y-12083333D01*
X60452382Y-12178571D01*
X60452382Y-12273810D01*
X59976191Y-12369048D01*
X60785715Y-12035714D02*
X60976191Y-12702381D01*
X61166668Y-12226190D01*
X61357144Y-12702381D01*
X61547620Y-12035714D01*
X61833334Y-11702381D02*
X62452382Y-11702381D01*
X62119048Y-12083333D01*
X62261906Y-12083333D01*
X62357144Y-12130952D01*
X62404763Y-12178571D01*
X62452382Y-12273810D01*
X62452382Y-12511905D01*
X62404763Y-12607143D01*
X62357144Y-12654762D01*
X62261906Y-12702381D01*
X61976191Y-12702381D01*
X61880953Y-12654762D01*
X61833334Y-12607143D01*
X14547619Y-25654762D02*
X14690476Y-25702381D01*
X14928572Y-25702381D01*
X15023810Y-25654762D01*
X15071429Y-25607143D01*
X15119048Y-25511905D01*
X15119048Y-25416667D01*
X15071429Y-25321429D01*
X15023810Y-25273810D01*
X14928572Y-25226190D01*
X14738095Y-25178571D01*
X14642857Y-25130952D01*
X14595238Y-25083333D01*
X14547619Y-24988095D01*
X14547619Y-24892857D01*
X14595238Y-24797619D01*
X14642857Y-24750000D01*
X14738095Y-24702381D01*
X14976191Y-24702381D01*
X15119048Y-24750000D01*
X15976191Y-25654762D02*
X15880953Y-25702381D01*
X15690476Y-25702381D01*
X15595238Y-25654762D01*
X15547619Y-25607143D01*
X15500000Y-25511905D01*
X15500000Y-25226190D01*
X15547619Y-25130952D01*
X15595238Y-25083333D01*
X15690476Y-25035714D01*
X15880953Y-25035714D01*
X15976191Y-25083333D01*
X16404762Y-25702381D02*
X16404762Y-25035714D01*
X16404762Y-25226190D02*
X16452381Y-25130952D01*
X16500000Y-25083333D01*
X16595238Y-25035714D01*
X16690477Y-25035714D01*
X17404763Y-25654762D02*
X17309525Y-25702381D01*
X17119048Y-25702381D01*
X17023810Y-25654762D01*
X16976191Y-25559524D01*
X16976191Y-25178571D01*
X17023810Y-25083333D01*
X17119048Y-25035714D01*
X17309525Y-25035714D01*
X17404763Y-25083333D01*
X17452382Y-25178571D01*
X17452382Y-25273810D01*
X16976191Y-25369048D01*
X17785715Y-25035714D02*
X17976191Y-25702381D01*
X18166668Y-25226190D01*
X18357144Y-25702381D01*
X18547620Y-25035714D01*
X19357144Y-25035714D02*
X19357144Y-25702381D01*
X19119048Y-24654762D02*
X18880953Y-25369048D01*
X19500001Y-25369048D01*
X24511095Y-12097381D02*
X24511095Y-12906905D01*
X24558714Y-13002143D01*
X24606333Y-13049762D01*
X24701571Y-13097381D01*
X24892048Y-13097381D01*
X24987286Y-13049762D01*
X25034905Y-13002143D01*
X25082524Y-12906905D01*
X25082524Y-12097381D01*
X25463476Y-12097381D02*
X26082524Y-12097381D01*
X25749190Y-12478333D01*
X25892048Y-12478333D01*
X25987286Y-12525952D01*
X26034905Y-12573571D01*
X26082524Y-12668810D01*
X26082524Y-12906905D01*
X26034905Y-13002143D01*
X25987286Y-13049762D01*
X25892048Y-13097381D01*
X25606333Y-13097381D01*
X25511095Y-13049762D01*
X25463476Y-13002143D01*
X55687143Y-38190476D02*
X55734762Y-38238095D01*
X55782381Y-38380952D01*
X55782381Y-38476190D01*
X55734762Y-38619048D01*
X55639524Y-38714286D01*
X55544286Y-38761905D01*
X55353810Y-38809524D01*
X55210952Y-38809524D01*
X55020476Y-38761905D01*
X54925238Y-38714286D01*
X54830000Y-38619048D01*
X54782381Y-38476190D01*
X54782381Y-38380952D01*
X54830000Y-38238095D01*
X54877619Y-38190476D01*
X54782381Y-37571429D02*
X54782381Y-37380952D01*
X54830000Y-37285714D01*
X54925238Y-37190476D01*
X55115714Y-37142857D01*
X55449048Y-37142857D01*
X55639524Y-37190476D01*
X55734762Y-37285714D01*
X55782381Y-37380952D01*
X55782381Y-37571429D01*
X55734762Y-37666667D01*
X55639524Y-37761905D01*
X55449048Y-37809524D01*
X55115714Y-37809524D01*
X54925238Y-37761905D01*
X54830000Y-37666667D01*
X54782381Y-37571429D01*
X55782381Y-36238095D02*
X55782381Y-36714286D01*
X54782381Y-36714286D01*
X54782381Y-35904762D02*
X55591905Y-35904762D01*
X55687143Y-35857143D01*
X55734762Y-35809524D01*
X55782381Y-35714286D01*
X55782381Y-35523809D01*
X55734762Y-35428571D01*
X55687143Y-35380952D01*
X55591905Y-35333333D01*
X54782381Y-35333333D01*
X55782381Y-34857143D02*
X54782381Y-34857143D01*
X55496667Y-34523809D01*
X54782381Y-34190476D01*
X55782381Y-34190476D01*
X55782381Y-33714286D02*
X54782381Y-33714286D01*
X55782381Y-33142857D01*
X54782381Y-33142857D01*
X55734762Y-32714286D02*
X55782381Y-32571429D01*
X55782381Y-32333333D01*
X55734762Y-32238095D01*
X55687143Y-32190476D01*
X55591905Y-32142857D01*
X55496667Y-32142857D01*
X55401429Y-32190476D01*
X55353810Y-32238095D01*
X55306190Y-32333333D01*
X55258571Y-32523810D01*
X55210952Y-32619048D01*
X55163333Y-32666667D01*
X55068095Y-32714286D01*
X54972857Y-32714286D01*
X54877619Y-32666667D01*
X54830000Y-32619048D01*
X54782381Y-32523810D01*
X54782381Y-32285714D01*
X54830000Y-32142857D01*
X55782381Y-31190476D02*
X55782381Y-31761905D01*
X55782381Y-31476191D02*
X54782381Y-31476191D01*
X54925238Y-31571429D01*
X55020476Y-31666667D01*
X55068095Y-31761905D01*
X33677381Y-20803857D02*
X33201190Y-21137191D01*
X33677381Y-21375286D02*
X32677381Y-21375286D01*
X32677381Y-20994333D01*
X32725000Y-20899095D01*
X32772619Y-20851476D01*
X32867857Y-20803857D01*
X33010714Y-20803857D01*
X33105952Y-20851476D01*
X33153571Y-20899095D01*
X33201190Y-20994333D01*
X33201190Y-21375286D01*
X33772619Y-20613381D02*
X33772619Y-19851476D01*
X33010714Y-19184809D02*
X33677381Y-19184809D01*
X33010714Y-19613381D02*
X33534524Y-19613381D01*
X33629762Y-19565762D01*
X33677381Y-19470524D01*
X33677381Y-19327666D01*
X33629762Y-19232428D01*
X33582143Y-19184809D01*
X33010714Y-18708619D02*
X33677381Y-18708619D01*
X33105952Y-18708619D02*
X33058333Y-18661000D01*
X33010714Y-18565762D01*
X33010714Y-18422904D01*
X33058333Y-18327666D01*
X33153571Y-18280047D01*
X33677381Y-18280047D01*
X33677381Y-17375285D02*
X32677381Y-17375285D01*
X33629762Y-17375285D02*
X33677381Y-17470523D01*
X33677381Y-17661000D01*
X33629762Y-17756238D01*
X33582143Y-17803857D01*
X33486905Y-17851476D01*
X33201190Y-17851476D01*
X33105952Y-17803857D01*
X33058333Y-17756238D01*
X33010714Y-17661000D01*
X33010714Y-17470523D01*
X33058333Y-17375285D01*
X33629762Y-16518142D02*
X33677381Y-16613380D01*
X33677381Y-16803857D01*
X33629762Y-16899095D01*
X33534524Y-16946714D01*
X33153571Y-16946714D01*
X33058333Y-16899095D01*
X33010714Y-16803857D01*
X33010714Y-16613380D01*
X33058333Y-16518142D01*
X33153571Y-16470523D01*
X33248810Y-16470523D01*
X33344048Y-16946714D01*
X33677381Y-16041952D02*
X33010714Y-16041952D01*
X33201190Y-16041952D02*
X33105952Y-15994333D01*
X33058333Y-15946714D01*
X33010714Y-15851476D01*
X33010714Y-15756237D01*
X33677381Y-14899094D02*
X33677381Y-15470523D01*
X33677381Y-15184809D02*
X32677381Y-15184809D01*
X32820238Y-15280047D01*
X32915476Y-15375285D01*
X32963095Y-15470523D01*
X18081667Y-21467381D02*
X18081667Y-22181667D01*
X18034047Y-22324524D01*
X17938809Y-22419762D01*
X17795952Y-22467381D01*
X17700714Y-22467381D01*
X18510238Y-21562619D02*
X18557857Y-21515000D01*
X18653095Y-21467381D01*
X18891191Y-21467381D01*
X18986429Y-21515000D01*
X19034048Y-21562619D01*
X19081667Y-21657857D01*
X19081667Y-21753095D01*
X19034048Y-21895952D01*
X18462619Y-22467381D01*
X19081667Y-22467381D01*
X63488381Y-25741095D02*
X63012190Y-26074429D01*
X63488381Y-26312524D02*
X62488381Y-26312524D01*
X62488381Y-25931571D01*
X62536000Y-25836333D01*
X62583619Y-25788714D01*
X62678857Y-25741095D01*
X62821714Y-25741095D01*
X62916952Y-25788714D01*
X62964571Y-25836333D01*
X63012190Y-25931571D01*
X63012190Y-26312524D01*
X62488381Y-25122048D02*
X62488381Y-24931571D01*
X62536000Y-24836333D01*
X62631238Y-24741095D01*
X62821714Y-24693476D01*
X63155048Y-24693476D01*
X63345524Y-24741095D01*
X63440762Y-24836333D01*
X63488381Y-24931571D01*
X63488381Y-25122048D01*
X63440762Y-25217286D01*
X63345524Y-25312524D01*
X63155048Y-25360143D01*
X62821714Y-25360143D01*
X62631238Y-25312524D01*
X62536000Y-25217286D01*
X62488381Y-25122048D01*
X62488381Y-24360143D02*
X63488381Y-24122048D01*
X62774095Y-23931571D01*
X63488381Y-23741095D01*
X62488381Y-23503000D01*
X63440762Y-23169667D02*
X63488381Y-23026810D01*
X63488381Y-22788714D01*
X63440762Y-22693476D01*
X63393143Y-22645857D01*
X63297905Y-22598238D01*
X63202667Y-22598238D01*
X63107429Y-22645857D01*
X63059810Y-22693476D01*
X63012190Y-22788714D01*
X62964571Y-22979191D01*
X62916952Y-23074429D01*
X62869333Y-23122048D01*
X62774095Y-23169667D01*
X62678857Y-23169667D01*
X62583619Y-23122048D01*
X62536000Y-23074429D01*
X62488381Y-22979191D01*
X62488381Y-22741095D01*
X62536000Y-22598238D01*
X63488381Y-21645857D02*
X63488381Y-22217286D01*
X63488381Y-21931572D02*
X62488381Y-21931572D01*
X62631238Y-22026810D01*
X62726476Y-22122048D01*
X62774095Y-22217286D01*
X47110381Y-26249143D02*
X46634190Y-26582477D01*
X47110381Y-26820572D02*
X46110381Y-26820572D01*
X46110381Y-26439619D01*
X46158000Y-26344381D01*
X46205619Y-26296762D01*
X46300857Y-26249143D01*
X46443714Y-26249143D01*
X46538952Y-26296762D01*
X46586571Y-26344381D01*
X46634190Y-26439619D01*
X46634190Y-26820572D01*
X47110381Y-25820572D02*
X46110381Y-25820572D01*
X46491333Y-25820572D02*
X46443714Y-25725334D01*
X46443714Y-25534857D01*
X46491333Y-25439619D01*
X46538952Y-25392000D01*
X46634190Y-25344381D01*
X46919905Y-25344381D01*
X47015143Y-25392000D01*
X47062762Y-25439619D01*
X47110381Y-25534857D01*
X47110381Y-25725334D01*
X47062762Y-25820572D01*
X47110381Y-24487238D02*
X46586571Y-24487238D01*
X46491333Y-24534857D01*
X46443714Y-24630095D01*
X46443714Y-24820572D01*
X46491333Y-24915810D01*
X47062762Y-24487238D02*
X47110381Y-24582476D01*
X47110381Y-24820572D01*
X47062762Y-24915810D01*
X46967524Y-24963429D01*
X46872286Y-24963429D01*
X46777048Y-24915810D01*
X46729429Y-24820572D01*
X46729429Y-24582476D01*
X46681810Y-24487238D01*
X46443714Y-24153905D02*
X46443714Y-23772953D01*
X46110381Y-24011048D02*
X46967524Y-24011048D01*
X47062762Y-23963429D01*
X47110381Y-23868191D01*
X47110381Y-23772953D01*
X47110381Y-22915809D02*
X47110381Y-23487238D01*
X47110381Y-23201524D02*
X46110381Y-23201524D01*
X46253238Y-23296762D01*
X46348476Y-23392000D01*
X46396095Y-23487238D01*
X45742381Y-26249143D02*
X45266190Y-26582477D01*
X45742381Y-26820572D02*
X44742381Y-26820572D01*
X44742381Y-26439619D01*
X44790000Y-26344381D01*
X44837619Y-26296762D01*
X44932857Y-26249143D01*
X45075714Y-26249143D01*
X45170952Y-26296762D01*
X45218571Y-26344381D01*
X45266190Y-26439619D01*
X45266190Y-26820572D01*
X45742381Y-25820572D02*
X44742381Y-25820572D01*
X45123333Y-25820572D02*
X45075714Y-25725334D01*
X45075714Y-25534857D01*
X45123333Y-25439619D01*
X45170952Y-25392000D01*
X45266190Y-25344381D01*
X45551905Y-25344381D01*
X45647143Y-25392000D01*
X45694762Y-25439619D01*
X45742381Y-25534857D01*
X45742381Y-25725334D01*
X45694762Y-25820572D01*
X45742381Y-24487238D02*
X45218571Y-24487238D01*
X45123333Y-24534857D01*
X45075714Y-24630095D01*
X45075714Y-24820572D01*
X45123333Y-24915810D01*
X45694762Y-24487238D02*
X45742381Y-24582476D01*
X45742381Y-24820572D01*
X45694762Y-24915810D01*
X45599524Y-24963429D01*
X45504286Y-24963429D01*
X45409048Y-24915810D01*
X45361429Y-24820572D01*
X45361429Y-24582476D01*
X45313810Y-24487238D01*
X45075714Y-24153905D02*
X45075714Y-23772953D01*
X44742381Y-24011048D02*
X45599524Y-24011048D01*
X45694762Y-23963429D01*
X45742381Y-23868191D01*
X45742381Y-23772953D01*
X44837619Y-23487238D02*
X44790000Y-23439619D01*
X44742381Y-23344381D01*
X44742381Y-23106285D01*
X44790000Y-23011047D01*
X44837619Y-22963428D01*
X44932857Y-22915809D01*
X45028095Y-22915809D01*
X45170952Y-22963428D01*
X45742381Y-23534857D01*
X45742381Y-22915809D01*
X44283476Y-17421381D02*
X43950142Y-16945190D01*
X43712047Y-17421381D02*
X43712047Y-16421381D01*
X44093000Y-16421381D01*
X44188238Y-16469000D01*
X44235857Y-16516619D01*
X44283476Y-16611857D01*
X44283476Y-16754714D01*
X44235857Y-16849952D01*
X44188238Y-16897571D01*
X44093000Y-16945190D01*
X43712047Y-16945190D01*
X44854904Y-17421381D02*
X44759666Y-17373762D01*
X44712047Y-17278524D01*
X44712047Y-16421381D01*
X45616810Y-17373762D02*
X45521572Y-17421381D01*
X45331095Y-17421381D01*
X45235857Y-17373762D01*
X45188238Y-17278524D01*
X45188238Y-16897571D01*
X45235857Y-16802333D01*
X45331095Y-16754714D01*
X45521572Y-16754714D01*
X45616810Y-16802333D01*
X45664429Y-16897571D01*
X45664429Y-16992810D01*
X45188238Y-17088048D01*
X46521572Y-17421381D02*
X46521572Y-16421381D01*
X46521572Y-17373762D02*
X46426334Y-17421381D01*
X46235857Y-17421381D01*
X46140619Y-17373762D01*
X46093000Y-17326143D01*
X46045381Y-17230905D01*
X46045381Y-16945190D01*
X46093000Y-16849952D01*
X46140619Y-16802333D01*
X46235857Y-16754714D01*
X46426334Y-16754714D01*
X46521572Y-16802333D01*
X47521572Y-17421381D02*
X46950143Y-17421381D01*
X47235857Y-17421381D02*
X47235857Y-16421381D01*
X47140619Y-16564238D01*
X47045381Y-16659476D01*
X46950143Y-16707095D01*
X14065761Y-21252381D02*
X14065761Y-22061905D01*
X14113380Y-22157143D01*
X14160999Y-22204762D01*
X14256237Y-22252381D01*
X14446714Y-22252381D01*
X14541952Y-22204762D01*
X14589571Y-22157143D01*
X14637190Y-22061905D01*
X14637190Y-21252381D01*
X15113380Y-21585714D02*
X15113380Y-22252381D01*
X15113380Y-21680952D02*
X15160999Y-21633333D01*
X15256237Y-21585714D01*
X15399095Y-21585714D01*
X15494333Y-21633333D01*
X15541952Y-21728571D01*
X15541952Y-22252381D01*
X16446714Y-22252381D02*
X16446714Y-21252381D01*
X16446714Y-22204762D02*
X16351476Y-22252381D01*
X16160999Y-22252381D01*
X16065761Y-22204762D01*
X16018142Y-22157143D01*
X15970523Y-22061905D01*
X15970523Y-21776190D01*
X16018142Y-21680952D01*
X16065761Y-21633333D01*
X16160999Y-21585714D01*
X16351476Y-21585714D01*
X16446714Y-21633333D01*
X17303857Y-22204762D02*
X17208619Y-22252381D01*
X17018142Y-22252381D01*
X16922904Y-22204762D01*
X16875285Y-22109524D01*
X16875285Y-21728571D01*
X16922904Y-21633333D01*
X17018142Y-21585714D01*
X17208619Y-21585714D01*
X17303857Y-21633333D01*
X17351476Y-21728571D01*
X17351476Y-21823810D01*
X16875285Y-21919048D01*
X17780047Y-22252381D02*
X17780047Y-21585714D01*
X17780047Y-21776190D02*
X17827666Y-21680952D01*
X17875285Y-21633333D01*
X17970523Y-21585714D01*
X18065762Y-21585714D01*
X18827667Y-21585714D02*
X18827667Y-22395238D01*
X18780048Y-22490476D01*
X18732429Y-22538095D01*
X18637190Y-22585714D01*
X18494333Y-22585714D01*
X18399095Y-22538095D01*
X18827667Y-22204762D02*
X18732429Y-22252381D01*
X18541952Y-22252381D01*
X18446714Y-22204762D01*
X18399095Y-22157143D01*
X18351476Y-22061905D01*
X18351476Y-21776190D01*
X18399095Y-21680952D01*
X18446714Y-21633333D01*
X18541952Y-21585714D01*
X18732429Y-21585714D01*
X18827667Y-21633333D01*
X19446714Y-22252381D02*
X19351476Y-22204762D01*
X19303857Y-22109524D01*
X19303857Y-21252381D01*
X19970524Y-22252381D02*
X19875286Y-22204762D01*
X19827667Y-22157143D01*
X19780048Y-22061905D01*
X19780048Y-21776190D01*
X19827667Y-21680952D01*
X19875286Y-21633333D01*
X19970524Y-21585714D01*
X20113382Y-21585714D01*
X20208620Y-21633333D01*
X20256239Y-21680952D01*
X20303858Y-21776190D01*
X20303858Y-22061905D01*
X20256239Y-22157143D01*
X20208620Y-22204762D01*
X20113382Y-22252381D01*
X19970524Y-22252381D01*
X20637191Y-21585714D02*
X20827667Y-22252381D01*
X21018144Y-21776190D01*
X21208620Y-22252381D01*
X21399096Y-21585714D01*
X22303858Y-22252381D02*
X21732429Y-22252381D01*
X22018143Y-22252381D02*
X22018143Y-21252381D01*
X21922905Y-21395238D01*
X21827667Y-21490476D01*
X21732429Y-21538095D01*
M02*
