G04 #@! TF.FileFunction,Soldermask,Bot*
%FSLAX46Y46*%
G04 Gerber Fmt 4.6, Leading zero omitted, Abs format (unit mm)*
G04 Created by KiCad (PCBNEW 4.0.7) date 07/22/18 11:21:55*
%MOMM*%
%LPD*%
G01*
G04 APERTURE LIST*
%ADD10C,0.100000*%
%ADD11R,1.300000X1.900000*%
%ADD12R,1.900000X1.300000*%
%ADD13R,2.100000X2.100000*%
%ADD14O,2.100000X2.100000*%
%ADD15C,5.900000*%
%ADD16R,1.700000X1.950000*%
G04 APERTURE END LIST*
D10*
D11*
X33808000Y-14614000D03*
X34908000Y-14614000D03*
X36008000Y-14614000D03*
X37108000Y-14614000D03*
X38208000Y-14614000D03*
X39308000Y-14614000D03*
X40408000Y-14614000D03*
X41508000Y-14614000D03*
X42608000Y-14614000D03*
X43708000Y-14614000D03*
X44808000Y-14614000D03*
X45908000Y-14614000D03*
D12*
X49008000Y-17064000D03*
X49008000Y-18164000D03*
X49008000Y-19264000D03*
X49008000Y-20364000D03*
X49008000Y-21464000D03*
X49008000Y-22564000D03*
X49008000Y-23664000D03*
X49008000Y-24764000D03*
X49008000Y-25864000D03*
X49008000Y-26964000D03*
X49008000Y-28064000D03*
X49008000Y-29164000D03*
D11*
X45908000Y-31614000D03*
X44808000Y-31614000D03*
X43708000Y-31614000D03*
X42608000Y-31614000D03*
X41508000Y-31614000D03*
X40408000Y-31614000D03*
X39308000Y-31614000D03*
X38208000Y-31614000D03*
X37108000Y-31614000D03*
X36008000Y-31614000D03*
X34908000Y-31614000D03*
X33808000Y-31614000D03*
D13*
X14605000Y-14605000D03*
D14*
X14605000Y-17145000D03*
X14605000Y-19685000D03*
X14605000Y-22225000D03*
D15*
X60000000Y-34000000D03*
X60000000Y-16000000D03*
X17000000Y-29000000D03*
D16*
X21626000Y-31539000D03*
X26126000Y-31539000D03*
X26126000Y-23579000D03*
X21626000Y-23579000D03*
D13*
X53000000Y-35000000D03*
D14*
X50460000Y-35000000D03*
X47920000Y-35000000D03*
X45380000Y-35000000D03*
X42840000Y-35000000D03*
X40300000Y-35000000D03*
X37760000Y-35000000D03*
X35220000Y-35000000D03*
X32680000Y-35000000D03*
X30140000Y-35000000D03*
X27600000Y-35000000D03*
X25060000Y-35000000D03*
X22520000Y-35000000D03*
X19980000Y-35000000D03*
X17440000Y-35000000D03*
X14900000Y-35000000D03*
D13*
X18415000Y-19685000D03*
D14*
X18415000Y-17145000D03*
D13*
X60706000Y-22733000D03*
D14*
X60706000Y-25273000D03*
X58166000Y-22733000D03*
X58166000Y-25273000D03*
X55626000Y-22733000D03*
X55626000Y-25273000D03*
X53086000Y-22733000D03*
X53086000Y-25273000D03*
D13*
X18161000Y-24130000D03*
M02*
