G04 #@! TF.FileFunction,Copper,L2,Bot,Signal*
%FSLAX46Y46*%
G04 Gerber Fmt 4.6, Leading zero omitted, Abs format (unit mm)*
G04 Created by KiCad (PCBNEW 4.0.7) date 07/22/18 11:21:55*
%MOMM*%
%LPD*%
G01*
G04 APERTURE LIST*
%ADD10C,0.100000*%
%ADD11R,0.900000X1.500000*%
%ADD12R,1.500000X0.900000*%
%ADD13R,1.700000X1.700000*%
%ADD14O,1.700000X1.700000*%
%ADD15C,5.500000*%
%ADD16R,1.300000X1.550000*%
%ADD17C,0.600000*%
%ADD18C,0.250000*%
%ADD19C,0.254000*%
G04 APERTURE END LIST*
D10*
D11*
X33808000Y-14614000D03*
X34908000Y-14614000D03*
X36008000Y-14614000D03*
X37108000Y-14614000D03*
X38208000Y-14614000D03*
X39308000Y-14614000D03*
X40408000Y-14614000D03*
X41508000Y-14614000D03*
X42608000Y-14614000D03*
X43708000Y-14614000D03*
X44808000Y-14614000D03*
X45908000Y-14614000D03*
D12*
X49008000Y-17064000D03*
X49008000Y-18164000D03*
X49008000Y-19264000D03*
X49008000Y-20364000D03*
X49008000Y-21464000D03*
X49008000Y-22564000D03*
X49008000Y-23664000D03*
X49008000Y-24764000D03*
X49008000Y-25864000D03*
X49008000Y-26964000D03*
X49008000Y-28064000D03*
X49008000Y-29164000D03*
D11*
X45908000Y-31614000D03*
X44808000Y-31614000D03*
X43708000Y-31614000D03*
X42608000Y-31614000D03*
X41508000Y-31614000D03*
X40408000Y-31614000D03*
X39308000Y-31614000D03*
X38208000Y-31614000D03*
X37108000Y-31614000D03*
X36008000Y-31614000D03*
X34908000Y-31614000D03*
X33808000Y-31614000D03*
D13*
X14605000Y-14605000D03*
D14*
X14605000Y-17145000D03*
X14605000Y-19685000D03*
X14605000Y-22225000D03*
D15*
X60000000Y-34000000D03*
X60000000Y-16000000D03*
X17000000Y-29000000D03*
D16*
X21626000Y-31539000D03*
X26126000Y-31539000D03*
X26126000Y-23579000D03*
X21626000Y-23579000D03*
D13*
X53000000Y-35000000D03*
D14*
X50460000Y-35000000D03*
X47920000Y-35000000D03*
X45380000Y-35000000D03*
X42840000Y-35000000D03*
X40300000Y-35000000D03*
X37760000Y-35000000D03*
X35220000Y-35000000D03*
X32680000Y-35000000D03*
X30140000Y-35000000D03*
X27600000Y-35000000D03*
X25060000Y-35000000D03*
X22520000Y-35000000D03*
X19980000Y-35000000D03*
X17440000Y-35000000D03*
X14900000Y-35000000D03*
D13*
X18415000Y-19685000D03*
D14*
X18415000Y-17145000D03*
D13*
X60706000Y-22733000D03*
D14*
X60706000Y-25273000D03*
X58166000Y-22733000D03*
X58166000Y-25273000D03*
X55626000Y-22733000D03*
X55626000Y-25273000D03*
X53086000Y-22733000D03*
X53086000Y-25273000D03*
D13*
X18161000Y-24130000D03*
D17*
X44831000Y-14605000D03*
X31369000Y-25400000D03*
X39243000Y-28575000D03*
X23622000Y-25400000D03*
X52250000Y-31000000D03*
X56388000Y-17399000D03*
X51054000Y-14605000D03*
X46990000Y-26242000D03*
X45847000Y-14605000D03*
X33782000Y-29972000D03*
X54483000Y-18034000D03*
X54483000Y-14732000D03*
X53213000Y-14478000D03*
X34925000Y-16811000D03*
X39243000Y-14732000D03*
X38227000Y-14605000D03*
X37084000Y-14605000D03*
X36068000Y-14605000D03*
X44958000Y-26242000D03*
X49008000Y-23664000D03*
D18*
X44831000Y-14605000D02*
X44822000Y-14614000D01*
X44822000Y-14614000D02*
X44808000Y-14614000D01*
X39243000Y-28575000D02*
X44075000Y-28575000D01*
X31369000Y-25400000D02*
X36068000Y-25400000D01*
X21801000Y-23579000D02*
X23622000Y-25400000D01*
X39243000Y-28575000D02*
X36068000Y-25400000D01*
X47750000Y-31000000D02*
X52250000Y-31000000D01*
X47116699Y-30366699D02*
X47750000Y-31000000D01*
X45866699Y-30366699D02*
X47116699Y-30366699D01*
X44075000Y-28575000D02*
X45866699Y-30366699D01*
X51045000Y-14614000D02*
X51054000Y-14605000D01*
X45908000Y-14614000D02*
X51045000Y-14614000D01*
X21626000Y-23579000D02*
X21801000Y-23579000D01*
X47000000Y-26000000D02*
X47000000Y-26232000D01*
X47000000Y-26232000D02*
X46990000Y-26242000D01*
X45847000Y-14605000D02*
X45856000Y-14614000D01*
X45856000Y-14614000D02*
X45908000Y-14614000D01*
X33808000Y-29998000D02*
X33808000Y-31614000D01*
X33782000Y-29972000D02*
X33808000Y-29998000D01*
X33791000Y-31614000D02*
X33808000Y-31614000D01*
X49008000Y-17064000D02*
X49957000Y-17064000D01*
X50927000Y-18034000D02*
X54483000Y-18034000D01*
X49957000Y-17064000D02*
X50927000Y-18034000D01*
X49008000Y-17131000D02*
X49008000Y-17064000D01*
X43708000Y-14614000D02*
X43708000Y-15260000D01*
X53467000Y-15748000D02*
X54483000Y-14732000D01*
X44196000Y-15748000D02*
X53467000Y-15748000D01*
X43708000Y-15260000D02*
X44196000Y-15748000D01*
X42608000Y-14614000D02*
X42608000Y-13907000D01*
X52197000Y-13462000D02*
X53213000Y-14478000D01*
X43053000Y-13462000D02*
X52197000Y-13462000D01*
X42608000Y-13907000D02*
X43053000Y-13462000D01*
X26126000Y-31539000D02*
X26126000Y-23579000D01*
X24384000Y-22225000D02*
X38481000Y-22225000D01*
X50289000Y-28064000D02*
X49008000Y-28064000D01*
X50800000Y-28575000D02*
X50289000Y-28064000D01*
X50800000Y-30226000D02*
X50800000Y-28575000D01*
X50776000Y-30250000D02*
X50800000Y-30226000D01*
X47903000Y-30250000D02*
X50776000Y-30250000D01*
X47498000Y-29845000D02*
X47903000Y-30250000D01*
X46101000Y-29845000D02*
X47498000Y-29845000D01*
X38481000Y-22225000D02*
X46101000Y-29845000D01*
X26126000Y-24034083D02*
X25781000Y-23622000D01*
X25781000Y-23622000D02*
X24384000Y-22225000D01*
X24384000Y-22225000D02*
X14605000Y-22225000D01*
X25745000Y-23325000D02*
X25781000Y-23368000D01*
X34908000Y-14614000D02*
X34908000Y-16794000D01*
X34908000Y-16794000D02*
X34925000Y-16811000D01*
X39243000Y-14732000D02*
X39308000Y-14667000D01*
X39308000Y-14667000D02*
X39308000Y-14614000D01*
X38227000Y-14605000D02*
X38218000Y-14614000D01*
X38218000Y-14614000D02*
X38208000Y-14614000D01*
X37084000Y-14605000D02*
X37093000Y-14614000D01*
X37093000Y-14614000D02*
X37108000Y-14614000D01*
X36068000Y-14605000D02*
X36059000Y-14614000D01*
X36059000Y-14614000D02*
X36008000Y-14614000D01*
X53000000Y-35000000D02*
X53000000Y-34712000D01*
X53000000Y-34712000D02*
X49902000Y-31614000D01*
X49902000Y-31614000D02*
X45908000Y-31614000D01*
X50460000Y-35000000D02*
X50460000Y-34839000D01*
X50460000Y-34839000D02*
X48514000Y-32893000D01*
X44808000Y-32489000D02*
X44808000Y-31614000D01*
X45212000Y-32893000D02*
X44808000Y-32489000D01*
X48514000Y-32893000D02*
X45212000Y-32893000D01*
X50460000Y-35000000D02*
X50460000Y-34585000D01*
X47920000Y-35000000D02*
X47920000Y-33569000D01*
X43708000Y-32786000D02*
X43708000Y-31614000D01*
X44323000Y-33401000D02*
X43708000Y-32786000D01*
X47752000Y-33401000D02*
X44323000Y-33401000D01*
X47920000Y-33569000D02*
X47752000Y-33401000D01*
X45380000Y-35000000D02*
X44779000Y-35000000D01*
X44779000Y-35000000D02*
X42608000Y-32829000D01*
X42608000Y-32829000D02*
X42608000Y-31614000D01*
X42840000Y-35000000D02*
X42840000Y-34458000D01*
X42840000Y-34458000D02*
X41508000Y-33126000D01*
X41508000Y-33126000D02*
X41508000Y-31614000D01*
X40300000Y-35000000D02*
X40300000Y-31722000D01*
X40300000Y-31722000D02*
X40408000Y-31614000D01*
X37760000Y-35000000D02*
X38025000Y-35000000D01*
X38025000Y-35000000D02*
X39308000Y-33717000D01*
X39308000Y-33717000D02*
X39308000Y-31614000D01*
X35220000Y-35000000D02*
X35739000Y-35000000D01*
X35739000Y-35000000D02*
X37338000Y-33401000D01*
X37338000Y-33401000D02*
X37592000Y-33401000D01*
X37592000Y-33401000D02*
X38208000Y-32785000D01*
X38208000Y-32785000D02*
X38208000Y-31614000D01*
X32680000Y-35000000D02*
X33199000Y-35000000D01*
X33199000Y-35000000D02*
X34671000Y-33528000D01*
X34671000Y-33528000D02*
X36449000Y-33528000D01*
X36449000Y-33528000D02*
X37108000Y-32869000D01*
X37108000Y-32869000D02*
X37108000Y-31614000D01*
X30140000Y-35000000D02*
X30659000Y-35000000D01*
X30659000Y-35000000D02*
X32004000Y-33655000D01*
X32004000Y-33655000D02*
X33782000Y-33655000D01*
X33782000Y-33655000D02*
X34417000Y-33020000D01*
X34417000Y-33020000D02*
X35687000Y-33020000D01*
X35687000Y-33020000D02*
X36008000Y-32699000D01*
X36008000Y-32699000D02*
X36008000Y-31614000D01*
X34908000Y-29701000D02*
X34908000Y-31614000D01*
X34163000Y-28956000D02*
X34908000Y-29701000D01*
X31115000Y-28956000D02*
X34163000Y-28956000D01*
X25071000Y-35000000D02*
X31115000Y-28956000D01*
X25060000Y-35000000D02*
X25071000Y-35000000D01*
X25060000Y-35000000D02*
X25060000Y-34884000D01*
X49008000Y-29164000D02*
X49022000Y-29210000D01*
X49022000Y-29210000D02*
X48768000Y-28956000D01*
X48768000Y-28956000D02*
X46101000Y-28956000D01*
X46101000Y-28956000D02*
X38862000Y-21717000D01*
X38862000Y-21717000D02*
X17907000Y-21717000D01*
X17907000Y-21717000D02*
X15875000Y-19685000D01*
X15875000Y-19685000D02*
X14605000Y-19685000D01*
X18415000Y-19685000D02*
X19939000Y-21209000D01*
X39243000Y-21209000D02*
X19939000Y-21209000D01*
X44196000Y-26162000D02*
X39243000Y-21209000D01*
X44878000Y-26162000D02*
X44196000Y-26162000D01*
X44878000Y-26162000D02*
X44958000Y-26242000D01*
X49008000Y-24764000D02*
X52577000Y-24764000D01*
X52577000Y-24764000D02*
X53086000Y-25273000D01*
X49008000Y-22564000D02*
X52917000Y-22564000D01*
X52917000Y-22564000D02*
X53086000Y-22733000D01*
X49008000Y-25864000D02*
X50629000Y-25864000D01*
X53975000Y-26924000D02*
X55626000Y-25273000D01*
X51689000Y-26924000D02*
X53975000Y-26924000D01*
X50629000Y-25864000D02*
X51689000Y-26924000D01*
X60706000Y-22733000D02*
X60706000Y-21336000D01*
X49998000Y-19264000D02*
X49008000Y-19264000D01*
X51181000Y-20447000D02*
X49998000Y-19264000D01*
X59817000Y-20447000D02*
X51181000Y-20447000D01*
X60706000Y-21336000D02*
X59817000Y-20447000D01*
X60706000Y-25273000D02*
X61722000Y-25273000D01*
X49787000Y-18164000D02*
X49008000Y-18164000D01*
X51562000Y-19939000D02*
X49787000Y-18164000D01*
X60833000Y-19939000D02*
X51562000Y-19939000D01*
X62611000Y-21717000D02*
X60833000Y-19939000D01*
X62611000Y-24384000D02*
X62611000Y-21717000D01*
X61722000Y-25273000D02*
X62611000Y-24384000D01*
X49008000Y-20364000D02*
X50336000Y-20364000D01*
X58166000Y-21336000D02*
X57829000Y-20999000D01*
X57829000Y-20999000D02*
X53072000Y-20999000D01*
X58166000Y-21336000D02*
X58166000Y-22733000D01*
X50971000Y-20999000D02*
X53072000Y-20999000D01*
X50336000Y-20364000D02*
X50971000Y-20999000D01*
X49008000Y-26964000D02*
X50459000Y-26964000D01*
X55753000Y-27686000D02*
X58166000Y-25273000D01*
X51181000Y-27686000D02*
X55753000Y-27686000D01*
X50459000Y-26964000D02*
X51181000Y-27686000D01*
X55626000Y-22733000D02*
X55626000Y-22479000D01*
X55626000Y-22479000D02*
X54611000Y-21464000D01*
X54611000Y-21464000D02*
X49008000Y-21464000D01*
D19*
G36*
X62290000Y-31502704D02*
X61919952Y-31132010D01*
X60676272Y-30615589D01*
X59329636Y-30614414D01*
X58085057Y-31128663D01*
X57132010Y-32080048D01*
X56615589Y-33323728D01*
X56614414Y-34670364D01*
X57128663Y-35914943D01*
X57503066Y-36290000D01*
X54317901Y-36290000D01*
X54446431Y-36101890D01*
X54497440Y-35850000D01*
X54497440Y-34150000D01*
X54453162Y-33914683D01*
X54314090Y-33698559D01*
X54101890Y-33553569D01*
X53850000Y-33502560D01*
X52865362Y-33502560D01*
X50439401Y-31076599D01*
X50339728Y-31010000D01*
X50776000Y-31010000D01*
X51066839Y-30952148D01*
X51313401Y-30787401D01*
X51337401Y-30763401D01*
X51502148Y-30516839D01*
X51560000Y-30226000D01*
X51560000Y-28575000D01*
X51534340Y-28446000D01*
X55753000Y-28446000D01*
X56043839Y-28388148D01*
X56290401Y-28223401D01*
X57799592Y-26714210D01*
X58166000Y-26787093D01*
X58734285Y-26674054D01*
X59216054Y-26352147D01*
X59436000Y-26022974D01*
X59655946Y-26352147D01*
X60137715Y-26674054D01*
X60706000Y-26787093D01*
X61274285Y-26674054D01*
X61756054Y-26352147D01*
X62007208Y-25976268D01*
X62012839Y-25975148D01*
X62259401Y-25810401D01*
X62290000Y-25779802D01*
X62290000Y-31502704D01*
X62290000Y-31502704D01*
G37*
X62290000Y-31502704D02*
X61919952Y-31132010D01*
X60676272Y-30615589D01*
X59329636Y-30614414D01*
X58085057Y-31128663D01*
X57132010Y-32080048D01*
X56615589Y-33323728D01*
X56614414Y-34670364D01*
X57128663Y-35914943D01*
X57503066Y-36290000D01*
X54317901Y-36290000D01*
X54446431Y-36101890D01*
X54497440Y-35850000D01*
X54497440Y-34150000D01*
X54453162Y-33914683D01*
X54314090Y-33698559D01*
X54101890Y-33553569D01*
X53850000Y-33502560D01*
X52865362Y-33502560D01*
X50439401Y-31076599D01*
X50339728Y-31010000D01*
X50776000Y-31010000D01*
X51066839Y-30952148D01*
X51313401Y-30787401D01*
X51337401Y-30763401D01*
X51502148Y-30516839D01*
X51560000Y-30226000D01*
X51560000Y-28575000D01*
X51534340Y-28446000D01*
X55753000Y-28446000D01*
X56043839Y-28388148D01*
X56290401Y-28223401D01*
X57799592Y-26714210D01*
X58166000Y-26787093D01*
X58734285Y-26674054D01*
X59216054Y-26352147D01*
X59436000Y-26022974D01*
X59655946Y-26352147D01*
X60137715Y-26674054D01*
X60706000Y-26787093D01*
X61274285Y-26674054D01*
X61756054Y-26352147D01*
X62007208Y-25976268D01*
X62012839Y-25975148D01*
X62259401Y-25810401D01*
X62290000Y-25779802D01*
X62290000Y-31502704D01*
G36*
X20341000Y-23293250D02*
X20499750Y-23452000D01*
X21499000Y-23452000D01*
X21499000Y-23432000D01*
X21753000Y-23432000D01*
X21753000Y-23452000D01*
X22752250Y-23452000D01*
X22911000Y-23293250D01*
X22911000Y-22985000D01*
X24069198Y-22985000D01*
X24828560Y-23744362D01*
X24828560Y-24354000D01*
X24872838Y-24589317D01*
X25011910Y-24805441D01*
X25224110Y-24950431D01*
X25366000Y-24979164D01*
X25366000Y-30137258D01*
X25240683Y-30160838D01*
X25024559Y-30299910D01*
X24879569Y-30512110D01*
X24828560Y-30764000D01*
X24828560Y-32314000D01*
X24872838Y-32549317D01*
X25011910Y-32765441D01*
X25224110Y-32910431D01*
X25476000Y-32961440D01*
X26034758Y-32961440D01*
X25435583Y-33560615D01*
X25060000Y-33485907D01*
X24491715Y-33598946D01*
X24009946Y-33920853D01*
X23790000Y-34250026D01*
X23570054Y-33920853D01*
X23088285Y-33598946D01*
X22520000Y-33485907D01*
X21951715Y-33598946D01*
X21469946Y-33920853D01*
X21250000Y-34250026D01*
X21030054Y-33920853D01*
X20548285Y-33598946D01*
X19980000Y-33485907D01*
X19411715Y-33598946D01*
X18929946Y-33920853D01*
X18710000Y-34250026D01*
X18490054Y-33920853D01*
X18008285Y-33598946D01*
X17440000Y-33485907D01*
X16871715Y-33598946D01*
X16389946Y-33920853D01*
X16170000Y-34250026D01*
X15950054Y-33920853D01*
X15468285Y-33598946D01*
X14900000Y-33485907D01*
X14331715Y-33598946D01*
X13960000Y-33847317D01*
X13960000Y-30506747D01*
X14128663Y-30914943D01*
X15080048Y-31867990D01*
X16323728Y-32384411D01*
X17670364Y-32385586D01*
X18914943Y-31871337D01*
X18961611Y-31824750D01*
X20341000Y-31824750D01*
X20341000Y-32440309D01*
X20437673Y-32673698D01*
X20616301Y-32852327D01*
X20849690Y-32949000D01*
X21340250Y-32949000D01*
X21499000Y-32790250D01*
X21499000Y-31666000D01*
X21753000Y-31666000D01*
X21753000Y-32790250D01*
X21911750Y-32949000D01*
X22402310Y-32949000D01*
X22635699Y-32852327D01*
X22814327Y-32673698D01*
X22911000Y-32440309D01*
X22911000Y-31824750D01*
X22752250Y-31666000D01*
X21753000Y-31666000D01*
X21499000Y-31666000D01*
X20499750Y-31666000D01*
X20341000Y-31824750D01*
X18961611Y-31824750D01*
X19867990Y-30919952D01*
X19985194Y-30637691D01*
X20341000Y-30637691D01*
X20341000Y-31253250D01*
X20499750Y-31412000D01*
X21499000Y-31412000D01*
X21499000Y-30287750D01*
X21753000Y-30287750D01*
X21753000Y-31412000D01*
X22752250Y-31412000D01*
X22911000Y-31253250D01*
X22911000Y-30637691D01*
X22814327Y-30404302D01*
X22635699Y-30225673D01*
X22402310Y-30129000D01*
X21911750Y-30129000D01*
X21753000Y-30287750D01*
X21499000Y-30287750D01*
X21340250Y-30129000D01*
X20849690Y-30129000D01*
X20616301Y-30225673D01*
X20437673Y-30404302D01*
X20341000Y-30637691D01*
X19985194Y-30637691D01*
X20384411Y-29676272D01*
X20385586Y-28329636D01*
X19871337Y-27085057D01*
X18919952Y-26132010D01*
X17704812Y-25627440D01*
X19011000Y-25627440D01*
X19246317Y-25583162D01*
X19462441Y-25444090D01*
X19607431Y-25231890D01*
X19658440Y-24980000D01*
X19658440Y-23864750D01*
X20341000Y-23864750D01*
X20341000Y-24480309D01*
X20437673Y-24713698D01*
X20616301Y-24892327D01*
X20849690Y-24989000D01*
X21340250Y-24989000D01*
X21499000Y-24830250D01*
X21499000Y-23706000D01*
X21753000Y-23706000D01*
X21753000Y-24830250D01*
X21911750Y-24989000D01*
X22402310Y-24989000D01*
X22635699Y-24892327D01*
X22814327Y-24713698D01*
X22911000Y-24480309D01*
X22911000Y-23864750D01*
X22752250Y-23706000D01*
X21753000Y-23706000D01*
X21499000Y-23706000D01*
X20499750Y-23706000D01*
X20341000Y-23864750D01*
X19658440Y-23864750D01*
X19658440Y-23280000D01*
X19614162Y-23044683D01*
X19575757Y-22985000D01*
X20341000Y-22985000D01*
X20341000Y-23293250D01*
X20341000Y-23293250D01*
G37*
X20341000Y-23293250D02*
X20499750Y-23452000D01*
X21499000Y-23452000D01*
X21499000Y-23432000D01*
X21753000Y-23432000D01*
X21753000Y-23452000D01*
X22752250Y-23452000D01*
X22911000Y-23293250D01*
X22911000Y-22985000D01*
X24069198Y-22985000D01*
X24828560Y-23744362D01*
X24828560Y-24354000D01*
X24872838Y-24589317D01*
X25011910Y-24805441D01*
X25224110Y-24950431D01*
X25366000Y-24979164D01*
X25366000Y-30137258D01*
X25240683Y-30160838D01*
X25024559Y-30299910D01*
X24879569Y-30512110D01*
X24828560Y-30764000D01*
X24828560Y-32314000D01*
X24872838Y-32549317D01*
X25011910Y-32765441D01*
X25224110Y-32910431D01*
X25476000Y-32961440D01*
X26034758Y-32961440D01*
X25435583Y-33560615D01*
X25060000Y-33485907D01*
X24491715Y-33598946D01*
X24009946Y-33920853D01*
X23790000Y-34250026D01*
X23570054Y-33920853D01*
X23088285Y-33598946D01*
X22520000Y-33485907D01*
X21951715Y-33598946D01*
X21469946Y-33920853D01*
X21250000Y-34250026D01*
X21030054Y-33920853D01*
X20548285Y-33598946D01*
X19980000Y-33485907D01*
X19411715Y-33598946D01*
X18929946Y-33920853D01*
X18710000Y-34250026D01*
X18490054Y-33920853D01*
X18008285Y-33598946D01*
X17440000Y-33485907D01*
X16871715Y-33598946D01*
X16389946Y-33920853D01*
X16170000Y-34250026D01*
X15950054Y-33920853D01*
X15468285Y-33598946D01*
X14900000Y-33485907D01*
X14331715Y-33598946D01*
X13960000Y-33847317D01*
X13960000Y-30506747D01*
X14128663Y-30914943D01*
X15080048Y-31867990D01*
X16323728Y-32384411D01*
X17670364Y-32385586D01*
X18914943Y-31871337D01*
X18961611Y-31824750D01*
X20341000Y-31824750D01*
X20341000Y-32440309D01*
X20437673Y-32673698D01*
X20616301Y-32852327D01*
X20849690Y-32949000D01*
X21340250Y-32949000D01*
X21499000Y-32790250D01*
X21499000Y-31666000D01*
X21753000Y-31666000D01*
X21753000Y-32790250D01*
X21911750Y-32949000D01*
X22402310Y-32949000D01*
X22635699Y-32852327D01*
X22814327Y-32673698D01*
X22911000Y-32440309D01*
X22911000Y-31824750D01*
X22752250Y-31666000D01*
X21753000Y-31666000D01*
X21499000Y-31666000D01*
X20499750Y-31666000D01*
X20341000Y-31824750D01*
X18961611Y-31824750D01*
X19867990Y-30919952D01*
X19985194Y-30637691D01*
X20341000Y-30637691D01*
X20341000Y-31253250D01*
X20499750Y-31412000D01*
X21499000Y-31412000D01*
X21499000Y-30287750D01*
X21753000Y-30287750D01*
X21753000Y-31412000D01*
X22752250Y-31412000D01*
X22911000Y-31253250D01*
X22911000Y-30637691D01*
X22814327Y-30404302D01*
X22635699Y-30225673D01*
X22402310Y-30129000D01*
X21911750Y-30129000D01*
X21753000Y-30287750D01*
X21499000Y-30287750D01*
X21340250Y-30129000D01*
X20849690Y-30129000D01*
X20616301Y-30225673D01*
X20437673Y-30404302D01*
X20341000Y-30637691D01*
X19985194Y-30637691D01*
X20384411Y-29676272D01*
X20385586Y-28329636D01*
X19871337Y-27085057D01*
X18919952Y-26132010D01*
X17704812Y-25627440D01*
X19011000Y-25627440D01*
X19246317Y-25583162D01*
X19462441Y-25444090D01*
X19607431Y-25231890D01*
X19658440Y-24980000D01*
X19658440Y-23864750D01*
X20341000Y-23864750D01*
X20341000Y-24480309D01*
X20437673Y-24713698D01*
X20616301Y-24892327D01*
X20849690Y-24989000D01*
X21340250Y-24989000D01*
X21499000Y-24830250D01*
X21499000Y-23706000D01*
X21753000Y-23706000D01*
X21753000Y-24830250D01*
X21911750Y-24989000D01*
X22402310Y-24989000D01*
X22635699Y-24892327D01*
X22814327Y-24713698D01*
X22911000Y-24480309D01*
X22911000Y-23864750D01*
X22752250Y-23706000D01*
X21753000Y-23706000D01*
X21499000Y-23706000D01*
X20499750Y-23706000D01*
X20341000Y-23864750D01*
X19658440Y-23864750D01*
X19658440Y-23280000D01*
X19614162Y-23044683D01*
X19575757Y-22985000D01*
X20341000Y-22985000D01*
X20341000Y-23293250D01*
G36*
X45407298Y-30226100D02*
X45354329Y-30236067D01*
X45258000Y-30216560D01*
X44358000Y-30216560D01*
X44254329Y-30236067D01*
X44158000Y-30216560D01*
X43258000Y-30216560D01*
X43154329Y-30236067D01*
X43058000Y-30216560D01*
X42158000Y-30216560D01*
X42054329Y-30236067D01*
X41958000Y-30216560D01*
X41058000Y-30216560D01*
X40954329Y-30236067D01*
X40858000Y-30216560D01*
X39958000Y-30216560D01*
X39854329Y-30236067D01*
X39758000Y-30216560D01*
X38858000Y-30216560D01*
X38754329Y-30236067D01*
X38658000Y-30216560D01*
X37758000Y-30216560D01*
X37654329Y-30236067D01*
X37558000Y-30216560D01*
X36658000Y-30216560D01*
X36554329Y-30236067D01*
X36458000Y-30216560D01*
X35668000Y-30216560D01*
X35668000Y-29701000D01*
X35610148Y-29410161D01*
X35445401Y-29163599D01*
X34700401Y-28418599D01*
X34453839Y-28253852D01*
X34163000Y-28196000D01*
X31115000Y-28196000D01*
X30824161Y-28253852D01*
X30577599Y-28418599D01*
X27423440Y-31572758D01*
X27423440Y-30764000D01*
X27379162Y-30528683D01*
X27240090Y-30312559D01*
X27027890Y-30167569D01*
X26886000Y-30138836D01*
X26886000Y-24980742D01*
X27011317Y-24957162D01*
X27227441Y-24818090D01*
X27372431Y-24605890D01*
X27423440Y-24354000D01*
X27423440Y-22985000D01*
X38166198Y-22985000D01*
X45407298Y-30226100D01*
X45407298Y-30226100D01*
G37*
X45407298Y-30226100D02*
X45354329Y-30236067D01*
X45258000Y-30216560D01*
X44358000Y-30216560D01*
X44254329Y-30236067D01*
X44158000Y-30216560D01*
X43258000Y-30216560D01*
X43154329Y-30236067D01*
X43058000Y-30216560D01*
X42158000Y-30216560D01*
X42054329Y-30236067D01*
X41958000Y-30216560D01*
X41058000Y-30216560D01*
X40954329Y-30236067D01*
X40858000Y-30216560D01*
X39958000Y-30216560D01*
X39854329Y-30236067D01*
X39758000Y-30216560D01*
X38858000Y-30216560D01*
X38754329Y-30236067D01*
X38658000Y-30216560D01*
X37758000Y-30216560D01*
X37654329Y-30236067D01*
X37558000Y-30216560D01*
X36658000Y-30216560D01*
X36554329Y-30236067D01*
X36458000Y-30216560D01*
X35668000Y-30216560D01*
X35668000Y-29701000D01*
X35610148Y-29410161D01*
X35445401Y-29163599D01*
X34700401Y-28418599D01*
X34453839Y-28253852D01*
X34163000Y-28196000D01*
X31115000Y-28196000D01*
X30824161Y-28253852D01*
X30577599Y-28418599D01*
X27423440Y-31572758D01*
X27423440Y-30764000D01*
X27379162Y-30528683D01*
X27240090Y-30312559D01*
X27027890Y-30167569D01*
X26886000Y-30138836D01*
X26886000Y-24980742D01*
X27011317Y-24957162D01*
X27227441Y-24818090D01*
X27372431Y-24605890D01*
X27423440Y-24354000D01*
X27423440Y-22985000D01*
X38166198Y-22985000D01*
X45407298Y-30226100D01*
G36*
X32723000Y-13737691D02*
X32723000Y-14328250D01*
X32881750Y-14487000D01*
X33681000Y-14487000D01*
X33681000Y-14467000D01*
X33810560Y-14467000D01*
X33810560Y-15364000D01*
X33854838Y-15599317D01*
X33935000Y-15723892D01*
X33935000Y-15840250D01*
X34093750Y-15999000D01*
X34148000Y-15999000D01*
X34148000Y-16265507D01*
X34132808Y-16280673D01*
X33990162Y-16624201D01*
X33989838Y-16996167D01*
X34131883Y-17339943D01*
X34394673Y-17603192D01*
X34738201Y-17745838D01*
X35110167Y-17746162D01*
X35453943Y-17604117D01*
X35717192Y-17341327D01*
X35859838Y-16997799D01*
X35860162Y-16625833D01*
X35718117Y-16282057D01*
X35668000Y-16231852D01*
X35668000Y-16011440D01*
X36458000Y-16011440D01*
X36561671Y-15991933D01*
X36658000Y-16011440D01*
X37558000Y-16011440D01*
X37661671Y-15991933D01*
X37758000Y-16011440D01*
X38658000Y-16011440D01*
X38761671Y-15991933D01*
X38858000Y-16011440D01*
X39758000Y-16011440D01*
X39861671Y-15991933D01*
X39958000Y-16011440D01*
X40858000Y-16011440D01*
X40961671Y-15991933D01*
X41058000Y-16011440D01*
X41958000Y-16011440D01*
X42061671Y-15991933D01*
X42158000Y-16011440D01*
X43058000Y-16011440D01*
X43161671Y-15991933D01*
X43258000Y-16011440D01*
X43384638Y-16011440D01*
X43658599Y-16285401D01*
X43905160Y-16450148D01*
X44196000Y-16508000D01*
X47632026Y-16508000D01*
X47610560Y-16614000D01*
X47610560Y-17514000D01*
X47630067Y-17617671D01*
X47610560Y-17714000D01*
X47610560Y-18614000D01*
X47630067Y-18717671D01*
X47610560Y-18814000D01*
X47610560Y-19714000D01*
X47630067Y-19817671D01*
X47610560Y-19914000D01*
X47610560Y-20814000D01*
X47630067Y-20917671D01*
X47610560Y-21014000D01*
X47610560Y-21914000D01*
X47630067Y-22017671D01*
X47610560Y-22114000D01*
X47610560Y-23014000D01*
X47630067Y-23117671D01*
X47610560Y-23214000D01*
X47610560Y-24114000D01*
X47630067Y-24217671D01*
X47610560Y-24314000D01*
X47610560Y-25214000D01*
X47630067Y-25317671D01*
X47610560Y-25414000D01*
X47610560Y-26314000D01*
X47630067Y-26417671D01*
X47610560Y-26514000D01*
X47610560Y-27414000D01*
X47630067Y-27517671D01*
X47610560Y-27614000D01*
X47610560Y-28196000D01*
X46415802Y-28196000D01*
X45322758Y-27102956D01*
X45486943Y-27035117D01*
X45750192Y-26772327D01*
X45892838Y-26428799D01*
X45893162Y-26056833D01*
X45751117Y-25713057D01*
X45488327Y-25449808D01*
X45144799Y-25307162D01*
X44772833Y-25306838D01*
X44542523Y-25402000D01*
X44510802Y-25402000D01*
X39780401Y-20671599D01*
X39533839Y-20506852D01*
X39243000Y-20449000D01*
X20253802Y-20449000D01*
X19912440Y-20107638D01*
X19912440Y-18835000D01*
X19868162Y-18599683D01*
X19729090Y-18383559D01*
X19516890Y-18238569D01*
X19408893Y-18216699D01*
X19686645Y-17911924D01*
X19856476Y-17501890D01*
X19735155Y-17272000D01*
X18542000Y-17272000D01*
X18542000Y-17292000D01*
X18288000Y-17292000D01*
X18288000Y-17272000D01*
X17094845Y-17272000D01*
X16973524Y-17501890D01*
X17143355Y-17911924D01*
X17419501Y-18214937D01*
X17329683Y-18231838D01*
X17113559Y-18370910D01*
X16968569Y-18583110D01*
X16917560Y-18835000D01*
X16917560Y-19652758D01*
X16412401Y-19147599D01*
X16165839Y-18982852D01*
X15878407Y-18925678D01*
X15684147Y-18634946D01*
X15343447Y-18407298D01*
X15486358Y-18340183D01*
X15876645Y-17911924D01*
X16046476Y-17501890D01*
X15925155Y-17272000D01*
X14732000Y-17272000D01*
X14732000Y-17292000D01*
X14478000Y-17292000D01*
X14478000Y-17272000D01*
X14458000Y-17272000D01*
X14458000Y-17018000D01*
X14478000Y-17018000D01*
X14478000Y-16998000D01*
X14732000Y-16998000D01*
X14732000Y-17018000D01*
X15925155Y-17018000D01*
X16046476Y-16788110D01*
X16973524Y-16788110D01*
X17094845Y-17018000D01*
X18288000Y-17018000D01*
X18288000Y-15824181D01*
X18542000Y-15824181D01*
X18542000Y-17018000D01*
X19735155Y-17018000D01*
X19856476Y-16788110D01*
X19686645Y-16378076D01*
X19296358Y-15949817D01*
X18771892Y-15703514D01*
X18542000Y-15824181D01*
X18288000Y-15824181D01*
X18058108Y-15703514D01*
X17533642Y-15949817D01*
X17143355Y-16378076D01*
X16973524Y-16788110D01*
X16046476Y-16788110D01*
X15876645Y-16378076D01*
X15600499Y-16075063D01*
X15690317Y-16058162D01*
X15906441Y-15919090D01*
X16051431Y-15706890D01*
X16102440Y-15455000D01*
X16102440Y-14899750D01*
X32723000Y-14899750D01*
X32723000Y-15490309D01*
X32819673Y-15723698D01*
X32998301Y-15902327D01*
X33231690Y-15999000D01*
X33522250Y-15999000D01*
X33681000Y-15840250D01*
X33681000Y-14741000D01*
X32881750Y-14741000D01*
X32723000Y-14899750D01*
X16102440Y-14899750D01*
X16102440Y-13755000D01*
X16093973Y-13710000D01*
X32734470Y-13710000D01*
X32723000Y-13737691D01*
X32723000Y-13737691D01*
G37*
X32723000Y-13737691D02*
X32723000Y-14328250D01*
X32881750Y-14487000D01*
X33681000Y-14487000D01*
X33681000Y-14467000D01*
X33810560Y-14467000D01*
X33810560Y-15364000D01*
X33854838Y-15599317D01*
X33935000Y-15723892D01*
X33935000Y-15840250D01*
X34093750Y-15999000D01*
X34148000Y-15999000D01*
X34148000Y-16265507D01*
X34132808Y-16280673D01*
X33990162Y-16624201D01*
X33989838Y-16996167D01*
X34131883Y-17339943D01*
X34394673Y-17603192D01*
X34738201Y-17745838D01*
X35110167Y-17746162D01*
X35453943Y-17604117D01*
X35717192Y-17341327D01*
X35859838Y-16997799D01*
X35860162Y-16625833D01*
X35718117Y-16282057D01*
X35668000Y-16231852D01*
X35668000Y-16011440D01*
X36458000Y-16011440D01*
X36561671Y-15991933D01*
X36658000Y-16011440D01*
X37558000Y-16011440D01*
X37661671Y-15991933D01*
X37758000Y-16011440D01*
X38658000Y-16011440D01*
X38761671Y-15991933D01*
X38858000Y-16011440D01*
X39758000Y-16011440D01*
X39861671Y-15991933D01*
X39958000Y-16011440D01*
X40858000Y-16011440D01*
X40961671Y-15991933D01*
X41058000Y-16011440D01*
X41958000Y-16011440D01*
X42061671Y-15991933D01*
X42158000Y-16011440D01*
X43058000Y-16011440D01*
X43161671Y-15991933D01*
X43258000Y-16011440D01*
X43384638Y-16011440D01*
X43658599Y-16285401D01*
X43905160Y-16450148D01*
X44196000Y-16508000D01*
X47632026Y-16508000D01*
X47610560Y-16614000D01*
X47610560Y-17514000D01*
X47630067Y-17617671D01*
X47610560Y-17714000D01*
X47610560Y-18614000D01*
X47630067Y-18717671D01*
X47610560Y-18814000D01*
X47610560Y-19714000D01*
X47630067Y-19817671D01*
X47610560Y-19914000D01*
X47610560Y-20814000D01*
X47630067Y-20917671D01*
X47610560Y-21014000D01*
X47610560Y-21914000D01*
X47630067Y-22017671D01*
X47610560Y-22114000D01*
X47610560Y-23014000D01*
X47630067Y-23117671D01*
X47610560Y-23214000D01*
X47610560Y-24114000D01*
X47630067Y-24217671D01*
X47610560Y-24314000D01*
X47610560Y-25214000D01*
X47630067Y-25317671D01*
X47610560Y-25414000D01*
X47610560Y-26314000D01*
X47630067Y-26417671D01*
X47610560Y-26514000D01*
X47610560Y-27414000D01*
X47630067Y-27517671D01*
X47610560Y-27614000D01*
X47610560Y-28196000D01*
X46415802Y-28196000D01*
X45322758Y-27102956D01*
X45486943Y-27035117D01*
X45750192Y-26772327D01*
X45892838Y-26428799D01*
X45893162Y-26056833D01*
X45751117Y-25713057D01*
X45488327Y-25449808D01*
X45144799Y-25307162D01*
X44772833Y-25306838D01*
X44542523Y-25402000D01*
X44510802Y-25402000D01*
X39780401Y-20671599D01*
X39533839Y-20506852D01*
X39243000Y-20449000D01*
X20253802Y-20449000D01*
X19912440Y-20107638D01*
X19912440Y-18835000D01*
X19868162Y-18599683D01*
X19729090Y-18383559D01*
X19516890Y-18238569D01*
X19408893Y-18216699D01*
X19686645Y-17911924D01*
X19856476Y-17501890D01*
X19735155Y-17272000D01*
X18542000Y-17272000D01*
X18542000Y-17292000D01*
X18288000Y-17292000D01*
X18288000Y-17272000D01*
X17094845Y-17272000D01*
X16973524Y-17501890D01*
X17143355Y-17911924D01*
X17419501Y-18214937D01*
X17329683Y-18231838D01*
X17113559Y-18370910D01*
X16968569Y-18583110D01*
X16917560Y-18835000D01*
X16917560Y-19652758D01*
X16412401Y-19147599D01*
X16165839Y-18982852D01*
X15878407Y-18925678D01*
X15684147Y-18634946D01*
X15343447Y-18407298D01*
X15486358Y-18340183D01*
X15876645Y-17911924D01*
X16046476Y-17501890D01*
X15925155Y-17272000D01*
X14732000Y-17272000D01*
X14732000Y-17292000D01*
X14478000Y-17292000D01*
X14478000Y-17272000D01*
X14458000Y-17272000D01*
X14458000Y-17018000D01*
X14478000Y-17018000D01*
X14478000Y-16998000D01*
X14732000Y-16998000D01*
X14732000Y-17018000D01*
X15925155Y-17018000D01*
X16046476Y-16788110D01*
X16973524Y-16788110D01*
X17094845Y-17018000D01*
X18288000Y-17018000D01*
X18288000Y-15824181D01*
X18542000Y-15824181D01*
X18542000Y-17018000D01*
X19735155Y-17018000D01*
X19856476Y-16788110D01*
X19686645Y-16378076D01*
X19296358Y-15949817D01*
X18771892Y-15703514D01*
X18542000Y-15824181D01*
X18288000Y-15824181D01*
X18058108Y-15703514D01*
X17533642Y-15949817D01*
X17143355Y-16378076D01*
X16973524Y-16788110D01*
X16046476Y-16788110D01*
X15876645Y-16378076D01*
X15600499Y-16075063D01*
X15690317Y-16058162D01*
X15906441Y-15919090D01*
X16051431Y-15706890D01*
X16102440Y-15455000D01*
X16102440Y-14899750D01*
X32723000Y-14899750D01*
X32723000Y-15490309D01*
X32819673Y-15723698D01*
X32998301Y-15902327D01*
X33231690Y-15999000D01*
X33522250Y-15999000D01*
X33681000Y-15840250D01*
X33681000Y-14741000D01*
X32881750Y-14741000D01*
X32723000Y-14899750D01*
X16102440Y-14899750D01*
X16102440Y-13755000D01*
X16093973Y-13710000D01*
X32734470Y-13710000D01*
X32723000Y-13737691D01*
G36*
X57132010Y-14080048D02*
X56615589Y-15323728D01*
X56614414Y-16670364D01*
X57128663Y-17914943D01*
X58080048Y-18867990D01*
X58829043Y-19179000D01*
X51876802Y-19179000D01*
X51491802Y-18794000D01*
X53920537Y-18794000D01*
X53952673Y-18826192D01*
X54296201Y-18968838D01*
X54668167Y-18969162D01*
X55011943Y-18827117D01*
X55275192Y-18564327D01*
X55417838Y-18220799D01*
X55418162Y-17848833D01*
X55276117Y-17505057D01*
X55013327Y-17241808D01*
X54669799Y-17099162D01*
X54297833Y-17098838D01*
X53954057Y-17240883D01*
X53920882Y-17274000D01*
X51241802Y-17274000D01*
X50494401Y-16526599D01*
X50466566Y-16508000D01*
X53467000Y-16508000D01*
X53757839Y-16450148D01*
X54004401Y-16285401D01*
X54622680Y-15667122D01*
X54668167Y-15667162D01*
X55011943Y-15525117D01*
X55275192Y-15262327D01*
X55417838Y-14918799D01*
X55418162Y-14546833D01*
X55276117Y-14203057D01*
X55013327Y-13939808D01*
X54669799Y-13797162D01*
X54297833Y-13796838D01*
X53983724Y-13926625D01*
X53767477Y-13710000D01*
X57502704Y-13710000D01*
X57132010Y-14080048D01*
X57132010Y-14080048D01*
G37*
X57132010Y-14080048D02*
X56615589Y-15323728D01*
X56614414Y-16670364D01*
X57128663Y-17914943D01*
X58080048Y-18867990D01*
X58829043Y-19179000D01*
X51876802Y-19179000D01*
X51491802Y-18794000D01*
X53920537Y-18794000D01*
X53952673Y-18826192D01*
X54296201Y-18968838D01*
X54668167Y-18969162D01*
X55011943Y-18827117D01*
X55275192Y-18564327D01*
X55417838Y-18220799D01*
X55418162Y-17848833D01*
X55276117Y-17505057D01*
X55013327Y-17241808D01*
X54669799Y-17099162D01*
X54297833Y-17098838D01*
X53954057Y-17240883D01*
X53920882Y-17274000D01*
X51241802Y-17274000D01*
X50494401Y-16526599D01*
X50466566Y-16508000D01*
X53467000Y-16508000D01*
X53757839Y-16450148D01*
X54004401Y-16285401D01*
X54622680Y-15667122D01*
X54668167Y-15667162D01*
X55011943Y-15525117D01*
X55275192Y-15262327D01*
X55417838Y-14918799D01*
X55418162Y-14546833D01*
X55276117Y-14203057D01*
X55013327Y-13939808D01*
X54669799Y-13797162D01*
X54297833Y-13796838D01*
X53983724Y-13926625D01*
X53767477Y-13710000D01*
X57502704Y-13710000D01*
X57132010Y-14080048D01*
G36*
X52277878Y-14617680D02*
X52277838Y-14663167D01*
X52412056Y-14988000D01*
X46993000Y-14988000D01*
X46993000Y-14899750D01*
X46834250Y-14741000D01*
X46035000Y-14741000D01*
X46035000Y-14761000D01*
X45905440Y-14761000D01*
X45905440Y-14467000D01*
X46035000Y-14467000D01*
X46035000Y-14487000D01*
X46834250Y-14487000D01*
X46993000Y-14328250D01*
X46993000Y-14222000D01*
X51882198Y-14222000D01*
X52277878Y-14617680D01*
X52277878Y-14617680D01*
G37*
X52277878Y-14617680D02*
X52277838Y-14663167D01*
X52412056Y-14988000D01*
X46993000Y-14988000D01*
X46993000Y-14899750D01*
X46834250Y-14741000D01*
X46035000Y-14741000D01*
X46035000Y-14761000D01*
X45905440Y-14761000D01*
X45905440Y-14467000D01*
X46035000Y-14467000D01*
X46035000Y-14487000D01*
X46834250Y-14487000D01*
X46993000Y-14328250D01*
X46993000Y-14222000D01*
X51882198Y-14222000D01*
X52277878Y-14617680D01*
M02*
