G04 #@! TF.FileFunction,Soldermask,Top*
%FSLAX46Y46*%
G04 Gerber Fmt 4.6, Leading zero omitted, Abs format (unit mm)*
G04 Created by KiCad (PCBNEW 4.0.7) date 07/22/18 11:21:55*
%MOMM*%
%LPD*%
G01*
G04 APERTURE LIST*
%ADD10C,0.100000*%
%ADD11R,1.650000X1.900000*%
%ADD12R,1.900000X1.650000*%
%ADD13R,1.400000X1.900000*%
%ADD14R,2.100000X2.100000*%
%ADD15O,2.100000X2.100000*%
%ADD16C,5.900000*%
%ADD17R,2.400000X4.200000*%
%ADD18R,2.400000X1.900000*%
%ADD19R,1.700000X1.900000*%
%ADD20R,1.900000X1.700000*%
G04 APERTURE END LIST*
D10*
D11*
X30861000Y-17125000D03*
X30861000Y-14625000D03*
D12*
X44470000Y-21209000D03*
X46970000Y-21209000D03*
D13*
X53148000Y-18006000D03*
X54548000Y-18006000D03*
X53148000Y-14506000D03*
X54548000Y-14506000D03*
D14*
X14605000Y-14605000D03*
D15*
X14605000Y-17145000D03*
X14605000Y-19685000D03*
X14605000Y-22225000D03*
D16*
X60000000Y-34000000D03*
X60000000Y-16000000D03*
X17000000Y-29000000D03*
D17*
X28423000Y-17145000D03*
D18*
X22123000Y-17145000D03*
X22123000Y-19445000D03*
X22123000Y-14845000D03*
D14*
X53000000Y-35000000D03*
D15*
X50460000Y-35000000D03*
X47920000Y-35000000D03*
X45380000Y-35000000D03*
X42840000Y-35000000D03*
X40300000Y-35000000D03*
X37760000Y-35000000D03*
X35220000Y-35000000D03*
X32680000Y-35000000D03*
X30140000Y-35000000D03*
X27600000Y-35000000D03*
X25060000Y-35000000D03*
X22520000Y-35000000D03*
X19980000Y-35000000D03*
X17440000Y-35000000D03*
X14900000Y-35000000D03*
D19*
X34925000Y-19511000D03*
X34925000Y-16811000D03*
D14*
X18415000Y-19685000D03*
D15*
X18415000Y-17145000D03*
D14*
X60706000Y-22733000D03*
D15*
X60706000Y-25273000D03*
X58166000Y-22733000D03*
X58166000Y-25273000D03*
X55626000Y-22733000D03*
X55626000Y-25273000D03*
X53086000Y-22733000D03*
X53086000Y-25273000D03*
D19*
X44958000Y-23542000D03*
X44958000Y-26242000D03*
X46990000Y-26242000D03*
X46990000Y-23542000D03*
D20*
X44243000Y-18669000D03*
X46943000Y-18669000D03*
D14*
X18161000Y-24130000D03*
M02*
