G04 #@! TF.FileFunction,Legend,Top*
%FSLAX46Y46*%
G04 Gerber Fmt 4.6, Leading zero omitted, Abs format (unit mm)*
G04 Created by KiCad (PCBNEW 4.0.7) date 07/05/18 13:02:46*
%MOMM*%
%LPD*%
G01*
G04 APERTURE LIST*
%ADD10C,0.100000*%
%ADD11C,0.381000*%
%ADD12C,0.120000*%
%ADD13C,0.150000*%
G04 APERTURE END LIST*
D10*
D11*
X53340000Y-34290000D02*
X55118000Y-34290000D01*
X64262000Y-34290000D02*
X66040000Y-34290000D01*
X66040000Y-34290000D02*
X66040000Y-36068000D01*
X66040000Y-45212000D02*
X66040000Y-46990000D01*
X66040000Y-46990000D02*
X64262000Y-46990000D01*
X55118000Y-46990000D02*
X53340000Y-46990000D01*
X53340000Y-46990000D02*
X53340000Y-45212000D01*
X53340000Y-36068000D02*
X53340000Y-34290000D01*
X34290000Y-15240000D02*
X36068000Y-15240000D01*
X45212000Y-15240000D02*
X46990000Y-15240000D01*
X46990000Y-15240000D02*
X46990000Y-17018000D01*
X46990000Y-26162000D02*
X46990000Y-27940000D01*
X46990000Y-27940000D02*
X45212000Y-27940000D01*
X36068000Y-27940000D02*
X34290000Y-27940000D01*
X34290000Y-27940000D02*
X34290000Y-26162000D01*
X34290000Y-17018000D02*
X34290000Y-15240000D01*
X15240000Y-15240000D02*
X17018000Y-15240000D01*
X26162000Y-15240000D02*
X27940000Y-15240000D01*
X27940000Y-15240000D02*
X27940000Y-17018000D01*
X27940000Y-26162000D02*
X27940000Y-27940000D01*
X27940000Y-27940000D02*
X26162000Y-27940000D01*
X17018000Y-27940000D02*
X15240000Y-27940000D01*
X15240000Y-27940000D02*
X15240000Y-26162000D01*
X15240000Y-17018000D02*
X15240000Y-15240000D01*
D12*
X87972000Y-37076000D02*
X87972000Y-36076000D01*
X86272000Y-36076000D02*
X86272000Y-37076000D01*
X106465000Y-49665000D02*
X106465000Y-50665000D01*
X108165000Y-50665000D02*
X108165000Y-49665000D01*
X31615000Y-49315000D02*
X30615000Y-49315000D01*
X30615000Y-51015000D02*
X31615000Y-51015000D01*
X31488000Y-68238000D02*
X30488000Y-68238000D01*
X30488000Y-69938000D02*
X31488000Y-69938000D01*
X50538000Y-68365000D02*
X49538000Y-68365000D01*
X49538000Y-70065000D02*
X50538000Y-70065000D01*
X69715000Y-68365000D02*
X68715000Y-68365000D01*
X68715000Y-70065000D02*
X69715000Y-70065000D01*
X88765000Y-68365000D02*
X87765000Y-68365000D01*
X87765000Y-70065000D02*
X88765000Y-70065000D01*
X106815000Y-70065000D02*
X107815000Y-70065000D01*
X107815000Y-68365000D02*
X106815000Y-68365000D01*
X106815000Y-32600000D02*
X107815000Y-32600000D01*
X107815000Y-30900000D02*
X106815000Y-30900000D01*
D11*
X53340000Y-15240000D02*
X55118000Y-15240000D01*
X64262000Y-15240000D02*
X66040000Y-15240000D01*
X66040000Y-15240000D02*
X66040000Y-17018000D01*
X66040000Y-26162000D02*
X66040000Y-27940000D01*
X66040000Y-27940000D02*
X64262000Y-27940000D01*
X55118000Y-27940000D02*
X53340000Y-27940000D01*
X53340000Y-27940000D02*
X53340000Y-26162000D01*
X53340000Y-17018000D02*
X53340000Y-15240000D01*
X72390000Y-15240000D02*
X74168000Y-15240000D01*
X83312000Y-15240000D02*
X85090000Y-15240000D01*
X85090000Y-15240000D02*
X85090000Y-17018000D01*
X85090000Y-26162000D02*
X85090000Y-27940000D01*
X85090000Y-27940000D02*
X83312000Y-27940000D01*
X74168000Y-27940000D02*
X72390000Y-27940000D01*
X72390000Y-27940000D02*
X72390000Y-26162000D01*
X72390000Y-17018000D02*
X72390000Y-15240000D01*
X91440000Y-15240000D02*
X93218000Y-15240000D01*
X102362000Y-15240000D02*
X104140000Y-15240000D01*
X104140000Y-15240000D02*
X104140000Y-17018000D01*
X104140000Y-26162000D02*
X104140000Y-27940000D01*
X104140000Y-27940000D02*
X102362000Y-27940000D01*
X93218000Y-27940000D02*
X91440000Y-27940000D01*
X91440000Y-27940000D02*
X91440000Y-26162000D01*
X91440000Y-17018000D02*
X91440000Y-15240000D01*
X110490000Y-15240000D02*
X112268000Y-15240000D01*
X121412000Y-15240000D02*
X123190000Y-15240000D01*
X123190000Y-15240000D02*
X123190000Y-17018000D01*
X123190000Y-26162000D02*
X123190000Y-27940000D01*
X123190000Y-27940000D02*
X121412000Y-27940000D01*
X112268000Y-27940000D02*
X110490000Y-27940000D01*
X110490000Y-27940000D02*
X110490000Y-26162000D01*
X110490000Y-17018000D02*
X110490000Y-15240000D01*
X15240000Y-34290000D02*
X17018000Y-34290000D01*
X26162000Y-34290000D02*
X27940000Y-34290000D01*
X27940000Y-34290000D02*
X27940000Y-36068000D01*
X27940000Y-45212000D02*
X27940000Y-46990000D01*
X27940000Y-46990000D02*
X26162000Y-46990000D01*
X17018000Y-46990000D02*
X15240000Y-46990000D01*
X15240000Y-46990000D02*
X15240000Y-45212000D01*
X15240000Y-36068000D02*
X15240000Y-34290000D01*
X34290000Y-34290000D02*
X36068000Y-34290000D01*
X45212000Y-34290000D02*
X46990000Y-34290000D01*
X46990000Y-34290000D02*
X46990000Y-36068000D01*
X46990000Y-45212000D02*
X46990000Y-46990000D01*
X46990000Y-46990000D02*
X45212000Y-46990000D01*
X36068000Y-46990000D02*
X34290000Y-46990000D01*
X34290000Y-46990000D02*
X34290000Y-45212000D01*
X34290000Y-36068000D02*
X34290000Y-34290000D01*
X72390000Y-34290000D02*
X74168000Y-34290000D01*
X83312000Y-34290000D02*
X85090000Y-34290000D01*
X85090000Y-34290000D02*
X85090000Y-36068000D01*
X85090000Y-45212000D02*
X85090000Y-46990000D01*
X85090000Y-46990000D02*
X83312000Y-46990000D01*
X74168000Y-46990000D02*
X72390000Y-46990000D01*
X72390000Y-46990000D02*
X72390000Y-45212000D01*
X72390000Y-36068000D02*
X72390000Y-34290000D01*
X91440000Y-34290000D02*
X93218000Y-34290000D01*
X102362000Y-34290000D02*
X104140000Y-34290000D01*
X104140000Y-34290000D02*
X104140000Y-36068000D01*
X104140000Y-45212000D02*
X104140000Y-46990000D01*
X104140000Y-46990000D02*
X102362000Y-46990000D01*
X93218000Y-46990000D02*
X91440000Y-46990000D01*
X91440000Y-46990000D02*
X91440000Y-45212000D01*
X91440000Y-36068000D02*
X91440000Y-34290000D01*
X110490000Y-34290000D02*
X112268000Y-34290000D01*
X121412000Y-34290000D02*
X123190000Y-34290000D01*
X123190000Y-34290000D02*
X123190000Y-36068000D01*
X123190000Y-45212000D02*
X123190000Y-46990000D01*
X123190000Y-46990000D02*
X121412000Y-46990000D01*
X112268000Y-46990000D02*
X110490000Y-46990000D01*
X110490000Y-46990000D02*
X110490000Y-45212000D01*
X110490000Y-36068000D02*
X110490000Y-34290000D01*
X15240000Y-53340000D02*
X17018000Y-53340000D01*
X26162000Y-53340000D02*
X27940000Y-53340000D01*
X27940000Y-53340000D02*
X27940000Y-55118000D01*
X27940000Y-64262000D02*
X27940000Y-66040000D01*
X27940000Y-66040000D02*
X26162000Y-66040000D01*
X17018000Y-66040000D02*
X15240000Y-66040000D01*
X15240000Y-66040000D02*
X15240000Y-64262000D01*
X15240000Y-55118000D02*
X15240000Y-53340000D01*
X34290000Y-53340000D02*
X36068000Y-53340000D01*
X45212000Y-53340000D02*
X46990000Y-53340000D01*
X46990000Y-53340000D02*
X46990000Y-55118000D01*
X46990000Y-64262000D02*
X46990000Y-66040000D01*
X46990000Y-66040000D02*
X45212000Y-66040000D01*
X36068000Y-66040000D02*
X34290000Y-66040000D01*
X34290000Y-66040000D02*
X34290000Y-64262000D01*
X34290000Y-55118000D02*
X34290000Y-53340000D01*
X53340000Y-53340000D02*
X55118000Y-53340000D01*
X64262000Y-53340000D02*
X66040000Y-53340000D01*
X66040000Y-53340000D02*
X66040000Y-55118000D01*
X66040000Y-64262000D02*
X66040000Y-66040000D01*
X66040000Y-66040000D02*
X64262000Y-66040000D01*
X55118000Y-66040000D02*
X53340000Y-66040000D01*
X53340000Y-66040000D02*
X53340000Y-64262000D01*
X53340000Y-55118000D02*
X53340000Y-53340000D01*
X72390000Y-53340000D02*
X74168000Y-53340000D01*
X83312000Y-53340000D02*
X85090000Y-53340000D01*
X85090000Y-53340000D02*
X85090000Y-55118000D01*
X85090000Y-64262000D02*
X85090000Y-66040000D01*
X85090000Y-66040000D02*
X83312000Y-66040000D01*
X74168000Y-66040000D02*
X72390000Y-66040000D01*
X72390000Y-66040000D02*
X72390000Y-64262000D01*
X72390000Y-55118000D02*
X72390000Y-53340000D01*
X91440000Y-53340000D02*
X93218000Y-53340000D01*
X102362000Y-53340000D02*
X104140000Y-53340000D01*
X104140000Y-53340000D02*
X104140000Y-55118000D01*
X104140000Y-64262000D02*
X104140000Y-66040000D01*
X104140000Y-66040000D02*
X102362000Y-66040000D01*
X93218000Y-66040000D02*
X91440000Y-66040000D01*
X91440000Y-66040000D02*
X91440000Y-64262000D01*
X91440000Y-55118000D02*
X91440000Y-53340000D01*
X110490000Y-53340000D02*
X112268000Y-53340000D01*
X121412000Y-53340000D02*
X123190000Y-53340000D01*
X123190000Y-53340000D02*
X123190000Y-55118000D01*
X123190000Y-64262000D02*
X123190000Y-66040000D01*
X123190000Y-66040000D02*
X121412000Y-66040000D01*
X112268000Y-66040000D02*
X110490000Y-66040000D01*
X110490000Y-66040000D02*
X110490000Y-64262000D01*
X110490000Y-55118000D02*
X110490000Y-53340000D01*
X15240000Y-72390000D02*
X17018000Y-72390000D01*
X26162000Y-72390000D02*
X27940000Y-72390000D01*
X27940000Y-72390000D02*
X27940000Y-74168000D01*
X27940000Y-83312000D02*
X27940000Y-85090000D01*
X27940000Y-85090000D02*
X26162000Y-85090000D01*
X17018000Y-85090000D02*
X15240000Y-85090000D01*
X15240000Y-85090000D02*
X15240000Y-83312000D01*
X15240000Y-74168000D02*
X15240000Y-72390000D01*
X34290000Y-72390000D02*
X36068000Y-72390000D01*
X45212000Y-72390000D02*
X46990000Y-72390000D01*
X46990000Y-72390000D02*
X46990000Y-74168000D01*
X46990000Y-83312000D02*
X46990000Y-85090000D01*
X46990000Y-85090000D02*
X45212000Y-85090000D01*
X36068000Y-85090000D02*
X34290000Y-85090000D01*
X34290000Y-85090000D02*
X34290000Y-83312000D01*
X34290000Y-74168000D02*
X34290000Y-72390000D01*
X53340000Y-72390000D02*
X55118000Y-72390000D01*
X64262000Y-72390000D02*
X66040000Y-72390000D01*
X66040000Y-72390000D02*
X66040000Y-74168000D01*
X66040000Y-83312000D02*
X66040000Y-85090000D01*
X66040000Y-85090000D02*
X64262000Y-85090000D01*
X55118000Y-85090000D02*
X53340000Y-85090000D01*
X53340000Y-85090000D02*
X53340000Y-83312000D01*
X53340000Y-74168000D02*
X53340000Y-72390000D01*
X72390000Y-72390000D02*
X74168000Y-72390000D01*
X83312000Y-72390000D02*
X85090000Y-72390000D01*
X85090000Y-72390000D02*
X85090000Y-74168000D01*
X85090000Y-83312000D02*
X85090000Y-85090000D01*
X85090000Y-85090000D02*
X83312000Y-85090000D01*
X74168000Y-85090000D02*
X72390000Y-85090000D01*
X72390000Y-85090000D02*
X72390000Y-83312000D01*
X72390000Y-74168000D02*
X72390000Y-72390000D01*
X91440000Y-72390000D02*
X93218000Y-72390000D01*
X102362000Y-72390000D02*
X104140000Y-72390000D01*
X104140000Y-72390000D02*
X104140000Y-74168000D01*
X104140000Y-83312000D02*
X104140000Y-85090000D01*
X104140000Y-85090000D02*
X102362000Y-85090000D01*
X93218000Y-85090000D02*
X91440000Y-85090000D01*
X91440000Y-85090000D02*
X91440000Y-83312000D01*
X91440000Y-74168000D02*
X91440000Y-72390000D01*
X110490000Y-72390000D02*
X112268000Y-72390000D01*
X121412000Y-72390000D02*
X123190000Y-72390000D01*
X123190000Y-72390000D02*
X123190000Y-74168000D01*
X123190000Y-83312000D02*
X123190000Y-85090000D01*
X123190000Y-85090000D02*
X121412000Y-85090000D01*
X112268000Y-85090000D02*
X110490000Y-85090000D01*
X110490000Y-85090000D02*
X110490000Y-83312000D01*
X110490000Y-74168000D02*
X110490000Y-72390000D01*
D12*
X74286000Y-30642000D02*
X74286000Y-31842000D01*
X72526000Y-31842000D02*
X72526000Y-30642000D01*
X30595000Y-24527000D02*
X30595000Y-27727000D01*
X29095000Y-27727000D02*
X29095000Y-24527000D01*
X29095000Y-27727000D02*
X30595000Y-27727000D01*
X31585000Y-27127000D02*
X33185000Y-27127000D01*
X33185000Y-27127000D02*
X33185000Y-24527000D01*
X31585000Y-27127000D02*
X31585000Y-24527000D01*
X67145000Y-21666000D02*
X68745000Y-21666000D01*
X68745000Y-21666000D02*
X68745000Y-19066000D01*
X67145000Y-21666000D02*
X67145000Y-19066000D01*
X69304000Y-21666000D02*
X70904000Y-21666000D01*
X70904000Y-21666000D02*
X70904000Y-19066000D01*
X69304000Y-21666000D02*
X69304000Y-19066000D01*
X105245000Y-27635000D02*
X106845000Y-27635000D01*
X106845000Y-27635000D02*
X106845000Y-25035000D01*
X105245000Y-27635000D02*
X105245000Y-25035000D01*
X107785000Y-27635000D02*
X109385000Y-27635000D01*
X109385000Y-27635000D02*
X109385000Y-25035000D01*
X107785000Y-27635000D02*
X107785000Y-25035000D01*
X29045000Y-46050000D02*
X30645000Y-46050000D01*
X30645000Y-46050000D02*
X30645000Y-43450000D01*
X29045000Y-46050000D02*
X29045000Y-43450000D01*
X31585000Y-46050000D02*
X33185000Y-46050000D01*
X33185000Y-46050000D02*
X33185000Y-43450000D01*
X31585000Y-46050000D02*
X31585000Y-43450000D01*
X67272000Y-48336000D02*
X68872000Y-48336000D01*
X68872000Y-48336000D02*
X68872000Y-45736000D01*
X67272000Y-48336000D02*
X67272000Y-45736000D01*
X69812000Y-48336000D02*
X71412000Y-48336000D01*
X71412000Y-48336000D02*
X71412000Y-45736000D01*
X69812000Y-48336000D02*
X69812000Y-45736000D01*
X105245000Y-46685000D02*
X106845000Y-46685000D01*
X106845000Y-46685000D02*
X106845000Y-44085000D01*
X105245000Y-46685000D02*
X105245000Y-44085000D01*
X107785000Y-46685000D02*
X109385000Y-46685000D01*
X109385000Y-46685000D02*
X109385000Y-44085000D01*
X107785000Y-46685000D02*
X107785000Y-44085000D01*
X29045000Y-65100000D02*
X30645000Y-65100000D01*
X30645000Y-65100000D02*
X30645000Y-62500000D01*
X29045000Y-65100000D02*
X29045000Y-62500000D01*
X31712000Y-65100000D02*
X33312000Y-65100000D01*
X33312000Y-65100000D02*
X33312000Y-62500000D01*
X31712000Y-65100000D02*
X31712000Y-62500000D01*
X67018000Y-65100000D02*
X68618000Y-65100000D01*
X68618000Y-65100000D02*
X68618000Y-62500000D01*
X67018000Y-65100000D02*
X67018000Y-62500000D01*
X69685000Y-65100000D02*
X71285000Y-65100000D01*
X71285000Y-65100000D02*
X71285000Y-62500000D01*
X69685000Y-65100000D02*
X69685000Y-62500000D01*
X105245000Y-65354000D02*
X106845000Y-65354000D01*
X106845000Y-65354000D02*
X106845000Y-62754000D01*
X105245000Y-65354000D02*
X105245000Y-62754000D01*
X107912000Y-65354000D02*
X109512000Y-65354000D01*
X109512000Y-65354000D02*
X109512000Y-62754000D01*
X107912000Y-65354000D02*
X107912000Y-62754000D01*
X29172000Y-84150000D02*
X30772000Y-84150000D01*
X30772000Y-84150000D02*
X30772000Y-81550000D01*
X29172000Y-84150000D02*
X29172000Y-81550000D01*
X31585000Y-84150000D02*
X33185000Y-84150000D01*
X33185000Y-84150000D02*
X33185000Y-81550000D01*
X31585000Y-84150000D02*
X31585000Y-81550000D01*
X66764000Y-84150000D02*
X68364000Y-84150000D01*
X68364000Y-84150000D02*
X68364000Y-81550000D01*
X66764000Y-84150000D02*
X66764000Y-81550000D01*
X69558000Y-84150000D02*
X71158000Y-84150000D01*
X71158000Y-84150000D02*
X71158000Y-81550000D01*
X69558000Y-84150000D02*
X69558000Y-81550000D01*
X105245000Y-84277000D02*
X106845000Y-84277000D01*
X106845000Y-84277000D02*
X106845000Y-81677000D01*
X105245000Y-84277000D02*
X105245000Y-81677000D01*
X107658000Y-84277000D02*
X109258000Y-84277000D01*
X109258000Y-84277000D02*
X109258000Y-81677000D01*
X107658000Y-84277000D02*
X107658000Y-81677000D01*
D13*
X89229143Y-36742666D02*
X89276762Y-36790285D01*
X89324381Y-36933142D01*
X89324381Y-37028380D01*
X89276762Y-37171238D01*
X89181524Y-37266476D01*
X89086286Y-37314095D01*
X88895810Y-37361714D01*
X88752952Y-37361714D01*
X88562476Y-37314095D01*
X88467238Y-37266476D01*
X88372000Y-37171238D01*
X88324381Y-37028380D01*
X88324381Y-36933142D01*
X88372000Y-36790285D01*
X88419619Y-36742666D01*
X89324381Y-35790285D02*
X89324381Y-36361714D01*
X89324381Y-36076000D02*
X88324381Y-36076000D01*
X88467238Y-36171238D01*
X88562476Y-36266476D01*
X88610095Y-36361714D01*
X105922143Y-50331666D02*
X105969762Y-50379285D01*
X106017381Y-50522142D01*
X106017381Y-50617380D01*
X105969762Y-50760238D01*
X105874524Y-50855476D01*
X105779286Y-50903095D01*
X105588810Y-50950714D01*
X105445952Y-50950714D01*
X105255476Y-50903095D01*
X105160238Y-50855476D01*
X105065000Y-50760238D01*
X105017381Y-50617380D01*
X105017381Y-50522142D01*
X105065000Y-50379285D01*
X105112619Y-50331666D01*
X105112619Y-49950714D02*
X105065000Y-49903095D01*
X105017381Y-49807857D01*
X105017381Y-49569761D01*
X105065000Y-49474523D01*
X105112619Y-49426904D01*
X105207857Y-49379285D01*
X105303095Y-49379285D01*
X105445952Y-49426904D01*
X106017381Y-49998333D01*
X106017381Y-49379285D01*
X30948334Y-48772143D02*
X30900715Y-48819762D01*
X30757858Y-48867381D01*
X30662620Y-48867381D01*
X30519762Y-48819762D01*
X30424524Y-48724524D01*
X30376905Y-48629286D01*
X30329286Y-48438810D01*
X30329286Y-48295952D01*
X30376905Y-48105476D01*
X30424524Y-48010238D01*
X30519762Y-47915000D01*
X30662620Y-47867381D01*
X30757858Y-47867381D01*
X30900715Y-47915000D01*
X30948334Y-47962619D01*
X31281667Y-47867381D02*
X31900715Y-47867381D01*
X31567381Y-48248333D01*
X31710239Y-48248333D01*
X31805477Y-48295952D01*
X31853096Y-48343571D01*
X31900715Y-48438810D01*
X31900715Y-48676905D01*
X31853096Y-48772143D01*
X31805477Y-48819762D01*
X31710239Y-48867381D01*
X31424524Y-48867381D01*
X31329286Y-48819762D01*
X31281667Y-48772143D01*
X30821334Y-67695143D02*
X30773715Y-67742762D01*
X30630858Y-67790381D01*
X30535620Y-67790381D01*
X30392762Y-67742762D01*
X30297524Y-67647524D01*
X30249905Y-67552286D01*
X30202286Y-67361810D01*
X30202286Y-67218952D01*
X30249905Y-67028476D01*
X30297524Y-66933238D01*
X30392762Y-66838000D01*
X30535620Y-66790381D01*
X30630858Y-66790381D01*
X30773715Y-66838000D01*
X30821334Y-66885619D01*
X31678477Y-67123714D02*
X31678477Y-67790381D01*
X31440381Y-66742762D02*
X31202286Y-67457048D01*
X31821334Y-67457048D01*
X49871334Y-67822143D02*
X49823715Y-67869762D01*
X49680858Y-67917381D01*
X49585620Y-67917381D01*
X49442762Y-67869762D01*
X49347524Y-67774524D01*
X49299905Y-67679286D01*
X49252286Y-67488810D01*
X49252286Y-67345952D01*
X49299905Y-67155476D01*
X49347524Y-67060238D01*
X49442762Y-66965000D01*
X49585620Y-66917381D01*
X49680858Y-66917381D01*
X49823715Y-66965000D01*
X49871334Y-67012619D01*
X50776096Y-66917381D02*
X50299905Y-66917381D01*
X50252286Y-67393571D01*
X50299905Y-67345952D01*
X50395143Y-67298333D01*
X50633239Y-67298333D01*
X50728477Y-67345952D01*
X50776096Y-67393571D01*
X50823715Y-67488810D01*
X50823715Y-67726905D01*
X50776096Y-67822143D01*
X50728477Y-67869762D01*
X50633239Y-67917381D01*
X50395143Y-67917381D01*
X50299905Y-67869762D01*
X50252286Y-67822143D01*
X69048334Y-67822143D02*
X69000715Y-67869762D01*
X68857858Y-67917381D01*
X68762620Y-67917381D01*
X68619762Y-67869762D01*
X68524524Y-67774524D01*
X68476905Y-67679286D01*
X68429286Y-67488810D01*
X68429286Y-67345952D01*
X68476905Y-67155476D01*
X68524524Y-67060238D01*
X68619762Y-66965000D01*
X68762620Y-66917381D01*
X68857858Y-66917381D01*
X69000715Y-66965000D01*
X69048334Y-67012619D01*
X69905477Y-66917381D02*
X69715000Y-66917381D01*
X69619762Y-66965000D01*
X69572143Y-67012619D01*
X69476905Y-67155476D01*
X69429286Y-67345952D01*
X69429286Y-67726905D01*
X69476905Y-67822143D01*
X69524524Y-67869762D01*
X69619762Y-67917381D01*
X69810239Y-67917381D01*
X69905477Y-67869762D01*
X69953096Y-67822143D01*
X70000715Y-67726905D01*
X70000715Y-67488810D01*
X69953096Y-67393571D01*
X69905477Y-67345952D01*
X69810239Y-67298333D01*
X69619762Y-67298333D01*
X69524524Y-67345952D01*
X69476905Y-67393571D01*
X69429286Y-67488810D01*
X88098334Y-67822143D02*
X88050715Y-67869762D01*
X87907858Y-67917381D01*
X87812620Y-67917381D01*
X87669762Y-67869762D01*
X87574524Y-67774524D01*
X87526905Y-67679286D01*
X87479286Y-67488810D01*
X87479286Y-67345952D01*
X87526905Y-67155476D01*
X87574524Y-67060238D01*
X87669762Y-66965000D01*
X87812620Y-66917381D01*
X87907858Y-66917381D01*
X88050715Y-66965000D01*
X88098334Y-67012619D01*
X88431667Y-66917381D02*
X89098334Y-66917381D01*
X88669762Y-67917381D01*
X107148334Y-71322143D02*
X107100715Y-71369762D01*
X106957858Y-71417381D01*
X106862620Y-71417381D01*
X106719762Y-71369762D01*
X106624524Y-71274524D01*
X106576905Y-71179286D01*
X106529286Y-70988810D01*
X106529286Y-70845952D01*
X106576905Y-70655476D01*
X106624524Y-70560238D01*
X106719762Y-70465000D01*
X106862620Y-70417381D01*
X106957858Y-70417381D01*
X107100715Y-70465000D01*
X107148334Y-70512619D01*
X107719762Y-70845952D02*
X107624524Y-70798333D01*
X107576905Y-70750714D01*
X107529286Y-70655476D01*
X107529286Y-70607857D01*
X107576905Y-70512619D01*
X107624524Y-70465000D01*
X107719762Y-70417381D01*
X107910239Y-70417381D01*
X108005477Y-70465000D01*
X108053096Y-70512619D01*
X108100715Y-70607857D01*
X108100715Y-70655476D01*
X108053096Y-70750714D01*
X108005477Y-70798333D01*
X107910239Y-70845952D01*
X107719762Y-70845952D01*
X107624524Y-70893571D01*
X107576905Y-70941190D01*
X107529286Y-71036429D01*
X107529286Y-71226905D01*
X107576905Y-71322143D01*
X107624524Y-71369762D01*
X107719762Y-71417381D01*
X107910239Y-71417381D01*
X108005477Y-71369762D01*
X108053096Y-71322143D01*
X108100715Y-71226905D01*
X108100715Y-71036429D01*
X108053096Y-70941190D01*
X108005477Y-70893571D01*
X107910239Y-70845952D01*
X107148334Y-33857143D02*
X107100715Y-33904762D01*
X106957858Y-33952381D01*
X106862620Y-33952381D01*
X106719762Y-33904762D01*
X106624524Y-33809524D01*
X106576905Y-33714286D01*
X106529286Y-33523810D01*
X106529286Y-33380952D01*
X106576905Y-33190476D01*
X106624524Y-33095238D01*
X106719762Y-33000000D01*
X106862620Y-32952381D01*
X106957858Y-32952381D01*
X107100715Y-33000000D01*
X107148334Y-33047619D01*
X107624524Y-33952381D02*
X107815000Y-33952381D01*
X107910239Y-33904762D01*
X107957858Y-33857143D01*
X108053096Y-33714286D01*
X108100715Y-33523810D01*
X108100715Y-33142857D01*
X108053096Y-33047619D01*
X108005477Y-33000000D01*
X107910239Y-32952381D01*
X107719762Y-32952381D01*
X107624524Y-33000000D01*
X107576905Y-33047619D01*
X107529286Y-33142857D01*
X107529286Y-33380952D01*
X107576905Y-33476190D01*
X107624524Y-33523810D01*
X107719762Y-33571429D01*
X107910239Y-33571429D01*
X108005477Y-33523810D01*
X108053096Y-33476190D01*
X108100715Y-33380952D01*
X72158381Y-31408666D02*
X71682190Y-31742000D01*
X72158381Y-31980095D02*
X71158381Y-31980095D01*
X71158381Y-31599142D01*
X71206000Y-31503904D01*
X71253619Y-31456285D01*
X71348857Y-31408666D01*
X71491714Y-31408666D01*
X71586952Y-31456285D01*
X71634571Y-31503904D01*
X71682190Y-31599142D01*
X71682190Y-31980095D01*
X72158381Y-30456285D02*
X72158381Y-31027714D01*
X72158381Y-30742000D02*
X71158381Y-30742000D01*
X71301238Y-30837238D01*
X71396476Y-30932476D01*
X71444095Y-31027714D01*
X28597381Y-26741286D02*
X27597381Y-26741286D01*
X27597381Y-26503191D01*
X27645000Y-26360333D01*
X27740238Y-26265095D01*
X27835476Y-26217476D01*
X28025952Y-26169857D01*
X28168810Y-26169857D01*
X28359286Y-26217476D01*
X28454524Y-26265095D01*
X28549762Y-26360333D01*
X28597381Y-26503191D01*
X28597381Y-26741286D01*
X28597381Y-25217476D02*
X28597381Y-25788905D01*
X28597381Y-25503191D02*
X27597381Y-25503191D01*
X27740238Y-25598429D01*
X27835476Y-25693667D01*
X27883095Y-25788905D01*
X28597381Y-24265095D02*
X28597381Y-24836524D01*
X28597381Y-24550810D02*
X27597381Y-24550810D01*
X27740238Y-24646048D01*
X27835476Y-24741286D01*
X27883095Y-24836524D01*
X31237381Y-26741286D02*
X30237381Y-26741286D01*
X30237381Y-26503191D01*
X30285000Y-26360333D01*
X30380238Y-26265095D01*
X30475476Y-26217476D01*
X30665952Y-26169857D01*
X30808810Y-26169857D01*
X30999286Y-26217476D01*
X31094524Y-26265095D01*
X31189762Y-26360333D01*
X31237381Y-26503191D01*
X31237381Y-26741286D01*
X31237381Y-25217476D02*
X31237381Y-25788905D01*
X31237381Y-25503191D02*
X30237381Y-25503191D01*
X30380238Y-25598429D01*
X30475476Y-25693667D01*
X30523095Y-25788905D01*
X30332619Y-24836524D02*
X30285000Y-24788905D01*
X30237381Y-24693667D01*
X30237381Y-24455571D01*
X30285000Y-24360333D01*
X30332619Y-24312714D01*
X30427857Y-24265095D01*
X30523095Y-24265095D01*
X30665952Y-24312714D01*
X31237381Y-24884143D01*
X31237381Y-24265095D01*
X66797381Y-21280286D02*
X65797381Y-21280286D01*
X65797381Y-21042191D01*
X65845000Y-20899333D01*
X65940238Y-20804095D01*
X66035476Y-20756476D01*
X66225952Y-20708857D01*
X66368810Y-20708857D01*
X66559286Y-20756476D01*
X66654524Y-20804095D01*
X66749762Y-20899333D01*
X66797381Y-21042191D01*
X66797381Y-21280286D01*
X66797381Y-19756476D02*
X66797381Y-20327905D01*
X66797381Y-20042191D02*
X65797381Y-20042191D01*
X65940238Y-20137429D01*
X66035476Y-20232667D01*
X66083095Y-20327905D01*
X65797381Y-19423143D02*
X65797381Y-18804095D01*
X66178333Y-19137429D01*
X66178333Y-18994571D01*
X66225952Y-18899333D01*
X66273571Y-18851714D01*
X66368810Y-18804095D01*
X66606905Y-18804095D01*
X66702143Y-18851714D01*
X66749762Y-18899333D01*
X66797381Y-18994571D01*
X66797381Y-19280286D01*
X66749762Y-19375524D01*
X66702143Y-19423143D01*
X68956381Y-21280286D02*
X67956381Y-21280286D01*
X67956381Y-21042191D01*
X68004000Y-20899333D01*
X68099238Y-20804095D01*
X68194476Y-20756476D01*
X68384952Y-20708857D01*
X68527810Y-20708857D01*
X68718286Y-20756476D01*
X68813524Y-20804095D01*
X68908762Y-20899333D01*
X68956381Y-21042191D01*
X68956381Y-21280286D01*
X68956381Y-19756476D02*
X68956381Y-20327905D01*
X68956381Y-20042191D02*
X67956381Y-20042191D01*
X68099238Y-20137429D01*
X68194476Y-20232667D01*
X68242095Y-20327905D01*
X68289714Y-18899333D02*
X68956381Y-18899333D01*
X67908762Y-19137429D02*
X68623048Y-19375524D01*
X68623048Y-18756476D01*
X104897381Y-27249286D02*
X103897381Y-27249286D01*
X103897381Y-27011191D01*
X103945000Y-26868333D01*
X104040238Y-26773095D01*
X104135476Y-26725476D01*
X104325952Y-26677857D01*
X104468810Y-26677857D01*
X104659286Y-26725476D01*
X104754524Y-26773095D01*
X104849762Y-26868333D01*
X104897381Y-27011191D01*
X104897381Y-27249286D01*
X104897381Y-25725476D02*
X104897381Y-26296905D01*
X104897381Y-26011191D02*
X103897381Y-26011191D01*
X104040238Y-26106429D01*
X104135476Y-26201667D01*
X104183095Y-26296905D01*
X103897381Y-24820714D02*
X103897381Y-25296905D01*
X104373571Y-25344524D01*
X104325952Y-25296905D01*
X104278333Y-25201667D01*
X104278333Y-24963571D01*
X104325952Y-24868333D01*
X104373571Y-24820714D01*
X104468810Y-24773095D01*
X104706905Y-24773095D01*
X104802143Y-24820714D01*
X104849762Y-24868333D01*
X104897381Y-24963571D01*
X104897381Y-25201667D01*
X104849762Y-25296905D01*
X104802143Y-25344524D01*
X107437381Y-27249286D02*
X106437381Y-27249286D01*
X106437381Y-27011191D01*
X106485000Y-26868333D01*
X106580238Y-26773095D01*
X106675476Y-26725476D01*
X106865952Y-26677857D01*
X107008810Y-26677857D01*
X107199286Y-26725476D01*
X107294524Y-26773095D01*
X107389762Y-26868333D01*
X107437381Y-27011191D01*
X107437381Y-27249286D01*
X107437381Y-25725476D02*
X107437381Y-26296905D01*
X107437381Y-26011191D02*
X106437381Y-26011191D01*
X106580238Y-26106429D01*
X106675476Y-26201667D01*
X106723095Y-26296905D01*
X106437381Y-24868333D02*
X106437381Y-25058810D01*
X106485000Y-25154048D01*
X106532619Y-25201667D01*
X106675476Y-25296905D01*
X106865952Y-25344524D01*
X107246905Y-25344524D01*
X107342143Y-25296905D01*
X107389762Y-25249286D01*
X107437381Y-25154048D01*
X107437381Y-24963571D01*
X107389762Y-24868333D01*
X107342143Y-24820714D01*
X107246905Y-24773095D01*
X107008810Y-24773095D01*
X106913571Y-24820714D01*
X106865952Y-24868333D01*
X106818333Y-24963571D01*
X106818333Y-25154048D01*
X106865952Y-25249286D01*
X106913571Y-25296905D01*
X107008810Y-25344524D01*
X28697381Y-45664286D02*
X27697381Y-45664286D01*
X27697381Y-45426191D01*
X27745000Y-45283333D01*
X27840238Y-45188095D01*
X27935476Y-45140476D01*
X28125952Y-45092857D01*
X28268810Y-45092857D01*
X28459286Y-45140476D01*
X28554524Y-45188095D01*
X28649762Y-45283333D01*
X28697381Y-45426191D01*
X28697381Y-45664286D01*
X27792619Y-44711905D02*
X27745000Y-44664286D01*
X27697381Y-44569048D01*
X27697381Y-44330952D01*
X27745000Y-44235714D01*
X27792619Y-44188095D01*
X27887857Y-44140476D01*
X27983095Y-44140476D01*
X28125952Y-44188095D01*
X28697381Y-44759524D01*
X28697381Y-44140476D01*
X28697381Y-43188095D02*
X28697381Y-43759524D01*
X28697381Y-43473810D02*
X27697381Y-43473810D01*
X27840238Y-43569048D01*
X27935476Y-43664286D01*
X27983095Y-43759524D01*
X31237381Y-45664286D02*
X30237381Y-45664286D01*
X30237381Y-45426191D01*
X30285000Y-45283333D01*
X30380238Y-45188095D01*
X30475476Y-45140476D01*
X30665952Y-45092857D01*
X30808810Y-45092857D01*
X30999286Y-45140476D01*
X31094524Y-45188095D01*
X31189762Y-45283333D01*
X31237381Y-45426191D01*
X31237381Y-45664286D01*
X30332619Y-44711905D02*
X30285000Y-44664286D01*
X30237381Y-44569048D01*
X30237381Y-44330952D01*
X30285000Y-44235714D01*
X30332619Y-44188095D01*
X30427857Y-44140476D01*
X30523095Y-44140476D01*
X30665952Y-44188095D01*
X31237381Y-44759524D01*
X31237381Y-44140476D01*
X30332619Y-43759524D02*
X30285000Y-43711905D01*
X30237381Y-43616667D01*
X30237381Y-43378571D01*
X30285000Y-43283333D01*
X30332619Y-43235714D01*
X30427857Y-43188095D01*
X30523095Y-43188095D01*
X30665952Y-43235714D01*
X31237381Y-43807143D01*
X31237381Y-43188095D01*
X66924381Y-47950286D02*
X65924381Y-47950286D01*
X65924381Y-47712191D01*
X65972000Y-47569333D01*
X66067238Y-47474095D01*
X66162476Y-47426476D01*
X66352952Y-47378857D01*
X66495810Y-47378857D01*
X66686286Y-47426476D01*
X66781524Y-47474095D01*
X66876762Y-47569333D01*
X66924381Y-47712191D01*
X66924381Y-47950286D01*
X66019619Y-46997905D02*
X65972000Y-46950286D01*
X65924381Y-46855048D01*
X65924381Y-46616952D01*
X65972000Y-46521714D01*
X66019619Y-46474095D01*
X66114857Y-46426476D01*
X66210095Y-46426476D01*
X66352952Y-46474095D01*
X66924381Y-47045524D01*
X66924381Y-46426476D01*
X65924381Y-46093143D02*
X65924381Y-45474095D01*
X66305333Y-45807429D01*
X66305333Y-45664571D01*
X66352952Y-45569333D01*
X66400571Y-45521714D01*
X66495810Y-45474095D01*
X66733905Y-45474095D01*
X66829143Y-45521714D01*
X66876762Y-45569333D01*
X66924381Y-45664571D01*
X66924381Y-45950286D01*
X66876762Y-46045524D01*
X66829143Y-46093143D01*
X69464381Y-47950286D02*
X68464381Y-47950286D01*
X68464381Y-47712191D01*
X68512000Y-47569333D01*
X68607238Y-47474095D01*
X68702476Y-47426476D01*
X68892952Y-47378857D01*
X69035810Y-47378857D01*
X69226286Y-47426476D01*
X69321524Y-47474095D01*
X69416762Y-47569333D01*
X69464381Y-47712191D01*
X69464381Y-47950286D01*
X68559619Y-46997905D02*
X68512000Y-46950286D01*
X68464381Y-46855048D01*
X68464381Y-46616952D01*
X68512000Y-46521714D01*
X68559619Y-46474095D01*
X68654857Y-46426476D01*
X68750095Y-46426476D01*
X68892952Y-46474095D01*
X69464381Y-47045524D01*
X69464381Y-46426476D01*
X68797714Y-45569333D02*
X69464381Y-45569333D01*
X68416762Y-45807429D02*
X69131048Y-46045524D01*
X69131048Y-45426476D01*
X104897381Y-46299286D02*
X103897381Y-46299286D01*
X103897381Y-46061191D01*
X103945000Y-45918333D01*
X104040238Y-45823095D01*
X104135476Y-45775476D01*
X104325952Y-45727857D01*
X104468810Y-45727857D01*
X104659286Y-45775476D01*
X104754524Y-45823095D01*
X104849762Y-45918333D01*
X104897381Y-46061191D01*
X104897381Y-46299286D01*
X103992619Y-45346905D02*
X103945000Y-45299286D01*
X103897381Y-45204048D01*
X103897381Y-44965952D01*
X103945000Y-44870714D01*
X103992619Y-44823095D01*
X104087857Y-44775476D01*
X104183095Y-44775476D01*
X104325952Y-44823095D01*
X104897381Y-45394524D01*
X104897381Y-44775476D01*
X103897381Y-43870714D02*
X103897381Y-44346905D01*
X104373571Y-44394524D01*
X104325952Y-44346905D01*
X104278333Y-44251667D01*
X104278333Y-44013571D01*
X104325952Y-43918333D01*
X104373571Y-43870714D01*
X104468810Y-43823095D01*
X104706905Y-43823095D01*
X104802143Y-43870714D01*
X104849762Y-43918333D01*
X104897381Y-44013571D01*
X104897381Y-44251667D01*
X104849762Y-44346905D01*
X104802143Y-44394524D01*
X107437381Y-46299286D02*
X106437381Y-46299286D01*
X106437381Y-46061191D01*
X106485000Y-45918333D01*
X106580238Y-45823095D01*
X106675476Y-45775476D01*
X106865952Y-45727857D01*
X107008810Y-45727857D01*
X107199286Y-45775476D01*
X107294524Y-45823095D01*
X107389762Y-45918333D01*
X107437381Y-46061191D01*
X107437381Y-46299286D01*
X106532619Y-45346905D02*
X106485000Y-45299286D01*
X106437381Y-45204048D01*
X106437381Y-44965952D01*
X106485000Y-44870714D01*
X106532619Y-44823095D01*
X106627857Y-44775476D01*
X106723095Y-44775476D01*
X106865952Y-44823095D01*
X107437381Y-45394524D01*
X107437381Y-44775476D01*
X106437381Y-43918333D02*
X106437381Y-44108810D01*
X106485000Y-44204048D01*
X106532619Y-44251667D01*
X106675476Y-44346905D01*
X106865952Y-44394524D01*
X107246905Y-44394524D01*
X107342143Y-44346905D01*
X107389762Y-44299286D01*
X107437381Y-44204048D01*
X107437381Y-44013571D01*
X107389762Y-43918333D01*
X107342143Y-43870714D01*
X107246905Y-43823095D01*
X107008810Y-43823095D01*
X106913571Y-43870714D01*
X106865952Y-43918333D01*
X106818333Y-44013571D01*
X106818333Y-44204048D01*
X106865952Y-44299286D01*
X106913571Y-44346905D01*
X107008810Y-44394524D01*
X28697381Y-64714286D02*
X27697381Y-64714286D01*
X27697381Y-64476191D01*
X27745000Y-64333333D01*
X27840238Y-64238095D01*
X27935476Y-64190476D01*
X28125952Y-64142857D01*
X28268810Y-64142857D01*
X28459286Y-64190476D01*
X28554524Y-64238095D01*
X28649762Y-64333333D01*
X28697381Y-64476191D01*
X28697381Y-64714286D01*
X27697381Y-63809524D02*
X27697381Y-63190476D01*
X28078333Y-63523810D01*
X28078333Y-63380952D01*
X28125952Y-63285714D01*
X28173571Y-63238095D01*
X28268810Y-63190476D01*
X28506905Y-63190476D01*
X28602143Y-63238095D01*
X28649762Y-63285714D01*
X28697381Y-63380952D01*
X28697381Y-63666667D01*
X28649762Y-63761905D01*
X28602143Y-63809524D01*
X28697381Y-62238095D02*
X28697381Y-62809524D01*
X28697381Y-62523810D02*
X27697381Y-62523810D01*
X27840238Y-62619048D01*
X27935476Y-62714286D01*
X27983095Y-62809524D01*
X31364381Y-64714286D02*
X30364381Y-64714286D01*
X30364381Y-64476191D01*
X30412000Y-64333333D01*
X30507238Y-64238095D01*
X30602476Y-64190476D01*
X30792952Y-64142857D01*
X30935810Y-64142857D01*
X31126286Y-64190476D01*
X31221524Y-64238095D01*
X31316762Y-64333333D01*
X31364381Y-64476191D01*
X31364381Y-64714286D01*
X30364381Y-63809524D02*
X30364381Y-63190476D01*
X30745333Y-63523810D01*
X30745333Y-63380952D01*
X30792952Y-63285714D01*
X30840571Y-63238095D01*
X30935810Y-63190476D01*
X31173905Y-63190476D01*
X31269143Y-63238095D01*
X31316762Y-63285714D01*
X31364381Y-63380952D01*
X31364381Y-63666667D01*
X31316762Y-63761905D01*
X31269143Y-63809524D01*
X30459619Y-62809524D02*
X30412000Y-62761905D01*
X30364381Y-62666667D01*
X30364381Y-62428571D01*
X30412000Y-62333333D01*
X30459619Y-62285714D01*
X30554857Y-62238095D01*
X30650095Y-62238095D01*
X30792952Y-62285714D01*
X31364381Y-62857143D01*
X31364381Y-62238095D01*
X66670381Y-64714286D02*
X65670381Y-64714286D01*
X65670381Y-64476191D01*
X65718000Y-64333333D01*
X65813238Y-64238095D01*
X65908476Y-64190476D01*
X66098952Y-64142857D01*
X66241810Y-64142857D01*
X66432286Y-64190476D01*
X66527524Y-64238095D01*
X66622762Y-64333333D01*
X66670381Y-64476191D01*
X66670381Y-64714286D01*
X65670381Y-63809524D02*
X65670381Y-63190476D01*
X66051333Y-63523810D01*
X66051333Y-63380952D01*
X66098952Y-63285714D01*
X66146571Y-63238095D01*
X66241810Y-63190476D01*
X66479905Y-63190476D01*
X66575143Y-63238095D01*
X66622762Y-63285714D01*
X66670381Y-63380952D01*
X66670381Y-63666667D01*
X66622762Y-63761905D01*
X66575143Y-63809524D01*
X65670381Y-62857143D02*
X65670381Y-62238095D01*
X66051333Y-62571429D01*
X66051333Y-62428571D01*
X66098952Y-62333333D01*
X66146571Y-62285714D01*
X66241810Y-62238095D01*
X66479905Y-62238095D01*
X66575143Y-62285714D01*
X66622762Y-62333333D01*
X66670381Y-62428571D01*
X66670381Y-62714286D01*
X66622762Y-62809524D01*
X66575143Y-62857143D01*
X69337381Y-64714286D02*
X68337381Y-64714286D01*
X68337381Y-64476191D01*
X68385000Y-64333333D01*
X68480238Y-64238095D01*
X68575476Y-64190476D01*
X68765952Y-64142857D01*
X68908810Y-64142857D01*
X69099286Y-64190476D01*
X69194524Y-64238095D01*
X69289762Y-64333333D01*
X69337381Y-64476191D01*
X69337381Y-64714286D01*
X68337381Y-63809524D02*
X68337381Y-63190476D01*
X68718333Y-63523810D01*
X68718333Y-63380952D01*
X68765952Y-63285714D01*
X68813571Y-63238095D01*
X68908810Y-63190476D01*
X69146905Y-63190476D01*
X69242143Y-63238095D01*
X69289762Y-63285714D01*
X69337381Y-63380952D01*
X69337381Y-63666667D01*
X69289762Y-63761905D01*
X69242143Y-63809524D01*
X68670714Y-62333333D02*
X69337381Y-62333333D01*
X68289762Y-62571429D02*
X69004048Y-62809524D01*
X69004048Y-62190476D01*
X104897381Y-64968286D02*
X103897381Y-64968286D01*
X103897381Y-64730191D01*
X103945000Y-64587333D01*
X104040238Y-64492095D01*
X104135476Y-64444476D01*
X104325952Y-64396857D01*
X104468810Y-64396857D01*
X104659286Y-64444476D01*
X104754524Y-64492095D01*
X104849762Y-64587333D01*
X104897381Y-64730191D01*
X104897381Y-64968286D01*
X103897381Y-64063524D02*
X103897381Y-63444476D01*
X104278333Y-63777810D01*
X104278333Y-63634952D01*
X104325952Y-63539714D01*
X104373571Y-63492095D01*
X104468810Y-63444476D01*
X104706905Y-63444476D01*
X104802143Y-63492095D01*
X104849762Y-63539714D01*
X104897381Y-63634952D01*
X104897381Y-63920667D01*
X104849762Y-64015905D01*
X104802143Y-64063524D01*
X103897381Y-62539714D02*
X103897381Y-63015905D01*
X104373571Y-63063524D01*
X104325952Y-63015905D01*
X104278333Y-62920667D01*
X104278333Y-62682571D01*
X104325952Y-62587333D01*
X104373571Y-62539714D01*
X104468810Y-62492095D01*
X104706905Y-62492095D01*
X104802143Y-62539714D01*
X104849762Y-62587333D01*
X104897381Y-62682571D01*
X104897381Y-62920667D01*
X104849762Y-63015905D01*
X104802143Y-63063524D01*
X107564381Y-64968286D02*
X106564381Y-64968286D01*
X106564381Y-64730191D01*
X106612000Y-64587333D01*
X106707238Y-64492095D01*
X106802476Y-64444476D01*
X106992952Y-64396857D01*
X107135810Y-64396857D01*
X107326286Y-64444476D01*
X107421524Y-64492095D01*
X107516762Y-64587333D01*
X107564381Y-64730191D01*
X107564381Y-64968286D01*
X106564381Y-64063524D02*
X106564381Y-63444476D01*
X106945333Y-63777810D01*
X106945333Y-63634952D01*
X106992952Y-63539714D01*
X107040571Y-63492095D01*
X107135810Y-63444476D01*
X107373905Y-63444476D01*
X107469143Y-63492095D01*
X107516762Y-63539714D01*
X107564381Y-63634952D01*
X107564381Y-63920667D01*
X107516762Y-64015905D01*
X107469143Y-64063524D01*
X106564381Y-62587333D02*
X106564381Y-62777810D01*
X106612000Y-62873048D01*
X106659619Y-62920667D01*
X106802476Y-63015905D01*
X106992952Y-63063524D01*
X107373905Y-63063524D01*
X107469143Y-63015905D01*
X107516762Y-62968286D01*
X107564381Y-62873048D01*
X107564381Y-62682571D01*
X107516762Y-62587333D01*
X107469143Y-62539714D01*
X107373905Y-62492095D01*
X107135810Y-62492095D01*
X107040571Y-62539714D01*
X106992952Y-62587333D01*
X106945333Y-62682571D01*
X106945333Y-62873048D01*
X106992952Y-62968286D01*
X107040571Y-63015905D01*
X107135810Y-63063524D01*
X28824381Y-83764286D02*
X27824381Y-83764286D01*
X27824381Y-83526191D01*
X27872000Y-83383333D01*
X27967238Y-83288095D01*
X28062476Y-83240476D01*
X28252952Y-83192857D01*
X28395810Y-83192857D01*
X28586286Y-83240476D01*
X28681524Y-83288095D01*
X28776762Y-83383333D01*
X28824381Y-83526191D01*
X28824381Y-83764286D01*
X28157714Y-82335714D02*
X28824381Y-82335714D01*
X27776762Y-82573810D02*
X28491048Y-82811905D01*
X28491048Y-82192857D01*
X28824381Y-81288095D02*
X28824381Y-81859524D01*
X28824381Y-81573810D02*
X27824381Y-81573810D01*
X27967238Y-81669048D01*
X28062476Y-81764286D01*
X28110095Y-81859524D01*
X31237381Y-83764286D02*
X30237381Y-83764286D01*
X30237381Y-83526191D01*
X30285000Y-83383333D01*
X30380238Y-83288095D01*
X30475476Y-83240476D01*
X30665952Y-83192857D01*
X30808810Y-83192857D01*
X30999286Y-83240476D01*
X31094524Y-83288095D01*
X31189762Y-83383333D01*
X31237381Y-83526191D01*
X31237381Y-83764286D01*
X30570714Y-82335714D02*
X31237381Y-82335714D01*
X30189762Y-82573810D02*
X30904048Y-82811905D01*
X30904048Y-82192857D01*
X30332619Y-81859524D02*
X30285000Y-81811905D01*
X30237381Y-81716667D01*
X30237381Y-81478571D01*
X30285000Y-81383333D01*
X30332619Y-81335714D01*
X30427857Y-81288095D01*
X30523095Y-81288095D01*
X30665952Y-81335714D01*
X31237381Y-81907143D01*
X31237381Y-81288095D01*
X66416381Y-83764286D02*
X65416381Y-83764286D01*
X65416381Y-83526191D01*
X65464000Y-83383333D01*
X65559238Y-83288095D01*
X65654476Y-83240476D01*
X65844952Y-83192857D01*
X65987810Y-83192857D01*
X66178286Y-83240476D01*
X66273524Y-83288095D01*
X66368762Y-83383333D01*
X66416381Y-83526191D01*
X66416381Y-83764286D01*
X65749714Y-82335714D02*
X66416381Y-82335714D01*
X65368762Y-82573810D02*
X66083048Y-82811905D01*
X66083048Y-82192857D01*
X65416381Y-81907143D02*
X65416381Y-81288095D01*
X65797333Y-81621429D01*
X65797333Y-81478571D01*
X65844952Y-81383333D01*
X65892571Y-81335714D01*
X65987810Y-81288095D01*
X66225905Y-81288095D01*
X66321143Y-81335714D01*
X66368762Y-81383333D01*
X66416381Y-81478571D01*
X66416381Y-81764286D01*
X66368762Y-81859524D01*
X66321143Y-81907143D01*
X69210381Y-83764286D02*
X68210381Y-83764286D01*
X68210381Y-83526191D01*
X68258000Y-83383333D01*
X68353238Y-83288095D01*
X68448476Y-83240476D01*
X68638952Y-83192857D01*
X68781810Y-83192857D01*
X68972286Y-83240476D01*
X69067524Y-83288095D01*
X69162762Y-83383333D01*
X69210381Y-83526191D01*
X69210381Y-83764286D01*
X68543714Y-82335714D02*
X69210381Y-82335714D01*
X68162762Y-82573810D02*
X68877048Y-82811905D01*
X68877048Y-82192857D01*
X68543714Y-81383333D02*
X69210381Y-81383333D01*
X68162762Y-81621429D02*
X68877048Y-81859524D01*
X68877048Y-81240476D01*
X104897381Y-83891286D02*
X103897381Y-83891286D01*
X103897381Y-83653191D01*
X103945000Y-83510333D01*
X104040238Y-83415095D01*
X104135476Y-83367476D01*
X104325952Y-83319857D01*
X104468810Y-83319857D01*
X104659286Y-83367476D01*
X104754524Y-83415095D01*
X104849762Y-83510333D01*
X104897381Y-83653191D01*
X104897381Y-83891286D01*
X104230714Y-82462714D02*
X104897381Y-82462714D01*
X103849762Y-82700810D02*
X104564048Y-82938905D01*
X104564048Y-82319857D01*
X103897381Y-81462714D02*
X103897381Y-81938905D01*
X104373571Y-81986524D01*
X104325952Y-81938905D01*
X104278333Y-81843667D01*
X104278333Y-81605571D01*
X104325952Y-81510333D01*
X104373571Y-81462714D01*
X104468810Y-81415095D01*
X104706905Y-81415095D01*
X104802143Y-81462714D01*
X104849762Y-81510333D01*
X104897381Y-81605571D01*
X104897381Y-81843667D01*
X104849762Y-81938905D01*
X104802143Y-81986524D01*
X107310381Y-83891286D02*
X106310381Y-83891286D01*
X106310381Y-83653191D01*
X106358000Y-83510333D01*
X106453238Y-83415095D01*
X106548476Y-83367476D01*
X106738952Y-83319857D01*
X106881810Y-83319857D01*
X107072286Y-83367476D01*
X107167524Y-83415095D01*
X107262762Y-83510333D01*
X107310381Y-83653191D01*
X107310381Y-83891286D01*
X106643714Y-82462714D02*
X107310381Y-82462714D01*
X106262762Y-82700810D02*
X106977048Y-82938905D01*
X106977048Y-82319857D01*
X106310381Y-81510333D02*
X106310381Y-81700810D01*
X106358000Y-81796048D01*
X106405619Y-81843667D01*
X106548476Y-81938905D01*
X106738952Y-81986524D01*
X107119905Y-81986524D01*
X107215143Y-81938905D01*
X107262762Y-81891286D01*
X107310381Y-81796048D01*
X107310381Y-81605571D01*
X107262762Y-81510333D01*
X107215143Y-81462714D01*
X107119905Y-81415095D01*
X106881810Y-81415095D01*
X106786571Y-81462714D01*
X106738952Y-81510333D01*
X106691333Y-81605571D01*
X106691333Y-81796048D01*
X106738952Y-81891286D01*
X106786571Y-81938905D01*
X106881810Y-81986524D01*
M02*
