G04 #@! TF.FileFunction,Copper,L2,Bot,Signal*
%FSLAX46Y46*%
G04 Gerber Fmt 4.6, Leading zero omitted, Abs format (unit mm)*
G04 Created by KiCad (PCBNEW 4.0.7) date 07/05/18 13:02:46*
%MOMM*%
%LPD*%
G01*
G04 APERTURE LIST*
%ADD10C,0.100000*%
%ADD11C,1.524000*%
%ADD12C,2.500000*%
%ADD13R,2.000000X1.100000*%
%ADD14R,1.100000X2.000000*%
%ADD15R,2.000000X3.800000*%
%ADD16R,2.000000X1.500000*%
%ADD17R,1.500000X1.250000*%
%ADD18C,0.600000*%
%ADD19C,0.250000*%
%ADD20C,0.254000*%
G04 APERTURE END LIST*
D10*
D11*
X88623000Y-11828000D03*
X101623000Y-11828000D03*
X101623000Y-29828000D03*
X88623000Y-29828000D03*
D12*
X56690453Y-36640046D02*
X55879547Y-38099954D01*
X62229724Y-35560672D02*
X62190276Y-36139328D01*
X37640453Y-17590046D02*
X36829547Y-19049954D01*
X43179724Y-16510672D02*
X43140276Y-17089328D01*
X18590453Y-17590046D02*
X17779547Y-19049954D01*
X24129724Y-16510672D02*
X24090276Y-17089328D01*
X56690453Y-17590046D02*
X55879547Y-19049954D01*
X62229724Y-16510672D02*
X62190276Y-17089328D01*
X75740453Y-17590046D02*
X74929547Y-19049954D01*
X81279724Y-16510672D02*
X81240276Y-17089328D01*
X94790453Y-17590046D02*
X93979547Y-19049954D01*
X100329724Y-16510672D02*
X100290276Y-17089328D01*
X113840453Y-17590046D02*
X113029547Y-19049954D01*
X119379724Y-16510672D02*
X119340276Y-17089328D01*
X18590453Y-36640046D02*
X17779547Y-38099954D01*
X24129724Y-35560672D02*
X24090276Y-36139328D01*
X37640453Y-36640046D02*
X36829547Y-38099954D01*
X43179724Y-35560672D02*
X43140276Y-36139328D01*
X75740453Y-36640046D02*
X74929547Y-38099954D01*
X81279724Y-35560672D02*
X81240276Y-36139328D01*
X94790453Y-36640046D02*
X93979547Y-38099954D01*
X100329724Y-35560672D02*
X100290276Y-36139328D01*
X113840453Y-36640046D02*
X113029547Y-38099954D01*
X119379724Y-35560672D02*
X119340276Y-36139328D01*
X18590453Y-55690046D02*
X17779547Y-57149954D01*
X24129724Y-54610672D02*
X24090276Y-55189328D01*
X37640453Y-55690046D02*
X36829547Y-57149954D01*
X43179724Y-54610672D02*
X43140276Y-55189328D01*
X56690453Y-55690046D02*
X55879547Y-57149954D01*
X62229724Y-54610672D02*
X62190276Y-55189328D01*
X75740453Y-55690046D02*
X74929547Y-57149954D01*
X81279724Y-54610672D02*
X81240276Y-55189328D01*
X94790453Y-55690046D02*
X93979547Y-57149954D01*
X100329724Y-54610672D02*
X100290276Y-55189328D01*
X113840453Y-55690046D02*
X113029547Y-57149954D01*
X119379724Y-54610672D02*
X119340276Y-55189328D01*
X18590453Y-74740046D02*
X17779547Y-76199954D01*
X24129724Y-73660672D02*
X24090276Y-74239328D01*
X37640453Y-74740046D02*
X36829547Y-76199954D01*
X43179724Y-73660672D02*
X43140276Y-74239328D01*
X56690453Y-74740046D02*
X55879547Y-76199954D01*
X62229724Y-73660672D02*
X62190276Y-74239328D01*
X75740453Y-74740046D02*
X74929547Y-76199954D01*
X81279724Y-73660672D02*
X81240276Y-74239328D01*
X94790453Y-74740046D02*
X93979547Y-76199954D01*
X100329724Y-73660672D02*
X100290276Y-74239328D01*
X113840453Y-74740046D02*
X113029547Y-76199954D01*
X119379724Y-73660672D02*
X119340276Y-74239328D01*
D13*
X109715000Y-30050000D03*
X109715000Y-33450000D03*
X104915000Y-33450000D03*
X104915000Y-30050000D03*
D14*
X109015000Y-52565000D03*
X105615000Y-52565000D03*
X105615000Y-47765000D03*
X109015000Y-47765000D03*
D13*
X28715000Y-51865000D03*
X28715000Y-48465000D03*
X33515000Y-48465000D03*
X33515000Y-51865000D03*
X28715000Y-70915000D03*
X28715000Y-67515000D03*
X33515000Y-67515000D03*
X33515000Y-70915000D03*
X47765000Y-70915000D03*
X47765000Y-67515000D03*
X52565000Y-67515000D03*
X52565000Y-70915000D03*
X66815000Y-70915000D03*
X66815000Y-67515000D03*
X71615000Y-67515000D03*
X71615000Y-70915000D03*
X85865000Y-70915000D03*
X85865000Y-67515000D03*
X90665000Y-67515000D03*
X90665000Y-70915000D03*
D14*
X109015000Y-71615000D03*
X105615000Y-71615000D03*
X105615000Y-66815000D03*
X109015000Y-66815000D03*
D15*
X77876000Y-29210000D03*
D16*
X84176000Y-29210000D03*
X84176000Y-31510000D03*
X84176000Y-26910000D03*
D17*
X29738000Y-26670000D03*
X32238000Y-26670000D03*
D13*
X28715000Y-32815000D03*
X28715000Y-29415000D03*
X33515000Y-29415000D03*
X33515000Y-32815000D03*
D11*
X70690000Y-25571000D03*
X68690000Y-25571000D03*
X70690000Y-27571000D03*
X68690000Y-27571000D03*
X70690000Y-29571000D03*
X68690000Y-29571000D03*
X70690000Y-31571000D03*
X68690000Y-31571000D03*
X70690000Y-33571000D03*
X68690000Y-33571000D03*
X70690000Y-35571000D03*
X68690000Y-35571000D03*
X70690000Y-37571000D03*
X68690000Y-37571000D03*
X70690000Y-39571000D03*
X68690000Y-39571000D03*
X70690000Y-41571000D03*
X68690000Y-41571000D03*
X48690000Y-25571000D03*
X50690000Y-27571000D03*
X48690000Y-27571000D03*
X50690000Y-29571000D03*
X48690000Y-29571000D03*
X50690000Y-31571000D03*
X48690000Y-31571000D03*
X50690000Y-33571000D03*
X48690000Y-33571000D03*
X50690000Y-35571000D03*
X48690000Y-35571000D03*
X50690000Y-37571000D03*
X48690000Y-37571000D03*
X50690000Y-39571000D03*
X48690000Y-39571000D03*
X50690000Y-41571000D03*
X48690000Y-41571000D03*
X50690000Y-25571000D03*
D18*
X76454000Y-33528000D03*
X100838000Y-70612000D03*
X109015000Y-71615000D03*
X109220000Y-52578000D03*
X86868000Y-69088000D03*
X80264000Y-67818000D03*
X61214000Y-67818000D03*
X67818000Y-69342000D03*
X42418000Y-67818000D03*
X109728000Y-29972000D03*
X84074000Y-29210000D03*
X48641000Y-69215000D03*
X29591000Y-69088000D03*
X29591000Y-50165000D03*
X68072000Y-45686000D03*
X85852000Y-32258000D03*
X33515000Y-70915000D03*
X47752000Y-67564000D03*
X52565000Y-70915000D03*
X66802000Y-67564000D03*
X71615000Y-70915000D03*
X85852000Y-67564000D03*
X105615000Y-71615000D03*
X90932000Y-70866000D03*
X50690000Y-35571000D03*
X52578000Y-64516000D03*
X47802800Y-83600000D03*
X76454000Y-43434000D03*
X94488000Y-29718000D03*
X73914000Y-49022000D03*
X111506000Y-50038000D03*
D19*
X77876000Y-32106000D02*
X77876000Y-29210000D01*
X76454000Y-33528000D02*
X77876000Y-32106000D01*
X84176000Y-29210000D02*
X77876000Y-29210000D01*
X109015000Y-52565000D02*
X109015000Y-51259000D01*
X112522000Y-32857000D02*
X109715000Y-30050000D01*
X112522000Y-34798000D02*
X112522000Y-32857000D01*
X110236000Y-37084000D02*
X112522000Y-34798000D01*
X110236000Y-50038000D02*
X110236000Y-37084000D01*
X109015000Y-51259000D02*
X110236000Y-50038000D01*
X106462000Y-74168000D02*
X109015000Y-71615000D01*
X104394000Y-74168000D02*
X106462000Y-74168000D01*
X100838000Y-70612000D02*
X104394000Y-74168000D01*
X109015000Y-71615000D02*
X109015000Y-71325000D01*
X109015000Y-71325000D02*
X110236000Y-70104000D01*
X110236000Y-53786000D02*
X109015000Y-52565000D01*
X110236000Y-70104000D02*
X110236000Y-53786000D01*
X109220000Y-52578000D02*
X109207000Y-52565000D01*
X109207000Y-52565000D02*
X109015000Y-52565000D01*
X85865000Y-70915000D02*
X85865000Y-70091000D01*
X85865000Y-70091000D02*
X86868000Y-69088000D01*
X83361000Y-70915000D02*
X85865000Y-70915000D01*
X80264000Y-67818000D02*
X83361000Y-70915000D01*
X64311000Y-70915000D02*
X66815000Y-70915000D01*
X61214000Y-67818000D02*
X64311000Y-70915000D01*
X66815000Y-70915000D02*
X67818000Y-69912000D01*
X67818000Y-69912000D02*
X67818000Y-69342000D01*
X45515000Y-70915000D02*
X47765000Y-70915000D01*
X42418000Y-67818000D02*
X45515000Y-70915000D01*
X28715000Y-51865000D02*
X28715000Y-54851000D01*
X24384000Y-66584000D02*
X28715000Y-70915000D01*
X24384000Y-59182000D02*
X24384000Y-66584000D01*
X28715000Y-54851000D02*
X24384000Y-59182000D01*
X28715000Y-51865000D02*
X28715000Y-51575000D01*
X28715000Y-51575000D02*
X24638000Y-47498000D01*
X28715000Y-35547000D02*
X28715000Y-32815000D01*
X24638000Y-39624000D02*
X28715000Y-35547000D01*
X24638000Y-47498000D02*
X24638000Y-39624000D01*
X29738000Y-26670000D02*
X27178000Y-26670000D01*
X26416000Y-30516000D02*
X28715000Y-32815000D01*
X26416000Y-27432000D02*
X26416000Y-30516000D01*
X27178000Y-26670000D02*
X26416000Y-27432000D01*
X109728000Y-29972000D02*
X109715000Y-29985000D01*
X109715000Y-29985000D02*
X109715000Y-30050000D01*
X84074000Y-29210000D02*
X84176000Y-29210000D01*
X47765000Y-70915000D02*
X47765000Y-70091000D01*
X47765000Y-70091000D02*
X48641000Y-69215000D01*
X28715000Y-70915000D02*
X28715000Y-69964000D01*
X28715000Y-69964000D02*
X29591000Y-69088000D01*
X28715000Y-51865000D02*
X28715000Y-51041000D01*
X28715000Y-51041000D02*
X29591000Y-50165000D01*
X62210000Y-35850000D02*
X66802000Y-40442000D01*
X66802000Y-44416000D02*
X66802000Y-40442000D01*
X66802000Y-44416000D02*
X68072000Y-45686000D01*
X109015000Y-47765000D02*
X109015000Y-34150000D01*
X109015000Y-34150000D02*
X109715000Y-33450000D01*
X102961000Y-32004000D02*
X104915000Y-30050000D01*
X86106000Y-32004000D02*
X102961000Y-32004000D01*
X85852000Y-32258000D02*
X86106000Y-32004000D01*
X109015000Y-66815000D02*
X109015000Y-60247000D01*
X105615000Y-56847000D02*
X105615000Y-52565000D01*
X109015000Y-60247000D02*
X105615000Y-56847000D01*
X28715000Y-48465000D02*
X28715000Y-37615000D01*
X28715000Y-37615000D02*
X33515000Y-32815000D01*
X28715000Y-67515000D02*
X28715000Y-56665000D01*
X28715000Y-56665000D02*
X33515000Y-51865000D01*
X47765000Y-67551000D02*
X47752000Y-67564000D01*
X47765000Y-67551000D02*
X47765000Y-67515000D01*
X66815000Y-67551000D02*
X66802000Y-67564000D01*
X66815000Y-67551000D02*
X66815000Y-67515000D01*
X85865000Y-67551000D02*
X85852000Y-67564000D01*
X85865000Y-67551000D02*
X85865000Y-67515000D01*
X90883000Y-70915000D02*
X90932000Y-70866000D01*
X90883000Y-70915000D02*
X90665000Y-70915000D01*
X84176000Y-31510000D02*
X99941000Y-31510000D01*
X99941000Y-31510000D02*
X101623000Y-29828000D01*
X48690000Y-41571000D02*
X48690000Y-60628000D01*
X48690000Y-60628000D02*
X52578000Y-64516000D01*
X50690000Y-60596000D02*
X54864000Y-64770000D01*
X54864000Y-64770000D02*
X54864000Y-73914000D01*
X54864000Y-73914000D02*
X50292000Y-78486000D01*
X50292000Y-78486000D02*
X50292000Y-81026000D01*
X50292000Y-81026000D02*
X47752000Y-83566000D01*
X50690000Y-41571000D02*
X50690000Y-60596000D01*
X47768800Y-83566000D02*
X47752000Y-83566000D01*
X47768800Y-83566000D02*
X47802800Y-83600000D01*
X50690000Y-33571000D02*
X52486000Y-33571000D01*
X52486000Y-33571000D02*
X56285000Y-37370000D01*
X56285000Y-75470000D02*
X56285000Y-56420000D01*
X56285000Y-56420000D02*
X56285000Y-37370000D01*
X56285000Y-37370000D02*
X56285000Y-18320000D01*
X75335000Y-18320000D02*
X75335000Y-37370000D01*
X75335000Y-37370000D02*
X75335000Y-56420000D01*
X75335000Y-56420000D02*
X75335000Y-75470000D01*
X48690000Y-35571000D02*
X47001000Y-35571000D01*
X37338000Y-25654000D02*
X37235000Y-25654000D01*
X37235000Y-25757000D02*
X37338000Y-25654000D01*
X37235000Y-25805000D02*
X37235000Y-25757000D01*
X47001000Y-35571000D02*
X37235000Y-25805000D01*
X37235000Y-18320000D02*
X37235000Y-25654000D01*
X37235000Y-25654000D02*
X37235000Y-37370000D01*
X37235000Y-37370000D02*
X37235000Y-56420000D01*
X37235000Y-56420000D02*
X37235000Y-75470000D01*
X94385000Y-37370000D02*
X90392000Y-37370000D01*
X84328000Y-43434000D02*
X76454000Y-43434000D01*
X90392000Y-37370000D02*
X84328000Y-43434000D01*
X94385000Y-29615000D02*
X94385000Y-18320000D01*
X94488000Y-29718000D02*
X94385000Y-29615000D01*
X94385000Y-75470000D02*
X94385000Y-56420000D01*
X94385000Y-56420000D02*
X94385000Y-37370000D01*
X113435000Y-44704000D02*
X113435000Y-48109000D01*
X72390000Y-45271000D02*
X68690000Y-41571000D01*
X72390000Y-47498000D02*
X72390000Y-45271000D01*
X73914000Y-49022000D02*
X72390000Y-47498000D01*
X113435000Y-48109000D02*
X111506000Y-50038000D01*
X113435000Y-18320000D02*
X113435000Y-37370000D01*
X113435000Y-37370000D02*
X113435000Y-44704000D01*
X113435000Y-44704000D02*
X113435000Y-56420000D01*
X113435000Y-56420000D02*
X113435000Y-75470000D01*
D20*
G36*
X128143402Y-90043000D02*
X10033000Y-90043000D01*
X10033000Y-79034267D01*
X15023842Y-79034267D01*
X15249580Y-79580595D01*
X15667206Y-79998951D01*
X16213139Y-80225642D01*
X16804267Y-80226158D01*
X17350595Y-80000420D01*
X17768951Y-79582794D01*
X17902726Y-79260626D01*
X18960645Y-79260626D01*
X19360028Y-80227207D01*
X20098904Y-80967373D01*
X21064785Y-81368442D01*
X22110626Y-81369355D01*
X23077207Y-80969972D01*
X23817373Y-80231096D01*
X24218442Y-79265215D01*
X24218643Y-79034267D01*
X25183842Y-79034267D01*
X25409580Y-79580595D01*
X25827206Y-79998951D01*
X26373139Y-80225642D01*
X26964267Y-80226158D01*
X27510595Y-80000420D01*
X27928951Y-79582794D01*
X28155642Y-79036861D01*
X28156158Y-78445733D01*
X27930420Y-77899405D01*
X27512794Y-77481049D01*
X26966861Y-77254358D01*
X26375733Y-77253842D01*
X25829405Y-77479580D01*
X25411049Y-77897206D01*
X25184358Y-78443139D01*
X25183842Y-79034267D01*
X24218643Y-79034267D01*
X24219355Y-78219374D01*
X23819972Y-77252793D01*
X23081096Y-76512627D01*
X22115215Y-76111558D01*
X21069374Y-76110645D01*
X20102793Y-76510028D01*
X19362627Y-77248904D01*
X18961558Y-78214785D01*
X18960645Y-79260626D01*
X17902726Y-79260626D01*
X17995642Y-79036861D01*
X17996158Y-78445733D01*
X17850652Y-78093582D01*
X18271667Y-78058968D01*
X18925825Y-77722777D01*
X19401532Y-77161842D01*
X20264188Y-75608766D01*
X20489024Y-74908484D01*
X20428758Y-74175467D01*
X20417536Y-74153630D01*
X22206742Y-74153630D01*
X22300833Y-74883077D01*
X22666909Y-75520992D01*
X23249238Y-75970257D01*
X23959166Y-76162476D01*
X24688613Y-76068385D01*
X25326528Y-75702309D01*
X25775793Y-75119980D01*
X25968012Y-74410052D01*
X26013258Y-73746369D01*
X25919167Y-73016922D01*
X25553091Y-72379008D01*
X24970762Y-71929743D01*
X24260834Y-71737524D01*
X23531387Y-71831614D01*
X22893472Y-72197691D01*
X22444207Y-72780020D01*
X22251988Y-73489948D01*
X22206742Y-74153630D01*
X20417536Y-74153630D01*
X20092567Y-73521309D01*
X19531632Y-73045602D01*
X18831350Y-72820766D01*
X18098332Y-72881032D01*
X17444175Y-73217223D01*
X16968467Y-73778158D01*
X16105812Y-75331234D01*
X15880976Y-76031516D01*
X15941242Y-76764533D01*
X16196744Y-77261688D01*
X15669405Y-77479580D01*
X15251049Y-77897206D01*
X15024358Y-78443139D01*
X15023842Y-79034267D01*
X10033000Y-79034267D01*
X10033000Y-59984267D01*
X15023842Y-59984267D01*
X15249580Y-60530595D01*
X15667206Y-60948951D01*
X16213139Y-61175642D01*
X16804267Y-61176158D01*
X17350595Y-60950420D01*
X17768951Y-60532794D01*
X17995642Y-59986861D01*
X17996158Y-59395733D01*
X17850652Y-59043582D01*
X18271667Y-59008968D01*
X18925825Y-58672777D01*
X19401532Y-58111842D01*
X20264188Y-56558766D01*
X20489024Y-55858484D01*
X20428758Y-55125467D01*
X20417536Y-55103630D01*
X22206742Y-55103630D01*
X22300833Y-55833077D01*
X22666909Y-56470992D01*
X23249238Y-56920257D01*
X23959166Y-57112476D01*
X24688613Y-57018385D01*
X25326528Y-56652309D01*
X25775793Y-56069980D01*
X25968012Y-55360052D01*
X26013258Y-54696369D01*
X25919167Y-53966922D01*
X25553091Y-53329008D01*
X24970762Y-52879743D01*
X24260834Y-52687524D01*
X23531387Y-52781614D01*
X22893472Y-53147691D01*
X22444207Y-53730020D01*
X22251988Y-54439948D01*
X22206742Y-55103630D01*
X20417536Y-55103630D01*
X20092567Y-54471309D01*
X19531632Y-53995602D01*
X18831350Y-53770766D01*
X18098332Y-53831032D01*
X17444175Y-54167223D01*
X16968467Y-54728158D01*
X16105812Y-56281234D01*
X15880976Y-56981516D01*
X15941242Y-57714533D01*
X16196744Y-58211688D01*
X15669405Y-58429580D01*
X15251049Y-58847206D01*
X15024358Y-59393139D01*
X15023842Y-59984267D01*
X10033000Y-59984267D01*
X10033000Y-40934267D01*
X15023842Y-40934267D01*
X15249580Y-41480595D01*
X15667206Y-41898951D01*
X16213139Y-42125642D01*
X16804267Y-42126158D01*
X17350595Y-41900420D01*
X17768951Y-41482794D01*
X17902726Y-41160626D01*
X18960645Y-41160626D01*
X19360028Y-42127207D01*
X20098904Y-42867373D01*
X21064785Y-43268442D01*
X22110626Y-43269355D01*
X23077207Y-42869972D01*
X23817373Y-42131096D01*
X23878000Y-41985090D01*
X23878000Y-47498000D01*
X23935852Y-47788839D01*
X24100599Y-48035401D01*
X27122522Y-51057324D01*
X27118569Y-51063110D01*
X27067560Y-51315000D01*
X27067560Y-52415000D01*
X27111838Y-52650317D01*
X27250910Y-52866441D01*
X27463110Y-53011431D01*
X27715000Y-53062440D01*
X27955000Y-53062440D01*
X27955000Y-54536198D01*
X23956933Y-58534265D01*
X23819972Y-58202793D01*
X23081096Y-57462627D01*
X22115215Y-57061558D01*
X21069374Y-57060645D01*
X20102793Y-57460028D01*
X19362627Y-58198904D01*
X18961558Y-59164785D01*
X18960645Y-60210626D01*
X19360028Y-61177207D01*
X20098904Y-61917373D01*
X21064785Y-62318442D01*
X22110626Y-62319355D01*
X23077207Y-61919972D01*
X23624000Y-61374132D01*
X23624000Y-66584000D01*
X23681852Y-66874839D01*
X23846599Y-67121401D01*
X27071372Y-70346174D01*
X27067560Y-70365000D01*
X27067560Y-71465000D01*
X27111838Y-71700317D01*
X27250910Y-71916441D01*
X27463110Y-72061431D01*
X27715000Y-72112440D01*
X29715000Y-72112440D01*
X29950317Y-72068162D01*
X30166441Y-71929090D01*
X30311431Y-71716890D01*
X30362440Y-71465000D01*
X30362440Y-70365000D01*
X31867560Y-70365000D01*
X31867560Y-71465000D01*
X31911838Y-71700317D01*
X32050910Y-71916441D01*
X32263110Y-72061431D01*
X32515000Y-72112440D01*
X34515000Y-72112440D01*
X34750317Y-72068162D01*
X34966441Y-71929090D01*
X35111431Y-71716890D01*
X35162440Y-71465000D01*
X35162440Y-70365000D01*
X35118162Y-70129683D01*
X34979090Y-69913559D01*
X34766890Y-69768569D01*
X34515000Y-69717560D01*
X32515000Y-69717560D01*
X32279683Y-69761838D01*
X32063559Y-69900910D01*
X31918569Y-70113110D01*
X31867560Y-70365000D01*
X30362440Y-70365000D01*
X30318162Y-70129683D01*
X30179090Y-69913559D01*
X30124684Y-69876385D01*
X30383192Y-69618327D01*
X30525838Y-69274799D01*
X30526162Y-68902833D01*
X30384117Y-68559057D01*
X30242736Y-68417429D01*
X30311431Y-68316890D01*
X30362440Y-68065000D01*
X30362440Y-67800750D01*
X31880000Y-67800750D01*
X31880000Y-68191309D01*
X31976673Y-68424698D01*
X32155301Y-68603327D01*
X32388690Y-68700000D01*
X33229250Y-68700000D01*
X33388000Y-68541250D01*
X33388000Y-67642000D01*
X33642000Y-67642000D01*
X33642000Y-68541250D01*
X33800750Y-68700000D01*
X34641310Y-68700000D01*
X34874699Y-68603327D01*
X35053327Y-68424698D01*
X35150000Y-68191309D01*
X35150000Y-67800750D01*
X34991250Y-67642000D01*
X33642000Y-67642000D01*
X33388000Y-67642000D01*
X32038750Y-67642000D01*
X31880000Y-67800750D01*
X30362440Y-67800750D01*
X30362440Y-66965000D01*
X30338674Y-66838691D01*
X31880000Y-66838691D01*
X31880000Y-67229250D01*
X32038750Y-67388000D01*
X33388000Y-67388000D01*
X33388000Y-66488750D01*
X33642000Y-66488750D01*
X33642000Y-67388000D01*
X34991250Y-67388000D01*
X35150000Y-67229250D01*
X35150000Y-66838691D01*
X35053327Y-66605302D01*
X34874699Y-66426673D01*
X34641310Y-66330000D01*
X33800750Y-66330000D01*
X33642000Y-66488750D01*
X33388000Y-66488750D01*
X33229250Y-66330000D01*
X32388690Y-66330000D01*
X32155301Y-66426673D01*
X31976673Y-66605302D01*
X31880000Y-66838691D01*
X30338674Y-66838691D01*
X30318162Y-66729683D01*
X30179090Y-66513559D01*
X29966890Y-66368569D01*
X29715000Y-66317560D01*
X29475000Y-66317560D01*
X29475000Y-56979802D01*
X33392362Y-53062440D01*
X34515000Y-53062440D01*
X34750317Y-53018162D01*
X34966441Y-52879090D01*
X35111431Y-52666890D01*
X35162440Y-52415000D01*
X35162440Y-51315000D01*
X35118162Y-51079683D01*
X34979090Y-50863559D01*
X34766890Y-50718569D01*
X34515000Y-50667560D01*
X32515000Y-50667560D01*
X32279683Y-50711838D01*
X32063559Y-50850910D01*
X31918569Y-51063110D01*
X31867560Y-51315000D01*
X31867560Y-52415000D01*
X31871145Y-52434053D01*
X29475000Y-54830198D01*
X29475000Y-53062440D01*
X29715000Y-53062440D01*
X29950317Y-53018162D01*
X30166441Y-52879090D01*
X30311431Y-52666890D01*
X30362440Y-52415000D01*
X30362440Y-51315000D01*
X30318162Y-51079683D01*
X30193005Y-50885183D01*
X30383192Y-50695327D01*
X30525838Y-50351799D01*
X30526162Y-49979833D01*
X30384117Y-49636057D01*
X30191221Y-49442824D01*
X30311431Y-49266890D01*
X30362440Y-49015000D01*
X30362440Y-48750750D01*
X31880000Y-48750750D01*
X31880000Y-49141309D01*
X31976673Y-49374698D01*
X32155301Y-49553327D01*
X32388690Y-49650000D01*
X33229250Y-49650000D01*
X33388000Y-49491250D01*
X33388000Y-48592000D01*
X33642000Y-48592000D01*
X33642000Y-49491250D01*
X33800750Y-49650000D01*
X34641310Y-49650000D01*
X34874699Y-49553327D01*
X35053327Y-49374698D01*
X35150000Y-49141309D01*
X35150000Y-48750750D01*
X34991250Y-48592000D01*
X33642000Y-48592000D01*
X33388000Y-48592000D01*
X32038750Y-48592000D01*
X31880000Y-48750750D01*
X30362440Y-48750750D01*
X30362440Y-47915000D01*
X30338674Y-47788691D01*
X31880000Y-47788691D01*
X31880000Y-48179250D01*
X32038750Y-48338000D01*
X33388000Y-48338000D01*
X33388000Y-47438750D01*
X33642000Y-47438750D01*
X33642000Y-48338000D01*
X34991250Y-48338000D01*
X35150000Y-48179250D01*
X35150000Y-47788691D01*
X35053327Y-47555302D01*
X34874699Y-47376673D01*
X34641310Y-47280000D01*
X33800750Y-47280000D01*
X33642000Y-47438750D01*
X33388000Y-47438750D01*
X33229250Y-47280000D01*
X32388690Y-47280000D01*
X32155301Y-47376673D01*
X31976673Y-47555302D01*
X31880000Y-47788691D01*
X30338674Y-47788691D01*
X30318162Y-47679683D01*
X30179090Y-47463559D01*
X29966890Y-47318569D01*
X29715000Y-47267560D01*
X29475000Y-47267560D01*
X29475000Y-37929802D01*
X33392362Y-34012440D01*
X34515000Y-34012440D01*
X34750317Y-33968162D01*
X34966441Y-33829090D01*
X35111431Y-33616890D01*
X35162440Y-33365000D01*
X35162440Y-32265000D01*
X35118162Y-32029683D01*
X34979090Y-31813559D01*
X34766890Y-31668569D01*
X34515000Y-31617560D01*
X32515000Y-31617560D01*
X32279683Y-31661838D01*
X32063559Y-31800910D01*
X31918569Y-32013110D01*
X31867560Y-32265000D01*
X31867560Y-33365000D01*
X31871145Y-33384053D01*
X29416723Y-35838475D01*
X29417148Y-35837839D01*
X29475000Y-35547000D01*
X29475000Y-34012440D01*
X29715000Y-34012440D01*
X29950317Y-33968162D01*
X30166441Y-33829090D01*
X30311431Y-33616890D01*
X30362440Y-33365000D01*
X30362440Y-32265000D01*
X30318162Y-32029683D01*
X30179090Y-31813559D01*
X29966890Y-31668569D01*
X29715000Y-31617560D01*
X28592362Y-31617560D01*
X27554801Y-30579999D01*
X27715000Y-30612440D01*
X29715000Y-30612440D01*
X29950317Y-30568162D01*
X30166441Y-30429090D01*
X30311431Y-30216890D01*
X30362440Y-29965000D01*
X30362440Y-29700750D01*
X31880000Y-29700750D01*
X31880000Y-30091309D01*
X31976673Y-30324698D01*
X32155301Y-30503327D01*
X32388690Y-30600000D01*
X33229250Y-30600000D01*
X33388000Y-30441250D01*
X33388000Y-29542000D01*
X33642000Y-29542000D01*
X33642000Y-30441250D01*
X33800750Y-30600000D01*
X34641310Y-30600000D01*
X34874699Y-30503327D01*
X35053327Y-30324698D01*
X35150000Y-30091309D01*
X35150000Y-29700750D01*
X34991250Y-29542000D01*
X33642000Y-29542000D01*
X33388000Y-29542000D01*
X32038750Y-29542000D01*
X31880000Y-29700750D01*
X30362440Y-29700750D01*
X30362440Y-28865000D01*
X30338674Y-28738691D01*
X31880000Y-28738691D01*
X31880000Y-29129250D01*
X32038750Y-29288000D01*
X33388000Y-29288000D01*
X33388000Y-28388750D01*
X33642000Y-28388750D01*
X33642000Y-29288000D01*
X34991250Y-29288000D01*
X35150000Y-29129250D01*
X35150000Y-28738691D01*
X35053327Y-28505302D01*
X34874699Y-28326673D01*
X34641310Y-28230000D01*
X33800750Y-28230000D01*
X33642000Y-28388750D01*
X33388000Y-28388750D01*
X33229250Y-28230000D01*
X32388690Y-28230000D01*
X32155301Y-28326673D01*
X31976673Y-28505302D01*
X31880000Y-28738691D01*
X30338674Y-28738691D01*
X30318162Y-28629683D01*
X30179090Y-28413559D01*
X29966890Y-28268569D01*
X29715000Y-28217560D01*
X27715000Y-28217560D01*
X27479683Y-28261838D01*
X27263559Y-28400910D01*
X27176000Y-28529057D01*
X27176000Y-27746802D01*
X27492802Y-27430000D01*
X28365962Y-27430000D01*
X28384838Y-27530317D01*
X28523910Y-27746441D01*
X28736110Y-27891431D01*
X28988000Y-27942440D01*
X30488000Y-27942440D01*
X30723317Y-27898162D01*
X30939441Y-27759090D01*
X30985969Y-27690994D01*
X31128302Y-27833327D01*
X31361691Y-27930000D01*
X31952250Y-27930000D01*
X32111000Y-27771250D01*
X32111000Y-26797000D01*
X32365000Y-26797000D01*
X32365000Y-27771250D01*
X32523750Y-27930000D01*
X33114309Y-27930000D01*
X33347698Y-27833327D01*
X33526327Y-27654699D01*
X33623000Y-27421310D01*
X33623000Y-26955750D01*
X33464250Y-26797000D01*
X32365000Y-26797000D01*
X32111000Y-26797000D01*
X32091000Y-26797000D01*
X32091000Y-26543000D01*
X32111000Y-26543000D01*
X32111000Y-25568750D01*
X32365000Y-25568750D01*
X32365000Y-26543000D01*
X33464250Y-26543000D01*
X33623000Y-26384250D01*
X33623000Y-25918690D01*
X33526327Y-25685301D01*
X33347698Y-25506673D01*
X33114309Y-25410000D01*
X32523750Y-25410000D01*
X32365000Y-25568750D01*
X32111000Y-25568750D01*
X31952250Y-25410000D01*
X31361691Y-25410000D01*
X31128302Y-25506673D01*
X30987064Y-25647910D01*
X30952090Y-25593559D01*
X30739890Y-25448569D01*
X30488000Y-25397560D01*
X28988000Y-25397560D01*
X28752683Y-25441838D01*
X28536559Y-25580910D01*
X28391569Y-25793110D01*
X28367898Y-25910000D01*
X27178000Y-25910000D01*
X26887161Y-25967852D01*
X26640599Y-26132599D01*
X25878599Y-26894599D01*
X25713852Y-27141161D01*
X25656000Y-27432000D01*
X25656000Y-30516000D01*
X25713852Y-30806839D01*
X25878599Y-31053401D01*
X27071372Y-32246174D01*
X27067560Y-32265000D01*
X27067560Y-33365000D01*
X27111838Y-33600317D01*
X27250910Y-33816441D01*
X27463110Y-33961431D01*
X27715000Y-34012440D01*
X27955000Y-34012440D01*
X27955000Y-35232198D01*
X24100599Y-39086599D01*
X23935852Y-39333161D01*
X23922413Y-39400720D01*
X23819972Y-39152793D01*
X23081096Y-38412627D01*
X22115215Y-38011558D01*
X21069374Y-38010645D01*
X20102793Y-38410028D01*
X19362627Y-39148904D01*
X18961558Y-40114785D01*
X18960645Y-41160626D01*
X17902726Y-41160626D01*
X17995642Y-40936861D01*
X17996158Y-40345733D01*
X17850652Y-39993582D01*
X18271667Y-39958968D01*
X18925825Y-39622777D01*
X19401532Y-39061842D01*
X20264188Y-37508766D01*
X20489024Y-36808484D01*
X20428758Y-36075467D01*
X20417536Y-36053630D01*
X22206742Y-36053630D01*
X22300833Y-36783077D01*
X22666909Y-37420992D01*
X23249238Y-37870257D01*
X23959166Y-38062476D01*
X24688613Y-37968385D01*
X25326528Y-37602309D01*
X25775793Y-37019980D01*
X25968012Y-36310052D01*
X26013258Y-35646369D01*
X25919167Y-34916922D01*
X25553091Y-34279008D01*
X24970762Y-33829743D01*
X24260834Y-33637524D01*
X23531387Y-33731614D01*
X22893472Y-34097691D01*
X22444207Y-34680020D01*
X22251988Y-35389948D01*
X22206742Y-36053630D01*
X20417536Y-36053630D01*
X20092567Y-35421309D01*
X19531632Y-34945602D01*
X18831350Y-34720766D01*
X18098332Y-34781032D01*
X17444175Y-35117223D01*
X16968467Y-35678158D01*
X16105812Y-37231234D01*
X15880976Y-37931516D01*
X15941242Y-38664533D01*
X16196744Y-39161688D01*
X15669405Y-39379580D01*
X15251049Y-39797206D01*
X15024358Y-40343139D01*
X15023842Y-40934267D01*
X10033000Y-40934267D01*
X10033000Y-21884267D01*
X15023842Y-21884267D01*
X15249580Y-22430595D01*
X15667206Y-22848951D01*
X16213139Y-23075642D01*
X16804267Y-23076158D01*
X17350595Y-22850420D01*
X17768951Y-22432794D01*
X17902726Y-22110626D01*
X18960645Y-22110626D01*
X19360028Y-23077207D01*
X20098904Y-23817373D01*
X21064785Y-24218442D01*
X22110626Y-24219355D01*
X23077207Y-23819972D01*
X23817373Y-23081096D01*
X24218442Y-22115215D01*
X24218643Y-21884267D01*
X25183842Y-21884267D01*
X25409580Y-22430595D01*
X25827206Y-22848951D01*
X26373139Y-23075642D01*
X26964267Y-23076158D01*
X27510595Y-22850420D01*
X27928951Y-22432794D01*
X28155642Y-21886861D01*
X28155644Y-21884267D01*
X34073842Y-21884267D01*
X34299580Y-22430595D01*
X34717206Y-22848951D01*
X35263139Y-23075642D01*
X35854267Y-23076158D01*
X36400595Y-22850420D01*
X36475000Y-22776145D01*
X36475000Y-35139833D01*
X36018467Y-35678158D01*
X35155812Y-37231234D01*
X34930976Y-37931516D01*
X34991242Y-38664533D01*
X35246744Y-39161688D01*
X34719405Y-39379580D01*
X34301049Y-39797206D01*
X34074358Y-40343139D01*
X34073842Y-40934267D01*
X34299580Y-41480595D01*
X34717206Y-41898951D01*
X35263139Y-42125642D01*
X35854267Y-42126158D01*
X36400595Y-41900420D01*
X36475000Y-41826145D01*
X36475000Y-54189833D01*
X36018467Y-54728158D01*
X35155812Y-56281234D01*
X34930976Y-56981516D01*
X34991242Y-57714533D01*
X35246744Y-58211688D01*
X34719405Y-58429580D01*
X34301049Y-58847206D01*
X34074358Y-59393139D01*
X34073842Y-59984267D01*
X34299580Y-60530595D01*
X34717206Y-60948951D01*
X35263139Y-61175642D01*
X35854267Y-61176158D01*
X36400595Y-60950420D01*
X36475000Y-60876145D01*
X36475000Y-73239833D01*
X36018467Y-73778158D01*
X35155812Y-75331234D01*
X34930976Y-76031516D01*
X34991242Y-76764533D01*
X35246744Y-77261688D01*
X34719405Y-77479580D01*
X34301049Y-77897206D01*
X34074358Y-78443139D01*
X34073842Y-79034267D01*
X34299580Y-79580595D01*
X34717206Y-79998951D01*
X35263139Y-80225642D01*
X35854267Y-80226158D01*
X36400595Y-80000420D01*
X36818951Y-79582794D01*
X36952726Y-79260626D01*
X38010645Y-79260626D01*
X38410028Y-80227207D01*
X39148904Y-80967373D01*
X40114785Y-81368442D01*
X41160626Y-81369355D01*
X42127207Y-80969972D01*
X42867373Y-80231096D01*
X43268442Y-79265215D01*
X43268643Y-79034267D01*
X44233842Y-79034267D01*
X44459580Y-79580595D01*
X44877206Y-79998951D01*
X45423139Y-80225642D01*
X46014267Y-80226158D01*
X46560595Y-80000420D01*
X46978951Y-79582794D01*
X47205642Y-79036861D01*
X47206158Y-78445733D01*
X46980420Y-77899405D01*
X46562794Y-77481049D01*
X46016861Y-77254358D01*
X45425733Y-77253842D01*
X44879405Y-77479580D01*
X44461049Y-77897206D01*
X44234358Y-78443139D01*
X44233842Y-79034267D01*
X43268643Y-79034267D01*
X43269355Y-78219374D01*
X42869972Y-77252793D01*
X42131096Y-76512627D01*
X41165215Y-76111558D01*
X40119374Y-76110645D01*
X39152793Y-76510028D01*
X38412627Y-77248904D01*
X38011558Y-78214785D01*
X38010645Y-79260626D01*
X36952726Y-79260626D01*
X37045642Y-79036861D01*
X37046158Y-78445733D01*
X36900652Y-78093582D01*
X37321667Y-78058968D01*
X37975825Y-77722777D01*
X38451532Y-77161842D01*
X39314188Y-75608766D01*
X39539024Y-74908484D01*
X39478758Y-74175467D01*
X39467536Y-74153630D01*
X41256742Y-74153630D01*
X41350833Y-74883077D01*
X41716909Y-75520992D01*
X42299238Y-75970257D01*
X43009166Y-76162476D01*
X43738613Y-76068385D01*
X44376528Y-75702309D01*
X44825793Y-75119980D01*
X45018012Y-74410052D01*
X45063258Y-73746369D01*
X44969167Y-73016922D01*
X44603091Y-72379008D01*
X44020762Y-71929743D01*
X43310834Y-71737524D01*
X42581387Y-71831614D01*
X41943472Y-72197691D01*
X41494207Y-72780020D01*
X41301988Y-73489948D01*
X41256742Y-74153630D01*
X39467536Y-74153630D01*
X39142567Y-73521309D01*
X38581632Y-73045602D01*
X37995000Y-72857255D01*
X37995000Y-68003167D01*
X41482838Y-68003167D01*
X41624883Y-68346943D01*
X41887673Y-68610192D01*
X42231201Y-68752838D01*
X42278077Y-68752879D01*
X44977599Y-71452401D01*
X45224160Y-71617148D01*
X45272414Y-71626746D01*
X45515000Y-71675000D01*
X46157074Y-71675000D01*
X46161838Y-71700317D01*
X46300910Y-71916441D01*
X46513110Y-72061431D01*
X46765000Y-72112440D01*
X48765000Y-72112440D01*
X49000317Y-72068162D01*
X49216441Y-71929090D01*
X49361431Y-71716890D01*
X49412440Y-71465000D01*
X49412440Y-70365000D01*
X49368162Y-70129683D01*
X49243005Y-69935183D01*
X49433192Y-69745327D01*
X49575838Y-69401799D01*
X49576162Y-69029833D01*
X49434117Y-68686057D01*
X49241221Y-68492824D01*
X49361431Y-68316890D01*
X49412440Y-68065000D01*
X49412440Y-67800750D01*
X50930000Y-67800750D01*
X50930000Y-68191309D01*
X51026673Y-68424698D01*
X51205301Y-68603327D01*
X51438690Y-68700000D01*
X52279250Y-68700000D01*
X52438000Y-68541250D01*
X52438000Y-67642000D01*
X51088750Y-67642000D01*
X50930000Y-67800750D01*
X49412440Y-67800750D01*
X49412440Y-66965000D01*
X49388674Y-66838691D01*
X50930000Y-66838691D01*
X50930000Y-67229250D01*
X51088750Y-67388000D01*
X52438000Y-67388000D01*
X52438000Y-66488750D01*
X52279250Y-66330000D01*
X51438690Y-66330000D01*
X51205301Y-66426673D01*
X51026673Y-66605302D01*
X50930000Y-66838691D01*
X49388674Y-66838691D01*
X49368162Y-66729683D01*
X49229090Y-66513559D01*
X49016890Y-66368569D01*
X48765000Y-66317560D01*
X46765000Y-66317560D01*
X46529683Y-66361838D01*
X46313559Y-66500910D01*
X46168569Y-66713110D01*
X46117560Y-66965000D01*
X46117560Y-68065000D01*
X46161838Y-68300317D01*
X46300910Y-68516441D01*
X46513110Y-68661431D01*
X46765000Y-68712440D01*
X47837278Y-68712440D01*
X47706162Y-69028201D01*
X47706121Y-69075077D01*
X47227599Y-69553599D01*
X47118044Y-69717560D01*
X46765000Y-69717560D01*
X46529683Y-69761838D01*
X46313559Y-69900910D01*
X46168569Y-70113110D01*
X46160086Y-70155000D01*
X45829802Y-70155000D01*
X43353122Y-67678320D01*
X43353162Y-67632833D01*
X43211117Y-67289057D01*
X42948327Y-67025808D01*
X42604799Y-66883162D01*
X42232833Y-66882838D01*
X41889057Y-67024883D01*
X41625808Y-67287673D01*
X41483162Y-67631201D01*
X41482838Y-68003167D01*
X37995000Y-68003167D01*
X37995000Y-60210626D01*
X38010645Y-60210626D01*
X38410028Y-61177207D01*
X39148904Y-61917373D01*
X40114785Y-62318442D01*
X41160626Y-62319355D01*
X42127207Y-61919972D01*
X42867373Y-61181096D01*
X43268442Y-60215215D01*
X43268643Y-59984267D01*
X44233842Y-59984267D01*
X44459580Y-60530595D01*
X44877206Y-60948951D01*
X45423139Y-61175642D01*
X46014267Y-61176158D01*
X46560595Y-60950420D01*
X46978951Y-60532794D01*
X47205642Y-59986861D01*
X47206158Y-59395733D01*
X46980420Y-58849405D01*
X46562794Y-58431049D01*
X46016861Y-58204358D01*
X45425733Y-58203842D01*
X44879405Y-58429580D01*
X44461049Y-58847206D01*
X44234358Y-59393139D01*
X44233842Y-59984267D01*
X43268643Y-59984267D01*
X43269355Y-59169374D01*
X42869972Y-58202793D01*
X42131096Y-57462627D01*
X41165215Y-57061558D01*
X40119374Y-57060645D01*
X39152793Y-57460028D01*
X38412627Y-58198904D01*
X38011558Y-59164785D01*
X38010645Y-60210626D01*
X37995000Y-60210626D01*
X37995000Y-58650167D01*
X38451532Y-58111842D01*
X39314188Y-56558766D01*
X39539024Y-55858484D01*
X39478758Y-55125467D01*
X39467536Y-55103630D01*
X41256742Y-55103630D01*
X41350833Y-55833077D01*
X41716909Y-56470992D01*
X42299238Y-56920257D01*
X43009166Y-57112476D01*
X43738613Y-57018385D01*
X44376528Y-56652309D01*
X44825793Y-56069980D01*
X45018012Y-55360052D01*
X45063258Y-54696369D01*
X44969167Y-53966922D01*
X44603091Y-53329008D01*
X44020762Y-52879743D01*
X43310834Y-52687524D01*
X42581387Y-52781614D01*
X41943472Y-53147691D01*
X41494207Y-53730020D01*
X41301988Y-54439948D01*
X41256742Y-55103630D01*
X39467536Y-55103630D01*
X39142567Y-54471309D01*
X38581632Y-53995602D01*
X37995000Y-53807255D01*
X37995000Y-41160626D01*
X38010645Y-41160626D01*
X38410028Y-42127207D01*
X39148904Y-42867373D01*
X40114785Y-43268442D01*
X41160626Y-43269355D01*
X42127207Y-42869972D01*
X42867373Y-42131096D01*
X43268442Y-41165215D01*
X43268643Y-40934267D01*
X44233842Y-40934267D01*
X44459580Y-41480595D01*
X44877206Y-41898951D01*
X45423139Y-42125642D01*
X46014267Y-42126158D01*
X46560595Y-41900420D01*
X46978951Y-41482794D01*
X47205642Y-40936861D01*
X47206158Y-40345733D01*
X46980420Y-39799405D01*
X46562794Y-39381049D01*
X46016861Y-39154358D01*
X45425733Y-39153842D01*
X44879405Y-39379580D01*
X44461049Y-39797206D01*
X44234358Y-40343139D01*
X44233842Y-40934267D01*
X43268643Y-40934267D01*
X43269355Y-40119374D01*
X42869972Y-39152793D01*
X42131096Y-38412627D01*
X41165215Y-38011558D01*
X40119374Y-38010645D01*
X39152793Y-38410028D01*
X38412627Y-39148904D01*
X38011558Y-40114785D01*
X38010645Y-41160626D01*
X37995000Y-41160626D01*
X37995000Y-39600167D01*
X38451532Y-39061842D01*
X39314188Y-37508766D01*
X39539024Y-36808484D01*
X39478758Y-36075467D01*
X39467536Y-36053630D01*
X41256742Y-36053630D01*
X41350833Y-36783077D01*
X41716909Y-37420992D01*
X42299238Y-37870257D01*
X43009166Y-38062476D01*
X43738613Y-37968385D01*
X44376528Y-37602309D01*
X44825793Y-37019980D01*
X45018012Y-36310052D01*
X45063258Y-35646369D01*
X44969167Y-34916922D01*
X44603091Y-34279008D01*
X44020762Y-33829743D01*
X43310834Y-33637524D01*
X42581387Y-33731614D01*
X41943472Y-34097691D01*
X41494207Y-34680020D01*
X41301988Y-35389948D01*
X41256742Y-36053630D01*
X39467536Y-36053630D01*
X39142567Y-35421309D01*
X38581632Y-34945602D01*
X37995000Y-34757255D01*
X37995000Y-27639802D01*
X46463599Y-36108401D01*
X46710161Y-36273148D01*
X47001000Y-36331000D01*
X47492469Y-36331000D01*
X47504990Y-36361303D01*
X47714342Y-36571021D01*
X47506371Y-36778630D01*
X47293243Y-37291900D01*
X47292758Y-37847661D01*
X47504990Y-38361303D01*
X47714342Y-38571021D01*
X47506371Y-38778630D01*
X47293243Y-39291900D01*
X47292758Y-39847661D01*
X47504990Y-40361303D01*
X47714342Y-40571021D01*
X47506371Y-40778630D01*
X47293243Y-41291900D01*
X47292758Y-41847661D01*
X47504990Y-42361303D01*
X47897630Y-42754629D01*
X47930000Y-42768070D01*
X47930000Y-60628000D01*
X47987852Y-60918839D01*
X48152599Y-61165401D01*
X51642878Y-64655680D01*
X51642838Y-64701167D01*
X51784883Y-65044943D01*
X52047673Y-65308192D01*
X52391201Y-65450838D01*
X52763167Y-65451162D01*
X53106943Y-65309117D01*
X53370192Y-65046327D01*
X53512838Y-64702799D01*
X53513020Y-64493822D01*
X54104000Y-65084802D01*
X54104000Y-66606927D01*
X54103327Y-66605302D01*
X53924699Y-66426673D01*
X53691310Y-66330000D01*
X52850750Y-66330000D01*
X52692000Y-66488750D01*
X52692000Y-67388000D01*
X52712000Y-67388000D01*
X52712000Y-67642000D01*
X52692000Y-67642000D01*
X52692000Y-68541250D01*
X52850750Y-68700000D01*
X53691310Y-68700000D01*
X53924699Y-68603327D01*
X54103327Y-68424698D01*
X54104000Y-68423073D01*
X54104000Y-70029972D01*
X54029090Y-69913559D01*
X53816890Y-69768569D01*
X53565000Y-69717560D01*
X51565000Y-69717560D01*
X51329683Y-69761838D01*
X51113559Y-69900910D01*
X50968569Y-70113110D01*
X50917560Y-70365000D01*
X50917560Y-71465000D01*
X50961838Y-71700317D01*
X51100910Y-71916441D01*
X51313110Y-72061431D01*
X51565000Y-72112440D01*
X53565000Y-72112440D01*
X53800317Y-72068162D01*
X54016441Y-71929090D01*
X54104000Y-71800943D01*
X54104000Y-73599198D01*
X49754599Y-77948599D01*
X49589852Y-78195161D01*
X49532000Y-78486000D01*
X49532000Y-80711198D01*
X47550707Y-82692491D01*
X47273857Y-82806883D01*
X47010608Y-83069673D01*
X46867962Y-83413201D01*
X46867638Y-83785167D01*
X47009683Y-84128943D01*
X47272473Y-84392192D01*
X47616001Y-84534838D01*
X47987967Y-84535162D01*
X48331743Y-84393117D01*
X48594992Y-84130327D01*
X48737638Y-83786799D01*
X48737753Y-83655049D01*
X50829401Y-81563401D01*
X50994148Y-81316840D01*
X51003746Y-81268586D01*
X51052000Y-81026000D01*
X51052000Y-78800802D01*
X54056493Y-75796309D01*
X53980976Y-76031516D01*
X54041242Y-76764533D01*
X54296744Y-77261688D01*
X53769405Y-77479580D01*
X53351049Y-77897206D01*
X53124358Y-78443139D01*
X53123842Y-79034267D01*
X53349580Y-79580595D01*
X53767206Y-79998951D01*
X54313139Y-80225642D01*
X54904267Y-80226158D01*
X55450595Y-80000420D01*
X55868951Y-79582794D01*
X56002726Y-79260626D01*
X57060645Y-79260626D01*
X57460028Y-80227207D01*
X58198904Y-80967373D01*
X59164785Y-81368442D01*
X60210626Y-81369355D01*
X61177207Y-80969972D01*
X61917373Y-80231096D01*
X62318442Y-79265215D01*
X62318643Y-79034267D01*
X63283842Y-79034267D01*
X63509580Y-79580595D01*
X63927206Y-79998951D01*
X64473139Y-80225642D01*
X65064267Y-80226158D01*
X65610595Y-80000420D01*
X66028951Y-79582794D01*
X66255642Y-79036861D01*
X66256158Y-78445733D01*
X66030420Y-77899405D01*
X65612794Y-77481049D01*
X65066861Y-77254358D01*
X64475733Y-77253842D01*
X63929405Y-77479580D01*
X63511049Y-77897206D01*
X63284358Y-78443139D01*
X63283842Y-79034267D01*
X62318643Y-79034267D01*
X62319355Y-78219374D01*
X61919972Y-77252793D01*
X61181096Y-76512627D01*
X60215215Y-76111558D01*
X59169374Y-76110645D01*
X58202793Y-76510028D01*
X57462627Y-77248904D01*
X57061558Y-78214785D01*
X57060645Y-79260626D01*
X56002726Y-79260626D01*
X56095642Y-79036861D01*
X56096158Y-78445733D01*
X55950652Y-78093582D01*
X56371667Y-78058968D01*
X57025825Y-77722777D01*
X57501532Y-77161842D01*
X58364188Y-75608766D01*
X58589024Y-74908484D01*
X58528758Y-74175467D01*
X58517536Y-74153630D01*
X60306742Y-74153630D01*
X60400833Y-74883077D01*
X60766909Y-75520992D01*
X61349238Y-75970257D01*
X62059166Y-76162476D01*
X62788613Y-76068385D01*
X63426528Y-75702309D01*
X63875793Y-75119980D01*
X64068012Y-74410052D01*
X64113258Y-73746369D01*
X64019167Y-73016922D01*
X63653091Y-72379008D01*
X63070762Y-71929743D01*
X62360834Y-71737524D01*
X61631387Y-71831614D01*
X60993472Y-72197691D01*
X60544207Y-72780020D01*
X60351988Y-73489948D01*
X60306742Y-74153630D01*
X58517536Y-74153630D01*
X58192567Y-73521309D01*
X57631632Y-73045602D01*
X57045000Y-72857255D01*
X57045000Y-68003167D01*
X60278838Y-68003167D01*
X60420883Y-68346943D01*
X60683673Y-68610192D01*
X61027201Y-68752838D01*
X61074077Y-68752879D01*
X63773599Y-71452401D01*
X64020160Y-71617148D01*
X64068414Y-71626746D01*
X64311000Y-71675000D01*
X65207074Y-71675000D01*
X65211838Y-71700317D01*
X65350910Y-71916441D01*
X65563110Y-72061431D01*
X65815000Y-72112440D01*
X67815000Y-72112440D01*
X68050317Y-72068162D01*
X68266441Y-71929090D01*
X68411431Y-71716890D01*
X68462440Y-71465000D01*
X68462440Y-70365000D01*
X69967560Y-70365000D01*
X69967560Y-71465000D01*
X70011838Y-71700317D01*
X70150910Y-71916441D01*
X70363110Y-72061431D01*
X70615000Y-72112440D01*
X72615000Y-72112440D01*
X72850317Y-72068162D01*
X73066441Y-71929090D01*
X73211431Y-71716890D01*
X73262440Y-71465000D01*
X73262440Y-70365000D01*
X73218162Y-70129683D01*
X73079090Y-69913559D01*
X72866890Y-69768569D01*
X72615000Y-69717560D01*
X70615000Y-69717560D01*
X70379683Y-69761838D01*
X70163559Y-69900910D01*
X70018569Y-70113110D01*
X69967560Y-70365000D01*
X68462440Y-70365000D01*
X68451312Y-70305860D01*
X68520148Y-70202840D01*
X68578000Y-69912000D01*
X68578000Y-69904463D01*
X68610192Y-69872327D01*
X68752838Y-69528799D01*
X68753162Y-69156833D01*
X68611117Y-68813057D01*
X68348327Y-68549808D01*
X68273512Y-68518742D01*
X68411431Y-68316890D01*
X68462440Y-68065000D01*
X68462440Y-67800750D01*
X69980000Y-67800750D01*
X69980000Y-68191309D01*
X70076673Y-68424698D01*
X70255301Y-68603327D01*
X70488690Y-68700000D01*
X71329250Y-68700000D01*
X71488000Y-68541250D01*
X71488000Y-67642000D01*
X71742000Y-67642000D01*
X71742000Y-68541250D01*
X71900750Y-68700000D01*
X72741310Y-68700000D01*
X72974699Y-68603327D01*
X73153327Y-68424698D01*
X73250000Y-68191309D01*
X73250000Y-67800750D01*
X73091250Y-67642000D01*
X71742000Y-67642000D01*
X71488000Y-67642000D01*
X70138750Y-67642000D01*
X69980000Y-67800750D01*
X68462440Y-67800750D01*
X68462440Y-66965000D01*
X68438674Y-66838691D01*
X69980000Y-66838691D01*
X69980000Y-67229250D01*
X70138750Y-67388000D01*
X71488000Y-67388000D01*
X71488000Y-66488750D01*
X71742000Y-66488750D01*
X71742000Y-67388000D01*
X73091250Y-67388000D01*
X73250000Y-67229250D01*
X73250000Y-66838691D01*
X73153327Y-66605302D01*
X72974699Y-66426673D01*
X72741310Y-66330000D01*
X71900750Y-66330000D01*
X71742000Y-66488750D01*
X71488000Y-66488750D01*
X71329250Y-66330000D01*
X70488690Y-66330000D01*
X70255301Y-66426673D01*
X70076673Y-66605302D01*
X69980000Y-66838691D01*
X68438674Y-66838691D01*
X68418162Y-66729683D01*
X68279090Y-66513559D01*
X68066890Y-66368569D01*
X67815000Y-66317560D01*
X65815000Y-66317560D01*
X65579683Y-66361838D01*
X65363559Y-66500910D01*
X65218569Y-66713110D01*
X65167560Y-66965000D01*
X65167560Y-68065000D01*
X65211838Y-68300317D01*
X65350910Y-68516441D01*
X65563110Y-68661431D01*
X65815000Y-68712440D01*
X67125214Y-68712440D01*
X67025808Y-68811673D01*
X66883162Y-69155201D01*
X66882838Y-69527167D01*
X66954528Y-69700670D01*
X66937638Y-69717560D01*
X65815000Y-69717560D01*
X65579683Y-69761838D01*
X65363559Y-69900910D01*
X65218569Y-70113110D01*
X65210086Y-70155000D01*
X64625802Y-70155000D01*
X62149122Y-67678320D01*
X62149162Y-67632833D01*
X62007117Y-67289057D01*
X61744327Y-67025808D01*
X61400799Y-66883162D01*
X61028833Y-66882838D01*
X60685057Y-67024883D01*
X60421808Y-67287673D01*
X60279162Y-67631201D01*
X60278838Y-68003167D01*
X57045000Y-68003167D01*
X57045000Y-60210626D01*
X57060645Y-60210626D01*
X57460028Y-61177207D01*
X58198904Y-61917373D01*
X59164785Y-62318442D01*
X60210626Y-62319355D01*
X61177207Y-61919972D01*
X61917373Y-61181096D01*
X62318442Y-60215215D01*
X62318643Y-59984267D01*
X63283842Y-59984267D01*
X63509580Y-60530595D01*
X63927206Y-60948951D01*
X64473139Y-61175642D01*
X65064267Y-61176158D01*
X65610595Y-60950420D01*
X66028951Y-60532794D01*
X66255642Y-59986861D01*
X66256158Y-59395733D01*
X66030420Y-58849405D01*
X65612794Y-58431049D01*
X65066861Y-58204358D01*
X64475733Y-58203842D01*
X63929405Y-58429580D01*
X63511049Y-58847206D01*
X63284358Y-59393139D01*
X63283842Y-59984267D01*
X62318643Y-59984267D01*
X62319355Y-59169374D01*
X61919972Y-58202793D01*
X61181096Y-57462627D01*
X60215215Y-57061558D01*
X59169374Y-57060645D01*
X58202793Y-57460028D01*
X57462627Y-58198904D01*
X57061558Y-59164785D01*
X57060645Y-60210626D01*
X57045000Y-60210626D01*
X57045000Y-58650167D01*
X57501532Y-58111842D01*
X58364188Y-56558766D01*
X58589024Y-55858484D01*
X58528758Y-55125467D01*
X58517536Y-55103630D01*
X60306742Y-55103630D01*
X60400833Y-55833077D01*
X60766909Y-56470992D01*
X61349238Y-56920257D01*
X62059166Y-57112476D01*
X62788613Y-57018385D01*
X63426528Y-56652309D01*
X63875793Y-56069980D01*
X64068012Y-55360052D01*
X64113258Y-54696369D01*
X64019167Y-53966922D01*
X63653091Y-53329008D01*
X63070762Y-52879743D01*
X62360834Y-52687524D01*
X61631387Y-52781614D01*
X60993472Y-53147691D01*
X60544207Y-53730020D01*
X60351988Y-54439948D01*
X60306742Y-55103630D01*
X58517536Y-55103630D01*
X58192567Y-54471309D01*
X57631632Y-53995602D01*
X57045000Y-53807255D01*
X57045000Y-41160626D01*
X57060645Y-41160626D01*
X57460028Y-42127207D01*
X58198904Y-42867373D01*
X59164785Y-43268442D01*
X60210626Y-43269355D01*
X61177207Y-42869972D01*
X61917373Y-42131096D01*
X62318442Y-41165215D01*
X62319355Y-40119374D01*
X61919972Y-39152793D01*
X61181096Y-38412627D01*
X60215215Y-38011558D01*
X59169374Y-38010645D01*
X58202793Y-38410028D01*
X57462627Y-39148904D01*
X57061558Y-40114785D01*
X57060645Y-41160626D01*
X57045000Y-41160626D01*
X57045000Y-39600167D01*
X57501532Y-39061842D01*
X58364188Y-37508766D01*
X58589024Y-36808484D01*
X58528758Y-36075467D01*
X58517536Y-36053630D01*
X60306742Y-36053630D01*
X60400833Y-36783077D01*
X60766909Y-37420992D01*
X61349238Y-37870257D01*
X62059166Y-38062476D01*
X62788613Y-37968385D01*
X63084045Y-37798847D01*
X64449768Y-39164570D01*
X63929405Y-39379580D01*
X63511049Y-39797206D01*
X63284358Y-40343139D01*
X63283842Y-40934267D01*
X63509580Y-41480595D01*
X63927206Y-41898951D01*
X64473139Y-42125642D01*
X65064267Y-42126158D01*
X65610595Y-41900420D01*
X66028951Y-41482794D01*
X66042000Y-41451368D01*
X66042000Y-44416000D01*
X66099852Y-44706839D01*
X66264599Y-44953401D01*
X67136878Y-45825680D01*
X67136838Y-45871167D01*
X67278883Y-46214943D01*
X67541673Y-46478192D01*
X67885201Y-46620838D01*
X68257167Y-46621162D01*
X68600943Y-46479117D01*
X68864192Y-46216327D01*
X69006838Y-45872799D01*
X69007162Y-45500833D01*
X68865117Y-45157057D01*
X68602327Y-44893808D01*
X68258799Y-44751162D01*
X68211923Y-44751121D01*
X67562000Y-44101198D01*
X67562000Y-42418413D01*
X67897630Y-42754629D01*
X68410900Y-42967757D01*
X68966661Y-42968242D01*
X68999055Y-42954857D01*
X71630000Y-45585802D01*
X71630000Y-47498000D01*
X71687852Y-47788839D01*
X71852599Y-48035401D01*
X72978878Y-49161680D01*
X72978838Y-49207167D01*
X73120883Y-49550943D01*
X73383673Y-49814192D01*
X73727201Y-49956838D01*
X74099167Y-49957162D01*
X74442943Y-49815117D01*
X74575000Y-49683290D01*
X74575000Y-54189833D01*
X74118467Y-54728158D01*
X73255812Y-56281234D01*
X73030976Y-56981516D01*
X73091242Y-57714533D01*
X73346744Y-58211688D01*
X72819405Y-58429580D01*
X72401049Y-58847206D01*
X72174358Y-59393139D01*
X72173842Y-59984267D01*
X72399580Y-60530595D01*
X72817206Y-60948951D01*
X73363139Y-61175642D01*
X73954267Y-61176158D01*
X74500595Y-60950420D01*
X74575000Y-60876145D01*
X74575000Y-73239833D01*
X74118467Y-73778158D01*
X73255812Y-75331234D01*
X73030976Y-76031516D01*
X73091242Y-76764533D01*
X73346744Y-77261688D01*
X72819405Y-77479580D01*
X72401049Y-77897206D01*
X72174358Y-78443139D01*
X72173842Y-79034267D01*
X72399580Y-79580595D01*
X72817206Y-79998951D01*
X73363139Y-80225642D01*
X73954267Y-80226158D01*
X74500595Y-80000420D01*
X74918951Y-79582794D01*
X75052726Y-79260626D01*
X76110645Y-79260626D01*
X76510028Y-80227207D01*
X77248904Y-80967373D01*
X78214785Y-81368442D01*
X79260626Y-81369355D01*
X80227207Y-80969972D01*
X80967373Y-80231096D01*
X81368442Y-79265215D01*
X81368643Y-79034267D01*
X82333842Y-79034267D01*
X82559580Y-79580595D01*
X82977206Y-79998951D01*
X83523139Y-80225642D01*
X84114267Y-80226158D01*
X84660595Y-80000420D01*
X85078951Y-79582794D01*
X85305642Y-79036861D01*
X85306158Y-78445733D01*
X85080420Y-77899405D01*
X84662794Y-77481049D01*
X84116861Y-77254358D01*
X83525733Y-77253842D01*
X82979405Y-77479580D01*
X82561049Y-77897206D01*
X82334358Y-78443139D01*
X82333842Y-79034267D01*
X81368643Y-79034267D01*
X81369355Y-78219374D01*
X80969972Y-77252793D01*
X80231096Y-76512627D01*
X79265215Y-76111558D01*
X78219374Y-76110645D01*
X77252793Y-76510028D01*
X76512627Y-77248904D01*
X76111558Y-78214785D01*
X76110645Y-79260626D01*
X75052726Y-79260626D01*
X75145642Y-79036861D01*
X75146158Y-78445733D01*
X75000652Y-78093582D01*
X75421667Y-78058968D01*
X76075825Y-77722777D01*
X76551532Y-77161842D01*
X77414188Y-75608766D01*
X77639024Y-74908484D01*
X77578758Y-74175467D01*
X77567536Y-74153630D01*
X79356742Y-74153630D01*
X79450833Y-74883077D01*
X79816909Y-75520992D01*
X80399238Y-75970257D01*
X81109166Y-76162476D01*
X81838613Y-76068385D01*
X82476528Y-75702309D01*
X82925793Y-75119980D01*
X83118012Y-74410052D01*
X83163258Y-73746369D01*
X83069167Y-73016922D01*
X82703091Y-72379008D01*
X82120762Y-71929743D01*
X81410834Y-71737524D01*
X80681387Y-71831614D01*
X80043472Y-72197691D01*
X79594207Y-72780020D01*
X79401988Y-73489948D01*
X79356742Y-74153630D01*
X77567536Y-74153630D01*
X77242567Y-73521309D01*
X76681632Y-73045602D01*
X76095000Y-72857255D01*
X76095000Y-68003167D01*
X79328838Y-68003167D01*
X79470883Y-68346943D01*
X79733673Y-68610192D01*
X80077201Y-68752838D01*
X80124077Y-68752879D01*
X82823599Y-71452401D01*
X83070160Y-71617148D01*
X83118414Y-71626746D01*
X83361000Y-71675000D01*
X84257074Y-71675000D01*
X84261838Y-71700317D01*
X84400910Y-71916441D01*
X84613110Y-72061431D01*
X84865000Y-72112440D01*
X86865000Y-72112440D01*
X87100317Y-72068162D01*
X87316441Y-71929090D01*
X87461431Y-71716890D01*
X87512440Y-71465000D01*
X87512440Y-70365000D01*
X89017560Y-70365000D01*
X89017560Y-71465000D01*
X89061838Y-71700317D01*
X89200910Y-71916441D01*
X89413110Y-72061431D01*
X89665000Y-72112440D01*
X91665000Y-72112440D01*
X91900317Y-72068162D01*
X92116441Y-71929090D01*
X92261431Y-71716890D01*
X92312440Y-71465000D01*
X92312440Y-70365000D01*
X92268162Y-70129683D01*
X92129090Y-69913559D01*
X91916890Y-69768569D01*
X91665000Y-69717560D01*
X89665000Y-69717560D01*
X89429683Y-69761838D01*
X89213559Y-69900910D01*
X89068569Y-70113110D01*
X89017560Y-70365000D01*
X87512440Y-70365000D01*
X87468162Y-70129683D01*
X87329090Y-69913559D01*
X87325072Y-69910813D01*
X87396943Y-69881117D01*
X87660192Y-69618327D01*
X87802838Y-69274799D01*
X87803162Y-68902833D01*
X87661117Y-68559057D01*
X87444341Y-68341902D01*
X87461431Y-68316890D01*
X87512440Y-68065000D01*
X87512440Y-67800750D01*
X89030000Y-67800750D01*
X89030000Y-68191309D01*
X89126673Y-68424698D01*
X89305301Y-68603327D01*
X89538690Y-68700000D01*
X90379250Y-68700000D01*
X90538000Y-68541250D01*
X90538000Y-67642000D01*
X90792000Y-67642000D01*
X90792000Y-68541250D01*
X90950750Y-68700000D01*
X91791310Y-68700000D01*
X92024699Y-68603327D01*
X92203327Y-68424698D01*
X92300000Y-68191309D01*
X92300000Y-67800750D01*
X92141250Y-67642000D01*
X90792000Y-67642000D01*
X90538000Y-67642000D01*
X89188750Y-67642000D01*
X89030000Y-67800750D01*
X87512440Y-67800750D01*
X87512440Y-66965000D01*
X87488674Y-66838691D01*
X89030000Y-66838691D01*
X89030000Y-67229250D01*
X89188750Y-67388000D01*
X90538000Y-67388000D01*
X90538000Y-66488750D01*
X90792000Y-66488750D01*
X90792000Y-67388000D01*
X92141250Y-67388000D01*
X92300000Y-67229250D01*
X92300000Y-66838691D01*
X92203327Y-66605302D01*
X92024699Y-66426673D01*
X91791310Y-66330000D01*
X90950750Y-66330000D01*
X90792000Y-66488750D01*
X90538000Y-66488750D01*
X90379250Y-66330000D01*
X89538690Y-66330000D01*
X89305301Y-66426673D01*
X89126673Y-66605302D01*
X89030000Y-66838691D01*
X87488674Y-66838691D01*
X87468162Y-66729683D01*
X87329090Y-66513559D01*
X87116890Y-66368569D01*
X86865000Y-66317560D01*
X84865000Y-66317560D01*
X84629683Y-66361838D01*
X84413559Y-66500910D01*
X84268569Y-66713110D01*
X84217560Y-66965000D01*
X84217560Y-68065000D01*
X84261838Y-68300317D01*
X84400910Y-68516441D01*
X84613110Y-68661431D01*
X84865000Y-68712440D01*
X86011543Y-68712440D01*
X85933162Y-68901201D01*
X85933121Y-68948077D01*
X85327599Y-69553599D01*
X85218044Y-69717560D01*
X84865000Y-69717560D01*
X84629683Y-69761838D01*
X84413559Y-69900910D01*
X84268569Y-70113110D01*
X84260086Y-70155000D01*
X83675802Y-70155000D01*
X81199122Y-67678320D01*
X81199162Y-67632833D01*
X81057117Y-67289057D01*
X80794327Y-67025808D01*
X80450799Y-66883162D01*
X80078833Y-66882838D01*
X79735057Y-67024883D01*
X79471808Y-67287673D01*
X79329162Y-67631201D01*
X79328838Y-68003167D01*
X76095000Y-68003167D01*
X76095000Y-60210626D01*
X76110645Y-60210626D01*
X76510028Y-61177207D01*
X77248904Y-61917373D01*
X78214785Y-62318442D01*
X79260626Y-62319355D01*
X80227207Y-61919972D01*
X80967373Y-61181096D01*
X81368442Y-60215215D01*
X81368643Y-59984267D01*
X82333842Y-59984267D01*
X82559580Y-60530595D01*
X82977206Y-60948951D01*
X83523139Y-61175642D01*
X84114267Y-61176158D01*
X84660595Y-60950420D01*
X85078951Y-60532794D01*
X85305642Y-59986861D01*
X85306158Y-59395733D01*
X85080420Y-58849405D01*
X84662794Y-58431049D01*
X84116861Y-58204358D01*
X83525733Y-58203842D01*
X82979405Y-58429580D01*
X82561049Y-58847206D01*
X82334358Y-59393139D01*
X82333842Y-59984267D01*
X81368643Y-59984267D01*
X81369355Y-59169374D01*
X80969972Y-58202793D01*
X80231096Y-57462627D01*
X79265215Y-57061558D01*
X78219374Y-57060645D01*
X77252793Y-57460028D01*
X76512627Y-58198904D01*
X76111558Y-59164785D01*
X76110645Y-60210626D01*
X76095000Y-60210626D01*
X76095000Y-58650167D01*
X76551532Y-58111842D01*
X77414188Y-56558766D01*
X77639024Y-55858484D01*
X77578758Y-55125467D01*
X77567536Y-55103630D01*
X79356742Y-55103630D01*
X79450833Y-55833077D01*
X79816909Y-56470992D01*
X80399238Y-56920257D01*
X81109166Y-57112476D01*
X81838613Y-57018385D01*
X82476528Y-56652309D01*
X82925793Y-56069980D01*
X83118012Y-55360052D01*
X83163258Y-54696369D01*
X83069167Y-53966922D01*
X82703091Y-53329008D01*
X82120762Y-52879743D01*
X81410834Y-52687524D01*
X80681387Y-52781614D01*
X80043472Y-53147691D01*
X79594207Y-53730020D01*
X79401988Y-54439948D01*
X79356742Y-55103630D01*
X77567536Y-55103630D01*
X77242567Y-54471309D01*
X76681632Y-53995602D01*
X76095000Y-53807255D01*
X76095000Y-44297334D01*
X76267201Y-44368838D01*
X76639167Y-44369162D01*
X76982943Y-44227117D01*
X77016118Y-44194000D01*
X84328000Y-44194000D01*
X84618839Y-44136148D01*
X84865401Y-43971401D01*
X90706802Y-38130000D01*
X92097295Y-38130000D01*
X92141242Y-38664533D01*
X92396744Y-39161688D01*
X91869405Y-39379580D01*
X91451049Y-39797206D01*
X91224358Y-40343139D01*
X91223842Y-40934267D01*
X91449580Y-41480595D01*
X91867206Y-41898951D01*
X92413139Y-42125642D01*
X93004267Y-42126158D01*
X93550595Y-41900420D01*
X93625000Y-41826145D01*
X93625000Y-54189833D01*
X93168467Y-54728158D01*
X92305812Y-56281234D01*
X92080976Y-56981516D01*
X92141242Y-57714533D01*
X92396744Y-58211688D01*
X91869405Y-58429580D01*
X91451049Y-58847206D01*
X91224358Y-59393139D01*
X91223842Y-59984267D01*
X91449580Y-60530595D01*
X91867206Y-60948951D01*
X92413139Y-61175642D01*
X93004267Y-61176158D01*
X93550595Y-60950420D01*
X93625000Y-60876145D01*
X93625000Y-73239833D01*
X93168467Y-73778158D01*
X92305812Y-75331234D01*
X92080976Y-76031516D01*
X92141242Y-76764533D01*
X92396744Y-77261688D01*
X91869405Y-77479580D01*
X91451049Y-77897206D01*
X91224358Y-78443139D01*
X91223842Y-79034267D01*
X91449580Y-79580595D01*
X91867206Y-79998951D01*
X92413139Y-80225642D01*
X93004267Y-80226158D01*
X93550595Y-80000420D01*
X93968951Y-79582794D01*
X94102726Y-79260626D01*
X95160645Y-79260626D01*
X95560028Y-80227207D01*
X96298904Y-80967373D01*
X97264785Y-81368442D01*
X98310626Y-81369355D01*
X99277207Y-80969972D01*
X100017373Y-80231096D01*
X100418442Y-79265215D01*
X100418643Y-79034267D01*
X101383842Y-79034267D01*
X101609580Y-79580595D01*
X102027206Y-79998951D01*
X102573139Y-80225642D01*
X103164267Y-80226158D01*
X103710595Y-80000420D01*
X104128951Y-79582794D01*
X104355642Y-79036861D01*
X104356158Y-78445733D01*
X104130420Y-77899405D01*
X103712794Y-77481049D01*
X103166861Y-77254358D01*
X102575733Y-77253842D01*
X102029405Y-77479580D01*
X101611049Y-77897206D01*
X101384358Y-78443139D01*
X101383842Y-79034267D01*
X100418643Y-79034267D01*
X100419355Y-78219374D01*
X100019972Y-77252793D01*
X99281096Y-76512627D01*
X98315215Y-76111558D01*
X97269374Y-76110645D01*
X96302793Y-76510028D01*
X95562627Y-77248904D01*
X95161558Y-78214785D01*
X95160645Y-79260626D01*
X94102726Y-79260626D01*
X94195642Y-79036861D01*
X94196158Y-78445733D01*
X94050652Y-78093582D01*
X94471667Y-78058968D01*
X95125825Y-77722777D01*
X95601532Y-77161842D01*
X96464188Y-75608766D01*
X96689024Y-74908484D01*
X96628758Y-74175467D01*
X96617536Y-74153630D01*
X98406742Y-74153630D01*
X98500833Y-74883077D01*
X98866909Y-75520992D01*
X99449238Y-75970257D01*
X100159166Y-76162476D01*
X100888613Y-76068385D01*
X101526528Y-75702309D01*
X101975793Y-75119980D01*
X102168012Y-74410052D01*
X102213258Y-73746369D01*
X102119167Y-73016922D01*
X102053243Y-72902045D01*
X103856599Y-74705401D01*
X104103160Y-74870148D01*
X104151414Y-74879746D01*
X104394000Y-74928000D01*
X106462000Y-74928000D01*
X106752839Y-74870148D01*
X106999401Y-74705401D01*
X108446174Y-73258628D01*
X108465000Y-73262440D01*
X109565000Y-73262440D01*
X109800317Y-73218162D01*
X110016441Y-73079090D01*
X110161431Y-72866890D01*
X110212440Y-72615000D01*
X110212440Y-71202362D01*
X110773401Y-70641401D01*
X110938148Y-70394839D01*
X110996000Y-70104000D01*
X110996000Y-60981669D01*
X111463139Y-61175642D01*
X112054267Y-61176158D01*
X112600595Y-60950420D01*
X112675000Y-60876145D01*
X112675000Y-73239833D01*
X112218467Y-73778158D01*
X111355812Y-75331234D01*
X111130976Y-76031516D01*
X111191242Y-76764533D01*
X111446744Y-77261688D01*
X110919405Y-77479580D01*
X110501049Y-77897206D01*
X110274358Y-78443139D01*
X110273842Y-79034267D01*
X110499580Y-79580595D01*
X110917206Y-79998951D01*
X111463139Y-80225642D01*
X112054267Y-80226158D01*
X112600595Y-80000420D01*
X113018951Y-79582794D01*
X113152726Y-79260626D01*
X114210645Y-79260626D01*
X114610028Y-80227207D01*
X115348904Y-80967373D01*
X116314785Y-81368442D01*
X117360626Y-81369355D01*
X118327207Y-80969972D01*
X119067373Y-80231096D01*
X119468442Y-79265215D01*
X119468643Y-79034267D01*
X120433842Y-79034267D01*
X120659580Y-79580595D01*
X121077206Y-79998951D01*
X121623139Y-80225642D01*
X122214267Y-80226158D01*
X122760595Y-80000420D01*
X123178951Y-79582794D01*
X123405642Y-79036861D01*
X123406158Y-78445733D01*
X123180420Y-77899405D01*
X122762794Y-77481049D01*
X122216861Y-77254358D01*
X121625733Y-77253842D01*
X121079405Y-77479580D01*
X120661049Y-77897206D01*
X120434358Y-78443139D01*
X120433842Y-79034267D01*
X119468643Y-79034267D01*
X119469355Y-78219374D01*
X119069972Y-77252793D01*
X118331096Y-76512627D01*
X117365215Y-76111558D01*
X116319374Y-76110645D01*
X115352793Y-76510028D01*
X114612627Y-77248904D01*
X114211558Y-78214785D01*
X114210645Y-79260626D01*
X113152726Y-79260626D01*
X113245642Y-79036861D01*
X113246158Y-78445733D01*
X113100652Y-78093582D01*
X113521667Y-78058968D01*
X114175825Y-77722777D01*
X114651532Y-77161842D01*
X115514188Y-75608766D01*
X115739024Y-74908484D01*
X115678758Y-74175467D01*
X115667536Y-74153630D01*
X117456742Y-74153630D01*
X117550833Y-74883077D01*
X117916909Y-75520992D01*
X118499238Y-75970257D01*
X119209166Y-76162476D01*
X119938613Y-76068385D01*
X120576528Y-75702309D01*
X121025793Y-75119980D01*
X121218012Y-74410052D01*
X121263258Y-73746369D01*
X121169167Y-73016922D01*
X120803091Y-72379008D01*
X120220762Y-71929743D01*
X119510834Y-71737524D01*
X118781387Y-71831614D01*
X118143472Y-72197691D01*
X117694207Y-72780020D01*
X117501988Y-73489948D01*
X117456742Y-74153630D01*
X115667536Y-74153630D01*
X115342567Y-73521309D01*
X114781632Y-73045602D01*
X114195000Y-72857255D01*
X114195000Y-60210626D01*
X114210645Y-60210626D01*
X114610028Y-61177207D01*
X115348904Y-61917373D01*
X116314785Y-62318442D01*
X117360626Y-62319355D01*
X118327207Y-61919972D01*
X119067373Y-61181096D01*
X119468442Y-60215215D01*
X119468643Y-59984267D01*
X120433842Y-59984267D01*
X120659580Y-60530595D01*
X121077206Y-60948951D01*
X121623139Y-61175642D01*
X122214267Y-61176158D01*
X122760595Y-60950420D01*
X123178951Y-60532794D01*
X123405642Y-59986861D01*
X123406158Y-59395733D01*
X123180420Y-58849405D01*
X122762794Y-58431049D01*
X122216861Y-58204358D01*
X121625733Y-58203842D01*
X121079405Y-58429580D01*
X120661049Y-58847206D01*
X120434358Y-59393139D01*
X120433842Y-59984267D01*
X119468643Y-59984267D01*
X119469355Y-59169374D01*
X119069972Y-58202793D01*
X118331096Y-57462627D01*
X117365215Y-57061558D01*
X116319374Y-57060645D01*
X115352793Y-57460028D01*
X114612627Y-58198904D01*
X114211558Y-59164785D01*
X114210645Y-60210626D01*
X114195000Y-60210626D01*
X114195000Y-58650167D01*
X114651532Y-58111842D01*
X115514188Y-56558766D01*
X115739024Y-55858484D01*
X115678758Y-55125467D01*
X115667536Y-55103630D01*
X117456742Y-55103630D01*
X117550833Y-55833077D01*
X117916909Y-56470992D01*
X118499238Y-56920257D01*
X119209166Y-57112476D01*
X119938613Y-57018385D01*
X120576528Y-56652309D01*
X121025793Y-56069980D01*
X121218012Y-55360052D01*
X121263258Y-54696369D01*
X121169167Y-53966922D01*
X120803091Y-53329008D01*
X120220762Y-52879743D01*
X119510834Y-52687524D01*
X118781387Y-52781614D01*
X118143472Y-53147691D01*
X117694207Y-53730020D01*
X117501988Y-54439948D01*
X117456742Y-55103630D01*
X115667536Y-55103630D01*
X115342567Y-54471309D01*
X114781632Y-53995602D01*
X114195000Y-53807255D01*
X114195000Y-41160626D01*
X114210645Y-41160626D01*
X114610028Y-42127207D01*
X115348904Y-42867373D01*
X116314785Y-43268442D01*
X117360626Y-43269355D01*
X118327207Y-42869972D01*
X119067373Y-42131096D01*
X119468442Y-41165215D01*
X119468643Y-40934267D01*
X120433842Y-40934267D01*
X120659580Y-41480595D01*
X121077206Y-41898951D01*
X121623139Y-42125642D01*
X122214267Y-42126158D01*
X122760595Y-41900420D01*
X123178951Y-41482794D01*
X123405642Y-40936861D01*
X123406158Y-40345733D01*
X123180420Y-39799405D01*
X122762794Y-39381049D01*
X122216861Y-39154358D01*
X121625733Y-39153842D01*
X121079405Y-39379580D01*
X120661049Y-39797206D01*
X120434358Y-40343139D01*
X120433842Y-40934267D01*
X119468643Y-40934267D01*
X119469355Y-40119374D01*
X119069972Y-39152793D01*
X118331096Y-38412627D01*
X117365215Y-38011558D01*
X116319374Y-38010645D01*
X115352793Y-38410028D01*
X114612627Y-39148904D01*
X114211558Y-40114785D01*
X114210645Y-41160626D01*
X114195000Y-41160626D01*
X114195000Y-39600167D01*
X114651532Y-39061842D01*
X115514188Y-37508766D01*
X115739024Y-36808484D01*
X115678758Y-36075467D01*
X115667536Y-36053630D01*
X117456742Y-36053630D01*
X117550833Y-36783077D01*
X117916909Y-37420992D01*
X118499238Y-37870257D01*
X119209166Y-38062476D01*
X119938613Y-37968385D01*
X120576528Y-37602309D01*
X121025793Y-37019980D01*
X121218012Y-36310052D01*
X121263258Y-35646369D01*
X121169167Y-34916922D01*
X120803091Y-34279008D01*
X120220762Y-33829743D01*
X119510834Y-33637524D01*
X118781387Y-33731614D01*
X118143472Y-34097691D01*
X117694207Y-34680020D01*
X117501988Y-35389948D01*
X117456742Y-36053630D01*
X115667536Y-36053630D01*
X115342567Y-35421309D01*
X114781632Y-34945602D01*
X114195000Y-34757255D01*
X114195000Y-22110626D01*
X114210645Y-22110626D01*
X114610028Y-23077207D01*
X115348904Y-23817373D01*
X116314785Y-24218442D01*
X117360626Y-24219355D01*
X118327207Y-23819972D01*
X119067373Y-23081096D01*
X119468442Y-22115215D01*
X119468643Y-21884267D01*
X120433842Y-21884267D01*
X120659580Y-22430595D01*
X121077206Y-22848951D01*
X121623139Y-23075642D01*
X122214267Y-23076158D01*
X122760595Y-22850420D01*
X123178951Y-22432794D01*
X123405642Y-21886861D01*
X123406158Y-21295733D01*
X123180420Y-20749405D01*
X122762794Y-20331049D01*
X122216861Y-20104358D01*
X121625733Y-20103842D01*
X121079405Y-20329580D01*
X120661049Y-20747206D01*
X120434358Y-21293139D01*
X120433842Y-21884267D01*
X119468643Y-21884267D01*
X119469355Y-21069374D01*
X119069972Y-20102793D01*
X118331096Y-19362627D01*
X117365215Y-18961558D01*
X116319374Y-18960645D01*
X115352793Y-19360028D01*
X114612627Y-20098904D01*
X114211558Y-21064785D01*
X114210645Y-22110626D01*
X114195000Y-22110626D01*
X114195000Y-20550167D01*
X114651532Y-20011842D01*
X115514188Y-18458766D01*
X115739024Y-17758484D01*
X115678758Y-17025467D01*
X115667536Y-17003630D01*
X117456742Y-17003630D01*
X117550833Y-17733077D01*
X117916909Y-18370992D01*
X118499238Y-18820257D01*
X119209166Y-19012476D01*
X119938613Y-18918385D01*
X120576528Y-18552309D01*
X121025793Y-17969980D01*
X121218012Y-17260052D01*
X121263258Y-16596369D01*
X121169167Y-15866922D01*
X120803091Y-15229008D01*
X120220762Y-14779743D01*
X119510834Y-14587524D01*
X118781387Y-14681614D01*
X118143472Y-15047691D01*
X117694207Y-15630020D01*
X117501988Y-16339948D01*
X117456742Y-17003630D01*
X115667536Y-17003630D01*
X115342567Y-16371309D01*
X114781632Y-15895602D01*
X114081350Y-15670766D01*
X113348332Y-15731032D01*
X112694175Y-16067223D01*
X112218467Y-16628158D01*
X111355812Y-18181234D01*
X111130976Y-18881516D01*
X111191242Y-19614533D01*
X111446744Y-20111688D01*
X110919405Y-20329580D01*
X110501049Y-20747206D01*
X110274358Y-21293139D01*
X110273842Y-21884267D01*
X110499580Y-22430595D01*
X110917206Y-22848951D01*
X111463139Y-23075642D01*
X112054267Y-23076158D01*
X112600595Y-22850420D01*
X112675000Y-22776145D01*
X112675000Y-31935198D01*
X111358628Y-30618826D01*
X111362440Y-30600000D01*
X111362440Y-29500000D01*
X111318162Y-29264683D01*
X111179090Y-29048559D01*
X110966890Y-28903569D01*
X110715000Y-28852560D01*
X108715000Y-28852560D01*
X108479683Y-28896838D01*
X108263559Y-29035910D01*
X108118569Y-29248110D01*
X108067560Y-29500000D01*
X108067560Y-30600000D01*
X108111838Y-30835317D01*
X108250910Y-31051441D01*
X108463110Y-31196431D01*
X108715000Y-31247440D01*
X109837638Y-31247440D01*
X110875199Y-32285001D01*
X110715000Y-32252560D01*
X108715000Y-32252560D01*
X108479683Y-32296838D01*
X108263559Y-32435910D01*
X108118569Y-32648110D01*
X108067560Y-32900000D01*
X108067560Y-34000000D01*
X108111838Y-34235317D01*
X108250910Y-34451441D01*
X108255000Y-34454236D01*
X108255000Y-46157074D01*
X108229683Y-46161838D01*
X108013559Y-46300910D01*
X107868569Y-46513110D01*
X107817560Y-46765000D01*
X107817560Y-48765000D01*
X107861838Y-49000317D01*
X108000910Y-49216441D01*
X108213110Y-49361431D01*
X108465000Y-49412440D01*
X109476000Y-49412440D01*
X109476000Y-49723198D01*
X108477599Y-50721599D01*
X108329645Y-50943029D01*
X108229683Y-50961838D01*
X108013559Y-51100910D01*
X107868569Y-51313110D01*
X107817560Y-51565000D01*
X107817560Y-53565000D01*
X107861838Y-53800317D01*
X108000910Y-54016441D01*
X108213110Y-54161431D01*
X108465000Y-54212440D01*
X109476000Y-54212440D01*
X109476000Y-59633198D01*
X106375000Y-56532198D01*
X106375000Y-54172926D01*
X106400317Y-54168162D01*
X106616441Y-54029090D01*
X106761431Y-53816890D01*
X106812440Y-53565000D01*
X106812440Y-51565000D01*
X106768162Y-51329683D01*
X106629090Y-51113559D01*
X106416890Y-50968569D01*
X106165000Y-50917560D01*
X105065000Y-50917560D01*
X104829683Y-50961838D01*
X104613559Y-51100910D01*
X104468569Y-51313110D01*
X104417560Y-51565000D01*
X104417560Y-53565000D01*
X104461838Y-53800317D01*
X104600910Y-54016441D01*
X104813110Y-54161431D01*
X104855000Y-54169914D01*
X104855000Y-56847000D01*
X104912852Y-57137839D01*
X105077599Y-57384401D01*
X108255000Y-60561802D01*
X108255000Y-65207074D01*
X108229683Y-65211838D01*
X108013559Y-65350910D01*
X107868569Y-65563110D01*
X107817560Y-65815000D01*
X107817560Y-67815000D01*
X107861838Y-68050317D01*
X108000910Y-68266441D01*
X108213110Y-68411431D01*
X108465000Y-68462440D01*
X109476000Y-68462440D01*
X109476000Y-69789198D01*
X109297638Y-69967560D01*
X108465000Y-69967560D01*
X108229683Y-70011838D01*
X108013559Y-70150910D01*
X107868569Y-70363110D01*
X107817560Y-70615000D01*
X107817560Y-71737638D01*
X106779999Y-72775199D01*
X106812440Y-72615000D01*
X106812440Y-70615000D01*
X106768162Y-70379683D01*
X106629090Y-70163559D01*
X106416890Y-70018569D01*
X106165000Y-69967560D01*
X105065000Y-69967560D01*
X104829683Y-70011838D01*
X104613559Y-70150910D01*
X104468569Y-70363110D01*
X104417560Y-70615000D01*
X104417560Y-72615000D01*
X104461838Y-72850317D01*
X104600910Y-73066441D01*
X104813110Y-73211431D01*
X105065000Y-73262440D01*
X106165000Y-73262440D01*
X106322369Y-73232829D01*
X106147198Y-73408000D01*
X104708802Y-73408000D01*
X101773122Y-70472320D01*
X101773162Y-70426833D01*
X101631117Y-70083057D01*
X101368327Y-69819808D01*
X101024799Y-69677162D01*
X100652833Y-69676838D01*
X100309057Y-69818883D01*
X100045808Y-70081673D01*
X99903162Y-70425201D01*
X99902838Y-70797167D01*
X100044883Y-71140943D01*
X100307673Y-71404192D01*
X100651201Y-71546838D01*
X100698077Y-71546879D01*
X101047592Y-71896394D01*
X100460834Y-71737524D01*
X99731387Y-71831614D01*
X99093472Y-72197691D01*
X98644207Y-72780020D01*
X98451988Y-73489948D01*
X98406742Y-74153630D01*
X96617536Y-74153630D01*
X96292567Y-73521309D01*
X95731632Y-73045602D01*
X95145000Y-72857255D01*
X95145000Y-67100750D01*
X104430000Y-67100750D01*
X104430000Y-67941310D01*
X104526673Y-68174699D01*
X104705302Y-68353327D01*
X104938691Y-68450000D01*
X105329250Y-68450000D01*
X105488000Y-68291250D01*
X105488000Y-66942000D01*
X105742000Y-66942000D01*
X105742000Y-68291250D01*
X105900750Y-68450000D01*
X106291309Y-68450000D01*
X106524698Y-68353327D01*
X106703327Y-68174699D01*
X106800000Y-67941310D01*
X106800000Y-67100750D01*
X106641250Y-66942000D01*
X105742000Y-66942000D01*
X105488000Y-66942000D01*
X104588750Y-66942000D01*
X104430000Y-67100750D01*
X95145000Y-67100750D01*
X95145000Y-65688690D01*
X104430000Y-65688690D01*
X104430000Y-66529250D01*
X104588750Y-66688000D01*
X105488000Y-66688000D01*
X105488000Y-65338750D01*
X105742000Y-65338750D01*
X105742000Y-66688000D01*
X106641250Y-66688000D01*
X106800000Y-66529250D01*
X106800000Y-65688690D01*
X106703327Y-65455301D01*
X106524698Y-65276673D01*
X106291309Y-65180000D01*
X105900750Y-65180000D01*
X105742000Y-65338750D01*
X105488000Y-65338750D01*
X105329250Y-65180000D01*
X104938691Y-65180000D01*
X104705302Y-65276673D01*
X104526673Y-65455301D01*
X104430000Y-65688690D01*
X95145000Y-65688690D01*
X95145000Y-60210626D01*
X95160645Y-60210626D01*
X95560028Y-61177207D01*
X96298904Y-61917373D01*
X97264785Y-62318442D01*
X98310626Y-62319355D01*
X99277207Y-61919972D01*
X100017373Y-61181096D01*
X100418442Y-60215215D01*
X100418643Y-59984267D01*
X101383842Y-59984267D01*
X101609580Y-60530595D01*
X102027206Y-60948951D01*
X102573139Y-61175642D01*
X103164267Y-61176158D01*
X103710595Y-60950420D01*
X104128951Y-60532794D01*
X104355642Y-59986861D01*
X104356158Y-59395733D01*
X104130420Y-58849405D01*
X103712794Y-58431049D01*
X103166861Y-58204358D01*
X102575733Y-58203842D01*
X102029405Y-58429580D01*
X101611049Y-58847206D01*
X101384358Y-59393139D01*
X101383842Y-59984267D01*
X100418643Y-59984267D01*
X100419355Y-59169374D01*
X100019972Y-58202793D01*
X99281096Y-57462627D01*
X98315215Y-57061558D01*
X97269374Y-57060645D01*
X96302793Y-57460028D01*
X95562627Y-58198904D01*
X95161558Y-59164785D01*
X95160645Y-60210626D01*
X95145000Y-60210626D01*
X95145000Y-58650167D01*
X95601532Y-58111842D01*
X96464188Y-56558766D01*
X96689024Y-55858484D01*
X96628758Y-55125467D01*
X96617536Y-55103630D01*
X98406742Y-55103630D01*
X98500833Y-55833077D01*
X98866909Y-56470992D01*
X99449238Y-56920257D01*
X100159166Y-57112476D01*
X100888613Y-57018385D01*
X101526528Y-56652309D01*
X101975793Y-56069980D01*
X102168012Y-55360052D01*
X102213258Y-54696369D01*
X102119167Y-53966922D01*
X101753091Y-53329008D01*
X101170762Y-52879743D01*
X100460834Y-52687524D01*
X99731387Y-52781614D01*
X99093472Y-53147691D01*
X98644207Y-53730020D01*
X98451988Y-54439948D01*
X98406742Y-55103630D01*
X96617536Y-55103630D01*
X96292567Y-54471309D01*
X95731632Y-53995602D01*
X95145000Y-53807255D01*
X95145000Y-48050750D01*
X104430000Y-48050750D01*
X104430000Y-48891310D01*
X104526673Y-49124699D01*
X104705302Y-49303327D01*
X104938691Y-49400000D01*
X105329250Y-49400000D01*
X105488000Y-49241250D01*
X105488000Y-47892000D01*
X105742000Y-47892000D01*
X105742000Y-49241250D01*
X105900750Y-49400000D01*
X106291309Y-49400000D01*
X106524698Y-49303327D01*
X106703327Y-49124699D01*
X106800000Y-48891310D01*
X106800000Y-48050750D01*
X106641250Y-47892000D01*
X105742000Y-47892000D01*
X105488000Y-47892000D01*
X104588750Y-47892000D01*
X104430000Y-48050750D01*
X95145000Y-48050750D01*
X95145000Y-46638690D01*
X104430000Y-46638690D01*
X104430000Y-47479250D01*
X104588750Y-47638000D01*
X105488000Y-47638000D01*
X105488000Y-46288750D01*
X105742000Y-46288750D01*
X105742000Y-47638000D01*
X106641250Y-47638000D01*
X106800000Y-47479250D01*
X106800000Y-46638690D01*
X106703327Y-46405301D01*
X106524698Y-46226673D01*
X106291309Y-46130000D01*
X105900750Y-46130000D01*
X105742000Y-46288750D01*
X105488000Y-46288750D01*
X105329250Y-46130000D01*
X104938691Y-46130000D01*
X104705302Y-46226673D01*
X104526673Y-46405301D01*
X104430000Y-46638690D01*
X95145000Y-46638690D01*
X95145000Y-41160626D01*
X95160645Y-41160626D01*
X95560028Y-42127207D01*
X96298904Y-42867373D01*
X97264785Y-43268442D01*
X98310626Y-43269355D01*
X99277207Y-42869972D01*
X100017373Y-42131096D01*
X100418442Y-41165215D01*
X100418643Y-40934267D01*
X101383842Y-40934267D01*
X101609580Y-41480595D01*
X102027206Y-41898951D01*
X102573139Y-42125642D01*
X103164267Y-42126158D01*
X103710595Y-41900420D01*
X104128951Y-41482794D01*
X104355642Y-40936861D01*
X104356158Y-40345733D01*
X104130420Y-39799405D01*
X103712794Y-39381049D01*
X103166861Y-39154358D01*
X102575733Y-39153842D01*
X102029405Y-39379580D01*
X101611049Y-39797206D01*
X101384358Y-40343139D01*
X101383842Y-40934267D01*
X100418643Y-40934267D01*
X100419355Y-40119374D01*
X100019972Y-39152793D01*
X99281096Y-38412627D01*
X98315215Y-38011558D01*
X97269374Y-38010645D01*
X96302793Y-38410028D01*
X95562627Y-39148904D01*
X95161558Y-40114785D01*
X95160645Y-41160626D01*
X95145000Y-41160626D01*
X95145000Y-39600167D01*
X95601532Y-39061842D01*
X96464188Y-37508766D01*
X96689024Y-36808484D01*
X96628758Y-36075467D01*
X96617536Y-36053630D01*
X98406742Y-36053630D01*
X98500833Y-36783077D01*
X98866909Y-37420992D01*
X99449238Y-37870257D01*
X100159166Y-38062476D01*
X100888613Y-37968385D01*
X101526528Y-37602309D01*
X101975793Y-37019980D01*
X102168012Y-36310052D01*
X102213258Y-35646369D01*
X102119167Y-34916922D01*
X101753091Y-34279008D01*
X101170762Y-33829743D01*
X100823615Y-33735750D01*
X103280000Y-33735750D01*
X103280000Y-34126309D01*
X103376673Y-34359698D01*
X103555301Y-34538327D01*
X103788690Y-34635000D01*
X104629250Y-34635000D01*
X104788000Y-34476250D01*
X104788000Y-33577000D01*
X105042000Y-33577000D01*
X105042000Y-34476250D01*
X105200750Y-34635000D01*
X106041310Y-34635000D01*
X106274699Y-34538327D01*
X106453327Y-34359698D01*
X106550000Y-34126309D01*
X106550000Y-33735750D01*
X106391250Y-33577000D01*
X105042000Y-33577000D01*
X104788000Y-33577000D01*
X103438750Y-33577000D01*
X103280000Y-33735750D01*
X100823615Y-33735750D01*
X100460834Y-33637524D01*
X99731387Y-33731614D01*
X99093472Y-34097691D01*
X98644207Y-34680020D01*
X98451988Y-35389948D01*
X98406742Y-36053630D01*
X96617536Y-36053630D01*
X96292567Y-35421309D01*
X95731632Y-34945602D01*
X95031350Y-34720766D01*
X94298332Y-34781032D01*
X93644175Y-35117223D01*
X93168467Y-35678158D01*
X92650876Y-36610000D01*
X90392000Y-36610000D01*
X90101161Y-36667852D01*
X89854599Y-36832599D01*
X84013198Y-42674000D01*
X80423521Y-42674000D01*
X80967373Y-42131096D01*
X81368442Y-41165215D01*
X81368643Y-40934267D01*
X82333842Y-40934267D01*
X82559580Y-41480595D01*
X82977206Y-41898951D01*
X83523139Y-42125642D01*
X84114267Y-42126158D01*
X84660595Y-41900420D01*
X85078951Y-41482794D01*
X85305642Y-40936861D01*
X85306158Y-40345733D01*
X85080420Y-39799405D01*
X84662794Y-39381049D01*
X84116861Y-39154358D01*
X83525733Y-39153842D01*
X82979405Y-39379580D01*
X82561049Y-39797206D01*
X82334358Y-40343139D01*
X82333842Y-40934267D01*
X81368643Y-40934267D01*
X81369355Y-40119374D01*
X80969972Y-39152793D01*
X80231096Y-38412627D01*
X79265215Y-38011558D01*
X78219374Y-38010645D01*
X77252793Y-38410028D01*
X76512627Y-39148904D01*
X76111558Y-40114785D01*
X76110645Y-41160626D01*
X76510028Y-42127207D01*
X77055868Y-42674000D01*
X77016463Y-42674000D01*
X76984327Y-42641808D01*
X76640799Y-42499162D01*
X76268833Y-42498838D01*
X76095000Y-42570664D01*
X76095000Y-39600167D01*
X76551532Y-39061842D01*
X77414188Y-37508766D01*
X77639024Y-36808484D01*
X77578758Y-36075467D01*
X77567536Y-36053630D01*
X79356742Y-36053630D01*
X79450833Y-36783077D01*
X79816909Y-37420992D01*
X80399238Y-37870257D01*
X81109166Y-38062476D01*
X81838613Y-37968385D01*
X82476528Y-37602309D01*
X82925793Y-37019980D01*
X83118012Y-36310052D01*
X83163258Y-35646369D01*
X83069167Y-34916922D01*
X82703091Y-34279008D01*
X82120762Y-33829743D01*
X81410834Y-33637524D01*
X80681387Y-33731614D01*
X80043472Y-34097691D01*
X79594207Y-34680020D01*
X79401988Y-35389948D01*
X79356742Y-36053630D01*
X77567536Y-36053630D01*
X77242567Y-35421309D01*
X76681632Y-34945602D01*
X76095000Y-34757255D01*
X76095000Y-34391334D01*
X76267201Y-34462838D01*
X76639167Y-34463162D01*
X76982943Y-34321117D01*
X77246192Y-34058327D01*
X77388838Y-33714799D01*
X77388879Y-33667923D01*
X78413401Y-32643401D01*
X78578148Y-32396839D01*
X78636000Y-32106000D01*
X78636000Y-31757440D01*
X78876000Y-31757440D01*
X79111317Y-31713162D01*
X79327441Y-31574090D01*
X79472431Y-31361890D01*
X79523440Y-31110000D01*
X79523440Y-29970000D01*
X82530442Y-29970000D01*
X82572838Y-30195317D01*
X82679759Y-30361477D01*
X82579569Y-30508110D01*
X82528560Y-30760000D01*
X82528560Y-32260000D01*
X82572838Y-32495317D01*
X82711910Y-32711441D01*
X82924110Y-32856431D01*
X83176000Y-32907440D01*
X85176000Y-32907440D01*
X85178669Y-32906938D01*
X85321673Y-33050192D01*
X85665201Y-33192838D01*
X86037167Y-33193162D01*
X86380943Y-33051117D01*
X86644192Y-32788327D01*
X86654294Y-32764000D01*
X102961000Y-32764000D01*
X103251839Y-32706148D01*
X103329460Y-32654283D01*
X103280000Y-32773691D01*
X103280000Y-33164250D01*
X103438750Y-33323000D01*
X104788000Y-33323000D01*
X104788000Y-32423750D01*
X105042000Y-32423750D01*
X105042000Y-33323000D01*
X106391250Y-33323000D01*
X106550000Y-33164250D01*
X106550000Y-32773691D01*
X106453327Y-32540302D01*
X106274699Y-32361673D01*
X106041310Y-32265000D01*
X105200750Y-32265000D01*
X105042000Y-32423750D01*
X104788000Y-32423750D01*
X104629250Y-32265000D01*
X103788690Y-32265000D01*
X103764982Y-32274820D01*
X104792362Y-31247440D01*
X105915000Y-31247440D01*
X106150317Y-31203162D01*
X106366441Y-31064090D01*
X106511431Y-30851890D01*
X106562440Y-30600000D01*
X106562440Y-29500000D01*
X106518162Y-29264683D01*
X106379090Y-29048559D01*
X106166890Y-28903569D01*
X105915000Y-28852560D01*
X103915000Y-28852560D01*
X103679683Y-28896838D01*
X103463559Y-29035910D01*
X103318569Y-29248110D01*
X103267560Y-29500000D01*
X103267560Y-30600000D01*
X103271145Y-30619053D01*
X102646198Y-31244000D01*
X101281802Y-31244000D01*
X101313619Y-31212183D01*
X101343900Y-31224757D01*
X101899661Y-31225242D01*
X102413303Y-31013010D01*
X102806629Y-30620370D01*
X103019757Y-30107100D01*
X103020242Y-29551339D01*
X102808010Y-29037697D01*
X102415370Y-28644371D01*
X101902100Y-28431243D01*
X101346339Y-28430758D01*
X100832697Y-28642990D01*
X100439371Y-29035630D01*
X100226243Y-29548900D01*
X100225758Y-30104661D01*
X100239143Y-30137055D01*
X99626198Y-30750000D01*
X89711844Y-30750000D01*
X89718226Y-30743618D01*
X89603215Y-30628607D01*
X89845397Y-30559143D01*
X90032144Y-30035698D01*
X90004362Y-29480632D01*
X89845397Y-29096857D01*
X89603213Y-29027392D01*
X88802605Y-29828000D01*
X88816748Y-29842143D01*
X88637143Y-30021748D01*
X88623000Y-30007605D01*
X88608858Y-30021748D01*
X88429253Y-29842143D01*
X88443395Y-29828000D01*
X87642787Y-29027392D01*
X87400603Y-29096857D01*
X87213856Y-29620302D01*
X87241638Y-30175368D01*
X87400603Y-30559143D01*
X87642785Y-30628607D01*
X87527774Y-30743618D01*
X87534156Y-30750000D01*
X85821558Y-30750000D01*
X85779162Y-30524683D01*
X85672241Y-30358523D01*
X85772431Y-30211890D01*
X85823440Y-29960000D01*
X85823440Y-28847787D01*
X87822392Y-28847787D01*
X88623000Y-29648395D01*
X89423608Y-28847787D01*
X89354143Y-28605603D01*
X88830698Y-28418856D01*
X88275632Y-28446638D01*
X87891857Y-28605603D01*
X87822392Y-28847787D01*
X85823440Y-28847787D01*
X85823440Y-28460000D01*
X85779162Y-28224683D01*
X85673518Y-28060508D01*
X85714327Y-28019699D01*
X85811000Y-27786310D01*
X85811000Y-27195750D01*
X85652250Y-27037000D01*
X84303000Y-27037000D01*
X84303000Y-27057000D01*
X84049000Y-27057000D01*
X84049000Y-27037000D01*
X82699750Y-27037000D01*
X82541000Y-27195750D01*
X82541000Y-27786310D01*
X82637673Y-28019699D01*
X82679634Y-28061660D01*
X82579569Y-28208110D01*
X82530585Y-28450000D01*
X79523440Y-28450000D01*
X79523440Y-27310000D01*
X79479162Y-27074683D01*
X79340090Y-26858559D01*
X79127890Y-26713569D01*
X78876000Y-26662560D01*
X76876000Y-26662560D01*
X76640683Y-26706838D01*
X76424559Y-26845910D01*
X76279569Y-27058110D01*
X76228560Y-27310000D01*
X76228560Y-31110000D01*
X76272838Y-31345317D01*
X76411910Y-31561441D01*
X76624110Y-31706431D01*
X76876000Y-31757440D01*
X77116000Y-31757440D01*
X77116000Y-31791198D01*
X76314320Y-32592878D01*
X76268833Y-32592838D01*
X76095000Y-32664664D01*
X76095000Y-26033690D01*
X82541000Y-26033690D01*
X82541000Y-26624250D01*
X82699750Y-26783000D01*
X84049000Y-26783000D01*
X84049000Y-25683750D01*
X84303000Y-25683750D01*
X84303000Y-26783000D01*
X85652250Y-26783000D01*
X85811000Y-26624250D01*
X85811000Y-26033690D01*
X85714327Y-25800301D01*
X85535698Y-25621673D01*
X85302309Y-25525000D01*
X84461750Y-25525000D01*
X84303000Y-25683750D01*
X84049000Y-25683750D01*
X83890250Y-25525000D01*
X83049691Y-25525000D01*
X82816302Y-25621673D01*
X82637673Y-25800301D01*
X82541000Y-26033690D01*
X76095000Y-26033690D01*
X76095000Y-22110626D01*
X76110645Y-22110626D01*
X76510028Y-23077207D01*
X77248904Y-23817373D01*
X78214785Y-24218442D01*
X79260626Y-24219355D01*
X80227207Y-23819972D01*
X80967373Y-23081096D01*
X81368442Y-22115215D01*
X81368643Y-21884267D01*
X82333842Y-21884267D01*
X82559580Y-22430595D01*
X82977206Y-22848951D01*
X83523139Y-23075642D01*
X84114267Y-23076158D01*
X84660595Y-22850420D01*
X85078951Y-22432794D01*
X85305642Y-21886861D01*
X85305644Y-21884267D01*
X91223842Y-21884267D01*
X91449580Y-22430595D01*
X91867206Y-22848951D01*
X92413139Y-23075642D01*
X93004267Y-23076158D01*
X93550595Y-22850420D01*
X93625000Y-22776145D01*
X93625000Y-29358197D01*
X93553162Y-29531201D01*
X93552838Y-29903167D01*
X93694883Y-30246943D01*
X93957673Y-30510192D01*
X94301201Y-30652838D01*
X94673167Y-30653162D01*
X95016943Y-30511117D01*
X95280192Y-30248327D01*
X95422838Y-29904799D01*
X95423162Y-29532833D01*
X95281117Y-29189057D01*
X95145000Y-29052702D01*
X95145000Y-22110626D01*
X95160645Y-22110626D01*
X95560028Y-23077207D01*
X96298904Y-23817373D01*
X97264785Y-24218442D01*
X98310626Y-24219355D01*
X99277207Y-23819972D01*
X100017373Y-23081096D01*
X100418442Y-22115215D01*
X100418643Y-21884267D01*
X101383842Y-21884267D01*
X101609580Y-22430595D01*
X102027206Y-22848951D01*
X102573139Y-23075642D01*
X103164267Y-23076158D01*
X103710595Y-22850420D01*
X104128951Y-22432794D01*
X104355642Y-21886861D01*
X104356158Y-21295733D01*
X104130420Y-20749405D01*
X103712794Y-20331049D01*
X103166861Y-20104358D01*
X102575733Y-20103842D01*
X102029405Y-20329580D01*
X101611049Y-20747206D01*
X101384358Y-21293139D01*
X101383842Y-21884267D01*
X100418643Y-21884267D01*
X100419355Y-21069374D01*
X100019972Y-20102793D01*
X99281096Y-19362627D01*
X98315215Y-18961558D01*
X97269374Y-18960645D01*
X96302793Y-19360028D01*
X95562627Y-20098904D01*
X95161558Y-21064785D01*
X95160645Y-22110626D01*
X95145000Y-22110626D01*
X95145000Y-20550167D01*
X95601532Y-20011842D01*
X96464188Y-18458766D01*
X96689024Y-17758484D01*
X96628758Y-17025467D01*
X96617536Y-17003630D01*
X98406742Y-17003630D01*
X98500833Y-17733077D01*
X98866909Y-18370992D01*
X99449238Y-18820257D01*
X100159166Y-19012476D01*
X100888613Y-18918385D01*
X101526528Y-18552309D01*
X101975793Y-17969980D01*
X102168012Y-17260052D01*
X102213258Y-16596369D01*
X102119167Y-15866922D01*
X101753091Y-15229008D01*
X101170762Y-14779743D01*
X100460834Y-14587524D01*
X99731387Y-14681614D01*
X99093472Y-15047691D01*
X98644207Y-15630020D01*
X98451988Y-16339948D01*
X98406742Y-17003630D01*
X96617536Y-17003630D01*
X96292567Y-16371309D01*
X95731632Y-15895602D01*
X95031350Y-15670766D01*
X94298332Y-15731032D01*
X93644175Y-16067223D01*
X93168467Y-16628158D01*
X92305812Y-18181234D01*
X92080976Y-18881516D01*
X92141242Y-19614533D01*
X92396744Y-20111688D01*
X91869405Y-20329580D01*
X91451049Y-20747206D01*
X91224358Y-21293139D01*
X91223842Y-21884267D01*
X85305644Y-21884267D01*
X85306158Y-21295733D01*
X85080420Y-20749405D01*
X84662794Y-20331049D01*
X84116861Y-20104358D01*
X83525733Y-20103842D01*
X82979405Y-20329580D01*
X82561049Y-20747206D01*
X82334358Y-21293139D01*
X82333842Y-21884267D01*
X81368643Y-21884267D01*
X81369355Y-21069374D01*
X80969972Y-20102793D01*
X80231096Y-19362627D01*
X79265215Y-18961558D01*
X78219374Y-18960645D01*
X77252793Y-19360028D01*
X76512627Y-20098904D01*
X76111558Y-21064785D01*
X76110645Y-22110626D01*
X76095000Y-22110626D01*
X76095000Y-20550167D01*
X76551532Y-20011842D01*
X77414188Y-18458766D01*
X77639024Y-17758484D01*
X77578758Y-17025467D01*
X77567536Y-17003630D01*
X79356742Y-17003630D01*
X79450833Y-17733077D01*
X79816909Y-18370992D01*
X80399238Y-18820257D01*
X81109166Y-19012476D01*
X81838613Y-18918385D01*
X82476528Y-18552309D01*
X82925793Y-17969980D01*
X83118012Y-17260052D01*
X83163258Y-16596369D01*
X83069167Y-15866922D01*
X82703091Y-15229008D01*
X82120762Y-14779743D01*
X81410834Y-14587524D01*
X80681387Y-14681614D01*
X80043472Y-15047691D01*
X79594207Y-15630020D01*
X79401988Y-16339948D01*
X79356742Y-17003630D01*
X77567536Y-17003630D01*
X77242567Y-16371309D01*
X76681632Y-15895602D01*
X75981350Y-15670766D01*
X75248332Y-15731032D01*
X74594175Y-16067223D01*
X74118467Y-16628158D01*
X73255812Y-18181234D01*
X73030976Y-18881516D01*
X73091242Y-19614533D01*
X73346744Y-20111688D01*
X72819405Y-20329580D01*
X72401049Y-20747206D01*
X72174358Y-21293139D01*
X72173842Y-21884267D01*
X72399580Y-22430595D01*
X72817206Y-22848951D01*
X73363139Y-23075642D01*
X73954267Y-23076158D01*
X74500595Y-22850420D01*
X74575000Y-22776145D01*
X74575000Y-35139833D01*
X74118467Y-35678158D01*
X73255812Y-37231234D01*
X73030976Y-37931516D01*
X73091242Y-38664533D01*
X73346744Y-39161688D01*
X72819405Y-39379580D01*
X72401049Y-39797206D01*
X72174358Y-40343139D01*
X72173842Y-40934267D01*
X72399580Y-41480595D01*
X72817206Y-41898951D01*
X73363139Y-42125642D01*
X73954267Y-42126158D01*
X74500595Y-41900420D01*
X74575000Y-41826145D01*
X74575000Y-48360709D01*
X74444327Y-48229808D01*
X74100799Y-48087162D01*
X74053923Y-48087121D01*
X73150000Y-47183198D01*
X73150000Y-45271000D01*
X73092148Y-44980161D01*
X73092148Y-44980160D01*
X72927401Y-44733599D01*
X71104918Y-42911116D01*
X71480303Y-42756010D01*
X71873629Y-42363370D01*
X72086757Y-41850100D01*
X72087242Y-41294339D01*
X71875010Y-40780697D01*
X71665658Y-40570979D01*
X71873629Y-40363370D01*
X72086757Y-39850100D01*
X72087242Y-39294339D01*
X71875010Y-38780697D01*
X71665658Y-38570979D01*
X71873629Y-38363370D01*
X72086757Y-37850100D01*
X72087242Y-37294339D01*
X71875010Y-36780697D01*
X71665658Y-36570979D01*
X71873629Y-36363370D01*
X72086757Y-35850100D01*
X72087242Y-35294339D01*
X71875010Y-34780697D01*
X71665658Y-34570979D01*
X71873629Y-34363370D01*
X72086757Y-33850100D01*
X72087242Y-33294339D01*
X71875010Y-32780697D01*
X71665658Y-32570979D01*
X71873629Y-32363370D01*
X72086757Y-31850100D01*
X72087242Y-31294339D01*
X71875010Y-30780697D01*
X71665658Y-30570979D01*
X71873629Y-30363370D01*
X72086757Y-29850100D01*
X72087242Y-29294339D01*
X71875010Y-28780697D01*
X71665658Y-28570979D01*
X71873629Y-28363370D01*
X72086757Y-27850100D01*
X72087242Y-27294339D01*
X71875010Y-26780697D01*
X71665658Y-26570979D01*
X71873629Y-26363370D01*
X72086757Y-25850100D01*
X72087242Y-25294339D01*
X71875010Y-24780697D01*
X71482370Y-24387371D01*
X70969100Y-24174243D01*
X70413339Y-24173758D01*
X69899697Y-24385990D01*
X69689979Y-24595342D01*
X69482370Y-24387371D01*
X68969100Y-24174243D01*
X68413339Y-24173758D01*
X67899697Y-24385990D01*
X67506371Y-24778630D01*
X67293243Y-25291900D01*
X67292758Y-25847661D01*
X67504990Y-26361303D01*
X67714342Y-26571021D01*
X67506371Y-26778630D01*
X67293243Y-27291900D01*
X67292758Y-27847661D01*
X67504990Y-28361303D01*
X67714342Y-28571021D01*
X67506371Y-28778630D01*
X67293243Y-29291900D01*
X67292758Y-29847661D01*
X67504990Y-30361303D01*
X67714342Y-30571021D01*
X67506371Y-30778630D01*
X67293243Y-31291900D01*
X67292758Y-31847661D01*
X67504990Y-32361303D01*
X67714342Y-32571021D01*
X67506371Y-32778630D01*
X67293243Y-33291900D01*
X67292758Y-33847661D01*
X67504990Y-34361303D01*
X67897630Y-34754629D01*
X68163727Y-34865122D01*
X68690000Y-35391395D01*
X69216302Y-34865093D01*
X69480303Y-34756010D01*
X69690021Y-34546658D01*
X69714342Y-34571021D01*
X69506371Y-34778630D01*
X69395878Y-35044727D01*
X68869605Y-35571000D01*
X69395907Y-36097302D01*
X69504990Y-36361303D01*
X69714342Y-36571021D01*
X69689979Y-36595342D01*
X69482370Y-36387371D01*
X69216273Y-36276878D01*
X68690000Y-35750605D01*
X68163698Y-36276907D01*
X67899697Y-36385990D01*
X67506371Y-36778630D01*
X67293243Y-37291900D01*
X67292758Y-37847661D01*
X67504990Y-38361303D01*
X67714342Y-38571021D01*
X67506371Y-38778630D01*
X67293243Y-39291900D01*
X67292758Y-39847661D01*
X67300007Y-39865205D01*
X63999157Y-36564355D01*
X64068012Y-36310052D01*
X64113258Y-35646369D01*
X64076746Y-35363302D01*
X67280856Y-35363302D01*
X67308638Y-35918368D01*
X67467603Y-36302143D01*
X67709787Y-36371608D01*
X68510395Y-35571000D01*
X67709787Y-34770392D01*
X67467603Y-34839857D01*
X67280856Y-35363302D01*
X64076746Y-35363302D01*
X64019167Y-34916922D01*
X63653091Y-34279008D01*
X63070762Y-33829743D01*
X62360834Y-33637524D01*
X61631387Y-33731614D01*
X60993472Y-34097691D01*
X60544207Y-34680020D01*
X60351988Y-35389948D01*
X60306742Y-36053630D01*
X58517536Y-36053630D01*
X58192567Y-35421309D01*
X57631632Y-34945602D01*
X57045000Y-34757255D01*
X57045000Y-22110626D01*
X57060645Y-22110626D01*
X57460028Y-23077207D01*
X58198904Y-23817373D01*
X59164785Y-24218442D01*
X60210626Y-24219355D01*
X61177207Y-23819972D01*
X61917373Y-23081096D01*
X62318442Y-22115215D01*
X62318643Y-21884267D01*
X63283842Y-21884267D01*
X63509580Y-22430595D01*
X63927206Y-22848951D01*
X64473139Y-23075642D01*
X65064267Y-23076158D01*
X65610595Y-22850420D01*
X66028951Y-22432794D01*
X66255642Y-21886861D01*
X66256158Y-21295733D01*
X66030420Y-20749405D01*
X65612794Y-20331049D01*
X65066861Y-20104358D01*
X64475733Y-20103842D01*
X63929405Y-20329580D01*
X63511049Y-20747206D01*
X63284358Y-21293139D01*
X63283842Y-21884267D01*
X62318643Y-21884267D01*
X62319355Y-21069374D01*
X61919972Y-20102793D01*
X61181096Y-19362627D01*
X60215215Y-18961558D01*
X59169374Y-18960645D01*
X58202793Y-19360028D01*
X57462627Y-20098904D01*
X57061558Y-21064785D01*
X57060645Y-22110626D01*
X57045000Y-22110626D01*
X57045000Y-20550167D01*
X57501532Y-20011842D01*
X58364188Y-18458766D01*
X58589024Y-17758484D01*
X58528758Y-17025467D01*
X58517536Y-17003630D01*
X60306742Y-17003630D01*
X60400833Y-17733077D01*
X60766909Y-18370992D01*
X61349238Y-18820257D01*
X62059166Y-19012476D01*
X62788613Y-18918385D01*
X63426528Y-18552309D01*
X63875793Y-17969980D01*
X64068012Y-17260052D01*
X64113258Y-16596369D01*
X64019167Y-15866922D01*
X63653091Y-15229008D01*
X63070762Y-14779743D01*
X62360834Y-14587524D01*
X61631387Y-14681614D01*
X60993472Y-15047691D01*
X60544207Y-15630020D01*
X60351988Y-16339948D01*
X60306742Y-17003630D01*
X58517536Y-17003630D01*
X58192567Y-16371309D01*
X57631632Y-15895602D01*
X56931350Y-15670766D01*
X56198332Y-15731032D01*
X55544175Y-16067223D01*
X55068467Y-16628158D01*
X54205812Y-18181234D01*
X53980976Y-18881516D01*
X54041242Y-19614533D01*
X54296744Y-20111688D01*
X53769405Y-20329580D01*
X53351049Y-20747206D01*
X53124358Y-21293139D01*
X53123842Y-21884267D01*
X53349580Y-22430595D01*
X53767206Y-22848951D01*
X54313139Y-23075642D01*
X54904267Y-23076158D01*
X55450595Y-22850420D01*
X55525000Y-22776145D01*
X55525000Y-35139833D01*
X55343570Y-35353768D01*
X53023401Y-33033599D01*
X52776839Y-32868852D01*
X52486000Y-32811000D01*
X51887531Y-32811000D01*
X51875010Y-32780697D01*
X51665658Y-32570979D01*
X51873629Y-32363370D01*
X52086757Y-31850100D01*
X52087242Y-31294339D01*
X51875010Y-30780697D01*
X51665658Y-30570979D01*
X51873629Y-30363370D01*
X52086757Y-29850100D01*
X52087242Y-29294339D01*
X51875010Y-28780697D01*
X51665658Y-28570979D01*
X51873629Y-28363370D01*
X52086757Y-27850100D01*
X52087242Y-27294339D01*
X51875010Y-26780697D01*
X51665658Y-26570979D01*
X51873629Y-26363370D01*
X52086757Y-25850100D01*
X52087242Y-25294339D01*
X51875010Y-24780697D01*
X51482370Y-24387371D01*
X50969100Y-24174243D01*
X50413339Y-24173758D01*
X49899697Y-24385990D01*
X49689979Y-24595342D01*
X49482370Y-24387371D01*
X48969100Y-24174243D01*
X48413339Y-24173758D01*
X47899697Y-24385990D01*
X47506371Y-24778630D01*
X47293243Y-25291900D01*
X47292758Y-25847661D01*
X47504990Y-26361303D01*
X47714342Y-26571021D01*
X47506371Y-26778630D01*
X47293243Y-27291900D01*
X47292758Y-27847661D01*
X47504990Y-28361303D01*
X47714342Y-28571021D01*
X47506371Y-28778630D01*
X47293243Y-29291900D01*
X47292758Y-29847661D01*
X47504990Y-30361303D01*
X47714342Y-30571021D01*
X47506371Y-30778630D01*
X47293243Y-31291900D01*
X47292758Y-31847661D01*
X47504990Y-32361303D01*
X47714342Y-32571021D01*
X47506371Y-32778630D01*
X47293243Y-33291900D01*
X47292758Y-33847661D01*
X47504990Y-34361303D01*
X47714342Y-34571021D01*
X47506371Y-34778630D01*
X47492930Y-34811000D01*
X47315802Y-34811000D01*
X38082903Y-25578101D01*
X38040148Y-25363161D01*
X37995000Y-25295592D01*
X37995000Y-22110626D01*
X38010645Y-22110626D01*
X38410028Y-23077207D01*
X39148904Y-23817373D01*
X40114785Y-24218442D01*
X41160626Y-24219355D01*
X42127207Y-23819972D01*
X42867373Y-23081096D01*
X43268442Y-22115215D01*
X43268643Y-21884267D01*
X44233842Y-21884267D01*
X44459580Y-22430595D01*
X44877206Y-22848951D01*
X45423139Y-23075642D01*
X46014267Y-23076158D01*
X46560595Y-22850420D01*
X46978951Y-22432794D01*
X47205642Y-21886861D01*
X47206158Y-21295733D01*
X46980420Y-20749405D01*
X46562794Y-20331049D01*
X46016861Y-20104358D01*
X45425733Y-20103842D01*
X44879405Y-20329580D01*
X44461049Y-20747206D01*
X44234358Y-21293139D01*
X44233842Y-21884267D01*
X43268643Y-21884267D01*
X43269355Y-21069374D01*
X42869972Y-20102793D01*
X42131096Y-19362627D01*
X41165215Y-18961558D01*
X40119374Y-18960645D01*
X39152793Y-19360028D01*
X38412627Y-20098904D01*
X38011558Y-21064785D01*
X38010645Y-22110626D01*
X37995000Y-22110626D01*
X37995000Y-20550167D01*
X38451532Y-20011842D01*
X39314188Y-18458766D01*
X39539024Y-17758484D01*
X39478758Y-17025467D01*
X39467536Y-17003630D01*
X41256742Y-17003630D01*
X41350833Y-17733077D01*
X41716909Y-18370992D01*
X42299238Y-18820257D01*
X43009166Y-19012476D01*
X43738613Y-18918385D01*
X44376528Y-18552309D01*
X44825793Y-17969980D01*
X45018012Y-17260052D01*
X45063258Y-16596369D01*
X44969167Y-15866922D01*
X44603091Y-15229008D01*
X44020762Y-14779743D01*
X43310834Y-14587524D01*
X42581387Y-14681614D01*
X41943472Y-15047691D01*
X41494207Y-15630020D01*
X41301988Y-16339948D01*
X41256742Y-17003630D01*
X39467536Y-17003630D01*
X39142567Y-16371309D01*
X38581632Y-15895602D01*
X37881350Y-15670766D01*
X37148332Y-15731032D01*
X36494175Y-16067223D01*
X36018467Y-16628158D01*
X35155812Y-18181234D01*
X34930976Y-18881516D01*
X34991242Y-19614533D01*
X35246744Y-20111688D01*
X34719405Y-20329580D01*
X34301049Y-20747206D01*
X34074358Y-21293139D01*
X34073842Y-21884267D01*
X28155644Y-21884267D01*
X28156158Y-21295733D01*
X27930420Y-20749405D01*
X27512794Y-20331049D01*
X26966861Y-20104358D01*
X26375733Y-20103842D01*
X25829405Y-20329580D01*
X25411049Y-20747206D01*
X25184358Y-21293139D01*
X25183842Y-21884267D01*
X24218643Y-21884267D01*
X24219355Y-21069374D01*
X23819972Y-20102793D01*
X23081096Y-19362627D01*
X22115215Y-18961558D01*
X21069374Y-18960645D01*
X20102793Y-19360028D01*
X19362627Y-20098904D01*
X18961558Y-21064785D01*
X18960645Y-22110626D01*
X17902726Y-22110626D01*
X17995642Y-21886861D01*
X17996158Y-21295733D01*
X17850652Y-20943582D01*
X18271667Y-20908968D01*
X18925825Y-20572777D01*
X19401532Y-20011842D01*
X20264188Y-18458766D01*
X20489024Y-17758484D01*
X20428758Y-17025467D01*
X20417536Y-17003630D01*
X22206742Y-17003630D01*
X22300833Y-17733077D01*
X22666909Y-18370992D01*
X23249238Y-18820257D01*
X23959166Y-19012476D01*
X24688613Y-18918385D01*
X25326528Y-18552309D01*
X25775793Y-17969980D01*
X25968012Y-17260052D01*
X26013258Y-16596369D01*
X25919167Y-15866922D01*
X25553091Y-15229008D01*
X24970762Y-14779743D01*
X24260834Y-14587524D01*
X23531387Y-14681614D01*
X22893472Y-15047691D01*
X22444207Y-15630020D01*
X22251988Y-16339948D01*
X22206742Y-17003630D01*
X20417536Y-17003630D01*
X20092567Y-16371309D01*
X19531632Y-15895602D01*
X18831350Y-15670766D01*
X18098332Y-15731032D01*
X17444175Y-16067223D01*
X16968467Y-16628158D01*
X16105812Y-18181234D01*
X15880976Y-18881516D01*
X15941242Y-19614533D01*
X16196744Y-20111688D01*
X15669405Y-20329580D01*
X15251049Y-20747206D01*
X15024358Y-21293139D01*
X15023842Y-21884267D01*
X10033000Y-21884267D01*
X10033000Y-12104661D01*
X87225758Y-12104661D01*
X87437990Y-12618303D01*
X87830630Y-13011629D01*
X88343900Y-13224757D01*
X88899661Y-13225242D01*
X89413303Y-13013010D01*
X89806629Y-12620370D01*
X90019757Y-12107100D01*
X90019759Y-12104661D01*
X100225758Y-12104661D01*
X100437990Y-12618303D01*
X100830630Y-13011629D01*
X101343900Y-13224757D01*
X101899661Y-13225242D01*
X102413303Y-13013010D01*
X102806629Y-12620370D01*
X103019757Y-12107100D01*
X103020242Y-11551339D01*
X102808010Y-11037697D01*
X102415370Y-10644371D01*
X101902100Y-10431243D01*
X101346339Y-10430758D01*
X100832697Y-10642990D01*
X100439371Y-11035630D01*
X100226243Y-11548900D01*
X100225758Y-12104661D01*
X90019759Y-12104661D01*
X90020242Y-11551339D01*
X89808010Y-11037697D01*
X89415370Y-10644371D01*
X88902100Y-10431243D01*
X88346339Y-10430758D01*
X87832697Y-10642990D01*
X87439371Y-11035630D01*
X87226243Y-11548900D01*
X87225758Y-12104661D01*
X10033000Y-12104661D01*
X10033000Y-10033000D01*
X128396598Y-10033000D01*
X128143402Y-90043000D01*
X128143402Y-90043000D01*
G37*
X128143402Y-90043000D02*
X10033000Y-90043000D01*
X10033000Y-79034267D01*
X15023842Y-79034267D01*
X15249580Y-79580595D01*
X15667206Y-79998951D01*
X16213139Y-80225642D01*
X16804267Y-80226158D01*
X17350595Y-80000420D01*
X17768951Y-79582794D01*
X17902726Y-79260626D01*
X18960645Y-79260626D01*
X19360028Y-80227207D01*
X20098904Y-80967373D01*
X21064785Y-81368442D01*
X22110626Y-81369355D01*
X23077207Y-80969972D01*
X23817373Y-80231096D01*
X24218442Y-79265215D01*
X24218643Y-79034267D01*
X25183842Y-79034267D01*
X25409580Y-79580595D01*
X25827206Y-79998951D01*
X26373139Y-80225642D01*
X26964267Y-80226158D01*
X27510595Y-80000420D01*
X27928951Y-79582794D01*
X28155642Y-79036861D01*
X28156158Y-78445733D01*
X27930420Y-77899405D01*
X27512794Y-77481049D01*
X26966861Y-77254358D01*
X26375733Y-77253842D01*
X25829405Y-77479580D01*
X25411049Y-77897206D01*
X25184358Y-78443139D01*
X25183842Y-79034267D01*
X24218643Y-79034267D01*
X24219355Y-78219374D01*
X23819972Y-77252793D01*
X23081096Y-76512627D01*
X22115215Y-76111558D01*
X21069374Y-76110645D01*
X20102793Y-76510028D01*
X19362627Y-77248904D01*
X18961558Y-78214785D01*
X18960645Y-79260626D01*
X17902726Y-79260626D01*
X17995642Y-79036861D01*
X17996158Y-78445733D01*
X17850652Y-78093582D01*
X18271667Y-78058968D01*
X18925825Y-77722777D01*
X19401532Y-77161842D01*
X20264188Y-75608766D01*
X20489024Y-74908484D01*
X20428758Y-74175467D01*
X20417536Y-74153630D01*
X22206742Y-74153630D01*
X22300833Y-74883077D01*
X22666909Y-75520992D01*
X23249238Y-75970257D01*
X23959166Y-76162476D01*
X24688613Y-76068385D01*
X25326528Y-75702309D01*
X25775793Y-75119980D01*
X25968012Y-74410052D01*
X26013258Y-73746369D01*
X25919167Y-73016922D01*
X25553091Y-72379008D01*
X24970762Y-71929743D01*
X24260834Y-71737524D01*
X23531387Y-71831614D01*
X22893472Y-72197691D01*
X22444207Y-72780020D01*
X22251988Y-73489948D01*
X22206742Y-74153630D01*
X20417536Y-74153630D01*
X20092567Y-73521309D01*
X19531632Y-73045602D01*
X18831350Y-72820766D01*
X18098332Y-72881032D01*
X17444175Y-73217223D01*
X16968467Y-73778158D01*
X16105812Y-75331234D01*
X15880976Y-76031516D01*
X15941242Y-76764533D01*
X16196744Y-77261688D01*
X15669405Y-77479580D01*
X15251049Y-77897206D01*
X15024358Y-78443139D01*
X15023842Y-79034267D01*
X10033000Y-79034267D01*
X10033000Y-59984267D01*
X15023842Y-59984267D01*
X15249580Y-60530595D01*
X15667206Y-60948951D01*
X16213139Y-61175642D01*
X16804267Y-61176158D01*
X17350595Y-60950420D01*
X17768951Y-60532794D01*
X17995642Y-59986861D01*
X17996158Y-59395733D01*
X17850652Y-59043582D01*
X18271667Y-59008968D01*
X18925825Y-58672777D01*
X19401532Y-58111842D01*
X20264188Y-56558766D01*
X20489024Y-55858484D01*
X20428758Y-55125467D01*
X20417536Y-55103630D01*
X22206742Y-55103630D01*
X22300833Y-55833077D01*
X22666909Y-56470992D01*
X23249238Y-56920257D01*
X23959166Y-57112476D01*
X24688613Y-57018385D01*
X25326528Y-56652309D01*
X25775793Y-56069980D01*
X25968012Y-55360052D01*
X26013258Y-54696369D01*
X25919167Y-53966922D01*
X25553091Y-53329008D01*
X24970762Y-52879743D01*
X24260834Y-52687524D01*
X23531387Y-52781614D01*
X22893472Y-53147691D01*
X22444207Y-53730020D01*
X22251988Y-54439948D01*
X22206742Y-55103630D01*
X20417536Y-55103630D01*
X20092567Y-54471309D01*
X19531632Y-53995602D01*
X18831350Y-53770766D01*
X18098332Y-53831032D01*
X17444175Y-54167223D01*
X16968467Y-54728158D01*
X16105812Y-56281234D01*
X15880976Y-56981516D01*
X15941242Y-57714533D01*
X16196744Y-58211688D01*
X15669405Y-58429580D01*
X15251049Y-58847206D01*
X15024358Y-59393139D01*
X15023842Y-59984267D01*
X10033000Y-59984267D01*
X10033000Y-40934267D01*
X15023842Y-40934267D01*
X15249580Y-41480595D01*
X15667206Y-41898951D01*
X16213139Y-42125642D01*
X16804267Y-42126158D01*
X17350595Y-41900420D01*
X17768951Y-41482794D01*
X17902726Y-41160626D01*
X18960645Y-41160626D01*
X19360028Y-42127207D01*
X20098904Y-42867373D01*
X21064785Y-43268442D01*
X22110626Y-43269355D01*
X23077207Y-42869972D01*
X23817373Y-42131096D01*
X23878000Y-41985090D01*
X23878000Y-47498000D01*
X23935852Y-47788839D01*
X24100599Y-48035401D01*
X27122522Y-51057324D01*
X27118569Y-51063110D01*
X27067560Y-51315000D01*
X27067560Y-52415000D01*
X27111838Y-52650317D01*
X27250910Y-52866441D01*
X27463110Y-53011431D01*
X27715000Y-53062440D01*
X27955000Y-53062440D01*
X27955000Y-54536198D01*
X23956933Y-58534265D01*
X23819972Y-58202793D01*
X23081096Y-57462627D01*
X22115215Y-57061558D01*
X21069374Y-57060645D01*
X20102793Y-57460028D01*
X19362627Y-58198904D01*
X18961558Y-59164785D01*
X18960645Y-60210626D01*
X19360028Y-61177207D01*
X20098904Y-61917373D01*
X21064785Y-62318442D01*
X22110626Y-62319355D01*
X23077207Y-61919972D01*
X23624000Y-61374132D01*
X23624000Y-66584000D01*
X23681852Y-66874839D01*
X23846599Y-67121401D01*
X27071372Y-70346174D01*
X27067560Y-70365000D01*
X27067560Y-71465000D01*
X27111838Y-71700317D01*
X27250910Y-71916441D01*
X27463110Y-72061431D01*
X27715000Y-72112440D01*
X29715000Y-72112440D01*
X29950317Y-72068162D01*
X30166441Y-71929090D01*
X30311431Y-71716890D01*
X30362440Y-71465000D01*
X30362440Y-70365000D01*
X31867560Y-70365000D01*
X31867560Y-71465000D01*
X31911838Y-71700317D01*
X32050910Y-71916441D01*
X32263110Y-72061431D01*
X32515000Y-72112440D01*
X34515000Y-72112440D01*
X34750317Y-72068162D01*
X34966441Y-71929090D01*
X35111431Y-71716890D01*
X35162440Y-71465000D01*
X35162440Y-70365000D01*
X35118162Y-70129683D01*
X34979090Y-69913559D01*
X34766890Y-69768569D01*
X34515000Y-69717560D01*
X32515000Y-69717560D01*
X32279683Y-69761838D01*
X32063559Y-69900910D01*
X31918569Y-70113110D01*
X31867560Y-70365000D01*
X30362440Y-70365000D01*
X30318162Y-70129683D01*
X30179090Y-69913559D01*
X30124684Y-69876385D01*
X30383192Y-69618327D01*
X30525838Y-69274799D01*
X30526162Y-68902833D01*
X30384117Y-68559057D01*
X30242736Y-68417429D01*
X30311431Y-68316890D01*
X30362440Y-68065000D01*
X30362440Y-67800750D01*
X31880000Y-67800750D01*
X31880000Y-68191309D01*
X31976673Y-68424698D01*
X32155301Y-68603327D01*
X32388690Y-68700000D01*
X33229250Y-68700000D01*
X33388000Y-68541250D01*
X33388000Y-67642000D01*
X33642000Y-67642000D01*
X33642000Y-68541250D01*
X33800750Y-68700000D01*
X34641310Y-68700000D01*
X34874699Y-68603327D01*
X35053327Y-68424698D01*
X35150000Y-68191309D01*
X35150000Y-67800750D01*
X34991250Y-67642000D01*
X33642000Y-67642000D01*
X33388000Y-67642000D01*
X32038750Y-67642000D01*
X31880000Y-67800750D01*
X30362440Y-67800750D01*
X30362440Y-66965000D01*
X30338674Y-66838691D01*
X31880000Y-66838691D01*
X31880000Y-67229250D01*
X32038750Y-67388000D01*
X33388000Y-67388000D01*
X33388000Y-66488750D01*
X33642000Y-66488750D01*
X33642000Y-67388000D01*
X34991250Y-67388000D01*
X35150000Y-67229250D01*
X35150000Y-66838691D01*
X35053327Y-66605302D01*
X34874699Y-66426673D01*
X34641310Y-66330000D01*
X33800750Y-66330000D01*
X33642000Y-66488750D01*
X33388000Y-66488750D01*
X33229250Y-66330000D01*
X32388690Y-66330000D01*
X32155301Y-66426673D01*
X31976673Y-66605302D01*
X31880000Y-66838691D01*
X30338674Y-66838691D01*
X30318162Y-66729683D01*
X30179090Y-66513559D01*
X29966890Y-66368569D01*
X29715000Y-66317560D01*
X29475000Y-66317560D01*
X29475000Y-56979802D01*
X33392362Y-53062440D01*
X34515000Y-53062440D01*
X34750317Y-53018162D01*
X34966441Y-52879090D01*
X35111431Y-52666890D01*
X35162440Y-52415000D01*
X35162440Y-51315000D01*
X35118162Y-51079683D01*
X34979090Y-50863559D01*
X34766890Y-50718569D01*
X34515000Y-50667560D01*
X32515000Y-50667560D01*
X32279683Y-50711838D01*
X32063559Y-50850910D01*
X31918569Y-51063110D01*
X31867560Y-51315000D01*
X31867560Y-52415000D01*
X31871145Y-52434053D01*
X29475000Y-54830198D01*
X29475000Y-53062440D01*
X29715000Y-53062440D01*
X29950317Y-53018162D01*
X30166441Y-52879090D01*
X30311431Y-52666890D01*
X30362440Y-52415000D01*
X30362440Y-51315000D01*
X30318162Y-51079683D01*
X30193005Y-50885183D01*
X30383192Y-50695327D01*
X30525838Y-50351799D01*
X30526162Y-49979833D01*
X30384117Y-49636057D01*
X30191221Y-49442824D01*
X30311431Y-49266890D01*
X30362440Y-49015000D01*
X30362440Y-48750750D01*
X31880000Y-48750750D01*
X31880000Y-49141309D01*
X31976673Y-49374698D01*
X32155301Y-49553327D01*
X32388690Y-49650000D01*
X33229250Y-49650000D01*
X33388000Y-49491250D01*
X33388000Y-48592000D01*
X33642000Y-48592000D01*
X33642000Y-49491250D01*
X33800750Y-49650000D01*
X34641310Y-49650000D01*
X34874699Y-49553327D01*
X35053327Y-49374698D01*
X35150000Y-49141309D01*
X35150000Y-48750750D01*
X34991250Y-48592000D01*
X33642000Y-48592000D01*
X33388000Y-48592000D01*
X32038750Y-48592000D01*
X31880000Y-48750750D01*
X30362440Y-48750750D01*
X30362440Y-47915000D01*
X30338674Y-47788691D01*
X31880000Y-47788691D01*
X31880000Y-48179250D01*
X32038750Y-48338000D01*
X33388000Y-48338000D01*
X33388000Y-47438750D01*
X33642000Y-47438750D01*
X33642000Y-48338000D01*
X34991250Y-48338000D01*
X35150000Y-48179250D01*
X35150000Y-47788691D01*
X35053327Y-47555302D01*
X34874699Y-47376673D01*
X34641310Y-47280000D01*
X33800750Y-47280000D01*
X33642000Y-47438750D01*
X33388000Y-47438750D01*
X33229250Y-47280000D01*
X32388690Y-47280000D01*
X32155301Y-47376673D01*
X31976673Y-47555302D01*
X31880000Y-47788691D01*
X30338674Y-47788691D01*
X30318162Y-47679683D01*
X30179090Y-47463559D01*
X29966890Y-47318569D01*
X29715000Y-47267560D01*
X29475000Y-47267560D01*
X29475000Y-37929802D01*
X33392362Y-34012440D01*
X34515000Y-34012440D01*
X34750317Y-33968162D01*
X34966441Y-33829090D01*
X35111431Y-33616890D01*
X35162440Y-33365000D01*
X35162440Y-32265000D01*
X35118162Y-32029683D01*
X34979090Y-31813559D01*
X34766890Y-31668569D01*
X34515000Y-31617560D01*
X32515000Y-31617560D01*
X32279683Y-31661838D01*
X32063559Y-31800910D01*
X31918569Y-32013110D01*
X31867560Y-32265000D01*
X31867560Y-33365000D01*
X31871145Y-33384053D01*
X29416723Y-35838475D01*
X29417148Y-35837839D01*
X29475000Y-35547000D01*
X29475000Y-34012440D01*
X29715000Y-34012440D01*
X29950317Y-33968162D01*
X30166441Y-33829090D01*
X30311431Y-33616890D01*
X30362440Y-33365000D01*
X30362440Y-32265000D01*
X30318162Y-32029683D01*
X30179090Y-31813559D01*
X29966890Y-31668569D01*
X29715000Y-31617560D01*
X28592362Y-31617560D01*
X27554801Y-30579999D01*
X27715000Y-30612440D01*
X29715000Y-30612440D01*
X29950317Y-30568162D01*
X30166441Y-30429090D01*
X30311431Y-30216890D01*
X30362440Y-29965000D01*
X30362440Y-29700750D01*
X31880000Y-29700750D01*
X31880000Y-30091309D01*
X31976673Y-30324698D01*
X32155301Y-30503327D01*
X32388690Y-30600000D01*
X33229250Y-30600000D01*
X33388000Y-30441250D01*
X33388000Y-29542000D01*
X33642000Y-29542000D01*
X33642000Y-30441250D01*
X33800750Y-30600000D01*
X34641310Y-30600000D01*
X34874699Y-30503327D01*
X35053327Y-30324698D01*
X35150000Y-30091309D01*
X35150000Y-29700750D01*
X34991250Y-29542000D01*
X33642000Y-29542000D01*
X33388000Y-29542000D01*
X32038750Y-29542000D01*
X31880000Y-29700750D01*
X30362440Y-29700750D01*
X30362440Y-28865000D01*
X30338674Y-28738691D01*
X31880000Y-28738691D01*
X31880000Y-29129250D01*
X32038750Y-29288000D01*
X33388000Y-29288000D01*
X33388000Y-28388750D01*
X33642000Y-28388750D01*
X33642000Y-29288000D01*
X34991250Y-29288000D01*
X35150000Y-29129250D01*
X35150000Y-28738691D01*
X35053327Y-28505302D01*
X34874699Y-28326673D01*
X34641310Y-28230000D01*
X33800750Y-28230000D01*
X33642000Y-28388750D01*
X33388000Y-28388750D01*
X33229250Y-28230000D01*
X32388690Y-28230000D01*
X32155301Y-28326673D01*
X31976673Y-28505302D01*
X31880000Y-28738691D01*
X30338674Y-28738691D01*
X30318162Y-28629683D01*
X30179090Y-28413559D01*
X29966890Y-28268569D01*
X29715000Y-28217560D01*
X27715000Y-28217560D01*
X27479683Y-28261838D01*
X27263559Y-28400910D01*
X27176000Y-28529057D01*
X27176000Y-27746802D01*
X27492802Y-27430000D01*
X28365962Y-27430000D01*
X28384838Y-27530317D01*
X28523910Y-27746441D01*
X28736110Y-27891431D01*
X28988000Y-27942440D01*
X30488000Y-27942440D01*
X30723317Y-27898162D01*
X30939441Y-27759090D01*
X30985969Y-27690994D01*
X31128302Y-27833327D01*
X31361691Y-27930000D01*
X31952250Y-27930000D01*
X32111000Y-27771250D01*
X32111000Y-26797000D01*
X32365000Y-26797000D01*
X32365000Y-27771250D01*
X32523750Y-27930000D01*
X33114309Y-27930000D01*
X33347698Y-27833327D01*
X33526327Y-27654699D01*
X33623000Y-27421310D01*
X33623000Y-26955750D01*
X33464250Y-26797000D01*
X32365000Y-26797000D01*
X32111000Y-26797000D01*
X32091000Y-26797000D01*
X32091000Y-26543000D01*
X32111000Y-26543000D01*
X32111000Y-25568750D01*
X32365000Y-25568750D01*
X32365000Y-26543000D01*
X33464250Y-26543000D01*
X33623000Y-26384250D01*
X33623000Y-25918690D01*
X33526327Y-25685301D01*
X33347698Y-25506673D01*
X33114309Y-25410000D01*
X32523750Y-25410000D01*
X32365000Y-25568750D01*
X32111000Y-25568750D01*
X31952250Y-25410000D01*
X31361691Y-25410000D01*
X31128302Y-25506673D01*
X30987064Y-25647910D01*
X30952090Y-25593559D01*
X30739890Y-25448569D01*
X30488000Y-25397560D01*
X28988000Y-25397560D01*
X28752683Y-25441838D01*
X28536559Y-25580910D01*
X28391569Y-25793110D01*
X28367898Y-25910000D01*
X27178000Y-25910000D01*
X26887161Y-25967852D01*
X26640599Y-26132599D01*
X25878599Y-26894599D01*
X25713852Y-27141161D01*
X25656000Y-27432000D01*
X25656000Y-30516000D01*
X25713852Y-30806839D01*
X25878599Y-31053401D01*
X27071372Y-32246174D01*
X27067560Y-32265000D01*
X27067560Y-33365000D01*
X27111838Y-33600317D01*
X27250910Y-33816441D01*
X27463110Y-33961431D01*
X27715000Y-34012440D01*
X27955000Y-34012440D01*
X27955000Y-35232198D01*
X24100599Y-39086599D01*
X23935852Y-39333161D01*
X23922413Y-39400720D01*
X23819972Y-39152793D01*
X23081096Y-38412627D01*
X22115215Y-38011558D01*
X21069374Y-38010645D01*
X20102793Y-38410028D01*
X19362627Y-39148904D01*
X18961558Y-40114785D01*
X18960645Y-41160626D01*
X17902726Y-41160626D01*
X17995642Y-40936861D01*
X17996158Y-40345733D01*
X17850652Y-39993582D01*
X18271667Y-39958968D01*
X18925825Y-39622777D01*
X19401532Y-39061842D01*
X20264188Y-37508766D01*
X20489024Y-36808484D01*
X20428758Y-36075467D01*
X20417536Y-36053630D01*
X22206742Y-36053630D01*
X22300833Y-36783077D01*
X22666909Y-37420992D01*
X23249238Y-37870257D01*
X23959166Y-38062476D01*
X24688613Y-37968385D01*
X25326528Y-37602309D01*
X25775793Y-37019980D01*
X25968012Y-36310052D01*
X26013258Y-35646369D01*
X25919167Y-34916922D01*
X25553091Y-34279008D01*
X24970762Y-33829743D01*
X24260834Y-33637524D01*
X23531387Y-33731614D01*
X22893472Y-34097691D01*
X22444207Y-34680020D01*
X22251988Y-35389948D01*
X22206742Y-36053630D01*
X20417536Y-36053630D01*
X20092567Y-35421309D01*
X19531632Y-34945602D01*
X18831350Y-34720766D01*
X18098332Y-34781032D01*
X17444175Y-35117223D01*
X16968467Y-35678158D01*
X16105812Y-37231234D01*
X15880976Y-37931516D01*
X15941242Y-38664533D01*
X16196744Y-39161688D01*
X15669405Y-39379580D01*
X15251049Y-39797206D01*
X15024358Y-40343139D01*
X15023842Y-40934267D01*
X10033000Y-40934267D01*
X10033000Y-21884267D01*
X15023842Y-21884267D01*
X15249580Y-22430595D01*
X15667206Y-22848951D01*
X16213139Y-23075642D01*
X16804267Y-23076158D01*
X17350595Y-22850420D01*
X17768951Y-22432794D01*
X17902726Y-22110626D01*
X18960645Y-22110626D01*
X19360028Y-23077207D01*
X20098904Y-23817373D01*
X21064785Y-24218442D01*
X22110626Y-24219355D01*
X23077207Y-23819972D01*
X23817373Y-23081096D01*
X24218442Y-22115215D01*
X24218643Y-21884267D01*
X25183842Y-21884267D01*
X25409580Y-22430595D01*
X25827206Y-22848951D01*
X26373139Y-23075642D01*
X26964267Y-23076158D01*
X27510595Y-22850420D01*
X27928951Y-22432794D01*
X28155642Y-21886861D01*
X28155644Y-21884267D01*
X34073842Y-21884267D01*
X34299580Y-22430595D01*
X34717206Y-22848951D01*
X35263139Y-23075642D01*
X35854267Y-23076158D01*
X36400595Y-22850420D01*
X36475000Y-22776145D01*
X36475000Y-35139833D01*
X36018467Y-35678158D01*
X35155812Y-37231234D01*
X34930976Y-37931516D01*
X34991242Y-38664533D01*
X35246744Y-39161688D01*
X34719405Y-39379580D01*
X34301049Y-39797206D01*
X34074358Y-40343139D01*
X34073842Y-40934267D01*
X34299580Y-41480595D01*
X34717206Y-41898951D01*
X35263139Y-42125642D01*
X35854267Y-42126158D01*
X36400595Y-41900420D01*
X36475000Y-41826145D01*
X36475000Y-54189833D01*
X36018467Y-54728158D01*
X35155812Y-56281234D01*
X34930976Y-56981516D01*
X34991242Y-57714533D01*
X35246744Y-58211688D01*
X34719405Y-58429580D01*
X34301049Y-58847206D01*
X34074358Y-59393139D01*
X34073842Y-59984267D01*
X34299580Y-60530595D01*
X34717206Y-60948951D01*
X35263139Y-61175642D01*
X35854267Y-61176158D01*
X36400595Y-60950420D01*
X36475000Y-60876145D01*
X36475000Y-73239833D01*
X36018467Y-73778158D01*
X35155812Y-75331234D01*
X34930976Y-76031516D01*
X34991242Y-76764533D01*
X35246744Y-77261688D01*
X34719405Y-77479580D01*
X34301049Y-77897206D01*
X34074358Y-78443139D01*
X34073842Y-79034267D01*
X34299580Y-79580595D01*
X34717206Y-79998951D01*
X35263139Y-80225642D01*
X35854267Y-80226158D01*
X36400595Y-80000420D01*
X36818951Y-79582794D01*
X36952726Y-79260626D01*
X38010645Y-79260626D01*
X38410028Y-80227207D01*
X39148904Y-80967373D01*
X40114785Y-81368442D01*
X41160626Y-81369355D01*
X42127207Y-80969972D01*
X42867373Y-80231096D01*
X43268442Y-79265215D01*
X43268643Y-79034267D01*
X44233842Y-79034267D01*
X44459580Y-79580595D01*
X44877206Y-79998951D01*
X45423139Y-80225642D01*
X46014267Y-80226158D01*
X46560595Y-80000420D01*
X46978951Y-79582794D01*
X47205642Y-79036861D01*
X47206158Y-78445733D01*
X46980420Y-77899405D01*
X46562794Y-77481049D01*
X46016861Y-77254358D01*
X45425733Y-77253842D01*
X44879405Y-77479580D01*
X44461049Y-77897206D01*
X44234358Y-78443139D01*
X44233842Y-79034267D01*
X43268643Y-79034267D01*
X43269355Y-78219374D01*
X42869972Y-77252793D01*
X42131096Y-76512627D01*
X41165215Y-76111558D01*
X40119374Y-76110645D01*
X39152793Y-76510028D01*
X38412627Y-77248904D01*
X38011558Y-78214785D01*
X38010645Y-79260626D01*
X36952726Y-79260626D01*
X37045642Y-79036861D01*
X37046158Y-78445733D01*
X36900652Y-78093582D01*
X37321667Y-78058968D01*
X37975825Y-77722777D01*
X38451532Y-77161842D01*
X39314188Y-75608766D01*
X39539024Y-74908484D01*
X39478758Y-74175467D01*
X39467536Y-74153630D01*
X41256742Y-74153630D01*
X41350833Y-74883077D01*
X41716909Y-75520992D01*
X42299238Y-75970257D01*
X43009166Y-76162476D01*
X43738613Y-76068385D01*
X44376528Y-75702309D01*
X44825793Y-75119980D01*
X45018012Y-74410052D01*
X45063258Y-73746369D01*
X44969167Y-73016922D01*
X44603091Y-72379008D01*
X44020762Y-71929743D01*
X43310834Y-71737524D01*
X42581387Y-71831614D01*
X41943472Y-72197691D01*
X41494207Y-72780020D01*
X41301988Y-73489948D01*
X41256742Y-74153630D01*
X39467536Y-74153630D01*
X39142567Y-73521309D01*
X38581632Y-73045602D01*
X37995000Y-72857255D01*
X37995000Y-68003167D01*
X41482838Y-68003167D01*
X41624883Y-68346943D01*
X41887673Y-68610192D01*
X42231201Y-68752838D01*
X42278077Y-68752879D01*
X44977599Y-71452401D01*
X45224160Y-71617148D01*
X45272414Y-71626746D01*
X45515000Y-71675000D01*
X46157074Y-71675000D01*
X46161838Y-71700317D01*
X46300910Y-71916441D01*
X46513110Y-72061431D01*
X46765000Y-72112440D01*
X48765000Y-72112440D01*
X49000317Y-72068162D01*
X49216441Y-71929090D01*
X49361431Y-71716890D01*
X49412440Y-71465000D01*
X49412440Y-70365000D01*
X49368162Y-70129683D01*
X49243005Y-69935183D01*
X49433192Y-69745327D01*
X49575838Y-69401799D01*
X49576162Y-69029833D01*
X49434117Y-68686057D01*
X49241221Y-68492824D01*
X49361431Y-68316890D01*
X49412440Y-68065000D01*
X49412440Y-67800750D01*
X50930000Y-67800750D01*
X50930000Y-68191309D01*
X51026673Y-68424698D01*
X51205301Y-68603327D01*
X51438690Y-68700000D01*
X52279250Y-68700000D01*
X52438000Y-68541250D01*
X52438000Y-67642000D01*
X51088750Y-67642000D01*
X50930000Y-67800750D01*
X49412440Y-67800750D01*
X49412440Y-66965000D01*
X49388674Y-66838691D01*
X50930000Y-66838691D01*
X50930000Y-67229250D01*
X51088750Y-67388000D01*
X52438000Y-67388000D01*
X52438000Y-66488750D01*
X52279250Y-66330000D01*
X51438690Y-66330000D01*
X51205301Y-66426673D01*
X51026673Y-66605302D01*
X50930000Y-66838691D01*
X49388674Y-66838691D01*
X49368162Y-66729683D01*
X49229090Y-66513559D01*
X49016890Y-66368569D01*
X48765000Y-66317560D01*
X46765000Y-66317560D01*
X46529683Y-66361838D01*
X46313559Y-66500910D01*
X46168569Y-66713110D01*
X46117560Y-66965000D01*
X46117560Y-68065000D01*
X46161838Y-68300317D01*
X46300910Y-68516441D01*
X46513110Y-68661431D01*
X46765000Y-68712440D01*
X47837278Y-68712440D01*
X47706162Y-69028201D01*
X47706121Y-69075077D01*
X47227599Y-69553599D01*
X47118044Y-69717560D01*
X46765000Y-69717560D01*
X46529683Y-69761838D01*
X46313559Y-69900910D01*
X46168569Y-70113110D01*
X46160086Y-70155000D01*
X45829802Y-70155000D01*
X43353122Y-67678320D01*
X43353162Y-67632833D01*
X43211117Y-67289057D01*
X42948327Y-67025808D01*
X42604799Y-66883162D01*
X42232833Y-66882838D01*
X41889057Y-67024883D01*
X41625808Y-67287673D01*
X41483162Y-67631201D01*
X41482838Y-68003167D01*
X37995000Y-68003167D01*
X37995000Y-60210626D01*
X38010645Y-60210626D01*
X38410028Y-61177207D01*
X39148904Y-61917373D01*
X40114785Y-62318442D01*
X41160626Y-62319355D01*
X42127207Y-61919972D01*
X42867373Y-61181096D01*
X43268442Y-60215215D01*
X43268643Y-59984267D01*
X44233842Y-59984267D01*
X44459580Y-60530595D01*
X44877206Y-60948951D01*
X45423139Y-61175642D01*
X46014267Y-61176158D01*
X46560595Y-60950420D01*
X46978951Y-60532794D01*
X47205642Y-59986861D01*
X47206158Y-59395733D01*
X46980420Y-58849405D01*
X46562794Y-58431049D01*
X46016861Y-58204358D01*
X45425733Y-58203842D01*
X44879405Y-58429580D01*
X44461049Y-58847206D01*
X44234358Y-59393139D01*
X44233842Y-59984267D01*
X43268643Y-59984267D01*
X43269355Y-59169374D01*
X42869972Y-58202793D01*
X42131096Y-57462627D01*
X41165215Y-57061558D01*
X40119374Y-57060645D01*
X39152793Y-57460028D01*
X38412627Y-58198904D01*
X38011558Y-59164785D01*
X38010645Y-60210626D01*
X37995000Y-60210626D01*
X37995000Y-58650167D01*
X38451532Y-58111842D01*
X39314188Y-56558766D01*
X39539024Y-55858484D01*
X39478758Y-55125467D01*
X39467536Y-55103630D01*
X41256742Y-55103630D01*
X41350833Y-55833077D01*
X41716909Y-56470992D01*
X42299238Y-56920257D01*
X43009166Y-57112476D01*
X43738613Y-57018385D01*
X44376528Y-56652309D01*
X44825793Y-56069980D01*
X45018012Y-55360052D01*
X45063258Y-54696369D01*
X44969167Y-53966922D01*
X44603091Y-53329008D01*
X44020762Y-52879743D01*
X43310834Y-52687524D01*
X42581387Y-52781614D01*
X41943472Y-53147691D01*
X41494207Y-53730020D01*
X41301988Y-54439948D01*
X41256742Y-55103630D01*
X39467536Y-55103630D01*
X39142567Y-54471309D01*
X38581632Y-53995602D01*
X37995000Y-53807255D01*
X37995000Y-41160626D01*
X38010645Y-41160626D01*
X38410028Y-42127207D01*
X39148904Y-42867373D01*
X40114785Y-43268442D01*
X41160626Y-43269355D01*
X42127207Y-42869972D01*
X42867373Y-42131096D01*
X43268442Y-41165215D01*
X43268643Y-40934267D01*
X44233842Y-40934267D01*
X44459580Y-41480595D01*
X44877206Y-41898951D01*
X45423139Y-42125642D01*
X46014267Y-42126158D01*
X46560595Y-41900420D01*
X46978951Y-41482794D01*
X47205642Y-40936861D01*
X47206158Y-40345733D01*
X46980420Y-39799405D01*
X46562794Y-39381049D01*
X46016861Y-39154358D01*
X45425733Y-39153842D01*
X44879405Y-39379580D01*
X44461049Y-39797206D01*
X44234358Y-40343139D01*
X44233842Y-40934267D01*
X43268643Y-40934267D01*
X43269355Y-40119374D01*
X42869972Y-39152793D01*
X42131096Y-38412627D01*
X41165215Y-38011558D01*
X40119374Y-38010645D01*
X39152793Y-38410028D01*
X38412627Y-39148904D01*
X38011558Y-40114785D01*
X38010645Y-41160626D01*
X37995000Y-41160626D01*
X37995000Y-39600167D01*
X38451532Y-39061842D01*
X39314188Y-37508766D01*
X39539024Y-36808484D01*
X39478758Y-36075467D01*
X39467536Y-36053630D01*
X41256742Y-36053630D01*
X41350833Y-36783077D01*
X41716909Y-37420992D01*
X42299238Y-37870257D01*
X43009166Y-38062476D01*
X43738613Y-37968385D01*
X44376528Y-37602309D01*
X44825793Y-37019980D01*
X45018012Y-36310052D01*
X45063258Y-35646369D01*
X44969167Y-34916922D01*
X44603091Y-34279008D01*
X44020762Y-33829743D01*
X43310834Y-33637524D01*
X42581387Y-33731614D01*
X41943472Y-34097691D01*
X41494207Y-34680020D01*
X41301988Y-35389948D01*
X41256742Y-36053630D01*
X39467536Y-36053630D01*
X39142567Y-35421309D01*
X38581632Y-34945602D01*
X37995000Y-34757255D01*
X37995000Y-27639802D01*
X46463599Y-36108401D01*
X46710161Y-36273148D01*
X47001000Y-36331000D01*
X47492469Y-36331000D01*
X47504990Y-36361303D01*
X47714342Y-36571021D01*
X47506371Y-36778630D01*
X47293243Y-37291900D01*
X47292758Y-37847661D01*
X47504990Y-38361303D01*
X47714342Y-38571021D01*
X47506371Y-38778630D01*
X47293243Y-39291900D01*
X47292758Y-39847661D01*
X47504990Y-40361303D01*
X47714342Y-40571021D01*
X47506371Y-40778630D01*
X47293243Y-41291900D01*
X47292758Y-41847661D01*
X47504990Y-42361303D01*
X47897630Y-42754629D01*
X47930000Y-42768070D01*
X47930000Y-60628000D01*
X47987852Y-60918839D01*
X48152599Y-61165401D01*
X51642878Y-64655680D01*
X51642838Y-64701167D01*
X51784883Y-65044943D01*
X52047673Y-65308192D01*
X52391201Y-65450838D01*
X52763167Y-65451162D01*
X53106943Y-65309117D01*
X53370192Y-65046327D01*
X53512838Y-64702799D01*
X53513020Y-64493822D01*
X54104000Y-65084802D01*
X54104000Y-66606927D01*
X54103327Y-66605302D01*
X53924699Y-66426673D01*
X53691310Y-66330000D01*
X52850750Y-66330000D01*
X52692000Y-66488750D01*
X52692000Y-67388000D01*
X52712000Y-67388000D01*
X52712000Y-67642000D01*
X52692000Y-67642000D01*
X52692000Y-68541250D01*
X52850750Y-68700000D01*
X53691310Y-68700000D01*
X53924699Y-68603327D01*
X54103327Y-68424698D01*
X54104000Y-68423073D01*
X54104000Y-70029972D01*
X54029090Y-69913559D01*
X53816890Y-69768569D01*
X53565000Y-69717560D01*
X51565000Y-69717560D01*
X51329683Y-69761838D01*
X51113559Y-69900910D01*
X50968569Y-70113110D01*
X50917560Y-70365000D01*
X50917560Y-71465000D01*
X50961838Y-71700317D01*
X51100910Y-71916441D01*
X51313110Y-72061431D01*
X51565000Y-72112440D01*
X53565000Y-72112440D01*
X53800317Y-72068162D01*
X54016441Y-71929090D01*
X54104000Y-71800943D01*
X54104000Y-73599198D01*
X49754599Y-77948599D01*
X49589852Y-78195161D01*
X49532000Y-78486000D01*
X49532000Y-80711198D01*
X47550707Y-82692491D01*
X47273857Y-82806883D01*
X47010608Y-83069673D01*
X46867962Y-83413201D01*
X46867638Y-83785167D01*
X47009683Y-84128943D01*
X47272473Y-84392192D01*
X47616001Y-84534838D01*
X47987967Y-84535162D01*
X48331743Y-84393117D01*
X48594992Y-84130327D01*
X48737638Y-83786799D01*
X48737753Y-83655049D01*
X50829401Y-81563401D01*
X50994148Y-81316840D01*
X51003746Y-81268586D01*
X51052000Y-81026000D01*
X51052000Y-78800802D01*
X54056493Y-75796309D01*
X53980976Y-76031516D01*
X54041242Y-76764533D01*
X54296744Y-77261688D01*
X53769405Y-77479580D01*
X53351049Y-77897206D01*
X53124358Y-78443139D01*
X53123842Y-79034267D01*
X53349580Y-79580595D01*
X53767206Y-79998951D01*
X54313139Y-80225642D01*
X54904267Y-80226158D01*
X55450595Y-80000420D01*
X55868951Y-79582794D01*
X56002726Y-79260626D01*
X57060645Y-79260626D01*
X57460028Y-80227207D01*
X58198904Y-80967373D01*
X59164785Y-81368442D01*
X60210626Y-81369355D01*
X61177207Y-80969972D01*
X61917373Y-80231096D01*
X62318442Y-79265215D01*
X62318643Y-79034267D01*
X63283842Y-79034267D01*
X63509580Y-79580595D01*
X63927206Y-79998951D01*
X64473139Y-80225642D01*
X65064267Y-80226158D01*
X65610595Y-80000420D01*
X66028951Y-79582794D01*
X66255642Y-79036861D01*
X66256158Y-78445733D01*
X66030420Y-77899405D01*
X65612794Y-77481049D01*
X65066861Y-77254358D01*
X64475733Y-77253842D01*
X63929405Y-77479580D01*
X63511049Y-77897206D01*
X63284358Y-78443139D01*
X63283842Y-79034267D01*
X62318643Y-79034267D01*
X62319355Y-78219374D01*
X61919972Y-77252793D01*
X61181096Y-76512627D01*
X60215215Y-76111558D01*
X59169374Y-76110645D01*
X58202793Y-76510028D01*
X57462627Y-77248904D01*
X57061558Y-78214785D01*
X57060645Y-79260626D01*
X56002726Y-79260626D01*
X56095642Y-79036861D01*
X56096158Y-78445733D01*
X55950652Y-78093582D01*
X56371667Y-78058968D01*
X57025825Y-77722777D01*
X57501532Y-77161842D01*
X58364188Y-75608766D01*
X58589024Y-74908484D01*
X58528758Y-74175467D01*
X58517536Y-74153630D01*
X60306742Y-74153630D01*
X60400833Y-74883077D01*
X60766909Y-75520992D01*
X61349238Y-75970257D01*
X62059166Y-76162476D01*
X62788613Y-76068385D01*
X63426528Y-75702309D01*
X63875793Y-75119980D01*
X64068012Y-74410052D01*
X64113258Y-73746369D01*
X64019167Y-73016922D01*
X63653091Y-72379008D01*
X63070762Y-71929743D01*
X62360834Y-71737524D01*
X61631387Y-71831614D01*
X60993472Y-72197691D01*
X60544207Y-72780020D01*
X60351988Y-73489948D01*
X60306742Y-74153630D01*
X58517536Y-74153630D01*
X58192567Y-73521309D01*
X57631632Y-73045602D01*
X57045000Y-72857255D01*
X57045000Y-68003167D01*
X60278838Y-68003167D01*
X60420883Y-68346943D01*
X60683673Y-68610192D01*
X61027201Y-68752838D01*
X61074077Y-68752879D01*
X63773599Y-71452401D01*
X64020160Y-71617148D01*
X64068414Y-71626746D01*
X64311000Y-71675000D01*
X65207074Y-71675000D01*
X65211838Y-71700317D01*
X65350910Y-71916441D01*
X65563110Y-72061431D01*
X65815000Y-72112440D01*
X67815000Y-72112440D01*
X68050317Y-72068162D01*
X68266441Y-71929090D01*
X68411431Y-71716890D01*
X68462440Y-71465000D01*
X68462440Y-70365000D01*
X69967560Y-70365000D01*
X69967560Y-71465000D01*
X70011838Y-71700317D01*
X70150910Y-71916441D01*
X70363110Y-72061431D01*
X70615000Y-72112440D01*
X72615000Y-72112440D01*
X72850317Y-72068162D01*
X73066441Y-71929090D01*
X73211431Y-71716890D01*
X73262440Y-71465000D01*
X73262440Y-70365000D01*
X73218162Y-70129683D01*
X73079090Y-69913559D01*
X72866890Y-69768569D01*
X72615000Y-69717560D01*
X70615000Y-69717560D01*
X70379683Y-69761838D01*
X70163559Y-69900910D01*
X70018569Y-70113110D01*
X69967560Y-70365000D01*
X68462440Y-70365000D01*
X68451312Y-70305860D01*
X68520148Y-70202840D01*
X68578000Y-69912000D01*
X68578000Y-69904463D01*
X68610192Y-69872327D01*
X68752838Y-69528799D01*
X68753162Y-69156833D01*
X68611117Y-68813057D01*
X68348327Y-68549808D01*
X68273512Y-68518742D01*
X68411431Y-68316890D01*
X68462440Y-68065000D01*
X68462440Y-67800750D01*
X69980000Y-67800750D01*
X69980000Y-68191309D01*
X70076673Y-68424698D01*
X70255301Y-68603327D01*
X70488690Y-68700000D01*
X71329250Y-68700000D01*
X71488000Y-68541250D01*
X71488000Y-67642000D01*
X71742000Y-67642000D01*
X71742000Y-68541250D01*
X71900750Y-68700000D01*
X72741310Y-68700000D01*
X72974699Y-68603327D01*
X73153327Y-68424698D01*
X73250000Y-68191309D01*
X73250000Y-67800750D01*
X73091250Y-67642000D01*
X71742000Y-67642000D01*
X71488000Y-67642000D01*
X70138750Y-67642000D01*
X69980000Y-67800750D01*
X68462440Y-67800750D01*
X68462440Y-66965000D01*
X68438674Y-66838691D01*
X69980000Y-66838691D01*
X69980000Y-67229250D01*
X70138750Y-67388000D01*
X71488000Y-67388000D01*
X71488000Y-66488750D01*
X71742000Y-66488750D01*
X71742000Y-67388000D01*
X73091250Y-67388000D01*
X73250000Y-67229250D01*
X73250000Y-66838691D01*
X73153327Y-66605302D01*
X72974699Y-66426673D01*
X72741310Y-66330000D01*
X71900750Y-66330000D01*
X71742000Y-66488750D01*
X71488000Y-66488750D01*
X71329250Y-66330000D01*
X70488690Y-66330000D01*
X70255301Y-66426673D01*
X70076673Y-66605302D01*
X69980000Y-66838691D01*
X68438674Y-66838691D01*
X68418162Y-66729683D01*
X68279090Y-66513559D01*
X68066890Y-66368569D01*
X67815000Y-66317560D01*
X65815000Y-66317560D01*
X65579683Y-66361838D01*
X65363559Y-66500910D01*
X65218569Y-66713110D01*
X65167560Y-66965000D01*
X65167560Y-68065000D01*
X65211838Y-68300317D01*
X65350910Y-68516441D01*
X65563110Y-68661431D01*
X65815000Y-68712440D01*
X67125214Y-68712440D01*
X67025808Y-68811673D01*
X66883162Y-69155201D01*
X66882838Y-69527167D01*
X66954528Y-69700670D01*
X66937638Y-69717560D01*
X65815000Y-69717560D01*
X65579683Y-69761838D01*
X65363559Y-69900910D01*
X65218569Y-70113110D01*
X65210086Y-70155000D01*
X64625802Y-70155000D01*
X62149122Y-67678320D01*
X62149162Y-67632833D01*
X62007117Y-67289057D01*
X61744327Y-67025808D01*
X61400799Y-66883162D01*
X61028833Y-66882838D01*
X60685057Y-67024883D01*
X60421808Y-67287673D01*
X60279162Y-67631201D01*
X60278838Y-68003167D01*
X57045000Y-68003167D01*
X57045000Y-60210626D01*
X57060645Y-60210626D01*
X57460028Y-61177207D01*
X58198904Y-61917373D01*
X59164785Y-62318442D01*
X60210626Y-62319355D01*
X61177207Y-61919972D01*
X61917373Y-61181096D01*
X62318442Y-60215215D01*
X62318643Y-59984267D01*
X63283842Y-59984267D01*
X63509580Y-60530595D01*
X63927206Y-60948951D01*
X64473139Y-61175642D01*
X65064267Y-61176158D01*
X65610595Y-60950420D01*
X66028951Y-60532794D01*
X66255642Y-59986861D01*
X66256158Y-59395733D01*
X66030420Y-58849405D01*
X65612794Y-58431049D01*
X65066861Y-58204358D01*
X64475733Y-58203842D01*
X63929405Y-58429580D01*
X63511049Y-58847206D01*
X63284358Y-59393139D01*
X63283842Y-59984267D01*
X62318643Y-59984267D01*
X62319355Y-59169374D01*
X61919972Y-58202793D01*
X61181096Y-57462627D01*
X60215215Y-57061558D01*
X59169374Y-57060645D01*
X58202793Y-57460028D01*
X57462627Y-58198904D01*
X57061558Y-59164785D01*
X57060645Y-60210626D01*
X57045000Y-60210626D01*
X57045000Y-58650167D01*
X57501532Y-58111842D01*
X58364188Y-56558766D01*
X58589024Y-55858484D01*
X58528758Y-55125467D01*
X58517536Y-55103630D01*
X60306742Y-55103630D01*
X60400833Y-55833077D01*
X60766909Y-56470992D01*
X61349238Y-56920257D01*
X62059166Y-57112476D01*
X62788613Y-57018385D01*
X63426528Y-56652309D01*
X63875793Y-56069980D01*
X64068012Y-55360052D01*
X64113258Y-54696369D01*
X64019167Y-53966922D01*
X63653091Y-53329008D01*
X63070762Y-52879743D01*
X62360834Y-52687524D01*
X61631387Y-52781614D01*
X60993472Y-53147691D01*
X60544207Y-53730020D01*
X60351988Y-54439948D01*
X60306742Y-55103630D01*
X58517536Y-55103630D01*
X58192567Y-54471309D01*
X57631632Y-53995602D01*
X57045000Y-53807255D01*
X57045000Y-41160626D01*
X57060645Y-41160626D01*
X57460028Y-42127207D01*
X58198904Y-42867373D01*
X59164785Y-43268442D01*
X60210626Y-43269355D01*
X61177207Y-42869972D01*
X61917373Y-42131096D01*
X62318442Y-41165215D01*
X62319355Y-40119374D01*
X61919972Y-39152793D01*
X61181096Y-38412627D01*
X60215215Y-38011558D01*
X59169374Y-38010645D01*
X58202793Y-38410028D01*
X57462627Y-39148904D01*
X57061558Y-40114785D01*
X57060645Y-41160626D01*
X57045000Y-41160626D01*
X57045000Y-39600167D01*
X57501532Y-39061842D01*
X58364188Y-37508766D01*
X58589024Y-36808484D01*
X58528758Y-36075467D01*
X58517536Y-36053630D01*
X60306742Y-36053630D01*
X60400833Y-36783077D01*
X60766909Y-37420992D01*
X61349238Y-37870257D01*
X62059166Y-38062476D01*
X62788613Y-37968385D01*
X63084045Y-37798847D01*
X64449768Y-39164570D01*
X63929405Y-39379580D01*
X63511049Y-39797206D01*
X63284358Y-40343139D01*
X63283842Y-40934267D01*
X63509580Y-41480595D01*
X63927206Y-41898951D01*
X64473139Y-42125642D01*
X65064267Y-42126158D01*
X65610595Y-41900420D01*
X66028951Y-41482794D01*
X66042000Y-41451368D01*
X66042000Y-44416000D01*
X66099852Y-44706839D01*
X66264599Y-44953401D01*
X67136878Y-45825680D01*
X67136838Y-45871167D01*
X67278883Y-46214943D01*
X67541673Y-46478192D01*
X67885201Y-46620838D01*
X68257167Y-46621162D01*
X68600943Y-46479117D01*
X68864192Y-46216327D01*
X69006838Y-45872799D01*
X69007162Y-45500833D01*
X68865117Y-45157057D01*
X68602327Y-44893808D01*
X68258799Y-44751162D01*
X68211923Y-44751121D01*
X67562000Y-44101198D01*
X67562000Y-42418413D01*
X67897630Y-42754629D01*
X68410900Y-42967757D01*
X68966661Y-42968242D01*
X68999055Y-42954857D01*
X71630000Y-45585802D01*
X71630000Y-47498000D01*
X71687852Y-47788839D01*
X71852599Y-48035401D01*
X72978878Y-49161680D01*
X72978838Y-49207167D01*
X73120883Y-49550943D01*
X73383673Y-49814192D01*
X73727201Y-49956838D01*
X74099167Y-49957162D01*
X74442943Y-49815117D01*
X74575000Y-49683290D01*
X74575000Y-54189833D01*
X74118467Y-54728158D01*
X73255812Y-56281234D01*
X73030976Y-56981516D01*
X73091242Y-57714533D01*
X73346744Y-58211688D01*
X72819405Y-58429580D01*
X72401049Y-58847206D01*
X72174358Y-59393139D01*
X72173842Y-59984267D01*
X72399580Y-60530595D01*
X72817206Y-60948951D01*
X73363139Y-61175642D01*
X73954267Y-61176158D01*
X74500595Y-60950420D01*
X74575000Y-60876145D01*
X74575000Y-73239833D01*
X74118467Y-73778158D01*
X73255812Y-75331234D01*
X73030976Y-76031516D01*
X73091242Y-76764533D01*
X73346744Y-77261688D01*
X72819405Y-77479580D01*
X72401049Y-77897206D01*
X72174358Y-78443139D01*
X72173842Y-79034267D01*
X72399580Y-79580595D01*
X72817206Y-79998951D01*
X73363139Y-80225642D01*
X73954267Y-80226158D01*
X74500595Y-80000420D01*
X74918951Y-79582794D01*
X75052726Y-79260626D01*
X76110645Y-79260626D01*
X76510028Y-80227207D01*
X77248904Y-80967373D01*
X78214785Y-81368442D01*
X79260626Y-81369355D01*
X80227207Y-80969972D01*
X80967373Y-80231096D01*
X81368442Y-79265215D01*
X81368643Y-79034267D01*
X82333842Y-79034267D01*
X82559580Y-79580595D01*
X82977206Y-79998951D01*
X83523139Y-80225642D01*
X84114267Y-80226158D01*
X84660595Y-80000420D01*
X85078951Y-79582794D01*
X85305642Y-79036861D01*
X85306158Y-78445733D01*
X85080420Y-77899405D01*
X84662794Y-77481049D01*
X84116861Y-77254358D01*
X83525733Y-77253842D01*
X82979405Y-77479580D01*
X82561049Y-77897206D01*
X82334358Y-78443139D01*
X82333842Y-79034267D01*
X81368643Y-79034267D01*
X81369355Y-78219374D01*
X80969972Y-77252793D01*
X80231096Y-76512627D01*
X79265215Y-76111558D01*
X78219374Y-76110645D01*
X77252793Y-76510028D01*
X76512627Y-77248904D01*
X76111558Y-78214785D01*
X76110645Y-79260626D01*
X75052726Y-79260626D01*
X75145642Y-79036861D01*
X75146158Y-78445733D01*
X75000652Y-78093582D01*
X75421667Y-78058968D01*
X76075825Y-77722777D01*
X76551532Y-77161842D01*
X77414188Y-75608766D01*
X77639024Y-74908484D01*
X77578758Y-74175467D01*
X77567536Y-74153630D01*
X79356742Y-74153630D01*
X79450833Y-74883077D01*
X79816909Y-75520992D01*
X80399238Y-75970257D01*
X81109166Y-76162476D01*
X81838613Y-76068385D01*
X82476528Y-75702309D01*
X82925793Y-75119980D01*
X83118012Y-74410052D01*
X83163258Y-73746369D01*
X83069167Y-73016922D01*
X82703091Y-72379008D01*
X82120762Y-71929743D01*
X81410834Y-71737524D01*
X80681387Y-71831614D01*
X80043472Y-72197691D01*
X79594207Y-72780020D01*
X79401988Y-73489948D01*
X79356742Y-74153630D01*
X77567536Y-74153630D01*
X77242567Y-73521309D01*
X76681632Y-73045602D01*
X76095000Y-72857255D01*
X76095000Y-68003167D01*
X79328838Y-68003167D01*
X79470883Y-68346943D01*
X79733673Y-68610192D01*
X80077201Y-68752838D01*
X80124077Y-68752879D01*
X82823599Y-71452401D01*
X83070160Y-71617148D01*
X83118414Y-71626746D01*
X83361000Y-71675000D01*
X84257074Y-71675000D01*
X84261838Y-71700317D01*
X84400910Y-71916441D01*
X84613110Y-72061431D01*
X84865000Y-72112440D01*
X86865000Y-72112440D01*
X87100317Y-72068162D01*
X87316441Y-71929090D01*
X87461431Y-71716890D01*
X87512440Y-71465000D01*
X87512440Y-70365000D01*
X89017560Y-70365000D01*
X89017560Y-71465000D01*
X89061838Y-71700317D01*
X89200910Y-71916441D01*
X89413110Y-72061431D01*
X89665000Y-72112440D01*
X91665000Y-72112440D01*
X91900317Y-72068162D01*
X92116441Y-71929090D01*
X92261431Y-71716890D01*
X92312440Y-71465000D01*
X92312440Y-70365000D01*
X92268162Y-70129683D01*
X92129090Y-69913559D01*
X91916890Y-69768569D01*
X91665000Y-69717560D01*
X89665000Y-69717560D01*
X89429683Y-69761838D01*
X89213559Y-69900910D01*
X89068569Y-70113110D01*
X89017560Y-70365000D01*
X87512440Y-70365000D01*
X87468162Y-70129683D01*
X87329090Y-69913559D01*
X87325072Y-69910813D01*
X87396943Y-69881117D01*
X87660192Y-69618327D01*
X87802838Y-69274799D01*
X87803162Y-68902833D01*
X87661117Y-68559057D01*
X87444341Y-68341902D01*
X87461431Y-68316890D01*
X87512440Y-68065000D01*
X87512440Y-67800750D01*
X89030000Y-67800750D01*
X89030000Y-68191309D01*
X89126673Y-68424698D01*
X89305301Y-68603327D01*
X89538690Y-68700000D01*
X90379250Y-68700000D01*
X90538000Y-68541250D01*
X90538000Y-67642000D01*
X90792000Y-67642000D01*
X90792000Y-68541250D01*
X90950750Y-68700000D01*
X91791310Y-68700000D01*
X92024699Y-68603327D01*
X92203327Y-68424698D01*
X92300000Y-68191309D01*
X92300000Y-67800750D01*
X92141250Y-67642000D01*
X90792000Y-67642000D01*
X90538000Y-67642000D01*
X89188750Y-67642000D01*
X89030000Y-67800750D01*
X87512440Y-67800750D01*
X87512440Y-66965000D01*
X87488674Y-66838691D01*
X89030000Y-66838691D01*
X89030000Y-67229250D01*
X89188750Y-67388000D01*
X90538000Y-67388000D01*
X90538000Y-66488750D01*
X90792000Y-66488750D01*
X90792000Y-67388000D01*
X92141250Y-67388000D01*
X92300000Y-67229250D01*
X92300000Y-66838691D01*
X92203327Y-66605302D01*
X92024699Y-66426673D01*
X91791310Y-66330000D01*
X90950750Y-66330000D01*
X90792000Y-66488750D01*
X90538000Y-66488750D01*
X90379250Y-66330000D01*
X89538690Y-66330000D01*
X89305301Y-66426673D01*
X89126673Y-66605302D01*
X89030000Y-66838691D01*
X87488674Y-66838691D01*
X87468162Y-66729683D01*
X87329090Y-66513559D01*
X87116890Y-66368569D01*
X86865000Y-66317560D01*
X84865000Y-66317560D01*
X84629683Y-66361838D01*
X84413559Y-66500910D01*
X84268569Y-66713110D01*
X84217560Y-66965000D01*
X84217560Y-68065000D01*
X84261838Y-68300317D01*
X84400910Y-68516441D01*
X84613110Y-68661431D01*
X84865000Y-68712440D01*
X86011543Y-68712440D01*
X85933162Y-68901201D01*
X85933121Y-68948077D01*
X85327599Y-69553599D01*
X85218044Y-69717560D01*
X84865000Y-69717560D01*
X84629683Y-69761838D01*
X84413559Y-69900910D01*
X84268569Y-70113110D01*
X84260086Y-70155000D01*
X83675802Y-70155000D01*
X81199122Y-67678320D01*
X81199162Y-67632833D01*
X81057117Y-67289057D01*
X80794327Y-67025808D01*
X80450799Y-66883162D01*
X80078833Y-66882838D01*
X79735057Y-67024883D01*
X79471808Y-67287673D01*
X79329162Y-67631201D01*
X79328838Y-68003167D01*
X76095000Y-68003167D01*
X76095000Y-60210626D01*
X76110645Y-60210626D01*
X76510028Y-61177207D01*
X77248904Y-61917373D01*
X78214785Y-62318442D01*
X79260626Y-62319355D01*
X80227207Y-61919972D01*
X80967373Y-61181096D01*
X81368442Y-60215215D01*
X81368643Y-59984267D01*
X82333842Y-59984267D01*
X82559580Y-60530595D01*
X82977206Y-60948951D01*
X83523139Y-61175642D01*
X84114267Y-61176158D01*
X84660595Y-60950420D01*
X85078951Y-60532794D01*
X85305642Y-59986861D01*
X85306158Y-59395733D01*
X85080420Y-58849405D01*
X84662794Y-58431049D01*
X84116861Y-58204358D01*
X83525733Y-58203842D01*
X82979405Y-58429580D01*
X82561049Y-58847206D01*
X82334358Y-59393139D01*
X82333842Y-59984267D01*
X81368643Y-59984267D01*
X81369355Y-59169374D01*
X80969972Y-58202793D01*
X80231096Y-57462627D01*
X79265215Y-57061558D01*
X78219374Y-57060645D01*
X77252793Y-57460028D01*
X76512627Y-58198904D01*
X76111558Y-59164785D01*
X76110645Y-60210626D01*
X76095000Y-60210626D01*
X76095000Y-58650167D01*
X76551532Y-58111842D01*
X77414188Y-56558766D01*
X77639024Y-55858484D01*
X77578758Y-55125467D01*
X77567536Y-55103630D01*
X79356742Y-55103630D01*
X79450833Y-55833077D01*
X79816909Y-56470992D01*
X80399238Y-56920257D01*
X81109166Y-57112476D01*
X81838613Y-57018385D01*
X82476528Y-56652309D01*
X82925793Y-56069980D01*
X83118012Y-55360052D01*
X83163258Y-54696369D01*
X83069167Y-53966922D01*
X82703091Y-53329008D01*
X82120762Y-52879743D01*
X81410834Y-52687524D01*
X80681387Y-52781614D01*
X80043472Y-53147691D01*
X79594207Y-53730020D01*
X79401988Y-54439948D01*
X79356742Y-55103630D01*
X77567536Y-55103630D01*
X77242567Y-54471309D01*
X76681632Y-53995602D01*
X76095000Y-53807255D01*
X76095000Y-44297334D01*
X76267201Y-44368838D01*
X76639167Y-44369162D01*
X76982943Y-44227117D01*
X77016118Y-44194000D01*
X84328000Y-44194000D01*
X84618839Y-44136148D01*
X84865401Y-43971401D01*
X90706802Y-38130000D01*
X92097295Y-38130000D01*
X92141242Y-38664533D01*
X92396744Y-39161688D01*
X91869405Y-39379580D01*
X91451049Y-39797206D01*
X91224358Y-40343139D01*
X91223842Y-40934267D01*
X91449580Y-41480595D01*
X91867206Y-41898951D01*
X92413139Y-42125642D01*
X93004267Y-42126158D01*
X93550595Y-41900420D01*
X93625000Y-41826145D01*
X93625000Y-54189833D01*
X93168467Y-54728158D01*
X92305812Y-56281234D01*
X92080976Y-56981516D01*
X92141242Y-57714533D01*
X92396744Y-58211688D01*
X91869405Y-58429580D01*
X91451049Y-58847206D01*
X91224358Y-59393139D01*
X91223842Y-59984267D01*
X91449580Y-60530595D01*
X91867206Y-60948951D01*
X92413139Y-61175642D01*
X93004267Y-61176158D01*
X93550595Y-60950420D01*
X93625000Y-60876145D01*
X93625000Y-73239833D01*
X93168467Y-73778158D01*
X92305812Y-75331234D01*
X92080976Y-76031516D01*
X92141242Y-76764533D01*
X92396744Y-77261688D01*
X91869405Y-77479580D01*
X91451049Y-77897206D01*
X91224358Y-78443139D01*
X91223842Y-79034267D01*
X91449580Y-79580595D01*
X91867206Y-79998951D01*
X92413139Y-80225642D01*
X93004267Y-80226158D01*
X93550595Y-80000420D01*
X93968951Y-79582794D01*
X94102726Y-79260626D01*
X95160645Y-79260626D01*
X95560028Y-80227207D01*
X96298904Y-80967373D01*
X97264785Y-81368442D01*
X98310626Y-81369355D01*
X99277207Y-80969972D01*
X100017373Y-80231096D01*
X100418442Y-79265215D01*
X100418643Y-79034267D01*
X101383842Y-79034267D01*
X101609580Y-79580595D01*
X102027206Y-79998951D01*
X102573139Y-80225642D01*
X103164267Y-80226158D01*
X103710595Y-80000420D01*
X104128951Y-79582794D01*
X104355642Y-79036861D01*
X104356158Y-78445733D01*
X104130420Y-77899405D01*
X103712794Y-77481049D01*
X103166861Y-77254358D01*
X102575733Y-77253842D01*
X102029405Y-77479580D01*
X101611049Y-77897206D01*
X101384358Y-78443139D01*
X101383842Y-79034267D01*
X100418643Y-79034267D01*
X100419355Y-78219374D01*
X100019972Y-77252793D01*
X99281096Y-76512627D01*
X98315215Y-76111558D01*
X97269374Y-76110645D01*
X96302793Y-76510028D01*
X95562627Y-77248904D01*
X95161558Y-78214785D01*
X95160645Y-79260626D01*
X94102726Y-79260626D01*
X94195642Y-79036861D01*
X94196158Y-78445733D01*
X94050652Y-78093582D01*
X94471667Y-78058968D01*
X95125825Y-77722777D01*
X95601532Y-77161842D01*
X96464188Y-75608766D01*
X96689024Y-74908484D01*
X96628758Y-74175467D01*
X96617536Y-74153630D01*
X98406742Y-74153630D01*
X98500833Y-74883077D01*
X98866909Y-75520992D01*
X99449238Y-75970257D01*
X100159166Y-76162476D01*
X100888613Y-76068385D01*
X101526528Y-75702309D01*
X101975793Y-75119980D01*
X102168012Y-74410052D01*
X102213258Y-73746369D01*
X102119167Y-73016922D01*
X102053243Y-72902045D01*
X103856599Y-74705401D01*
X104103160Y-74870148D01*
X104151414Y-74879746D01*
X104394000Y-74928000D01*
X106462000Y-74928000D01*
X106752839Y-74870148D01*
X106999401Y-74705401D01*
X108446174Y-73258628D01*
X108465000Y-73262440D01*
X109565000Y-73262440D01*
X109800317Y-73218162D01*
X110016441Y-73079090D01*
X110161431Y-72866890D01*
X110212440Y-72615000D01*
X110212440Y-71202362D01*
X110773401Y-70641401D01*
X110938148Y-70394839D01*
X110996000Y-70104000D01*
X110996000Y-60981669D01*
X111463139Y-61175642D01*
X112054267Y-61176158D01*
X112600595Y-60950420D01*
X112675000Y-60876145D01*
X112675000Y-73239833D01*
X112218467Y-73778158D01*
X111355812Y-75331234D01*
X111130976Y-76031516D01*
X111191242Y-76764533D01*
X111446744Y-77261688D01*
X110919405Y-77479580D01*
X110501049Y-77897206D01*
X110274358Y-78443139D01*
X110273842Y-79034267D01*
X110499580Y-79580595D01*
X110917206Y-79998951D01*
X111463139Y-80225642D01*
X112054267Y-80226158D01*
X112600595Y-80000420D01*
X113018951Y-79582794D01*
X113152726Y-79260626D01*
X114210645Y-79260626D01*
X114610028Y-80227207D01*
X115348904Y-80967373D01*
X116314785Y-81368442D01*
X117360626Y-81369355D01*
X118327207Y-80969972D01*
X119067373Y-80231096D01*
X119468442Y-79265215D01*
X119468643Y-79034267D01*
X120433842Y-79034267D01*
X120659580Y-79580595D01*
X121077206Y-79998951D01*
X121623139Y-80225642D01*
X122214267Y-80226158D01*
X122760595Y-80000420D01*
X123178951Y-79582794D01*
X123405642Y-79036861D01*
X123406158Y-78445733D01*
X123180420Y-77899405D01*
X122762794Y-77481049D01*
X122216861Y-77254358D01*
X121625733Y-77253842D01*
X121079405Y-77479580D01*
X120661049Y-77897206D01*
X120434358Y-78443139D01*
X120433842Y-79034267D01*
X119468643Y-79034267D01*
X119469355Y-78219374D01*
X119069972Y-77252793D01*
X118331096Y-76512627D01*
X117365215Y-76111558D01*
X116319374Y-76110645D01*
X115352793Y-76510028D01*
X114612627Y-77248904D01*
X114211558Y-78214785D01*
X114210645Y-79260626D01*
X113152726Y-79260626D01*
X113245642Y-79036861D01*
X113246158Y-78445733D01*
X113100652Y-78093582D01*
X113521667Y-78058968D01*
X114175825Y-77722777D01*
X114651532Y-77161842D01*
X115514188Y-75608766D01*
X115739024Y-74908484D01*
X115678758Y-74175467D01*
X115667536Y-74153630D01*
X117456742Y-74153630D01*
X117550833Y-74883077D01*
X117916909Y-75520992D01*
X118499238Y-75970257D01*
X119209166Y-76162476D01*
X119938613Y-76068385D01*
X120576528Y-75702309D01*
X121025793Y-75119980D01*
X121218012Y-74410052D01*
X121263258Y-73746369D01*
X121169167Y-73016922D01*
X120803091Y-72379008D01*
X120220762Y-71929743D01*
X119510834Y-71737524D01*
X118781387Y-71831614D01*
X118143472Y-72197691D01*
X117694207Y-72780020D01*
X117501988Y-73489948D01*
X117456742Y-74153630D01*
X115667536Y-74153630D01*
X115342567Y-73521309D01*
X114781632Y-73045602D01*
X114195000Y-72857255D01*
X114195000Y-60210626D01*
X114210645Y-60210626D01*
X114610028Y-61177207D01*
X115348904Y-61917373D01*
X116314785Y-62318442D01*
X117360626Y-62319355D01*
X118327207Y-61919972D01*
X119067373Y-61181096D01*
X119468442Y-60215215D01*
X119468643Y-59984267D01*
X120433842Y-59984267D01*
X120659580Y-60530595D01*
X121077206Y-60948951D01*
X121623139Y-61175642D01*
X122214267Y-61176158D01*
X122760595Y-60950420D01*
X123178951Y-60532794D01*
X123405642Y-59986861D01*
X123406158Y-59395733D01*
X123180420Y-58849405D01*
X122762794Y-58431049D01*
X122216861Y-58204358D01*
X121625733Y-58203842D01*
X121079405Y-58429580D01*
X120661049Y-58847206D01*
X120434358Y-59393139D01*
X120433842Y-59984267D01*
X119468643Y-59984267D01*
X119469355Y-59169374D01*
X119069972Y-58202793D01*
X118331096Y-57462627D01*
X117365215Y-57061558D01*
X116319374Y-57060645D01*
X115352793Y-57460028D01*
X114612627Y-58198904D01*
X114211558Y-59164785D01*
X114210645Y-60210626D01*
X114195000Y-60210626D01*
X114195000Y-58650167D01*
X114651532Y-58111842D01*
X115514188Y-56558766D01*
X115739024Y-55858484D01*
X115678758Y-55125467D01*
X115667536Y-55103630D01*
X117456742Y-55103630D01*
X117550833Y-55833077D01*
X117916909Y-56470992D01*
X118499238Y-56920257D01*
X119209166Y-57112476D01*
X119938613Y-57018385D01*
X120576528Y-56652309D01*
X121025793Y-56069980D01*
X121218012Y-55360052D01*
X121263258Y-54696369D01*
X121169167Y-53966922D01*
X120803091Y-53329008D01*
X120220762Y-52879743D01*
X119510834Y-52687524D01*
X118781387Y-52781614D01*
X118143472Y-53147691D01*
X117694207Y-53730020D01*
X117501988Y-54439948D01*
X117456742Y-55103630D01*
X115667536Y-55103630D01*
X115342567Y-54471309D01*
X114781632Y-53995602D01*
X114195000Y-53807255D01*
X114195000Y-41160626D01*
X114210645Y-41160626D01*
X114610028Y-42127207D01*
X115348904Y-42867373D01*
X116314785Y-43268442D01*
X117360626Y-43269355D01*
X118327207Y-42869972D01*
X119067373Y-42131096D01*
X119468442Y-41165215D01*
X119468643Y-40934267D01*
X120433842Y-40934267D01*
X120659580Y-41480595D01*
X121077206Y-41898951D01*
X121623139Y-42125642D01*
X122214267Y-42126158D01*
X122760595Y-41900420D01*
X123178951Y-41482794D01*
X123405642Y-40936861D01*
X123406158Y-40345733D01*
X123180420Y-39799405D01*
X122762794Y-39381049D01*
X122216861Y-39154358D01*
X121625733Y-39153842D01*
X121079405Y-39379580D01*
X120661049Y-39797206D01*
X120434358Y-40343139D01*
X120433842Y-40934267D01*
X119468643Y-40934267D01*
X119469355Y-40119374D01*
X119069972Y-39152793D01*
X118331096Y-38412627D01*
X117365215Y-38011558D01*
X116319374Y-38010645D01*
X115352793Y-38410028D01*
X114612627Y-39148904D01*
X114211558Y-40114785D01*
X114210645Y-41160626D01*
X114195000Y-41160626D01*
X114195000Y-39600167D01*
X114651532Y-39061842D01*
X115514188Y-37508766D01*
X115739024Y-36808484D01*
X115678758Y-36075467D01*
X115667536Y-36053630D01*
X117456742Y-36053630D01*
X117550833Y-36783077D01*
X117916909Y-37420992D01*
X118499238Y-37870257D01*
X119209166Y-38062476D01*
X119938613Y-37968385D01*
X120576528Y-37602309D01*
X121025793Y-37019980D01*
X121218012Y-36310052D01*
X121263258Y-35646369D01*
X121169167Y-34916922D01*
X120803091Y-34279008D01*
X120220762Y-33829743D01*
X119510834Y-33637524D01*
X118781387Y-33731614D01*
X118143472Y-34097691D01*
X117694207Y-34680020D01*
X117501988Y-35389948D01*
X117456742Y-36053630D01*
X115667536Y-36053630D01*
X115342567Y-35421309D01*
X114781632Y-34945602D01*
X114195000Y-34757255D01*
X114195000Y-22110626D01*
X114210645Y-22110626D01*
X114610028Y-23077207D01*
X115348904Y-23817373D01*
X116314785Y-24218442D01*
X117360626Y-24219355D01*
X118327207Y-23819972D01*
X119067373Y-23081096D01*
X119468442Y-22115215D01*
X119468643Y-21884267D01*
X120433842Y-21884267D01*
X120659580Y-22430595D01*
X121077206Y-22848951D01*
X121623139Y-23075642D01*
X122214267Y-23076158D01*
X122760595Y-22850420D01*
X123178951Y-22432794D01*
X123405642Y-21886861D01*
X123406158Y-21295733D01*
X123180420Y-20749405D01*
X122762794Y-20331049D01*
X122216861Y-20104358D01*
X121625733Y-20103842D01*
X121079405Y-20329580D01*
X120661049Y-20747206D01*
X120434358Y-21293139D01*
X120433842Y-21884267D01*
X119468643Y-21884267D01*
X119469355Y-21069374D01*
X119069972Y-20102793D01*
X118331096Y-19362627D01*
X117365215Y-18961558D01*
X116319374Y-18960645D01*
X115352793Y-19360028D01*
X114612627Y-20098904D01*
X114211558Y-21064785D01*
X114210645Y-22110626D01*
X114195000Y-22110626D01*
X114195000Y-20550167D01*
X114651532Y-20011842D01*
X115514188Y-18458766D01*
X115739024Y-17758484D01*
X115678758Y-17025467D01*
X115667536Y-17003630D01*
X117456742Y-17003630D01*
X117550833Y-17733077D01*
X117916909Y-18370992D01*
X118499238Y-18820257D01*
X119209166Y-19012476D01*
X119938613Y-18918385D01*
X120576528Y-18552309D01*
X121025793Y-17969980D01*
X121218012Y-17260052D01*
X121263258Y-16596369D01*
X121169167Y-15866922D01*
X120803091Y-15229008D01*
X120220762Y-14779743D01*
X119510834Y-14587524D01*
X118781387Y-14681614D01*
X118143472Y-15047691D01*
X117694207Y-15630020D01*
X117501988Y-16339948D01*
X117456742Y-17003630D01*
X115667536Y-17003630D01*
X115342567Y-16371309D01*
X114781632Y-15895602D01*
X114081350Y-15670766D01*
X113348332Y-15731032D01*
X112694175Y-16067223D01*
X112218467Y-16628158D01*
X111355812Y-18181234D01*
X111130976Y-18881516D01*
X111191242Y-19614533D01*
X111446744Y-20111688D01*
X110919405Y-20329580D01*
X110501049Y-20747206D01*
X110274358Y-21293139D01*
X110273842Y-21884267D01*
X110499580Y-22430595D01*
X110917206Y-22848951D01*
X111463139Y-23075642D01*
X112054267Y-23076158D01*
X112600595Y-22850420D01*
X112675000Y-22776145D01*
X112675000Y-31935198D01*
X111358628Y-30618826D01*
X111362440Y-30600000D01*
X111362440Y-29500000D01*
X111318162Y-29264683D01*
X111179090Y-29048559D01*
X110966890Y-28903569D01*
X110715000Y-28852560D01*
X108715000Y-28852560D01*
X108479683Y-28896838D01*
X108263559Y-29035910D01*
X108118569Y-29248110D01*
X108067560Y-29500000D01*
X108067560Y-30600000D01*
X108111838Y-30835317D01*
X108250910Y-31051441D01*
X108463110Y-31196431D01*
X108715000Y-31247440D01*
X109837638Y-31247440D01*
X110875199Y-32285001D01*
X110715000Y-32252560D01*
X108715000Y-32252560D01*
X108479683Y-32296838D01*
X108263559Y-32435910D01*
X108118569Y-32648110D01*
X108067560Y-32900000D01*
X108067560Y-34000000D01*
X108111838Y-34235317D01*
X108250910Y-34451441D01*
X108255000Y-34454236D01*
X108255000Y-46157074D01*
X108229683Y-46161838D01*
X108013559Y-46300910D01*
X107868569Y-46513110D01*
X107817560Y-46765000D01*
X107817560Y-48765000D01*
X107861838Y-49000317D01*
X108000910Y-49216441D01*
X108213110Y-49361431D01*
X108465000Y-49412440D01*
X109476000Y-49412440D01*
X109476000Y-49723198D01*
X108477599Y-50721599D01*
X108329645Y-50943029D01*
X108229683Y-50961838D01*
X108013559Y-51100910D01*
X107868569Y-51313110D01*
X107817560Y-51565000D01*
X107817560Y-53565000D01*
X107861838Y-53800317D01*
X108000910Y-54016441D01*
X108213110Y-54161431D01*
X108465000Y-54212440D01*
X109476000Y-54212440D01*
X109476000Y-59633198D01*
X106375000Y-56532198D01*
X106375000Y-54172926D01*
X106400317Y-54168162D01*
X106616441Y-54029090D01*
X106761431Y-53816890D01*
X106812440Y-53565000D01*
X106812440Y-51565000D01*
X106768162Y-51329683D01*
X106629090Y-51113559D01*
X106416890Y-50968569D01*
X106165000Y-50917560D01*
X105065000Y-50917560D01*
X104829683Y-50961838D01*
X104613559Y-51100910D01*
X104468569Y-51313110D01*
X104417560Y-51565000D01*
X104417560Y-53565000D01*
X104461838Y-53800317D01*
X104600910Y-54016441D01*
X104813110Y-54161431D01*
X104855000Y-54169914D01*
X104855000Y-56847000D01*
X104912852Y-57137839D01*
X105077599Y-57384401D01*
X108255000Y-60561802D01*
X108255000Y-65207074D01*
X108229683Y-65211838D01*
X108013559Y-65350910D01*
X107868569Y-65563110D01*
X107817560Y-65815000D01*
X107817560Y-67815000D01*
X107861838Y-68050317D01*
X108000910Y-68266441D01*
X108213110Y-68411431D01*
X108465000Y-68462440D01*
X109476000Y-68462440D01*
X109476000Y-69789198D01*
X109297638Y-69967560D01*
X108465000Y-69967560D01*
X108229683Y-70011838D01*
X108013559Y-70150910D01*
X107868569Y-70363110D01*
X107817560Y-70615000D01*
X107817560Y-71737638D01*
X106779999Y-72775199D01*
X106812440Y-72615000D01*
X106812440Y-70615000D01*
X106768162Y-70379683D01*
X106629090Y-70163559D01*
X106416890Y-70018569D01*
X106165000Y-69967560D01*
X105065000Y-69967560D01*
X104829683Y-70011838D01*
X104613559Y-70150910D01*
X104468569Y-70363110D01*
X104417560Y-70615000D01*
X104417560Y-72615000D01*
X104461838Y-72850317D01*
X104600910Y-73066441D01*
X104813110Y-73211431D01*
X105065000Y-73262440D01*
X106165000Y-73262440D01*
X106322369Y-73232829D01*
X106147198Y-73408000D01*
X104708802Y-73408000D01*
X101773122Y-70472320D01*
X101773162Y-70426833D01*
X101631117Y-70083057D01*
X101368327Y-69819808D01*
X101024799Y-69677162D01*
X100652833Y-69676838D01*
X100309057Y-69818883D01*
X100045808Y-70081673D01*
X99903162Y-70425201D01*
X99902838Y-70797167D01*
X100044883Y-71140943D01*
X100307673Y-71404192D01*
X100651201Y-71546838D01*
X100698077Y-71546879D01*
X101047592Y-71896394D01*
X100460834Y-71737524D01*
X99731387Y-71831614D01*
X99093472Y-72197691D01*
X98644207Y-72780020D01*
X98451988Y-73489948D01*
X98406742Y-74153630D01*
X96617536Y-74153630D01*
X96292567Y-73521309D01*
X95731632Y-73045602D01*
X95145000Y-72857255D01*
X95145000Y-67100750D01*
X104430000Y-67100750D01*
X104430000Y-67941310D01*
X104526673Y-68174699D01*
X104705302Y-68353327D01*
X104938691Y-68450000D01*
X105329250Y-68450000D01*
X105488000Y-68291250D01*
X105488000Y-66942000D01*
X105742000Y-66942000D01*
X105742000Y-68291250D01*
X105900750Y-68450000D01*
X106291309Y-68450000D01*
X106524698Y-68353327D01*
X106703327Y-68174699D01*
X106800000Y-67941310D01*
X106800000Y-67100750D01*
X106641250Y-66942000D01*
X105742000Y-66942000D01*
X105488000Y-66942000D01*
X104588750Y-66942000D01*
X104430000Y-67100750D01*
X95145000Y-67100750D01*
X95145000Y-65688690D01*
X104430000Y-65688690D01*
X104430000Y-66529250D01*
X104588750Y-66688000D01*
X105488000Y-66688000D01*
X105488000Y-65338750D01*
X105742000Y-65338750D01*
X105742000Y-66688000D01*
X106641250Y-66688000D01*
X106800000Y-66529250D01*
X106800000Y-65688690D01*
X106703327Y-65455301D01*
X106524698Y-65276673D01*
X106291309Y-65180000D01*
X105900750Y-65180000D01*
X105742000Y-65338750D01*
X105488000Y-65338750D01*
X105329250Y-65180000D01*
X104938691Y-65180000D01*
X104705302Y-65276673D01*
X104526673Y-65455301D01*
X104430000Y-65688690D01*
X95145000Y-65688690D01*
X95145000Y-60210626D01*
X95160645Y-60210626D01*
X95560028Y-61177207D01*
X96298904Y-61917373D01*
X97264785Y-62318442D01*
X98310626Y-62319355D01*
X99277207Y-61919972D01*
X100017373Y-61181096D01*
X100418442Y-60215215D01*
X100418643Y-59984267D01*
X101383842Y-59984267D01*
X101609580Y-60530595D01*
X102027206Y-60948951D01*
X102573139Y-61175642D01*
X103164267Y-61176158D01*
X103710595Y-60950420D01*
X104128951Y-60532794D01*
X104355642Y-59986861D01*
X104356158Y-59395733D01*
X104130420Y-58849405D01*
X103712794Y-58431049D01*
X103166861Y-58204358D01*
X102575733Y-58203842D01*
X102029405Y-58429580D01*
X101611049Y-58847206D01*
X101384358Y-59393139D01*
X101383842Y-59984267D01*
X100418643Y-59984267D01*
X100419355Y-59169374D01*
X100019972Y-58202793D01*
X99281096Y-57462627D01*
X98315215Y-57061558D01*
X97269374Y-57060645D01*
X96302793Y-57460028D01*
X95562627Y-58198904D01*
X95161558Y-59164785D01*
X95160645Y-60210626D01*
X95145000Y-60210626D01*
X95145000Y-58650167D01*
X95601532Y-58111842D01*
X96464188Y-56558766D01*
X96689024Y-55858484D01*
X96628758Y-55125467D01*
X96617536Y-55103630D01*
X98406742Y-55103630D01*
X98500833Y-55833077D01*
X98866909Y-56470992D01*
X99449238Y-56920257D01*
X100159166Y-57112476D01*
X100888613Y-57018385D01*
X101526528Y-56652309D01*
X101975793Y-56069980D01*
X102168012Y-55360052D01*
X102213258Y-54696369D01*
X102119167Y-53966922D01*
X101753091Y-53329008D01*
X101170762Y-52879743D01*
X100460834Y-52687524D01*
X99731387Y-52781614D01*
X99093472Y-53147691D01*
X98644207Y-53730020D01*
X98451988Y-54439948D01*
X98406742Y-55103630D01*
X96617536Y-55103630D01*
X96292567Y-54471309D01*
X95731632Y-53995602D01*
X95145000Y-53807255D01*
X95145000Y-48050750D01*
X104430000Y-48050750D01*
X104430000Y-48891310D01*
X104526673Y-49124699D01*
X104705302Y-49303327D01*
X104938691Y-49400000D01*
X105329250Y-49400000D01*
X105488000Y-49241250D01*
X105488000Y-47892000D01*
X105742000Y-47892000D01*
X105742000Y-49241250D01*
X105900750Y-49400000D01*
X106291309Y-49400000D01*
X106524698Y-49303327D01*
X106703327Y-49124699D01*
X106800000Y-48891310D01*
X106800000Y-48050750D01*
X106641250Y-47892000D01*
X105742000Y-47892000D01*
X105488000Y-47892000D01*
X104588750Y-47892000D01*
X104430000Y-48050750D01*
X95145000Y-48050750D01*
X95145000Y-46638690D01*
X104430000Y-46638690D01*
X104430000Y-47479250D01*
X104588750Y-47638000D01*
X105488000Y-47638000D01*
X105488000Y-46288750D01*
X105742000Y-46288750D01*
X105742000Y-47638000D01*
X106641250Y-47638000D01*
X106800000Y-47479250D01*
X106800000Y-46638690D01*
X106703327Y-46405301D01*
X106524698Y-46226673D01*
X106291309Y-46130000D01*
X105900750Y-46130000D01*
X105742000Y-46288750D01*
X105488000Y-46288750D01*
X105329250Y-46130000D01*
X104938691Y-46130000D01*
X104705302Y-46226673D01*
X104526673Y-46405301D01*
X104430000Y-46638690D01*
X95145000Y-46638690D01*
X95145000Y-41160626D01*
X95160645Y-41160626D01*
X95560028Y-42127207D01*
X96298904Y-42867373D01*
X97264785Y-43268442D01*
X98310626Y-43269355D01*
X99277207Y-42869972D01*
X100017373Y-42131096D01*
X100418442Y-41165215D01*
X100418643Y-40934267D01*
X101383842Y-40934267D01*
X101609580Y-41480595D01*
X102027206Y-41898951D01*
X102573139Y-42125642D01*
X103164267Y-42126158D01*
X103710595Y-41900420D01*
X104128951Y-41482794D01*
X104355642Y-40936861D01*
X104356158Y-40345733D01*
X104130420Y-39799405D01*
X103712794Y-39381049D01*
X103166861Y-39154358D01*
X102575733Y-39153842D01*
X102029405Y-39379580D01*
X101611049Y-39797206D01*
X101384358Y-40343139D01*
X101383842Y-40934267D01*
X100418643Y-40934267D01*
X100419355Y-40119374D01*
X100019972Y-39152793D01*
X99281096Y-38412627D01*
X98315215Y-38011558D01*
X97269374Y-38010645D01*
X96302793Y-38410028D01*
X95562627Y-39148904D01*
X95161558Y-40114785D01*
X95160645Y-41160626D01*
X95145000Y-41160626D01*
X95145000Y-39600167D01*
X95601532Y-39061842D01*
X96464188Y-37508766D01*
X96689024Y-36808484D01*
X96628758Y-36075467D01*
X96617536Y-36053630D01*
X98406742Y-36053630D01*
X98500833Y-36783077D01*
X98866909Y-37420992D01*
X99449238Y-37870257D01*
X100159166Y-38062476D01*
X100888613Y-37968385D01*
X101526528Y-37602309D01*
X101975793Y-37019980D01*
X102168012Y-36310052D01*
X102213258Y-35646369D01*
X102119167Y-34916922D01*
X101753091Y-34279008D01*
X101170762Y-33829743D01*
X100823615Y-33735750D01*
X103280000Y-33735750D01*
X103280000Y-34126309D01*
X103376673Y-34359698D01*
X103555301Y-34538327D01*
X103788690Y-34635000D01*
X104629250Y-34635000D01*
X104788000Y-34476250D01*
X104788000Y-33577000D01*
X105042000Y-33577000D01*
X105042000Y-34476250D01*
X105200750Y-34635000D01*
X106041310Y-34635000D01*
X106274699Y-34538327D01*
X106453327Y-34359698D01*
X106550000Y-34126309D01*
X106550000Y-33735750D01*
X106391250Y-33577000D01*
X105042000Y-33577000D01*
X104788000Y-33577000D01*
X103438750Y-33577000D01*
X103280000Y-33735750D01*
X100823615Y-33735750D01*
X100460834Y-33637524D01*
X99731387Y-33731614D01*
X99093472Y-34097691D01*
X98644207Y-34680020D01*
X98451988Y-35389948D01*
X98406742Y-36053630D01*
X96617536Y-36053630D01*
X96292567Y-35421309D01*
X95731632Y-34945602D01*
X95031350Y-34720766D01*
X94298332Y-34781032D01*
X93644175Y-35117223D01*
X93168467Y-35678158D01*
X92650876Y-36610000D01*
X90392000Y-36610000D01*
X90101161Y-36667852D01*
X89854599Y-36832599D01*
X84013198Y-42674000D01*
X80423521Y-42674000D01*
X80967373Y-42131096D01*
X81368442Y-41165215D01*
X81368643Y-40934267D01*
X82333842Y-40934267D01*
X82559580Y-41480595D01*
X82977206Y-41898951D01*
X83523139Y-42125642D01*
X84114267Y-42126158D01*
X84660595Y-41900420D01*
X85078951Y-41482794D01*
X85305642Y-40936861D01*
X85306158Y-40345733D01*
X85080420Y-39799405D01*
X84662794Y-39381049D01*
X84116861Y-39154358D01*
X83525733Y-39153842D01*
X82979405Y-39379580D01*
X82561049Y-39797206D01*
X82334358Y-40343139D01*
X82333842Y-40934267D01*
X81368643Y-40934267D01*
X81369355Y-40119374D01*
X80969972Y-39152793D01*
X80231096Y-38412627D01*
X79265215Y-38011558D01*
X78219374Y-38010645D01*
X77252793Y-38410028D01*
X76512627Y-39148904D01*
X76111558Y-40114785D01*
X76110645Y-41160626D01*
X76510028Y-42127207D01*
X77055868Y-42674000D01*
X77016463Y-42674000D01*
X76984327Y-42641808D01*
X76640799Y-42499162D01*
X76268833Y-42498838D01*
X76095000Y-42570664D01*
X76095000Y-39600167D01*
X76551532Y-39061842D01*
X77414188Y-37508766D01*
X77639024Y-36808484D01*
X77578758Y-36075467D01*
X77567536Y-36053630D01*
X79356742Y-36053630D01*
X79450833Y-36783077D01*
X79816909Y-37420992D01*
X80399238Y-37870257D01*
X81109166Y-38062476D01*
X81838613Y-37968385D01*
X82476528Y-37602309D01*
X82925793Y-37019980D01*
X83118012Y-36310052D01*
X83163258Y-35646369D01*
X83069167Y-34916922D01*
X82703091Y-34279008D01*
X82120762Y-33829743D01*
X81410834Y-33637524D01*
X80681387Y-33731614D01*
X80043472Y-34097691D01*
X79594207Y-34680020D01*
X79401988Y-35389948D01*
X79356742Y-36053630D01*
X77567536Y-36053630D01*
X77242567Y-35421309D01*
X76681632Y-34945602D01*
X76095000Y-34757255D01*
X76095000Y-34391334D01*
X76267201Y-34462838D01*
X76639167Y-34463162D01*
X76982943Y-34321117D01*
X77246192Y-34058327D01*
X77388838Y-33714799D01*
X77388879Y-33667923D01*
X78413401Y-32643401D01*
X78578148Y-32396839D01*
X78636000Y-32106000D01*
X78636000Y-31757440D01*
X78876000Y-31757440D01*
X79111317Y-31713162D01*
X79327441Y-31574090D01*
X79472431Y-31361890D01*
X79523440Y-31110000D01*
X79523440Y-29970000D01*
X82530442Y-29970000D01*
X82572838Y-30195317D01*
X82679759Y-30361477D01*
X82579569Y-30508110D01*
X82528560Y-30760000D01*
X82528560Y-32260000D01*
X82572838Y-32495317D01*
X82711910Y-32711441D01*
X82924110Y-32856431D01*
X83176000Y-32907440D01*
X85176000Y-32907440D01*
X85178669Y-32906938D01*
X85321673Y-33050192D01*
X85665201Y-33192838D01*
X86037167Y-33193162D01*
X86380943Y-33051117D01*
X86644192Y-32788327D01*
X86654294Y-32764000D01*
X102961000Y-32764000D01*
X103251839Y-32706148D01*
X103329460Y-32654283D01*
X103280000Y-32773691D01*
X103280000Y-33164250D01*
X103438750Y-33323000D01*
X104788000Y-33323000D01*
X104788000Y-32423750D01*
X105042000Y-32423750D01*
X105042000Y-33323000D01*
X106391250Y-33323000D01*
X106550000Y-33164250D01*
X106550000Y-32773691D01*
X106453327Y-32540302D01*
X106274699Y-32361673D01*
X106041310Y-32265000D01*
X105200750Y-32265000D01*
X105042000Y-32423750D01*
X104788000Y-32423750D01*
X104629250Y-32265000D01*
X103788690Y-32265000D01*
X103764982Y-32274820D01*
X104792362Y-31247440D01*
X105915000Y-31247440D01*
X106150317Y-31203162D01*
X106366441Y-31064090D01*
X106511431Y-30851890D01*
X106562440Y-30600000D01*
X106562440Y-29500000D01*
X106518162Y-29264683D01*
X106379090Y-29048559D01*
X106166890Y-28903569D01*
X105915000Y-28852560D01*
X103915000Y-28852560D01*
X103679683Y-28896838D01*
X103463559Y-29035910D01*
X103318569Y-29248110D01*
X103267560Y-29500000D01*
X103267560Y-30600000D01*
X103271145Y-30619053D01*
X102646198Y-31244000D01*
X101281802Y-31244000D01*
X101313619Y-31212183D01*
X101343900Y-31224757D01*
X101899661Y-31225242D01*
X102413303Y-31013010D01*
X102806629Y-30620370D01*
X103019757Y-30107100D01*
X103020242Y-29551339D01*
X102808010Y-29037697D01*
X102415370Y-28644371D01*
X101902100Y-28431243D01*
X101346339Y-28430758D01*
X100832697Y-28642990D01*
X100439371Y-29035630D01*
X100226243Y-29548900D01*
X100225758Y-30104661D01*
X100239143Y-30137055D01*
X99626198Y-30750000D01*
X89711844Y-30750000D01*
X89718226Y-30743618D01*
X89603215Y-30628607D01*
X89845397Y-30559143D01*
X90032144Y-30035698D01*
X90004362Y-29480632D01*
X89845397Y-29096857D01*
X89603213Y-29027392D01*
X88802605Y-29828000D01*
X88816748Y-29842143D01*
X88637143Y-30021748D01*
X88623000Y-30007605D01*
X88608858Y-30021748D01*
X88429253Y-29842143D01*
X88443395Y-29828000D01*
X87642787Y-29027392D01*
X87400603Y-29096857D01*
X87213856Y-29620302D01*
X87241638Y-30175368D01*
X87400603Y-30559143D01*
X87642785Y-30628607D01*
X87527774Y-30743618D01*
X87534156Y-30750000D01*
X85821558Y-30750000D01*
X85779162Y-30524683D01*
X85672241Y-30358523D01*
X85772431Y-30211890D01*
X85823440Y-29960000D01*
X85823440Y-28847787D01*
X87822392Y-28847787D01*
X88623000Y-29648395D01*
X89423608Y-28847787D01*
X89354143Y-28605603D01*
X88830698Y-28418856D01*
X88275632Y-28446638D01*
X87891857Y-28605603D01*
X87822392Y-28847787D01*
X85823440Y-28847787D01*
X85823440Y-28460000D01*
X85779162Y-28224683D01*
X85673518Y-28060508D01*
X85714327Y-28019699D01*
X85811000Y-27786310D01*
X85811000Y-27195750D01*
X85652250Y-27037000D01*
X84303000Y-27037000D01*
X84303000Y-27057000D01*
X84049000Y-27057000D01*
X84049000Y-27037000D01*
X82699750Y-27037000D01*
X82541000Y-27195750D01*
X82541000Y-27786310D01*
X82637673Y-28019699D01*
X82679634Y-28061660D01*
X82579569Y-28208110D01*
X82530585Y-28450000D01*
X79523440Y-28450000D01*
X79523440Y-27310000D01*
X79479162Y-27074683D01*
X79340090Y-26858559D01*
X79127890Y-26713569D01*
X78876000Y-26662560D01*
X76876000Y-26662560D01*
X76640683Y-26706838D01*
X76424559Y-26845910D01*
X76279569Y-27058110D01*
X76228560Y-27310000D01*
X76228560Y-31110000D01*
X76272838Y-31345317D01*
X76411910Y-31561441D01*
X76624110Y-31706431D01*
X76876000Y-31757440D01*
X77116000Y-31757440D01*
X77116000Y-31791198D01*
X76314320Y-32592878D01*
X76268833Y-32592838D01*
X76095000Y-32664664D01*
X76095000Y-26033690D01*
X82541000Y-26033690D01*
X82541000Y-26624250D01*
X82699750Y-26783000D01*
X84049000Y-26783000D01*
X84049000Y-25683750D01*
X84303000Y-25683750D01*
X84303000Y-26783000D01*
X85652250Y-26783000D01*
X85811000Y-26624250D01*
X85811000Y-26033690D01*
X85714327Y-25800301D01*
X85535698Y-25621673D01*
X85302309Y-25525000D01*
X84461750Y-25525000D01*
X84303000Y-25683750D01*
X84049000Y-25683750D01*
X83890250Y-25525000D01*
X83049691Y-25525000D01*
X82816302Y-25621673D01*
X82637673Y-25800301D01*
X82541000Y-26033690D01*
X76095000Y-26033690D01*
X76095000Y-22110626D01*
X76110645Y-22110626D01*
X76510028Y-23077207D01*
X77248904Y-23817373D01*
X78214785Y-24218442D01*
X79260626Y-24219355D01*
X80227207Y-23819972D01*
X80967373Y-23081096D01*
X81368442Y-22115215D01*
X81368643Y-21884267D01*
X82333842Y-21884267D01*
X82559580Y-22430595D01*
X82977206Y-22848951D01*
X83523139Y-23075642D01*
X84114267Y-23076158D01*
X84660595Y-22850420D01*
X85078951Y-22432794D01*
X85305642Y-21886861D01*
X85305644Y-21884267D01*
X91223842Y-21884267D01*
X91449580Y-22430595D01*
X91867206Y-22848951D01*
X92413139Y-23075642D01*
X93004267Y-23076158D01*
X93550595Y-22850420D01*
X93625000Y-22776145D01*
X93625000Y-29358197D01*
X93553162Y-29531201D01*
X93552838Y-29903167D01*
X93694883Y-30246943D01*
X93957673Y-30510192D01*
X94301201Y-30652838D01*
X94673167Y-30653162D01*
X95016943Y-30511117D01*
X95280192Y-30248327D01*
X95422838Y-29904799D01*
X95423162Y-29532833D01*
X95281117Y-29189057D01*
X95145000Y-29052702D01*
X95145000Y-22110626D01*
X95160645Y-22110626D01*
X95560028Y-23077207D01*
X96298904Y-23817373D01*
X97264785Y-24218442D01*
X98310626Y-24219355D01*
X99277207Y-23819972D01*
X100017373Y-23081096D01*
X100418442Y-22115215D01*
X100418643Y-21884267D01*
X101383842Y-21884267D01*
X101609580Y-22430595D01*
X102027206Y-22848951D01*
X102573139Y-23075642D01*
X103164267Y-23076158D01*
X103710595Y-22850420D01*
X104128951Y-22432794D01*
X104355642Y-21886861D01*
X104356158Y-21295733D01*
X104130420Y-20749405D01*
X103712794Y-20331049D01*
X103166861Y-20104358D01*
X102575733Y-20103842D01*
X102029405Y-20329580D01*
X101611049Y-20747206D01*
X101384358Y-21293139D01*
X101383842Y-21884267D01*
X100418643Y-21884267D01*
X100419355Y-21069374D01*
X100019972Y-20102793D01*
X99281096Y-19362627D01*
X98315215Y-18961558D01*
X97269374Y-18960645D01*
X96302793Y-19360028D01*
X95562627Y-20098904D01*
X95161558Y-21064785D01*
X95160645Y-22110626D01*
X95145000Y-22110626D01*
X95145000Y-20550167D01*
X95601532Y-20011842D01*
X96464188Y-18458766D01*
X96689024Y-17758484D01*
X96628758Y-17025467D01*
X96617536Y-17003630D01*
X98406742Y-17003630D01*
X98500833Y-17733077D01*
X98866909Y-18370992D01*
X99449238Y-18820257D01*
X100159166Y-19012476D01*
X100888613Y-18918385D01*
X101526528Y-18552309D01*
X101975793Y-17969980D01*
X102168012Y-17260052D01*
X102213258Y-16596369D01*
X102119167Y-15866922D01*
X101753091Y-15229008D01*
X101170762Y-14779743D01*
X100460834Y-14587524D01*
X99731387Y-14681614D01*
X99093472Y-15047691D01*
X98644207Y-15630020D01*
X98451988Y-16339948D01*
X98406742Y-17003630D01*
X96617536Y-17003630D01*
X96292567Y-16371309D01*
X95731632Y-15895602D01*
X95031350Y-15670766D01*
X94298332Y-15731032D01*
X93644175Y-16067223D01*
X93168467Y-16628158D01*
X92305812Y-18181234D01*
X92080976Y-18881516D01*
X92141242Y-19614533D01*
X92396744Y-20111688D01*
X91869405Y-20329580D01*
X91451049Y-20747206D01*
X91224358Y-21293139D01*
X91223842Y-21884267D01*
X85305644Y-21884267D01*
X85306158Y-21295733D01*
X85080420Y-20749405D01*
X84662794Y-20331049D01*
X84116861Y-20104358D01*
X83525733Y-20103842D01*
X82979405Y-20329580D01*
X82561049Y-20747206D01*
X82334358Y-21293139D01*
X82333842Y-21884267D01*
X81368643Y-21884267D01*
X81369355Y-21069374D01*
X80969972Y-20102793D01*
X80231096Y-19362627D01*
X79265215Y-18961558D01*
X78219374Y-18960645D01*
X77252793Y-19360028D01*
X76512627Y-20098904D01*
X76111558Y-21064785D01*
X76110645Y-22110626D01*
X76095000Y-22110626D01*
X76095000Y-20550167D01*
X76551532Y-20011842D01*
X77414188Y-18458766D01*
X77639024Y-17758484D01*
X77578758Y-17025467D01*
X77567536Y-17003630D01*
X79356742Y-17003630D01*
X79450833Y-17733077D01*
X79816909Y-18370992D01*
X80399238Y-18820257D01*
X81109166Y-19012476D01*
X81838613Y-18918385D01*
X82476528Y-18552309D01*
X82925793Y-17969980D01*
X83118012Y-17260052D01*
X83163258Y-16596369D01*
X83069167Y-15866922D01*
X82703091Y-15229008D01*
X82120762Y-14779743D01*
X81410834Y-14587524D01*
X80681387Y-14681614D01*
X80043472Y-15047691D01*
X79594207Y-15630020D01*
X79401988Y-16339948D01*
X79356742Y-17003630D01*
X77567536Y-17003630D01*
X77242567Y-16371309D01*
X76681632Y-15895602D01*
X75981350Y-15670766D01*
X75248332Y-15731032D01*
X74594175Y-16067223D01*
X74118467Y-16628158D01*
X73255812Y-18181234D01*
X73030976Y-18881516D01*
X73091242Y-19614533D01*
X73346744Y-20111688D01*
X72819405Y-20329580D01*
X72401049Y-20747206D01*
X72174358Y-21293139D01*
X72173842Y-21884267D01*
X72399580Y-22430595D01*
X72817206Y-22848951D01*
X73363139Y-23075642D01*
X73954267Y-23076158D01*
X74500595Y-22850420D01*
X74575000Y-22776145D01*
X74575000Y-35139833D01*
X74118467Y-35678158D01*
X73255812Y-37231234D01*
X73030976Y-37931516D01*
X73091242Y-38664533D01*
X73346744Y-39161688D01*
X72819405Y-39379580D01*
X72401049Y-39797206D01*
X72174358Y-40343139D01*
X72173842Y-40934267D01*
X72399580Y-41480595D01*
X72817206Y-41898951D01*
X73363139Y-42125642D01*
X73954267Y-42126158D01*
X74500595Y-41900420D01*
X74575000Y-41826145D01*
X74575000Y-48360709D01*
X74444327Y-48229808D01*
X74100799Y-48087162D01*
X74053923Y-48087121D01*
X73150000Y-47183198D01*
X73150000Y-45271000D01*
X73092148Y-44980161D01*
X73092148Y-44980160D01*
X72927401Y-44733599D01*
X71104918Y-42911116D01*
X71480303Y-42756010D01*
X71873629Y-42363370D01*
X72086757Y-41850100D01*
X72087242Y-41294339D01*
X71875010Y-40780697D01*
X71665658Y-40570979D01*
X71873629Y-40363370D01*
X72086757Y-39850100D01*
X72087242Y-39294339D01*
X71875010Y-38780697D01*
X71665658Y-38570979D01*
X71873629Y-38363370D01*
X72086757Y-37850100D01*
X72087242Y-37294339D01*
X71875010Y-36780697D01*
X71665658Y-36570979D01*
X71873629Y-36363370D01*
X72086757Y-35850100D01*
X72087242Y-35294339D01*
X71875010Y-34780697D01*
X71665658Y-34570979D01*
X71873629Y-34363370D01*
X72086757Y-33850100D01*
X72087242Y-33294339D01*
X71875010Y-32780697D01*
X71665658Y-32570979D01*
X71873629Y-32363370D01*
X72086757Y-31850100D01*
X72087242Y-31294339D01*
X71875010Y-30780697D01*
X71665658Y-30570979D01*
X71873629Y-30363370D01*
X72086757Y-29850100D01*
X72087242Y-29294339D01*
X71875010Y-28780697D01*
X71665658Y-28570979D01*
X71873629Y-28363370D01*
X72086757Y-27850100D01*
X72087242Y-27294339D01*
X71875010Y-26780697D01*
X71665658Y-26570979D01*
X71873629Y-26363370D01*
X72086757Y-25850100D01*
X72087242Y-25294339D01*
X71875010Y-24780697D01*
X71482370Y-24387371D01*
X70969100Y-24174243D01*
X70413339Y-24173758D01*
X69899697Y-24385990D01*
X69689979Y-24595342D01*
X69482370Y-24387371D01*
X68969100Y-24174243D01*
X68413339Y-24173758D01*
X67899697Y-24385990D01*
X67506371Y-24778630D01*
X67293243Y-25291900D01*
X67292758Y-25847661D01*
X67504990Y-26361303D01*
X67714342Y-26571021D01*
X67506371Y-26778630D01*
X67293243Y-27291900D01*
X67292758Y-27847661D01*
X67504990Y-28361303D01*
X67714342Y-28571021D01*
X67506371Y-28778630D01*
X67293243Y-29291900D01*
X67292758Y-29847661D01*
X67504990Y-30361303D01*
X67714342Y-30571021D01*
X67506371Y-30778630D01*
X67293243Y-31291900D01*
X67292758Y-31847661D01*
X67504990Y-32361303D01*
X67714342Y-32571021D01*
X67506371Y-32778630D01*
X67293243Y-33291900D01*
X67292758Y-33847661D01*
X67504990Y-34361303D01*
X67897630Y-34754629D01*
X68163727Y-34865122D01*
X68690000Y-35391395D01*
X69216302Y-34865093D01*
X69480303Y-34756010D01*
X69690021Y-34546658D01*
X69714342Y-34571021D01*
X69506371Y-34778630D01*
X69395878Y-35044727D01*
X68869605Y-35571000D01*
X69395907Y-36097302D01*
X69504990Y-36361303D01*
X69714342Y-36571021D01*
X69689979Y-36595342D01*
X69482370Y-36387371D01*
X69216273Y-36276878D01*
X68690000Y-35750605D01*
X68163698Y-36276907D01*
X67899697Y-36385990D01*
X67506371Y-36778630D01*
X67293243Y-37291900D01*
X67292758Y-37847661D01*
X67504990Y-38361303D01*
X67714342Y-38571021D01*
X67506371Y-38778630D01*
X67293243Y-39291900D01*
X67292758Y-39847661D01*
X67300007Y-39865205D01*
X63999157Y-36564355D01*
X64068012Y-36310052D01*
X64113258Y-35646369D01*
X64076746Y-35363302D01*
X67280856Y-35363302D01*
X67308638Y-35918368D01*
X67467603Y-36302143D01*
X67709787Y-36371608D01*
X68510395Y-35571000D01*
X67709787Y-34770392D01*
X67467603Y-34839857D01*
X67280856Y-35363302D01*
X64076746Y-35363302D01*
X64019167Y-34916922D01*
X63653091Y-34279008D01*
X63070762Y-33829743D01*
X62360834Y-33637524D01*
X61631387Y-33731614D01*
X60993472Y-34097691D01*
X60544207Y-34680020D01*
X60351988Y-35389948D01*
X60306742Y-36053630D01*
X58517536Y-36053630D01*
X58192567Y-35421309D01*
X57631632Y-34945602D01*
X57045000Y-34757255D01*
X57045000Y-22110626D01*
X57060645Y-22110626D01*
X57460028Y-23077207D01*
X58198904Y-23817373D01*
X59164785Y-24218442D01*
X60210626Y-24219355D01*
X61177207Y-23819972D01*
X61917373Y-23081096D01*
X62318442Y-22115215D01*
X62318643Y-21884267D01*
X63283842Y-21884267D01*
X63509580Y-22430595D01*
X63927206Y-22848951D01*
X64473139Y-23075642D01*
X65064267Y-23076158D01*
X65610595Y-22850420D01*
X66028951Y-22432794D01*
X66255642Y-21886861D01*
X66256158Y-21295733D01*
X66030420Y-20749405D01*
X65612794Y-20331049D01*
X65066861Y-20104358D01*
X64475733Y-20103842D01*
X63929405Y-20329580D01*
X63511049Y-20747206D01*
X63284358Y-21293139D01*
X63283842Y-21884267D01*
X62318643Y-21884267D01*
X62319355Y-21069374D01*
X61919972Y-20102793D01*
X61181096Y-19362627D01*
X60215215Y-18961558D01*
X59169374Y-18960645D01*
X58202793Y-19360028D01*
X57462627Y-20098904D01*
X57061558Y-21064785D01*
X57060645Y-22110626D01*
X57045000Y-22110626D01*
X57045000Y-20550167D01*
X57501532Y-20011842D01*
X58364188Y-18458766D01*
X58589024Y-17758484D01*
X58528758Y-17025467D01*
X58517536Y-17003630D01*
X60306742Y-17003630D01*
X60400833Y-17733077D01*
X60766909Y-18370992D01*
X61349238Y-18820257D01*
X62059166Y-19012476D01*
X62788613Y-18918385D01*
X63426528Y-18552309D01*
X63875793Y-17969980D01*
X64068012Y-17260052D01*
X64113258Y-16596369D01*
X64019167Y-15866922D01*
X63653091Y-15229008D01*
X63070762Y-14779743D01*
X62360834Y-14587524D01*
X61631387Y-14681614D01*
X60993472Y-15047691D01*
X60544207Y-15630020D01*
X60351988Y-16339948D01*
X60306742Y-17003630D01*
X58517536Y-17003630D01*
X58192567Y-16371309D01*
X57631632Y-15895602D01*
X56931350Y-15670766D01*
X56198332Y-15731032D01*
X55544175Y-16067223D01*
X55068467Y-16628158D01*
X54205812Y-18181234D01*
X53980976Y-18881516D01*
X54041242Y-19614533D01*
X54296744Y-20111688D01*
X53769405Y-20329580D01*
X53351049Y-20747206D01*
X53124358Y-21293139D01*
X53123842Y-21884267D01*
X53349580Y-22430595D01*
X53767206Y-22848951D01*
X54313139Y-23075642D01*
X54904267Y-23076158D01*
X55450595Y-22850420D01*
X55525000Y-22776145D01*
X55525000Y-35139833D01*
X55343570Y-35353768D01*
X53023401Y-33033599D01*
X52776839Y-32868852D01*
X52486000Y-32811000D01*
X51887531Y-32811000D01*
X51875010Y-32780697D01*
X51665658Y-32570979D01*
X51873629Y-32363370D01*
X52086757Y-31850100D01*
X52087242Y-31294339D01*
X51875010Y-30780697D01*
X51665658Y-30570979D01*
X51873629Y-30363370D01*
X52086757Y-29850100D01*
X52087242Y-29294339D01*
X51875010Y-28780697D01*
X51665658Y-28570979D01*
X51873629Y-28363370D01*
X52086757Y-27850100D01*
X52087242Y-27294339D01*
X51875010Y-26780697D01*
X51665658Y-26570979D01*
X51873629Y-26363370D01*
X52086757Y-25850100D01*
X52087242Y-25294339D01*
X51875010Y-24780697D01*
X51482370Y-24387371D01*
X50969100Y-24174243D01*
X50413339Y-24173758D01*
X49899697Y-24385990D01*
X49689979Y-24595342D01*
X49482370Y-24387371D01*
X48969100Y-24174243D01*
X48413339Y-24173758D01*
X47899697Y-24385990D01*
X47506371Y-24778630D01*
X47293243Y-25291900D01*
X47292758Y-25847661D01*
X47504990Y-26361303D01*
X47714342Y-26571021D01*
X47506371Y-26778630D01*
X47293243Y-27291900D01*
X47292758Y-27847661D01*
X47504990Y-28361303D01*
X47714342Y-28571021D01*
X47506371Y-28778630D01*
X47293243Y-29291900D01*
X47292758Y-29847661D01*
X47504990Y-30361303D01*
X47714342Y-30571021D01*
X47506371Y-30778630D01*
X47293243Y-31291900D01*
X47292758Y-31847661D01*
X47504990Y-32361303D01*
X47714342Y-32571021D01*
X47506371Y-32778630D01*
X47293243Y-33291900D01*
X47292758Y-33847661D01*
X47504990Y-34361303D01*
X47714342Y-34571021D01*
X47506371Y-34778630D01*
X47492930Y-34811000D01*
X47315802Y-34811000D01*
X38082903Y-25578101D01*
X38040148Y-25363161D01*
X37995000Y-25295592D01*
X37995000Y-22110626D01*
X38010645Y-22110626D01*
X38410028Y-23077207D01*
X39148904Y-23817373D01*
X40114785Y-24218442D01*
X41160626Y-24219355D01*
X42127207Y-23819972D01*
X42867373Y-23081096D01*
X43268442Y-22115215D01*
X43268643Y-21884267D01*
X44233842Y-21884267D01*
X44459580Y-22430595D01*
X44877206Y-22848951D01*
X45423139Y-23075642D01*
X46014267Y-23076158D01*
X46560595Y-22850420D01*
X46978951Y-22432794D01*
X47205642Y-21886861D01*
X47206158Y-21295733D01*
X46980420Y-20749405D01*
X46562794Y-20331049D01*
X46016861Y-20104358D01*
X45425733Y-20103842D01*
X44879405Y-20329580D01*
X44461049Y-20747206D01*
X44234358Y-21293139D01*
X44233842Y-21884267D01*
X43268643Y-21884267D01*
X43269355Y-21069374D01*
X42869972Y-20102793D01*
X42131096Y-19362627D01*
X41165215Y-18961558D01*
X40119374Y-18960645D01*
X39152793Y-19360028D01*
X38412627Y-20098904D01*
X38011558Y-21064785D01*
X38010645Y-22110626D01*
X37995000Y-22110626D01*
X37995000Y-20550167D01*
X38451532Y-20011842D01*
X39314188Y-18458766D01*
X39539024Y-17758484D01*
X39478758Y-17025467D01*
X39467536Y-17003630D01*
X41256742Y-17003630D01*
X41350833Y-17733077D01*
X41716909Y-18370992D01*
X42299238Y-18820257D01*
X43009166Y-19012476D01*
X43738613Y-18918385D01*
X44376528Y-18552309D01*
X44825793Y-17969980D01*
X45018012Y-17260052D01*
X45063258Y-16596369D01*
X44969167Y-15866922D01*
X44603091Y-15229008D01*
X44020762Y-14779743D01*
X43310834Y-14587524D01*
X42581387Y-14681614D01*
X41943472Y-15047691D01*
X41494207Y-15630020D01*
X41301988Y-16339948D01*
X41256742Y-17003630D01*
X39467536Y-17003630D01*
X39142567Y-16371309D01*
X38581632Y-15895602D01*
X37881350Y-15670766D01*
X37148332Y-15731032D01*
X36494175Y-16067223D01*
X36018467Y-16628158D01*
X35155812Y-18181234D01*
X34930976Y-18881516D01*
X34991242Y-19614533D01*
X35246744Y-20111688D01*
X34719405Y-20329580D01*
X34301049Y-20747206D01*
X34074358Y-21293139D01*
X34073842Y-21884267D01*
X28155644Y-21884267D01*
X28156158Y-21295733D01*
X27930420Y-20749405D01*
X27512794Y-20331049D01*
X26966861Y-20104358D01*
X26375733Y-20103842D01*
X25829405Y-20329580D01*
X25411049Y-20747206D01*
X25184358Y-21293139D01*
X25183842Y-21884267D01*
X24218643Y-21884267D01*
X24219355Y-21069374D01*
X23819972Y-20102793D01*
X23081096Y-19362627D01*
X22115215Y-18961558D01*
X21069374Y-18960645D01*
X20102793Y-19360028D01*
X19362627Y-20098904D01*
X18961558Y-21064785D01*
X18960645Y-22110626D01*
X17902726Y-22110626D01*
X17995642Y-21886861D01*
X17996158Y-21295733D01*
X17850652Y-20943582D01*
X18271667Y-20908968D01*
X18925825Y-20572777D01*
X19401532Y-20011842D01*
X20264188Y-18458766D01*
X20489024Y-17758484D01*
X20428758Y-17025467D01*
X20417536Y-17003630D01*
X22206742Y-17003630D01*
X22300833Y-17733077D01*
X22666909Y-18370992D01*
X23249238Y-18820257D01*
X23959166Y-19012476D01*
X24688613Y-18918385D01*
X25326528Y-18552309D01*
X25775793Y-17969980D01*
X25968012Y-17260052D01*
X26013258Y-16596369D01*
X25919167Y-15866922D01*
X25553091Y-15229008D01*
X24970762Y-14779743D01*
X24260834Y-14587524D01*
X23531387Y-14681614D01*
X22893472Y-15047691D01*
X22444207Y-15630020D01*
X22251988Y-16339948D01*
X22206742Y-17003630D01*
X20417536Y-17003630D01*
X20092567Y-16371309D01*
X19531632Y-15895602D01*
X18831350Y-15670766D01*
X18098332Y-15731032D01*
X17444175Y-16067223D01*
X16968467Y-16628158D01*
X16105812Y-18181234D01*
X15880976Y-18881516D01*
X15941242Y-19614533D01*
X16196744Y-20111688D01*
X15669405Y-20329580D01*
X15251049Y-20747206D01*
X15024358Y-21293139D01*
X15023842Y-21884267D01*
X10033000Y-21884267D01*
X10033000Y-12104661D01*
X87225758Y-12104661D01*
X87437990Y-12618303D01*
X87830630Y-13011629D01*
X88343900Y-13224757D01*
X88899661Y-13225242D01*
X89413303Y-13013010D01*
X89806629Y-12620370D01*
X90019757Y-12107100D01*
X90019759Y-12104661D01*
X100225758Y-12104661D01*
X100437990Y-12618303D01*
X100830630Y-13011629D01*
X101343900Y-13224757D01*
X101899661Y-13225242D01*
X102413303Y-13013010D01*
X102806629Y-12620370D01*
X103019757Y-12107100D01*
X103020242Y-11551339D01*
X102808010Y-11037697D01*
X102415370Y-10644371D01*
X101902100Y-10431243D01*
X101346339Y-10430758D01*
X100832697Y-10642990D01*
X100439371Y-11035630D01*
X100226243Y-11548900D01*
X100225758Y-12104661D01*
X90019759Y-12104661D01*
X90020242Y-11551339D01*
X89808010Y-11037697D01*
X89415370Y-10644371D01*
X88902100Y-10431243D01*
X88346339Y-10430758D01*
X87832697Y-10642990D01*
X87439371Y-11035630D01*
X87226243Y-11548900D01*
X87225758Y-12104661D01*
X10033000Y-12104661D01*
X10033000Y-10033000D01*
X128396598Y-10033000D01*
X128143402Y-90043000D01*
M02*
