G04 #@! TF.FileFunction,Legend,Top*
%FSLAX46Y46*%
G04 Gerber Fmt 4.6, Leading zero omitted, Abs format (unit mm)*
G04 Created by KiCad (PCBNEW 4.0.7) date 07/17/18 15:17:27*
%MOMM*%
%LPD*%
G01*
G04 APERTURE LIST*
%ADD10C,0.100000*%
%ADD11C,0.010000*%
%ADD12C,0.120000*%
%ADD13C,0.150000*%
G04 APERTURE END LIST*
D10*
D11*
G36*
X22263922Y-48659944D02*
X22359012Y-48457670D01*
X22487737Y-48262256D01*
X22601810Y-48138859D01*
X22804721Y-47989747D01*
X23013992Y-47876047D01*
X23021014Y-47873171D01*
X23164175Y-47832000D01*
X23285350Y-47857452D01*
X23436483Y-47965938D01*
X23505828Y-48026348D01*
X23685457Y-48206323D01*
X23903221Y-48453395D01*
X24113757Y-48715945D01*
X24125341Y-48731293D01*
X24475050Y-49196526D01*
X24741396Y-49104372D01*
X25072219Y-49040709D01*
X25447726Y-49044871D01*
X25802793Y-49111928D01*
X26017289Y-49200983D01*
X26203194Y-49343288D01*
X26407158Y-49549855D01*
X26510413Y-49676753D01*
X26768126Y-50002439D01*
X26982894Y-50217636D01*
X27179037Y-50340475D01*
X27380870Y-50389088D01*
X27469462Y-50391797D01*
X27703605Y-50371164D01*
X27900858Y-50326296D01*
X27929765Y-50314960D01*
X28030432Y-50253133D01*
X28046817Y-50164158D01*
X27988090Y-49997146D01*
X27987340Y-49995356D01*
X27922360Y-49738487D01*
X27960403Y-49547608D01*
X28096086Y-49444395D01*
X28125849Y-49437578D01*
X28250266Y-49448759D01*
X28459122Y-49498406D01*
X28714561Y-49573863D01*
X28978729Y-49662476D01*
X29213771Y-49751592D01*
X29381834Y-49828555D01*
X29444917Y-49878522D01*
X29408776Y-49970667D01*
X29396566Y-49982996D01*
X29375890Y-50081952D01*
X29401415Y-50170716D01*
X29417247Y-50288635D01*
X29348429Y-50327368D01*
X29265668Y-50386989D01*
X29266509Y-50433926D01*
X29237708Y-50511884D01*
X29175895Y-50532216D01*
X29104603Y-50559777D01*
X29094597Y-50646441D01*
X29142895Y-50828260D01*
X29149643Y-50849412D01*
X29203845Y-51043292D01*
X29194815Y-51155895D01*
X29108771Y-51242409D01*
X29040023Y-51288323D01*
X28832423Y-51422140D01*
X29580776Y-51590430D01*
X30106343Y-51696441D01*
X30564242Y-51757383D01*
X31022285Y-51780261D01*
X31387902Y-51777160D01*
X31598725Y-51755675D01*
X31881540Y-51705920D01*
X32197862Y-51637284D01*
X32509207Y-51559151D01*
X32777085Y-51480909D01*
X32963011Y-51411943D01*
X33018638Y-51379447D01*
X33045047Y-51306735D01*
X33007221Y-51170833D01*
X32897140Y-50945702D01*
X32869027Y-50893684D01*
X32756981Y-50663167D01*
X32689742Y-50474146D01*
X32680801Y-50374532D01*
X32741954Y-50276235D01*
X32873798Y-50097271D01*
X33053520Y-49867982D01*
X33162171Y-49734259D01*
X33375705Y-49458848D01*
X33567280Y-49183638D01*
X33706163Y-48953820D01*
X33740490Y-48883787D01*
X33857237Y-48654483D01*
X33946315Y-48566996D01*
X34007411Y-48621532D01*
X34026194Y-48695291D01*
X34060638Y-48786601D01*
X34145348Y-48798297D01*
X34293836Y-48750433D01*
X34462745Y-48696494D01*
X34533041Y-48718517D01*
X34522769Y-48839076D01*
X34480502Y-48983959D01*
X34438465Y-49139134D01*
X34462121Y-49193763D01*
X34571953Y-49185225D01*
X34589151Y-49182215D01*
X34740391Y-49179669D01*
X34768451Y-49242263D01*
X34675717Y-49362343D01*
X34564998Y-49452427D01*
X34544721Y-49337431D01*
X34574155Y-49295395D01*
X34532119Y-49265962D01*
X34502686Y-49307997D01*
X34544721Y-49337431D01*
X34564998Y-49452427D01*
X34484442Y-49517971D01*
X34176872Y-49754409D01*
X33923016Y-49975595D01*
X33742621Y-50162313D01*
X33655436Y-50295348D01*
X33651030Y-50328927D01*
X33716942Y-50422738D01*
X33864060Y-50551254D01*
X33940492Y-50606213D01*
X34213682Y-50791212D01*
X34593683Y-50444857D01*
X34812721Y-50224037D01*
X35019001Y-49979652D01*
X35189701Y-49743239D01*
X35302002Y-49546334D01*
X35333479Y-49422515D01*
X35365581Y-49291225D01*
X35473472Y-49101719D01*
X35627860Y-48895906D01*
X35799456Y-48715694D01*
X35866174Y-48660300D01*
X36144994Y-48478704D01*
X36516715Y-48287010D01*
X36992889Y-48080288D01*
X37585069Y-47853605D01*
X38304807Y-47602030D01*
X38491935Y-47539353D01*
X38966896Y-47379888D01*
X39324734Y-47254839D01*
X39586705Y-47154831D01*
X39774065Y-47070488D01*
X39908070Y-46992434D01*
X40009977Y-46911293D01*
X40082899Y-46837616D01*
X40269126Y-46668473D01*
X40474487Y-46571250D01*
X40688389Y-46522399D01*
X40938943Y-46492529D01*
X41121535Y-46519344D01*
X41306224Y-46614616D01*
X41330416Y-46630265D01*
X41567819Y-46829768D01*
X41796446Y-47095255D01*
X41981692Y-47379613D01*
X42088952Y-47635727D01*
X42097126Y-47674129D01*
X42101394Y-47893274D01*
X42061911Y-48135779D01*
X42057149Y-48152817D01*
X41954016Y-48369603D01*
X41789278Y-48591598D01*
X41729814Y-48652681D01*
X41619357Y-48776834D01*
X41441190Y-49001293D01*
X41209782Y-49306730D01*
X40939600Y-49673813D01*
X40645113Y-50083211D01*
X40414592Y-50409846D01*
X40103294Y-50847513D01*
X39796948Y-51265164D01*
X39511879Y-51641521D01*
X39264414Y-51955295D01*
X39070880Y-52185206D01*
X38976471Y-52284628D01*
X38768091Y-52465248D01*
X38565521Y-52593147D01*
X38335385Y-52678832D01*
X38044308Y-52732809D01*
X37658914Y-52765586D01*
X37410148Y-52777739D01*
X37179132Y-52791742D01*
X37007010Y-52822774D01*
X36848595Y-52888967D01*
X36658693Y-53008451D01*
X36432505Y-53170006D01*
X36186256Y-53351868D01*
X36034160Y-53481876D01*
X35952582Y-53592983D01*
X35917883Y-53718139D01*
X35906428Y-53890296D01*
X35905917Y-53904107D01*
X35899337Y-54118491D01*
X35897279Y-54264567D01*
X35898472Y-54298439D01*
X35963380Y-54307433D01*
X36119995Y-54260465D01*
X36333336Y-54172397D01*
X36568421Y-54058094D01*
X36790269Y-53932417D01*
X36849632Y-53894307D01*
X37129498Y-53721702D01*
X37310235Y-53643941D01*
X37399935Y-53658030D01*
X37411767Y-53686474D01*
X37379331Y-53788353D01*
X37331983Y-53856274D01*
X37274828Y-53971881D01*
X37346837Y-54039680D01*
X37550660Y-54064946D01*
X37731518Y-54094611D01*
X37775364Y-54172013D01*
X37682151Y-54296865D01*
X37598668Y-54366026D01*
X37470335Y-54473291D01*
X37450878Y-54543102D01*
X37531307Y-54622709D01*
X37547445Y-54635320D01*
X37652801Y-54741173D01*
X37635927Y-54806708D01*
X37489782Y-54836570D01*
X37242231Y-54836799D01*
X36976474Y-54845897D01*
X36659574Y-54895831D01*
X36256191Y-54992791D01*
X36088371Y-55038889D01*
X35766818Y-55125087D01*
X35491238Y-55191115D01*
X35294870Y-55229484D01*
X35222650Y-55234780D01*
X35195553Y-55081103D01*
X36306554Y-54885203D01*
X36748005Y-54804363D01*
X37056004Y-54740502D01*
X37240906Y-54690969D01*
X37313070Y-54653110D01*
X37299620Y-54630872D01*
X37240159Y-54576403D01*
X37277179Y-54494650D01*
X37387832Y-54384597D01*
X37593977Y-54196755D01*
X37314826Y-54156208D01*
X37137669Y-54125050D01*
X37078114Y-54081587D01*
X37109909Y-53994198D01*
X37139320Y-53944811D01*
X37207025Y-53826329D01*
X37191137Y-53809913D01*
X37110390Y-53857930D01*
X36703911Y-54098472D01*
X36351957Y-54273272D01*
X36071610Y-54375415D01*
X35879954Y-54397991D01*
X35824264Y-54378384D01*
X35798620Y-54293608D01*
X35784269Y-54113969D01*
X35783059Y-54003345D01*
X35768527Y-53759920D01*
X35721308Y-53636969D01*
X35707600Y-53628155D01*
X35731933Y-53577755D01*
X35856713Y-53463901D01*
X36061565Y-53303561D01*
X36322015Y-53116537D01*
X37015381Y-52636366D01*
X37480151Y-52639935D01*
X37893793Y-52633200D01*
X38202213Y-52597253D01*
X38444372Y-52519524D01*
X38659235Y-52387441D01*
X38885762Y-52188436D01*
X38888858Y-52185447D01*
X39148661Y-51907456D01*
X39460021Y-51524600D01*
X39827261Y-51031076D01*
X40254708Y-50421082D01*
X40726917Y-49718702D01*
X40948041Y-49399661D01*
X41168205Y-49108191D01*
X41362492Y-48875720D01*
X41505993Y-48733674D01*
X41510585Y-48730118D01*
X41794700Y-48436801D01*
X41943231Y-48100855D01*
X41954550Y-47735536D01*
X41827028Y-47354093D01*
X41704464Y-47152575D01*
X41415869Y-46838407D01*
X41097896Y-46658154D01*
X40767174Y-46612905D01*
X40440338Y-46703749D01*
X40134017Y-46931775D01*
X40035474Y-47043265D01*
X39928121Y-47126640D01*
X39719728Y-47228098D01*
X39397903Y-47352806D01*
X38950254Y-47505925D01*
X38834137Y-47543780D01*
X38079912Y-47793171D01*
X37452578Y-48014070D01*
X36938456Y-48214137D01*
X36523867Y-48401028D01*
X36195133Y-48582398D01*
X35938574Y-48765904D01*
X35740513Y-48959204D01*
X35587269Y-49169954D01*
X35465164Y-49405811D01*
X35451521Y-49437175D01*
X35131424Y-50007532D01*
X34694399Y-50511255D01*
X34410060Y-50751171D01*
X34218187Y-50891354D01*
X34111873Y-50951998D01*
X34062717Y-50943456D01*
X34043785Y-50884664D01*
X33979907Y-50793478D01*
X33836061Y-50662611D01*
X33756157Y-50601527D01*
X33605822Y-50477831D01*
X33537756Y-50365150D01*
X33559113Y-50240557D01*
X33677049Y-50081120D01*
X33898715Y-49863908D01*
X34020822Y-49753204D01*
X34210693Y-49570758D01*
X34329302Y-49431763D01*
X34358942Y-49357877D01*
X34348967Y-49351820D01*
X34290411Y-49309837D01*
X34300064Y-49193084D01*
X34331745Y-49089344D01*
X34374610Y-48922332D01*
X34340992Y-48866354D01*
X34215346Y-48912374D01*
X34120365Y-48966497D01*
X33988952Y-49023406D01*
X33918834Y-48979723D01*
X33903994Y-48949381D01*
X33861335Y-48890343D01*
X33818570Y-48953362D01*
X33793287Y-49027783D01*
X33722353Y-49165630D01*
X33580499Y-49379898D01*
X33391107Y-49636671D01*
X33255185Y-49808338D01*
X33058407Y-50061519D01*
X32904895Y-50281336D01*
X32813499Y-50439407D01*
X32796657Y-50498604D01*
X32843176Y-50612276D01*
X32945644Y-50802806D01*
X33060446Y-50994193D01*
X33305772Y-51385068D01*
X33160925Y-51459551D01*
X33036205Y-51503529D01*
X32802488Y-51568782D01*
X32492795Y-51646629D01*
X32140147Y-51728391D01*
X32126998Y-51731314D01*
X31713789Y-51818469D01*
X31394439Y-51871993D01*
X31122801Y-51896514D01*
X30852723Y-51896659D01*
X30615146Y-51882954D01*
X30321393Y-51848538D01*
X29968453Y-51787606D01*
X29586970Y-51707796D01*
X29207593Y-51616751D01*
X28860965Y-51522110D01*
X28577733Y-51431516D01*
X28388543Y-51352608D01*
X28332780Y-51313899D01*
X28306250Y-51257623D01*
X28399175Y-51266156D01*
X28406661Y-51267994D01*
X28649075Y-51281226D01*
X28883212Y-51220442D01*
X29044231Y-51102761D01*
X29046972Y-51098933D01*
X29087060Y-51017506D01*
X29077165Y-50924067D01*
X29005132Y-50783407D01*
X28863212Y-50566823D01*
X28735044Y-50361591D01*
X28653529Y-50200383D01*
X28623785Y-50102937D01*
X28650930Y-50088994D01*
X28740082Y-50178293D01*
X28773250Y-50219826D01*
X28898024Y-50347266D01*
X29021970Y-50427029D01*
X29113041Y-50448366D01*
X29139188Y-50400520D01*
X29109495Y-50332653D01*
X29104668Y-50238615D01*
X29157614Y-50213632D01*
X29225549Y-50155352D01*
X29198297Y-50047553D01*
X29170489Y-49941771D01*
X29222563Y-49937087D01*
X29301673Y-49949085D01*
X29307823Y-49936868D01*
X29237075Y-49882171D01*
X29065373Y-49805614D01*
X28832662Y-49720167D01*
X28578888Y-49638800D01*
X28343998Y-49574485D01*
X28167939Y-49540193D01*
X28095873Y-49543337D01*
X28044502Y-49606533D01*
X28044144Y-49727558D01*
X28096127Y-49941311D01*
X28113279Y-49999448D01*
X28231901Y-50394757D01*
X27720969Y-50455374D01*
X27424835Y-50480535D01*
X27202109Y-50462333D01*
X27017171Y-50382937D01*
X26834404Y-50224513D01*
X26618193Y-49969229D01*
X26533551Y-49860842D01*
X26300664Y-49593464D01*
X26061177Y-49374303D01*
X25893560Y-49261230D01*
X25729848Y-49186509D01*
X25577898Y-49152129D01*
X25391105Y-49155405D01*
X25122867Y-49193654D01*
X25022263Y-49211069D01*
X24444734Y-49312903D01*
X24064216Y-48826565D01*
X23858410Y-48571042D01*
X23657464Y-48334117D01*
X23498884Y-48159764D01*
X23474722Y-48135457D01*
X23265748Y-47930687D01*
X23002039Y-48276463D01*
X22828569Y-48486491D01*
X22660873Y-48661494D01*
X22571329Y-48736998D01*
X22404329Y-48851755D01*
X23024519Y-49263398D01*
X23385628Y-49509237D01*
X23640156Y-49702621D01*
X23806572Y-49864772D01*
X23903348Y-50016909D01*
X23948954Y-50180256D01*
X23961179Y-50339538D01*
X23989163Y-50572137D01*
X24071999Y-50816949D01*
X24226744Y-51123612D01*
X24236807Y-51141698D01*
X24484862Y-51549572D01*
X24749054Y-51898525D01*
X25064286Y-52228526D01*
X25465457Y-52579545D01*
X25558103Y-52655005D01*
X26016560Y-53070502D01*
X26381577Y-53496213D01*
X26633526Y-53908310D01*
X26681650Y-54019320D01*
X26723551Y-54144730D01*
X26706871Y-54222394D01*
X26605133Y-54284118D01*
X26398591Y-54359379D01*
X26191134Y-54445593D01*
X26052446Y-54530641D01*
X26019304Y-54574138D01*
X26074256Y-54642576D01*
X26232690Y-54755459D01*
X26467176Y-54894549D01*
X26638485Y-54985829D01*
X26981884Y-55160662D01*
X27214572Y-55275331D01*
X27354559Y-55336735D01*
X27419854Y-55351771D01*
X27428463Y-55327341D01*
X27403629Y-55278966D01*
X27386650Y-55200186D01*
X27453980Y-55196737D01*
X27552474Y-55157564D01*
X27579424Y-55064917D01*
X27571731Y-54971838D01*
X27503841Y-54939510D01*
X27339664Y-54955952D01*
X27281243Y-54965945D01*
X27078736Y-54986072D01*
X26938886Y-54971590D01*
X26913769Y-54957049D01*
X26944622Y-54908718D01*
X27106045Y-54855076D01*
X27294727Y-54816185D01*
X27628921Y-54741548D01*
X27833429Y-54652473D01*
X27923680Y-54537411D01*
X27915101Y-54384813D01*
X27906369Y-54358322D01*
X27800601Y-54183362D01*
X27685998Y-54083975D01*
X27527028Y-53998107D01*
X27311891Y-53883466D01*
X27235447Y-53843035D01*
X27033145Y-53728533D01*
X26954015Y-53666303D01*
X26986559Y-53654470D01*
X27119282Y-53691164D01*
X27340688Y-53774512D01*
X27639281Y-53902642D01*
X27660647Y-53912277D01*
X28122739Y-54101762D01*
X28661033Y-54291111D01*
X29236768Y-54469340D01*
X29811184Y-54625461D01*
X30345520Y-54748490D01*
X30801018Y-54827438D01*
X30946789Y-54843721D01*
X31438807Y-54853019D01*
X32009917Y-54808515D01*
X32623286Y-54717974D01*
X33242079Y-54589152D01*
X33829463Y-54429811D01*
X34348604Y-54247714D01*
X34762668Y-54050618D01*
X34791390Y-54033691D01*
X34872774Y-54013270D01*
X34883051Y-54111720D01*
X34883041Y-54111809D01*
X34900223Y-54253935D01*
X34961525Y-54474778D01*
X35031129Y-54667950D01*
X35195553Y-55081103D01*
X35222650Y-55234780D01*
X35216954Y-55235197D01*
X35140446Y-55157975D01*
X35040961Y-54968089D01*
X34932908Y-54693123D01*
X34931310Y-54688535D01*
X34831489Y-54418266D01*
X34756639Y-54265402D01*
X34692905Y-54207494D01*
X34639089Y-54215183D01*
X34509459Y-54278374D01*
X34311364Y-54374750D01*
X34224482Y-54416980D01*
X34005401Y-54496701D01*
X33655530Y-54588738D01*
X33188391Y-54689867D01*
X32668669Y-54787812D01*
X32175000Y-54872721D01*
X31794217Y-54930157D01*
X31497251Y-54962920D01*
X31255038Y-54973802D01*
X31038508Y-54965599D01*
X30929579Y-54955079D01*
X30422279Y-54877578D01*
X29842365Y-54756460D01*
X29250247Y-54606174D01*
X28706332Y-54441170D01*
X28542683Y-54384127D01*
X28002463Y-54187874D01*
X28020416Y-54418045D01*
X27986895Y-54639529D01*
X27890642Y-54746700D01*
X27784653Y-54847732D01*
X27762793Y-54916625D01*
X27761201Y-55131387D01*
X27671087Y-55343576D01*
X27613144Y-55410499D01*
X27517807Y-55469346D01*
X27398517Y-55465749D01*
X27209752Y-55395527D01*
X27147849Y-55367747D01*
X26654123Y-55132538D01*
X26293258Y-54935365D01*
X26059997Y-54769654D01*
X25949083Y-54628833D01*
X25955260Y-54506331D01*
X26073271Y-54395574D01*
X26288643Y-54293521D01*
X26640861Y-54157724D01*
X26507828Y-53919234D01*
X26124065Y-53357585D01*
X25632568Y-52867208D01*
X25502789Y-52762263D01*
X24982392Y-52304156D01*
X24540215Y-51809287D01*
X24191992Y-51299878D01*
X23953467Y-50798156D01*
X23855265Y-50435832D01*
X23802102Y-50172976D01*
X23734762Y-49999726D01*
X23624865Y-49861238D01*
X23500009Y-49749358D01*
X23288348Y-49586744D01*
X23014309Y-49396858D01*
X22771248Y-49241891D01*
X22539565Y-49101226D01*
X22353573Y-48987787D01*
X22251143Y-48924676D01*
X22247967Y-48922668D01*
X22220797Y-48828477D01*
X22263922Y-48659944D01*
X22263922Y-48659944D01*
G37*
X22263922Y-48659944D02*
X22359012Y-48457670D01*
X22487737Y-48262256D01*
X22601810Y-48138859D01*
X22804721Y-47989747D01*
X23013992Y-47876047D01*
X23021014Y-47873171D01*
X23164175Y-47832000D01*
X23285350Y-47857452D01*
X23436483Y-47965938D01*
X23505828Y-48026348D01*
X23685457Y-48206323D01*
X23903221Y-48453395D01*
X24113757Y-48715945D01*
X24125341Y-48731293D01*
X24475050Y-49196526D01*
X24741396Y-49104372D01*
X25072219Y-49040709D01*
X25447726Y-49044871D01*
X25802793Y-49111928D01*
X26017289Y-49200983D01*
X26203194Y-49343288D01*
X26407158Y-49549855D01*
X26510413Y-49676753D01*
X26768126Y-50002439D01*
X26982894Y-50217636D01*
X27179037Y-50340475D01*
X27380870Y-50389088D01*
X27469462Y-50391797D01*
X27703605Y-50371164D01*
X27900858Y-50326296D01*
X27929765Y-50314960D01*
X28030432Y-50253133D01*
X28046817Y-50164158D01*
X27988090Y-49997146D01*
X27987340Y-49995356D01*
X27922360Y-49738487D01*
X27960403Y-49547608D01*
X28096086Y-49444395D01*
X28125849Y-49437578D01*
X28250266Y-49448759D01*
X28459122Y-49498406D01*
X28714561Y-49573863D01*
X28978729Y-49662476D01*
X29213771Y-49751592D01*
X29381834Y-49828555D01*
X29444917Y-49878522D01*
X29408776Y-49970667D01*
X29396566Y-49982996D01*
X29375890Y-50081952D01*
X29401415Y-50170716D01*
X29417247Y-50288635D01*
X29348429Y-50327368D01*
X29265668Y-50386989D01*
X29266509Y-50433926D01*
X29237708Y-50511884D01*
X29175895Y-50532216D01*
X29104603Y-50559777D01*
X29094597Y-50646441D01*
X29142895Y-50828260D01*
X29149643Y-50849412D01*
X29203845Y-51043292D01*
X29194815Y-51155895D01*
X29108771Y-51242409D01*
X29040023Y-51288323D01*
X28832423Y-51422140D01*
X29580776Y-51590430D01*
X30106343Y-51696441D01*
X30564242Y-51757383D01*
X31022285Y-51780261D01*
X31387902Y-51777160D01*
X31598725Y-51755675D01*
X31881540Y-51705920D01*
X32197862Y-51637284D01*
X32509207Y-51559151D01*
X32777085Y-51480909D01*
X32963011Y-51411943D01*
X33018638Y-51379447D01*
X33045047Y-51306735D01*
X33007221Y-51170833D01*
X32897140Y-50945702D01*
X32869027Y-50893684D01*
X32756981Y-50663167D01*
X32689742Y-50474146D01*
X32680801Y-50374532D01*
X32741954Y-50276235D01*
X32873798Y-50097271D01*
X33053520Y-49867982D01*
X33162171Y-49734259D01*
X33375705Y-49458848D01*
X33567280Y-49183638D01*
X33706163Y-48953820D01*
X33740490Y-48883787D01*
X33857237Y-48654483D01*
X33946315Y-48566996D01*
X34007411Y-48621532D01*
X34026194Y-48695291D01*
X34060638Y-48786601D01*
X34145348Y-48798297D01*
X34293836Y-48750433D01*
X34462745Y-48696494D01*
X34533041Y-48718517D01*
X34522769Y-48839076D01*
X34480502Y-48983959D01*
X34438465Y-49139134D01*
X34462121Y-49193763D01*
X34571953Y-49185225D01*
X34589151Y-49182215D01*
X34740391Y-49179669D01*
X34768451Y-49242263D01*
X34675717Y-49362343D01*
X34564998Y-49452427D01*
X34544721Y-49337431D01*
X34574155Y-49295395D01*
X34532119Y-49265962D01*
X34502686Y-49307997D01*
X34544721Y-49337431D01*
X34564998Y-49452427D01*
X34484442Y-49517971D01*
X34176872Y-49754409D01*
X33923016Y-49975595D01*
X33742621Y-50162313D01*
X33655436Y-50295348D01*
X33651030Y-50328927D01*
X33716942Y-50422738D01*
X33864060Y-50551254D01*
X33940492Y-50606213D01*
X34213682Y-50791212D01*
X34593683Y-50444857D01*
X34812721Y-50224037D01*
X35019001Y-49979652D01*
X35189701Y-49743239D01*
X35302002Y-49546334D01*
X35333479Y-49422515D01*
X35365581Y-49291225D01*
X35473472Y-49101719D01*
X35627860Y-48895906D01*
X35799456Y-48715694D01*
X35866174Y-48660300D01*
X36144994Y-48478704D01*
X36516715Y-48287010D01*
X36992889Y-48080288D01*
X37585069Y-47853605D01*
X38304807Y-47602030D01*
X38491935Y-47539353D01*
X38966896Y-47379888D01*
X39324734Y-47254839D01*
X39586705Y-47154831D01*
X39774065Y-47070488D01*
X39908070Y-46992434D01*
X40009977Y-46911293D01*
X40082899Y-46837616D01*
X40269126Y-46668473D01*
X40474487Y-46571250D01*
X40688389Y-46522399D01*
X40938943Y-46492529D01*
X41121535Y-46519344D01*
X41306224Y-46614616D01*
X41330416Y-46630265D01*
X41567819Y-46829768D01*
X41796446Y-47095255D01*
X41981692Y-47379613D01*
X42088952Y-47635727D01*
X42097126Y-47674129D01*
X42101394Y-47893274D01*
X42061911Y-48135779D01*
X42057149Y-48152817D01*
X41954016Y-48369603D01*
X41789278Y-48591598D01*
X41729814Y-48652681D01*
X41619357Y-48776834D01*
X41441190Y-49001293D01*
X41209782Y-49306730D01*
X40939600Y-49673813D01*
X40645113Y-50083211D01*
X40414592Y-50409846D01*
X40103294Y-50847513D01*
X39796948Y-51265164D01*
X39511879Y-51641521D01*
X39264414Y-51955295D01*
X39070880Y-52185206D01*
X38976471Y-52284628D01*
X38768091Y-52465248D01*
X38565521Y-52593147D01*
X38335385Y-52678832D01*
X38044308Y-52732809D01*
X37658914Y-52765586D01*
X37410148Y-52777739D01*
X37179132Y-52791742D01*
X37007010Y-52822774D01*
X36848595Y-52888967D01*
X36658693Y-53008451D01*
X36432505Y-53170006D01*
X36186256Y-53351868D01*
X36034160Y-53481876D01*
X35952582Y-53592983D01*
X35917883Y-53718139D01*
X35906428Y-53890296D01*
X35905917Y-53904107D01*
X35899337Y-54118491D01*
X35897279Y-54264567D01*
X35898472Y-54298439D01*
X35963380Y-54307433D01*
X36119995Y-54260465D01*
X36333336Y-54172397D01*
X36568421Y-54058094D01*
X36790269Y-53932417D01*
X36849632Y-53894307D01*
X37129498Y-53721702D01*
X37310235Y-53643941D01*
X37399935Y-53658030D01*
X37411767Y-53686474D01*
X37379331Y-53788353D01*
X37331983Y-53856274D01*
X37274828Y-53971881D01*
X37346837Y-54039680D01*
X37550660Y-54064946D01*
X37731518Y-54094611D01*
X37775364Y-54172013D01*
X37682151Y-54296865D01*
X37598668Y-54366026D01*
X37470335Y-54473291D01*
X37450878Y-54543102D01*
X37531307Y-54622709D01*
X37547445Y-54635320D01*
X37652801Y-54741173D01*
X37635927Y-54806708D01*
X37489782Y-54836570D01*
X37242231Y-54836799D01*
X36976474Y-54845897D01*
X36659574Y-54895831D01*
X36256191Y-54992791D01*
X36088371Y-55038889D01*
X35766818Y-55125087D01*
X35491238Y-55191115D01*
X35294870Y-55229484D01*
X35222650Y-55234780D01*
X35195553Y-55081103D01*
X36306554Y-54885203D01*
X36748005Y-54804363D01*
X37056004Y-54740502D01*
X37240906Y-54690969D01*
X37313070Y-54653110D01*
X37299620Y-54630872D01*
X37240159Y-54576403D01*
X37277179Y-54494650D01*
X37387832Y-54384597D01*
X37593977Y-54196755D01*
X37314826Y-54156208D01*
X37137669Y-54125050D01*
X37078114Y-54081587D01*
X37109909Y-53994198D01*
X37139320Y-53944811D01*
X37207025Y-53826329D01*
X37191137Y-53809913D01*
X37110390Y-53857930D01*
X36703911Y-54098472D01*
X36351957Y-54273272D01*
X36071610Y-54375415D01*
X35879954Y-54397991D01*
X35824264Y-54378384D01*
X35798620Y-54293608D01*
X35784269Y-54113969D01*
X35783059Y-54003345D01*
X35768527Y-53759920D01*
X35721308Y-53636969D01*
X35707600Y-53628155D01*
X35731933Y-53577755D01*
X35856713Y-53463901D01*
X36061565Y-53303561D01*
X36322015Y-53116537D01*
X37015381Y-52636366D01*
X37480151Y-52639935D01*
X37893793Y-52633200D01*
X38202213Y-52597253D01*
X38444372Y-52519524D01*
X38659235Y-52387441D01*
X38885762Y-52188436D01*
X38888858Y-52185447D01*
X39148661Y-51907456D01*
X39460021Y-51524600D01*
X39827261Y-51031076D01*
X40254708Y-50421082D01*
X40726917Y-49718702D01*
X40948041Y-49399661D01*
X41168205Y-49108191D01*
X41362492Y-48875720D01*
X41505993Y-48733674D01*
X41510585Y-48730118D01*
X41794700Y-48436801D01*
X41943231Y-48100855D01*
X41954550Y-47735536D01*
X41827028Y-47354093D01*
X41704464Y-47152575D01*
X41415869Y-46838407D01*
X41097896Y-46658154D01*
X40767174Y-46612905D01*
X40440338Y-46703749D01*
X40134017Y-46931775D01*
X40035474Y-47043265D01*
X39928121Y-47126640D01*
X39719728Y-47228098D01*
X39397903Y-47352806D01*
X38950254Y-47505925D01*
X38834137Y-47543780D01*
X38079912Y-47793171D01*
X37452578Y-48014070D01*
X36938456Y-48214137D01*
X36523867Y-48401028D01*
X36195133Y-48582398D01*
X35938574Y-48765904D01*
X35740513Y-48959204D01*
X35587269Y-49169954D01*
X35465164Y-49405811D01*
X35451521Y-49437175D01*
X35131424Y-50007532D01*
X34694399Y-50511255D01*
X34410060Y-50751171D01*
X34218187Y-50891354D01*
X34111873Y-50951998D01*
X34062717Y-50943456D01*
X34043785Y-50884664D01*
X33979907Y-50793478D01*
X33836061Y-50662611D01*
X33756157Y-50601527D01*
X33605822Y-50477831D01*
X33537756Y-50365150D01*
X33559113Y-50240557D01*
X33677049Y-50081120D01*
X33898715Y-49863908D01*
X34020822Y-49753204D01*
X34210693Y-49570758D01*
X34329302Y-49431763D01*
X34358942Y-49357877D01*
X34348967Y-49351820D01*
X34290411Y-49309837D01*
X34300064Y-49193084D01*
X34331745Y-49089344D01*
X34374610Y-48922332D01*
X34340992Y-48866354D01*
X34215346Y-48912374D01*
X34120365Y-48966497D01*
X33988952Y-49023406D01*
X33918834Y-48979723D01*
X33903994Y-48949381D01*
X33861335Y-48890343D01*
X33818570Y-48953362D01*
X33793287Y-49027783D01*
X33722353Y-49165630D01*
X33580499Y-49379898D01*
X33391107Y-49636671D01*
X33255185Y-49808338D01*
X33058407Y-50061519D01*
X32904895Y-50281336D01*
X32813499Y-50439407D01*
X32796657Y-50498604D01*
X32843176Y-50612276D01*
X32945644Y-50802806D01*
X33060446Y-50994193D01*
X33305772Y-51385068D01*
X33160925Y-51459551D01*
X33036205Y-51503529D01*
X32802488Y-51568782D01*
X32492795Y-51646629D01*
X32140147Y-51728391D01*
X32126998Y-51731314D01*
X31713789Y-51818469D01*
X31394439Y-51871993D01*
X31122801Y-51896514D01*
X30852723Y-51896659D01*
X30615146Y-51882954D01*
X30321393Y-51848538D01*
X29968453Y-51787606D01*
X29586970Y-51707796D01*
X29207593Y-51616751D01*
X28860965Y-51522110D01*
X28577733Y-51431516D01*
X28388543Y-51352608D01*
X28332780Y-51313899D01*
X28306250Y-51257623D01*
X28399175Y-51266156D01*
X28406661Y-51267994D01*
X28649075Y-51281226D01*
X28883212Y-51220442D01*
X29044231Y-51102761D01*
X29046972Y-51098933D01*
X29087060Y-51017506D01*
X29077165Y-50924067D01*
X29005132Y-50783407D01*
X28863212Y-50566823D01*
X28735044Y-50361591D01*
X28653529Y-50200383D01*
X28623785Y-50102937D01*
X28650930Y-50088994D01*
X28740082Y-50178293D01*
X28773250Y-50219826D01*
X28898024Y-50347266D01*
X29021970Y-50427029D01*
X29113041Y-50448366D01*
X29139188Y-50400520D01*
X29109495Y-50332653D01*
X29104668Y-50238615D01*
X29157614Y-50213632D01*
X29225549Y-50155352D01*
X29198297Y-50047553D01*
X29170489Y-49941771D01*
X29222563Y-49937087D01*
X29301673Y-49949085D01*
X29307823Y-49936868D01*
X29237075Y-49882171D01*
X29065373Y-49805614D01*
X28832662Y-49720167D01*
X28578888Y-49638800D01*
X28343998Y-49574485D01*
X28167939Y-49540193D01*
X28095873Y-49543337D01*
X28044502Y-49606533D01*
X28044144Y-49727558D01*
X28096127Y-49941311D01*
X28113279Y-49999448D01*
X28231901Y-50394757D01*
X27720969Y-50455374D01*
X27424835Y-50480535D01*
X27202109Y-50462333D01*
X27017171Y-50382937D01*
X26834404Y-50224513D01*
X26618193Y-49969229D01*
X26533551Y-49860842D01*
X26300664Y-49593464D01*
X26061177Y-49374303D01*
X25893560Y-49261230D01*
X25729848Y-49186509D01*
X25577898Y-49152129D01*
X25391105Y-49155405D01*
X25122867Y-49193654D01*
X25022263Y-49211069D01*
X24444734Y-49312903D01*
X24064216Y-48826565D01*
X23858410Y-48571042D01*
X23657464Y-48334117D01*
X23498884Y-48159764D01*
X23474722Y-48135457D01*
X23265748Y-47930687D01*
X23002039Y-48276463D01*
X22828569Y-48486491D01*
X22660873Y-48661494D01*
X22571329Y-48736998D01*
X22404329Y-48851755D01*
X23024519Y-49263398D01*
X23385628Y-49509237D01*
X23640156Y-49702621D01*
X23806572Y-49864772D01*
X23903348Y-50016909D01*
X23948954Y-50180256D01*
X23961179Y-50339538D01*
X23989163Y-50572137D01*
X24071999Y-50816949D01*
X24226744Y-51123612D01*
X24236807Y-51141698D01*
X24484862Y-51549572D01*
X24749054Y-51898525D01*
X25064286Y-52228526D01*
X25465457Y-52579545D01*
X25558103Y-52655005D01*
X26016560Y-53070502D01*
X26381577Y-53496213D01*
X26633526Y-53908310D01*
X26681650Y-54019320D01*
X26723551Y-54144730D01*
X26706871Y-54222394D01*
X26605133Y-54284118D01*
X26398591Y-54359379D01*
X26191134Y-54445593D01*
X26052446Y-54530641D01*
X26019304Y-54574138D01*
X26074256Y-54642576D01*
X26232690Y-54755459D01*
X26467176Y-54894549D01*
X26638485Y-54985829D01*
X26981884Y-55160662D01*
X27214572Y-55275331D01*
X27354559Y-55336735D01*
X27419854Y-55351771D01*
X27428463Y-55327341D01*
X27403629Y-55278966D01*
X27386650Y-55200186D01*
X27453980Y-55196737D01*
X27552474Y-55157564D01*
X27579424Y-55064917D01*
X27571731Y-54971838D01*
X27503841Y-54939510D01*
X27339664Y-54955952D01*
X27281243Y-54965945D01*
X27078736Y-54986072D01*
X26938886Y-54971590D01*
X26913769Y-54957049D01*
X26944622Y-54908718D01*
X27106045Y-54855076D01*
X27294727Y-54816185D01*
X27628921Y-54741548D01*
X27833429Y-54652473D01*
X27923680Y-54537411D01*
X27915101Y-54384813D01*
X27906369Y-54358322D01*
X27800601Y-54183362D01*
X27685998Y-54083975D01*
X27527028Y-53998107D01*
X27311891Y-53883466D01*
X27235447Y-53843035D01*
X27033145Y-53728533D01*
X26954015Y-53666303D01*
X26986559Y-53654470D01*
X27119282Y-53691164D01*
X27340688Y-53774512D01*
X27639281Y-53902642D01*
X27660647Y-53912277D01*
X28122739Y-54101762D01*
X28661033Y-54291111D01*
X29236768Y-54469340D01*
X29811184Y-54625461D01*
X30345520Y-54748490D01*
X30801018Y-54827438D01*
X30946789Y-54843721D01*
X31438807Y-54853019D01*
X32009917Y-54808515D01*
X32623286Y-54717974D01*
X33242079Y-54589152D01*
X33829463Y-54429811D01*
X34348604Y-54247714D01*
X34762668Y-54050618D01*
X34791390Y-54033691D01*
X34872774Y-54013270D01*
X34883051Y-54111720D01*
X34883041Y-54111809D01*
X34900223Y-54253935D01*
X34961525Y-54474778D01*
X35031129Y-54667950D01*
X35195553Y-55081103D01*
X35222650Y-55234780D01*
X35216954Y-55235197D01*
X35140446Y-55157975D01*
X35040961Y-54968089D01*
X34932908Y-54693123D01*
X34931310Y-54688535D01*
X34831489Y-54418266D01*
X34756639Y-54265402D01*
X34692905Y-54207494D01*
X34639089Y-54215183D01*
X34509459Y-54278374D01*
X34311364Y-54374750D01*
X34224482Y-54416980D01*
X34005401Y-54496701D01*
X33655530Y-54588738D01*
X33188391Y-54689867D01*
X32668669Y-54787812D01*
X32175000Y-54872721D01*
X31794217Y-54930157D01*
X31497251Y-54962920D01*
X31255038Y-54973802D01*
X31038508Y-54965599D01*
X30929579Y-54955079D01*
X30422279Y-54877578D01*
X29842365Y-54756460D01*
X29250247Y-54606174D01*
X28706332Y-54441170D01*
X28542683Y-54384127D01*
X28002463Y-54187874D01*
X28020416Y-54418045D01*
X27986895Y-54639529D01*
X27890642Y-54746700D01*
X27784653Y-54847732D01*
X27762793Y-54916625D01*
X27761201Y-55131387D01*
X27671087Y-55343576D01*
X27613144Y-55410499D01*
X27517807Y-55469346D01*
X27398517Y-55465749D01*
X27209752Y-55395527D01*
X27147849Y-55367747D01*
X26654123Y-55132538D01*
X26293258Y-54935365D01*
X26059997Y-54769654D01*
X25949083Y-54628833D01*
X25955260Y-54506331D01*
X26073271Y-54395574D01*
X26288643Y-54293521D01*
X26640861Y-54157724D01*
X26507828Y-53919234D01*
X26124065Y-53357585D01*
X25632568Y-52867208D01*
X25502789Y-52762263D01*
X24982392Y-52304156D01*
X24540215Y-51809287D01*
X24191992Y-51299878D01*
X23953467Y-50798156D01*
X23855265Y-50435832D01*
X23802102Y-50172976D01*
X23734762Y-49999726D01*
X23624865Y-49861238D01*
X23500009Y-49749358D01*
X23288348Y-49586744D01*
X23014309Y-49396858D01*
X22771248Y-49241891D01*
X22539565Y-49101226D01*
X22353573Y-48987787D01*
X22251143Y-48924676D01*
X22247967Y-48922668D01*
X22220797Y-48828477D01*
X22263922Y-48659944D01*
G36*
X41271617Y-47709150D02*
X41347396Y-47584765D01*
X41430613Y-47486393D01*
X41461242Y-47503181D01*
X41462928Y-47649856D01*
X41462774Y-47656625D01*
X41476773Y-47819448D01*
X41544785Y-47881245D01*
X41594952Y-47886901D01*
X41692861Y-47895639D01*
X41658872Y-47934491D01*
X41607488Y-47966564D01*
X41448435Y-47997751D01*
X41303285Y-47932962D01*
X41242234Y-47827267D01*
X41271617Y-47709150D01*
X41271617Y-47709150D01*
G37*
X41271617Y-47709150D02*
X41347396Y-47584765D01*
X41430613Y-47486393D01*
X41461242Y-47503181D01*
X41462928Y-47649856D01*
X41462774Y-47656625D01*
X41476773Y-47819448D01*
X41544785Y-47881245D01*
X41594952Y-47886901D01*
X41692861Y-47895639D01*
X41658872Y-47934491D01*
X41607488Y-47966564D01*
X41448435Y-47997751D01*
X41303285Y-47932962D01*
X41242234Y-47827267D01*
X41271617Y-47709150D01*
G36*
X40692931Y-46973084D02*
X40753598Y-46858366D01*
X40837314Y-46836691D01*
X40889906Y-46911746D01*
X40891101Y-46959602D01*
X40922068Y-47073105D01*
X41040135Y-47099128D01*
X41147316Y-47119000D01*
X41155865Y-47158458D01*
X41026367Y-47241649D01*
X40869976Y-47229175D01*
X40739917Y-47142349D01*
X40689418Y-47002485D01*
X40692931Y-46973084D01*
X40692931Y-46973084D01*
G37*
X40692931Y-46973084D02*
X40753598Y-46858366D01*
X40837314Y-46836691D01*
X40889906Y-46911746D01*
X40891101Y-46959602D01*
X40922068Y-47073105D01*
X41040135Y-47099128D01*
X41147316Y-47119000D01*
X41155865Y-47158458D01*
X41026367Y-47241649D01*
X40869976Y-47229175D01*
X40739917Y-47142349D01*
X40689418Y-47002485D01*
X40692931Y-46973084D01*
G36*
X37929981Y-51887428D02*
X38079924Y-51660632D01*
X38094104Y-51640795D01*
X38277760Y-51375635D01*
X38449620Y-51111640D01*
X38568840Y-50912290D01*
X38725439Y-50626759D01*
X38653277Y-50875319D01*
X38600526Y-51075554D01*
X38596491Y-51170591D01*
X38642951Y-51192573D01*
X38670654Y-51189102D01*
X38705618Y-51137791D01*
X38689568Y-51112075D01*
X38694982Y-51048034D01*
X38744218Y-51028748D01*
X38838850Y-51069725D01*
X38887430Y-51195521D01*
X38879015Y-51350123D01*
X38827119Y-51453196D01*
X38757228Y-51495788D01*
X38739976Y-51397951D01*
X38769410Y-51355915D01*
X38727374Y-51326481D01*
X38697940Y-51368517D01*
X38739976Y-51397951D01*
X38757228Y-51495788D01*
X38692821Y-51535040D01*
X38646266Y-51545552D01*
X38633178Y-51471326D01*
X38589693Y-51425011D01*
X38578799Y-51417227D01*
X38475140Y-51377297D01*
X38442041Y-51391025D01*
X38472864Y-51440407D01*
X38545845Y-51464289D01*
X38633178Y-51471326D01*
X38646266Y-51545552D01*
X38528209Y-51572209D01*
X38307981Y-51648454D01*
X38120801Y-51822331D01*
X37957153Y-52002433D01*
X37869917Y-52067322D01*
X37860419Y-52025989D01*
X37929981Y-51887428D01*
X37929981Y-51887428D01*
G37*
X37929981Y-51887428D02*
X38079924Y-51660632D01*
X38094104Y-51640795D01*
X38277760Y-51375635D01*
X38449620Y-51111640D01*
X38568840Y-50912290D01*
X38725439Y-50626759D01*
X38653277Y-50875319D01*
X38600526Y-51075554D01*
X38596491Y-51170591D01*
X38642951Y-51192573D01*
X38670654Y-51189102D01*
X38705618Y-51137791D01*
X38689568Y-51112075D01*
X38694982Y-51048034D01*
X38744218Y-51028748D01*
X38838850Y-51069725D01*
X38887430Y-51195521D01*
X38879015Y-51350123D01*
X38827119Y-51453196D01*
X38757228Y-51495788D01*
X38739976Y-51397951D01*
X38769410Y-51355915D01*
X38727374Y-51326481D01*
X38697940Y-51368517D01*
X38739976Y-51397951D01*
X38757228Y-51495788D01*
X38692821Y-51535040D01*
X38646266Y-51545552D01*
X38633178Y-51471326D01*
X38589693Y-51425011D01*
X38578799Y-51417227D01*
X38475140Y-51377297D01*
X38442041Y-51391025D01*
X38472864Y-51440407D01*
X38545845Y-51464289D01*
X38633178Y-51471326D01*
X38646266Y-51545552D01*
X38528209Y-51572209D01*
X38307981Y-51648454D01*
X38120801Y-51822331D01*
X37957153Y-52002433D01*
X37869917Y-52067322D01*
X37860419Y-52025989D01*
X37929981Y-51887428D01*
G36*
X36327159Y-49551988D02*
X36434635Y-49503919D01*
X36469142Y-49489869D01*
X36656582Y-49402311D01*
X36769541Y-49326448D01*
X36785420Y-49298440D01*
X36820367Y-49182721D01*
X36922459Y-49036213D01*
X37044928Y-48918076D01*
X37112497Y-48884663D01*
X37265002Y-48911547D01*
X37397090Y-49012071D01*
X37451877Y-49139993D01*
X37449867Y-49158917D01*
X37479429Y-49246926D01*
X37538693Y-49251658D01*
X37661204Y-49260967D01*
X37690938Y-49280082D01*
X37641472Y-49311350D01*
X37475666Y-49359938D01*
X37314323Y-49397204D01*
X37283597Y-49222948D01*
X37347228Y-49158235D01*
X37346682Y-49138133D01*
X37310024Y-49072823D01*
X37302563Y-49072222D01*
X37250376Y-49133061D01*
X37239478Y-49157036D01*
X37256758Y-49221895D01*
X37283597Y-49222948D01*
X37314323Y-49397204D01*
X37220286Y-49418924D01*
X36950611Y-49472306D01*
X36928221Y-49345329D01*
X37025368Y-49226371D01*
X37104858Y-49088505D01*
X37082866Y-49040564D01*
X37052794Y-49042572D01*
X36986498Y-49109503D01*
X36934454Y-49210820D01*
X36895624Y-49339779D01*
X36928221Y-49345329D01*
X36950611Y-49472306D01*
X36937462Y-49474910D01*
X36603280Y-49535400D01*
X36398694Y-49568136D01*
X36310917Y-49573529D01*
X36327159Y-49551988D01*
X36327159Y-49551988D01*
G37*
X36327159Y-49551988D02*
X36434635Y-49503919D01*
X36469142Y-49489869D01*
X36656582Y-49402311D01*
X36769541Y-49326448D01*
X36785420Y-49298440D01*
X36820367Y-49182721D01*
X36922459Y-49036213D01*
X37044928Y-48918076D01*
X37112497Y-48884663D01*
X37265002Y-48911547D01*
X37397090Y-49012071D01*
X37451877Y-49139993D01*
X37449867Y-49158917D01*
X37479429Y-49246926D01*
X37538693Y-49251658D01*
X37661204Y-49260967D01*
X37690938Y-49280082D01*
X37641472Y-49311350D01*
X37475666Y-49359938D01*
X37314323Y-49397204D01*
X37283597Y-49222948D01*
X37347228Y-49158235D01*
X37346682Y-49138133D01*
X37310024Y-49072823D01*
X37302563Y-49072222D01*
X37250376Y-49133061D01*
X37239478Y-49157036D01*
X37256758Y-49221895D01*
X37283597Y-49222948D01*
X37314323Y-49397204D01*
X37220286Y-49418924D01*
X36950611Y-49472306D01*
X36928221Y-49345329D01*
X37025368Y-49226371D01*
X37104858Y-49088505D01*
X37082866Y-49040564D01*
X37052794Y-49042572D01*
X36986498Y-49109503D01*
X36934454Y-49210820D01*
X36895624Y-49339779D01*
X36928221Y-49345329D01*
X36950611Y-49472306D01*
X36937462Y-49474910D01*
X36603280Y-49535400D01*
X36398694Y-49568136D01*
X36310917Y-49573529D01*
X36327159Y-49551988D01*
G36*
X34455984Y-52595480D02*
X34498020Y-52624913D01*
X34468586Y-52666949D01*
X34426551Y-52637515D01*
X34455984Y-52595480D01*
X34455984Y-52595480D01*
G37*
X34455984Y-52595480D02*
X34498020Y-52624913D01*
X34468586Y-52666949D01*
X34426551Y-52637515D01*
X34455984Y-52595480D01*
G36*
X34133365Y-52750944D02*
X34278023Y-52715705D01*
X34312037Y-52719440D01*
X34325615Y-52743942D01*
X34229057Y-52771240D01*
X34125617Y-52777898D01*
X34133365Y-52750944D01*
X34133365Y-52750944D01*
G37*
X34133365Y-52750944D02*
X34278023Y-52715705D01*
X34312037Y-52719440D01*
X34325615Y-52743942D01*
X34229057Y-52771240D01*
X34125617Y-52777898D01*
X34133365Y-52750944D01*
G36*
X26523605Y-51637706D02*
X26677109Y-51729256D01*
X26806966Y-51813167D01*
X27657986Y-52337591D01*
X28446130Y-52749162D01*
X29189878Y-53055224D01*
X29907710Y-53263120D01*
X30618109Y-53380197D01*
X30788451Y-53395513D01*
X31172630Y-53398196D01*
X31649103Y-53361804D01*
X32172515Y-53293310D01*
X32697515Y-53199683D01*
X33178750Y-53087897D01*
X33557698Y-52969877D01*
X33777720Y-52894177D01*
X33938347Y-52850917D01*
X33995819Y-52847514D01*
X33953826Y-52883107D01*
X33806601Y-52950023D01*
X33597016Y-53029748D01*
X32636073Y-53316244D01*
X31725769Y-53472420D01*
X30854185Y-53498928D01*
X30009404Y-53396418D01*
X29453388Y-53256165D01*
X29010717Y-53096565D01*
X28507628Y-52875118D01*
X27981682Y-52611969D01*
X27470438Y-52327261D01*
X27011452Y-52041137D01*
X26642286Y-51773743D01*
X26558549Y-51703591D01*
X26483310Y-51628809D01*
X26523605Y-51637706D01*
X26523605Y-51637706D01*
G37*
X26523605Y-51637706D02*
X26677109Y-51729256D01*
X26806966Y-51813167D01*
X27657986Y-52337591D01*
X28446130Y-52749162D01*
X29189878Y-53055224D01*
X29907710Y-53263120D01*
X30618109Y-53380197D01*
X30788451Y-53395513D01*
X31172630Y-53398196D01*
X31649103Y-53361804D01*
X32172515Y-53293310D01*
X32697515Y-53199683D01*
X33178750Y-53087897D01*
X33557698Y-52969877D01*
X33777720Y-52894177D01*
X33938347Y-52850917D01*
X33995819Y-52847514D01*
X33953826Y-52883107D01*
X33806601Y-52950023D01*
X33597016Y-53029748D01*
X32636073Y-53316244D01*
X31725769Y-53472420D01*
X30854185Y-53498928D01*
X30009404Y-53396418D01*
X29453388Y-53256165D01*
X29010717Y-53096565D01*
X28507628Y-52875118D01*
X27981682Y-52611969D01*
X27470438Y-52327261D01*
X27011452Y-52041137D01*
X26642286Y-51773743D01*
X26558549Y-51703591D01*
X26483310Y-51628809D01*
X26523605Y-51637706D01*
G36*
X26212205Y-51396206D02*
X26254241Y-51425640D01*
X26224807Y-51467674D01*
X26182772Y-51438241D01*
X26212205Y-51396206D01*
X26212205Y-51396206D01*
G37*
X26212205Y-51396206D02*
X26254241Y-51425640D01*
X26224807Y-51467674D01*
X26182772Y-51438241D01*
X26212205Y-51396206D01*
D12*
X16831000Y-50960000D02*
X19491000Y-50960000D01*
X16831000Y-50900000D02*
X16831000Y-50960000D01*
X19491000Y-50900000D02*
X19491000Y-50960000D01*
X16831000Y-50900000D02*
X19491000Y-50900000D01*
X16831000Y-49630000D02*
X16831000Y-48300000D01*
X16831000Y-48300000D02*
X18161000Y-48300000D01*
X46193000Y-45049000D02*
X44993000Y-45049000D01*
X44993000Y-43289000D02*
X46193000Y-43289000D01*
X47870000Y-49792000D02*
X47870000Y-50992000D01*
X46110000Y-50992000D02*
X46110000Y-49792000D01*
X44078000Y-50992000D02*
X44078000Y-49792000D01*
X45838000Y-49792000D02*
X45838000Y-50992000D01*
X51756000Y-46903000D02*
X51756000Y-52103000D01*
X59436000Y-46903000D02*
X51756000Y-46903000D01*
X62036000Y-52103000D02*
X51756000Y-52103000D01*
X59436000Y-46903000D02*
X59436000Y-49503000D01*
X59436000Y-49503000D02*
X62036000Y-49503000D01*
X62036000Y-49503000D02*
X62036000Y-52103000D01*
X60706000Y-46903000D02*
X62036000Y-46903000D01*
X62036000Y-46903000D02*
X62036000Y-48233000D01*
X19745000Y-41315000D02*
X17085000Y-41315000D01*
X19745000Y-43915000D02*
X19745000Y-41315000D01*
X17085000Y-43915000D02*
X17085000Y-41315000D01*
X19745000Y-43915000D02*
X17085000Y-43915000D01*
X19745000Y-45185000D02*
X19745000Y-46515000D01*
X19745000Y-46515000D02*
X18415000Y-46515000D01*
X35805000Y-43061000D02*
X35805000Y-44261000D01*
X34045000Y-44261000D02*
X34045000Y-43061000D01*
X13570000Y-59170000D02*
X13570000Y-61830000D01*
X51730000Y-59170000D02*
X13570000Y-59170000D01*
X51730000Y-61830000D02*
X13570000Y-61830000D01*
X51730000Y-59170000D02*
X51730000Y-61830000D01*
X53000000Y-59170000D02*
X54330000Y-59170000D01*
X54330000Y-59170000D02*
X54330000Y-60500000D01*
X27183000Y-46055000D02*
X27183000Y-44795000D01*
X27183000Y-39235000D02*
X27183000Y-40495000D01*
X23423000Y-46055000D02*
X27183000Y-46055000D01*
X21173000Y-39235000D02*
X27183000Y-39235000D01*
X13275000Y-49055000D02*
X15935000Y-49055000D01*
X13275000Y-41375000D02*
X13275000Y-49055000D01*
X15935000Y-41375000D02*
X15935000Y-49055000D01*
X13275000Y-41375000D02*
X15935000Y-41375000D01*
X13275000Y-40105000D02*
X13275000Y-38775000D01*
X13275000Y-38775000D02*
X14605000Y-38775000D01*
D13*
X55348000Y-39056000D02*
X55348000Y-44456000D01*
X52348000Y-39056000D02*
X52348000Y-44556000D01*
X53348000Y-44556000D02*
X52348000Y-44556000D01*
D12*
X46220000Y-45859000D02*
X45220000Y-45859000D01*
X45220000Y-47559000D02*
X46220000Y-47559000D01*
X30011000Y-40875000D02*
X30011000Y-41875000D01*
X31711000Y-41875000D02*
X31711000Y-40875000D01*
X30011000Y-15375000D02*
X30011000Y-16375000D01*
X31711000Y-16375000D02*
X31711000Y-15375000D01*
X46220000Y-20359000D02*
X45220000Y-20359000D01*
X45220000Y-22059000D02*
X46220000Y-22059000D01*
D13*
X55348000Y-13556000D02*
X55348000Y-18956000D01*
X52348000Y-13556000D02*
X52348000Y-19056000D01*
X53348000Y-19056000D02*
X52348000Y-19056000D01*
D12*
X13275000Y-23555000D02*
X15935000Y-23555000D01*
X13275000Y-15875000D02*
X13275000Y-23555000D01*
X15935000Y-15875000D02*
X15935000Y-23555000D01*
X13275000Y-15875000D02*
X15935000Y-15875000D01*
X13275000Y-14605000D02*
X13275000Y-13275000D01*
X13275000Y-13275000D02*
X14605000Y-13275000D01*
X27183000Y-20555000D02*
X27183000Y-19295000D01*
X27183000Y-13735000D02*
X27183000Y-14995000D01*
X23423000Y-20555000D02*
X27183000Y-20555000D01*
X21173000Y-13735000D02*
X27183000Y-13735000D01*
X13570000Y-33670000D02*
X13570000Y-36330000D01*
X51730000Y-33670000D02*
X13570000Y-33670000D01*
X51730000Y-36330000D02*
X13570000Y-36330000D01*
X51730000Y-33670000D02*
X51730000Y-36330000D01*
X53000000Y-33670000D02*
X54330000Y-33670000D01*
X54330000Y-33670000D02*
X54330000Y-35000000D01*
X35805000Y-17561000D02*
X35805000Y-18761000D01*
X34045000Y-18761000D02*
X34045000Y-17561000D01*
X19745000Y-15815000D02*
X17085000Y-15815000D01*
X19745000Y-18415000D02*
X19745000Y-15815000D01*
X17085000Y-18415000D02*
X17085000Y-15815000D01*
X19745000Y-18415000D02*
X17085000Y-18415000D01*
X19745000Y-19685000D02*
X19745000Y-21015000D01*
X19745000Y-21015000D02*
X18415000Y-21015000D01*
X51756000Y-21403000D02*
X51756000Y-26603000D01*
X59436000Y-21403000D02*
X51756000Y-21403000D01*
X62036000Y-26603000D02*
X51756000Y-26603000D01*
X59436000Y-21403000D02*
X59436000Y-24003000D01*
X59436000Y-24003000D02*
X62036000Y-24003000D01*
X62036000Y-24003000D02*
X62036000Y-26603000D01*
X60706000Y-21403000D02*
X62036000Y-21403000D01*
X62036000Y-21403000D02*
X62036000Y-22733000D01*
X44078000Y-25492000D02*
X44078000Y-24292000D01*
X45838000Y-24292000D02*
X45838000Y-25492000D01*
X47870000Y-24292000D02*
X47870000Y-25492000D01*
X46110000Y-25492000D02*
X46110000Y-24292000D01*
X46193000Y-19549000D02*
X44993000Y-19549000D01*
X44993000Y-17789000D02*
X46193000Y-17789000D01*
X16831000Y-25460000D02*
X19491000Y-25460000D01*
X16831000Y-25400000D02*
X16831000Y-25460000D01*
X19491000Y-25400000D02*
X19491000Y-25460000D01*
X16831000Y-25400000D02*
X19491000Y-25400000D01*
X16831000Y-24130000D02*
X16831000Y-22800000D01*
X16831000Y-22800000D02*
X18161000Y-22800000D01*
D11*
G36*
X22263922Y-23159944D02*
X22359012Y-22957670D01*
X22487737Y-22762256D01*
X22601810Y-22638859D01*
X22804721Y-22489747D01*
X23013992Y-22376047D01*
X23021014Y-22373171D01*
X23164175Y-22332000D01*
X23285350Y-22357452D01*
X23436483Y-22465938D01*
X23505828Y-22526348D01*
X23685457Y-22706323D01*
X23903221Y-22953395D01*
X24113757Y-23215945D01*
X24125341Y-23231293D01*
X24475050Y-23696526D01*
X24741396Y-23604372D01*
X25072219Y-23540709D01*
X25447726Y-23544871D01*
X25802793Y-23611928D01*
X26017289Y-23700983D01*
X26203194Y-23843288D01*
X26407158Y-24049855D01*
X26510413Y-24176753D01*
X26768126Y-24502439D01*
X26982894Y-24717636D01*
X27179037Y-24840475D01*
X27380870Y-24889088D01*
X27469462Y-24891797D01*
X27703605Y-24871164D01*
X27900858Y-24826296D01*
X27929765Y-24814960D01*
X28030432Y-24753133D01*
X28046817Y-24664158D01*
X27988090Y-24497146D01*
X27987340Y-24495356D01*
X27922360Y-24238487D01*
X27960403Y-24047608D01*
X28096086Y-23944395D01*
X28125849Y-23937578D01*
X28250266Y-23948759D01*
X28459122Y-23998406D01*
X28714561Y-24073863D01*
X28978729Y-24162476D01*
X29213771Y-24251592D01*
X29381834Y-24328555D01*
X29444917Y-24378522D01*
X29408776Y-24470667D01*
X29396566Y-24482996D01*
X29375890Y-24581952D01*
X29401415Y-24670716D01*
X29417247Y-24788635D01*
X29348429Y-24827368D01*
X29265668Y-24886989D01*
X29266509Y-24933926D01*
X29237708Y-25011884D01*
X29175895Y-25032216D01*
X29104603Y-25059777D01*
X29094597Y-25146441D01*
X29142895Y-25328260D01*
X29149643Y-25349412D01*
X29203845Y-25543292D01*
X29194815Y-25655895D01*
X29108771Y-25742409D01*
X29040023Y-25788323D01*
X28832423Y-25922140D01*
X29580776Y-26090430D01*
X30106343Y-26196441D01*
X30564242Y-26257383D01*
X31022285Y-26280261D01*
X31387902Y-26277160D01*
X31598725Y-26255675D01*
X31881540Y-26205920D01*
X32197862Y-26137284D01*
X32509207Y-26059151D01*
X32777085Y-25980909D01*
X32963011Y-25911943D01*
X33018638Y-25879447D01*
X33045047Y-25806735D01*
X33007221Y-25670833D01*
X32897140Y-25445702D01*
X32869027Y-25393684D01*
X32756981Y-25163167D01*
X32689742Y-24974146D01*
X32680801Y-24874532D01*
X32741954Y-24776235D01*
X32873798Y-24597271D01*
X33053520Y-24367982D01*
X33162171Y-24234259D01*
X33375705Y-23958848D01*
X33567280Y-23683638D01*
X33706163Y-23453820D01*
X33740490Y-23383787D01*
X33857237Y-23154483D01*
X33946315Y-23066996D01*
X34007411Y-23121532D01*
X34026194Y-23195291D01*
X34060638Y-23286601D01*
X34145348Y-23298297D01*
X34293836Y-23250433D01*
X34462745Y-23196494D01*
X34533041Y-23218517D01*
X34522769Y-23339076D01*
X34480502Y-23483959D01*
X34438465Y-23639134D01*
X34462121Y-23693763D01*
X34571953Y-23685225D01*
X34589151Y-23682215D01*
X34740391Y-23679669D01*
X34768451Y-23742263D01*
X34675717Y-23862343D01*
X34564998Y-23952427D01*
X34544721Y-23837431D01*
X34574155Y-23795395D01*
X34532119Y-23765962D01*
X34502686Y-23807997D01*
X34544721Y-23837431D01*
X34564998Y-23952427D01*
X34484442Y-24017971D01*
X34176872Y-24254409D01*
X33923016Y-24475595D01*
X33742621Y-24662313D01*
X33655436Y-24795348D01*
X33651030Y-24828927D01*
X33716942Y-24922738D01*
X33864060Y-25051254D01*
X33940492Y-25106213D01*
X34213682Y-25291212D01*
X34593683Y-24944857D01*
X34812721Y-24724037D01*
X35019001Y-24479652D01*
X35189701Y-24243239D01*
X35302002Y-24046334D01*
X35333479Y-23922515D01*
X35365581Y-23791225D01*
X35473472Y-23601719D01*
X35627860Y-23395906D01*
X35799456Y-23215694D01*
X35866174Y-23160300D01*
X36144994Y-22978704D01*
X36516715Y-22787010D01*
X36992889Y-22580288D01*
X37585069Y-22353605D01*
X38304807Y-22102030D01*
X38491935Y-22039353D01*
X38966896Y-21879888D01*
X39324734Y-21754839D01*
X39586705Y-21654831D01*
X39774065Y-21570488D01*
X39908070Y-21492434D01*
X40009977Y-21411293D01*
X40082899Y-21337616D01*
X40269126Y-21168473D01*
X40474487Y-21071250D01*
X40688389Y-21022399D01*
X40938943Y-20992529D01*
X41121535Y-21019344D01*
X41306224Y-21114616D01*
X41330416Y-21130265D01*
X41567819Y-21329768D01*
X41796446Y-21595255D01*
X41981692Y-21879613D01*
X42088952Y-22135727D01*
X42097126Y-22174129D01*
X42101394Y-22393274D01*
X42061911Y-22635779D01*
X42057149Y-22652817D01*
X41954016Y-22869603D01*
X41789278Y-23091598D01*
X41729814Y-23152681D01*
X41619357Y-23276834D01*
X41441190Y-23501293D01*
X41209782Y-23806730D01*
X40939600Y-24173813D01*
X40645113Y-24583211D01*
X40414592Y-24909846D01*
X40103294Y-25347513D01*
X39796948Y-25765164D01*
X39511879Y-26141521D01*
X39264414Y-26455295D01*
X39070880Y-26685206D01*
X38976471Y-26784628D01*
X38768091Y-26965248D01*
X38565521Y-27093147D01*
X38335385Y-27178832D01*
X38044308Y-27232809D01*
X37658914Y-27265586D01*
X37410148Y-27277739D01*
X37179132Y-27291742D01*
X37007010Y-27322774D01*
X36848595Y-27388967D01*
X36658693Y-27508451D01*
X36432505Y-27670006D01*
X36186256Y-27851868D01*
X36034160Y-27981876D01*
X35952582Y-28092983D01*
X35917883Y-28218139D01*
X35906428Y-28390296D01*
X35905917Y-28404107D01*
X35899337Y-28618491D01*
X35897279Y-28764567D01*
X35898472Y-28798439D01*
X35963380Y-28807433D01*
X36119995Y-28760465D01*
X36333336Y-28672397D01*
X36568421Y-28558094D01*
X36790269Y-28432417D01*
X36849632Y-28394307D01*
X37129498Y-28221702D01*
X37310235Y-28143941D01*
X37399935Y-28158030D01*
X37411767Y-28186474D01*
X37379331Y-28288353D01*
X37331983Y-28356274D01*
X37274828Y-28471881D01*
X37346837Y-28539680D01*
X37550660Y-28564946D01*
X37731518Y-28594611D01*
X37775364Y-28672013D01*
X37682151Y-28796865D01*
X37598668Y-28866026D01*
X37470335Y-28973291D01*
X37450878Y-29043102D01*
X37531307Y-29122709D01*
X37547445Y-29135320D01*
X37652801Y-29241173D01*
X37635927Y-29306708D01*
X37489782Y-29336570D01*
X37242231Y-29336799D01*
X36976474Y-29345897D01*
X36659574Y-29395831D01*
X36256191Y-29492791D01*
X36088371Y-29538889D01*
X35766818Y-29625087D01*
X35491238Y-29691115D01*
X35294870Y-29729484D01*
X35222650Y-29734780D01*
X35195553Y-29581103D01*
X36306554Y-29385203D01*
X36748005Y-29304363D01*
X37056004Y-29240502D01*
X37240906Y-29190969D01*
X37313070Y-29153110D01*
X37299620Y-29130872D01*
X37240159Y-29076403D01*
X37277179Y-28994650D01*
X37387832Y-28884597D01*
X37593977Y-28696755D01*
X37314826Y-28656208D01*
X37137669Y-28625050D01*
X37078114Y-28581587D01*
X37109909Y-28494198D01*
X37139320Y-28444811D01*
X37207025Y-28326329D01*
X37191137Y-28309913D01*
X37110390Y-28357930D01*
X36703911Y-28598472D01*
X36351957Y-28773272D01*
X36071610Y-28875415D01*
X35879954Y-28897991D01*
X35824264Y-28878384D01*
X35798620Y-28793608D01*
X35784269Y-28613969D01*
X35783059Y-28503345D01*
X35768527Y-28259920D01*
X35721308Y-28136969D01*
X35707600Y-28128155D01*
X35731933Y-28077755D01*
X35856713Y-27963901D01*
X36061565Y-27803561D01*
X36322015Y-27616537D01*
X37015381Y-27136366D01*
X37480151Y-27139935D01*
X37893793Y-27133200D01*
X38202213Y-27097253D01*
X38444372Y-27019524D01*
X38659235Y-26887441D01*
X38885762Y-26688436D01*
X38888858Y-26685447D01*
X39148661Y-26407456D01*
X39460021Y-26024600D01*
X39827261Y-25531076D01*
X40254708Y-24921082D01*
X40726917Y-24218702D01*
X40948041Y-23899661D01*
X41168205Y-23608191D01*
X41362492Y-23375720D01*
X41505993Y-23233674D01*
X41510585Y-23230118D01*
X41794700Y-22936801D01*
X41943231Y-22600855D01*
X41954550Y-22235536D01*
X41827028Y-21854093D01*
X41704464Y-21652575D01*
X41415869Y-21338407D01*
X41097896Y-21158154D01*
X40767174Y-21112905D01*
X40440338Y-21203749D01*
X40134017Y-21431775D01*
X40035474Y-21543265D01*
X39928121Y-21626640D01*
X39719728Y-21728098D01*
X39397903Y-21852806D01*
X38950254Y-22005925D01*
X38834137Y-22043780D01*
X38079912Y-22293171D01*
X37452578Y-22514070D01*
X36938456Y-22714137D01*
X36523867Y-22901028D01*
X36195133Y-23082398D01*
X35938574Y-23265904D01*
X35740513Y-23459204D01*
X35587269Y-23669954D01*
X35465164Y-23905811D01*
X35451521Y-23937175D01*
X35131424Y-24507532D01*
X34694399Y-25011255D01*
X34410060Y-25251171D01*
X34218187Y-25391354D01*
X34111873Y-25451998D01*
X34062717Y-25443456D01*
X34043785Y-25384664D01*
X33979907Y-25293478D01*
X33836061Y-25162611D01*
X33756157Y-25101527D01*
X33605822Y-24977831D01*
X33537756Y-24865150D01*
X33559113Y-24740557D01*
X33677049Y-24581120D01*
X33898715Y-24363908D01*
X34020822Y-24253204D01*
X34210693Y-24070758D01*
X34329302Y-23931763D01*
X34358942Y-23857877D01*
X34348967Y-23851820D01*
X34290411Y-23809837D01*
X34300064Y-23693084D01*
X34331745Y-23589344D01*
X34374610Y-23422332D01*
X34340992Y-23366354D01*
X34215346Y-23412374D01*
X34120365Y-23466497D01*
X33988952Y-23523406D01*
X33918834Y-23479723D01*
X33903994Y-23449381D01*
X33861335Y-23390343D01*
X33818570Y-23453362D01*
X33793287Y-23527783D01*
X33722353Y-23665630D01*
X33580499Y-23879898D01*
X33391107Y-24136671D01*
X33255185Y-24308338D01*
X33058407Y-24561519D01*
X32904895Y-24781336D01*
X32813499Y-24939407D01*
X32796657Y-24998604D01*
X32843176Y-25112276D01*
X32945644Y-25302806D01*
X33060446Y-25494193D01*
X33305772Y-25885068D01*
X33160925Y-25959551D01*
X33036205Y-26003529D01*
X32802488Y-26068782D01*
X32492795Y-26146629D01*
X32140147Y-26228391D01*
X32126998Y-26231314D01*
X31713789Y-26318469D01*
X31394439Y-26371993D01*
X31122801Y-26396514D01*
X30852723Y-26396659D01*
X30615146Y-26382954D01*
X30321393Y-26348538D01*
X29968453Y-26287606D01*
X29586970Y-26207796D01*
X29207593Y-26116751D01*
X28860965Y-26022110D01*
X28577733Y-25931516D01*
X28388543Y-25852608D01*
X28332780Y-25813899D01*
X28306250Y-25757623D01*
X28399175Y-25766156D01*
X28406661Y-25767994D01*
X28649075Y-25781226D01*
X28883212Y-25720442D01*
X29044231Y-25602761D01*
X29046972Y-25598933D01*
X29087060Y-25517506D01*
X29077165Y-25424067D01*
X29005132Y-25283407D01*
X28863212Y-25066823D01*
X28735044Y-24861591D01*
X28653529Y-24700383D01*
X28623785Y-24602937D01*
X28650930Y-24588994D01*
X28740082Y-24678293D01*
X28773250Y-24719826D01*
X28898024Y-24847266D01*
X29021970Y-24927029D01*
X29113041Y-24948366D01*
X29139188Y-24900520D01*
X29109495Y-24832653D01*
X29104668Y-24738615D01*
X29157614Y-24713632D01*
X29225549Y-24655352D01*
X29198297Y-24547553D01*
X29170489Y-24441771D01*
X29222563Y-24437087D01*
X29301673Y-24449085D01*
X29307823Y-24436868D01*
X29237075Y-24382171D01*
X29065373Y-24305614D01*
X28832662Y-24220167D01*
X28578888Y-24138800D01*
X28343998Y-24074485D01*
X28167939Y-24040193D01*
X28095873Y-24043337D01*
X28044502Y-24106533D01*
X28044144Y-24227558D01*
X28096127Y-24441311D01*
X28113279Y-24499448D01*
X28231901Y-24894757D01*
X27720969Y-24955374D01*
X27424835Y-24980535D01*
X27202109Y-24962333D01*
X27017171Y-24882937D01*
X26834404Y-24724513D01*
X26618193Y-24469229D01*
X26533551Y-24360842D01*
X26300664Y-24093464D01*
X26061177Y-23874303D01*
X25893560Y-23761230D01*
X25729848Y-23686509D01*
X25577898Y-23652129D01*
X25391105Y-23655405D01*
X25122867Y-23693654D01*
X25022263Y-23711069D01*
X24444734Y-23812903D01*
X24064216Y-23326565D01*
X23858410Y-23071042D01*
X23657464Y-22834117D01*
X23498884Y-22659764D01*
X23474722Y-22635457D01*
X23265748Y-22430687D01*
X23002039Y-22776463D01*
X22828569Y-22986491D01*
X22660873Y-23161494D01*
X22571329Y-23236998D01*
X22404329Y-23351755D01*
X23024519Y-23763398D01*
X23385628Y-24009237D01*
X23640156Y-24202621D01*
X23806572Y-24364772D01*
X23903348Y-24516909D01*
X23948954Y-24680256D01*
X23961179Y-24839538D01*
X23989163Y-25072137D01*
X24071999Y-25316949D01*
X24226744Y-25623612D01*
X24236807Y-25641698D01*
X24484862Y-26049572D01*
X24749054Y-26398525D01*
X25064286Y-26728526D01*
X25465457Y-27079545D01*
X25558103Y-27155005D01*
X26016560Y-27570502D01*
X26381577Y-27996213D01*
X26633526Y-28408310D01*
X26681650Y-28519320D01*
X26723551Y-28644730D01*
X26706871Y-28722394D01*
X26605133Y-28784118D01*
X26398591Y-28859379D01*
X26191134Y-28945593D01*
X26052446Y-29030641D01*
X26019304Y-29074138D01*
X26074256Y-29142576D01*
X26232690Y-29255459D01*
X26467176Y-29394549D01*
X26638485Y-29485829D01*
X26981884Y-29660662D01*
X27214572Y-29775331D01*
X27354559Y-29836735D01*
X27419854Y-29851771D01*
X27428463Y-29827341D01*
X27403629Y-29778966D01*
X27386650Y-29700186D01*
X27453980Y-29696737D01*
X27552474Y-29657564D01*
X27579424Y-29564917D01*
X27571731Y-29471838D01*
X27503841Y-29439510D01*
X27339664Y-29455952D01*
X27281243Y-29465945D01*
X27078736Y-29486072D01*
X26938886Y-29471590D01*
X26913769Y-29457049D01*
X26944622Y-29408718D01*
X27106045Y-29355076D01*
X27294727Y-29316185D01*
X27628921Y-29241548D01*
X27833429Y-29152473D01*
X27923680Y-29037411D01*
X27915101Y-28884813D01*
X27906369Y-28858322D01*
X27800601Y-28683362D01*
X27685998Y-28583975D01*
X27527028Y-28498107D01*
X27311891Y-28383466D01*
X27235447Y-28343035D01*
X27033145Y-28228533D01*
X26954015Y-28166303D01*
X26986559Y-28154470D01*
X27119282Y-28191164D01*
X27340688Y-28274512D01*
X27639281Y-28402642D01*
X27660647Y-28412277D01*
X28122739Y-28601762D01*
X28661033Y-28791111D01*
X29236768Y-28969340D01*
X29811184Y-29125461D01*
X30345520Y-29248490D01*
X30801018Y-29327438D01*
X30946789Y-29343721D01*
X31438807Y-29353019D01*
X32009917Y-29308515D01*
X32623286Y-29217974D01*
X33242079Y-29089152D01*
X33829463Y-28929811D01*
X34348604Y-28747714D01*
X34762668Y-28550618D01*
X34791390Y-28533691D01*
X34872774Y-28513270D01*
X34883051Y-28611720D01*
X34883041Y-28611809D01*
X34900223Y-28753935D01*
X34961525Y-28974778D01*
X35031129Y-29167950D01*
X35195553Y-29581103D01*
X35222650Y-29734780D01*
X35216954Y-29735197D01*
X35140446Y-29657975D01*
X35040961Y-29468089D01*
X34932908Y-29193123D01*
X34931310Y-29188535D01*
X34831489Y-28918266D01*
X34756639Y-28765402D01*
X34692905Y-28707494D01*
X34639089Y-28715183D01*
X34509459Y-28778374D01*
X34311364Y-28874750D01*
X34224482Y-28916980D01*
X34005401Y-28996701D01*
X33655530Y-29088738D01*
X33188391Y-29189867D01*
X32668669Y-29287812D01*
X32175000Y-29372721D01*
X31794217Y-29430157D01*
X31497251Y-29462920D01*
X31255038Y-29473802D01*
X31038508Y-29465599D01*
X30929579Y-29455079D01*
X30422279Y-29377578D01*
X29842365Y-29256460D01*
X29250247Y-29106174D01*
X28706332Y-28941170D01*
X28542683Y-28884127D01*
X28002463Y-28687874D01*
X28020416Y-28918045D01*
X27986895Y-29139529D01*
X27890642Y-29246700D01*
X27784653Y-29347732D01*
X27762793Y-29416625D01*
X27761201Y-29631387D01*
X27671087Y-29843576D01*
X27613144Y-29910499D01*
X27517807Y-29969346D01*
X27398517Y-29965749D01*
X27209752Y-29895527D01*
X27147849Y-29867747D01*
X26654123Y-29632538D01*
X26293258Y-29435365D01*
X26059997Y-29269654D01*
X25949083Y-29128833D01*
X25955260Y-29006331D01*
X26073271Y-28895574D01*
X26288643Y-28793521D01*
X26640861Y-28657724D01*
X26507828Y-28419234D01*
X26124065Y-27857585D01*
X25632568Y-27367208D01*
X25502789Y-27262263D01*
X24982392Y-26804156D01*
X24540215Y-26309287D01*
X24191992Y-25799878D01*
X23953467Y-25298156D01*
X23855265Y-24935832D01*
X23802102Y-24672976D01*
X23734762Y-24499726D01*
X23624865Y-24361238D01*
X23500009Y-24249358D01*
X23288348Y-24086744D01*
X23014309Y-23896858D01*
X22771248Y-23741891D01*
X22539565Y-23601226D01*
X22353573Y-23487787D01*
X22251143Y-23424676D01*
X22247967Y-23422668D01*
X22220797Y-23328477D01*
X22263922Y-23159944D01*
X22263922Y-23159944D01*
G37*
X22263922Y-23159944D02*
X22359012Y-22957670D01*
X22487737Y-22762256D01*
X22601810Y-22638859D01*
X22804721Y-22489747D01*
X23013992Y-22376047D01*
X23021014Y-22373171D01*
X23164175Y-22332000D01*
X23285350Y-22357452D01*
X23436483Y-22465938D01*
X23505828Y-22526348D01*
X23685457Y-22706323D01*
X23903221Y-22953395D01*
X24113757Y-23215945D01*
X24125341Y-23231293D01*
X24475050Y-23696526D01*
X24741396Y-23604372D01*
X25072219Y-23540709D01*
X25447726Y-23544871D01*
X25802793Y-23611928D01*
X26017289Y-23700983D01*
X26203194Y-23843288D01*
X26407158Y-24049855D01*
X26510413Y-24176753D01*
X26768126Y-24502439D01*
X26982894Y-24717636D01*
X27179037Y-24840475D01*
X27380870Y-24889088D01*
X27469462Y-24891797D01*
X27703605Y-24871164D01*
X27900858Y-24826296D01*
X27929765Y-24814960D01*
X28030432Y-24753133D01*
X28046817Y-24664158D01*
X27988090Y-24497146D01*
X27987340Y-24495356D01*
X27922360Y-24238487D01*
X27960403Y-24047608D01*
X28096086Y-23944395D01*
X28125849Y-23937578D01*
X28250266Y-23948759D01*
X28459122Y-23998406D01*
X28714561Y-24073863D01*
X28978729Y-24162476D01*
X29213771Y-24251592D01*
X29381834Y-24328555D01*
X29444917Y-24378522D01*
X29408776Y-24470667D01*
X29396566Y-24482996D01*
X29375890Y-24581952D01*
X29401415Y-24670716D01*
X29417247Y-24788635D01*
X29348429Y-24827368D01*
X29265668Y-24886989D01*
X29266509Y-24933926D01*
X29237708Y-25011884D01*
X29175895Y-25032216D01*
X29104603Y-25059777D01*
X29094597Y-25146441D01*
X29142895Y-25328260D01*
X29149643Y-25349412D01*
X29203845Y-25543292D01*
X29194815Y-25655895D01*
X29108771Y-25742409D01*
X29040023Y-25788323D01*
X28832423Y-25922140D01*
X29580776Y-26090430D01*
X30106343Y-26196441D01*
X30564242Y-26257383D01*
X31022285Y-26280261D01*
X31387902Y-26277160D01*
X31598725Y-26255675D01*
X31881540Y-26205920D01*
X32197862Y-26137284D01*
X32509207Y-26059151D01*
X32777085Y-25980909D01*
X32963011Y-25911943D01*
X33018638Y-25879447D01*
X33045047Y-25806735D01*
X33007221Y-25670833D01*
X32897140Y-25445702D01*
X32869027Y-25393684D01*
X32756981Y-25163167D01*
X32689742Y-24974146D01*
X32680801Y-24874532D01*
X32741954Y-24776235D01*
X32873798Y-24597271D01*
X33053520Y-24367982D01*
X33162171Y-24234259D01*
X33375705Y-23958848D01*
X33567280Y-23683638D01*
X33706163Y-23453820D01*
X33740490Y-23383787D01*
X33857237Y-23154483D01*
X33946315Y-23066996D01*
X34007411Y-23121532D01*
X34026194Y-23195291D01*
X34060638Y-23286601D01*
X34145348Y-23298297D01*
X34293836Y-23250433D01*
X34462745Y-23196494D01*
X34533041Y-23218517D01*
X34522769Y-23339076D01*
X34480502Y-23483959D01*
X34438465Y-23639134D01*
X34462121Y-23693763D01*
X34571953Y-23685225D01*
X34589151Y-23682215D01*
X34740391Y-23679669D01*
X34768451Y-23742263D01*
X34675717Y-23862343D01*
X34564998Y-23952427D01*
X34544721Y-23837431D01*
X34574155Y-23795395D01*
X34532119Y-23765962D01*
X34502686Y-23807997D01*
X34544721Y-23837431D01*
X34564998Y-23952427D01*
X34484442Y-24017971D01*
X34176872Y-24254409D01*
X33923016Y-24475595D01*
X33742621Y-24662313D01*
X33655436Y-24795348D01*
X33651030Y-24828927D01*
X33716942Y-24922738D01*
X33864060Y-25051254D01*
X33940492Y-25106213D01*
X34213682Y-25291212D01*
X34593683Y-24944857D01*
X34812721Y-24724037D01*
X35019001Y-24479652D01*
X35189701Y-24243239D01*
X35302002Y-24046334D01*
X35333479Y-23922515D01*
X35365581Y-23791225D01*
X35473472Y-23601719D01*
X35627860Y-23395906D01*
X35799456Y-23215694D01*
X35866174Y-23160300D01*
X36144994Y-22978704D01*
X36516715Y-22787010D01*
X36992889Y-22580288D01*
X37585069Y-22353605D01*
X38304807Y-22102030D01*
X38491935Y-22039353D01*
X38966896Y-21879888D01*
X39324734Y-21754839D01*
X39586705Y-21654831D01*
X39774065Y-21570488D01*
X39908070Y-21492434D01*
X40009977Y-21411293D01*
X40082899Y-21337616D01*
X40269126Y-21168473D01*
X40474487Y-21071250D01*
X40688389Y-21022399D01*
X40938943Y-20992529D01*
X41121535Y-21019344D01*
X41306224Y-21114616D01*
X41330416Y-21130265D01*
X41567819Y-21329768D01*
X41796446Y-21595255D01*
X41981692Y-21879613D01*
X42088952Y-22135727D01*
X42097126Y-22174129D01*
X42101394Y-22393274D01*
X42061911Y-22635779D01*
X42057149Y-22652817D01*
X41954016Y-22869603D01*
X41789278Y-23091598D01*
X41729814Y-23152681D01*
X41619357Y-23276834D01*
X41441190Y-23501293D01*
X41209782Y-23806730D01*
X40939600Y-24173813D01*
X40645113Y-24583211D01*
X40414592Y-24909846D01*
X40103294Y-25347513D01*
X39796948Y-25765164D01*
X39511879Y-26141521D01*
X39264414Y-26455295D01*
X39070880Y-26685206D01*
X38976471Y-26784628D01*
X38768091Y-26965248D01*
X38565521Y-27093147D01*
X38335385Y-27178832D01*
X38044308Y-27232809D01*
X37658914Y-27265586D01*
X37410148Y-27277739D01*
X37179132Y-27291742D01*
X37007010Y-27322774D01*
X36848595Y-27388967D01*
X36658693Y-27508451D01*
X36432505Y-27670006D01*
X36186256Y-27851868D01*
X36034160Y-27981876D01*
X35952582Y-28092983D01*
X35917883Y-28218139D01*
X35906428Y-28390296D01*
X35905917Y-28404107D01*
X35899337Y-28618491D01*
X35897279Y-28764567D01*
X35898472Y-28798439D01*
X35963380Y-28807433D01*
X36119995Y-28760465D01*
X36333336Y-28672397D01*
X36568421Y-28558094D01*
X36790269Y-28432417D01*
X36849632Y-28394307D01*
X37129498Y-28221702D01*
X37310235Y-28143941D01*
X37399935Y-28158030D01*
X37411767Y-28186474D01*
X37379331Y-28288353D01*
X37331983Y-28356274D01*
X37274828Y-28471881D01*
X37346837Y-28539680D01*
X37550660Y-28564946D01*
X37731518Y-28594611D01*
X37775364Y-28672013D01*
X37682151Y-28796865D01*
X37598668Y-28866026D01*
X37470335Y-28973291D01*
X37450878Y-29043102D01*
X37531307Y-29122709D01*
X37547445Y-29135320D01*
X37652801Y-29241173D01*
X37635927Y-29306708D01*
X37489782Y-29336570D01*
X37242231Y-29336799D01*
X36976474Y-29345897D01*
X36659574Y-29395831D01*
X36256191Y-29492791D01*
X36088371Y-29538889D01*
X35766818Y-29625087D01*
X35491238Y-29691115D01*
X35294870Y-29729484D01*
X35222650Y-29734780D01*
X35195553Y-29581103D01*
X36306554Y-29385203D01*
X36748005Y-29304363D01*
X37056004Y-29240502D01*
X37240906Y-29190969D01*
X37313070Y-29153110D01*
X37299620Y-29130872D01*
X37240159Y-29076403D01*
X37277179Y-28994650D01*
X37387832Y-28884597D01*
X37593977Y-28696755D01*
X37314826Y-28656208D01*
X37137669Y-28625050D01*
X37078114Y-28581587D01*
X37109909Y-28494198D01*
X37139320Y-28444811D01*
X37207025Y-28326329D01*
X37191137Y-28309913D01*
X37110390Y-28357930D01*
X36703911Y-28598472D01*
X36351957Y-28773272D01*
X36071610Y-28875415D01*
X35879954Y-28897991D01*
X35824264Y-28878384D01*
X35798620Y-28793608D01*
X35784269Y-28613969D01*
X35783059Y-28503345D01*
X35768527Y-28259920D01*
X35721308Y-28136969D01*
X35707600Y-28128155D01*
X35731933Y-28077755D01*
X35856713Y-27963901D01*
X36061565Y-27803561D01*
X36322015Y-27616537D01*
X37015381Y-27136366D01*
X37480151Y-27139935D01*
X37893793Y-27133200D01*
X38202213Y-27097253D01*
X38444372Y-27019524D01*
X38659235Y-26887441D01*
X38885762Y-26688436D01*
X38888858Y-26685447D01*
X39148661Y-26407456D01*
X39460021Y-26024600D01*
X39827261Y-25531076D01*
X40254708Y-24921082D01*
X40726917Y-24218702D01*
X40948041Y-23899661D01*
X41168205Y-23608191D01*
X41362492Y-23375720D01*
X41505993Y-23233674D01*
X41510585Y-23230118D01*
X41794700Y-22936801D01*
X41943231Y-22600855D01*
X41954550Y-22235536D01*
X41827028Y-21854093D01*
X41704464Y-21652575D01*
X41415869Y-21338407D01*
X41097896Y-21158154D01*
X40767174Y-21112905D01*
X40440338Y-21203749D01*
X40134017Y-21431775D01*
X40035474Y-21543265D01*
X39928121Y-21626640D01*
X39719728Y-21728098D01*
X39397903Y-21852806D01*
X38950254Y-22005925D01*
X38834137Y-22043780D01*
X38079912Y-22293171D01*
X37452578Y-22514070D01*
X36938456Y-22714137D01*
X36523867Y-22901028D01*
X36195133Y-23082398D01*
X35938574Y-23265904D01*
X35740513Y-23459204D01*
X35587269Y-23669954D01*
X35465164Y-23905811D01*
X35451521Y-23937175D01*
X35131424Y-24507532D01*
X34694399Y-25011255D01*
X34410060Y-25251171D01*
X34218187Y-25391354D01*
X34111873Y-25451998D01*
X34062717Y-25443456D01*
X34043785Y-25384664D01*
X33979907Y-25293478D01*
X33836061Y-25162611D01*
X33756157Y-25101527D01*
X33605822Y-24977831D01*
X33537756Y-24865150D01*
X33559113Y-24740557D01*
X33677049Y-24581120D01*
X33898715Y-24363908D01*
X34020822Y-24253204D01*
X34210693Y-24070758D01*
X34329302Y-23931763D01*
X34358942Y-23857877D01*
X34348967Y-23851820D01*
X34290411Y-23809837D01*
X34300064Y-23693084D01*
X34331745Y-23589344D01*
X34374610Y-23422332D01*
X34340992Y-23366354D01*
X34215346Y-23412374D01*
X34120365Y-23466497D01*
X33988952Y-23523406D01*
X33918834Y-23479723D01*
X33903994Y-23449381D01*
X33861335Y-23390343D01*
X33818570Y-23453362D01*
X33793287Y-23527783D01*
X33722353Y-23665630D01*
X33580499Y-23879898D01*
X33391107Y-24136671D01*
X33255185Y-24308338D01*
X33058407Y-24561519D01*
X32904895Y-24781336D01*
X32813499Y-24939407D01*
X32796657Y-24998604D01*
X32843176Y-25112276D01*
X32945644Y-25302806D01*
X33060446Y-25494193D01*
X33305772Y-25885068D01*
X33160925Y-25959551D01*
X33036205Y-26003529D01*
X32802488Y-26068782D01*
X32492795Y-26146629D01*
X32140147Y-26228391D01*
X32126998Y-26231314D01*
X31713789Y-26318469D01*
X31394439Y-26371993D01*
X31122801Y-26396514D01*
X30852723Y-26396659D01*
X30615146Y-26382954D01*
X30321393Y-26348538D01*
X29968453Y-26287606D01*
X29586970Y-26207796D01*
X29207593Y-26116751D01*
X28860965Y-26022110D01*
X28577733Y-25931516D01*
X28388543Y-25852608D01*
X28332780Y-25813899D01*
X28306250Y-25757623D01*
X28399175Y-25766156D01*
X28406661Y-25767994D01*
X28649075Y-25781226D01*
X28883212Y-25720442D01*
X29044231Y-25602761D01*
X29046972Y-25598933D01*
X29087060Y-25517506D01*
X29077165Y-25424067D01*
X29005132Y-25283407D01*
X28863212Y-25066823D01*
X28735044Y-24861591D01*
X28653529Y-24700383D01*
X28623785Y-24602937D01*
X28650930Y-24588994D01*
X28740082Y-24678293D01*
X28773250Y-24719826D01*
X28898024Y-24847266D01*
X29021970Y-24927029D01*
X29113041Y-24948366D01*
X29139188Y-24900520D01*
X29109495Y-24832653D01*
X29104668Y-24738615D01*
X29157614Y-24713632D01*
X29225549Y-24655352D01*
X29198297Y-24547553D01*
X29170489Y-24441771D01*
X29222563Y-24437087D01*
X29301673Y-24449085D01*
X29307823Y-24436868D01*
X29237075Y-24382171D01*
X29065373Y-24305614D01*
X28832662Y-24220167D01*
X28578888Y-24138800D01*
X28343998Y-24074485D01*
X28167939Y-24040193D01*
X28095873Y-24043337D01*
X28044502Y-24106533D01*
X28044144Y-24227558D01*
X28096127Y-24441311D01*
X28113279Y-24499448D01*
X28231901Y-24894757D01*
X27720969Y-24955374D01*
X27424835Y-24980535D01*
X27202109Y-24962333D01*
X27017171Y-24882937D01*
X26834404Y-24724513D01*
X26618193Y-24469229D01*
X26533551Y-24360842D01*
X26300664Y-24093464D01*
X26061177Y-23874303D01*
X25893560Y-23761230D01*
X25729848Y-23686509D01*
X25577898Y-23652129D01*
X25391105Y-23655405D01*
X25122867Y-23693654D01*
X25022263Y-23711069D01*
X24444734Y-23812903D01*
X24064216Y-23326565D01*
X23858410Y-23071042D01*
X23657464Y-22834117D01*
X23498884Y-22659764D01*
X23474722Y-22635457D01*
X23265748Y-22430687D01*
X23002039Y-22776463D01*
X22828569Y-22986491D01*
X22660873Y-23161494D01*
X22571329Y-23236998D01*
X22404329Y-23351755D01*
X23024519Y-23763398D01*
X23385628Y-24009237D01*
X23640156Y-24202621D01*
X23806572Y-24364772D01*
X23903348Y-24516909D01*
X23948954Y-24680256D01*
X23961179Y-24839538D01*
X23989163Y-25072137D01*
X24071999Y-25316949D01*
X24226744Y-25623612D01*
X24236807Y-25641698D01*
X24484862Y-26049572D01*
X24749054Y-26398525D01*
X25064286Y-26728526D01*
X25465457Y-27079545D01*
X25558103Y-27155005D01*
X26016560Y-27570502D01*
X26381577Y-27996213D01*
X26633526Y-28408310D01*
X26681650Y-28519320D01*
X26723551Y-28644730D01*
X26706871Y-28722394D01*
X26605133Y-28784118D01*
X26398591Y-28859379D01*
X26191134Y-28945593D01*
X26052446Y-29030641D01*
X26019304Y-29074138D01*
X26074256Y-29142576D01*
X26232690Y-29255459D01*
X26467176Y-29394549D01*
X26638485Y-29485829D01*
X26981884Y-29660662D01*
X27214572Y-29775331D01*
X27354559Y-29836735D01*
X27419854Y-29851771D01*
X27428463Y-29827341D01*
X27403629Y-29778966D01*
X27386650Y-29700186D01*
X27453980Y-29696737D01*
X27552474Y-29657564D01*
X27579424Y-29564917D01*
X27571731Y-29471838D01*
X27503841Y-29439510D01*
X27339664Y-29455952D01*
X27281243Y-29465945D01*
X27078736Y-29486072D01*
X26938886Y-29471590D01*
X26913769Y-29457049D01*
X26944622Y-29408718D01*
X27106045Y-29355076D01*
X27294727Y-29316185D01*
X27628921Y-29241548D01*
X27833429Y-29152473D01*
X27923680Y-29037411D01*
X27915101Y-28884813D01*
X27906369Y-28858322D01*
X27800601Y-28683362D01*
X27685998Y-28583975D01*
X27527028Y-28498107D01*
X27311891Y-28383466D01*
X27235447Y-28343035D01*
X27033145Y-28228533D01*
X26954015Y-28166303D01*
X26986559Y-28154470D01*
X27119282Y-28191164D01*
X27340688Y-28274512D01*
X27639281Y-28402642D01*
X27660647Y-28412277D01*
X28122739Y-28601762D01*
X28661033Y-28791111D01*
X29236768Y-28969340D01*
X29811184Y-29125461D01*
X30345520Y-29248490D01*
X30801018Y-29327438D01*
X30946789Y-29343721D01*
X31438807Y-29353019D01*
X32009917Y-29308515D01*
X32623286Y-29217974D01*
X33242079Y-29089152D01*
X33829463Y-28929811D01*
X34348604Y-28747714D01*
X34762668Y-28550618D01*
X34791390Y-28533691D01*
X34872774Y-28513270D01*
X34883051Y-28611720D01*
X34883041Y-28611809D01*
X34900223Y-28753935D01*
X34961525Y-28974778D01*
X35031129Y-29167950D01*
X35195553Y-29581103D01*
X35222650Y-29734780D01*
X35216954Y-29735197D01*
X35140446Y-29657975D01*
X35040961Y-29468089D01*
X34932908Y-29193123D01*
X34931310Y-29188535D01*
X34831489Y-28918266D01*
X34756639Y-28765402D01*
X34692905Y-28707494D01*
X34639089Y-28715183D01*
X34509459Y-28778374D01*
X34311364Y-28874750D01*
X34224482Y-28916980D01*
X34005401Y-28996701D01*
X33655530Y-29088738D01*
X33188391Y-29189867D01*
X32668669Y-29287812D01*
X32175000Y-29372721D01*
X31794217Y-29430157D01*
X31497251Y-29462920D01*
X31255038Y-29473802D01*
X31038508Y-29465599D01*
X30929579Y-29455079D01*
X30422279Y-29377578D01*
X29842365Y-29256460D01*
X29250247Y-29106174D01*
X28706332Y-28941170D01*
X28542683Y-28884127D01*
X28002463Y-28687874D01*
X28020416Y-28918045D01*
X27986895Y-29139529D01*
X27890642Y-29246700D01*
X27784653Y-29347732D01*
X27762793Y-29416625D01*
X27761201Y-29631387D01*
X27671087Y-29843576D01*
X27613144Y-29910499D01*
X27517807Y-29969346D01*
X27398517Y-29965749D01*
X27209752Y-29895527D01*
X27147849Y-29867747D01*
X26654123Y-29632538D01*
X26293258Y-29435365D01*
X26059997Y-29269654D01*
X25949083Y-29128833D01*
X25955260Y-29006331D01*
X26073271Y-28895574D01*
X26288643Y-28793521D01*
X26640861Y-28657724D01*
X26507828Y-28419234D01*
X26124065Y-27857585D01*
X25632568Y-27367208D01*
X25502789Y-27262263D01*
X24982392Y-26804156D01*
X24540215Y-26309287D01*
X24191992Y-25799878D01*
X23953467Y-25298156D01*
X23855265Y-24935832D01*
X23802102Y-24672976D01*
X23734762Y-24499726D01*
X23624865Y-24361238D01*
X23500009Y-24249358D01*
X23288348Y-24086744D01*
X23014309Y-23896858D01*
X22771248Y-23741891D01*
X22539565Y-23601226D01*
X22353573Y-23487787D01*
X22251143Y-23424676D01*
X22247967Y-23422668D01*
X22220797Y-23328477D01*
X22263922Y-23159944D01*
G36*
X41271617Y-22209150D02*
X41347396Y-22084765D01*
X41430613Y-21986393D01*
X41461242Y-22003181D01*
X41462928Y-22149856D01*
X41462774Y-22156625D01*
X41476773Y-22319448D01*
X41544785Y-22381245D01*
X41594952Y-22386901D01*
X41692861Y-22395639D01*
X41658872Y-22434491D01*
X41607488Y-22466564D01*
X41448435Y-22497751D01*
X41303285Y-22432962D01*
X41242234Y-22327267D01*
X41271617Y-22209150D01*
X41271617Y-22209150D01*
G37*
X41271617Y-22209150D02*
X41347396Y-22084765D01*
X41430613Y-21986393D01*
X41461242Y-22003181D01*
X41462928Y-22149856D01*
X41462774Y-22156625D01*
X41476773Y-22319448D01*
X41544785Y-22381245D01*
X41594952Y-22386901D01*
X41692861Y-22395639D01*
X41658872Y-22434491D01*
X41607488Y-22466564D01*
X41448435Y-22497751D01*
X41303285Y-22432962D01*
X41242234Y-22327267D01*
X41271617Y-22209150D01*
G36*
X40692931Y-21473084D02*
X40753598Y-21358366D01*
X40837314Y-21336691D01*
X40889906Y-21411746D01*
X40891101Y-21459602D01*
X40922068Y-21573105D01*
X41040135Y-21599128D01*
X41147316Y-21619000D01*
X41155865Y-21658458D01*
X41026367Y-21741649D01*
X40869976Y-21729175D01*
X40739917Y-21642349D01*
X40689418Y-21502485D01*
X40692931Y-21473084D01*
X40692931Y-21473084D01*
G37*
X40692931Y-21473084D02*
X40753598Y-21358366D01*
X40837314Y-21336691D01*
X40889906Y-21411746D01*
X40891101Y-21459602D01*
X40922068Y-21573105D01*
X41040135Y-21599128D01*
X41147316Y-21619000D01*
X41155865Y-21658458D01*
X41026367Y-21741649D01*
X40869976Y-21729175D01*
X40739917Y-21642349D01*
X40689418Y-21502485D01*
X40692931Y-21473084D01*
G36*
X37929981Y-26387428D02*
X38079924Y-26160632D01*
X38094104Y-26140795D01*
X38277760Y-25875635D01*
X38449620Y-25611640D01*
X38568840Y-25412290D01*
X38725439Y-25126759D01*
X38653277Y-25375319D01*
X38600526Y-25575554D01*
X38596491Y-25670591D01*
X38642951Y-25692573D01*
X38670654Y-25689102D01*
X38705618Y-25637791D01*
X38689568Y-25612075D01*
X38694982Y-25548034D01*
X38744218Y-25528748D01*
X38838850Y-25569725D01*
X38887430Y-25695521D01*
X38879015Y-25850123D01*
X38827119Y-25953196D01*
X38757228Y-25995788D01*
X38739976Y-25897951D01*
X38769410Y-25855915D01*
X38727374Y-25826481D01*
X38697940Y-25868517D01*
X38739976Y-25897951D01*
X38757228Y-25995788D01*
X38692821Y-26035040D01*
X38646266Y-26045552D01*
X38633178Y-25971326D01*
X38589693Y-25925011D01*
X38578799Y-25917227D01*
X38475140Y-25877297D01*
X38442041Y-25891025D01*
X38472864Y-25940407D01*
X38545845Y-25964289D01*
X38633178Y-25971326D01*
X38646266Y-26045552D01*
X38528209Y-26072209D01*
X38307981Y-26148454D01*
X38120801Y-26322331D01*
X37957153Y-26502433D01*
X37869917Y-26567322D01*
X37860419Y-26525989D01*
X37929981Y-26387428D01*
X37929981Y-26387428D01*
G37*
X37929981Y-26387428D02*
X38079924Y-26160632D01*
X38094104Y-26140795D01*
X38277760Y-25875635D01*
X38449620Y-25611640D01*
X38568840Y-25412290D01*
X38725439Y-25126759D01*
X38653277Y-25375319D01*
X38600526Y-25575554D01*
X38596491Y-25670591D01*
X38642951Y-25692573D01*
X38670654Y-25689102D01*
X38705618Y-25637791D01*
X38689568Y-25612075D01*
X38694982Y-25548034D01*
X38744218Y-25528748D01*
X38838850Y-25569725D01*
X38887430Y-25695521D01*
X38879015Y-25850123D01*
X38827119Y-25953196D01*
X38757228Y-25995788D01*
X38739976Y-25897951D01*
X38769410Y-25855915D01*
X38727374Y-25826481D01*
X38697940Y-25868517D01*
X38739976Y-25897951D01*
X38757228Y-25995788D01*
X38692821Y-26035040D01*
X38646266Y-26045552D01*
X38633178Y-25971326D01*
X38589693Y-25925011D01*
X38578799Y-25917227D01*
X38475140Y-25877297D01*
X38442041Y-25891025D01*
X38472864Y-25940407D01*
X38545845Y-25964289D01*
X38633178Y-25971326D01*
X38646266Y-26045552D01*
X38528209Y-26072209D01*
X38307981Y-26148454D01*
X38120801Y-26322331D01*
X37957153Y-26502433D01*
X37869917Y-26567322D01*
X37860419Y-26525989D01*
X37929981Y-26387428D01*
G36*
X36327159Y-24051988D02*
X36434635Y-24003919D01*
X36469142Y-23989869D01*
X36656582Y-23902311D01*
X36769541Y-23826448D01*
X36785420Y-23798440D01*
X36820367Y-23682721D01*
X36922459Y-23536213D01*
X37044928Y-23418076D01*
X37112497Y-23384663D01*
X37265002Y-23411547D01*
X37397090Y-23512071D01*
X37451877Y-23639993D01*
X37449867Y-23658917D01*
X37479429Y-23746926D01*
X37538693Y-23751658D01*
X37661204Y-23760967D01*
X37690938Y-23780082D01*
X37641472Y-23811350D01*
X37475666Y-23859938D01*
X37314323Y-23897204D01*
X37283597Y-23722948D01*
X37347228Y-23658235D01*
X37346682Y-23638133D01*
X37310024Y-23572823D01*
X37302563Y-23572222D01*
X37250376Y-23633061D01*
X37239478Y-23657036D01*
X37256758Y-23721895D01*
X37283597Y-23722948D01*
X37314323Y-23897204D01*
X37220286Y-23918924D01*
X36950611Y-23972306D01*
X36928221Y-23845329D01*
X37025368Y-23726371D01*
X37104858Y-23588505D01*
X37082866Y-23540564D01*
X37052794Y-23542572D01*
X36986498Y-23609503D01*
X36934454Y-23710820D01*
X36895624Y-23839779D01*
X36928221Y-23845329D01*
X36950611Y-23972306D01*
X36937462Y-23974910D01*
X36603280Y-24035400D01*
X36398694Y-24068136D01*
X36310917Y-24073529D01*
X36327159Y-24051988D01*
X36327159Y-24051988D01*
G37*
X36327159Y-24051988D02*
X36434635Y-24003919D01*
X36469142Y-23989869D01*
X36656582Y-23902311D01*
X36769541Y-23826448D01*
X36785420Y-23798440D01*
X36820367Y-23682721D01*
X36922459Y-23536213D01*
X37044928Y-23418076D01*
X37112497Y-23384663D01*
X37265002Y-23411547D01*
X37397090Y-23512071D01*
X37451877Y-23639993D01*
X37449867Y-23658917D01*
X37479429Y-23746926D01*
X37538693Y-23751658D01*
X37661204Y-23760967D01*
X37690938Y-23780082D01*
X37641472Y-23811350D01*
X37475666Y-23859938D01*
X37314323Y-23897204D01*
X37283597Y-23722948D01*
X37347228Y-23658235D01*
X37346682Y-23638133D01*
X37310024Y-23572823D01*
X37302563Y-23572222D01*
X37250376Y-23633061D01*
X37239478Y-23657036D01*
X37256758Y-23721895D01*
X37283597Y-23722948D01*
X37314323Y-23897204D01*
X37220286Y-23918924D01*
X36950611Y-23972306D01*
X36928221Y-23845329D01*
X37025368Y-23726371D01*
X37104858Y-23588505D01*
X37082866Y-23540564D01*
X37052794Y-23542572D01*
X36986498Y-23609503D01*
X36934454Y-23710820D01*
X36895624Y-23839779D01*
X36928221Y-23845329D01*
X36950611Y-23972306D01*
X36937462Y-23974910D01*
X36603280Y-24035400D01*
X36398694Y-24068136D01*
X36310917Y-24073529D01*
X36327159Y-24051988D01*
G36*
X34455984Y-27095480D02*
X34498020Y-27124913D01*
X34468586Y-27166949D01*
X34426551Y-27137515D01*
X34455984Y-27095480D01*
X34455984Y-27095480D01*
G37*
X34455984Y-27095480D02*
X34498020Y-27124913D01*
X34468586Y-27166949D01*
X34426551Y-27137515D01*
X34455984Y-27095480D01*
G36*
X34133365Y-27250944D02*
X34278023Y-27215705D01*
X34312037Y-27219440D01*
X34325615Y-27243942D01*
X34229057Y-27271240D01*
X34125617Y-27277898D01*
X34133365Y-27250944D01*
X34133365Y-27250944D01*
G37*
X34133365Y-27250944D02*
X34278023Y-27215705D01*
X34312037Y-27219440D01*
X34325615Y-27243942D01*
X34229057Y-27271240D01*
X34125617Y-27277898D01*
X34133365Y-27250944D01*
G36*
X26523605Y-26137706D02*
X26677109Y-26229256D01*
X26806966Y-26313167D01*
X27657986Y-26837591D01*
X28446130Y-27249162D01*
X29189878Y-27555224D01*
X29907710Y-27763120D01*
X30618109Y-27880197D01*
X30788451Y-27895513D01*
X31172630Y-27898196D01*
X31649103Y-27861804D01*
X32172515Y-27793310D01*
X32697515Y-27699683D01*
X33178750Y-27587897D01*
X33557698Y-27469877D01*
X33777720Y-27394177D01*
X33938347Y-27350917D01*
X33995819Y-27347514D01*
X33953826Y-27383107D01*
X33806601Y-27450023D01*
X33597016Y-27529748D01*
X32636073Y-27816244D01*
X31725769Y-27972420D01*
X30854185Y-27998928D01*
X30009404Y-27896418D01*
X29453388Y-27756165D01*
X29010717Y-27596565D01*
X28507628Y-27375118D01*
X27981682Y-27111969D01*
X27470438Y-26827261D01*
X27011452Y-26541137D01*
X26642286Y-26273743D01*
X26558549Y-26203591D01*
X26483310Y-26128809D01*
X26523605Y-26137706D01*
X26523605Y-26137706D01*
G37*
X26523605Y-26137706D02*
X26677109Y-26229256D01*
X26806966Y-26313167D01*
X27657986Y-26837591D01*
X28446130Y-27249162D01*
X29189878Y-27555224D01*
X29907710Y-27763120D01*
X30618109Y-27880197D01*
X30788451Y-27895513D01*
X31172630Y-27898196D01*
X31649103Y-27861804D01*
X32172515Y-27793310D01*
X32697515Y-27699683D01*
X33178750Y-27587897D01*
X33557698Y-27469877D01*
X33777720Y-27394177D01*
X33938347Y-27350917D01*
X33995819Y-27347514D01*
X33953826Y-27383107D01*
X33806601Y-27450023D01*
X33597016Y-27529748D01*
X32636073Y-27816244D01*
X31725769Y-27972420D01*
X30854185Y-27998928D01*
X30009404Y-27896418D01*
X29453388Y-27756165D01*
X29010717Y-27596565D01*
X28507628Y-27375118D01*
X27981682Y-27111969D01*
X27470438Y-26827261D01*
X27011452Y-26541137D01*
X26642286Y-26273743D01*
X26558549Y-26203591D01*
X26483310Y-26128809D01*
X26523605Y-26137706D01*
G36*
X26212205Y-25896206D02*
X26254241Y-25925640D01*
X26224807Y-25967674D01*
X26182772Y-25938241D01*
X26212205Y-25896206D01*
X26212205Y-25896206D01*
G37*
X26212205Y-25896206D02*
X26254241Y-25925640D01*
X26224807Y-25967674D01*
X26182772Y-25938241D01*
X26212205Y-25896206D01*
D13*
X14065761Y-46752381D02*
X14065761Y-47561905D01*
X14113380Y-47657143D01*
X14160999Y-47704762D01*
X14256237Y-47752381D01*
X14446714Y-47752381D01*
X14541952Y-47704762D01*
X14589571Y-47657143D01*
X14637190Y-47561905D01*
X14637190Y-46752381D01*
X15113380Y-47085714D02*
X15113380Y-47752381D01*
X15113380Y-47180952D02*
X15160999Y-47133333D01*
X15256237Y-47085714D01*
X15399095Y-47085714D01*
X15494333Y-47133333D01*
X15541952Y-47228571D01*
X15541952Y-47752381D01*
X16446714Y-47752381D02*
X16446714Y-46752381D01*
X16446714Y-47704762D02*
X16351476Y-47752381D01*
X16160999Y-47752381D01*
X16065761Y-47704762D01*
X16018142Y-47657143D01*
X15970523Y-47561905D01*
X15970523Y-47276190D01*
X16018142Y-47180952D01*
X16065761Y-47133333D01*
X16160999Y-47085714D01*
X16351476Y-47085714D01*
X16446714Y-47133333D01*
X17303857Y-47704762D02*
X17208619Y-47752381D01*
X17018142Y-47752381D01*
X16922904Y-47704762D01*
X16875285Y-47609524D01*
X16875285Y-47228571D01*
X16922904Y-47133333D01*
X17018142Y-47085714D01*
X17208619Y-47085714D01*
X17303857Y-47133333D01*
X17351476Y-47228571D01*
X17351476Y-47323810D01*
X16875285Y-47419048D01*
X17780047Y-47752381D02*
X17780047Y-47085714D01*
X17780047Y-47276190D02*
X17827666Y-47180952D01*
X17875285Y-47133333D01*
X17970523Y-47085714D01*
X18065762Y-47085714D01*
X18827667Y-47085714D02*
X18827667Y-47895238D01*
X18780048Y-47990476D01*
X18732429Y-48038095D01*
X18637190Y-48085714D01*
X18494333Y-48085714D01*
X18399095Y-48038095D01*
X18827667Y-47704762D02*
X18732429Y-47752381D01*
X18541952Y-47752381D01*
X18446714Y-47704762D01*
X18399095Y-47657143D01*
X18351476Y-47561905D01*
X18351476Y-47276190D01*
X18399095Y-47180952D01*
X18446714Y-47133333D01*
X18541952Y-47085714D01*
X18732429Y-47085714D01*
X18827667Y-47133333D01*
X19446714Y-47752381D02*
X19351476Y-47704762D01*
X19303857Y-47609524D01*
X19303857Y-46752381D01*
X19970524Y-47752381D02*
X19875286Y-47704762D01*
X19827667Y-47657143D01*
X19780048Y-47561905D01*
X19780048Y-47276190D01*
X19827667Y-47180952D01*
X19875286Y-47133333D01*
X19970524Y-47085714D01*
X20113382Y-47085714D01*
X20208620Y-47133333D01*
X20256239Y-47180952D01*
X20303858Y-47276190D01*
X20303858Y-47561905D01*
X20256239Y-47657143D01*
X20208620Y-47704762D01*
X20113382Y-47752381D01*
X19970524Y-47752381D01*
X20637191Y-47085714D02*
X20827667Y-47752381D01*
X21018144Y-47276190D01*
X21208620Y-47752381D01*
X21399096Y-47085714D01*
X22303858Y-47752381D02*
X21732429Y-47752381D01*
X22018143Y-47752381D02*
X22018143Y-46752381D01*
X21922905Y-46895238D01*
X21827667Y-46990476D01*
X21732429Y-47038095D01*
X44283476Y-42921381D02*
X43950142Y-42445190D01*
X43712047Y-42921381D02*
X43712047Y-41921381D01*
X44093000Y-41921381D01*
X44188238Y-41969000D01*
X44235857Y-42016619D01*
X44283476Y-42111857D01*
X44283476Y-42254714D01*
X44235857Y-42349952D01*
X44188238Y-42397571D01*
X44093000Y-42445190D01*
X43712047Y-42445190D01*
X44854904Y-42921381D02*
X44759666Y-42873762D01*
X44712047Y-42778524D01*
X44712047Y-41921381D01*
X45616810Y-42873762D02*
X45521572Y-42921381D01*
X45331095Y-42921381D01*
X45235857Y-42873762D01*
X45188238Y-42778524D01*
X45188238Y-42397571D01*
X45235857Y-42302333D01*
X45331095Y-42254714D01*
X45521572Y-42254714D01*
X45616810Y-42302333D01*
X45664429Y-42397571D01*
X45664429Y-42492810D01*
X45188238Y-42588048D01*
X46521572Y-42921381D02*
X46521572Y-41921381D01*
X46521572Y-42873762D02*
X46426334Y-42921381D01*
X46235857Y-42921381D01*
X46140619Y-42873762D01*
X46093000Y-42826143D01*
X46045381Y-42730905D01*
X46045381Y-42445190D01*
X46093000Y-42349952D01*
X46140619Y-42302333D01*
X46235857Y-42254714D01*
X46426334Y-42254714D01*
X46521572Y-42302333D01*
X47521572Y-42921381D02*
X46950143Y-42921381D01*
X47235857Y-42921381D02*
X47235857Y-41921381D01*
X47140619Y-42064238D01*
X47045381Y-42159476D01*
X46950143Y-42207095D01*
X45742381Y-51749143D02*
X45266190Y-52082477D01*
X45742381Y-52320572D02*
X44742381Y-52320572D01*
X44742381Y-51939619D01*
X44790000Y-51844381D01*
X44837619Y-51796762D01*
X44932857Y-51749143D01*
X45075714Y-51749143D01*
X45170952Y-51796762D01*
X45218571Y-51844381D01*
X45266190Y-51939619D01*
X45266190Y-52320572D01*
X45742381Y-51320572D02*
X44742381Y-51320572D01*
X45123333Y-51320572D02*
X45075714Y-51225334D01*
X45075714Y-51034857D01*
X45123333Y-50939619D01*
X45170952Y-50892000D01*
X45266190Y-50844381D01*
X45551905Y-50844381D01*
X45647143Y-50892000D01*
X45694762Y-50939619D01*
X45742381Y-51034857D01*
X45742381Y-51225334D01*
X45694762Y-51320572D01*
X45742381Y-49987238D02*
X45218571Y-49987238D01*
X45123333Y-50034857D01*
X45075714Y-50130095D01*
X45075714Y-50320572D01*
X45123333Y-50415810D01*
X45694762Y-49987238D02*
X45742381Y-50082476D01*
X45742381Y-50320572D01*
X45694762Y-50415810D01*
X45599524Y-50463429D01*
X45504286Y-50463429D01*
X45409048Y-50415810D01*
X45361429Y-50320572D01*
X45361429Y-50082476D01*
X45313810Y-49987238D01*
X45075714Y-49653905D02*
X45075714Y-49272953D01*
X44742381Y-49511048D02*
X45599524Y-49511048D01*
X45694762Y-49463429D01*
X45742381Y-49368191D01*
X45742381Y-49272953D01*
X44837619Y-48987238D02*
X44790000Y-48939619D01*
X44742381Y-48844381D01*
X44742381Y-48606285D01*
X44790000Y-48511047D01*
X44837619Y-48463428D01*
X44932857Y-48415809D01*
X45028095Y-48415809D01*
X45170952Y-48463428D01*
X45742381Y-49034857D01*
X45742381Y-48415809D01*
X47110381Y-51749143D02*
X46634190Y-52082477D01*
X47110381Y-52320572D02*
X46110381Y-52320572D01*
X46110381Y-51939619D01*
X46158000Y-51844381D01*
X46205619Y-51796762D01*
X46300857Y-51749143D01*
X46443714Y-51749143D01*
X46538952Y-51796762D01*
X46586571Y-51844381D01*
X46634190Y-51939619D01*
X46634190Y-52320572D01*
X47110381Y-51320572D02*
X46110381Y-51320572D01*
X46491333Y-51320572D02*
X46443714Y-51225334D01*
X46443714Y-51034857D01*
X46491333Y-50939619D01*
X46538952Y-50892000D01*
X46634190Y-50844381D01*
X46919905Y-50844381D01*
X47015143Y-50892000D01*
X47062762Y-50939619D01*
X47110381Y-51034857D01*
X47110381Y-51225334D01*
X47062762Y-51320572D01*
X47110381Y-49987238D02*
X46586571Y-49987238D01*
X46491333Y-50034857D01*
X46443714Y-50130095D01*
X46443714Y-50320572D01*
X46491333Y-50415810D01*
X47062762Y-49987238D02*
X47110381Y-50082476D01*
X47110381Y-50320572D01*
X47062762Y-50415810D01*
X46967524Y-50463429D01*
X46872286Y-50463429D01*
X46777048Y-50415810D01*
X46729429Y-50320572D01*
X46729429Y-50082476D01*
X46681810Y-49987238D01*
X46443714Y-49653905D02*
X46443714Y-49272953D01*
X46110381Y-49511048D02*
X46967524Y-49511048D01*
X47062762Y-49463429D01*
X47110381Y-49368191D01*
X47110381Y-49272953D01*
X47110381Y-48415809D02*
X47110381Y-48987238D01*
X47110381Y-48701524D02*
X46110381Y-48701524D01*
X46253238Y-48796762D01*
X46348476Y-48892000D01*
X46396095Y-48987238D01*
X63488381Y-51241095D02*
X63012190Y-51574429D01*
X63488381Y-51812524D02*
X62488381Y-51812524D01*
X62488381Y-51431571D01*
X62536000Y-51336333D01*
X62583619Y-51288714D01*
X62678857Y-51241095D01*
X62821714Y-51241095D01*
X62916952Y-51288714D01*
X62964571Y-51336333D01*
X63012190Y-51431571D01*
X63012190Y-51812524D01*
X62488381Y-50622048D02*
X62488381Y-50431571D01*
X62536000Y-50336333D01*
X62631238Y-50241095D01*
X62821714Y-50193476D01*
X63155048Y-50193476D01*
X63345524Y-50241095D01*
X63440762Y-50336333D01*
X63488381Y-50431571D01*
X63488381Y-50622048D01*
X63440762Y-50717286D01*
X63345524Y-50812524D01*
X63155048Y-50860143D01*
X62821714Y-50860143D01*
X62631238Y-50812524D01*
X62536000Y-50717286D01*
X62488381Y-50622048D01*
X62488381Y-49860143D02*
X63488381Y-49622048D01*
X62774095Y-49431571D01*
X63488381Y-49241095D01*
X62488381Y-49003000D01*
X63440762Y-48669667D02*
X63488381Y-48526810D01*
X63488381Y-48288714D01*
X63440762Y-48193476D01*
X63393143Y-48145857D01*
X63297905Y-48098238D01*
X63202667Y-48098238D01*
X63107429Y-48145857D01*
X63059810Y-48193476D01*
X63012190Y-48288714D01*
X62964571Y-48479191D01*
X62916952Y-48574429D01*
X62869333Y-48622048D01*
X62774095Y-48669667D01*
X62678857Y-48669667D01*
X62583619Y-48622048D01*
X62536000Y-48574429D01*
X62488381Y-48479191D01*
X62488381Y-48241095D01*
X62536000Y-48098238D01*
X63488381Y-47145857D02*
X63488381Y-47717286D01*
X63488381Y-47431572D02*
X62488381Y-47431572D01*
X62631238Y-47526810D01*
X62726476Y-47622048D01*
X62774095Y-47717286D01*
X18081667Y-46967381D02*
X18081667Y-47681667D01*
X18034047Y-47824524D01*
X17938809Y-47919762D01*
X17795952Y-47967381D01*
X17700714Y-47967381D01*
X18510238Y-47062619D02*
X18557857Y-47015000D01*
X18653095Y-46967381D01*
X18891191Y-46967381D01*
X18986429Y-47015000D01*
X19034048Y-47062619D01*
X19081667Y-47157857D01*
X19081667Y-47253095D01*
X19034048Y-47395952D01*
X18462619Y-47967381D01*
X19081667Y-47967381D01*
X33677381Y-46303857D02*
X33201190Y-46637191D01*
X33677381Y-46875286D02*
X32677381Y-46875286D01*
X32677381Y-46494333D01*
X32725000Y-46399095D01*
X32772619Y-46351476D01*
X32867857Y-46303857D01*
X33010714Y-46303857D01*
X33105952Y-46351476D01*
X33153571Y-46399095D01*
X33201190Y-46494333D01*
X33201190Y-46875286D01*
X33772619Y-46113381D02*
X33772619Y-45351476D01*
X33010714Y-44684809D02*
X33677381Y-44684809D01*
X33010714Y-45113381D02*
X33534524Y-45113381D01*
X33629762Y-45065762D01*
X33677381Y-44970524D01*
X33677381Y-44827666D01*
X33629762Y-44732428D01*
X33582143Y-44684809D01*
X33010714Y-44208619D02*
X33677381Y-44208619D01*
X33105952Y-44208619D02*
X33058333Y-44161000D01*
X33010714Y-44065762D01*
X33010714Y-43922904D01*
X33058333Y-43827666D01*
X33153571Y-43780047D01*
X33677381Y-43780047D01*
X33677381Y-42875285D02*
X32677381Y-42875285D01*
X33629762Y-42875285D02*
X33677381Y-42970523D01*
X33677381Y-43161000D01*
X33629762Y-43256238D01*
X33582143Y-43303857D01*
X33486905Y-43351476D01*
X33201190Y-43351476D01*
X33105952Y-43303857D01*
X33058333Y-43256238D01*
X33010714Y-43161000D01*
X33010714Y-42970523D01*
X33058333Y-42875285D01*
X33629762Y-42018142D02*
X33677381Y-42113380D01*
X33677381Y-42303857D01*
X33629762Y-42399095D01*
X33534524Y-42446714D01*
X33153571Y-42446714D01*
X33058333Y-42399095D01*
X33010714Y-42303857D01*
X33010714Y-42113380D01*
X33058333Y-42018142D01*
X33153571Y-41970523D01*
X33248810Y-41970523D01*
X33344048Y-42446714D01*
X33677381Y-41541952D02*
X33010714Y-41541952D01*
X33201190Y-41541952D02*
X33105952Y-41494333D01*
X33058333Y-41446714D01*
X33010714Y-41351476D01*
X33010714Y-41256237D01*
X33677381Y-40399094D02*
X33677381Y-40970523D01*
X33677381Y-40684809D02*
X32677381Y-40684809D01*
X32820238Y-40780047D01*
X32915476Y-40875285D01*
X32963095Y-40970523D01*
X55687143Y-63690476D02*
X55734762Y-63738095D01*
X55782381Y-63880952D01*
X55782381Y-63976190D01*
X55734762Y-64119048D01*
X55639524Y-64214286D01*
X55544286Y-64261905D01*
X55353810Y-64309524D01*
X55210952Y-64309524D01*
X55020476Y-64261905D01*
X54925238Y-64214286D01*
X54830000Y-64119048D01*
X54782381Y-63976190D01*
X54782381Y-63880952D01*
X54830000Y-63738095D01*
X54877619Y-63690476D01*
X54782381Y-63071429D02*
X54782381Y-62880952D01*
X54830000Y-62785714D01*
X54925238Y-62690476D01*
X55115714Y-62642857D01*
X55449048Y-62642857D01*
X55639524Y-62690476D01*
X55734762Y-62785714D01*
X55782381Y-62880952D01*
X55782381Y-63071429D01*
X55734762Y-63166667D01*
X55639524Y-63261905D01*
X55449048Y-63309524D01*
X55115714Y-63309524D01*
X54925238Y-63261905D01*
X54830000Y-63166667D01*
X54782381Y-63071429D01*
X55782381Y-61738095D02*
X55782381Y-62214286D01*
X54782381Y-62214286D01*
X54782381Y-61404762D02*
X55591905Y-61404762D01*
X55687143Y-61357143D01*
X55734762Y-61309524D01*
X55782381Y-61214286D01*
X55782381Y-61023809D01*
X55734762Y-60928571D01*
X55687143Y-60880952D01*
X55591905Y-60833333D01*
X54782381Y-60833333D01*
X55782381Y-60357143D02*
X54782381Y-60357143D01*
X55496667Y-60023809D01*
X54782381Y-59690476D01*
X55782381Y-59690476D01*
X55782381Y-59214286D02*
X54782381Y-59214286D01*
X55782381Y-58642857D01*
X54782381Y-58642857D01*
X55734762Y-58214286D02*
X55782381Y-58071429D01*
X55782381Y-57833333D01*
X55734762Y-57738095D01*
X55687143Y-57690476D01*
X55591905Y-57642857D01*
X55496667Y-57642857D01*
X55401429Y-57690476D01*
X55353810Y-57738095D01*
X55306190Y-57833333D01*
X55258571Y-58023810D01*
X55210952Y-58119048D01*
X55163333Y-58166667D01*
X55068095Y-58214286D01*
X54972857Y-58214286D01*
X54877619Y-58166667D01*
X54830000Y-58119048D01*
X54782381Y-58023810D01*
X54782381Y-57785714D01*
X54830000Y-57642857D01*
X55782381Y-56690476D02*
X55782381Y-57261905D01*
X55782381Y-56976191D02*
X54782381Y-56976191D01*
X54925238Y-57071429D01*
X55020476Y-57166667D01*
X55068095Y-57261905D01*
X24511095Y-37597381D02*
X24511095Y-38406905D01*
X24558714Y-38502143D01*
X24606333Y-38549762D01*
X24701571Y-38597381D01*
X24892048Y-38597381D01*
X24987286Y-38549762D01*
X25034905Y-38502143D01*
X25082524Y-38406905D01*
X25082524Y-37597381D01*
X25463476Y-37597381D02*
X26082524Y-37597381D01*
X25749190Y-37978333D01*
X25892048Y-37978333D01*
X25987286Y-38025952D01*
X26034905Y-38073571D01*
X26082524Y-38168810D01*
X26082524Y-38406905D01*
X26034905Y-38502143D01*
X25987286Y-38549762D01*
X25892048Y-38597381D01*
X25606333Y-38597381D01*
X25511095Y-38549762D01*
X25463476Y-38502143D01*
X14547619Y-51154762D02*
X14690476Y-51202381D01*
X14928572Y-51202381D01*
X15023810Y-51154762D01*
X15071429Y-51107143D01*
X15119048Y-51011905D01*
X15119048Y-50916667D01*
X15071429Y-50821429D01*
X15023810Y-50773810D01*
X14928572Y-50726190D01*
X14738095Y-50678571D01*
X14642857Y-50630952D01*
X14595238Y-50583333D01*
X14547619Y-50488095D01*
X14547619Y-50392857D01*
X14595238Y-50297619D01*
X14642857Y-50250000D01*
X14738095Y-50202381D01*
X14976191Y-50202381D01*
X15119048Y-50250000D01*
X15976191Y-51154762D02*
X15880953Y-51202381D01*
X15690476Y-51202381D01*
X15595238Y-51154762D01*
X15547619Y-51107143D01*
X15500000Y-51011905D01*
X15500000Y-50726190D01*
X15547619Y-50630952D01*
X15595238Y-50583333D01*
X15690476Y-50535714D01*
X15880953Y-50535714D01*
X15976191Y-50583333D01*
X16404762Y-51202381D02*
X16404762Y-50535714D01*
X16404762Y-50726190D02*
X16452381Y-50630952D01*
X16500000Y-50583333D01*
X16595238Y-50535714D01*
X16690477Y-50535714D01*
X17404763Y-51154762D02*
X17309525Y-51202381D01*
X17119048Y-51202381D01*
X17023810Y-51154762D01*
X16976191Y-51059524D01*
X16976191Y-50678571D01*
X17023810Y-50583333D01*
X17119048Y-50535714D01*
X17309525Y-50535714D01*
X17404763Y-50583333D01*
X17452382Y-50678571D01*
X17452382Y-50773810D01*
X16976191Y-50869048D01*
X17785715Y-50535714D02*
X17976191Y-51202381D01*
X18166668Y-50726190D01*
X18357144Y-51202381D01*
X18547620Y-50535714D01*
X19357144Y-50535714D02*
X19357144Y-51202381D01*
X19119048Y-50154762D02*
X18880953Y-50869048D01*
X19500001Y-50869048D01*
X57547619Y-38154762D02*
X57690476Y-38202381D01*
X57928572Y-38202381D01*
X58023810Y-38154762D01*
X58071429Y-38107143D01*
X58119048Y-38011905D01*
X58119048Y-37916667D01*
X58071429Y-37821429D01*
X58023810Y-37773810D01*
X57928572Y-37726190D01*
X57738095Y-37678571D01*
X57642857Y-37630952D01*
X57595238Y-37583333D01*
X57547619Y-37488095D01*
X57547619Y-37392857D01*
X57595238Y-37297619D01*
X57642857Y-37250000D01*
X57738095Y-37202381D01*
X57976191Y-37202381D01*
X58119048Y-37250000D01*
X58976191Y-38154762D02*
X58880953Y-38202381D01*
X58690476Y-38202381D01*
X58595238Y-38154762D01*
X58547619Y-38107143D01*
X58500000Y-38011905D01*
X58500000Y-37726190D01*
X58547619Y-37630952D01*
X58595238Y-37583333D01*
X58690476Y-37535714D01*
X58880953Y-37535714D01*
X58976191Y-37583333D01*
X59404762Y-38202381D02*
X59404762Y-37535714D01*
X59404762Y-37726190D02*
X59452381Y-37630952D01*
X59500000Y-37583333D01*
X59595238Y-37535714D01*
X59690477Y-37535714D01*
X60404763Y-38154762D02*
X60309525Y-38202381D01*
X60119048Y-38202381D01*
X60023810Y-38154762D01*
X59976191Y-38059524D01*
X59976191Y-37678571D01*
X60023810Y-37583333D01*
X60119048Y-37535714D01*
X60309525Y-37535714D01*
X60404763Y-37583333D01*
X60452382Y-37678571D01*
X60452382Y-37773810D01*
X59976191Y-37869048D01*
X60785715Y-37535714D02*
X60976191Y-38202381D01*
X61166668Y-37726190D01*
X61357144Y-38202381D01*
X61547620Y-37535714D01*
X61833334Y-37202381D02*
X62452382Y-37202381D01*
X62119048Y-37583333D01*
X62261906Y-37583333D01*
X62357144Y-37630952D01*
X62404763Y-37678571D01*
X62452382Y-37773810D01*
X62452382Y-38011905D01*
X62404763Y-38107143D01*
X62357144Y-38154762D01*
X62261906Y-38202381D01*
X61976191Y-38202381D01*
X61880953Y-38154762D01*
X61833334Y-38107143D01*
X57547619Y-56154762D02*
X57690476Y-56202381D01*
X57928572Y-56202381D01*
X58023810Y-56154762D01*
X58071429Y-56107143D01*
X58119048Y-56011905D01*
X58119048Y-55916667D01*
X58071429Y-55821429D01*
X58023810Y-55773810D01*
X57928572Y-55726190D01*
X57738095Y-55678571D01*
X57642857Y-55630952D01*
X57595238Y-55583333D01*
X57547619Y-55488095D01*
X57547619Y-55392857D01*
X57595238Y-55297619D01*
X57642857Y-55250000D01*
X57738095Y-55202381D01*
X57976191Y-55202381D01*
X58119048Y-55250000D01*
X58976191Y-56154762D02*
X58880953Y-56202381D01*
X58690476Y-56202381D01*
X58595238Y-56154762D01*
X58547619Y-56107143D01*
X58500000Y-56011905D01*
X58500000Y-55726190D01*
X58547619Y-55630952D01*
X58595238Y-55583333D01*
X58690476Y-55535714D01*
X58880953Y-55535714D01*
X58976191Y-55583333D01*
X59404762Y-56202381D02*
X59404762Y-55535714D01*
X59404762Y-55726190D02*
X59452381Y-55630952D01*
X59500000Y-55583333D01*
X59595238Y-55535714D01*
X59690477Y-55535714D01*
X60404763Y-56154762D02*
X60309525Y-56202381D01*
X60119048Y-56202381D01*
X60023810Y-56154762D01*
X59976191Y-56059524D01*
X59976191Y-55678571D01*
X60023810Y-55583333D01*
X60119048Y-55535714D01*
X60309525Y-55535714D01*
X60404763Y-55583333D01*
X60452382Y-55678571D01*
X60452382Y-55773810D01*
X59976191Y-55869048D01*
X60785715Y-55535714D02*
X60976191Y-56202381D01*
X61166668Y-55726190D01*
X61357144Y-56202381D01*
X61547620Y-55535714D01*
X62452382Y-56202381D02*
X61880953Y-56202381D01*
X62166667Y-56202381D02*
X62166667Y-55202381D01*
X62071429Y-55345238D01*
X61976191Y-55440476D01*
X61880953Y-55488095D01*
X14271667Y-37227381D02*
X14271667Y-37941667D01*
X14224047Y-38084524D01*
X14128809Y-38179762D01*
X13985952Y-38227381D01*
X13890714Y-38227381D01*
X15271667Y-38227381D02*
X14700238Y-38227381D01*
X14985952Y-38227381D02*
X14985952Y-37227381D01*
X14890714Y-37370238D01*
X14795476Y-37465476D01*
X14700238Y-37513095D01*
X52000381Y-42494095D02*
X51000381Y-42494095D01*
X51000381Y-42256000D01*
X51048000Y-42113142D01*
X51143238Y-42017904D01*
X51238476Y-41970285D01*
X51428952Y-41922666D01*
X51571810Y-41922666D01*
X51762286Y-41970285D01*
X51857524Y-42017904D01*
X51952762Y-42113142D01*
X52000381Y-42256000D01*
X52000381Y-42494095D01*
X52000381Y-40970285D02*
X52000381Y-41541714D01*
X52000381Y-41256000D02*
X51000381Y-41256000D01*
X51143238Y-41351238D01*
X51238476Y-41446476D01*
X51286095Y-41541714D01*
X44362857Y-45316143D02*
X44315238Y-45363762D01*
X44172381Y-45411381D01*
X44077143Y-45411381D01*
X43934285Y-45363762D01*
X43839047Y-45268524D01*
X43791428Y-45173286D01*
X43743809Y-44982810D01*
X43743809Y-44839952D01*
X43791428Y-44649476D01*
X43839047Y-44554238D01*
X43934285Y-44459000D01*
X44077143Y-44411381D01*
X44172381Y-44411381D01*
X44315238Y-44459000D01*
X44362857Y-44506619D01*
X44791428Y-45411381D02*
X44791428Y-44411381D01*
X44791428Y-44792333D02*
X44886666Y-44744714D01*
X45077143Y-44744714D01*
X45172381Y-44792333D01*
X45220000Y-44839952D01*
X45267619Y-44935190D01*
X45267619Y-45220905D01*
X45220000Y-45316143D01*
X45172381Y-45363762D01*
X45077143Y-45411381D01*
X44886666Y-45411381D01*
X44791428Y-45363762D01*
X46124762Y-45411381D02*
X46124762Y-44887571D01*
X46077143Y-44792333D01*
X45981905Y-44744714D01*
X45791428Y-44744714D01*
X45696190Y-44792333D01*
X46124762Y-45363762D02*
X46029524Y-45411381D01*
X45791428Y-45411381D01*
X45696190Y-45363762D01*
X45648571Y-45268524D01*
X45648571Y-45173286D01*
X45696190Y-45078048D01*
X45791428Y-45030429D01*
X46029524Y-45030429D01*
X46124762Y-44982810D01*
X46458095Y-44744714D02*
X46839047Y-44744714D01*
X46600952Y-44411381D02*
X46600952Y-45268524D01*
X46648571Y-45363762D01*
X46743809Y-45411381D01*
X46839047Y-45411381D01*
X47696191Y-45411381D02*
X47124762Y-45411381D01*
X47410476Y-45411381D02*
X47410476Y-44411381D01*
X47315238Y-44554238D01*
X47220000Y-44649476D01*
X47124762Y-44697095D01*
X29468143Y-41541666D02*
X29515762Y-41589285D01*
X29563381Y-41732142D01*
X29563381Y-41827380D01*
X29515762Y-41970238D01*
X29420524Y-42065476D01*
X29325286Y-42113095D01*
X29134810Y-42160714D01*
X28991952Y-42160714D01*
X28801476Y-42113095D01*
X28706238Y-42065476D01*
X28611000Y-41970238D01*
X28563381Y-41827380D01*
X28563381Y-41732142D01*
X28611000Y-41589285D01*
X28658619Y-41541666D01*
X29563381Y-40589285D02*
X29563381Y-41160714D01*
X29563381Y-40875000D02*
X28563381Y-40875000D01*
X28706238Y-40970238D01*
X28801476Y-41065476D01*
X28849095Y-41160714D01*
X29468143Y-16041666D02*
X29515762Y-16089285D01*
X29563381Y-16232142D01*
X29563381Y-16327380D01*
X29515762Y-16470238D01*
X29420524Y-16565476D01*
X29325286Y-16613095D01*
X29134810Y-16660714D01*
X28991952Y-16660714D01*
X28801476Y-16613095D01*
X28706238Y-16565476D01*
X28611000Y-16470238D01*
X28563381Y-16327380D01*
X28563381Y-16232142D01*
X28611000Y-16089285D01*
X28658619Y-16041666D01*
X29563381Y-15089285D02*
X29563381Y-15660714D01*
X29563381Y-15375000D02*
X28563381Y-15375000D01*
X28706238Y-15470238D01*
X28801476Y-15565476D01*
X28849095Y-15660714D01*
X44362857Y-19816143D02*
X44315238Y-19863762D01*
X44172381Y-19911381D01*
X44077143Y-19911381D01*
X43934285Y-19863762D01*
X43839047Y-19768524D01*
X43791428Y-19673286D01*
X43743809Y-19482810D01*
X43743809Y-19339952D01*
X43791428Y-19149476D01*
X43839047Y-19054238D01*
X43934285Y-18959000D01*
X44077143Y-18911381D01*
X44172381Y-18911381D01*
X44315238Y-18959000D01*
X44362857Y-19006619D01*
X44791428Y-19911381D02*
X44791428Y-18911381D01*
X44791428Y-19292333D02*
X44886666Y-19244714D01*
X45077143Y-19244714D01*
X45172381Y-19292333D01*
X45220000Y-19339952D01*
X45267619Y-19435190D01*
X45267619Y-19720905D01*
X45220000Y-19816143D01*
X45172381Y-19863762D01*
X45077143Y-19911381D01*
X44886666Y-19911381D01*
X44791428Y-19863762D01*
X46124762Y-19911381D02*
X46124762Y-19387571D01*
X46077143Y-19292333D01*
X45981905Y-19244714D01*
X45791428Y-19244714D01*
X45696190Y-19292333D01*
X46124762Y-19863762D02*
X46029524Y-19911381D01*
X45791428Y-19911381D01*
X45696190Y-19863762D01*
X45648571Y-19768524D01*
X45648571Y-19673286D01*
X45696190Y-19578048D01*
X45791428Y-19530429D01*
X46029524Y-19530429D01*
X46124762Y-19482810D01*
X46458095Y-19244714D02*
X46839047Y-19244714D01*
X46600952Y-18911381D02*
X46600952Y-19768524D01*
X46648571Y-19863762D01*
X46743809Y-19911381D01*
X46839047Y-19911381D01*
X47696191Y-19911381D02*
X47124762Y-19911381D01*
X47410476Y-19911381D02*
X47410476Y-18911381D01*
X47315238Y-19054238D01*
X47220000Y-19149476D01*
X47124762Y-19197095D01*
X52000381Y-16994095D02*
X51000381Y-16994095D01*
X51000381Y-16756000D01*
X51048000Y-16613142D01*
X51143238Y-16517904D01*
X51238476Y-16470285D01*
X51428952Y-16422666D01*
X51571810Y-16422666D01*
X51762286Y-16470285D01*
X51857524Y-16517904D01*
X51952762Y-16613142D01*
X52000381Y-16756000D01*
X52000381Y-16994095D01*
X52000381Y-15470285D02*
X52000381Y-16041714D01*
X52000381Y-15756000D02*
X51000381Y-15756000D01*
X51143238Y-15851238D01*
X51238476Y-15946476D01*
X51286095Y-16041714D01*
X14271667Y-11727381D02*
X14271667Y-12441667D01*
X14224047Y-12584524D01*
X14128809Y-12679762D01*
X13985952Y-12727381D01*
X13890714Y-12727381D01*
X15271667Y-12727381D02*
X14700238Y-12727381D01*
X14985952Y-12727381D02*
X14985952Y-11727381D01*
X14890714Y-11870238D01*
X14795476Y-11965476D01*
X14700238Y-12013095D01*
X57547619Y-30654762D02*
X57690476Y-30702381D01*
X57928572Y-30702381D01*
X58023810Y-30654762D01*
X58071429Y-30607143D01*
X58119048Y-30511905D01*
X58119048Y-30416667D01*
X58071429Y-30321429D01*
X58023810Y-30273810D01*
X57928572Y-30226190D01*
X57738095Y-30178571D01*
X57642857Y-30130952D01*
X57595238Y-30083333D01*
X57547619Y-29988095D01*
X57547619Y-29892857D01*
X57595238Y-29797619D01*
X57642857Y-29750000D01*
X57738095Y-29702381D01*
X57976191Y-29702381D01*
X58119048Y-29750000D01*
X58976191Y-30654762D02*
X58880953Y-30702381D01*
X58690476Y-30702381D01*
X58595238Y-30654762D01*
X58547619Y-30607143D01*
X58500000Y-30511905D01*
X58500000Y-30226190D01*
X58547619Y-30130952D01*
X58595238Y-30083333D01*
X58690476Y-30035714D01*
X58880953Y-30035714D01*
X58976191Y-30083333D01*
X59404762Y-30702381D02*
X59404762Y-30035714D01*
X59404762Y-30226190D02*
X59452381Y-30130952D01*
X59500000Y-30083333D01*
X59595238Y-30035714D01*
X59690477Y-30035714D01*
X60404763Y-30654762D02*
X60309525Y-30702381D01*
X60119048Y-30702381D01*
X60023810Y-30654762D01*
X59976191Y-30559524D01*
X59976191Y-30178571D01*
X60023810Y-30083333D01*
X60119048Y-30035714D01*
X60309525Y-30035714D01*
X60404763Y-30083333D01*
X60452382Y-30178571D01*
X60452382Y-30273810D01*
X59976191Y-30369048D01*
X60785715Y-30035714D02*
X60976191Y-30702381D01*
X61166668Y-30226190D01*
X61357144Y-30702381D01*
X61547620Y-30035714D01*
X62452382Y-30702381D02*
X61880953Y-30702381D01*
X62166667Y-30702381D02*
X62166667Y-29702381D01*
X62071429Y-29845238D01*
X61976191Y-29940476D01*
X61880953Y-29988095D01*
X57547619Y-12654762D02*
X57690476Y-12702381D01*
X57928572Y-12702381D01*
X58023810Y-12654762D01*
X58071429Y-12607143D01*
X58119048Y-12511905D01*
X58119048Y-12416667D01*
X58071429Y-12321429D01*
X58023810Y-12273810D01*
X57928572Y-12226190D01*
X57738095Y-12178571D01*
X57642857Y-12130952D01*
X57595238Y-12083333D01*
X57547619Y-11988095D01*
X57547619Y-11892857D01*
X57595238Y-11797619D01*
X57642857Y-11750000D01*
X57738095Y-11702381D01*
X57976191Y-11702381D01*
X58119048Y-11750000D01*
X58976191Y-12654762D02*
X58880953Y-12702381D01*
X58690476Y-12702381D01*
X58595238Y-12654762D01*
X58547619Y-12607143D01*
X58500000Y-12511905D01*
X58500000Y-12226190D01*
X58547619Y-12130952D01*
X58595238Y-12083333D01*
X58690476Y-12035714D01*
X58880953Y-12035714D01*
X58976191Y-12083333D01*
X59404762Y-12702381D02*
X59404762Y-12035714D01*
X59404762Y-12226190D02*
X59452381Y-12130952D01*
X59500000Y-12083333D01*
X59595238Y-12035714D01*
X59690477Y-12035714D01*
X60404763Y-12654762D02*
X60309525Y-12702381D01*
X60119048Y-12702381D01*
X60023810Y-12654762D01*
X59976191Y-12559524D01*
X59976191Y-12178571D01*
X60023810Y-12083333D01*
X60119048Y-12035714D01*
X60309525Y-12035714D01*
X60404763Y-12083333D01*
X60452382Y-12178571D01*
X60452382Y-12273810D01*
X59976191Y-12369048D01*
X60785715Y-12035714D02*
X60976191Y-12702381D01*
X61166668Y-12226190D01*
X61357144Y-12702381D01*
X61547620Y-12035714D01*
X61833334Y-11702381D02*
X62452382Y-11702381D01*
X62119048Y-12083333D01*
X62261906Y-12083333D01*
X62357144Y-12130952D01*
X62404763Y-12178571D01*
X62452382Y-12273810D01*
X62452382Y-12511905D01*
X62404763Y-12607143D01*
X62357144Y-12654762D01*
X62261906Y-12702381D01*
X61976191Y-12702381D01*
X61880953Y-12654762D01*
X61833334Y-12607143D01*
X14547619Y-25654762D02*
X14690476Y-25702381D01*
X14928572Y-25702381D01*
X15023810Y-25654762D01*
X15071429Y-25607143D01*
X15119048Y-25511905D01*
X15119048Y-25416667D01*
X15071429Y-25321429D01*
X15023810Y-25273810D01*
X14928572Y-25226190D01*
X14738095Y-25178571D01*
X14642857Y-25130952D01*
X14595238Y-25083333D01*
X14547619Y-24988095D01*
X14547619Y-24892857D01*
X14595238Y-24797619D01*
X14642857Y-24750000D01*
X14738095Y-24702381D01*
X14976191Y-24702381D01*
X15119048Y-24750000D01*
X15976191Y-25654762D02*
X15880953Y-25702381D01*
X15690476Y-25702381D01*
X15595238Y-25654762D01*
X15547619Y-25607143D01*
X15500000Y-25511905D01*
X15500000Y-25226190D01*
X15547619Y-25130952D01*
X15595238Y-25083333D01*
X15690476Y-25035714D01*
X15880953Y-25035714D01*
X15976191Y-25083333D01*
X16404762Y-25702381D02*
X16404762Y-25035714D01*
X16404762Y-25226190D02*
X16452381Y-25130952D01*
X16500000Y-25083333D01*
X16595238Y-25035714D01*
X16690477Y-25035714D01*
X17404763Y-25654762D02*
X17309525Y-25702381D01*
X17119048Y-25702381D01*
X17023810Y-25654762D01*
X16976191Y-25559524D01*
X16976191Y-25178571D01*
X17023810Y-25083333D01*
X17119048Y-25035714D01*
X17309525Y-25035714D01*
X17404763Y-25083333D01*
X17452382Y-25178571D01*
X17452382Y-25273810D01*
X16976191Y-25369048D01*
X17785715Y-25035714D02*
X17976191Y-25702381D01*
X18166668Y-25226190D01*
X18357144Y-25702381D01*
X18547620Y-25035714D01*
X19357144Y-25035714D02*
X19357144Y-25702381D01*
X19119048Y-24654762D02*
X18880953Y-25369048D01*
X19500001Y-25369048D01*
X24511095Y-12097381D02*
X24511095Y-12906905D01*
X24558714Y-13002143D01*
X24606333Y-13049762D01*
X24701571Y-13097381D01*
X24892048Y-13097381D01*
X24987286Y-13049762D01*
X25034905Y-13002143D01*
X25082524Y-12906905D01*
X25082524Y-12097381D01*
X25463476Y-12097381D02*
X26082524Y-12097381D01*
X25749190Y-12478333D01*
X25892048Y-12478333D01*
X25987286Y-12525952D01*
X26034905Y-12573571D01*
X26082524Y-12668810D01*
X26082524Y-12906905D01*
X26034905Y-13002143D01*
X25987286Y-13049762D01*
X25892048Y-13097381D01*
X25606333Y-13097381D01*
X25511095Y-13049762D01*
X25463476Y-13002143D01*
X55687143Y-38190476D02*
X55734762Y-38238095D01*
X55782381Y-38380952D01*
X55782381Y-38476190D01*
X55734762Y-38619048D01*
X55639524Y-38714286D01*
X55544286Y-38761905D01*
X55353810Y-38809524D01*
X55210952Y-38809524D01*
X55020476Y-38761905D01*
X54925238Y-38714286D01*
X54830000Y-38619048D01*
X54782381Y-38476190D01*
X54782381Y-38380952D01*
X54830000Y-38238095D01*
X54877619Y-38190476D01*
X54782381Y-37571429D02*
X54782381Y-37380952D01*
X54830000Y-37285714D01*
X54925238Y-37190476D01*
X55115714Y-37142857D01*
X55449048Y-37142857D01*
X55639524Y-37190476D01*
X55734762Y-37285714D01*
X55782381Y-37380952D01*
X55782381Y-37571429D01*
X55734762Y-37666667D01*
X55639524Y-37761905D01*
X55449048Y-37809524D01*
X55115714Y-37809524D01*
X54925238Y-37761905D01*
X54830000Y-37666667D01*
X54782381Y-37571429D01*
X55782381Y-36238095D02*
X55782381Y-36714286D01*
X54782381Y-36714286D01*
X54782381Y-35904762D02*
X55591905Y-35904762D01*
X55687143Y-35857143D01*
X55734762Y-35809524D01*
X55782381Y-35714286D01*
X55782381Y-35523809D01*
X55734762Y-35428571D01*
X55687143Y-35380952D01*
X55591905Y-35333333D01*
X54782381Y-35333333D01*
X55782381Y-34857143D02*
X54782381Y-34857143D01*
X55496667Y-34523809D01*
X54782381Y-34190476D01*
X55782381Y-34190476D01*
X55782381Y-33714286D02*
X54782381Y-33714286D01*
X55782381Y-33142857D01*
X54782381Y-33142857D01*
X55734762Y-32714286D02*
X55782381Y-32571429D01*
X55782381Y-32333333D01*
X55734762Y-32238095D01*
X55687143Y-32190476D01*
X55591905Y-32142857D01*
X55496667Y-32142857D01*
X55401429Y-32190476D01*
X55353810Y-32238095D01*
X55306190Y-32333333D01*
X55258571Y-32523810D01*
X55210952Y-32619048D01*
X55163333Y-32666667D01*
X55068095Y-32714286D01*
X54972857Y-32714286D01*
X54877619Y-32666667D01*
X54830000Y-32619048D01*
X54782381Y-32523810D01*
X54782381Y-32285714D01*
X54830000Y-32142857D01*
X55782381Y-31190476D02*
X55782381Y-31761905D01*
X55782381Y-31476191D02*
X54782381Y-31476191D01*
X54925238Y-31571429D01*
X55020476Y-31666667D01*
X55068095Y-31761905D01*
X33677381Y-20803857D02*
X33201190Y-21137191D01*
X33677381Y-21375286D02*
X32677381Y-21375286D01*
X32677381Y-20994333D01*
X32725000Y-20899095D01*
X32772619Y-20851476D01*
X32867857Y-20803857D01*
X33010714Y-20803857D01*
X33105952Y-20851476D01*
X33153571Y-20899095D01*
X33201190Y-20994333D01*
X33201190Y-21375286D01*
X33772619Y-20613381D02*
X33772619Y-19851476D01*
X33010714Y-19184809D02*
X33677381Y-19184809D01*
X33010714Y-19613381D02*
X33534524Y-19613381D01*
X33629762Y-19565762D01*
X33677381Y-19470524D01*
X33677381Y-19327666D01*
X33629762Y-19232428D01*
X33582143Y-19184809D01*
X33010714Y-18708619D02*
X33677381Y-18708619D01*
X33105952Y-18708619D02*
X33058333Y-18661000D01*
X33010714Y-18565762D01*
X33010714Y-18422904D01*
X33058333Y-18327666D01*
X33153571Y-18280047D01*
X33677381Y-18280047D01*
X33677381Y-17375285D02*
X32677381Y-17375285D01*
X33629762Y-17375285D02*
X33677381Y-17470523D01*
X33677381Y-17661000D01*
X33629762Y-17756238D01*
X33582143Y-17803857D01*
X33486905Y-17851476D01*
X33201190Y-17851476D01*
X33105952Y-17803857D01*
X33058333Y-17756238D01*
X33010714Y-17661000D01*
X33010714Y-17470523D01*
X33058333Y-17375285D01*
X33629762Y-16518142D02*
X33677381Y-16613380D01*
X33677381Y-16803857D01*
X33629762Y-16899095D01*
X33534524Y-16946714D01*
X33153571Y-16946714D01*
X33058333Y-16899095D01*
X33010714Y-16803857D01*
X33010714Y-16613380D01*
X33058333Y-16518142D01*
X33153571Y-16470523D01*
X33248810Y-16470523D01*
X33344048Y-16946714D01*
X33677381Y-16041952D02*
X33010714Y-16041952D01*
X33201190Y-16041952D02*
X33105952Y-15994333D01*
X33058333Y-15946714D01*
X33010714Y-15851476D01*
X33010714Y-15756237D01*
X33677381Y-14899094D02*
X33677381Y-15470523D01*
X33677381Y-15184809D02*
X32677381Y-15184809D01*
X32820238Y-15280047D01*
X32915476Y-15375285D01*
X32963095Y-15470523D01*
X18081667Y-21467381D02*
X18081667Y-22181667D01*
X18034047Y-22324524D01*
X17938809Y-22419762D01*
X17795952Y-22467381D01*
X17700714Y-22467381D01*
X18510238Y-21562619D02*
X18557857Y-21515000D01*
X18653095Y-21467381D01*
X18891191Y-21467381D01*
X18986429Y-21515000D01*
X19034048Y-21562619D01*
X19081667Y-21657857D01*
X19081667Y-21753095D01*
X19034048Y-21895952D01*
X18462619Y-22467381D01*
X19081667Y-22467381D01*
X63488381Y-25741095D02*
X63012190Y-26074429D01*
X63488381Y-26312524D02*
X62488381Y-26312524D01*
X62488381Y-25931571D01*
X62536000Y-25836333D01*
X62583619Y-25788714D01*
X62678857Y-25741095D01*
X62821714Y-25741095D01*
X62916952Y-25788714D01*
X62964571Y-25836333D01*
X63012190Y-25931571D01*
X63012190Y-26312524D01*
X62488381Y-25122048D02*
X62488381Y-24931571D01*
X62536000Y-24836333D01*
X62631238Y-24741095D01*
X62821714Y-24693476D01*
X63155048Y-24693476D01*
X63345524Y-24741095D01*
X63440762Y-24836333D01*
X63488381Y-24931571D01*
X63488381Y-25122048D01*
X63440762Y-25217286D01*
X63345524Y-25312524D01*
X63155048Y-25360143D01*
X62821714Y-25360143D01*
X62631238Y-25312524D01*
X62536000Y-25217286D01*
X62488381Y-25122048D01*
X62488381Y-24360143D02*
X63488381Y-24122048D01*
X62774095Y-23931571D01*
X63488381Y-23741095D01*
X62488381Y-23503000D01*
X63440762Y-23169667D02*
X63488381Y-23026810D01*
X63488381Y-22788714D01*
X63440762Y-22693476D01*
X63393143Y-22645857D01*
X63297905Y-22598238D01*
X63202667Y-22598238D01*
X63107429Y-22645857D01*
X63059810Y-22693476D01*
X63012190Y-22788714D01*
X62964571Y-22979191D01*
X62916952Y-23074429D01*
X62869333Y-23122048D01*
X62774095Y-23169667D01*
X62678857Y-23169667D01*
X62583619Y-23122048D01*
X62536000Y-23074429D01*
X62488381Y-22979191D01*
X62488381Y-22741095D01*
X62536000Y-22598238D01*
X63488381Y-21645857D02*
X63488381Y-22217286D01*
X63488381Y-21931572D02*
X62488381Y-21931572D01*
X62631238Y-22026810D01*
X62726476Y-22122048D01*
X62774095Y-22217286D01*
X47110381Y-26249143D02*
X46634190Y-26582477D01*
X47110381Y-26820572D02*
X46110381Y-26820572D01*
X46110381Y-26439619D01*
X46158000Y-26344381D01*
X46205619Y-26296762D01*
X46300857Y-26249143D01*
X46443714Y-26249143D01*
X46538952Y-26296762D01*
X46586571Y-26344381D01*
X46634190Y-26439619D01*
X46634190Y-26820572D01*
X47110381Y-25820572D02*
X46110381Y-25820572D01*
X46491333Y-25820572D02*
X46443714Y-25725334D01*
X46443714Y-25534857D01*
X46491333Y-25439619D01*
X46538952Y-25392000D01*
X46634190Y-25344381D01*
X46919905Y-25344381D01*
X47015143Y-25392000D01*
X47062762Y-25439619D01*
X47110381Y-25534857D01*
X47110381Y-25725334D01*
X47062762Y-25820572D01*
X47110381Y-24487238D02*
X46586571Y-24487238D01*
X46491333Y-24534857D01*
X46443714Y-24630095D01*
X46443714Y-24820572D01*
X46491333Y-24915810D01*
X47062762Y-24487238D02*
X47110381Y-24582476D01*
X47110381Y-24820572D01*
X47062762Y-24915810D01*
X46967524Y-24963429D01*
X46872286Y-24963429D01*
X46777048Y-24915810D01*
X46729429Y-24820572D01*
X46729429Y-24582476D01*
X46681810Y-24487238D01*
X46443714Y-24153905D02*
X46443714Y-23772953D01*
X46110381Y-24011048D02*
X46967524Y-24011048D01*
X47062762Y-23963429D01*
X47110381Y-23868191D01*
X47110381Y-23772953D01*
X47110381Y-22915809D02*
X47110381Y-23487238D01*
X47110381Y-23201524D02*
X46110381Y-23201524D01*
X46253238Y-23296762D01*
X46348476Y-23392000D01*
X46396095Y-23487238D01*
X45742381Y-26249143D02*
X45266190Y-26582477D01*
X45742381Y-26820572D02*
X44742381Y-26820572D01*
X44742381Y-26439619D01*
X44790000Y-26344381D01*
X44837619Y-26296762D01*
X44932857Y-26249143D01*
X45075714Y-26249143D01*
X45170952Y-26296762D01*
X45218571Y-26344381D01*
X45266190Y-26439619D01*
X45266190Y-26820572D01*
X45742381Y-25820572D02*
X44742381Y-25820572D01*
X45123333Y-25820572D02*
X45075714Y-25725334D01*
X45075714Y-25534857D01*
X45123333Y-25439619D01*
X45170952Y-25392000D01*
X45266190Y-25344381D01*
X45551905Y-25344381D01*
X45647143Y-25392000D01*
X45694762Y-25439619D01*
X45742381Y-25534857D01*
X45742381Y-25725334D01*
X45694762Y-25820572D01*
X45742381Y-24487238D02*
X45218571Y-24487238D01*
X45123333Y-24534857D01*
X45075714Y-24630095D01*
X45075714Y-24820572D01*
X45123333Y-24915810D01*
X45694762Y-24487238D02*
X45742381Y-24582476D01*
X45742381Y-24820572D01*
X45694762Y-24915810D01*
X45599524Y-24963429D01*
X45504286Y-24963429D01*
X45409048Y-24915810D01*
X45361429Y-24820572D01*
X45361429Y-24582476D01*
X45313810Y-24487238D01*
X45075714Y-24153905D02*
X45075714Y-23772953D01*
X44742381Y-24011048D02*
X45599524Y-24011048D01*
X45694762Y-23963429D01*
X45742381Y-23868191D01*
X45742381Y-23772953D01*
X44837619Y-23487238D02*
X44790000Y-23439619D01*
X44742381Y-23344381D01*
X44742381Y-23106285D01*
X44790000Y-23011047D01*
X44837619Y-22963428D01*
X44932857Y-22915809D01*
X45028095Y-22915809D01*
X45170952Y-22963428D01*
X45742381Y-23534857D01*
X45742381Y-22915809D01*
X44283476Y-17421381D02*
X43950142Y-16945190D01*
X43712047Y-17421381D02*
X43712047Y-16421381D01*
X44093000Y-16421381D01*
X44188238Y-16469000D01*
X44235857Y-16516619D01*
X44283476Y-16611857D01*
X44283476Y-16754714D01*
X44235857Y-16849952D01*
X44188238Y-16897571D01*
X44093000Y-16945190D01*
X43712047Y-16945190D01*
X44854904Y-17421381D02*
X44759666Y-17373762D01*
X44712047Y-17278524D01*
X44712047Y-16421381D01*
X45616810Y-17373762D02*
X45521572Y-17421381D01*
X45331095Y-17421381D01*
X45235857Y-17373762D01*
X45188238Y-17278524D01*
X45188238Y-16897571D01*
X45235857Y-16802333D01*
X45331095Y-16754714D01*
X45521572Y-16754714D01*
X45616810Y-16802333D01*
X45664429Y-16897571D01*
X45664429Y-16992810D01*
X45188238Y-17088048D01*
X46521572Y-17421381D02*
X46521572Y-16421381D01*
X46521572Y-17373762D02*
X46426334Y-17421381D01*
X46235857Y-17421381D01*
X46140619Y-17373762D01*
X46093000Y-17326143D01*
X46045381Y-17230905D01*
X46045381Y-16945190D01*
X46093000Y-16849952D01*
X46140619Y-16802333D01*
X46235857Y-16754714D01*
X46426334Y-16754714D01*
X46521572Y-16802333D01*
X47521572Y-17421381D02*
X46950143Y-17421381D01*
X47235857Y-17421381D02*
X47235857Y-16421381D01*
X47140619Y-16564238D01*
X47045381Y-16659476D01*
X46950143Y-16707095D01*
X14065761Y-21252381D02*
X14065761Y-22061905D01*
X14113380Y-22157143D01*
X14160999Y-22204762D01*
X14256237Y-22252381D01*
X14446714Y-22252381D01*
X14541952Y-22204762D01*
X14589571Y-22157143D01*
X14637190Y-22061905D01*
X14637190Y-21252381D01*
X15113380Y-21585714D02*
X15113380Y-22252381D01*
X15113380Y-21680952D02*
X15160999Y-21633333D01*
X15256237Y-21585714D01*
X15399095Y-21585714D01*
X15494333Y-21633333D01*
X15541952Y-21728571D01*
X15541952Y-22252381D01*
X16446714Y-22252381D02*
X16446714Y-21252381D01*
X16446714Y-22204762D02*
X16351476Y-22252381D01*
X16160999Y-22252381D01*
X16065761Y-22204762D01*
X16018142Y-22157143D01*
X15970523Y-22061905D01*
X15970523Y-21776190D01*
X16018142Y-21680952D01*
X16065761Y-21633333D01*
X16160999Y-21585714D01*
X16351476Y-21585714D01*
X16446714Y-21633333D01*
X17303857Y-22204762D02*
X17208619Y-22252381D01*
X17018142Y-22252381D01*
X16922904Y-22204762D01*
X16875285Y-22109524D01*
X16875285Y-21728571D01*
X16922904Y-21633333D01*
X17018142Y-21585714D01*
X17208619Y-21585714D01*
X17303857Y-21633333D01*
X17351476Y-21728571D01*
X17351476Y-21823810D01*
X16875285Y-21919048D01*
X17780047Y-22252381D02*
X17780047Y-21585714D01*
X17780047Y-21776190D02*
X17827666Y-21680952D01*
X17875285Y-21633333D01*
X17970523Y-21585714D01*
X18065762Y-21585714D01*
X18827667Y-21585714D02*
X18827667Y-22395238D01*
X18780048Y-22490476D01*
X18732429Y-22538095D01*
X18637190Y-22585714D01*
X18494333Y-22585714D01*
X18399095Y-22538095D01*
X18827667Y-22204762D02*
X18732429Y-22252381D01*
X18541952Y-22252381D01*
X18446714Y-22204762D01*
X18399095Y-22157143D01*
X18351476Y-22061905D01*
X18351476Y-21776190D01*
X18399095Y-21680952D01*
X18446714Y-21633333D01*
X18541952Y-21585714D01*
X18732429Y-21585714D01*
X18827667Y-21633333D01*
X19446714Y-22252381D02*
X19351476Y-22204762D01*
X19303857Y-22109524D01*
X19303857Y-21252381D01*
X19970524Y-22252381D02*
X19875286Y-22204762D01*
X19827667Y-22157143D01*
X19780048Y-22061905D01*
X19780048Y-21776190D01*
X19827667Y-21680952D01*
X19875286Y-21633333D01*
X19970524Y-21585714D01*
X20113382Y-21585714D01*
X20208620Y-21633333D01*
X20256239Y-21680952D01*
X20303858Y-21776190D01*
X20303858Y-22061905D01*
X20256239Y-22157143D01*
X20208620Y-22204762D01*
X20113382Y-22252381D01*
X19970524Y-22252381D01*
X20637191Y-21585714D02*
X20827667Y-22252381D01*
X21018144Y-21776190D01*
X21208620Y-22252381D01*
X21399096Y-21585714D01*
X22303858Y-22252381D02*
X21732429Y-22252381D01*
X22018143Y-22252381D02*
X22018143Y-21252381D01*
X21922905Y-21395238D01*
X21827667Y-21490476D01*
X21732429Y-21538095D01*
M02*
