G04 #@! TF.FileFunction,Copper,L1,Top,Signal*
%FSLAX46Y46*%
G04 Gerber Fmt 4.6, Leading zero omitted, Abs format (unit mm)*
G04 Created by KiCad (PCBNEW 4.0.7) date 07/17/18 15:17:27*
%MOMM*%
%LPD*%
G01*
G04 APERTURE LIST*
%ADD10C,0.100000*%
%ADD11R,1.700000X1.700000*%
%ADD12R,1.500000X1.300000*%
%ADD13R,1.300000X1.500000*%
%ADD14O,1.700000X1.700000*%
%ADD15R,2.000000X3.800000*%
%ADD16R,2.000000X1.500000*%
%ADD17C,5.500000*%
%ADD18R,1.000000X1.500000*%
%ADD19R,1.500000X1.250000*%
%ADD20R,1.250000X1.500000*%
%ADD21C,0.600000*%
%ADD22C,0.250000*%
%ADD23C,0.254000*%
G04 APERTURE END LIST*
D10*
D11*
X18161000Y-49630000D03*
D12*
X44243000Y-44169000D03*
X46943000Y-44169000D03*
D13*
X46990000Y-51742000D03*
X46990000Y-49042000D03*
X44958000Y-49042000D03*
X44958000Y-51742000D03*
D11*
X60706000Y-48233000D03*
D14*
X60706000Y-50773000D03*
X58166000Y-48233000D03*
X58166000Y-50773000D03*
X55626000Y-48233000D03*
X55626000Y-50773000D03*
X53086000Y-48233000D03*
X53086000Y-50773000D03*
D11*
X18415000Y-45185000D03*
D14*
X18415000Y-42645000D03*
D13*
X34925000Y-45011000D03*
X34925000Y-42311000D03*
D11*
X53000000Y-60500000D03*
D14*
X50460000Y-60500000D03*
X47920000Y-60500000D03*
X45380000Y-60500000D03*
X42840000Y-60500000D03*
X40300000Y-60500000D03*
X37760000Y-60500000D03*
X35220000Y-60500000D03*
X32680000Y-60500000D03*
X30140000Y-60500000D03*
X27600000Y-60500000D03*
X25060000Y-60500000D03*
X22520000Y-60500000D03*
X19980000Y-60500000D03*
X17440000Y-60500000D03*
X14900000Y-60500000D03*
D15*
X28423000Y-42645000D03*
D16*
X22123000Y-42645000D03*
X22123000Y-44945000D03*
X22123000Y-40345000D03*
D17*
X17000000Y-54500000D03*
X60000000Y-41500000D03*
X60000000Y-59500000D03*
D11*
X14605000Y-40105000D03*
D14*
X14605000Y-42645000D03*
X14605000Y-45185000D03*
X14605000Y-47725000D03*
D18*
X53148000Y-43506000D03*
X54548000Y-43506000D03*
X53148000Y-40006000D03*
X54548000Y-40006000D03*
D19*
X44470000Y-46709000D03*
X46970000Y-46709000D03*
D20*
X30861000Y-42625000D03*
X30861000Y-40125000D03*
X30861000Y-17125000D03*
X30861000Y-14625000D03*
D19*
X44470000Y-21209000D03*
X46970000Y-21209000D03*
D18*
X53148000Y-18006000D03*
X54548000Y-18006000D03*
X53148000Y-14506000D03*
X54548000Y-14506000D03*
D11*
X14605000Y-14605000D03*
D14*
X14605000Y-17145000D03*
X14605000Y-19685000D03*
X14605000Y-22225000D03*
D17*
X60000000Y-34000000D03*
X60000000Y-16000000D03*
X17000000Y-29000000D03*
D15*
X28423000Y-17145000D03*
D16*
X22123000Y-17145000D03*
X22123000Y-19445000D03*
X22123000Y-14845000D03*
D11*
X53000000Y-35000000D03*
D14*
X50460000Y-35000000D03*
X47920000Y-35000000D03*
X45380000Y-35000000D03*
X42840000Y-35000000D03*
X40300000Y-35000000D03*
X37760000Y-35000000D03*
X35220000Y-35000000D03*
X32680000Y-35000000D03*
X30140000Y-35000000D03*
X27600000Y-35000000D03*
X25060000Y-35000000D03*
X22520000Y-35000000D03*
X19980000Y-35000000D03*
X17440000Y-35000000D03*
X14900000Y-35000000D03*
D13*
X34925000Y-19511000D03*
X34925000Y-16811000D03*
D11*
X18415000Y-19685000D03*
D14*
X18415000Y-17145000D03*
D11*
X60706000Y-22733000D03*
D14*
X60706000Y-25273000D03*
X58166000Y-22733000D03*
X58166000Y-25273000D03*
X55626000Y-22733000D03*
X55626000Y-25273000D03*
X53086000Y-22733000D03*
X53086000Y-25273000D03*
D13*
X44958000Y-23542000D03*
X44958000Y-26242000D03*
X46990000Y-26242000D03*
X46990000Y-23542000D03*
D12*
X44243000Y-18669000D03*
X46943000Y-18669000D03*
D11*
X18161000Y-24130000D03*
D21*
X39500000Y-38500000D03*
X39500000Y-37000000D03*
X40500000Y-38500000D03*
X38500000Y-38500000D03*
X37500000Y-38500000D03*
X40500000Y-37000000D03*
X37500000Y-37000000D03*
X38500000Y-37000000D03*
X44831000Y-40105000D03*
X44831000Y-14605000D03*
X45847000Y-40105000D03*
X46990000Y-51742000D03*
X51054000Y-40105000D03*
X56388000Y-42899000D03*
X31369000Y-50900000D03*
X39243000Y-54075000D03*
X23622000Y-50900000D03*
X23622000Y-25400000D03*
X39243000Y-28575000D03*
X31369000Y-25400000D03*
X56388000Y-17399000D03*
X51054000Y-14605000D03*
X46990000Y-26242000D03*
X45847000Y-14605000D03*
X33782000Y-55472000D03*
X33782000Y-29972000D03*
X54483000Y-43534000D03*
X54483000Y-18034000D03*
X54483000Y-40232000D03*
X54483000Y-14732000D03*
X53213000Y-39978000D03*
X53213000Y-14478000D03*
X34925000Y-42311000D03*
X34925000Y-16811000D03*
X39243000Y-40232000D03*
X39243000Y-14732000D03*
X38227000Y-40105000D03*
X38227000Y-14605000D03*
X37084000Y-40105000D03*
X37084000Y-14605000D03*
X36068000Y-40105000D03*
X36068000Y-14605000D03*
X44958000Y-51742000D03*
X44958000Y-26242000D03*
X49008000Y-49164000D03*
X49008000Y-23664000D03*
D22*
X26035000Y-42772000D02*
X22504000Y-42772000D01*
X28804000Y-42772000D02*
X26035000Y-42772000D01*
X19558000Y-40105000D02*
X14605000Y-40105000D01*
X22225000Y-42772000D02*
X19558000Y-40105000D01*
X22504000Y-42772000D02*
X22225000Y-42772000D01*
X28824000Y-42752000D02*
X28804000Y-42772000D01*
X30734000Y-42752000D02*
X28824000Y-42752000D01*
X31516000Y-42625000D02*
X32258000Y-41883000D01*
X32258000Y-41883000D02*
X32258000Y-40867000D01*
X32258000Y-40867000D02*
X33655000Y-39470000D01*
X33655000Y-39470000D02*
X44196000Y-39470000D01*
X44196000Y-39470000D02*
X44831000Y-40105000D01*
X30861000Y-42625000D02*
X31516000Y-42625000D01*
X30861000Y-17125000D02*
X31516000Y-17125000D01*
X44196000Y-13970000D02*
X44831000Y-14605000D01*
X33655000Y-13970000D02*
X44196000Y-13970000D01*
X32258000Y-15367000D02*
X33655000Y-13970000D01*
X32258000Y-16383000D02*
X32258000Y-15367000D01*
X31516000Y-17125000D02*
X32258000Y-16383000D01*
X30734000Y-17252000D02*
X28824000Y-17252000D01*
X28824000Y-17252000D02*
X28804000Y-17272000D01*
X22504000Y-17272000D02*
X22225000Y-17272000D01*
X22225000Y-17272000D02*
X19558000Y-14605000D01*
X19558000Y-14605000D02*
X14605000Y-14605000D01*
X28804000Y-17272000D02*
X26035000Y-17272000D01*
X26035000Y-17272000D02*
X22504000Y-17272000D01*
X45847000Y-42264000D02*
X45847000Y-40105000D01*
X44243000Y-43868000D02*
X45847000Y-42264000D01*
X44243000Y-44169000D02*
X44243000Y-43868000D01*
X51054000Y-40105000D02*
X52705000Y-41756000D01*
X52705000Y-41756000D02*
X55245000Y-41756000D01*
X55245000Y-41756000D02*
X56388000Y-42899000D01*
X23622000Y-50900000D02*
X31369000Y-50900000D01*
X23622000Y-25400000D02*
X31369000Y-25400000D01*
X55245000Y-16256000D02*
X56388000Y-17399000D01*
X52705000Y-16256000D02*
X55245000Y-16256000D01*
X51054000Y-14605000D02*
X52705000Y-16256000D01*
X44243000Y-18669000D02*
X44243000Y-18368000D01*
X44243000Y-18368000D02*
X45847000Y-16764000D01*
X45847000Y-16764000D02*
X45847000Y-14605000D01*
X46990000Y-46856000D02*
X46970000Y-46836000D01*
X46990000Y-49042000D02*
X46990000Y-46856000D01*
X44958000Y-49042000D02*
X46990000Y-49042000D01*
X41482000Y-49042000D02*
X36068000Y-54456000D01*
X36068000Y-54456000D02*
X34798000Y-54456000D01*
X34798000Y-54456000D02*
X33782000Y-55472000D01*
X44958000Y-49042000D02*
X41482000Y-49042000D01*
X44958000Y-23542000D02*
X41482000Y-23542000D01*
X34798000Y-28956000D02*
X33782000Y-29972000D01*
X36068000Y-28956000D02*
X34798000Y-28956000D01*
X41482000Y-23542000D02*
X36068000Y-28956000D01*
X44958000Y-23542000D02*
X46990000Y-23542000D01*
X46990000Y-23542000D02*
X46990000Y-21356000D01*
X46990000Y-21356000D02*
X46970000Y-21336000D01*
X47606000Y-43506000D02*
X46943000Y-44169000D01*
X53148000Y-43506000D02*
X47606000Y-43506000D01*
X53148000Y-18006000D02*
X47606000Y-18006000D01*
X47606000Y-18006000D02*
X46943000Y-18669000D01*
X54511000Y-43506000D02*
X54548000Y-43506000D01*
X54483000Y-43534000D02*
X54511000Y-43506000D01*
X54483000Y-18034000D02*
X54511000Y-18006000D01*
X54511000Y-18006000D02*
X54548000Y-18006000D01*
X54548000Y-40167000D02*
X54548000Y-40006000D01*
X54483000Y-40232000D02*
X54548000Y-40167000D01*
X54483000Y-14732000D02*
X54548000Y-14667000D01*
X54548000Y-14667000D02*
X54548000Y-14506000D01*
X53185000Y-40006000D02*
X53148000Y-40006000D01*
X53213000Y-39978000D02*
X53185000Y-40006000D01*
X53213000Y-14478000D02*
X53185000Y-14506000D01*
X53185000Y-14506000D02*
X53148000Y-14506000D01*
X22520000Y-58860000D02*
X27559000Y-53821000D01*
X27559000Y-53821000D02*
X35941000Y-53821000D01*
X35941000Y-53821000D02*
X39243000Y-50519000D01*
X39243000Y-50519000D02*
X39243000Y-40232000D01*
X22520000Y-60500000D02*
X22520000Y-58860000D01*
X22520000Y-35000000D02*
X22520000Y-33360000D01*
X39243000Y-25019000D02*
X39243000Y-14732000D01*
X35941000Y-28321000D02*
X39243000Y-25019000D01*
X27559000Y-28321000D02*
X35941000Y-28321000D01*
X22520000Y-33360000D02*
X27559000Y-28321000D01*
X38227000Y-50830998D02*
X38227000Y-40105000D01*
X35744998Y-53313000D02*
X38227000Y-50830998D01*
X27305000Y-53313000D02*
X35744998Y-53313000D01*
X20118000Y-60500000D02*
X27305000Y-53313000D01*
X19980000Y-60500000D02*
X20118000Y-60500000D01*
X19980000Y-35000000D02*
X20118000Y-35000000D01*
X20118000Y-35000000D02*
X27305000Y-27813000D01*
X27305000Y-27813000D02*
X35744998Y-27813000D01*
X35744998Y-27813000D02*
X38227000Y-25330998D01*
X38227000Y-25330998D02*
X38227000Y-14605000D01*
X37084000Y-51281000D02*
X37084000Y-40105000D01*
X35560000Y-52805000D02*
X37084000Y-51281000D01*
X26924000Y-52805000D02*
X35560000Y-52805000D01*
X21082000Y-58647000D02*
X26924000Y-52805000D01*
X19177000Y-58647000D02*
X21082000Y-58647000D01*
X17440000Y-60384000D02*
X19177000Y-58647000D01*
X17440000Y-60500000D02*
X17440000Y-60384000D01*
X17440000Y-35000000D02*
X17440000Y-34884000D01*
X17440000Y-34884000D02*
X19177000Y-33147000D01*
X19177000Y-33147000D02*
X21082000Y-33147000D01*
X21082000Y-33147000D02*
X26924000Y-27305000D01*
X26924000Y-27305000D02*
X35560000Y-27305000D01*
X35560000Y-27305000D02*
X37084000Y-25781000D01*
X37084000Y-25781000D02*
X37084000Y-14605000D01*
X36068000Y-51535000D02*
X36068000Y-40105000D01*
X35306000Y-52297000D02*
X36068000Y-51535000D01*
X26670000Y-52297000D02*
X35306000Y-52297000D01*
X21082000Y-57885000D02*
X26670000Y-52297000D01*
X17780000Y-57885000D02*
X21082000Y-57885000D01*
X15165000Y-60500000D02*
X17780000Y-57885000D01*
X14900000Y-60500000D02*
X15165000Y-60500000D01*
X14900000Y-35000000D02*
X15165000Y-35000000D01*
X15165000Y-35000000D02*
X17780000Y-32385000D01*
X17780000Y-32385000D02*
X21082000Y-32385000D01*
X21082000Y-32385000D02*
X26670000Y-26797000D01*
X26670000Y-26797000D02*
X35306000Y-26797000D01*
X35306000Y-26797000D02*
X36068000Y-26035000D01*
X36068000Y-26035000D02*
X36068000Y-14605000D01*
X18542000Y-45058000D02*
X18415000Y-45185000D01*
X22479000Y-45058000D02*
X18542000Y-45058000D01*
X22504000Y-45072000D02*
X22479000Y-45058000D01*
X22504000Y-19572000D02*
X22479000Y-19558000D01*
X22479000Y-19558000D02*
X18542000Y-19558000D01*
X18542000Y-19558000D02*
X18415000Y-19685000D01*
X34925000Y-47471000D02*
X32766000Y-49630000D01*
X32766000Y-49630000D02*
X18161000Y-49630000D01*
X34925000Y-45011000D02*
X34925000Y-47471000D01*
X34925000Y-19511000D02*
X34925000Y-21971000D01*
X32766000Y-24130000D02*
X18161000Y-24130000D01*
X34925000Y-21971000D02*
X32766000Y-24130000D01*
X49093000Y-49249000D02*
X49008000Y-49164000D01*
X49093000Y-49249000D02*
X49093000Y-51972000D01*
X49093000Y-51972000D02*
X47371000Y-53694000D01*
X47371000Y-53694000D02*
X47371000Y-55980000D01*
X47371000Y-55980000D02*
X44831000Y-58520000D01*
X44831000Y-58520000D02*
X29580000Y-58520000D01*
X27600000Y-60500000D02*
X29580000Y-58520000D01*
X27600000Y-35000000D02*
X29580000Y-33020000D01*
X44831000Y-33020000D02*
X29580000Y-33020000D01*
X47371000Y-30480000D02*
X44831000Y-33020000D01*
X47371000Y-28194000D02*
X47371000Y-30480000D01*
X49093000Y-26472000D02*
X47371000Y-28194000D01*
X49093000Y-23749000D02*
X49093000Y-26472000D01*
X49093000Y-23749000D02*
X49008000Y-23664000D01*
D23*
G36*
X52412683Y-13152838D02*
X52196559Y-13291910D01*
X52051569Y-13504110D01*
X52000560Y-13756000D01*
X52000560Y-15256000D01*
X52044838Y-15491317D01*
X52183910Y-15707441D01*
X52396110Y-15852431D01*
X52648000Y-15903440D01*
X53648000Y-15903440D01*
X53855342Y-15864426D01*
X54048000Y-15903440D01*
X55048000Y-15903440D01*
X55283317Y-15859162D01*
X55499441Y-15720090D01*
X55644431Y-15507890D01*
X55695440Y-15256000D01*
X55695440Y-13756000D01*
X55651162Y-13520683D01*
X55512090Y-13304559D01*
X55299890Y-13159569D01*
X55139059Y-13127000D01*
X58089082Y-13127000D01*
X58085057Y-13128663D01*
X57132010Y-14080048D01*
X56615589Y-15323728D01*
X56614414Y-16670364D01*
X57128663Y-17914943D01*
X58080048Y-18867990D01*
X59323728Y-19384411D01*
X60670364Y-19385586D01*
X61914943Y-18871337D01*
X62867990Y-17919952D01*
X62873000Y-17907887D01*
X62873000Y-32089082D01*
X62871337Y-32085057D01*
X61919952Y-31132010D01*
X60676272Y-30615589D01*
X59329636Y-30614414D01*
X58085057Y-31128663D01*
X57132010Y-32080048D01*
X56615589Y-33323728D01*
X56614414Y-34670364D01*
X57128663Y-35914943D01*
X58080048Y-36867990D01*
X58092113Y-36873000D01*
X13127000Y-36873000D01*
X13127000Y-22406452D01*
X13203946Y-22793285D01*
X13525853Y-23275054D01*
X14007622Y-23596961D01*
X14575907Y-23710000D01*
X14634093Y-23710000D01*
X15202378Y-23596961D01*
X15684147Y-23275054D01*
X16006054Y-22793285D01*
X16119093Y-22225000D01*
X16006054Y-21656715D01*
X15684147Y-21174946D01*
X15354974Y-20955000D01*
X15684147Y-20735054D01*
X16006054Y-20253285D01*
X16119093Y-19685000D01*
X16006054Y-19116715D01*
X15684147Y-18634946D01*
X15343447Y-18407298D01*
X15486358Y-18340183D01*
X15876645Y-17911924D01*
X16046476Y-17501890D01*
X15925155Y-17272000D01*
X14732000Y-17272000D01*
X14732000Y-17292000D01*
X14478000Y-17292000D01*
X14478000Y-17272000D01*
X14458000Y-17272000D01*
X14458000Y-17018000D01*
X14478000Y-17018000D01*
X14478000Y-16998000D01*
X14732000Y-16998000D01*
X14732000Y-17018000D01*
X15925155Y-17018000D01*
X16046476Y-16788110D01*
X16973524Y-16788110D01*
X17094845Y-17018000D01*
X18288000Y-17018000D01*
X18288000Y-15824181D01*
X18542000Y-15824181D01*
X18542000Y-17018000D01*
X19735155Y-17018000D01*
X19856476Y-16788110D01*
X19686645Y-16378076D01*
X19296358Y-15949817D01*
X18771892Y-15703514D01*
X18542000Y-15824181D01*
X18288000Y-15824181D01*
X18058108Y-15703514D01*
X17533642Y-15949817D01*
X17143355Y-16378076D01*
X16973524Y-16788110D01*
X16046476Y-16788110D01*
X15876645Y-16378076D01*
X15600499Y-16075063D01*
X15690317Y-16058162D01*
X15906441Y-15919090D01*
X16051431Y-15706890D01*
X16102440Y-15455000D01*
X16102440Y-15365000D01*
X19243198Y-15365000D01*
X20475560Y-16597362D01*
X20475560Y-17895000D01*
X20519838Y-18130317D01*
X20626759Y-18296477D01*
X20526569Y-18443110D01*
X20475560Y-18695000D01*
X20475560Y-18798000D01*
X19905478Y-18798000D01*
X19868162Y-18599683D01*
X19729090Y-18383559D01*
X19516890Y-18238569D01*
X19408893Y-18216699D01*
X19686645Y-17911924D01*
X19856476Y-17501890D01*
X19735155Y-17272000D01*
X18542000Y-17272000D01*
X18542000Y-17292000D01*
X18288000Y-17292000D01*
X18288000Y-17272000D01*
X17094845Y-17272000D01*
X16973524Y-17501890D01*
X17143355Y-17911924D01*
X17419501Y-18214937D01*
X17329683Y-18231838D01*
X17113559Y-18370910D01*
X16968569Y-18583110D01*
X16917560Y-18835000D01*
X16917560Y-20535000D01*
X16961838Y-20770317D01*
X17100910Y-20986441D01*
X17313110Y-21131431D01*
X17565000Y-21182440D01*
X19265000Y-21182440D01*
X19500317Y-21138162D01*
X19716441Y-20999090D01*
X19861431Y-20786890D01*
X19912440Y-20535000D01*
X19912440Y-20318000D01*
X20498704Y-20318000D01*
X20519838Y-20430317D01*
X20658910Y-20646441D01*
X20871110Y-20791431D01*
X21123000Y-20842440D01*
X23123000Y-20842440D01*
X23358317Y-20798162D01*
X23574441Y-20659090D01*
X23719431Y-20446890D01*
X23770440Y-20195000D01*
X23770440Y-18695000D01*
X23726162Y-18459683D01*
X23619241Y-18293523D01*
X23719431Y-18146890D01*
X23742697Y-18032000D01*
X26775560Y-18032000D01*
X26775560Y-19045000D01*
X26819838Y-19280317D01*
X26958910Y-19496441D01*
X27171110Y-19641431D01*
X27423000Y-19692440D01*
X29423000Y-19692440D01*
X29658317Y-19648162D01*
X29874441Y-19509090D01*
X30019431Y-19296890D01*
X30070440Y-19045000D01*
X30070440Y-18488913D01*
X30236000Y-18522440D01*
X31486000Y-18522440D01*
X31721317Y-18478162D01*
X31937441Y-18339090D01*
X32082431Y-18126890D01*
X32133440Y-17875000D01*
X32133440Y-17582362D01*
X32795401Y-16920401D01*
X32960148Y-16673840D01*
X32980832Y-16569852D01*
X33018000Y-16383000D01*
X33018000Y-15681802D01*
X33969802Y-14730000D01*
X35132890Y-14730000D01*
X35132838Y-14790167D01*
X35274883Y-15133943D01*
X35308000Y-15167118D01*
X35308000Y-15413560D01*
X34275000Y-15413560D01*
X34039683Y-15457838D01*
X33823559Y-15596910D01*
X33678569Y-15809110D01*
X33627560Y-16061000D01*
X33627560Y-17561000D01*
X33671838Y-17796317D01*
X33810910Y-18012441D01*
X34023110Y-18157431D01*
X34036197Y-18160081D01*
X33823559Y-18296910D01*
X33678569Y-18509110D01*
X33627560Y-18761000D01*
X33627560Y-20261000D01*
X33671838Y-20496317D01*
X33810910Y-20712441D01*
X34023110Y-20857431D01*
X34165000Y-20886164D01*
X34165000Y-21656198D01*
X32451198Y-23370000D01*
X19658440Y-23370000D01*
X19658440Y-23280000D01*
X19614162Y-23044683D01*
X19475090Y-22828559D01*
X19262890Y-22683569D01*
X19011000Y-22632560D01*
X17311000Y-22632560D01*
X17075683Y-22676838D01*
X16859559Y-22815910D01*
X16714569Y-23028110D01*
X16663560Y-23280000D01*
X16663560Y-24980000D01*
X16707838Y-25215317D01*
X16846910Y-25431441D01*
X17059110Y-25576431D01*
X17250644Y-25615218D01*
X16329636Y-25614414D01*
X15085057Y-26128663D01*
X14132010Y-27080048D01*
X13615589Y-28323728D01*
X13614414Y-29670364D01*
X14128663Y-30914943D01*
X15080048Y-31867990D01*
X16323728Y-32384411D01*
X16705454Y-32384744D01*
X15482053Y-33608145D01*
X15468285Y-33598946D01*
X14900000Y-33485907D01*
X14331715Y-33598946D01*
X13849946Y-33920853D01*
X13528039Y-34402622D01*
X13415000Y-34970907D01*
X13415000Y-35029093D01*
X13528039Y-35597378D01*
X13849946Y-36079147D01*
X14331715Y-36401054D01*
X14900000Y-36514093D01*
X15468285Y-36401054D01*
X15950054Y-36079147D01*
X16170000Y-35749974D01*
X16389946Y-36079147D01*
X16871715Y-36401054D01*
X17440000Y-36514093D01*
X18008285Y-36401054D01*
X18490054Y-36079147D01*
X18710000Y-35749974D01*
X18929946Y-36079147D01*
X19411715Y-36401054D01*
X19980000Y-36514093D01*
X20548285Y-36401054D01*
X21030054Y-36079147D01*
X21250000Y-35749974D01*
X21469946Y-36079147D01*
X21951715Y-36401054D01*
X22520000Y-36514093D01*
X23088285Y-36401054D01*
X23570054Y-36079147D01*
X23790000Y-35749974D01*
X24009946Y-36079147D01*
X24491715Y-36401054D01*
X25060000Y-36514093D01*
X25628285Y-36401054D01*
X26110054Y-36079147D01*
X26330000Y-35749974D01*
X26549946Y-36079147D01*
X27031715Y-36401054D01*
X27600000Y-36514093D01*
X28168285Y-36401054D01*
X28650054Y-36079147D01*
X28870000Y-35749974D01*
X29089946Y-36079147D01*
X29571715Y-36401054D01*
X30140000Y-36514093D01*
X30708285Y-36401054D01*
X31190054Y-36079147D01*
X31410000Y-35749974D01*
X31629946Y-36079147D01*
X32111715Y-36401054D01*
X32680000Y-36514093D01*
X33248285Y-36401054D01*
X33730054Y-36079147D01*
X33950000Y-35749974D01*
X34169946Y-36079147D01*
X34651715Y-36401054D01*
X35220000Y-36514093D01*
X35788285Y-36401054D01*
X36270054Y-36079147D01*
X36490000Y-35749974D01*
X36709946Y-36079147D01*
X37191715Y-36401054D01*
X37760000Y-36514093D01*
X38328285Y-36401054D01*
X38810054Y-36079147D01*
X39030000Y-35749974D01*
X39249946Y-36079147D01*
X39731715Y-36401054D01*
X40300000Y-36514093D01*
X40868285Y-36401054D01*
X41350054Y-36079147D01*
X41570000Y-35749974D01*
X41789946Y-36079147D01*
X42271715Y-36401054D01*
X42840000Y-36514093D01*
X43408285Y-36401054D01*
X43890054Y-36079147D01*
X44110000Y-35749974D01*
X44329946Y-36079147D01*
X44811715Y-36401054D01*
X45380000Y-36514093D01*
X45948285Y-36401054D01*
X46430054Y-36079147D01*
X46650000Y-35749974D01*
X46869946Y-36079147D01*
X47351715Y-36401054D01*
X47920000Y-36514093D01*
X48488285Y-36401054D01*
X48970054Y-36079147D01*
X49190000Y-35749974D01*
X49409946Y-36079147D01*
X49891715Y-36401054D01*
X50460000Y-36514093D01*
X51028285Y-36401054D01*
X51510054Y-36079147D01*
X51537850Y-36037548D01*
X51546838Y-36085317D01*
X51685910Y-36301441D01*
X51898110Y-36446431D01*
X52150000Y-36497440D01*
X53850000Y-36497440D01*
X54085317Y-36453162D01*
X54301441Y-36314090D01*
X54446431Y-36101890D01*
X54497440Y-35850000D01*
X54497440Y-34150000D01*
X54453162Y-33914683D01*
X54314090Y-33698559D01*
X54101890Y-33553569D01*
X53850000Y-33502560D01*
X52150000Y-33502560D01*
X51914683Y-33546838D01*
X51698559Y-33685910D01*
X51553569Y-33898110D01*
X51539914Y-33965541D01*
X51510054Y-33920853D01*
X51028285Y-33598946D01*
X50460000Y-33485907D01*
X49891715Y-33598946D01*
X49409946Y-33920853D01*
X49190000Y-34250026D01*
X48970054Y-33920853D01*
X48488285Y-33598946D01*
X47920000Y-33485907D01*
X47351715Y-33598946D01*
X46869946Y-33920853D01*
X46650000Y-34250026D01*
X46430054Y-33920853D01*
X45948285Y-33598946D01*
X45429958Y-33495844D01*
X47908401Y-31017401D01*
X48073148Y-30770840D01*
X48104263Y-30614414D01*
X48131000Y-30480000D01*
X48131000Y-28508802D01*
X49630401Y-27009401D01*
X49795148Y-26762839D01*
X49853000Y-26472000D01*
X49853000Y-24067152D01*
X49942838Y-23850799D01*
X49943162Y-23478833D01*
X49801117Y-23135057D01*
X49538327Y-22871808D01*
X49194799Y-22729162D01*
X48822833Y-22728838D01*
X48479057Y-22870883D01*
X48287440Y-23062166D01*
X48287440Y-22792000D01*
X48270865Y-22703907D01*
X51601000Y-22703907D01*
X51601000Y-22762093D01*
X51714039Y-23330378D01*
X52035946Y-23812147D01*
X52321578Y-24003000D01*
X52035946Y-24193853D01*
X51714039Y-24675622D01*
X51601000Y-25243907D01*
X51601000Y-25302093D01*
X51714039Y-25870378D01*
X52035946Y-26352147D01*
X52517715Y-26674054D01*
X53086000Y-26787093D01*
X53654285Y-26674054D01*
X54136054Y-26352147D01*
X54356000Y-26022974D01*
X54575946Y-26352147D01*
X55057715Y-26674054D01*
X55626000Y-26787093D01*
X56194285Y-26674054D01*
X56676054Y-26352147D01*
X56896000Y-26022974D01*
X57115946Y-26352147D01*
X57597715Y-26674054D01*
X58166000Y-26787093D01*
X58734285Y-26674054D01*
X59216054Y-26352147D01*
X59436000Y-26022974D01*
X59655946Y-26352147D01*
X60137715Y-26674054D01*
X60706000Y-26787093D01*
X61274285Y-26674054D01*
X61756054Y-26352147D01*
X62077961Y-25870378D01*
X62191000Y-25302093D01*
X62191000Y-25243907D01*
X62077961Y-24675622D01*
X61756054Y-24193853D01*
X61754821Y-24193029D01*
X61791317Y-24186162D01*
X62007441Y-24047090D01*
X62152431Y-23834890D01*
X62203440Y-23583000D01*
X62203440Y-21883000D01*
X62159162Y-21647683D01*
X62020090Y-21431559D01*
X61807890Y-21286569D01*
X61556000Y-21235560D01*
X59856000Y-21235560D01*
X59620683Y-21279838D01*
X59404559Y-21418910D01*
X59259569Y-21631110D01*
X59245914Y-21698541D01*
X59216054Y-21653853D01*
X58734285Y-21331946D01*
X58166000Y-21218907D01*
X57597715Y-21331946D01*
X57115946Y-21653853D01*
X56896000Y-21983026D01*
X56676054Y-21653853D01*
X56194285Y-21331946D01*
X55626000Y-21218907D01*
X55057715Y-21331946D01*
X54575946Y-21653853D01*
X54356000Y-21983026D01*
X54136054Y-21653853D01*
X53654285Y-21331946D01*
X53086000Y-21218907D01*
X52517715Y-21331946D01*
X52035946Y-21653853D01*
X51714039Y-22135622D01*
X51601000Y-22703907D01*
X48270865Y-22703907D01*
X48243162Y-22556683D01*
X48104486Y-22341174D01*
X48171441Y-22298090D01*
X48316431Y-22085890D01*
X48367440Y-21834000D01*
X48367440Y-20584000D01*
X48323162Y-20348683D01*
X48184090Y-20132559D01*
X47971890Y-19987569D01*
X47783480Y-19949415D01*
X47928317Y-19922162D01*
X48144441Y-19783090D01*
X48289431Y-19570890D01*
X48340440Y-19319000D01*
X48340440Y-18766000D01*
X52002442Y-18766000D01*
X52044838Y-18991317D01*
X52183910Y-19207441D01*
X52396110Y-19352431D01*
X52648000Y-19403440D01*
X53648000Y-19403440D01*
X53855342Y-19364426D01*
X54048000Y-19403440D01*
X55048000Y-19403440D01*
X55283317Y-19359162D01*
X55499441Y-19220090D01*
X55644431Y-19007890D01*
X55695440Y-18756000D01*
X55695440Y-17256000D01*
X55651162Y-17020683D01*
X55512090Y-16804559D01*
X55299890Y-16659569D01*
X55048000Y-16608560D01*
X54048000Y-16608560D01*
X53840658Y-16647574D01*
X53648000Y-16608560D01*
X52648000Y-16608560D01*
X52412683Y-16652838D01*
X52196559Y-16791910D01*
X52051569Y-17004110D01*
X52002585Y-17246000D01*
X47606000Y-17246000D01*
X47315161Y-17303852D01*
X47213829Y-17371560D01*
X46193000Y-17371560D01*
X45957683Y-17415838D01*
X45741559Y-17554910D01*
X45596569Y-17767110D01*
X45589809Y-17800490D01*
X45531327Y-17659301D01*
X45352698Y-17480673D01*
X45119309Y-17384000D01*
X44528750Y-17384000D01*
X44370000Y-17542750D01*
X44370000Y-18542000D01*
X44390000Y-18542000D01*
X44390000Y-18796000D01*
X44370000Y-18796000D01*
X44370000Y-19795250D01*
X44528750Y-19954000D01*
X44750750Y-19954000D01*
X44597000Y-20107750D01*
X44597000Y-21082000D01*
X44617000Y-21082000D01*
X44617000Y-21336000D01*
X44597000Y-21336000D01*
X44597000Y-21356000D01*
X44343000Y-21356000D01*
X44343000Y-21336000D01*
X43243750Y-21336000D01*
X43085000Y-21494750D01*
X43085000Y-21960310D01*
X43181673Y-22193699D01*
X43360302Y-22372327D01*
X43593691Y-22469000D01*
X43760156Y-22469000D01*
X43711569Y-22540110D01*
X43662585Y-22782000D01*
X41482000Y-22782000D01*
X41191160Y-22839852D01*
X40944599Y-23004599D01*
X40003000Y-23946198D01*
X40003000Y-18954750D01*
X42858000Y-18954750D01*
X42858000Y-19445310D01*
X42954673Y-19678699D01*
X43133302Y-19857327D01*
X43366691Y-19954000D01*
X43581620Y-19954000D01*
X43360302Y-20045673D01*
X43181673Y-20224301D01*
X43085000Y-20457690D01*
X43085000Y-20923250D01*
X43243750Y-21082000D01*
X44343000Y-21082000D01*
X44343000Y-20107750D01*
X44184250Y-19949000D01*
X43962250Y-19949000D01*
X44116000Y-19795250D01*
X44116000Y-18796000D01*
X43016750Y-18796000D01*
X42858000Y-18954750D01*
X40003000Y-18954750D01*
X40003000Y-17892690D01*
X42858000Y-17892690D01*
X42858000Y-18383250D01*
X43016750Y-18542000D01*
X44116000Y-18542000D01*
X44116000Y-17542750D01*
X43957250Y-17384000D01*
X43366691Y-17384000D01*
X43133302Y-17480673D01*
X42954673Y-17659301D01*
X42858000Y-17892690D01*
X40003000Y-17892690D01*
X40003000Y-15294463D01*
X40035192Y-15262327D01*
X40177838Y-14918799D01*
X40178002Y-14730000D01*
X43881198Y-14730000D01*
X43895878Y-14744680D01*
X43895838Y-14790167D01*
X44037883Y-15133943D01*
X44300673Y-15397192D01*
X44644201Y-15539838D01*
X45016167Y-15540162D01*
X45359943Y-15398117D01*
X45623192Y-15135327D01*
X45765838Y-14791799D01*
X45766162Y-14419833D01*
X45624117Y-14076057D01*
X45361327Y-13812808D01*
X45017799Y-13670162D01*
X44970923Y-13670121D01*
X44733401Y-13432599D01*
X44486839Y-13267852D01*
X44196000Y-13210000D01*
X33655000Y-13210000D01*
X33364160Y-13267852D01*
X33117599Y-13432599D01*
X32052200Y-14497998D01*
X31962252Y-14497998D01*
X32121000Y-14339250D01*
X32121000Y-13748691D01*
X32024327Y-13515302D01*
X31845699Y-13336673D01*
X31612310Y-13240000D01*
X31146750Y-13240000D01*
X30988000Y-13398750D01*
X30988000Y-14498000D01*
X31008000Y-14498000D01*
X31008000Y-14752000D01*
X30988000Y-14752000D01*
X30988000Y-14772000D01*
X30734000Y-14772000D01*
X30734000Y-14752000D01*
X29826266Y-14752000D01*
X29674890Y-14648569D01*
X29423000Y-14597560D01*
X27423000Y-14597560D01*
X27187683Y-14641838D01*
X26971559Y-14780910D01*
X26826569Y-14993110D01*
X26775560Y-15245000D01*
X26775560Y-16512000D01*
X23770440Y-16512000D01*
X23770440Y-16395000D01*
X23726162Y-16159683D01*
X23620518Y-15995508D01*
X23661327Y-15954699D01*
X23758000Y-15721310D01*
X23758000Y-15130750D01*
X23599250Y-14972000D01*
X22250000Y-14972000D01*
X22250000Y-14992000D01*
X21996000Y-14992000D01*
X21996000Y-14972000D01*
X21976000Y-14972000D01*
X21976000Y-14718000D01*
X21996000Y-14718000D01*
X21996000Y-13618750D01*
X22250000Y-13618750D01*
X22250000Y-14718000D01*
X23599250Y-14718000D01*
X23758000Y-14559250D01*
X23758000Y-13968690D01*
X23666874Y-13748691D01*
X29601000Y-13748691D01*
X29601000Y-14339250D01*
X29759750Y-14498000D01*
X30734000Y-14498000D01*
X30734000Y-13398750D01*
X30575250Y-13240000D01*
X30109690Y-13240000D01*
X29876301Y-13336673D01*
X29697673Y-13515302D01*
X29601000Y-13748691D01*
X23666874Y-13748691D01*
X23661327Y-13735301D01*
X23482698Y-13556673D01*
X23249309Y-13460000D01*
X22408750Y-13460000D01*
X22250000Y-13618750D01*
X21996000Y-13618750D01*
X21837250Y-13460000D01*
X20996691Y-13460000D01*
X20763302Y-13556673D01*
X20584673Y-13735301D01*
X20488000Y-13968690D01*
X20488000Y-14460198D01*
X20095401Y-14067599D01*
X19848839Y-13902852D01*
X19558000Y-13845000D01*
X16102440Y-13845000D01*
X16102440Y-13755000D01*
X16058162Y-13519683D01*
X15919090Y-13303559D01*
X15706890Y-13158569D01*
X15550998Y-13127000D01*
X52550000Y-13127000D01*
X52412683Y-13152838D01*
X52412683Y-13152838D01*
G37*
X52412683Y-13152838D02*
X52196559Y-13291910D01*
X52051569Y-13504110D01*
X52000560Y-13756000D01*
X52000560Y-15256000D01*
X52044838Y-15491317D01*
X52183910Y-15707441D01*
X52396110Y-15852431D01*
X52648000Y-15903440D01*
X53648000Y-15903440D01*
X53855342Y-15864426D01*
X54048000Y-15903440D01*
X55048000Y-15903440D01*
X55283317Y-15859162D01*
X55499441Y-15720090D01*
X55644431Y-15507890D01*
X55695440Y-15256000D01*
X55695440Y-13756000D01*
X55651162Y-13520683D01*
X55512090Y-13304559D01*
X55299890Y-13159569D01*
X55139059Y-13127000D01*
X58089082Y-13127000D01*
X58085057Y-13128663D01*
X57132010Y-14080048D01*
X56615589Y-15323728D01*
X56614414Y-16670364D01*
X57128663Y-17914943D01*
X58080048Y-18867990D01*
X59323728Y-19384411D01*
X60670364Y-19385586D01*
X61914943Y-18871337D01*
X62867990Y-17919952D01*
X62873000Y-17907887D01*
X62873000Y-32089082D01*
X62871337Y-32085057D01*
X61919952Y-31132010D01*
X60676272Y-30615589D01*
X59329636Y-30614414D01*
X58085057Y-31128663D01*
X57132010Y-32080048D01*
X56615589Y-33323728D01*
X56614414Y-34670364D01*
X57128663Y-35914943D01*
X58080048Y-36867990D01*
X58092113Y-36873000D01*
X13127000Y-36873000D01*
X13127000Y-22406452D01*
X13203946Y-22793285D01*
X13525853Y-23275054D01*
X14007622Y-23596961D01*
X14575907Y-23710000D01*
X14634093Y-23710000D01*
X15202378Y-23596961D01*
X15684147Y-23275054D01*
X16006054Y-22793285D01*
X16119093Y-22225000D01*
X16006054Y-21656715D01*
X15684147Y-21174946D01*
X15354974Y-20955000D01*
X15684147Y-20735054D01*
X16006054Y-20253285D01*
X16119093Y-19685000D01*
X16006054Y-19116715D01*
X15684147Y-18634946D01*
X15343447Y-18407298D01*
X15486358Y-18340183D01*
X15876645Y-17911924D01*
X16046476Y-17501890D01*
X15925155Y-17272000D01*
X14732000Y-17272000D01*
X14732000Y-17292000D01*
X14478000Y-17292000D01*
X14478000Y-17272000D01*
X14458000Y-17272000D01*
X14458000Y-17018000D01*
X14478000Y-17018000D01*
X14478000Y-16998000D01*
X14732000Y-16998000D01*
X14732000Y-17018000D01*
X15925155Y-17018000D01*
X16046476Y-16788110D01*
X16973524Y-16788110D01*
X17094845Y-17018000D01*
X18288000Y-17018000D01*
X18288000Y-15824181D01*
X18542000Y-15824181D01*
X18542000Y-17018000D01*
X19735155Y-17018000D01*
X19856476Y-16788110D01*
X19686645Y-16378076D01*
X19296358Y-15949817D01*
X18771892Y-15703514D01*
X18542000Y-15824181D01*
X18288000Y-15824181D01*
X18058108Y-15703514D01*
X17533642Y-15949817D01*
X17143355Y-16378076D01*
X16973524Y-16788110D01*
X16046476Y-16788110D01*
X15876645Y-16378076D01*
X15600499Y-16075063D01*
X15690317Y-16058162D01*
X15906441Y-15919090D01*
X16051431Y-15706890D01*
X16102440Y-15455000D01*
X16102440Y-15365000D01*
X19243198Y-15365000D01*
X20475560Y-16597362D01*
X20475560Y-17895000D01*
X20519838Y-18130317D01*
X20626759Y-18296477D01*
X20526569Y-18443110D01*
X20475560Y-18695000D01*
X20475560Y-18798000D01*
X19905478Y-18798000D01*
X19868162Y-18599683D01*
X19729090Y-18383559D01*
X19516890Y-18238569D01*
X19408893Y-18216699D01*
X19686645Y-17911924D01*
X19856476Y-17501890D01*
X19735155Y-17272000D01*
X18542000Y-17272000D01*
X18542000Y-17292000D01*
X18288000Y-17292000D01*
X18288000Y-17272000D01*
X17094845Y-17272000D01*
X16973524Y-17501890D01*
X17143355Y-17911924D01*
X17419501Y-18214937D01*
X17329683Y-18231838D01*
X17113559Y-18370910D01*
X16968569Y-18583110D01*
X16917560Y-18835000D01*
X16917560Y-20535000D01*
X16961838Y-20770317D01*
X17100910Y-20986441D01*
X17313110Y-21131431D01*
X17565000Y-21182440D01*
X19265000Y-21182440D01*
X19500317Y-21138162D01*
X19716441Y-20999090D01*
X19861431Y-20786890D01*
X19912440Y-20535000D01*
X19912440Y-20318000D01*
X20498704Y-20318000D01*
X20519838Y-20430317D01*
X20658910Y-20646441D01*
X20871110Y-20791431D01*
X21123000Y-20842440D01*
X23123000Y-20842440D01*
X23358317Y-20798162D01*
X23574441Y-20659090D01*
X23719431Y-20446890D01*
X23770440Y-20195000D01*
X23770440Y-18695000D01*
X23726162Y-18459683D01*
X23619241Y-18293523D01*
X23719431Y-18146890D01*
X23742697Y-18032000D01*
X26775560Y-18032000D01*
X26775560Y-19045000D01*
X26819838Y-19280317D01*
X26958910Y-19496441D01*
X27171110Y-19641431D01*
X27423000Y-19692440D01*
X29423000Y-19692440D01*
X29658317Y-19648162D01*
X29874441Y-19509090D01*
X30019431Y-19296890D01*
X30070440Y-19045000D01*
X30070440Y-18488913D01*
X30236000Y-18522440D01*
X31486000Y-18522440D01*
X31721317Y-18478162D01*
X31937441Y-18339090D01*
X32082431Y-18126890D01*
X32133440Y-17875000D01*
X32133440Y-17582362D01*
X32795401Y-16920401D01*
X32960148Y-16673840D01*
X32980832Y-16569852D01*
X33018000Y-16383000D01*
X33018000Y-15681802D01*
X33969802Y-14730000D01*
X35132890Y-14730000D01*
X35132838Y-14790167D01*
X35274883Y-15133943D01*
X35308000Y-15167118D01*
X35308000Y-15413560D01*
X34275000Y-15413560D01*
X34039683Y-15457838D01*
X33823559Y-15596910D01*
X33678569Y-15809110D01*
X33627560Y-16061000D01*
X33627560Y-17561000D01*
X33671838Y-17796317D01*
X33810910Y-18012441D01*
X34023110Y-18157431D01*
X34036197Y-18160081D01*
X33823559Y-18296910D01*
X33678569Y-18509110D01*
X33627560Y-18761000D01*
X33627560Y-20261000D01*
X33671838Y-20496317D01*
X33810910Y-20712441D01*
X34023110Y-20857431D01*
X34165000Y-20886164D01*
X34165000Y-21656198D01*
X32451198Y-23370000D01*
X19658440Y-23370000D01*
X19658440Y-23280000D01*
X19614162Y-23044683D01*
X19475090Y-22828559D01*
X19262890Y-22683569D01*
X19011000Y-22632560D01*
X17311000Y-22632560D01*
X17075683Y-22676838D01*
X16859559Y-22815910D01*
X16714569Y-23028110D01*
X16663560Y-23280000D01*
X16663560Y-24980000D01*
X16707838Y-25215317D01*
X16846910Y-25431441D01*
X17059110Y-25576431D01*
X17250644Y-25615218D01*
X16329636Y-25614414D01*
X15085057Y-26128663D01*
X14132010Y-27080048D01*
X13615589Y-28323728D01*
X13614414Y-29670364D01*
X14128663Y-30914943D01*
X15080048Y-31867990D01*
X16323728Y-32384411D01*
X16705454Y-32384744D01*
X15482053Y-33608145D01*
X15468285Y-33598946D01*
X14900000Y-33485907D01*
X14331715Y-33598946D01*
X13849946Y-33920853D01*
X13528039Y-34402622D01*
X13415000Y-34970907D01*
X13415000Y-35029093D01*
X13528039Y-35597378D01*
X13849946Y-36079147D01*
X14331715Y-36401054D01*
X14900000Y-36514093D01*
X15468285Y-36401054D01*
X15950054Y-36079147D01*
X16170000Y-35749974D01*
X16389946Y-36079147D01*
X16871715Y-36401054D01*
X17440000Y-36514093D01*
X18008285Y-36401054D01*
X18490054Y-36079147D01*
X18710000Y-35749974D01*
X18929946Y-36079147D01*
X19411715Y-36401054D01*
X19980000Y-36514093D01*
X20548285Y-36401054D01*
X21030054Y-36079147D01*
X21250000Y-35749974D01*
X21469946Y-36079147D01*
X21951715Y-36401054D01*
X22520000Y-36514093D01*
X23088285Y-36401054D01*
X23570054Y-36079147D01*
X23790000Y-35749974D01*
X24009946Y-36079147D01*
X24491715Y-36401054D01*
X25060000Y-36514093D01*
X25628285Y-36401054D01*
X26110054Y-36079147D01*
X26330000Y-35749974D01*
X26549946Y-36079147D01*
X27031715Y-36401054D01*
X27600000Y-36514093D01*
X28168285Y-36401054D01*
X28650054Y-36079147D01*
X28870000Y-35749974D01*
X29089946Y-36079147D01*
X29571715Y-36401054D01*
X30140000Y-36514093D01*
X30708285Y-36401054D01*
X31190054Y-36079147D01*
X31410000Y-35749974D01*
X31629946Y-36079147D01*
X32111715Y-36401054D01*
X32680000Y-36514093D01*
X33248285Y-36401054D01*
X33730054Y-36079147D01*
X33950000Y-35749974D01*
X34169946Y-36079147D01*
X34651715Y-36401054D01*
X35220000Y-36514093D01*
X35788285Y-36401054D01*
X36270054Y-36079147D01*
X36490000Y-35749974D01*
X36709946Y-36079147D01*
X37191715Y-36401054D01*
X37760000Y-36514093D01*
X38328285Y-36401054D01*
X38810054Y-36079147D01*
X39030000Y-35749974D01*
X39249946Y-36079147D01*
X39731715Y-36401054D01*
X40300000Y-36514093D01*
X40868285Y-36401054D01*
X41350054Y-36079147D01*
X41570000Y-35749974D01*
X41789946Y-36079147D01*
X42271715Y-36401054D01*
X42840000Y-36514093D01*
X43408285Y-36401054D01*
X43890054Y-36079147D01*
X44110000Y-35749974D01*
X44329946Y-36079147D01*
X44811715Y-36401054D01*
X45380000Y-36514093D01*
X45948285Y-36401054D01*
X46430054Y-36079147D01*
X46650000Y-35749974D01*
X46869946Y-36079147D01*
X47351715Y-36401054D01*
X47920000Y-36514093D01*
X48488285Y-36401054D01*
X48970054Y-36079147D01*
X49190000Y-35749974D01*
X49409946Y-36079147D01*
X49891715Y-36401054D01*
X50460000Y-36514093D01*
X51028285Y-36401054D01*
X51510054Y-36079147D01*
X51537850Y-36037548D01*
X51546838Y-36085317D01*
X51685910Y-36301441D01*
X51898110Y-36446431D01*
X52150000Y-36497440D01*
X53850000Y-36497440D01*
X54085317Y-36453162D01*
X54301441Y-36314090D01*
X54446431Y-36101890D01*
X54497440Y-35850000D01*
X54497440Y-34150000D01*
X54453162Y-33914683D01*
X54314090Y-33698559D01*
X54101890Y-33553569D01*
X53850000Y-33502560D01*
X52150000Y-33502560D01*
X51914683Y-33546838D01*
X51698559Y-33685910D01*
X51553569Y-33898110D01*
X51539914Y-33965541D01*
X51510054Y-33920853D01*
X51028285Y-33598946D01*
X50460000Y-33485907D01*
X49891715Y-33598946D01*
X49409946Y-33920853D01*
X49190000Y-34250026D01*
X48970054Y-33920853D01*
X48488285Y-33598946D01*
X47920000Y-33485907D01*
X47351715Y-33598946D01*
X46869946Y-33920853D01*
X46650000Y-34250026D01*
X46430054Y-33920853D01*
X45948285Y-33598946D01*
X45429958Y-33495844D01*
X47908401Y-31017401D01*
X48073148Y-30770840D01*
X48104263Y-30614414D01*
X48131000Y-30480000D01*
X48131000Y-28508802D01*
X49630401Y-27009401D01*
X49795148Y-26762839D01*
X49853000Y-26472000D01*
X49853000Y-24067152D01*
X49942838Y-23850799D01*
X49943162Y-23478833D01*
X49801117Y-23135057D01*
X49538327Y-22871808D01*
X49194799Y-22729162D01*
X48822833Y-22728838D01*
X48479057Y-22870883D01*
X48287440Y-23062166D01*
X48287440Y-22792000D01*
X48270865Y-22703907D01*
X51601000Y-22703907D01*
X51601000Y-22762093D01*
X51714039Y-23330378D01*
X52035946Y-23812147D01*
X52321578Y-24003000D01*
X52035946Y-24193853D01*
X51714039Y-24675622D01*
X51601000Y-25243907D01*
X51601000Y-25302093D01*
X51714039Y-25870378D01*
X52035946Y-26352147D01*
X52517715Y-26674054D01*
X53086000Y-26787093D01*
X53654285Y-26674054D01*
X54136054Y-26352147D01*
X54356000Y-26022974D01*
X54575946Y-26352147D01*
X55057715Y-26674054D01*
X55626000Y-26787093D01*
X56194285Y-26674054D01*
X56676054Y-26352147D01*
X56896000Y-26022974D01*
X57115946Y-26352147D01*
X57597715Y-26674054D01*
X58166000Y-26787093D01*
X58734285Y-26674054D01*
X59216054Y-26352147D01*
X59436000Y-26022974D01*
X59655946Y-26352147D01*
X60137715Y-26674054D01*
X60706000Y-26787093D01*
X61274285Y-26674054D01*
X61756054Y-26352147D01*
X62077961Y-25870378D01*
X62191000Y-25302093D01*
X62191000Y-25243907D01*
X62077961Y-24675622D01*
X61756054Y-24193853D01*
X61754821Y-24193029D01*
X61791317Y-24186162D01*
X62007441Y-24047090D01*
X62152431Y-23834890D01*
X62203440Y-23583000D01*
X62203440Y-21883000D01*
X62159162Y-21647683D01*
X62020090Y-21431559D01*
X61807890Y-21286569D01*
X61556000Y-21235560D01*
X59856000Y-21235560D01*
X59620683Y-21279838D01*
X59404559Y-21418910D01*
X59259569Y-21631110D01*
X59245914Y-21698541D01*
X59216054Y-21653853D01*
X58734285Y-21331946D01*
X58166000Y-21218907D01*
X57597715Y-21331946D01*
X57115946Y-21653853D01*
X56896000Y-21983026D01*
X56676054Y-21653853D01*
X56194285Y-21331946D01*
X55626000Y-21218907D01*
X55057715Y-21331946D01*
X54575946Y-21653853D01*
X54356000Y-21983026D01*
X54136054Y-21653853D01*
X53654285Y-21331946D01*
X53086000Y-21218907D01*
X52517715Y-21331946D01*
X52035946Y-21653853D01*
X51714039Y-22135622D01*
X51601000Y-22703907D01*
X48270865Y-22703907D01*
X48243162Y-22556683D01*
X48104486Y-22341174D01*
X48171441Y-22298090D01*
X48316431Y-22085890D01*
X48367440Y-21834000D01*
X48367440Y-20584000D01*
X48323162Y-20348683D01*
X48184090Y-20132559D01*
X47971890Y-19987569D01*
X47783480Y-19949415D01*
X47928317Y-19922162D01*
X48144441Y-19783090D01*
X48289431Y-19570890D01*
X48340440Y-19319000D01*
X48340440Y-18766000D01*
X52002442Y-18766000D01*
X52044838Y-18991317D01*
X52183910Y-19207441D01*
X52396110Y-19352431D01*
X52648000Y-19403440D01*
X53648000Y-19403440D01*
X53855342Y-19364426D01*
X54048000Y-19403440D01*
X55048000Y-19403440D01*
X55283317Y-19359162D01*
X55499441Y-19220090D01*
X55644431Y-19007890D01*
X55695440Y-18756000D01*
X55695440Y-17256000D01*
X55651162Y-17020683D01*
X55512090Y-16804559D01*
X55299890Y-16659569D01*
X55048000Y-16608560D01*
X54048000Y-16608560D01*
X53840658Y-16647574D01*
X53648000Y-16608560D01*
X52648000Y-16608560D01*
X52412683Y-16652838D01*
X52196559Y-16791910D01*
X52051569Y-17004110D01*
X52002585Y-17246000D01*
X47606000Y-17246000D01*
X47315161Y-17303852D01*
X47213829Y-17371560D01*
X46193000Y-17371560D01*
X45957683Y-17415838D01*
X45741559Y-17554910D01*
X45596569Y-17767110D01*
X45589809Y-17800490D01*
X45531327Y-17659301D01*
X45352698Y-17480673D01*
X45119309Y-17384000D01*
X44528750Y-17384000D01*
X44370000Y-17542750D01*
X44370000Y-18542000D01*
X44390000Y-18542000D01*
X44390000Y-18796000D01*
X44370000Y-18796000D01*
X44370000Y-19795250D01*
X44528750Y-19954000D01*
X44750750Y-19954000D01*
X44597000Y-20107750D01*
X44597000Y-21082000D01*
X44617000Y-21082000D01*
X44617000Y-21336000D01*
X44597000Y-21336000D01*
X44597000Y-21356000D01*
X44343000Y-21356000D01*
X44343000Y-21336000D01*
X43243750Y-21336000D01*
X43085000Y-21494750D01*
X43085000Y-21960310D01*
X43181673Y-22193699D01*
X43360302Y-22372327D01*
X43593691Y-22469000D01*
X43760156Y-22469000D01*
X43711569Y-22540110D01*
X43662585Y-22782000D01*
X41482000Y-22782000D01*
X41191160Y-22839852D01*
X40944599Y-23004599D01*
X40003000Y-23946198D01*
X40003000Y-18954750D01*
X42858000Y-18954750D01*
X42858000Y-19445310D01*
X42954673Y-19678699D01*
X43133302Y-19857327D01*
X43366691Y-19954000D01*
X43581620Y-19954000D01*
X43360302Y-20045673D01*
X43181673Y-20224301D01*
X43085000Y-20457690D01*
X43085000Y-20923250D01*
X43243750Y-21082000D01*
X44343000Y-21082000D01*
X44343000Y-20107750D01*
X44184250Y-19949000D01*
X43962250Y-19949000D01*
X44116000Y-19795250D01*
X44116000Y-18796000D01*
X43016750Y-18796000D01*
X42858000Y-18954750D01*
X40003000Y-18954750D01*
X40003000Y-17892690D01*
X42858000Y-17892690D01*
X42858000Y-18383250D01*
X43016750Y-18542000D01*
X44116000Y-18542000D01*
X44116000Y-17542750D01*
X43957250Y-17384000D01*
X43366691Y-17384000D01*
X43133302Y-17480673D01*
X42954673Y-17659301D01*
X42858000Y-17892690D01*
X40003000Y-17892690D01*
X40003000Y-15294463D01*
X40035192Y-15262327D01*
X40177838Y-14918799D01*
X40178002Y-14730000D01*
X43881198Y-14730000D01*
X43895878Y-14744680D01*
X43895838Y-14790167D01*
X44037883Y-15133943D01*
X44300673Y-15397192D01*
X44644201Y-15539838D01*
X45016167Y-15540162D01*
X45359943Y-15398117D01*
X45623192Y-15135327D01*
X45765838Y-14791799D01*
X45766162Y-14419833D01*
X45624117Y-14076057D01*
X45361327Y-13812808D01*
X45017799Y-13670162D01*
X44970923Y-13670121D01*
X44733401Y-13432599D01*
X44486839Y-13267852D01*
X44196000Y-13210000D01*
X33655000Y-13210000D01*
X33364160Y-13267852D01*
X33117599Y-13432599D01*
X32052200Y-14497998D01*
X31962252Y-14497998D01*
X32121000Y-14339250D01*
X32121000Y-13748691D01*
X32024327Y-13515302D01*
X31845699Y-13336673D01*
X31612310Y-13240000D01*
X31146750Y-13240000D01*
X30988000Y-13398750D01*
X30988000Y-14498000D01*
X31008000Y-14498000D01*
X31008000Y-14752000D01*
X30988000Y-14752000D01*
X30988000Y-14772000D01*
X30734000Y-14772000D01*
X30734000Y-14752000D01*
X29826266Y-14752000D01*
X29674890Y-14648569D01*
X29423000Y-14597560D01*
X27423000Y-14597560D01*
X27187683Y-14641838D01*
X26971559Y-14780910D01*
X26826569Y-14993110D01*
X26775560Y-15245000D01*
X26775560Y-16512000D01*
X23770440Y-16512000D01*
X23770440Y-16395000D01*
X23726162Y-16159683D01*
X23620518Y-15995508D01*
X23661327Y-15954699D01*
X23758000Y-15721310D01*
X23758000Y-15130750D01*
X23599250Y-14972000D01*
X22250000Y-14972000D01*
X22250000Y-14992000D01*
X21996000Y-14992000D01*
X21996000Y-14972000D01*
X21976000Y-14972000D01*
X21976000Y-14718000D01*
X21996000Y-14718000D01*
X21996000Y-13618750D01*
X22250000Y-13618750D01*
X22250000Y-14718000D01*
X23599250Y-14718000D01*
X23758000Y-14559250D01*
X23758000Y-13968690D01*
X23666874Y-13748691D01*
X29601000Y-13748691D01*
X29601000Y-14339250D01*
X29759750Y-14498000D01*
X30734000Y-14498000D01*
X30734000Y-13398750D01*
X30575250Y-13240000D01*
X30109690Y-13240000D01*
X29876301Y-13336673D01*
X29697673Y-13515302D01*
X29601000Y-13748691D01*
X23666874Y-13748691D01*
X23661327Y-13735301D01*
X23482698Y-13556673D01*
X23249309Y-13460000D01*
X22408750Y-13460000D01*
X22250000Y-13618750D01*
X21996000Y-13618750D01*
X21837250Y-13460000D01*
X20996691Y-13460000D01*
X20763302Y-13556673D01*
X20584673Y-13735301D01*
X20488000Y-13968690D01*
X20488000Y-14460198D01*
X20095401Y-14067599D01*
X19848839Y-13902852D01*
X19558000Y-13845000D01*
X16102440Y-13845000D01*
X16102440Y-13755000D01*
X16058162Y-13519683D01*
X15919090Y-13303559D01*
X15706890Y-13158569D01*
X15550998Y-13127000D01*
X52550000Y-13127000D01*
X52412683Y-13152838D01*
G36*
X43704838Y-24527317D02*
X43843910Y-24743441D01*
X44056110Y-24888431D01*
X44069197Y-24891081D01*
X43856559Y-25027910D01*
X43711569Y-25240110D01*
X43660560Y-25492000D01*
X43660560Y-26992000D01*
X43704838Y-27227317D01*
X43843910Y-27443441D01*
X44056110Y-27588431D01*
X44308000Y-27639440D01*
X45608000Y-27639440D01*
X45843317Y-27595162D01*
X45966117Y-27516143D01*
X45980301Y-27530327D01*
X46213690Y-27627000D01*
X46704250Y-27627000D01*
X46862998Y-27468252D01*
X46862998Y-27627000D01*
X46863198Y-27627000D01*
X46833599Y-27656599D01*
X46668852Y-27903161D01*
X46611000Y-28194000D01*
X46611000Y-30165198D01*
X44516198Y-32260000D01*
X29580000Y-32260000D01*
X29289161Y-32317852D01*
X29042599Y-32482599D01*
X27966408Y-33558790D01*
X27600000Y-33485907D01*
X27031715Y-33598946D01*
X26549946Y-33920853D01*
X26330000Y-34250026D01*
X26110054Y-33920853D01*
X25628285Y-33598946D01*
X25060000Y-33485907D01*
X24491715Y-33598946D01*
X24009946Y-33920853D01*
X23790000Y-34250026D01*
X23570054Y-33920853D01*
X23280000Y-33727046D01*
X23280000Y-33674802D01*
X27873802Y-29081000D01*
X33489953Y-29081000D01*
X33253057Y-29178883D01*
X32989808Y-29441673D01*
X32847162Y-29785201D01*
X32846838Y-30157167D01*
X32988883Y-30500943D01*
X33251673Y-30764192D01*
X33595201Y-30906838D01*
X33967167Y-30907162D01*
X34310943Y-30765117D01*
X34574192Y-30502327D01*
X34716838Y-30158799D01*
X34716879Y-30111923D01*
X35112802Y-29716000D01*
X36068000Y-29716000D01*
X36358839Y-29658148D01*
X36605401Y-29493401D01*
X41796802Y-24302000D01*
X43662442Y-24302000D01*
X43704838Y-24527317D01*
X43704838Y-24527317D01*
G37*
X43704838Y-24527317D02*
X43843910Y-24743441D01*
X44056110Y-24888431D01*
X44069197Y-24891081D01*
X43856559Y-25027910D01*
X43711569Y-25240110D01*
X43660560Y-25492000D01*
X43660560Y-26992000D01*
X43704838Y-27227317D01*
X43843910Y-27443441D01*
X44056110Y-27588431D01*
X44308000Y-27639440D01*
X45608000Y-27639440D01*
X45843317Y-27595162D01*
X45966117Y-27516143D01*
X45980301Y-27530327D01*
X46213690Y-27627000D01*
X46704250Y-27627000D01*
X46862998Y-27468252D01*
X46862998Y-27627000D01*
X46863198Y-27627000D01*
X46833599Y-27656599D01*
X46668852Y-27903161D01*
X46611000Y-28194000D01*
X46611000Y-30165198D01*
X44516198Y-32260000D01*
X29580000Y-32260000D01*
X29289161Y-32317852D01*
X29042599Y-32482599D01*
X27966408Y-33558790D01*
X27600000Y-33485907D01*
X27031715Y-33598946D01*
X26549946Y-33920853D01*
X26330000Y-34250026D01*
X26110054Y-33920853D01*
X25628285Y-33598946D01*
X25060000Y-33485907D01*
X24491715Y-33598946D01*
X24009946Y-33920853D01*
X23790000Y-34250026D01*
X23570054Y-33920853D01*
X23280000Y-33727046D01*
X23280000Y-33674802D01*
X27873802Y-29081000D01*
X33489953Y-29081000D01*
X33253057Y-29178883D01*
X32989808Y-29441673D01*
X32847162Y-29785201D01*
X32846838Y-30157167D01*
X32988883Y-30500943D01*
X33251673Y-30764192D01*
X33595201Y-30906838D01*
X33967167Y-30907162D01*
X34310943Y-30765117D01*
X34574192Y-30502327D01*
X34716838Y-30158799D01*
X34716879Y-30111923D01*
X35112802Y-29716000D01*
X36068000Y-29716000D01*
X36358839Y-29658148D01*
X36605401Y-29493401D01*
X41796802Y-24302000D01*
X43662442Y-24302000D01*
X43704838Y-24527317D01*
G36*
X35308000Y-25720198D02*
X34991198Y-26037000D01*
X26670000Y-26037000D01*
X26379160Y-26094852D01*
X26132599Y-26259599D01*
X20767198Y-31625000D01*
X19161710Y-31625000D01*
X19867990Y-30919952D01*
X20384411Y-29676272D01*
X20385586Y-28329636D01*
X19871337Y-27085057D01*
X18919952Y-26132010D01*
X17704812Y-25627440D01*
X19011000Y-25627440D01*
X19246317Y-25583162D01*
X19462441Y-25444090D01*
X19607431Y-25231890D01*
X19658440Y-24980000D01*
X19658440Y-24890000D01*
X32766000Y-24890000D01*
X33056839Y-24832148D01*
X33303401Y-24667401D01*
X35308000Y-22662802D01*
X35308000Y-25720198D01*
X35308000Y-25720198D01*
G37*
X35308000Y-25720198D02*
X34991198Y-26037000D01*
X26670000Y-26037000D01*
X26379160Y-26094852D01*
X26132599Y-26259599D01*
X20767198Y-31625000D01*
X19161710Y-31625000D01*
X19867990Y-30919952D01*
X20384411Y-29676272D01*
X20385586Y-28329636D01*
X19871337Y-27085057D01*
X18919952Y-26132010D01*
X17704812Y-25627440D01*
X19011000Y-25627440D01*
X19246317Y-25583162D01*
X19462441Y-25444090D01*
X19607431Y-25231890D01*
X19658440Y-24980000D01*
X19658440Y-24890000D01*
X32766000Y-24890000D01*
X33056839Y-24832148D01*
X33303401Y-24667401D01*
X35308000Y-22662802D01*
X35308000Y-25720198D01*
G36*
X47117000Y-26115000D02*
X47137000Y-26115000D01*
X47137000Y-26369000D01*
X47117000Y-26369000D01*
X47117000Y-26389000D01*
X46863000Y-26389000D01*
X46863000Y-26369000D01*
X46843000Y-26369000D01*
X46843000Y-26115000D01*
X46863000Y-26115000D01*
X46863000Y-26095000D01*
X47117000Y-26095000D01*
X47117000Y-26115000D01*
X47117000Y-26115000D01*
G37*
X47117000Y-26115000D02*
X47137000Y-26115000D01*
X47137000Y-26369000D01*
X47117000Y-26369000D01*
X47117000Y-26389000D01*
X46863000Y-26389000D01*
X46863000Y-26369000D01*
X46843000Y-26369000D01*
X46843000Y-26115000D01*
X46863000Y-26115000D01*
X46863000Y-26095000D01*
X47117000Y-26095000D01*
X47117000Y-26115000D01*
G36*
X52412683Y-38652838D02*
X52196559Y-38791910D01*
X52051569Y-39004110D01*
X52000560Y-39256000D01*
X52000560Y-40756000D01*
X52044838Y-40991317D01*
X52183910Y-41207441D01*
X52396110Y-41352431D01*
X52648000Y-41403440D01*
X53648000Y-41403440D01*
X53855342Y-41364426D01*
X54048000Y-41403440D01*
X55048000Y-41403440D01*
X55283317Y-41359162D01*
X55499441Y-41220090D01*
X55644431Y-41007890D01*
X55695440Y-40756000D01*
X55695440Y-39256000D01*
X55651162Y-39020683D01*
X55512090Y-38804559D01*
X55299890Y-38659569D01*
X55139059Y-38627000D01*
X58089082Y-38627000D01*
X58085057Y-38628663D01*
X57132010Y-39580048D01*
X56615589Y-40823728D01*
X56614414Y-42170364D01*
X57128663Y-43414943D01*
X58080048Y-44367990D01*
X59323728Y-44884411D01*
X60670364Y-44885586D01*
X61914943Y-44371337D01*
X62867990Y-43419952D01*
X62873000Y-43407887D01*
X62873000Y-57589082D01*
X62871337Y-57585057D01*
X61919952Y-56632010D01*
X60676272Y-56115589D01*
X59329636Y-56114414D01*
X58085057Y-56628663D01*
X57132010Y-57580048D01*
X56615589Y-58823728D01*
X56614414Y-60170364D01*
X57128663Y-61414943D01*
X58080048Y-62367990D01*
X58092113Y-62373000D01*
X13127000Y-62373000D01*
X13127000Y-47906452D01*
X13203946Y-48293285D01*
X13525853Y-48775054D01*
X14007622Y-49096961D01*
X14575907Y-49210000D01*
X14634093Y-49210000D01*
X15202378Y-49096961D01*
X15684147Y-48775054D01*
X16006054Y-48293285D01*
X16119093Y-47725000D01*
X16006054Y-47156715D01*
X15684147Y-46674946D01*
X15354974Y-46455000D01*
X15684147Y-46235054D01*
X16006054Y-45753285D01*
X16119093Y-45185000D01*
X16006054Y-44616715D01*
X15684147Y-44134946D01*
X15343447Y-43907298D01*
X15486358Y-43840183D01*
X15876645Y-43411924D01*
X16046476Y-43001890D01*
X15925155Y-42772000D01*
X14732000Y-42772000D01*
X14732000Y-42792000D01*
X14478000Y-42792000D01*
X14478000Y-42772000D01*
X14458000Y-42772000D01*
X14458000Y-42518000D01*
X14478000Y-42518000D01*
X14478000Y-42498000D01*
X14732000Y-42498000D01*
X14732000Y-42518000D01*
X15925155Y-42518000D01*
X16046476Y-42288110D01*
X16973524Y-42288110D01*
X17094845Y-42518000D01*
X18288000Y-42518000D01*
X18288000Y-41324181D01*
X18542000Y-41324181D01*
X18542000Y-42518000D01*
X19735155Y-42518000D01*
X19856476Y-42288110D01*
X19686645Y-41878076D01*
X19296358Y-41449817D01*
X18771892Y-41203514D01*
X18542000Y-41324181D01*
X18288000Y-41324181D01*
X18058108Y-41203514D01*
X17533642Y-41449817D01*
X17143355Y-41878076D01*
X16973524Y-42288110D01*
X16046476Y-42288110D01*
X15876645Y-41878076D01*
X15600499Y-41575063D01*
X15690317Y-41558162D01*
X15906441Y-41419090D01*
X16051431Y-41206890D01*
X16102440Y-40955000D01*
X16102440Y-40865000D01*
X19243198Y-40865000D01*
X20475560Y-42097362D01*
X20475560Y-43395000D01*
X20519838Y-43630317D01*
X20626759Y-43796477D01*
X20526569Y-43943110D01*
X20475560Y-44195000D01*
X20475560Y-44298000D01*
X19905478Y-44298000D01*
X19868162Y-44099683D01*
X19729090Y-43883559D01*
X19516890Y-43738569D01*
X19408893Y-43716699D01*
X19686645Y-43411924D01*
X19856476Y-43001890D01*
X19735155Y-42772000D01*
X18542000Y-42772000D01*
X18542000Y-42792000D01*
X18288000Y-42792000D01*
X18288000Y-42772000D01*
X17094845Y-42772000D01*
X16973524Y-43001890D01*
X17143355Y-43411924D01*
X17419501Y-43714937D01*
X17329683Y-43731838D01*
X17113559Y-43870910D01*
X16968569Y-44083110D01*
X16917560Y-44335000D01*
X16917560Y-46035000D01*
X16961838Y-46270317D01*
X17100910Y-46486441D01*
X17313110Y-46631431D01*
X17565000Y-46682440D01*
X19265000Y-46682440D01*
X19500317Y-46638162D01*
X19716441Y-46499090D01*
X19861431Y-46286890D01*
X19912440Y-46035000D01*
X19912440Y-45818000D01*
X20498704Y-45818000D01*
X20519838Y-45930317D01*
X20658910Y-46146441D01*
X20871110Y-46291431D01*
X21123000Y-46342440D01*
X23123000Y-46342440D01*
X23358317Y-46298162D01*
X23574441Y-46159090D01*
X23719431Y-45946890D01*
X23770440Y-45695000D01*
X23770440Y-44195000D01*
X23726162Y-43959683D01*
X23619241Y-43793523D01*
X23719431Y-43646890D01*
X23742697Y-43532000D01*
X26775560Y-43532000D01*
X26775560Y-44545000D01*
X26819838Y-44780317D01*
X26958910Y-44996441D01*
X27171110Y-45141431D01*
X27423000Y-45192440D01*
X29423000Y-45192440D01*
X29658317Y-45148162D01*
X29874441Y-45009090D01*
X30019431Y-44796890D01*
X30070440Y-44545000D01*
X30070440Y-43988913D01*
X30236000Y-44022440D01*
X31486000Y-44022440D01*
X31721317Y-43978162D01*
X31937441Y-43839090D01*
X32082431Y-43626890D01*
X32133440Y-43375000D01*
X32133440Y-43082362D01*
X32795401Y-42420401D01*
X32960148Y-42173840D01*
X32980832Y-42069852D01*
X33018000Y-41883000D01*
X33018000Y-41181802D01*
X33969802Y-40230000D01*
X35132890Y-40230000D01*
X35132838Y-40290167D01*
X35274883Y-40633943D01*
X35308000Y-40667118D01*
X35308000Y-40913560D01*
X34275000Y-40913560D01*
X34039683Y-40957838D01*
X33823559Y-41096910D01*
X33678569Y-41309110D01*
X33627560Y-41561000D01*
X33627560Y-43061000D01*
X33671838Y-43296317D01*
X33810910Y-43512441D01*
X34023110Y-43657431D01*
X34036197Y-43660081D01*
X33823559Y-43796910D01*
X33678569Y-44009110D01*
X33627560Y-44261000D01*
X33627560Y-45761000D01*
X33671838Y-45996317D01*
X33810910Y-46212441D01*
X34023110Y-46357431D01*
X34165000Y-46386164D01*
X34165000Y-47156198D01*
X32451198Y-48870000D01*
X19658440Y-48870000D01*
X19658440Y-48780000D01*
X19614162Y-48544683D01*
X19475090Y-48328559D01*
X19262890Y-48183569D01*
X19011000Y-48132560D01*
X17311000Y-48132560D01*
X17075683Y-48176838D01*
X16859559Y-48315910D01*
X16714569Y-48528110D01*
X16663560Y-48780000D01*
X16663560Y-50480000D01*
X16707838Y-50715317D01*
X16846910Y-50931441D01*
X17059110Y-51076431D01*
X17250644Y-51115218D01*
X16329636Y-51114414D01*
X15085057Y-51628663D01*
X14132010Y-52580048D01*
X13615589Y-53823728D01*
X13614414Y-55170364D01*
X14128663Y-56414943D01*
X15080048Y-57367990D01*
X16323728Y-57884411D01*
X16705454Y-57884744D01*
X15482053Y-59108145D01*
X15468285Y-59098946D01*
X14900000Y-58985907D01*
X14331715Y-59098946D01*
X13849946Y-59420853D01*
X13528039Y-59902622D01*
X13415000Y-60470907D01*
X13415000Y-60529093D01*
X13528039Y-61097378D01*
X13849946Y-61579147D01*
X14331715Y-61901054D01*
X14900000Y-62014093D01*
X15468285Y-61901054D01*
X15950054Y-61579147D01*
X16170000Y-61249974D01*
X16389946Y-61579147D01*
X16871715Y-61901054D01*
X17440000Y-62014093D01*
X18008285Y-61901054D01*
X18490054Y-61579147D01*
X18710000Y-61249974D01*
X18929946Y-61579147D01*
X19411715Y-61901054D01*
X19980000Y-62014093D01*
X20548285Y-61901054D01*
X21030054Y-61579147D01*
X21250000Y-61249974D01*
X21469946Y-61579147D01*
X21951715Y-61901054D01*
X22520000Y-62014093D01*
X23088285Y-61901054D01*
X23570054Y-61579147D01*
X23790000Y-61249974D01*
X24009946Y-61579147D01*
X24491715Y-61901054D01*
X25060000Y-62014093D01*
X25628285Y-61901054D01*
X26110054Y-61579147D01*
X26330000Y-61249974D01*
X26549946Y-61579147D01*
X27031715Y-61901054D01*
X27600000Y-62014093D01*
X28168285Y-61901054D01*
X28650054Y-61579147D01*
X28870000Y-61249974D01*
X29089946Y-61579147D01*
X29571715Y-61901054D01*
X30140000Y-62014093D01*
X30708285Y-61901054D01*
X31190054Y-61579147D01*
X31410000Y-61249974D01*
X31629946Y-61579147D01*
X32111715Y-61901054D01*
X32680000Y-62014093D01*
X33248285Y-61901054D01*
X33730054Y-61579147D01*
X33950000Y-61249974D01*
X34169946Y-61579147D01*
X34651715Y-61901054D01*
X35220000Y-62014093D01*
X35788285Y-61901054D01*
X36270054Y-61579147D01*
X36490000Y-61249974D01*
X36709946Y-61579147D01*
X37191715Y-61901054D01*
X37760000Y-62014093D01*
X38328285Y-61901054D01*
X38810054Y-61579147D01*
X39030000Y-61249974D01*
X39249946Y-61579147D01*
X39731715Y-61901054D01*
X40300000Y-62014093D01*
X40868285Y-61901054D01*
X41350054Y-61579147D01*
X41570000Y-61249974D01*
X41789946Y-61579147D01*
X42271715Y-61901054D01*
X42840000Y-62014093D01*
X43408285Y-61901054D01*
X43890054Y-61579147D01*
X44110000Y-61249974D01*
X44329946Y-61579147D01*
X44811715Y-61901054D01*
X45380000Y-62014093D01*
X45948285Y-61901054D01*
X46430054Y-61579147D01*
X46650000Y-61249974D01*
X46869946Y-61579147D01*
X47351715Y-61901054D01*
X47920000Y-62014093D01*
X48488285Y-61901054D01*
X48970054Y-61579147D01*
X49190000Y-61249974D01*
X49409946Y-61579147D01*
X49891715Y-61901054D01*
X50460000Y-62014093D01*
X51028285Y-61901054D01*
X51510054Y-61579147D01*
X51537850Y-61537548D01*
X51546838Y-61585317D01*
X51685910Y-61801441D01*
X51898110Y-61946431D01*
X52150000Y-61997440D01*
X53850000Y-61997440D01*
X54085317Y-61953162D01*
X54301441Y-61814090D01*
X54446431Y-61601890D01*
X54497440Y-61350000D01*
X54497440Y-59650000D01*
X54453162Y-59414683D01*
X54314090Y-59198559D01*
X54101890Y-59053569D01*
X53850000Y-59002560D01*
X52150000Y-59002560D01*
X51914683Y-59046838D01*
X51698559Y-59185910D01*
X51553569Y-59398110D01*
X51539914Y-59465541D01*
X51510054Y-59420853D01*
X51028285Y-59098946D01*
X50460000Y-58985907D01*
X49891715Y-59098946D01*
X49409946Y-59420853D01*
X49190000Y-59750026D01*
X48970054Y-59420853D01*
X48488285Y-59098946D01*
X47920000Y-58985907D01*
X47351715Y-59098946D01*
X46869946Y-59420853D01*
X46650000Y-59750026D01*
X46430054Y-59420853D01*
X45948285Y-59098946D01*
X45429958Y-58995844D01*
X47908401Y-56517401D01*
X48073148Y-56270840D01*
X48104263Y-56114414D01*
X48131000Y-55980000D01*
X48131000Y-54008802D01*
X49630401Y-52509401D01*
X49795148Y-52262839D01*
X49853000Y-51972000D01*
X49853000Y-49567152D01*
X49942838Y-49350799D01*
X49943162Y-48978833D01*
X49801117Y-48635057D01*
X49538327Y-48371808D01*
X49194799Y-48229162D01*
X48822833Y-48228838D01*
X48479057Y-48370883D01*
X48287440Y-48562166D01*
X48287440Y-48292000D01*
X48270865Y-48203907D01*
X51601000Y-48203907D01*
X51601000Y-48262093D01*
X51714039Y-48830378D01*
X52035946Y-49312147D01*
X52321578Y-49503000D01*
X52035946Y-49693853D01*
X51714039Y-50175622D01*
X51601000Y-50743907D01*
X51601000Y-50802093D01*
X51714039Y-51370378D01*
X52035946Y-51852147D01*
X52517715Y-52174054D01*
X53086000Y-52287093D01*
X53654285Y-52174054D01*
X54136054Y-51852147D01*
X54356000Y-51522974D01*
X54575946Y-51852147D01*
X55057715Y-52174054D01*
X55626000Y-52287093D01*
X56194285Y-52174054D01*
X56676054Y-51852147D01*
X56896000Y-51522974D01*
X57115946Y-51852147D01*
X57597715Y-52174054D01*
X58166000Y-52287093D01*
X58734285Y-52174054D01*
X59216054Y-51852147D01*
X59436000Y-51522974D01*
X59655946Y-51852147D01*
X60137715Y-52174054D01*
X60706000Y-52287093D01*
X61274285Y-52174054D01*
X61756054Y-51852147D01*
X62077961Y-51370378D01*
X62191000Y-50802093D01*
X62191000Y-50743907D01*
X62077961Y-50175622D01*
X61756054Y-49693853D01*
X61754821Y-49693029D01*
X61791317Y-49686162D01*
X62007441Y-49547090D01*
X62152431Y-49334890D01*
X62203440Y-49083000D01*
X62203440Y-47383000D01*
X62159162Y-47147683D01*
X62020090Y-46931559D01*
X61807890Y-46786569D01*
X61556000Y-46735560D01*
X59856000Y-46735560D01*
X59620683Y-46779838D01*
X59404559Y-46918910D01*
X59259569Y-47131110D01*
X59245914Y-47198541D01*
X59216054Y-47153853D01*
X58734285Y-46831946D01*
X58166000Y-46718907D01*
X57597715Y-46831946D01*
X57115946Y-47153853D01*
X56896000Y-47483026D01*
X56676054Y-47153853D01*
X56194285Y-46831946D01*
X55626000Y-46718907D01*
X55057715Y-46831946D01*
X54575946Y-47153853D01*
X54356000Y-47483026D01*
X54136054Y-47153853D01*
X53654285Y-46831946D01*
X53086000Y-46718907D01*
X52517715Y-46831946D01*
X52035946Y-47153853D01*
X51714039Y-47635622D01*
X51601000Y-48203907D01*
X48270865Y-48203907D01*
X48243162Y-48056683D01*
X48104486Y-47841174D01*
X48171441Y-47798090D01*
X48316431Y-47585890D01*
X48367440Y-47334000D01*
X48367440Y-46084000D01*
X48323162Y-45848683D01*
X48184090Y-45632559D01*
X47971890Y-45487569D01*
X47783480Y-45449415D01*
X47928317Y-45422162D01*
X48144441Y-45283090D01*
X48289431Y-45070890D01*
X48340440Y-44819000D01*
X48340440Y-44266000D01*
X52002442Y-44266000D01*
X52044838Y-44491317D01*
X52183910Y-44707441D01*
X52396110Y-44852431D01*
X52648000Y-44903440D01*
X53648000Y-44903440D01*
X53855342Y-44864426D01*
X54048000Y-44903440D01*
X55048000Y-44903440D01*
X55283317Y-44859162D01*
X55499441Y-44720090D01*
X55644431Y-44507890D01*
X55695440Y-44256000D01*
X55695440Y-42756000D01*
X55651162Y-42520683D01*
X55512090Y-42304559D01*
X55299890Y-42159569D01*
X55048000Y-42108560D01*
X54048000Y-42108560D01*
X53840658Y-42147574D01*
X53648000Y-42108560D01*
X52648000Y-42108560D01*
X52412683Y-42152838D01*
X52196559Y-42291910D01*
X52051569Y-42504110D01*
X52002585Y-42746000D01*
X47606000Y-42746000D01*
X47315161Y-42803852D01*
X47213829Y-42871560D01*
X46193000Y-42871560D01*
X45957683Y-42915838D01*
X45741559Y-43054910D01*
X45596569Y-43267110D01*
X45589809Y-43300490D01*
X45531327Y-43159301D01*
X45352698Y-42980673D01*
X45119309Y-42884000D01*
X44528750Y-42884000D01*
X44370000Y-43042750D01*
X44370000Y-44042000D01*
X44390000Y-44042000D01*
X44390000Y-44296000D01*
X44370000Y-44296000D01*
X44370000Y-45295250D01*
X44528750Y-45454000D01*
X44750750Y-45454000D01*
X44597000Y-45607750D01*
X44597000Y-46582000D01*
X44617000Y-46582000D01*
X44617000Y-46836000D01*
X44597000Y-46836000D01*
X44597000Y-46856000D01*
X44343000Y-46856000D01*
X44343000Y-46836000D01*
X43243750Y-46836000D01*
X43085000Y-46994750D01*
X43085000Y-47460310D01*
X43181673Y-47693699D01*
X43360302Y-47872327D01*
X43593691Y-47969000D01*
X43760156Y-47969000D01*
X43711569Y-48040110D01*
X43662585Y-48282000D01*
X41482000Y-48282000D01*
X41191160Y-48339852D01*
X40944599Y-48504599D01*
X40003000Y-49446198D01*
X40003000Y-44454750D01*
X42858000Y-44454750D01*
X42858000Y-44945310D01*
X42954673Y-45178699D01*
X43133302Y-45357327D01*
X43366691Y-45454000D01*
X43581620Y-45454000D01*
X43360302Y-45545673D01*
X43181673Y-45724301D01*
X43085000Y-45957690D01*
X43085000Y-46423250D01*
X43243750Y-46582000D01*
X44343000Y-46582000D01*
X44343000Y-45607750D01*
X44184250Y-45449000D01*
X43962250Y-45449000D01*
X44116000Y-45295250D01*
X44116000Y-44296000D01*
X43016750Y-44296000D01*
X42858000Y-44454750D01*
X40003000Y-44454750D01*
X40003000Y-43392690D01*
X42858000Y-43392690D01*
X42858000Y-43883250D01*
X43016750Y-44042000D01*
X44116000Y-44042000D01*
X44116000Y-43042750D01*
X43957250Y-42884000D01*
X43366691Y-42884000D01*
X43133302Y-42980673D01*
X42954673Y-43159301D01*
X42858000Y-43392690D01*
X40003000Y-43392690D01*
X40003000Y-40794463D01*
X40035192Y-40762327D01*
X40177838Y-40418799D01*
X40178002Y-40230000D01*
X43881198Y-40230000D01*
X43895878Y-40244680D01*
X43895838Y-40290167D01*
X44037883Y-40633943D01*
X44300673Y-40897192D01*
X44644201Y-41039838D01*
X45016167Y-41040162D01*
X45359943Y-40898117D01*
X45623192Y-40635327D01*
X45765838Y-40291799D01*
X45766162Y-39919833D01*
X45624117Y-39576057D01*
X45361327Y-39312808D01*
X45017799Y-39170162D01*
X44970923Y-39170121D01*
X44733401Y-38932599D01*
X44486839Y-38767852D01*
X44196000Y-38710000D01*
X33655000Y-38710000D01*
X33364160Y-38767852D01*
X33117599Y-38932599D01*
X32052200Y-39997998D01*
X31962252Y-39997998D01*
X32121000Y-39839250D01*
X32121000Y-39248691D01*
X32024327Y-39015302D01*
X31845699Y-38836673D01*
X31612310Y-38740000D01*
X31146750Y-38740000D01*
X30988000Y-38898750D01*
X30988000Y-39998000D01*
X31008000Y-39998000D01*
X31008000Y-40252000D01*
X30988000Y-40252000D01*
X30988000Y-40272000D01*
X30734000Y-40272000D01*
X30734000Y-40252000D01*
X29826266Y-40252000D01*
X29674890Y-40148569D01*
X29423000Y-40097560D01*
X27423000Y-40097560D01*
X27187683Y-40141838D01*
X26971559Y-40280910D01*
X26826569Y-40493110D01*
X26775560Y-40745000D01*
X26775560Y-42012000D01*
X23770440Y-42012000D01*
X23770440Y-41895000D01*
X23726162Y-41659683D01*
X23620518Y-41495508D01*
X23661327Y-41454699D01*
X23758000Y-41221310D01*
X23758000Y-40630750D01*
X23599250Y-40472000D01*
X22250000Y-40472000D01*
X22250000Y-40492000D01*
X21996000Y-40492000D01*
X21996000Y-40472000D01*
X21976000Y-40472000D01*
X21976000Y-40218000D01*
X21996000Y-40218000D01*
X21996000Y-39118750D01*
X22250000Y-39118750D01*
X22250000Y-40218000D01*
X23599250Y-40218000D01*
X23758000Y-40059250D01*
X23758000Y-39468690D01*
X23666874Y-39248691D01*
X29601000Y-39248691D01*
X29601000Y-39839250D01*
X29759750Y-39998000D01*
X30734000Y-39998000D01*
X30734000Y-38898750D01*
X30575250Y-38740000D01*
X30109690Y-38740000D01*
X29876301Y-38836673D01*
X29697673Y-39015302D01*
X29601000Y-39248691D01*
X23666874Y-39248691D01*
X23661327Y-39235301D01*
X23482698Y-39056673D01*
X23249309Y-38960000D01*
X22408750Y-38960000D01*
X22250000Y-39118750D01*
X21996000Y-39118750D01*
X21837250Y-38960000D01*
X20996691Y-38960000D01*
X20763302Y-39056673D01*
X20584673Y-39235301D01*
X20488000Y-39468690D01*
X20488000Y-39960198D01*
X20095401Y-39567599D01*
X19848839Y-39402852D01*
X19558000Y-39345000D01*
X16102440Y-39345000D01*
X16102440Y-39255000D01*
X16058162Y-39019683D01*
X15919090Y-38803559D01*
X15706890Y-38658569D01*
X15550998Y-38627000D01*
X52550000Y-38627000D01*
X52412683Y-38652838D01*
X52412683Y-38652838D01*
G37*
X52412683Y-38652838D02*
X52196559Y-38791910D01*
X52051569Y-39004110D01*
X52000560Y-39256000D01*
X52000560Y-40756000D01*
X52044838Y-40991317D01*
X52183910Y-41207441D01*
X52396110Y-41352431D01*
X52648000Y-41403440D01*
X53648000Y-41403440D01*
X53855342Y-41364426D01*
X54048000Y-41403440D01*
X55048000Y-41403440D01*
X55283317Y-41359162D01*
X55499441Y-41220090D01*
X55644431Y-41007890D01*
X55695440Y-40756000D01*
X55695440Y-39256000D01*
X55651162Y-39020683D01*
X55512090Y-38804559D01*
X55299890Y-38659569D01*
X55139059Y-38627000D01*
X58089082Y-38627000D01*
X58085057Y-38628663D01*
X57132010Y-39580048D01*
X56615589Y-40823728D01*
X56614414Y-42170364D01*
X57128663Y-43414943D01*
X58080048Y-44367990D01*
X59323728Y-44884411D01*
X60670364Y-44885586D01*
X61914943Y-44371337D01*
X62867990Y-43419952D01*
X62873000Y-43407887D01*
X62873000Y-57589082D01*
X62871337Y-57585057D01*
X61919952Y-56632010D01*
X60676272Y-56115589D01*
X59329636Y-56114414D01*
X58085057Y-56628663D01*
X57132010Y-57580048D01*
X56615589Y-58823728D01*
X56614414Y-60170364D01*
X57128663Y-61414943D01*
X58080048Y-62367990D01*
X58092113Y-62373000D01*
X13127000Y-62373000D01*
X13127000Y-47906452D01*
X13203946Y-48293285D01*
X13525853Y-48775054D01*
X14007622Y-49096961D01*
X14575907Y-49210000D01*
X14634093Y-49210000D01*
X15202378Y-49096961D01*
X15684147Y-48775054D01*
X16006054Y-48293285D01*
X16119093Y-47725000D01*
X16006054Y-47156715D01*
X15684147Y-46674946D01*
X15354974Y-46455000D01*
X15684147Y-46235054D01*
X16006054Y-45753285D01*
X16119093Y-45185000D01*
X16006054Y-44616715D01*
X15684147Y-44134946D01*
X15343447Y-43907298D01*
X15486358Y-43840183D01*
X15876645Y-43411924D01*
X16046476Y-43001890D01*
X15925155Y-42772000D01*
X14732000Y-42772000D01*
X14732000Y-42792000D01*
X14478000Y-42792000D01*
X14478000Y-42772000D01*
X14458000Y-42772000D01*
X14458000Y-42518000D01*
X14478000Y-42518000D01*
X14478000Y-42498000D01*
X14732000Y-42498000D01*
X14732000Y-42518000D01*
X15925155Y-42518000D01*
X16046476Y-42288110D01*
X16973524Y-42288110D01*
X17094845Y-42518000D01*
X18288000Y-42518000D01*
X18288000Y-41324181D01*
X18542000Y-41324181D01*
X18542000Y-42518000D01*
X19735155Y-42518000D01*
X19856476Y-42288110D01*
X19686645Y-41878076D01*
X19296358Y-41449817D01*
X18771892Y-41203514D01*
X18542000Y-41324181D01*
X18288000Y-41324181D01*
X18058108Y-41203514D01*
X17533642Y-41449817D01*
X17143355Y-41878076D01*
X16973524Y-42288110D01*
X16046476Y-42288110D01*
X15876645Y-41878076D01*
X15600499Y-41575063D01*
X15690317Y-41558162D01*
X15906441Y-41419090D01*
X16051431Y-41206890D01*
X16102440Y-40955000D01*
X16102440Y-40865000D01*
X19243198Y-40865000D01*
X20475560Y-42097362D01*
X20475560Y-43395000D01*
X20519838Y-43630317D01*
X20626759Y-43796477D01*
X20526569Y-43943110D01*
X20475560Y-44195000D01*
X20475560Y-44298000D01*
X19905478Y-44298000D01*
X19868162Y-44099683D01*
X19729090Y-43883559D01*
X19516890Y-43738569D01*
X19408893Y-43716699D01*
X19686645Y-43411924D01*
X19856476Y-43001890D01*
X19735155Y-42772000D01*
X18542000Y-42772000D01*
X18542000Y-42792000D01*
X18288000Y-42792000D01*
X18288000Y-42772000D01*
X17094845Y-42772000D01*
X16973524Y-43001890D01*
X17143355Y-43411924D01*
X17419501Y-43714937D01*
X17329683Y-43731838D01*
X17113559Y-43870910D01*
X16968569Y-44083110D01*
X16917560Y-44335000D01*
X16917560Y-46035000D01*
X16961838Y-46270317D01*
X17100910Y-46486441D01*
X17313110Y-46631431D01*
X17565000Y-46682440D01*
X19265000Y-46682440D01*
X19500317Y-46638162D01*
X19716441Y-46499090D01*
X19861431Y-46286890D01*
X19912440Y-46035000D01*
X19912440Y-45818000D01*
X20498704Y-45818000D01*
X20519838Y-45930317D01*
X20658910Y-46146441D01*
X20871110Y-46291431D01*
X21123000Y-46342440D01*
X23123000Y-46342440D01*
X23358317Y-46298162D01*
X23574441Y-46159090D01*
X23719431Y-45946890D01*
X23770440Y-45695000D01*
X23770440Y-44195000D01*
X23726162Y-43959683D01*
X23619241Y-43793523D01*
X23719431Y-43646890D01*
X23742697Y-43532000D01*
X26775560Y-43532000D01*
X26775560Y-44545000D01*
X26819838Y-44780317D01*
X26958910Y-44996441D01*
X27171110Y-45141431D01*
X27423000Y-45192440D01*
X29423000Y-45192440D01*
X29658317Y-45148162D01*
X29874441Y-45009090D01*
X30019431Y-44796890D01*
X30070440Y-44545000D01*
X30070440Y-43988913D01*
X30236000Y-44022440D01*
X31486000Y-44022440D01*
X31721317Y-43978162D01*
X31937441Y-43839090D01*
X32082431Y-43626890D01*
X32133440Y-43375000D01*
X32133440Y-43082362D01*
X32795401Y-42420401D01*
X32960148Y-42173840D01*
X32980832Y-42069852D01*
X33018000Y-41883000D01*
X33018000Y-41181802D01*
X33969802Y-40230000D01*
X35132890Y-40230000D01*
X35132838Y-40290167D01*
X35274883Y-40633943D01*
X35308000Y-40667118D01*
X35308000Y-40913560D01*
X34275000Y-40913560D01*
X34039683Y-40957838D01*
X33823559Y-41096910D01*
X33678569Y-41309110D01*
X33627560Y-41561000D01*
X33627560Y-43061000D01*
X33671838Y-43296317D01*
X33810910Y-43512441D01*
X34023110Y-43657431D01*
X34036197Y-43660081D01*
X33823559Y-43796910D01*
X33678569Y-44009110D01*
X33627560Y-44261000D01*
X33627560Y-45761000D01*
X33671838Y-45996317D01*
X33810910Y-46212441D01*
X34023110Y-46357431D01*
X34165000Y-46386164D01*
X34165000Y-47156198D01*
X32451198Y-48870000D01*
X19658440Y-48870000D01*
X19658440Y-48780000D01*
X19614162Y-48544683D01*
X19475090Y-48328559D01*
X19262890Y-48183569D01*
X19011000Y-48132560D01*
X17311000Y-48132560D01*
X17075683Y-48176838D01*
X16859559Y-48315910D01*
X16714569Y-48528110D01*
X16663560Y-48780000D01*
X16663560Y-50480000D01*
X16707838Y-50715317D01*
X16846910Y-50931441D01*
X17059110Y-51076431D01*
X17250644Y-51115218D01*
X16329636Y-51114414D01*
X15085057Y-51628663D01*
X14132010Y-52580048D01*
X13615589Y-53823728D01*
X13614414Y-55170364D01*
X14128663Y-56414943D01*
X15080048Y-57367990D01*
X16323728Y-57884411D01*
X16705454Y-57884744D01*
X15482053Y-59108145D01*
X15468285Y-59098946D01*
X14900000Y-58985907D01*
X14331715Y-59098946D01*
X13849946Y-59420853D01*
X13528039Y-59902622D01*
X13415000Y-60470907D01*
X13415000Y-60529093D01*
X13528039Y-61097378D01*
X13849946Y-61579147D01*
X14331715Y-61901054D01*
X14900000Y-62014093D01*
X15468285Y-61901054D01*
X15950054Y-61579147D01*
X16170000Y-61249974D01*
X16389946Y-61579147D01*
X16871715Y-61901054D01*
X17440000Y-62014093D01*
X18008285Y-61901054D01*
X18490054Y-61579147D01*
X18710000Y-61249974D01*
X18929946Y-61579147D01*
X19411715Y-61901054D01*
X19980000Y-62014093D01*
X20548285Y-61901054D01*
X21030054Y-61579147D01*
X21250000Y-61249974D01*
X21469946Y-61579147D01*
X21951715Y-61901054D01*
X22520000Y-62014093D01*
X23088285Y-61901054D01*
X23570054Y-61579147D01*
X23790000Y-61249974D01*
X24009946Y-61579147D01*
X24491715Y-61901054D01*
X25060000Y-62014093D01*
X25628285Y-61901054D01*
X26110054Y-61579147D01*
X26330000Y-61249974D01*
X26549946Y-61579147D01*
X27031715Y-61901054D01*
X27600000Y-62014093D01*
X28168285Y-61901054D01*
X28650054Y-61579147D01*
X28870000Y-61249974D01*
X29089946Y-61579147D01*
X29571715Y-61901054D01*
X30140000Y-62014093D01*
X30708285Y-61901054D01*
X31190054Y-61579147D01*
X31410000Y-61249974D01*
X31629946Y-61579147D01*
X32111715Y-61901054D01*
X32680000Y-62014093D01*
X33248285Y-61901054D01*
X33730054Y-61579147D01*
X33950000Y-61249974D01*
X34169946Y-61579147D01*
X34651715Y-61901054D01*
X35220000Y-62014093D01*
X35788285Y-61901054D01*
X36270054Y-61579147D01*
X36490000Y-61249974D01*
X36709946Y-61579147D01*
X37191715Y-61901054D01*
X37760000Y-62014093D01*
X38328285Y-61901054D01*
X38810054Y-61579147D01*
X39030000Y-61249974D01*
X39249946Y-61579147D01*
X39731715Y-61901054D01*
X40300000Y-62014093D01*
X40868285Y-61901054D01*
X41350054Y-61579147D01*
X41570000Y-61249974D01*
X41789946Y-61579147D01*
X42271715Y-61901054D01*
X42840000Y-62014093D01*
X43408285Y-61901054D01*
X43890054Y-61579147D01*
X44110000Y-61249974D01*
X44329946Y-61579147D01*
X44811715Y-61901054D01*
X45380000Y-62014093D01*
X45948285Y-61901054D01*
X46430054Y-61579147D01*
X46650000Y-61249974D01*
X46869946Y-61579147D01*
X47351715Y-61901054D01*
X47920000Y-62014093D01*
X48488285Y-61901054D01*
X48970054Y-61579147D01*
X49190000Y-61249974D01*
X49409946Y-61579147D01*
X49891715Y-61901054D01*
X50460000Y-62014093D01*
X51028285Y-61901054D01*
X51510054Y-61579147D01*
X51537850Y-61537548D01*
X51546838Y-61585317D01*
X51685910Y-61801441D01*
X51898110Y-61946431D01*
X52150000Y-61997440D01*
X53850000Y-61997440D01*
X54085317Y-61953162D01*
X54301441Y-61814090D01*
X54446431Y-61601890D01*
X54497440Y-61350000D01*
X54497440Y-59650000D01*
X54453162Y-59414683D01*
X54314090Y-59198559D01*
X54101890Y-59053569D01*
X53850000Y-59002560D01*
X52150000Y-59002560D01*
X51914683Y-59046838D01*
X51698559Y-59185910D01*
X51553569Y-59398110D01*
X51539914Y-59465541D01*
X51510054Y-59420853D01*
X51028285Y-59098946D01*
X50460000Y-58985907D01*
X49891715Y-59098946D01*
X49409946Y-59420853D01*
X49190000Y-59750026D01*
X48970054Y-59420853D01*
X48488285Y-59098946D01*
X47920000Y-58985907D01*
X47351715Y-59098946D01*
X46869946Y-59420853D01*
X46650000Y-59750026D01*
X46430054Y-59420853D01*
X45948285Y-59098946D01*
X45429958Y-58995844D01*
X47908401Y-56517401D01*
X48073148Y-56270840D01*
X48104263Y-56114414D01*
X48131000Y-55980000D01*
X48131000Y-54008802D01*
X49630401Y-52509401D01*
X49795148Y-52262839D01*
X49853000Y-51972000D01*
X49853000Y-49567152D01*
X49942838Y-49350799D01*
X49943162Y-48978833D01*
X49801117Y-48635057D01*
X49538327Y-48371808D01*
X49194799Y-48229162D01*
X48822833Y-48228838D01*
X48479057Y-48370883D01*
X48287440Y-48562166D01*
X48287440Y-48292000D01*
X48270865Y-48203907D01*
X51601000Y-48203907D01*
X51601000Y-48262093D01*
X51714039Y-48830378D01*
X52035946Y-49312147D01*
X52321578Y-49503000D01*
X52035946Y-49693853D01*
X51714039Y-50175622D01*
X51601000Y-50743907D01*
X51601000Y-50802093D01*
X51714039Y-51370378D01*
X52035946Y-51852147D01*
X52517715Y-52174054D01*
X53086000Y-52287093D01*
X53654285Y-52174054D01*
X54136054Y-51852147D01*
X54356000Y-51522974D01*
X54575946Y-51852147D01*
X55057715Y-52174054D01*
X55626000Y-52287093D01*
X56194285Y-52174054D01*
X56676054Y-51852147D01*
X56896000Y-51522974D01*
X57115946Y-51852147D01*
X57597715Y-52174054D01*
X58166000Y-52287093D01*
X58734285Y-52174054D01*
X59216054Y-51852147D01*
X59436000Y-51522974D01*
X59655946Y-51852147D01*
X60137715Y-52174054D01*
X60706000Y-52287093D01*
X61274285Y-52174054D01*
X61756054Y-51852147D01*
X62077961Y-51370378D01*
X62191000Y-50802093D01*
X62191000Y-50743907D01*
X62077961Y-50175622D01*
X61756054Y-49693853D01*
X61754821Y-49693029D01*
X61791317Y-49686162D01*
X62007441Y-49547090D01*
X62152431Y-49334890D01*
X62203440Y-49083000D01*
X62203440Y-47383000D01*
X62159162Y-47147683D01*
X62020090Y-46931559D01*
X61807890Y-46786569D01*
X61556000Y-46735560D01*
X59856000Y-46735560D01*
X59620683Y-46779838D01*
X59404559Y-46918910D01*
X59259569Y-47131110D01*
X59245914Y-47198541D01*
X59216054Y-47153853D01*
X58734285Y-46831946D01*
X58166000Y-46718907D01*
X57597715Y-46831946D01*
X57115946Y-47153853D01*
X56896000Y-47483026D01*
X56676054Y-47153853D01*
X56194285Y-46831946D01*
X55626000Y-46718907D01*
X55057715Y-46831946D01*
X54575946Y-47153853D01*
X54356000Y-47483026D01*
X54136054Y-47153853D01*
X53654285Y-46831946D01*
X53086000Y-46718907D01*
X52517715Y-46831946D01*
X52035946Y-47153853D01*
X51714039Y-47635622D01*
X51601000Y-48203907D01*
X48270865Y-48203907D01*
X48243162Y-48056683D01*
X48104486Y-47841174D01*
X48171441Y-47798090D01*
X48316431Y-47585890D01*
X48367440Y-47334000D01*
X48367440Y-46084000D01*
X48323162Y-45848683D01*
X48184090Y-45632559D01*
X47971890Y-45487569D01*
X47783480Y-45449415D01*
X47928317Y-45422162D01*
X48144441Y-45283090D01*
X48289431Y-45070890D01*
X48340440Y-44819000D01*
X48340440Y-44266000D01*
X52002442Y-44266000D01*
X52044838Y-44491317D01*
X52183910Y-44707441D01*
X52396110Y-44852431D01*
X52648000Y-44903440D01*
X53648000Y-44903440D01*
X53855342Y-44864426D01*
X54048000Y-44903440D01*
X55048000Y-44903440D01*
X55283317Y-44859162D01*
X55499441Y-44720090D01*
X55644431Y-44507890D01*
X55695440Y-44256000D01*
X55695440Y-42756000D01*
X55651162Y-42520683D01*
X55512090Y-42304559D01*
X55299890Y-42159569D01*
X55048000Y-42108560D01*
X54048000Y-42108560D01*
X53840658Y-42147574D01*
X53648000Y-42108560D01*
X52648000Y-42108560D01*
X52412683Y-42152838D01*
X52196559Y-42291910D01*
X52051569Y-42504110D01*
X52002585Y-42746000D01*
X47606000Y-42746000D01*
X47315161Y-42803852D01*
X47213829Y-42871560D01*
X46193000Y-42871560D01*
X45957683Y-42915838D01*
X45741559Y-43054910D01*
X45596569Y-43267110D01*
X45589809Y-43300490D01*
X45531327Y-43159301D01*
X45352698Y-42980673D01*
X45119309Y-42884000D01*
X44528750Y-42884000D01*
X44370000Y-43042750D01*
X44370000Y-44042000D01*
X44390000Y-44042000D01*
X44390000Y-44296000D01*
X44370000Y-44296000D01*
X44370000Y-45295250D01*
X44528750Y-45454000D01*
X44750750Y-45454000D01*
X44597000Y-45607750D01*
X44597000Y-46582000D01*
X44617000Y-46582000D01*
X44617000Y-46836000D01*
X44597000Y-46836000D01*
X44597000Y-46856000D01*
X44343000Y-46856000D01*
X44343000Y-46836000D01*
X43243750Y-46836000D01*
X43085000Y-46994750D01*
X43085000Y-47460310D01*
X43181673Y-47693699D01*
X43360302Y-47872327D01*
X43593691Y-47969000D01*
X43760156Y-47969000D01*
X43711569Y-48040110D01*
X43662585Y-48282000D01*
X41482000Y-48282000D01*
X41191160Y-48339852D01*
X40944599Y-48504599D01*
X40003000Y-49446198D01*
X40003000Y-44454750D01*
X42858000Y-44454750D01*
X42858000Y-44945310D01*
X42954673Y-45178699D01*
X43133302Y-45357327D01*
X43366691Y-45454000D01*
X43581620Y-45454000D01*
X43360302Y-45545673D01*
X43181673Y-45724301D01*
X43085000Y-45957690D01*
X43085000Y-46423250D01*
X43243750Y-46582000D01*
X44343000Y-46582000D01*
X44343000Y-45607750D01*
X44184250Y-45449000D01*
X43962250Y-45449000D01*
X44116000Y-45295250D01*
X44116000Y-44296000D01*
X43016750Y-44296000D01*
X42858000Y-44454750D01*
X40003000Y-44454750D01*
X40003000Y-43392690D01*
X42858000Y-43392690D01*
X42858000Y-43883250D01*
X43016750Y-44042000D01*
X44116000Y-44042000D01*
X44116000Y-43042750D01*
X43957250Y-42884000D01*
X43366691Y-42884000D01*
X43133302Y-42980673D01*
X42954673Y-43159301D01*
X42858000Y-43392690D01*
X40003000Y-43392690D01*
X40003000Y-40794463D01*
X40035192Y-40762327D01*
X40177838Y-40418799D01*
X40178002Y-40230000D01*
X43881198Y-40230000D01*
X43895878Y-40244680D01*
X43895838Y-40290167D01*
X44037883Y-40633943D01*
X44300673Y-40897192D01*
X44644201Y-41039838D01*
X45016167Y-41040162D01*
X45359943Y-40898117D01*
X45623192Y-40635327D01*
X45765838Y-40291799D01*
X45766162Y-39919833D01*
X45624117Y-39576057D01*
X45361327Y-39312808D01*
X45017799Y-39170162D01*
X44970923Y-39170121D01*
X44733401Y-38932599D01*
X44486839Y-38767852D01*
X44196000Y-38710000D01*
X33655000Y-38710000D01*
X33364160Y-38767852D01*
X33117599Y-38932599D01*
X32052200Y-39997998D01*
X31962252Y-39997998D01*
X32121000Y-39839250D01*
X32121000Y-39248691D01*
X32024327Y-39015302D01*
X31845699Y-38836673D01*
X31612310Y-38740000D01*
X31146750Y-38740000D01*
X30988000Y-38898750D01*
X30988000Y-39998000D01*
X31008000Y-39998000D01*
X31008000Y-40252000D01*
X30988000Y-40252000D01*
X30988000Y-40272000D01*
X30734000Y-40272000D01*
X30734000Y-40252000D01*
X29826266Y-40252000D01*
X29674890Y-40148569D01*
X29423000Y-40097560D01*
X27423000Y-40097560D01*
X27187683Y-40141838D01*
X26971559Y-40280910D01*
X26826569Y-40493110D01*
X26775560Y-40745000D01*
X26775560Y-42012000D01*
X23770440Y-42012000D01*
X23770440Y-41895000D01*
X23726162Y-41659683D01*
X23620518Y-41495508D01*
X23661327Y-41454699D01*
X23758000Y-41221310D01*
X23758000Y-40630750D01*
X23599250Y-40472000D01*
X22250000Y-40472000D01*
X22250000Y-40492000D01*
X21996000Y-40492000D01*
X21996000Y-40472000D01*
X21976000Y-40472000D01*
X21976000Y-40218000D01*
X21996000Y-40218000D01*
X21996000Y-39118750D01*
X22250000Y-39118750D01*
X22250000Y-40218000D01*
X23599250Y-40218000D01*
X23758000Y-40059250D01*
X23758000Y-39468690D01*
X23666874Y-39248691D01*
X29601000Y-39248691D01*
X29601000Y-39839250D01*
X29759750Y-39998000D01*
X30734000Y-39998000D01*
X30734000Y-38898750D01*
X30575250Y-38740000D01*
X30109690Y-38740000D01*
X29876301Y-38836673D01*
X29697673Y-39015302D01*
X29601000Y-39248691D01*
X23666874Y-39248691D01*
X23661327Y-39235301D01*
X23482698Y-39056673D01*
X23249309Y-38960000D01*
X22408750Y-38960000D01*
X22250000Y-39118750D01*
X21996000Y-39118750D01*
X21837250Y-38960000D01*
X20996691Y-38960000D01*
X20763302Y-39056673D01*
X20584673Y-39235301D01*
X20488000Y-39468690D01*
X20488000Y-39960198D01*
X20095401Y-39567599D01*
X19848839Y-39402852D01*
X19558000Y-39345000D01*
X16102440Y-39345000D01*
X16102440Y-39255000D01*
X16058162Y-39019683D01*
X15919090Y-38803559D01*
X15706890Y-38658569D01*
X15550998Y-38627000D01*
X52550000Y-38627000D01*
X52412683Y-38652838D01*
G36*
X43704838Y-50027317D02*
X43843910Y-50243441D01*
X44056110Y-50388431D01*
X44069197Y-50391081D01*
X43856559Y-50527910D01*
X43711569Y-50740110D01*
X43660560Y-50992000D01*
X43660560Y-52492000D01*
X43704838Y-52727317D01*
X43843910Y-52943441D01*
X44056110Y-53088431D01*
X44308000Y-53139440D01*
X45608000Y-53139440D01*
X45843317Y-53095162D01*
X45966117Y-53016143D01*
X45980301Y-53030327D01*
X46213690Y-53127000D01*
X46704250Y-53127000D01*
X46862998Y-52968252D01*
X46862998Y-53127000D01*
X46863198Y-53127000D01*
X46833599Y-53156599D01*
X46668852Y-53403161D01*
X46611000Y-53694000D01*
X46611000Y-55665198D01*
X44516198Y-57760000D01*
X29580000Y-57760000D01*
X29289161Y-57817852D01*
X29042599Y-57982599D01*
X27966408Y-59058790D01*
X27600000Y-58985907D01*
X27031715Y-59098946D01*
X26549946Y-59420853D01*
X26330000Y-59750026D01*
X26110054Y-59420853D01*
X25628285Y-59098946D01*
X25060000Y-58985907D01*
X24491715Y-59098946D01*
X24009946Y-59420853D01*
X23790000Y-59750026D01*
X23570054Y-59420853D01*
X23280000Y-59227046D01*
X23280000Y-59174802D01*
X27873802Y-54581000D01*
X33489953Y-54581000D01*
X33253057Y-54678883D01*
X32989808Y-54941673D01*
X32847162Y-55285201D01*
X32846838Y-55657167D01*
X32988883Y-56000943D01*
X33251673Y-56264192D01*
X33595201Y-56406838D01*
X33967167Y-56407162D01*
X34310943Y-56265117D01*
X34574192Y-56002327D01*
X34716838Y-55658799D01*
X34716879Y-55611923D01*
X35112802Y-55216000D01*
X36068000Y-55216000D01*
X36358839Y-55158148D01*
X36605401Y-54993401D01*
X41796802Y-49802000D01*
X43662442Y-49802000D01*
X43704838Y-50027317D01*
X43704838Y-50027317D01*
G37*
X43704838Y-50027317D02*
X43843910Y-50243441D01*
X44056110Y-50388431D01*
X44069197Y-50391081D01*
X43856559Y-50527910D01*
X43711569Y-50740110D01*
X43660560Y-50992000D01*
X43660560Y-52492000D01*
X43704838Y-52727317D01*
X43843910Y-52943441D01*
X44056110Y-53088431D01*
X44308000Y-53139440D01*
X45608000Y-53139440D01*
X45843317Y-53095162D01*
X45966117Y-53016143D01*
X45980301Y-53030327D01*
X46213690Y-53127000D01*
X46704250Y-53127000D01*
X46862998Y-52968252D01*
X46862998Y-53127000D01*
X46863198Y-53127000D01*
X46833599Y-53156599D01*
X46668852Y-53403161D01*
X46611000Y-53694000D01*
X46611000Y-55665198D01*
X44516198Y-57760000D01*
X29580000Y-57760000D01*
X29289161Y-57817852D01*
X29042599Y-57982599D01*
X27966408Y-59058790D01*
X27600000Y-58985907D01*
X27031715Y-59098946D01*
X26549946Y-59420853D01*
X26330000Y-59750026D01*
X26110054Y-59420853D01*
X25628285Y-59098946D01*
X25060000Y-58985907D01*
X24491715Y-59098946D01*
X24009946Y-59420853D01*
X23790000Y-59750026D01*
X23570054Y-59420853D01*
X23280000Y-59227046D01*
X23280000Y-59174802D01*
X27873802Y-54581000D01*
X33489953Y-54581000D01*
X33253057Y-54678883D01*
X32989808Y-54941673D01*
X32847162Y-55285201D01*
X32846838Y-55657167D01*
X32988883Y-56000943D01*
X33251673Y-56264192D01*
X33595201Y-56406838D01*
X33967167Y-56407162D01*
X34310943Y-56265117D01*
X34574192Y-56002327D01*
X34716838Y-55658799D01*
X34716879Y-55611923D01*
X35112802Y-55216000D01*
X36068000Y-55216000D01*
X36358839Y-55158148D01*
X36605401Y-54993401D01*
X41796802Y-49802000D01*
X43662442Y-49802000D01*
X43704838Y-50027317D01*
G36*
X35308000Y-51220198D02*
X34991198Y-51537000D01*
X26670000Y-51537000D01*
X26379160Y-51594852D01*
X26132599Y-51759599D01*
X20767198Y-57125000D01*
X19161710Y-57125000D01*
X19867990Y-56419952D01*
X20384411Y-55176272D01*
X20385586Y-53829636D01*
X19871337Y-52585057D01*
X18919952Y-51632010D01*
X17704812Y-51127440D01*
X19011000Y-51127440D01*
X19246317Y-51083162D01*
X19462441Y-50944090D01*
X19607431Y-50731890D01*
X19658440Y-50480000D01*
X19658440Y-50390000D01*
X32766000Y-50390000D01*
X33056839Y-50332148D01*
X33303401Y-50167401D01*
X35308000Y-48162802D01*
X35308000Y-51220198D01*
X35308000Y-51220198D01*
G37*
X35308000Y-51220198D02*
X34991198Y-51537000D01*
X26670000Y-51537000D01*
X26379160Y-51594852D01*
X26132599Y-51759599D01*
X20767198Y-57125000D01*
X19161710Y-57125000D01*
X19867990Y-56419952D01*
X20384411Y-55176272D01*
X20385586Y-53829636D01*
X19871337Y-52585057D01*
X18919952Y-51632010D01*
X17704812Y-51127440D01*
X19011000Y-51127440D01*
X19246317Y-51083162D01*
X19462441Y-50944090D01*
X19607431Y-50731890D01*
X19658440Y-50480000D01*
X19658440Y-50390000D01*
X32766000Y-50390000D01*
X33056839Y-50332148D01*
X33303401Y-50167401D01*
X35308000Y-48162802D01*
X35308000Y-51220198D01*
G36*
X47117000Y-51615000D02*
X47137000Y-51615000D01*
X47137000Y-51869000D01*
X47117000Y-51869000D01*
X47117000Y-51889000D01*
X46863000Y-51889000D01*
X46863000Y-51869000D01*
X46843000Y-51869000D01*
X46843000Y-51615000D01*
X46863000Y-51615000D01*
X46863000Y-51595000D01*
X47117000Y-51595000D01*
X47117000Y-51615000D01*
X47117000Y-51615000D01*
G37*
X47117000Y-51615000D02*
X47137000Y-51615000D01*
X47137000Y-51869000D01*
X47117000Y-51869000D01*
X47117000Y-51889000D01*
X46863000Y-51889000D01*
X46863000Y-51869000D01*
X46843000Y-51869000D01*
X46843000Y-51615000D01*
X46863000Y-51615000D01*
X46863000Y-51595000D01*
X47117000Y-51595000D01*
X47117000Y-51615000D01*
M02*
