M48
;DRILL file {KiCad 4.0.7} date 07/17/18 15:17:56
;FORMAT={-:-/ absolute / inch / decimal}
FMAT,2
INCH,TZ
T1C0.016
T2C0.039
T3C0.126
%
G90
G05
M72
T1
X0.93Y-1.
X0.93Y-2.0039
X1.235Y-1.
X1.235Y-2.0039
X1.33Y-1.18
X1.33Y-2.1839
X1.375Y-0.6619
X1.375Y-1.6658
X1.42Y-0.575
X1.42Y-1.5789
X1.46Y-0.575
X1.46Y-1.5789
X1.4764Y-1.4567
X1.4764Y-1.5157
X1.505Y-0.575
X1.505Y-1.5789
X1.5157Y-1.4567
X1.5157Y-1.5157
X1.545Y-0.58
X1.545Y-1.125
X1.545Y-1.5839
X1.545Y-2.1289
X1.5551Y-1.4567
X1.5551Y-1.5157
X1.5945Y-1.4567
X1.5945Y-1.5157
X1.765Y-0.575
X1.765Y-1.5789
X1.77Y-1.0331
X1.77Y-2.0371
X1.805Y-0.575
X1.805Y-1.5789
X1.85Y-1.0331
X1.85Y-2.0371
X1.9294Y-0.9317
X1.9294Y-1.9356
X2.01Y-0.575
X2.01Y-1.5789
X2.095Y-0.57
X2.095Y-1.5739
X2.145Y-0.58
X2.145Y-0.71
X2.145Y-1.5839
X2.145Y-1.7139
X2.22Y-0.685
X2.22Y-1.6889
T2
X0.575Y-0.575
X0.575Y-0.675
X0.575Y-0.775
X0.575Y-0.875
X0.575Y-1.5789
X0.575Y-1.6789
X0.575Y-1.7789
X0.575Y-1.8789
X0.5866Y-1.378
X0.5866Y-2.3819
X0.6866Y-1.378
X0.6866Y-2.3819
X0.715Y-0.95
X0.715Y-1.9539
X0.725Y-0.675
X0.725Y-0.775
X0.725Y-1.6789
X0.725Y-1.7789
X0.7866Y-1.378
X0.7866Y-2.3819
X0.8866Y-1.378
X0.8866Y-2.3819
X0.9866Y-1.378
X0.9866Y-2.3819
X1.0866Y-1.378
X1.0866Y-2.3819
X1.1866Y-1.378
X1.1866Y-2.3819
X1.2866Y-1.378
X1.2866Y-2.3819
X1.3866Y-1.378
X1.3866Y-2.3819
X1.4866Y-1.378
X1.4866Y-2.3819
X1.5866Y-1.378
X1.5866Y-2.3819
X1.6866Y-1.378
X1.6866Y-2.3819
X1.7866Y-1.378
X1.7866Y-2.3819
X1.8866Y-1.378
X1.8866Y-2.3819
X1.9866Y-1.378
X1.9866Y-2.3819
X2.0866Y-1.378
X2.0866Y-2.3819
X2.09Y-0.895
X2.09Y-0.995
X2.09Y-1.8989
X2.09Y-1.9989
X2.19Y-0.895
X2.19Y-0.995
X2.19Y-1.8989
X2.19Y-1.9989
X2.29Y-0.895
X2.29Y-0.995
X2.29Y-1.8989
X2.29Y-1.9989
X2.39Y-0.895
X2.39Y-0.995
X2.39Y-1.8989
X2.39Y-1.9989
T3
X0.6693Y-1.1417
X0.6693Y-2.1457
X2.3622Y-0.6299
X2.3622Y-1.3386
X2.3622Y-1.6339
X2.3622Y-2.3425
T0
M30
