G04 #@! TF.FileFunction,Legend,Bot*
%FSLAX46Y46*%
G04 Gerber Fmt 4.6, Leading zero omitted, Abs format (unit mm)*
G04 Created by KiCad (PCBNEW 4.0.7) date 07/17/18 15:17:27*
%MOMM*%
%LPD*%
G01*
G04 APERTURE LIST*
%ADD10C,0.100000*%
%ADD11C,0.300000*%
%ADD12C,0.120000*%
%ADD13C,0.150000*%
G04 APERTURE END LIST*
D10*
D11*
X49350143Y-45345571D02*
X49350143Y-43845571D01*
X48850143Y-44917000D01*
X48350143Y-43845571D01*
X48350143Y-45345571D01*
X47635857Y-45345571D02*
X47635857Y-44345571D01*
X47635857Y-43845571D02*
X47707286Y-43917000D01*
X47635857Y-43988429D01*
X47564429Y-43917000D01*
X47635857Y-43845571D01*
X47635857Y-43988429D01*
X46921571Y-44345571D02*
X46921571Y-45345571D01*
X46921571Y-44488429D02*
X46850143Y-44417000D01*
X46707285Y-44345571D01*
X46493000Y-44345571D01*
X46350143Y-44417000D01*
X46278714Y-44559857D01*
X46278714Y-45345571D01*
X45564428Y-45345571D02*
X45564428Y-44345571D01*
X45564428Y-43845571D02*
X45635857Y-43917000D01*
X45564428Y-43988429D01*
X45493000Y-43917000D01*
X45564428Y-43845571D01*
X45564428Y-43988429D01*
X43207285Y-44559857D02*
X42992999Y-44631286D01*
X42921571Y-44702714D01*
X42850142Y-44845571D01*
X42850142Y-45059857D01*
X42921571Y-45202714D01*
X42992999Y-45274143D01*
X43135857Y-45345571D01*
X43707285Y-45345571D01*
X43707285Y-43845571D01*
X43207285Y-43845571D01*
X43064428Y-43917000D01*
X42992999Y-43988429D01*
X42921571Y-44131286D01*
X42921571Y-44274143D01*
X42992999Y-44417000D01*
X43064428Y-44488429D01*
X43207285Y-44559857D01*
X43707285Y-44559857D01*
X41564428Y-45345571D02*
X41564428Y-44559857D01*
X41635857Y-44417000D01*
X41778714Y-44345571D01*
X42064428Y-44345571D01*
X42207285Y-44417000D01*
X41564428Y-45274143D02*
X41707285Y-45345571D01*
X42064428Y-45345571D01*
X42207285Y-45274143D01*
X42278714Y-45131286D01*
X42278714Y-44988429D01*
X42207285Y-44845571D01*
X42064428Y-44774143D01*
X41707285Y-44774143D01*
X41564428Y-44702714D01*
X40850142Y-44345571D02*
X40850142Y-45345571D01*
X40850142Y-44488429D02*
X40778714Y-44417000D01*
X40635856Y-44345571D01*
X40421571Y-44345571D01*
X40278714Y-44417000D01*
X40207285Y-44559857D01*
X40207285Y-45345571D01*
X38850142Y-45345571D02*
X38850142Y-44559857D01*
X38921571Y-44417000D01*
X39064428Y-44345571D01*
X39350142Y-44345571D01*
X39492999Y-44417000D01*
X38850142Y-45274143D02*
X38992999Y-45345571D01*
X39350142Y-45345571D01*
X39492999Y-45274143D01*
X39564428Y-45131286D01*
X39564428Y-44988429D01*
X39492999Y-44845571D01*
X39350142Y-44774143D01*
X38992999Y-44774143D01*
X38850142Y-44702714D01*
X38135856Y-44345571D02*
X38135856Y-45345571D01*
X38135856Y-44488429D02*
X38064428Y-44417000D01*
X37921570Y-44345571D01*
X37707285Y-44345571D01*
X37564428Y-44417000D01*
X37492999Y-44559857D01*
X37492999Y-45345571D01*
X36135856Y-45345571D02*
X36135856Y-44559857D01*
X36207285Y-44417000D01*
X36350142Y-44345571D01*
X36635856Y-44345571D01*
X36778713Y-44417000D01*
X36135856Y-45274143D02*
X36278713Y-45345571D01*
X36635856Y-45345571D01*
X36778713Y-45274143D01*
X36850142Y-45131286D01*
X36850142Y-44988429D01*
X36778713Y-44845571D01*
X36635856Y-44774143D01*
X36278713Y-44774143D01*
X36135856Y-44702714D01*
X34421570Y-44345571D02*
X34064427Y-45345571D01*
X33707285Y-44345571D01*
X32850142Y-43845571D02*
X32707285Y-43845571D01*
X32564428Y-43917000D01*
X32492999Y-43988429D01*
X32421570Y-44131286D01*
X32350142Y-44417000D01*
X32350142Y-44774143D01*
X32421570Y-45059857D01*
X32492999Y-45202714D01*
X32564428Y-45274143D01*
X32707285Y-45345571D01*
X32850142Y-45345571D01*
X32992999Y-45274143D01*
X33064428Y-45202714D01*
X33135856Y-45059857D01*
X33207285Y-44774143D01*
X33207285Y-44417000D01*
X33135856Y-44131286D01*
X33064428Y-43988429D01*
X32992999Y-43917000D01*
X32850142Y-43845571D01*
X31707285Y-45202714D02*
X31635857Y-45274143D01*
X31707285Y-45345571D01*
X31778714Y-45274143D01*
X31707285Y-45202714D01*
X31707285Y-45345571D01*
X30207285Y-45345571D02*
X31064428Y-45345571D01*
X30635856Y-45345571D02*
X30635856Y-43845571D01*
X30778713Y-44059857D01*
X30921571Y-44202714D01*
X31064428Y-44274143D01*
X45385856Y-47895571D02*
X46242999Y-47895571D01*
X45814427Y-47895571D02*
X45814427Y-46395571D01*
X45957284Y-46609857D01*
X46100142Y-46752714D01*
X46242999Y-46824143D01*
X44028713Y-46395571D02*
X44742999Y-46395571D01*
X44814428Y-47109857D01*
X44742999Y-47038429D01*
X44600142Y-46967000D01*
X44242999Y-46967000D01*
X44100142Y-47038429D01*
X44028713Y-47109857D01*
X43957285Y-47252714D01*
X43957285Y-47609857D01*
X44028713Y-47752714D01*
X44100142Y-47824143D01*
X44242999Y-47895571D01*
X44600142Y-47895571D01*
X44742999Y-47824143D01*
X44814428Y-47752714D01*
X42243000Y-46324143D02*
X43528714Y-48252714D01*
X41457285Y-46395571D02*
X41314428Y-46395571D01*
X41171571Y-46467000D01*
X41100142Y-46538429D01*
X41028713Y-46681286D01*
X40957285Y-46967000D01*
X40957285Y-47324143D01*
X41028713Y-47609857D01*
X41100142Y-47752714D01*
X41171571Y-47824143D01*
X41314428Y-47895571D01*
X41457285Y-47895571D01*
X41600142Y-47824143D01*
X41671571Y-47752714D01*
X41742999Y-47609857D01*
X41814428Y-47324143D01*
X41814428Y-46967000D01*
X41742999Y-46681286D01*
X41671571Y-46538429D01*
X41600142Y-46467000D01*
X41457285Y-46395571D01*
X40457285Y-46395571D02*
X39457285Y-46395571D01*
X40100142Y-47895571D01*
X37814429Y-46324143D02*
X39100143Y-48252714D01*
X37385857Y-46538429D02*
X37314428Y-46467000D01*
X37171571Y-46395571D01*
X36814428Y-46395571D01*
X36671571Y-46467000D01*
X36600142Y-46538429D01*
X36528714Y-46681286D01*
X36528714Y-46824143D01*
X36600142Y-47038429D01*
X37457285Y-47895571D01*
X36528714Y-47895571D01*
X35600143Y-46395571D02*
X35457286Y-46395571D01*
X35314429Y-46467000D01*
X35243000Y-46538429D01*
X35171571Y-46681286D01*
X35100143Y-46967000D01*
X35100143Y-47324143D01*
X35171571Y-47609857D01*
X35243000Y-47752714D01*
X35314429Y-47824143D01*
X35457286Y-47895571D01*
X35600143Y-47895571D01*
X35743000Y-47824143D01*
X35814429Y-47752714D01*
X35885857Y-47609857D01*
X35957286Y-47324143D01*
X35957286Y-46967000D01*
X35885857Y-46681286D01*
X35814429Y-46538429D01*
X35743000Y-46467000D01*
X35600143Y-46395571D01*
X33671572Y-47895571D02*
X34528715Y-47895571D01*
X34100143Y-47895571D02*
X34100143Y-46395571D01*
X34243000Y-46609857D01*
X34385858Y-46752714D01*
X34528715Y-46824143D01*
X32814429Y-47038429D02*
X32957287Y-46967000D01*
X33028715Y-46895571D01*
X33100144Y-46752714D01*
X33100144Y-46681286D01*
X33028715Y-46538429D01*
X32957287Y-46467000D01*
X32814429Y-46395571D01*
X32528715Y-46395571D01*
X32385858Y-46467000D01*
X32314429Y-46538429D01*
X32243001Y-46681286D01*
X32243001Y-46752714D01*
X32314429Y-46895571D01*
X32385858Y-46967000D01*
X32528715Y-47038429D01*
X32814429Y-47038429D01*
X32957287Y-47109857D01*
X33028715Y-47181286D01*
X33100144Y-47324143D01*
X33100144Y-47609857D01*
X33028715Y-47752714D01*
X32957287Y-47824143D01*
X32814429Y-47895571D01*
X32528715Y-47895571D01*
X32385858Y-47824143D01*
X32314429Y-47752714D01*
X32243001Y-47609857D01*
X32243001Y-47324143D01*
X32314429Y-47181286D01*
X32385858Y-47109857D01*
X32528715Y-47038429D01*
X50064428Y-50445571D02*
X50064428Y-48945571D01*
X50064428Y-49517000D02*
X49921571Y-49445571D01*
X49635857Y-49445571D01*
X49493000Y-49517000D01*
X49421571Y-49588429D01*
X49350142Y-49731286D01*
X49350142Y-50159857D01*
X49421571Y-50302714D01*
X49493000Y-50374143D01*
X49635857Y-50445571D01*
X49921571Y-50445571D01*
X50064428Y-50374143D01*
X48850142Y-49445571D02*
X48492999Y-50445571D01*
X48135857Y-49445571D02*
X48492999Y-50445571D01*
X48635857Y-50802714D01*
X48707285Y-50874143D01*
X48850142Y-50945571D01*
X45921571Y-49659857D02*
X45707285Y-49731286D01*
X45635857Y-49802714D01*
X45564428Y-49945571D01*
X45564428Y-50159857D01*
X45635857Y-50302714D01*
X45707285Y-50374143D01*
X45850143Y-50445571D01*
X46421571Y-50445571D01*
X46421571Y-48945571D01*
X45921571Y-48945571D01*
X45778714Y-49017000D01*
X45707285Y-49088429D01*
X45635857Y-49231286D01*
X45635857Y-49374143D01*
X45707285Y-49517000D01*
X45778714Y-49588429D01*
X45921571Y-49659857D01*
X46421571Y-49659857D01*
X44278714Y-50445571D02*
X44278714Y-49659857D01*
X44350143Y-49517000D01*
X44493000Y-49445571D01*
X44778714Y-49445571D01*
X44921571Y-49517000D01*
X44278714Y-50374143D02*
X44421571Y-50445571D01*
X44778714Y-50445571D01*
X44921571Y-50374143D01*
X44993000Y-50231286D01*
X44993000Y-50088429D01*
X44921571Y-49945571D01*
X44778714Y-49874143D01*
X44421571Y-49874143D01*
X44278714Y-49802714D01*
X43564428Y-49445571D02*
X43564428Y-50445571D01*
X43564428Y-49588429D02*
X43493000Y-49517000D01*
X43350142Y-49445571D01*
X43135857Y-49445571D01*
X42993000Y-49517000D01*
X42921571Y-49659857D01*
X42921571Y-50445571D01*
X41564428Y-50445571D02*
X41564428Y-49659857D01*
X41635857Y-49517000D01*
X41778714Y-49445571D01*
X42064428Y-49445571D01*
X42207285Y-49517000D01*
X41564428Y-50374143D02*
X41707285Y-50445571D01*
X42064428Y-50445571D01*
X42207285Y-50374143D01*
X42278714Y-50231286D01*
X42278714Y-50088429D01*
X42207285Y-49945571D01*
X42064428Y-49874143D01*
X41707285Y-49874143D01*
X41564428Y-49802714D01*
X40850142Y-49445571D02*
X40850142Y-50445571D01*
X40850142Y-49588429D02*
X40778714Y-49517000D01*
X40635856Y-49445571D01*
X40421571Y-49445571D01*
X40278714Y-49517000D01*
X40207285Y-49659857D01*
X40207285Y-50445571D01*
X38850142Y-50445571D02*
X38850142Y-49659857D01*
X38921571Y-49517000D01*
X39064428Y-49445571D01*
X39350142Y-49445571D01*
X39492999Y-49517000D01*
X38850142Y-50374143D02*
X38992999Y-50445571D01*
X39350142Y-50445571D01*
X39492999Y-50374143D01*
X39564428Y-50231286D01*
X39564428Y-50088429D01*
X39492999Y-49945571D01*
X39350142Y-49874143D01*
X38992999Y-49874143D01*
X38850142Y-49802714D01*
X37492999Y-50374143D02*
X37635856Y-50445571D01*
X37921570Y-50445571D01*
X38064428Y-50374143D01*
X38135856Y-50302714D01*
X38207285Y-50159857D01*
X38207285Y-49731286D01*
X38135856Y-49588429D01*
X38064428Y-49517000D01*
X37921570Y-49445571D01*
X37635856Y-49445571D01*
X37492999Y-49517000D01*
X36635856Y-50445571D02*
X36778714Y-50374143D01*
X36850142Y-50302714D01*
X36921571Y-50159857D01*
X36921571Y-49731286D01*
X36850142Y-49588429D01*
X36778714Y-49517000D01*
X36635856Y-49445571D01*
X36421571Y-49445571D01*
X36278714Y-49517000D01*
X36207285Y-49588429D01*
X36135856Y-49731286D01*
X36135856Y-50159857D01*
X36207285Y-50302714D01*
X36278714Y-50374143D01*
X36421571Y-50445571D01*
X36635856Y-50445571D01*
X34850142Y-50374143D02*
X34992999Y-50445571D01*
X35278713Y-50445571D01*
X35421571Y-50374143D01*
X35492999Y-50302714D01*
X35564428Y-50159857D01*
X35564428Y-49731286D01*
X35492999Y-49588429D01*
X35421571Y-49517000D01*
X35278713Y-49445571D01*
X34992999Y-49445571D01*
X34850142Y-49517000D01*
X33992999Y-50445571D02*
X34135857Y-50374143D01*
X34207285Y-50302714D01*
X34278714Y-50159857D01*
X34278714Y-49731286D01*
X34207285Y-49588429D01*
X34135857Y-49517000D01*
X33992999Y-49445571D01*
X33778714Y-49445571D01*
X33635857Y-49517000D01*
X33564428Y-49588429D01*
X33492999Y-49731286D01*
X33492999Y-50159857D01*
X33564428Y-50302714D01*
X33635857Y-50374143D01*
X33778714Y-50445571D01*
X33992999Y-50445571D01*
X32207285Y-50445571D02*
X32207285Y-48945571D01*
X32207285Y-50374143D02*
X32350142Y-50445571D01*
X32635856Y-50445571D01*
X32778714Y-50374143D01*
X32850142Y-50302714D01*
X32921571Y-50159857D01*
X32921571Y-49731286D01*
X32850142Y-49588429D01*
X32778714Y-49517000D01*
X32635856Y-49445571D01*
X32350142Y-49445571D01*
X32207285Y-49517000D01*
X31492999Y-50445571D02*
X31492999Y-49445571D01*
X31492999Y-49731286D02*
X31421571Y-49588429D01*
X31350142Y-49517000D01*
X31207285Y-49445571D01*
X31064428Y-49445571D01*
X30564428Y-50445571D02*
X30564428Y-49445571D01*
X30564428Y-48945571D02*
X30635857Y-49017000D01*
X30564428Y-49088429D01*
X30493000Y-49017000D01*
X30564428Y-48945571D01*
X30564428Y-49088429D01*
X29635856Y-50445571D02*
X29778714Y-50374143D01*
X29850142Y-50231286D01*
X29850142Y-48945571D01*
X28850142Y-50445571D02*
X28993000Y-50374143D01*
X29064428Y-50302714D01*
X29135857Y-50159857D01*
X29135857Y-49731286D01*
X29064428Y-49588429D01*
X28993000Y-49517000D01*
X28850142Y-49445571D01*
X28635857Y-49445571D01*
X28493000Y-49517000D01*
X28421571Y-49588429D01*
X28350142Y-49731286D01*
X28350142Y-50159857D01*
X28421571Y-50302714D01*
X28493000Y-50374143D01*
X28635857Y-50445571D01*
X28850142Y-50445571D01*
X49350143Y-19845571D02*
X49350143Y-18345571D01*
X48850143Y-19417000D01*
X48350143Y-18345571D01*
X48350143Y-19845571D01*
X47635857Y-19845571D02*
X47635857Y-18845571D01*
X47635857Y-18345571D02*
X47707286Y-18417000D01*
X47635857Y-18488429D01*
X47564429Y-18417000D01*
X47635857Y-18345571D01*
X47635857Y-18488429D01*
X46921571Y-18845571D02*
X46921571Y-19845571D01*
X46921571Y-18988429D02*
X46850143Y-18917000D01*
X46707285Y-18845571D01*
X46493000Y-18845571D01*
X46350143Y-18917000D01*
X46278714Y-19059857D01*
X46278714Y-19845571D01*
X45564428Y-19845571D02*
X45564428Y-18845571D01*
X45564428Y-18345571D02*
X45635857Y-18417000D01*
X45564428Y-18488429D01*
X45493000Y-18417000D01*
X45564428Y-18345571D01*
X45564428Y-18488429D01*
X43207285Y-19059857D02*
X42992999Y-19131286D01*
X42921571Y-19202714D01*
X42850142Y-19345571D01*
X42850142Y-19559857D01*
X42921571Y-19702714D01*
X42992999Y-19774143D01*
X43135857Y-19845571D01*
X43707285Y-19845571D01*
X43707285Y-18345571D01*
X43207285Y-18345571D01*
X43064428Y-18417000D01*
X42992999Y-18488429D01*
X42921571Y-18631286D01*
X42921571Y-18774143D01*
X42992999Y-18917000D01*
X43064428Y-18988429D01*
X43207285Y-19059857D01*
X43707285Y-19059857D01*
X41564428Y-19845571D02*
X41564428Y-19059857D01*
X41635857Y-18917000D01*
X41778714Y-18845571D01*
X42064428Y-18845571D01*
X42207285Y-18917000D01*
X41564428Y-19774143D02*
X41707285Y-19845571D01*
X42064428Y-19845571D01*
X42207285Y-19774143D01*
X42278714Y-19631286D01*
X42278714Y-19488429D01*
X42207285Y-19345571D01*
X42064428Y-19274143D01*
X41707285Y-19274143D01*
X41564428Y-19202714D01*
X40850142Y-18845571D02*
X40850142Y-19845571D01*
X40850142Y-18988429D02*
X40778714Y-18917000D01*
X40635856Y-18845571D01*
X40421571Y-18845571D01*
X40278714Y-18917000D01*
X40207285Y-19059857D01*
X40207285Y-19845571D01*
X38850142Y-19845571D02*
X38850142Y-19059857D01*
X38921571Y-18917000D01*
X39064428Y-18845571D01*
X39350142Y-18845571D01*
X39492999Y-18917000D01*
X38850142Y-19774143D02*
X38992999Y-19845571D01*
X39350142Y-19845571D01*
X39492999Y-19774143D01*
X39564428Y-19631286D01*
X39564428Y-19488429D01*
X39492999Y-19345571D01*
X39350142Y-19274143D01*
X38992999Y-19274143D01*
X38850142Y-19202714D01*
X38135856Y-18845571D02*
X38135856Y-19845571D01*
X38135856Y-18988429D02*
X38064428Y-18917000D01*
X37921570Y-18845571D01*
X37707285Y-18845571D01*
X37564428Y-18917000D01*
X37492999Y-19059857D01*
X37492999Y-19845571D01*
X36135856Y-19845571D02*
X36135856Y-19059857D01*
X36207285Y-18917000D01*
X36350142Y-18845571D01*
X36635856Y-18845571D01*
X36778713Y-18917000D01*
X36135856Y-19774143D02*
X36278713Y-19845571D01*
X36635856Y-19845571D01*
X36778713Y-19774143D01*
X36850142Y-19631286D01*
X36850142Y-19488429D01*
X36778713Y-19345571D01*
X36635856Y-19274143D01*
X36278713Y-19274143D01*
X36135856Y-19202714D01*
X34421570Y-18845571D02*
X34064427Y-19845571D01*
X33707285Y-18845571D01*
X32850142Y-18345571D02*
X32707285Y-18345571D01*
X32564428Y-18417000D01*
X32492999Y-18488429D01*
X32421570Y-18631286D01*
X32350142Y-18917000D01*
X32350142Y-19274143D01*
X32421570Y-19559857D01*
X32492999Y-19702714D01*
X32564428Y-19774143D01*
X32707285Y-19845571D01*
X32850142Y-19845571D01*
X32992999Y-19774143D01*
X33064428Y-19702714D01*
X33135856Y-19559857D01*
X33207285Y-19274143D01*
X33207285Y-18917000D01*
X33135856Y-18631286D01*
X33064428Y-18488429D01*
X32992999Y-18417000D01*
X32850142Y-18345571D01*
X31707285Y-19702714D02*
X31635857Y-19774143D01*
X31707285Y-19845571D01*
X31778714Y-19774143D01*
X31707285Y-19702714D01*
X31707285Y-19845571D01*
X30207285Y-19845571D02*
X31064428Y-19845571D01*
X30635856Y-19845571D02*
X30635856Y-18345571D01*
X30778713Y-18559857D01*
X30921571Y-18702714D01*
X31064428Y-18774143D01*
X45385856Y-22395571D02*
X46242999Y-22395571D01*
X45814427Y-22395571D02*
X45814427Y-20895571D01*
X45957284Y-21109857D01*
X46100142Y-21252714D01*
X46242999Y-21324143D01*
X44028713Y-20895571D02*
X44742999Y-20895571D01*
X44814428Y-21609857D01*
X44742999Y-21538429D01*
X44600142Y-21467000D01*
X44242999Y-21467000D01*
X44100142Y-21538429D01*
X44028713Y-21609857D01*
X43957285Y-21752714D01*
X43957285Y-22109857D01*
X44028713Y-22252714D01*
X44100142Y-22324143D01*
X44242999Y-22395571D01*
X44600142Y-22395571D01*
X44742999Y-22324143D01*
X44814428Y-22252714D01*
X42243000Y-20824143D02*
X43528714Y-22752714D01*
X41457285Y-20895571D02*
X41314428Y-20895571D01*
X41171571Y-20967000D01*
X41100142Y-21038429D01*
X41028713Y-21181286D01*
X40957285Y-21467000D01*
X40957285Y-21824143D01*
X41028713Y-22109857D01*
X41100142Y-22252714D01*
X41171571Y-22324143D01*
X41314428Y-22395571D01*
X41457285Y-22395571D01*
X41600142Y-22324143D01*
X41671571Y-22252714D01*
X41742999Y-22109857D01*
X41814428Y-21824143D01*
X41814428Y-21467000D01*
X41742999Y-21181286D01*
X41671571Y-21038429D01*
X41600142Y-20967000D01*
X41457285Y-20895571D01*
X40457285Y-20895571D02*
X39457285Y-20895571D01*
X40100142Y-22395571D01*
X37814429Y-20824143D02*
X39100143Y-22752714D01*
X37385857Y-21038429D02*
X37314428Y-20967000D01*
X37171571Y-20895571D01*
X36814428Y-20895571D01*
X36671571Y-20967000D01*
X36600142Y-21038429D01*
X36528714Y-21181286D01*
X36528714Y-21324143D01*
X36600142Y-21538429D01*
X37457285Y-22395571D01*
X36528714Y-22395571D01*
X35600143Y-20895571D02*
X35457286Y-20895571D01*
X35314429Y-20967000D01*
X35243000Y-21038429D01*
X35171571Y-21181286D01*
X35100143Y-21467000D01*
X35100143Y-21824143D01*
X35171571Y-22109857D01*
X35243000Y-22252714D01*
X35314429Y-22324143D01*
X35457286Y-22395571D01*
X35600143Y-22395571D01*
X35743000Y-22324143D01*
X35814429Y-22252714D01*
X35885857Y-22109857D01*
X35957286Y-21824143D01*
X35957286Y-21467000D01*
X35885857Y-21181286D01*
X35814429Y-21038429D01*
X35743000Y-20967000D01*
X35600143Y-20895571D01*
X33671572Y-22395571D02*
X34528715Y-22395571D01*
X34100143Y-22395571D02*
X34100143Y-20895571D01*
X34243000Y-21109857D01*
X34385858Y-21252714D01*
X34528715Y-21324143D01*
X32814429Y-21538429D02*
X32957287Y-21467000D01*
X33028715Y-21395571D01*
X33100144Y-21252714D01*
X33100144Y-21181286D01*
X33028715Y-21038429D01*
X32957287Y-20967000D01*
X32814429Y-20895571D01*
X32528715Y-20895571D01*
X32385858Y-20967000D01*
X32314429Y-21038429D01*
X32243001Y-21181286D01*
X32243001Y-21252714D01*
X32314429Y-21395571D01*
X32385858Y-21467000D01*
X32528715Y-21538429D01*
X32814429Y-21538429D01*
X32957287Y-21609857D01*
X33028715Y-21681286D01*
X33100144Y-21824143D01*
X33100144Y-22109857D01*
X33028715Y-22252714D01*
X32957287Y-22324143D01*
X32814429Y-22395571D01*
X32528715Y-22395571D01*
X32385858Y-22324143D01*
X32314429Y-22252714D01*
X32243001Y-22109857D01*
X32243001Y-21824143D01*
X32314429Y-21681286D01*
X32385858Y-21609857D01*
X32528715Y-21538429D01*
X50064428Y-24945571D02*
X50064428Y-23445571D01*
X50064428Y-24017000D02*
X49921571Y-23945571D01*
X49635857Y-23945571D01*
X49493000Y-24017000D01*
X49421571Y-24088429D01*
X49350142Y-24231286D01*
X49350142Y-24659857D01*
X49421571Y-24802714D01*
X49493000Y-24874143D01*
X49635857Y-24945571D01*
X49921571Y-24945571D01*
X50064428Y-24874143D01*
X48850142Y-23945571D02*
X48492999Y-24945571D01*
X48135857Y-23945571D02*
X48492999Y-24945571D01*
X48635857Y-25302714D01*
X48707285Y-25374143D01*
X48850142Y-25445571D01*
X45921571Y-24159857D02*
X45707285Y-24231286D01*
X45635857Y-24302714D01*
X45564428Y-24445571D01*
X45564428Y-24659857D01*
X45635857Y-24802714D01*
X45707285Y-24874143D01*
X45850143Y-24945571D01*
X46421571Y-24945571D01*
X46421571Y-23445571D01*
X45921571Y-23445571D01*
X45778714Y-23517000D01*
X45707285Y-23588429D01*
X45635857Y-23731286D01*
X45635857Y-23874143D01*
X45707285Y-24017000D01*
X45778714Y-24088429D01*
X45921571Y-24159857D01*
X46421571Y-24159857D01*
X44278714Y-24945571D02*
X44278714Y-24159857D01*
X44350143Y-24017000D01*
X44493000Y-23945571D01*
X44778714Y-23945571D01*
X44921571Y-24017000D01*
X44278714Y-24874143D02*
X44421571Y-24945571D01*
X44778714Y-24945571D01*
X44921571Y-24874143D01*
X44993000Y-24731286D01*
X44993000Y-24588429D01*
X44921571Y-24445571D01*
X44778714Y-24374143D01*
X44421571Y-24374143D01*
X44278714Y-24302714D01*
X43564428Y-23945571D02*
X43564428Y-24945571D01*
X43564428Y-24088429D02*
X43493000Y-24017000D01*
X43350142Y-23945571D01*
X43135857Y-23945571D01*
X42993000Y-24017000D01*
X42921571Y-24159857D01*
X42921571Y-24945571D01*
X41564428Y-24945571D02*
X41564428Y-24159857D01*
X41635857Y-24017000D01*
X41778714Y-23945571D01*
X42064428Y-23945571D01*
X42207285Y-24017000D01*
X41564428Y-24874143D02*
X41707285Y-24945571D01*
X42064428Y-24945571D01*
X42207285Y-24874143D01*
X42278714Y-24731286D01*
X42278714Y-24588429D01*
X42207285Y-24445571D01*
X42064428Y-24374143D01*
X41707285Y-24374143D01*
X41564428Y-24302714D01*
X40850142Y-23945571D02*
X40850142Y-24945571D01*
X40850142Y-24088429D02*
X40778714Y-24017000D01*
X40635856Y-23945571D01*
X40421571Y-23945571D01*
X40278714Y-24017000D01*
X40207285Y-24159857D01*
X40207285Y-24945571D01*
X38850142Y-24945571D02*
X38850142Y-24159857D01*
X38921571Y-24017000D01*
X39064428Y-23945571D01*
X39350142Y-23945571D01*
X39492999Y-24017000D01*
X38850142Y-24874143D02*
X38992999Y-24945571D01*
X39350142Y-24945571D01*
X39492999Y-24874143D01*
X39564428Y-24731286D01*
X39564428Y-24588429D01*
X39492999Y-24445571D01*
X39350142Y-24374143D01*
X38992999Y-24374143D01*
X38850142Y-24302714D01*
X37492999Y-24874143D02*
X37635856Y-24945571D01*
X37921570Y-24945571D01*
X38064428Y-24874143D01*
X38135856Y-24802714D01*
X38207285Y-24659857D01*
X38207285Y-24231286D01*
X38135856Y-24088429D01*
X38064428Y-24017000D01*
X37921570Y-23945571D01*
X37635856Y-23945571D01*
X37492999Y-24017000D01*
X36635856Y-24945571D02*
X36778714Y-24874143D01*
X36850142Y-24802714D01*
X36921571Y-24659857D01*
X36921571Y-24231286D01*
X36850142Y-24088429D01*
X36778714Y-24017000D01*
X36635856Y-23945571D01*
X36421571Y-23945571D01*
X36278714Y-24017000D01*
X36207285Y-24088429D01*
X36135856Y-24231286D01*
X36135856Y-24659857D01*
X36207285Y-24802714D01*
X36278714Y-24874143D01*
X36421571Y-24945571D01*
X36635856Y-24945571D01*
X34850142Y-24874143D02*
X34992999Y-24945571D01*
X35278713Y-24945571D01*
X35421571Y-24874143D01*
X35492999Y-24802714D01*
X35564428Y-24659857D01*
X35564428Y-24231286D01*
X35492999Y-24088429D01*
X35421571Y-24017000D01*
X35278713Y-23945571D01*
X34992999Y-23945571D01*
X34850142Y-24017000D01*
X33992999Y-24945571D02*
X34135857Y-24874143D01*
X34207285Y-24802714D01*
X34278714Y-24659857D01*
X34278714Y-24231286D01*
X34207285Y-24088429D01*
X34135857Y-24017000D01*
X33992999Y-23945571D01*
X33778714Y-23945571D01*
X33635857Y-24017000D01*
X33564428Y-24088429D01*
X33492999Y-24231286D01*
X33492999Y-24659857D01*
X33564428Y-24802714D01*
X33635857Y-24874143D01*
X33778714Y-24945571D01*
X33992999Y-24945571D01*
X32207285Y-24945571D02*
X32207285Y-23445571D01*
X32207285Y-24874143D02*
X32350142Y-24945571D01*
X32635856Y-24945571D01*
X32778714Y-24874143D01*
X32850142Y-24802714D01*
X32921571Y-24659857D01*
X32921571Y-24231286D01*
X32850142Y-24088429D01*
X32778714Y-24017000D01*
X32635856Y-23945571D01*
X32350142Y-23945571D01*
X32207285Y-24017000D01*
X31492999Y-24945571D02*
X31492999Y-23945571D01*
X31492999Y-24231286D02*
X31421571Y-24088429D01*
X31350142Y-24017000D01*
X31207285Y-23945571D01*
X31064428Y-23945571D01*
X30564428Y-24945571D02*
X30564428Y-23945571D01*
X30564428Y-23445571D02*
X30635857Y-23517000D01*
X30564428Y-23588429D01*
X30493000Y-23517000D01*
X30564428Y-23445571D01*
X30564428Y-23588429D01*
X29635856Y-24945571D02*
X29778714Y-24874143D01*
X29850142Y-24731286D01*
X29850142Y-23445571D01*
X28850142Y-24945571D02*
X28993000Y-24874143D01*
X29064428Y-24802714D01*
X29135857Y-24659857D01*
X29135857Y-24231286D01*
X29064428Y-24088429D01*
X28993000Y-24017000D01*
X28850142Y-23945571D01*
X28635857Y-23945571D01*
X28493000Y-24017000D01*
X28421571Y-24088429D01*
X28350142Y-24231286D01*
X28350142Y-24659857D01*
X28421571Y-24802714D01*
X28493000Y-24874143D01*
X28635857Y-24945571D01*
X28850142Y-24945571D01*
D12*
X27106000Y-49829000D02*
X27076000Y-49829000D01*
X20646000Y-49829000D02*
X20676000Y-49829000D01*
X20646000Y-56289000D02*
X20676000Y-56289000D01*
X27076000Y-56289000D02*
X27106000Y-56289000D01*
X25176000Y-49829000D02*
X22576000Y-49829000D01*
X27106000Y-56289000D02*
X27106000Y-49829000D01*
X25176000Y-56289000D02*
X22576000Y-56289000D01*
X20646000Y-56289000D02*
X20646000Y-49829000D01*
D13*
X28208000Y-40114000D02*
X28208000Y-57114000D01*
X28208000Y-57114000D02*
X49008000Y-57114000D01*
X49008000Y-57114000D02*
X49008000Y-40214000D01*
X49008000Y-40214000D02*
X49008000Y-40114000D01*
X49008000Y-40114000D02*
X28208000Y-40114000D01*
X28208000Y-14614000D02*
X28208000Y-31614000D01*
X28208000Y-31614000D02*
X49008000Y-31614000D01*
X49008000Y-31614000D02*
X49008000Y-14714000D01*
X49008000Y-14714000D02*
X49008000Y-14614000D01*
X49008000Y-14614000D02*
X28208000Y-14614000D01*
D12*
X27106000Y-24329000D02*
X27076000Y-24329000D01*
X20646000Y-24329000D02*
X20676000Y-24329000D01*
X20646000Y-30789000D02*
X20676000Y-30789000D01*
X27076000Y-30789000D02*
X27106000Y-30789000D01*
X25176000Y-24329000D02*
X22576000Y-24329000D01*
X27106000Y-30789000D02*
X27106000Y-24329000D01*
X25176000Y-30789000D02*
X22576000Y-30789000D01*
X20646000Y-30789000D02*
X20646000Y-24329000D01*
D13*
X28330762Y-48844714D02*
X28378381Y-48987571D01*
X28378381Y-49225667D01*
X28330762Y-49320905D01*
X28283143Y-49368524D01*
X28187905Y-49416143D01*
X28092667Y-49416143D01*
X27997429Y-49368524D01*
X27949810Y-49320905D01*
X27902190Y-49225667D01*
X27854571Y-49035190D01*
X27806952Y-48939952D01*
X27759333Y-48892333D01*
X27664095Y-48844714D01*
X27568857Y-48844714D01*
X27473619Y-48892333D01*
X27426000Y-48939952D01*
X27378381Y-49035190D01*
X27378381Y-49273286D01*
X27426000Y-49416143D01*
X27378381Y-49749476D02*
X28378381Y-49987571D01*
X27664095Y-50178048D01*
X28378381Y-50368524D01*
X27378381Y-50606619D01*
X27997429Y-50987571D02*
X27997429Y-51749476D01*
X28378381Y-52797095D02*
X27902190Y-52463761D01*
X28378381Y-52225666D02*
X27378381Y-52225666D01*
X27378381Y-52606619D01*
X27426000Y-52701857D01*
X27473619Y-52749476D01*
X27568857Y-52797095D01*
X27711714Y-52797095D01*
X27806952Y-52749476D01*
X27854571Y-52701857D01*
X27902190Y-52606619D01*
X27902190Y-52225666D01*
X27854571Y-53225666D02*
X27854571Y-53559000D01*
X28378381Y-53701857D02*
X28378381Y-53225666D01*
X27378381Y-53225666D01*
X27378381Y-53701857D01*
X28330762Y-54082809D02*
X28378381Y-54225666D01*
X28378381Y-54463762D01*
X28330762Y-54559000D01*
X28283143Y-54606619D01*
X28187905Y-54654238D01*
X28092667Y-54654238D01*
X27997429Y-54606619D01*
X27949810Y-54559000D01*
X27902190Y-54463762D01*
X27854571Y-54273285D01*
X27806952Y-54178047D01*
X27759333Y-54130428D01*
X27664095Y-54082809D01*
X27568857Y-54082809D01*
X27473619Y-54130428D01*
X27426000Y-54178047D01*
X27378381Y-54273285D01*
X27378381Y-54511381D01*
X27426000Y-54654238D01*
X27854571Y-55082809D02*
X27854571Y-55416143D01*
X28378381Y-55559000D02*
X28378381Y-55082809D01*
X27378381Y-55082809D01*
X27378381Y-55559000D01*
X27378381Y-55844714D02*
X27378381Y-56416143D01*
X28378381Y-56130428D02*
X27378381Y-56130428D01*
X28378381Y-57273286D02*
X28378381Y-56701857D01*
X28378381Y-56987571D02*
X27378381Y-56987571D01*
X27521238Y-56892333D01*
X27616476Y-56797095D01*
X27664095Y-56701857D01*
X38560381Y-47852095D02*
X39369905Y-47852095D01*
X39465143Y-47899714D01*
X39512762Y-47947333D01*
X39560381Y-48042571D01*
X39560381Y-48233048D01*
X39512762Y-48328286D01*
X39465143Y-48375905D01*
X39369905Y-48423524D01*
X38560381Y-48423524D01*
X38655619Y-48852095D02*
X38608000Y-48899714D01*
X38560381Y-48994952D01*
X38560381Y-49233048D01*
X38608000Y-49328286D01*
X38655619Y-49375905D01*
X38750857Y-49423524D01*
X38846095Y-49423524D01*
X38988952Y-49375905D01*
X39560381Y-48804476D01*
X39560381Y-49423524D01*
X38560381Y-22352095D02*
X39369905Y-22352095D01*
X39465143Y-22399714D01*
X39512762Y-22447333D01*
X39560381Y-22542571D01*
X39560381Y-22733048D01*
X39512762Y-22828286D01*
X39465143Y-22875905D01*
X39369905Y-22923524D01*
X38560381Y-22923524D01*
X38655619Y-23352095D02*
X38608000Y-23399714D01*
X38560381Y-23494952D01*
X38560381Y-23733048D01*
X38608000Y-23828286D01*
X38655619Y-23875905D01*
X38750857Y-23923524D01*
X38846095Y-23923524D01*
X38988952Y-23875905D01*
X39560381Y-23304476D01*
X39560381Y-23923524D01*
X28330762Y-23344714D02*
X28378381Y-23487571D01*
X28378381Y-23725667D01*
X28330762Y-23820905D01*
X28283143Y-23868524D01*
X28187905Y-23916143D01*
X28092667Y-23916143D01*
X27997429Y-23868524D01*
X27949810Y-23820905D01*
X27902190Y-23725667D01*
X27854571Y-23535190D01*
X27806952Y-23439952D01*
X27759333Y-23392333D01*
X27664095Y-23344714D01*
X27568857Y-23344714D01*
X27473619Y-23392333D01*
X27426000Y-23439952D01*
X27378381Y-23535190D01*
X27378381Y-23773286D01*
X27426000Y-23916143D01*
X27378381Y-24249476D02*
X28378381Y-24487571D01*
X27664095Y-24678048D01*
X28378381Y-24868524D01*
X27378381Y-25106619D01*
X27997429Y-25487571D02*
X27997429Y-26249476D01*
X28378381Y-27297095D02*
X27902190Y-26963761D01*
X28378381Y-26725666D02*
X27378381Y-26725666D01*
X27378381Y-27106619D01*
X27426000Y-27201857D01*
X27473619Y-27249476D01*
X27568857Y-27297095D01*
X27711714Y-27297095D01*
X27806952Y-27249476D01*
X27854571Y-27201857D01*
X27902190Y-27106619D01*
X27902190Y-26725666D01*
X27854571Y-27725666D02*
X27854571Y-28059000D01*
X28378381Y-28201857D02*
X28378381Y-27725666D01*
X27378381Y-27725666D01*
X27378381Y-28201857D01*
X28330762Y-28582809D02*
X28378381Y-28725666D01*
X28378381Y-28963762D01*
X28330762Y-29059000D01*
X28283143Y-29106619D01*
X28187905Y-29154238D01*
X28092667Y-29154238D01*
X27997429Y-29106619D01*
X27949810Y-29059000D01*
X27902190Y-28963762D01*
X27854571Y-28773285D01*
X27806952Y-28678047D01*
X27759333Y-28630428D01*
X27664095Y-28582809D01*
X27568857Y-28582809D01*
X27473619Y-28630428D01*
X27426000Y-28678047D01*
X27378381Y-28773285D01*
X27378381Y-29011381D01*
X27426000Y-29154238D01*
X27854571Y-29582809D02*
X27854571Y-29916143D01*
X28378381Y-30059000D02*
X28378381Y-29582809D01*
X27378381Y-29582809D01*
X27378381Y-30059000D01*
X27378381Y-30344714D02*
X27378381Y-30916143D01*
X28378381Y-30630428D02*
X27378381Y-30630428D01*
X28378381Y-31773286D02*
X28378381Y-31201857D01*
X28378381Y-31487571D02*
X27378381Y-31487571D01*
X27521238Y-31392333D01*
X27616476Y-31297095D01*
X27664095Y-31201857D01*
M02*
