G04 #@! TF.FileFunction,Copper,L2,Bot,Signal*
%FSLAX46Y46*%
G04 Gerber Fmt 4.6, Leading zero omitted, Abs format (unit mm)*
G04 Created by KiCad (PCBNEW 4.0.7) date 07/17/18 15:17:27*
%MOMM*%
%LPD*%
G01*
G04 APERTURE LIST*
%ADD10C,0.100000*%
%ADD11R,1.700000X1.700000*%
%ADD12O,1.700000X1.700000*%
%ADD13R,1.300000X1.550000*%
%ADD14C,5.500000*%
%ADD15R,0.900000X1.500000*%
%ADD16R,1.500000X0.900000*%
%ADD17C,0.600000*%
%ADD18C,0.250000*%
%ADD19C,0.254000*%
G04 APERTURE END LIST*
D10*
D11*
X18161000Y-49630000D03*
X60706000Y-48233000D03*
D12*
X60706000Y-50773000D03*
X58166000Y-48233000D03*
X58166000Y-50773000D03*
X55626000Y-48233000D03*
X55626000Y-50773000D03*
X53086000Y-48233000D03*
X53086000Y-50773000D03*
D11*
X18415000Y-45185000D03*
D12*
X18415000Y-42645000D03*
D11*
X53000000Y-60500000D03*
D12*
X50460000Y-60500000D03*
X47920000Y-60500000D03*
X45380000Y-60500000D03*
X42840000Y-60500000D03*
X40300000Y-60500000D03*
X37760000Y-60500000D03*
X35220000Y-60500000D03*
X32680000Y-60500000D03*
X30140000Y-60500000D03*
X27600000Y-60500000D03*
X25060000Y-60500000D03*
X22520000Y-60500000D03*
X19980000Y-60500000D03*
X17440000Y-60500000D03*
X14900000Y-60500000D03*
D13*
X21626000Y-57039000D03*
X26126000Y-57039000D03*
X26126000Y-49079000D03*
X21626000Y-49079000D03*
D14*
X17000000Y-54500000D03*
X60000000Y-41500000D03*
X60000000Y-59500000D03*
D11*
X14605000Y-40105000D03*
D12*
X14605000Y-42645000D03*
X14605000Y-45185000D03*
X14605000Y-47725000D03*
D15*
X33808000Y-40114000D03*
X34908000Y-40114000D03*
X36008000Y-40114000D03*
X37108000Y-40114000D03*
X38208000Y-40114000D03*
X39308000Y-40114000D03*
X40408000Y-40114000D03*
X41508000Y-40114000D03*
X42608000Y-40114000D03*
X43708000Y-40114000D03*
X44808000Y-40114000D03*
X45908000Y-40114000D03*
D16*
X49008000Y-42564000D03*
X49008000Y-43664000D03*
X49008000Y-44764000D03*
X49008000Y-45864000D03*
X49008000Y-46964000D03*
X49008000Y-48064000D03*
X49008000Y-49164000D03*
X49008000Y-50264000D03*
X49008000Y-51364000D03*
X49008000Y-52464000D03*
X49008000Y-53564000D03*
X49008000Y-54664000D03*
D15*
X45908000Y-57114000D03*
X44808000Y-57114000D03*
X43708000Y-57114000D03*
X42608000Y-57114000D03*
X41508000Y-57114000D03*
X40408000Y-57114000D03*
X39308000Y-57114000D03*
X38208000Y-57114000D03*
X37108000Y-57114000D03*
X36008000Y-57114000D03*
X34908000Y-57114000D03*
X33808000Y-57114000D03*
X33808000Y-14614000D03*
X34908000Y-14614000D03*
X36008000Y-14614000D03*
X37108000Y-14614000D03*
X38208000Y-14614000D03*
X39308000Y-14614000D03*
X40408000Y-14614000D03*
X41508000Y-14614000D03*
X42608000Y-14614000D03*
X43708000Y-14614000D03*
X44808000Y-14614000D03*
X45908000Y-14614000D03*
D16*
X49008000Y-17064000D03*
X49008000Y-18164000D03*
X49008000Y-19264000D03*
X49008000Y-20364000D03*
X49008000Y-21464000D03*
X49008000Y-22564000D03*
X49008000Y-23664000D03*
X49008000Y-24764000D03*
X49008000Y-25864000D03*
X49008000Y-26964000D03*
X49008000Y-28064000D03*
X49008000Y-29164000D03*
D15*
X45908000Y-31614000D03*
X44808000Y-31614000D03*
X43708000Y-31614000D03*
X42608000Y-31614000D03*
X41508000Y-31614000D03*
X40408000Y-31614000D03*
X39308000Y-31614000D03*
X38208000Y-31614000D03*
X37108000Y-31614000D03*
X36008000Y-31614000D03*
X34908000Y-31614000D03*
X33808000Y-31614000D03*
D11*
X14605000Y-14605000D03*
D12*
X14605000Y-17145000D03*
X14605000Y-19685000D03*
X14605000Y-22225000D03*
D14*
X60000000Y-34000000D03*
X60000000Y-16000000D03*
X17000000Y-29000000D03*
D13*
X21626000Y-31539000D03*
X26126000Y-31539000D03*
X26126000Y-23579000D03*
X21626000Y-23579000D03*
D11*
X53000000Y-35000000D03*
D12*
X50460000Y-35000000D03*
X47920000Y-35000000D03*
X45380000Y-35000000D03*
X42840000Y-35000000D03*
X40300000Y-35000000D03*
X37760000Y-35000000D03*
X35220000Y-35000000D03*
X32680000Y-35000000D03*
X30140000Y-35000000D03*
X27600000Y-35000000D03*
X25060000Y-35000000D03*
X22520000Y-35000000D03*
X19980000Y-35000000D03*
X17440000Y-35000000D03*
X14900000Y-35000000D03*
D11*
X18415000Y-19685000D03*
D12*
X18415000Y-17145000D03*
D11*
X60706000Y-22733000D03*
D12*
X60706000Y-25273000D03*
X58166000Y-22733000D03*
X58166000Y-25273000D03*
X55626000Y-22733000D03*
X55626000Y-25273000D03*
X53086000Y-22733000D03*
X53086000Y-25273000D03*
D11*
X18161000Y-24130000D03*
D17*
X39500000Y-38500000D03*
X39500000Y-37000000D03*
X40500000Y-38500000D03*
X38500000Y-38500000D03*
X37500000Y-38500000D03*
X40500000Y-37000000D03*
X37500000Y-37000000D03*
X38500000Y-37000000D03*
X44831000Y-40105000D03*
X44831000Y-14605000D03*
X45847000Y-40105000D03*
X46990000Y-51742000D03*
X51054000Y-40105000D03*
X56388000Y-42899000D03*
X31369000Y-50900000D03*
X39243000Y-54075000D03*
X23622000Y-50900000D03*
X23622000Y-25400000D03*
X39243000Y-28575000D03*
X31369000Y-25400000D03*
X56388000Y-17399000D03*
X51054000Y-14605000D03*
X46990000Y-26242000D03*
X45847000Y-14605000D03*
X33782000Y-55472000D03*
X33782000Y-29972000D03*
X54483000Y-43534000D03*
X54483000Y-18034000D03*
X54483000Y-40232000D03*
X54483000Y-14732000D03*
X53213000Y-39978000D03*
X53213000Y-14478000D03*
X34925000Y-42311000D03*
X34925000Y-16811000D03*
X39243000Y-40232000D03*
X39243000Y-14732000D03*
X38227000Y-40105000D03*
X38227000Y-14605000D03*
X37084000Y-40105000D03*
X37084000Y-14605000D03*
X36068000Y-40105000D03*
X36068000Y-14605000D03*
X44958000Y-51742000D03*
X44958000Y-26242000D03*
X49008000Y-49164000D03*
X49008000Y-23664000D03*
D18*
X44822000Y-40114000D02*
X44808000Y-40114000D01*
X44831000Y-40105000D02*
X44822000Y-40114000D01*
X44831000Y-14605000D02*
X44822000Y-14614000D01*
X44822000Y-14614000D02*
X44808000Y-14614000D01*
X45856000Y-40114000D02*
X45908000Y-40114000D01*
X45847000Y-40105000D02*
X45856000Y-40114000D01*
X47000000Y-51732000D02*
X46990000Y-51742000D01*
X47000000Y-51500000D02*
X47000000Y-51732000D01*
X21626000Y-49079000D02*
X21801000Y-49079000D01*
X45908000Y-40114000D02*
X51045000Y-40114000D01*
X51045000Y-40114000D02*
X51054000Y-40105000D01*
X31369000Y-50900000D02*
X36068000Y-50900000D01*
X23622000Y-50900000D02*
X21801000Y-49079000D01*
X39243000Y-54075000D02*
X36068000Y-50900000D01*
X39243000Y-28575000D02*
X36068000Y-25400000D01*
X23622000Y-25400000D02*
X21801000Y-23579000D01*
X31369000Y-25400000D02*
X36068000Y-25400000D01*
X51045000Y-14614000D02*
X51054000Y-14605000D01*
X45908000Y-14614000D02*
X51045000Y-14614000D01*
X21626000Y-23579000D02*
X21801000Y-23579000D01*
X47000000Y-26000000D02*
X47000000Y-26232000D01*
X47000000Y-26232000D02*
X46990000Y-26242000D01*
X45847000Y-14605000D02*
X45856000Y-14614000D01*
X45856000Y-14614000D02*
X45908000Y-14614000D01*
X33791000Y-57114000D02*
X33808000Y-57114000D01*
X33782000Y-55472000D02*
X33808000Y-55498000D01*
X33808000Y-55498000D02*
X33808000Y-57114000D01*
X33808000Y-29998000D02*
X33808000Y-31614000D01*
X33782000Y-29972000D02*
X33808000Y-29998000D01*
X33791000Y-31614000D02*
X33808000Y-31614000D01*
X49008000Y-42631000D02*
X49008000Y-42564000D01*
X49957000Y-42564000D02*
X50927000Y-43534000D01*
X50927000Y-43534000D02*
X54483000Y-43534000D01*
X49008000Y-42564000D02*
X49957000Y-42564000D01*
X49008000Y-17064000D02*
X49957000Y-17064000D01*
X50927000Y-18034000D02*
X54483000Y-18034000D01*
X49957000Y-17064000D02*
X50927000Y-18034000D01*
X49008000Y-17131000D02*
X49008000Y-17064000D01*
X43708000Y-40760000D02*
X44196000Y-41248000D01*
X44196000Y-41248000D02*
X53467000Y-41248000D01*
X53467000Y-41248000D02*
X54483000Y-40232000D01*
X43708000Y-40114000D02*
X43708000Y-40760000D01*
X43708000Y-14614000D02*
X43708000Y-15260000D01*
X53467000Y-15748000D02*
X54483000Y-14732000D01*
X44196000Y-15748000D02*
X53467000Y-15748000D01*
X43708000Y-15260000D02*
X44196000Y-15748000D01*
X42608000Y-39407000D02*
X43053000Y-38962000D01*
X43053000Y-38962000D02*
X52197000Y-38962000D01*
X52197000Y-38962000D02*
X53213000Y-39978000D01*
X42608000Y-40114000D02*
X42608000Y-39407000D01*
X42608000Y-14614000D02*
X42608000Y-13907000D01*
X52197000Y-13462000D02*
X53213000Y-14478000D01*
X43053000Y-13462000D02*
X52197000Y-13462000D01*
X42608000Y-13907000D02*
X43053000Y-13462000D01*
X25745000Y-48825000D02*
X25781000Y-48868000D01*
X24384000Y-47725000D02*
X14605000Y-47725000D01*
X25781000Y-49122000D02*
X24384000Y-47725000D01*
X26126000Y-49534083D02*
X25781000Y-49122000D01*
X38481000Y-47725000D02*
X46101000Y-55345000D01*
X46101000Y-55345000D02*
X47498000Y-55345000D01*
X47498000Y-55345000D02*
X48260000Y-56107000D01*
X48260000Y-56107000D02*
X50419000Y-56107000D01*
X50419000Y-56107000D02*
X50800000Y-55726000D01*
X50800000Y-55726000D02*
X50800000Y-54075000D01*
X50800000Y-54075000D02*
X50289000Y-53564000D01*
X50289000Y-53564000D02*
X49008000Y-53564000D01*
X24384000Y-47725000D02*
X38481000Y-47725000D01*
X26126000Y-57039000D02*
X26126000Y-49079000D01*
X26126000Y-31539000D02*
X26126000Y-23579000D01*
X24384000Y-22225000D02*
X38481000Y-22225000D01*
X50289000Y-28064000D02*
X49008000Y-28064000D01*
X50800000Y-28575000D02*
X50289000Y-28064000D01*
X50800000Y-30226000D02*
X50800000Y-28575000D01*
X50419000Y-30607000D02*
X50800000Y-30226000D01*
X48260000Y-30607000D02*
X50419000Y-30607000D01*
X47498000Y-29845000D02*
X48260000Y-30607000D01*
X46101000Y-29845000D02*
X47498000Y-29845000D01*
X38481000Y-22225000D02*
X46101000Y-29845000D01*
X26126000Y-24034083D02*
X25781000Y-23622000D01*
X25781000Y-23622000D02*
X24384000Y-22225000D01*
X24384000Y-22225000D02*
X14605000Y-22225000D01*
X25745000Y-23325000D02*
X25781000Y-23368000D01*
X34908000Y-42294000D02*
X34925000Y-42311000D01*
X34908000Y-40114000D02*
X34908000Y-42294000D01*
X34908000Y-14614000D02*
X34908000Y-16794000D01*
X34908000Y-16794000D02*
X34925000Y-16811000D01*
X39308000Y-40167000D02*
X39308000Y-40114000D01*
X39243000Y-40232000D02*
X39308000Y-40167000D01*
X39243000Y-14732000D02*
X39308000Y-14667000D01*
X39308000Y-14667000D02*
X39308000Y-14614000D01*
X38218000Y-40114000D02*
X38208000Y-40114000D01*
X38227000Y-40105000D02*
X38218000Y-40114000D01*
X38227000Y-14605000D02*
X38218000Y-14614000D01*
X38218000Y-14614000D02*
X38208000Y-14614000D01*
X37093000Y-40114000D02*
X37108000Y-40114000D01*
X37084000Y-40105000D02*
X37093000Y-40114000D01*
X37084000Y-14605000D02*
X37093000Y-14614000D01*
X37093000Y-14614000D02*
X37108000Y-14614000D01*
X36059000Y-40114000D02*
X36008000Y-40114000D01*
X36068000Y-40105000D02*
X36059000Y-40114000D01*
X36068000Y-14605000D02*
X36059000Y-14614000D01*
X36059000Y-14614000D02*
X36008000Y-14614000D01*
X49902000Y-57114000D02*
X45908000Y-57114000D01*
X53000000Y-60212000D02*
X49902000Y-57114000D01*
X53000000Y-60500000D02*
X53000000Y-60212000D01*
X53000000Y-35000000D02*
X53000000Y-34712000D01*
X53000000Y-34712000D02*
X49902000Y-31614000D01*
X49902000Y-31614000D02*
X45908000Y-31614000D01*
X50460000Y-60500000D02*
X50460000Y-60085000D01*
X48514000Y-58393000D02*
X45212000Y-58393000D01*
X45212000Y-58393000D02*
X44808000Y-57989000D01*
X44808000Y-57989000D02*
X44808000Y-57114000D01*
X50460000Y-60339000D02*
X48514000Y-58393000D01*
X50460000Y-60500000D02*
X50460000Y-60339000D01*
X50460000Y-35000000D02*
X50460000Y-34839000D01*
X50460000Y-34839000D02*
X48514000Y-32893000D01*
X44808000Y-32489000D02*
X44808000Y-31614000D01*
X45212000Y-32893000D02*
X44808000Y-32489000D01*
X48514000Y-32893000D02*
X45212000Y-32893000D01*
X50460000Y-35000000D02*
X50460000Y-34585000D01*
X47920000Y-59069000D02*
X47752000Y-58901000D01*
X47752000Y-58901000D02*
X44323000Y-58901000D01*
X44323000Y-58901000D02*
X43708000Y-58286000D01*
X43708000Y-58286000D02*
X43708000Y-57114000D01*
X47920000Y-60500000D02*
X47920000Y-59069000D01*
X47920000Y-35000000D02*
X47920000Y-33569000D01*
X43708000Y-32786000D02*
X43708000Y-31614000D01*
X44323000Y-33401000D02*
X43708000Y-32786000D01*
X47752000Y-33401000D02*
X44323000Y-33401000D01*
X47920000Y-33569000D02*
X47752000Y-33401000D01*
X42608000Y-58329000D02*
X42608000Y-57114000D01*
X44779000Y-60500000D02*
X42608000Y-58329000D01*
X45380000Y-60500000D02*
X44779000Y-60500000D01*
X45380000Y-35000000D02*
X44779000Y-35000000D01*
X44779000Y-35000000D02*
X42608000Y-32829000D01*
X42608000Y-32829000D02*
X42608000Y-31614000D01*
X41508000Y-58626000D02*
X41508000Y-57114000D01*
X42840000Y-59958000D02*
X41508000Y-58626000D01*
X42840000Y-60500000D02*
X42840000Y-59958000D01*
X42840000Y-35000000D02*
X42840000Y-34458000D01*
X42840000Y-34458000D02*
X41508000Y-33126000D01*
X41508000Y-33126000D02*
X41508000Y-31614000D01*
X40300000Y-57222000D02*
X40408000Y-57114000D01*
X40300000Y-60500000D02*
X40300000Y-57222000D01*
X40300000Y-35000000D02*
X40300000Y-31722000D01*
X40300000Y-31722000D02*
X40408000Y-31614000D01*
X39308000Y-59217000D02*
X39308000Y-57114000D01*
X38025000Y-60500000D02*
X39308000Y-59217000D01*
X37760000Y-60500000D02*
X38025000Y-60500000D01*
X37760000Y-35000000D02*
X38025000Y-35000000D01*
X38025000Y-35000000D02*
X39308000Y-33717000D01*
X39308000Y-33717000D02*
X39308000Y-31614000D01*
X38208000Y-58285000D02*
X38208000Y-57114000D01*
X37592000Y-58901000D02*
X38208000Y-58285000D01*
X37338000Y-58901000D02*
X37592000Y-58901000D01*
X35739000Y-60500000D02*
X37338000Y-58901000D01*
X35220000Y-60500000D02*
X35739000Y-60500000D01*
X35220000Y-35000000D02*
X35739000Y-35000000D01*
X35739000Y-35000000D02*
X37338000Y-33401000D01*
X37338000Y-33401000D02*
X37592000Y-33401000D01*
X37592000Y-33401000D02*
X38208000Y-32785000D01*
X38208000Y-32785000D02*
X38208000Y-31614000D01*
X37108000Y-58369000D02*
X37108000Y-57114000D01*
X36449000Y-59028000D02*
X37108000Y-58369000D01*
X34671000Y-59028000D02*
X36449000Y-59028000D01*
X33199000Y-60500000D02*
X34671000Y-59028000D01*
X32680000Y-60500000D02*
X33199000Y-60500000D01*
X32680000Y-35000000D02*
X33199000Y-35000000D01*
X33199000Y-35000000D02*
X34671000Y-33528000D01*
X34671000Y-33528000D02*
X36449000Y-33528000D01*
X36449000Y-33528000D02*
X37108000Y-32869000D01*
X37108000Y-32869000D02*
X37108000Y-31614000D01*
X36008000Y-58199000D02*
X36008000Y-57114000D01*
X35687000Y-58520000D02*
X36008000Y-58199000D01*
X34417000Y-58520000D02*
X35687000Y-58520000D01*
X33782000Y-59155000D02*
X34417000Y-58520000D01*
X32004000Y-59155000D02*
X33782000Y-59155000D01*
X30659000Y-60500000D02*
X32004000Y-59155000D01*
X30140000Y-60500000D02*
X30659000Y-60500000D01*
X30140000Y-35000000D02*
X30659000Y-35000000D01*
X30659000Y-35000000D02*
X32004000Y-33655000D01*
X32004000Y-33655000D02*
X33782000Y-33655000D01*
X33782000Y-33655000D02*
X34417000Y-33020000D01*
X34417000Y-33020000D02*
X35687000Y-33020000D01*
X35687000Y-33020000D02*
X36008000Y-32699000D01*
X36008000Y-32699000D02*
X36008000Y-31614000D01*
X25060000Y-60500000D02*
X25060000Y-60384000D01*
X25060000Y-60500000D02*
X25071000Y-60500000D01*
X25071000Y-60500000D02*
X31115000Y-54456000D01*
X31115000Y-54456000D02*
X34163000Y-54456000D01*
X34163000Y-54456000D02*
X34908000Y-55201000D01*
X34908000Y-55201000D02*
X34908000Y-57114000D01*
X34908000Y-29701000D02*
X34908000Y-31614000D01*
X34163000Y-28956000D02*
X34908000Y-29701000D01*
X31115000Y-28956000D02*
X34163000Y-28956000D01*
X25071000Y-35000000D02*
X31115000Y-28956000D01*
X25060000Y-35000000D02*
X25071000Y-35000000D01*
X25060000Y-35000000D02*
X25060000Y-34884000D01*
X15875000Y-45185000D02*
X14605000Y-45185000D01*
X17907000Y-47217000D02*
X15875000Y-45185000D01*
X38862000Y-47217000D02*
X17907000Y-47217000D01*
X46101000Y-54456000D02*
X38862000Y-47217000D01*
X48768000Y-54456000D02*
X46101000Y-54456000D01*
X49022000Y-54710000D02*
X48768000Y-54456000D01*
X49008000Y-54664000D02*
X49022000Y-54710000D01*
X49008000Y-29164000D02*
X49022000Y-29210000D01*
X49022000Y-29210000D02*
X48768000Y-28956000D01*
X48768000Y-28956000D02*
X46101000Y-28956000D01*
X46101000Y-28956000D02*
X38862000Y-21717000D01*
X38862000Y-21717000D02*
X17907000Y-21717000D01*
X17907000Y-21717000D02*
X15875000Y-19685000D01*
X15875000Y-19685000D02*
X14605000Y-19685000D01*
X44878000Y-51662000D02*
X44958000Y-51742000D01*
X44878000Y-51662000D02*
X44196000Y-51662000D01*
X44196000Y-51662000D02*
X39243000Y-46709000D01*
X39243000Y-46709000D02*
X19939000Y-46709000D01*
X18415000Y-45185000D02*
X19939000Y-46709000D01*
X18415000Y-19685000D02*
X19939000Y-21209000D01*
X39243000Y-21209000D02*
X19939000Y-21209000D01*
X44196000Y-26162000D02*
X39243000Y-21209000D01*
X44878000Y-26162000D02*
X44196000Y-26162000D01*
X44878000Y-26162000D02*
X44958000Y-26242000D01*
X52577000Y-50264000D02*
X53086000Y-50773000D01*
X49008000Y-50264000D02*
X52577000Y-50264000D01*
X49008000Y-24764000D02*
X52577000Y-24764000D01*
X52577000Y-24764000D02*
X53086000Y-25273000D01*
X52917000Y-48064000D02*
X53086000Y-48233000D01*
X49008000Y-48064000D02*
X52917000Y-48064000D01*
X49008000Y-22564000D02*
X52917000Y-22564000D01*
X52917000Y-22564000D02*
X53086000Y-22733000D01*
X50629000Y-51364000D02*
X51689000Y-52424000D01*
X51689000Y-52424000D02*
X53975000Y-52424000D01*
X53975000Y-52424000D02*
X55626000Y-50773000D01*
X49008000Y-51364000D02*
X50629000Y-51364000D01*
X49008000Y-25864000D02*
X50629000Y-25864000D01*
X53975000Y-26924000D02*
X55626000Y-25273000D01*
X51689000Y-26924000D02*
X53975000Y-26924000D01*
X50629000Y-25864000D02*
X51689000Y-26924000D01*
X60706000Y-46836000D02*
X59817000Y-45947000D01*
X59817000Y-45947000D02*
X51181000Y-45947000D01*
X51181000Y-45947000D02*
X49998000Y-44764000D01*
X49998000Y-44764000D02*
X49008000Y-44764000D01*
X60706000Y-48233000D02*
X60706000Y-46836000D01*
X60706000Y-22733000D02*
X60706000Y-21336000D01*
X49998000Y-19264000D02*
X49008000Y-19264000D01*
X51181000Y-20447000D02*
X49998000Y-19264000D01*
X59817000Y-20447000D02*
X51181000Y-20447000D01*
X60706000Y-21336000D02*
X59817000Y-20447000D01*
X61722000Y-50773000D02*
X62611000Y-49884000D01*
X62611000Y-49884000D02*
X62611000Y-47217000D01*
X62611000Y-47217000D02*
X60833000Y-45439000D01*
X60833000Y-45439000D02*
X51562000Y-45439000D01*
X51562000Y-45439000D02*
X49787000Y-43664000D01*
X49787000Y-43664000D02*
X49008000Y-43664000D01*
X60706000Y-50773000D02*
X61722000Y-50773000D01*
X60706000Y-25273000D02*
X61722000Y-25273000D01*
X49787000Y-18164000D02*
X49008000Y-18164000D01*
X51562000Y-19939000D02*
X49787000Y-18164000D01*
X60833000Y-19939000D02*
X51562000Y-19939000D01*
X62611000Y-21717000D02*
X60833000Y-19939000D01*
X62611000Y-24384000D02*
X62611000Y-21717000D01*
X61722000Y-25273000D02*
X62611000Y-24384000D01*
X50336000Y-45864000D02*
X50971000Y-46499000D01*
X50971000Y-46499000D02*
X53072000Y-46499000D01*
X58166000Y-46836000D02*
X58166000Y-48233000D01*
X57829000Y-46499000D02*
X53072000Y-46499000D01*
X58166000Y-46836000D02*
X57829000Y-46499000D01*
X49008000Y-45864000D02*
X50336000Y-45864000D01*
X49008000Y-20364000D02*
X50336000Y-20364000D01*
X58166000Y-21336000D02*
X57829000Y-20999000D01*
X57829000Y-20999000D02*
X53072000Y-20999000D01*
X58166000Y-21336000D02*
X58166000Y-22733000D01*
X50971000Y-20999000D02*
X53072000Y-20999000D01*
X50336000Y-20364000D02*
X50971000Y-20999000D01*
X50459000Y-52464000D02*
X51181000Y-53186000D01*
X51181000Y-53186000D02*
X55753000Y-53186000D01*
X55753000Y-53186000D02*
X58166000Y-50773000D01*
X49008000Y-52464000D02*
X50459000Y-52464000D01*
X49008000Y-26964000D02*
X50459000Y-26964000D01*
X55753000Y-27686000D02*
X58166000Y-25273000D01*
X51181000Y-27686000D02*
X55753000Y-27686000D01*
X50459000Y-26964000D02*
X51181000Y-27686000D01*
X54611000Y-46964000D02*
X49008000Y-46964000D01*
X55626000Y-47979000D02*
X54611000Y-46964000D01*
X55626000Y-48233000D02*
X55626000Y-47979000D01*
X55626000Y-22733000D02*
X55626000Y-22479000D01*
X55626000Y-22479000D02*
X54611000Y-21464000D01*
X54611000Y-21464000D02*
X49008000Y-21464000D01*
D19*
G36*
X13203946Y-22793285D02*
X13525853Y-23275054D01*
X14007622Y-23596961D01*
X14575907Y-23710000D01*
X14634093Y-23710000D01*
X15202378Y-23596961D01*
X15684147Y-23275054D01*
X15877954Y-22985000D01*
X16744025Y-22985000D01*
X16714569Y-23028110D01*
X16663560Y-23280000D01*
X16663560Y-24980000D01*
X16707838Y-25215317D01*
X16846910Y-25431441D01*
X17059110Y-25576431D01*
X17250644Y-25615218D01*
X16329636Y-25614414D01*
X15085057Y-26128663D01*
X14132010Y-27080048D01*
X13615589Y-28323728D01*
X13614414Y-29670364D01*
X14128663Y-30914943D01*
X15080048Y-31867990D01*
X16323728Y-32384411D01*
X17670364Y-32385586D01*
X18914943Y-31871337D01*
X18961611Y-31824750D01*
X20341000Y-31824750D01*
X20341000Y-32440309D01*
X20437673Y-32673698D01*
X20616301Y-32852327D01*
X20849690Y-32949000D01*
X21340250Y-32949000D01*
X21499000Y-32790250D01*
X21499000Y-31666000D01*
X21753000Y-31666000D01*
X21753000Y-32790250D01*
X21911750Y-32949000D01*
X22402310Y-32949000D01*
X22635699Y-32852327D01*
X22814327Y-32673698D01*
X22911000Y-32440309D01*
X22911000Y-31824750D01*
X22752250Y-31666000D01*
X21753000Y-31666000D01*
X21499000Y-31666000D01*
X20499750Y-31666000D01*
X20341000Y-31824750D01*
X18961611Y-31824750D01*
X19867990Y-30919952D01*
X19985194Y-30637691D01*
X20341000Y-30637691D01*
X20341000Y-31253250D01*
X20499750Y-31412000D01*
X21499000Y-31412000D01*
X21499000Y-30287750D01*
X21753000Y-30287750D01*
X21753000Y-31412000D01*
X22752250Y-31412000D01*
X22911000Y-31253250D01*
X22911000Y-30637691D01*
X22814327Y-30404302D01*
X22635699Y-30225673D01*
X22402310Y-30129000D01*
X21911750Y-30129000D01*
X21753000Y-30287750D01*
X21499000Y-30287750D01*
X21340250Y-30129000D01*
X20849690Y-30129000D01*
X20616301Y-30225673D01*
X20437673Y-30404302D01*
X20341000Y-30637691D01*
X19985194Y-30637691D01*
X20384411Y-29676272D01*
X20385586Y-28329636D01*
X19871337Y-27085057D01*
X18919952Y-26132010D01*
X17704812Y-25627440D01*
X19011000Y-25627440D01*
X19246317Y-25583162D01*
X19462441Y-25444090D01*
X19607431Y-25231890D01*
X19658440Y-24980000D01*
X19658440Y-23864750D01*
X20341000Y-23864750D01*
X20341000Y-24480309D01*
X20437673Y-24713698D01*
X20616301Y-24892327D01*
X20849690Y-24989000D01*
X21340250Y-24989000D01*
X21499000Y-24830250D01*
X21499000Y-23706000D01*
X21753000Y-23706000D01*
X21753000Y-24830250D01*
X21911750Y-24989000D01*
X22402310Y-24989000D01*
X22635699Y-24892327D01*
X22814327Y-24713698D01*
X22911000Y-24480309D01*
X22911000Y-23864750D01*
X22752250Y-23706000D01*
X21753000Y-23706000D01*
X21499000Y-23706000D01*
X20499750Y-23706000D01*
X20341000Y-23864750D01*
X19658440Y-23864750D01*
X19658440Y-23280000D01*
X19614162Y-23044683D01*
X19575757Y-22985000D01*
X20341000Y-22985000D01*
X20341000Y-23293250D01*
X20499750Y-23452000D01*
X21499000Y-23452000D01*
X21499000Y-23432000D01*
X21753000Y-23432000D01*
X21753000Y-23452000D01*
X22752250Y-23452000D01*
X22911000Y-23293250D01*
X22911000Y-22985000D01*
X24069198Y-22985000D01*
X24828560Y-23744362D01*
X24828560Y-24354000D01*
X24872838Y-24589317D01*
X25011910Y-24805441D01*
X25224110Y-24950431D01*
X25366000Y-24979164D01*
X25366000Y-30137258D01*
X25240683Y-30160838D01*
X25024559Y-30299910D01*
X24879569Y-30512110D01*
X24828560Y-30764000D01*
X24828560Y-32314000D01*
X24872838Y-32549317D01*
X25011910Y-32765441D01*
X25224110Y-32910431D01*
X25476000Y-32961440D01*
X26034758Y-32961440D01*
X25435583Y-33560615D01*
X25060000Y-33485907D01*
X24491715Y-33598946D01*
X24009946Y-33920853D01*
X23790000Y-34250026D01*
X23570054Y-33920853D01*
X23088285Y-33598946D01*
X22520000Y-33485907D01*
X21951715Y-33598946D01*
X21469946Y-33920853D01*
X21250000Y-34250026D01*
X21030054Y-33920853D01*
X20548285Y-33598946D01*
X19980000Y-33485907D01*
X19411715Y-33598946D01*
X18929946Y-33920853D01*
X18710000Y-34250026D01*
X18490054Y-33920853D01*
X18008285Y-33598946D01*
X17440000Y-33485907D01*
X16871715Y-33598946D01*
X16389946Y-33920853D01*
X16170000Y-34250026D01*
X15950054Y-33920853D01*
X15468285Y-33598946D01*
X14900000Y-33485907D01*
X14331715Y-33598946D01*
X13849946Y-33920853D01*
X13528039Y-34402622D01*
X13415000Y-34970907D01*
X13415000Y-35029093D01*
X13528039Y-35597378D01*
X13849946Y-36079147D01*
X14331715Y-36401054D01*
X14900000Y-36514093D01*
X15468285Y-36401054D01*
X15950054Y-36079147D01*
X16170000Y-35749974D01*
X16389946Y-36079147D01*
X16871715Y-36401054D01*
X17440000Y-36514093D01*
X18008285Y-36401054D01*
X18490054Y-36079147D01*
X18710000Y-35749974D01*
X18929946Y-36079147D01*
X19411715Y-36401054D01*
X19980000Y-36514093D01*
X20548285Y-36401054D01*
X21030054Y-36079147D01*
X21250000Y-35749974D01*
X21469946Y-36079147D01*
X21951715Y-36401054D01*
X22520000Y-36514093D01*
X23088285Y-36401054D01*
X23570054Y-36079147D01*
X23790000Y-35749974D01*
X24009946Y-36079147D01*
X24491715Y-36401054D01*
X25060000Y-36514093D01*
X25628285Y-36401054D01*
X26110054Y-36079147D01*
X26330000Y-35749974D01*
X26549946Y-36079147D01*
X27031715Y-36401054D01*
X27600000Y-36514093D01*
X28168285Y-36401054D01*
X28650054Y-36079147D01*
X28870000Y-35749974D01*
X29089946Y-36079147D01*
X29571715Y-36401054D01*
X30140000Y-36514093D01*
X30708285Y-36401054D01*
X31190054Y-36079147D01*
X31410000Y-35749974D01*
X31629946Y-36079147D01*
X32111715Y-36401054D01*
X32680000Y-36514093D01*
X33248285Y-36401054D01*
X33730054Y-36079147D01*
X33950000Y-35749974D01*
X34169946Y-36079147D01*
X34651715Y-36401054D01*
X35220000Y-36514093D01*
X35788285Y-36401054D01*
X36270054Y-36079147D01*
X36490000Y-35749974D01*
X36709946Y-36079147D01*
X37191715Y-36401054D01*
X37760000Y-36514093D01*
X38328285Y-36401054D01*
X38810054Y-36079147D01*
X39030000Y-35749974D01*
X39249946Y-36079147D01*
X39731715Y-36401054D01*
X40300000Y-36514093D01*
X40868285Y-36401054D01*
X41350054Y-36079147D01*
X41570000Y-35749974D01*
X41789946Y-36079147D01*
X42271715Y-36401054D01*
X42840000Y-36514093D01*
X43408285Y-36401054D01*
X43890054Y-36079147D01*
X44110000Y-35749974D01*
X44329946Y-36079147D01*
X44811715Y-36401054D01*
X45380000Y-36514093D01*
X45948285Y-36401054D01*
X46430054Y-36079147D01*
X46650000Y-35749974D01*
X46869946Y-36079147D01*
X47351715Y-36401054D01*
X47920000Y-36514093D01*
X48488285Y-36401054D01*
X48970054Y-36079147D01*
X49190000Y-35749974D01*
X49409946Y-36079147D01*
X49891715Y-36401054D01*
X50460000Y-36514093D01*
X51028285Y-36401054D01*
X51510054Y-36079147D01*
X51537850Y-36037548D01*
X51546838Y-36085317D01*
X51685910Y-36301441D01*
X51898110Y-36446431D01*
X52150000Y-36497440D01*
X53850000Y-36497440D01*
X54085317Y-36453162D01*
X54301441Y-36314090D01*
X54446431Y-36101890D01*
X54497440Y-35850000D01*
X54497440Y-34150000D01*
X54453162Y-33914683D01*
X54314090Y-33698559D01*
X54101890Y-33553569D01*
X53850000Y-33502560D01*
X52865362Y-33502560D01*
X50678236Y-31315434D01*
X50709839Y-31309148D01*
X50956401Y-31144401D01*
X51337401Y-30763401D01*
X51502148Y-30516840D01*
X51560000Y-30226000D01*
X51560000Y-28575000D01*
X51534340Y-28446000D01*
X55753000Y-28446000D01*
X56043839Y-28388148D01*
X56290401Y-28223401D01*
X57799592Y-26714210D01*
X58166000Y-26787093D01*
X58734285Y-26674054D01*
X59216054Y-26352147D01*
X59436000Y-26022974D01*
X59655946Y-26352147D01*
X60137715Y-26674054D01*
X60706000Y-26787093D01*
X61274285Y-26674054D01*
X61756054Y-26352147D01*
X62007208Y-25976268D01*
X62012839Y-25975148D01*
X62259401Y-25810401D01*
X62873000Y-25196802D01*
X62873000Y-32089082D01*
X62871337Y-32085057D01*
X61919952Y-31132010D01*
X60676272Y-30615589D01*
X59329636Y-30614414D01*
X58085057Y-31128663D01*
X57132010Y-32080048D01*
X56615589Y-33323728D01*
X56614414Y-34670364D01*
X57128663Y-35914943D01*
X58080048Y-36867990D01*
X58092113Y-36873000D01*
X13127000Y-36873000D01*
X13127000Y-22406452D01*
X13203946Y-22793285D01*
X13203946Y-22793285D01*
G37*
X13203946Y-22793285D02*
X13525853Y-23275054D01*
X14007622Y-23596961D01*
X14575907Y-23710000D01*
X14634093Y-23710000D01*
X15202378Y-23596961D01*
X15684147Y-23275054D01*
X15877954Y-22985000D01*
X16744025Y-22985000D01*
X16714569Y-23028110D01*
X16663560Y-23280000D01*
X16663560Y-24980000D01*
X16707838Y-25215317D01*
X16846910Y-25431441D01*
X17059110Y-25576431D01*
X17250644Y-25615218D01*
X16329636Y-25614414D01*
X15085057Y-26128663D01*
X14132010Y-27080048D01*
X13615589Y-28323728D01*
X13614414Y-29670364D01*
X14128663Y-30914943D01*
X15080048Y-31867990D01*
X16323728Y-32384411D01*
X17670364Y-32385586D01*
X18914943Y-31871337D01*
X18961611Y-31824750D01*
X20341000Y-31824750D01*
X20341000Y-32440309D01*
X20437673Y-32673698D01*
X20616301Y-32852327D01*
X20849690Y-32949000D01*
X21340250Y-32949000D01*
X21499000Y-32790250D01*
X21499000Y-31666000D01*
X21753000Y-31666000D01*
X21753000Y-32790250D01*
X21911750Y-32949000D01*
X22402310Y-32949000D01*
X22635699Y-32852327D01*
X22814327Y-32673698D01*
X22911000Y-32440309D01*
X22911000Y-31824750D01*
X22752250Y-31666000D01*
X21753000Y-31666000D01*
X21499000Y-31666000D01*
X20499750Y-31666000D01*
X20341000Y-31824750D01*
X18961611Y-31824750D01*
X19867990Y-30919952D01*
X19985194Y-30637691D01*
X20341000Y-30637691D01*
X20341000Y-31253250D01*
X20499750Y-31412000D01*
X21499000Y-31412000D01*
X21499000Y-30287750D01*
X21753000Y-30287750D01*
X21753000Y-31412000D01*
X22752250Y-31412000D01*
X22911000Y-31253250D01*
X22911000Y-30637691D01*
X22814327Y-30404302D01*
X22635699Y-30225673D01*
X22402310Y-30129000D01*
X21911750Y-30129000D01*
X21753000Y-30287750D01*
X21499000Y-30287750D01*
X21340250Y-30129000D01*
X20849690Y-30129000D01*
X20616301Y-30225673D01*
X20437673Y-30404302D01*
X20341000Y-30637691D01*
X19985194Y-30637691D01*
X20384411Y-29676272D01*
X20385586Y-28329636D01*
X19871337Y-27085057D01*
X18919952Y-26132010D01*
X17704812Y-25627440D01*
X19011000Y-25627440D01*
X19246317Y-25583162D01*
X19462441Y-25444090D01*
X19607431Y-25231890D01*
X19658440Y-24980000D01*
X19658440Y-23864750D01*
X20341000Y-23864750D01*
X20341000Y-24480309D01*
X20437673Y-24713698D01*
X20616301Y-24892327D01*
X20849690Y-24989000D01*
X21340250Y-24989000D01*
X21499000Y-24830250D01*
X21499000Y-23706000D01*
X21753000Y-23706000D01*
X21753000Y-24830250D01*
X21911750Y-24989000D01*
X22402310Y-24989000D01*
X22635699Y-24892327D01*
X22814327Y-24713698D01*
X22911000Y-24480309D01*
X22911000Y-23864750D01*
X22752250Y-23706000D01*
X21753000Y-23706000D01*
X21499000Y-23706000D01*
X20499750Y-23706000D01*
X20341000Y-23864750D01*
X19658440Y-23864750D01*
X19658440Y-23280000D01*
X19614162Y-23044683D01*
X19575757Y-22985000D01*
X20341000Y-22985000D01*
X20341000Y-23293250D01*
X20499750Y-23452000D01*
X21499000Y-23452000D01*
X21499000Y-23432000D01*
X21753000Y-23432000D01*
X21753000Y-23452000D01*
X22752250Y-23452000D01*
X22911000Y-23293250D01*
X22911000Y-22985000D01*
X24069198Y-22985000D01*
X24828560Y-23744362D01*
X24828560Y-24354000D01*
X24872838Y-24589317D01*
X25011910Y-24805441D01*
X25224110Y-24950431D01*
X25366000Y-24979164D01*
X25366000Y-30137258D01*
X25240683Y-30160838D01*
X25024559Y-30299910D01*
X24879569Y-30512110D01*
X24828560Y-30764000D01*
X24828560Y-32314000D01*
X24872838Y-32549317D01*
X25011910Y-32765441D01*
X25224110Y-32910431D01*
X25476000Y-32961440D01*
X26034758Y-32961440D01*
X25435583Y-33560615D01*
X25060000Y-33485907D01*
X24491715Y-33598946D01*
X24009946Y-33920853D01*
X23790000Y-34250026D01*
X23570054Y-33920853D01*
X23088285Y-33598946D01*
X22520000Y-33485907D01*
X21951715Y-33598946D01*
X21469946Y-33920853D01*
X21250000Y-34250026D01*
X21030054Y-33920853D01*
X20548285Y-33598946D01*
X19980000Y-33485907D01*
X19411715Y-33598946D01*
X18929946Y-33920853D01*
X18710000Y-34250026D01*
X18490054Y-33920853D01*
X18008285Y-33598946D01*
X17440000Y-33485907D01*
X16871715Y-33598946D01*
X16389946Y-33920853D01*
X16170000Y-34250026D01*
X15950054Y-33920853D01*
X15468285Y-33598946D01*
X14900000Y-33485907D01*
X14331715Y-33598946D01*
X13849946Y-33920853D01*
X13528039Y-34402622D01*
X13415000Y-34970907D01*
X13415000Y-35029093D01*
X13528039Y-35597378D01*
X13849946Y-36079147D01*
X14331715Y-36401054D01*
X14900000Y-36514093D01*
X15468285Y-36401054D01*
X15950054Y-36079147D01*
X16170000Y-35749974D01*
X16389946Y-36079147D01*
X16871715Y-36401054D01*
X17440000Y-36514093D01*
X18008285Y-36401054D01*
X18490054Y-36079147D01*
X18710000Y-35749974D01*
X18929946Y-36079147D01*
X19411715Y-36401054D01*
X19980000Y-36514093D01*
X20548285Y-36401054D01*
X21030054Y-36079147D01*
X21250000Y-35749974D01*
X21469946Y-36079147D01*
X21951715Y-36401054D01*
X22520000Y-36514093D01*
X23088285Y-36401054D01*
X23570054Y-36079147D01*
X23790000Y-35749974D01*
X24009946Y-36079147D01*
X24491715Y-36401054D01*
X25060000Y-36514093D01*
X25628285Y-36401054D01*
X26110054Y-36079147D01*
X26330000Y-35749974D01*
X26549946Y-36079147D01*
X27031715Y-36401054D01*
X27600000Y-36514093D01*
X28168285Y-36401054D01*
X28650054Y-36079147D01*
X28870000Y-35749974D01*
X29089946Y-36079147D01*
X29571715Y-36401054D01*
X30140000Y-36514093D01*
X30708285Y-36401054D01*
X31190054Y-36079147D01*
X31410000Y-35749974D01*
X31629946Y-36079147D01*
X32111715Y-36401054D01*
X32680000Y-36514093D01*
X33248285Y-36401054D01*
X33730054Y-36079147D01*
X33950000Y-35749974D01*
X34169946Y-36079147D01*
X34651715Y-36401054D01*
X35220000Y-36514093D01*
X35788285Y-36401054D01*
X36270054Y-36079147D01*
X36490000Y-35749974D01*
X36709946Y-36079147D01*
X37191715Y-36401054D01*
X37760000Y-36514093D01*
X38328285Y-36401054D01*
X38810054Y-36079147D01*
X39030000Y-35749974D01*
X39249946Y-36079147D01*
X39731715Y-36401054D01*
X40300000Y-36514093D01*
X40868285Y-36401054D01*
X41350054Y-36079147D01*
X41570000Y-35749974D01*
X41789946Y-36079147D01*
X42271715Y-36401054D01*
X42840000Y-36514093D01*
X43408285Y-36401054D01*
X43890054Y-36079147D01*
X44110000Y-35749974D01*
X44329946Y-36079147D01*
X44811715Y-36401054D01*
X45380000Y-36514093D01*
X45948285Y-36401054D01*
X46430054Y-36079147D01*
X46650000Y-35749974D01*
X46869946Y-36079147D01*
X47351715Y-36401054D01*
X47920000Y-36514093D01*
X48488285Y-36401054D01*
X48970054Y-36079147D01*
X49190000Y-35749974D01*
X49409946Y-36079147D01*
X49891715Y-36401054D01*
X50460000Y-36514093D01*
X51028285Y-36401054D01*
X51510054Y-36079147D01*
X51537850Y-36037548D01*
X51546838Y-36085317D01*
X51685910Y-36301441D01*
X51898110Y-36446431D01*
X52150000Y-36497440D01*
X53850000Y-36497440D01*
X54085317Y-36453162D01*
X54301441Y-36314090D01*
X54446431Y-36101890D01*
X54497440Y-35850000D01*
X54497440Y-34150000D01*
X54453162Y-33914683D01*
X54314090Y-33698559D01*
X54101890Y-33553569D01*
X53850000Y-33502560D01*
X52865362Y-33502560D01*
X50678236Y-31315434D01*
X50709839Y-31309148D01*
X50956401Y-31144401D01*
X51337401Y-30763401D01*
X51502148Y-30516840D01*
X51560000Y-30226000D01*
X51560000Y-28575000D01*
X51534340Y-28446000D01*
X55753000Y-28446000D01*
X56043839Y-28388148D01*
X56290401Y-28223401D01*
X57799592Y-26714210D01*
X58166000Y-26787093D01*
X58734285Y-26674054D01*
X59216054Y-26352147D01*
X59436000Y-26022974D01*
X59655946Y-26352147D01*
X60137715Y-26674054D01*
X60706000Y-26787093D01*
X61274285Y-26674054D01*
X61756054Y-26352147D01*
X62007208Y-25976268D01*
X62012839Y-25975148D01*
X62259401Y-25810401D01*
X62873000Y-25196802D01*
X62873000Y-32089082D01*
X62871337Y-32085057D01*
X61919952Y-31132010D01*
X60676272Y-30615589D01*
X59329636Y-30614414D01*
X58085057Y-31128663D01*
X57132010Y-32080048D01*
X56615589Y-33323728D01*
X56614414Y-34670364D01*
X57128663Y-35914943D01*
X58080048Y-36867990D01*
X58092113Y-36873000D01*
X13127000Y-36873000D01*
X13127000Y-22406452D01*
X13203946Y-22793285D01*
G36*
X45407298Y-30226100D02*
X45354329Y-30236067D01*
X45258000Y-30216560D01*
X44358000Y-30216560D01*
X44254329Y-30236067D01*
X44158000Y-30216560D01*
X43258000Y-30216560D01*
X43154329Y-30236067D01*
X43058000Y-30216560D01*
X42158000Y-30216560D01*
X42054329Y-30236067D01*
X41958000Y-30216560D01*
X41058000Y-30216560D01*
X40954329Y-30236067D01*
X40858000Y-30216560D01*
X39958000Y-30216560D01*
X39854329Y-30236067D01*
X39758000Y-30216560D01*
X38858000Y-30216560D01*
X38754329Y-30236067D01*
X38658000Y-30216560D01*
X37758000Y-30216560D01*
X37654329Y-30236067D01*
X37558000Y-30216560D01*
X36658000Y-30216560D01*
X36554329Y-30236067D01*
X36458000Y-30216560D01*
X35668000Y-30216560D01*
X35668000Y-29701000D01*
X35610148Y-29410161D01*
X35445401Y-29163599D01*
X34700401Y-28418599D01*
X34453839Y-28253852D01*
X34163000Y-28196000D01*
X31115000Y-28196000D01*
X30824161Y-28253852D01*
X30577599Y-28418599D01*
X27423440Y-31572758D01*
X27423440Y-30764000D01*
X27379162Y-30528683D01*
X27240090Y-30312559D01*
X27027890Y-30167569D01*
X26886000Y-30138836D01*
X26886000Y-24980742D01*
X27011317Y-24957162D01*
X27227441Y-24818090D01*
X27372431Y-24605890D01*
X27423440Y-24354000D01*
X27423440Y-22985000D01*
X38166198Y-22985000D01*
X45407298Y-30226100D01*
X45407298Y-30226100D01*
G37*
X45407298Y-30226100D02*
X45354329Y-30236067D01*
X45258000Y-30216560D01*
X44358000Y-30216560D01*
X44254329Y-30236067D01*
X44158000Y-30216560D01*
X43258000Y-30216560D01*
X43154329Y-30236067D01*
X43058000Y-30216560D01*
X42158000Y-30216560D01*
X42054329Y-30236067D01*
X41958000Y-30216560D01*
X41058000Y-30216560D01*
X40954329Y-30236067D01*
X40858000Y-30216560D01*
X39958000Y-30216560D01*
X39854329Y-30236067D01*
X39758000Y-30216560D01*
X38858000Y-30216560D01*
X38754329Y-30236067D01*
X38658000Y-30216560D01*
X37758000Y-30216560D01*
X37654329Y-30236067D01*
X37558000Y-30216560D01*
X36658000Y-30216560D01*
X36554329Y-30236067D01*
X36458000Y-30216560D01*
X35668000Y-30216560D01*
X35668000Y-29701000D01*
X35610148Y-29410161D01*
X35445401Y-29163599D01*
X34700401Y-28418599D01*
X34453839Y-28253852D01*
X34163000Y-28196000D01*
X31115000Y-28196000D01*
X30824161Y-28253852D01*
X30577599Y-28418599D01*
X27423440Y-31572758D01*
X27423440Y-30764000D01*
X27379162Y-30528683D01*
X27240090Y-30312559D01*
X27027890Y-30167569D01*
X26886000Y-30138836D01*
X26886000Y-24980742D01*
X27011317Y-24957162D01*
X27227441Y-24818090D01*
X27372431Y-24605890D01*
X27423440Y-24354000D01*
X27423440Y-22985000D01*
X38166198Y-22985000D01*
X45407298Y-30226100D01*
G36*
X42223638Y-13216560D02*
X42158000Y-13216560D01*
X42054329Y-13236067D01*
X41958000Y-13216560D01*
X41058000Y-13216560D01*
X40954329Y-13236067D01*
X40858000Y-13216560D01*
X39958000Y-13216560D01*
X39854329Y-13236067D01*
X39758000Y-13216560D01*
X38858000Y-13216560D01*
X38754329Y-13236067D01*
X38658000Y-13216560D01*
X37758000Y-13216560D01*
X37654329Y-13236067D01*
X37558000Y-13216560D01*
X36658000Y-13216560D01*
X36554329Y-13236067D01*
X36458000Y-13216560D01*
X35558000Y-13216560D01*
X35454329Y-13236067D01*
X35358000Y-13216560D01*
X34458000Y-13216560D01*
X34386677Y-13229980D01*
X34384310Y-13229000D01*
X34093750Y-13229000D01*
X33935000Y-13387750D01*
X33935000Y-13504640D01*
X33861569Y-13612110D01*
X33810560Y-13864000D01*
X33810560Y-15364000D01*
X33854838Y-15599317D01*
X33935000Y-15723892D01*
X33935000Y-15840250D01*
X34093750Y-15999000D01*
X34148000Y-15999000D01*
X34148000Y-16265507D01*
X34132808Y-16280673D01*
X33990162Y-16624201D01*
X33989838Y-16996167D01*
X34131883Y-17339943D01*
X34394673Y-17603192D01*
X34738201Y-17745838D01*
X35110167Y-17746162D01*
X35453943Y-17604117D01*
X35717192Y-17341327D01*
X35859838Y-16997799D01*
X35860162Y-16625833D01*
X35718117Y-16282057D01*
X35668000Y-16231852D01*
X35668000Y-16011440D01*
X36458000Y-16011440D01*
X36561671Y-15991933D01*
X36658000Y-16011440D01*
X37558000Y-16011440D01*
X37661671Y-15991933D01*
X37758000Y-16011440D01*
X38658000Y-16011440D01*
X38761671Y-15991933D01*
X38858000Y-16011440D01*
X39758000Y-16011440D01*
X39861671Y-15991933D01*
X39958000Y-16011440D01*
X40858000Y-16011440D01*
X40961671Y-15991933D01*
X41058000Y-16011440D01*
X41958000Y-16011440D01*
X42061671Y-15991933D01*
X42158000Y-16011440D01*
X43058000Y-16011440D01*
X43161671Y-15991933D01*
X43258000Y-16011440D01*
X43384638Y-16011440D01*
X43658599Y-16285401D01*
X43905160Y-16450148D01*
X44196000Y-16508000D01*
X47632026Y-16508000D01*
X47610560Y-16614000D01*
X47610560Y-17514000D01*
X47630067Y-17617671D01*
X47610560Y-17714000D01*
X47610560Y-18614000D01*
X47630067Y-18717671D01*
X47610560Y-18814000D01*
X47610560Y-19714000D01*
X47630067Y-19817671D01*
X47610560Y-19914000D01*
X47610560Y-20814000D01*
X47630067Y-20917671D01*
X47610560Y-21014000D01*
X47610560Y-21914000D01*
X47630067Y-22017671D01*
X47610560Y-22114000D01*
X47610560Y-23014000D01*
X47630067Y-23117671D01*
X47610560Y-23214000D01*
X47610560Y-24114000D01*
X47630067Y-24217671D01*
X47610560Y-24314000D01*
X47610560Y-25214000D01*
X47630067Y-25317671D01*
X47610560Y-25414000D01*
X47610560Y-26314000D01*
X47630067Y-26417671D01*
X47610560Y-26514000D01*
X47610560Y-27414000D01*
X47630067Y-27517671D01*
X47610560Y-27614000D01*
X47610560Y-28196000D01*
X46415802Y-28196000D01*
X45322758Y-27102956D01*
X45486943Y-27035117D01*
X45750192Y-26772327D01*
X45892838Y-26428799D01*
X45893162Y-26056833D01*
X45751117Y-25713057D01*
X45488327Y-25449808D01*
X45144799Y-25307162D01*
X44772833Y-25306838D01*
X44542523Y-25402000D01*
X44510802Y-25402000D01*
X39780401Y-20671599D01*
X39533839Y-20506852D01*
X39243000Y-20449000D01*
X20253802Y-20449000D01*
X19912440Y-20107638D01*
X19912440Y-18835000D01*
X19868162Y-18599683D01*
X19729090Y-18383559D01*
X19516890Y-18238569D01*
X19408893Y-18216699D01*
X19686645Y-17911924D01*
X19856476Y-17501890D01*
X19735155Y-17272000D01*
X18542000Y-17272000D01*
X18542000Y-17292000D01*
X18288000Y-17292000D01*
X18288000Y-17272000D01*
X17094845Y-17272000D01*
X16973524Y-17501890D01*
X17143355Y-17911924D01*
X17419501Y-18214937D01*
X17329683Y-18231838D01*
X17113559Y-18370910D01*
X16968569Y-18583110D01*
X16917560Y-18835000D01*
X16917560Y-19652758D01*
X16412401Y-19147599D01*
X16165839Y-18982852D01*
X15878407Y-18925678D01*
X15684147Y-18634946D01*
X15343447Y-18407298D01*
X15486358Y-18340183D01*
X15876645Y-17911924D01*
X16046476Y-17501890D01*
X15925155Y-17272000D01*
X14732000Y-17272000D01*
X14732000Y-17292000D01*
X14478000Y-17292000D01*
X14478000Y-17272000D01*
X14458000Y-17272000D01*
X14458000Y-17018000D01*
X14478000Y-17018000D01*
X14478000Y-16998000D01*
X14732000Y-16998000D01*
X14732000Y-17018000D01*
X15925155Y-17018000D01*
X16046476Y-16788110D01*
X16973524Y-16788110D01*
X17094845Y-17018000D01*
X18288000Y-17018000D01*
X18288000Y-15824181D01*
X18542000Y-15824181D01*
X18542000Y-17018000D01*
X19735155Y-17018000D01*
X19856476Y-16788110D01*
X19686645Y-16378076D01*
X19296358Y-15949817D01*
X18771892Y-15703514D01*
X18542000Y-15824181D01*
X18288000Y-15824181D01*
X18058108Y-15703514D01*
X17533642Y-15949817D01*
X17143355Y-16378076D01*
X16973524Y-16788110D01*
X16046476Y-16788110D01*
X15876645Y-16378076D01*
X15600499Y-16075063D01*
X15690317Y-16058162D01*
X15906441Y-15919090D01*
X16051431Y-15706890D01*
X16102440Y-15455000D01*
X16102440Y-14899750D01*
X32723000Y-14899750D01*
X32723000Y-15490309D01*
X32819673Y-15723698D01*
X32998301Y-15902327D01*
X33231690Y-15999000D01*
X33522250Y-15999000D01*
X33681000Y-15840250D01*
X33681000Y-14741000D01*
X32881750Y-14741000D01*
X32723000Y-14899750D01*
X16102440Y-14899750D01*
X16102440Y-13755000D01*
X16099184Y-13737691D01*
X32723000Y-13737691D01*
X32723000Y-14328250D01*
X32881750Y-14487000D01*
X33681000Y-14487000D01*
X33681000Y-13387750D01*
X33522250Y-13229000D01*
X33231690Y-13229000D01*
X32998301Y-13325673D01*
X32819673Y-13504302D01*
X32723000Y-13737691D01*
X16099184Y-13737691D01*
X16058162Y-13519683D01*
X15919090Y-13303559D01*
X15706890Y-13158569D01*
X15550998Y-13127000D01*
X42313198Y-13127000D01*
X42223638Y-13216560D01*
X42223638Y-13216560D01*
G37*
X42223638Y-13216560D02*
X42158000Y-13216560D01*
X42054329Y-13236067D01*
X41958000Y-13216560D01*
X41058000Y-13216560D01*
X40954329Y-13236067D01*
X40858000Y-13216560D01*
X39958000Y-13216560D01*
X39854329Y-13236067D01*
X39758000Y-13216560D01*
X38858000Y-13216560D01*
X38754329Y-13236067D01*
X38658000Y-13216560D01*
X37758000Y-13216560D01*
X37654329Y-13236067D01*
X37558000Y-13216560D01*
X36658000Y-13216560D01*
X36554329Y-13236067D01*
X36458000Y-13216560D01*
X35558000Y-13216560D01*
X35454329Y-13236067D01*
X35358000Y-13216560D01*
X34458000Y-13216560D01*
X34386677Y-13229980D01*
X34384310Y-13229000D01*
X34093750Y-13229000D01*
X33935000Y-13387750D01*
X33935000Y-13504640D01*
X33861569Y-13612110D01*
X33810560Y-13864000D01*
X33810560Y-15364000D01*
X33854838Y-15599317D01*
X33935000Y-15723892D01*
X33935000Y-15840250D01*
X34093750Y-15999000D01*
X34148000Y-15999000D01*
X34148000Y-16265507D01*
X34132808Y-16280673D01*
X33990162Y-16624201D01*
X33989838Y-16996167D01*
X34131883Y-17339943D01*
X34394673Y-17603192D01*
X34738201Y-17745838D01*
X35110167Y-17746162D01*
X35453943Y-17604117D01*
X35717192Y-17341327D01*
X35859838Y-16997799D01*
X35860162Y-16625833D01*
X35718117Y-16282057D01*
X35668000Y-16231852D01*
X35668000Y-16011440D01*
X36458000Y-16011440D01*
X36561671Y-15991933D01*
X36658000Y-16011440D01*
X37558000Y-16011440D01*
X37661671Y-15991933D01*
X37758000Y-16011440D01*
X38658000Y-16011440D01*
X38761671Y-15991933D01*
X38858000Y-16011440D01*
X39758000Y-16011440D01*
X39861671Y-15991933D01*
X39958000Y-16011440D01*
X40858000Y-16011440D01*
X40961671Y-15991933D01*
X41058000Y-16011440D01*
X41958000Y-16011440D01*
X42061671Y-15991933D01*
X42158000Y-16011440D01*
X43058000Y-16011440D01*
X43161671Y-15991933D01*
X43258000Y-16011440D01*
X43384638Y-16011440D01*
X43658599Y-16285401D01*
X43905160Y-16450148D01*
X44196000Y-16508000D01*
X47632026Y-16508000D01*
X47610560Y-16614000D01*
X47610560Y-17514000D01*
X47630067Y-17617671D01*
X47610560Y-17714000D01*
X47610560Y-18614000D01*
X47630067Y-18717671D01*
X47610560Y-18814000D01*
X47610560Y-19714000D01*
X47630067Y-19817671D01*
X47610560Y-19914000D01*
X47610560Y-20814000D01*
X47630067Y-20917671D01*
X47610560Y-21014000D01*
X47610560Y-21914000D01*
X47630067Y-22017671D01*
X47610560Y-22114000D01*
X47610560Y-23014000D01*
X47630067Y-23117671D01*
X47610560Y-23214000D01*
X47610560Y-24114000D01*
X47630067Y-24217671D01*
X47610560Y-24314000D01*
X47610560Y-25214000D01*
X47630067Y-25317671D01*
X47610560Y-25414000D01*
X47610560Y-26314000D01*
X47630067Y-26417671D01*
X47610560Y-26514000D01*
X47610560Y-27414000D01*
X47630067Y-27517671D01*
X47610560Y-27614000D01*
X47610560Y-28196000D01*
X46415802Y-28196000D01*
X45322758Y-27102956D01*
X45486943Y-27035117D01*
X45750192Y-26772327D01*
X45892838Y-26428799D01*
X45893162Y-26056833D01*
X45751117Y-25713057D01*
X45488327Y-25449808D01*
X45144799Y-25307162D01*
X44772833Y-25306838D01*
X44542523Y-25402000D01*
X44510802Y-25402000D01*
X39780401Y-20671599D01*
X39533839Y-20506852D01*
X39243000Y-20449000D01*
X20253802Y-20449000D01*
X19912440Y-20107638D01*
X19912440Y-18835000D01*
X19868162Y-18599683D01*
X19729090Y-18383559D01*
X19516890Y-18238569D01*
X19408893Y-18216699D01*
X19686645Y-17911924D01*
X19856476Y-17501890D01*
X19735155Y-17272000D01*
X18542000Y-17272000D01*
X18542000Y-17292000D01*
X18288000Y-17292000D01*
X18288000Y-17272000D01*
X17094845Y-17272000D01*
X16973524Y-17501890D01*
X17143355Y-17911924D01*
X17419501Y-18214937D01*
X17329683Y-18231838D01*
X17113559Y-18370910D01*
X16968569Y-18583110D01*
X16917560Y-18835000D01*
X16917560Y-19652758D01*
X16412401Y-19147599D01*
X16165839Y-18982852D01*
X15878407Y-18925678D01*
X15684147Y-18634946D01*
X15343447Y-18407298D01*
X15486358Y-18340183D01*
X15876645Y-17911924D01*
X16046476Y-17501890D01*
X15925155Y-17272000D01*
X14732000Y-17272000D01*
X14732000Y-17292000D01*
X14478000Y-17292000D01*
X14478000Y-17272000D01*
X14458000Y-17272000D01*
X14458000Y-17018000D01*
X14478000Y-17018000D01*
X14478000Y-16998000D01*
X14732000Y-16998000D01*
X14732000Y-17018000D01*
X15925155Y-17018000D01*
X16046476Y-16788110D01*
X16973524Y-16788110D01*
X17094845Y-17018000D01*
X18288000Y-17018000D01*
X18288000Y-15824181D01*
X18542000Y-15824181D01*
X18542000Y-17018000D01*
X19735155Y-17018000D01*
X19856476Y-16788110D01*
X19686645Y-16378076D01*
X19296358Y-15949817D01*
X18771892Y-15703514D01*
X18542000Y-15824181D01*
X18288000Y-15824181D01*
X18058108Y-15703514D01*
X17533642Y-15949817D01*
X17143355Y-16378076D01*
X16973524Y-16788110D01*
X16046476Y-16788110D01*
X15876645Y-16378076D01*
X15600499Y-16075063D01*
X15690317Y-16058162D01*
X15906441Y-15919090D01*
X16051431Y-15706890D01*
X16102440Y-15455000D01*
X16102440Y-14899750D01*
X32723000Y-14899750D01*
X32723000Y-15490309D01*
X32819673Y-15723698D01*
X32998301Y-15902327D01*
X33231690Y-15999000D01*
X33522250Y-15999000D01*
X33681000Y-15840250D01*
X33681000Y-14741000D01*
X32881750Y-14741000D01*
X32723000Y-14899750D01*
X16102440Y-14899750D01*
X16102440Y-13755000D01*
X16099184Y-13737691D01*
X32723000Y-13737691D01*
X32723000Y-14328250D01*
X32881750Y-14487000D01*
X33681000Y-14487000D01*
X33681000Y-13387750D01*
X33522250Y-13229000D01*
X33231690Y-13229000D01*
X32998301Y-13325673D01*
X32819673Y-13504302D01*
X32723000Y-13737691D01*
X16099184Y-13737691D01*
X16058162Y-13519683D01*
X15919090Y-13303559D01*
X15706890Y-13158569D01*
X15550998Y-13127000D01*
X42313198Y-13127000D01*
X42223638Y-13216560D01*
G36*
X58085057Y-13128663D02*
X57132010Y-14080048D01*
X56615589Y-15323728D01*
X56614414Y-16670364D01*
X57128663Y-17914943D01*
X58080048Y-18867990D01*
X58829043Y-19179000D01*
X51876802Y-19179000D01*
X51491802Y-18794000D01*
X53920537Y-18794000D01*
X53952673Y-18826192D01*
X54296201Y-18968838D01*
X54668167Y-18969162D01*
X55011943Y-18827117D01*
X55275192Y-18564327D01*
X55417838Y-18220799D01*
X55418162Y-17848833D01*
X55276117Y-17505057D01*
X55013327Y-17241808D01*
X54669799Y-17099162D01*
X54297833Y-17098838D01*
X53954057Y-17240883D01*
X53920882Y-17274000D01*
X51241802Y-17274000D01*
X50494401Y-16526599D01*
X50466566Y-16508000D01*
X53467000Y-16508000D01*
X53757839Y-16450148D01*
X54004401Y-16285401D01*
X54622680Y-15667122D01*
X54668167Y-15667162D01*
X55011943Y-15525117D01*
X55275192Y-15262327D01*
X55417838Y-14918799D01*
X55418162Y-14546833D01*
X55276117Y-14203057D01*
X55013327Y-13939808D01*
X54669799Y-13797162D01*
X54297833Y-13796838D01*
X53983724Y-13926625D01*
X53743327Y-13685808D01*
X53399799Y-13543162D01*
X53352923Y-13543121D01*
X52936802Y-13127000D01*
X58089082Y-13127000D01*
X58085057Y-13128663D01*
X58085057Y-13128663D01*
G37*
X58085057Y-13128663D02*
X57132010Y-14080048D01*
X56615589Y-15323728D01*
X56614414Y-16670364D01*
X57128663Y-17914943D01*
X58080048Y-18867990D01*
X58829043Y-19179000D01*
X51876802Y-19179000D01*
X51491802Y-18794000D01*
X53920537Y-18794000D01*
X53952673Y-18826192D01*
X54296201Y-18968838D01*
X54668167Y-18969162D01*
X55011943Y-18827117D01*
X55275192Y-18564327D01*
X55417838Y-18220799D01*
X55418162Y-17848833D01*
X55276117Y-17505057D01*
X55013327Y-17241808D01*
X54669799Y-17099162D01*
X54297833Y-17098838D01*
X53954057Y-17240883D01*
X53920882Y-17274000D01*
X51241802Y-17274000D01*
X50494401Y-16526599D01*
X50466566Y-16508000D01*
X53467000Y-16508000D01*
X53757839Y-16450148D01*
X54004401Y-16285401D01*
X54622680Y-15667122D01*
X54668167Y-15667162D01*
X55011943Y-15525117D01*
X55275192Y-15262327D01*
X55417838Y-14918799D01*
X55418162Y-14546833D01*
X55276117Y-14203057D01*
X55013327Y-13939808D01*
X54669799Y-13797162D01*
X54297833Y-13796838D01*
X53983724Y-13926625D01*
X53743327Y-13685808D01*
X53399799Y-13543162D01*
X53352923Y-13543121D01*
X52936802Y-13127000D01*
X58089082Y-13127000D01*
X58085057Y-13128663D01*
G36*
X52277878Y-14617680D02*
X52277838Y-14663167D01*
X52412056Y-14988000D01*
X46993000Y-14988000D01*
X46993000Y-14899750D01*
X46834250Y-14741000D01*
X46035000Y-14741000D01*
X46035000Y-14761000D01*
X45905440Y-14761000D01*
X45905440Y-14467000D01*
X46035000Y-14467000D01*
X46035000Y-14487000D01*
X46834250Y-14487000D01*
X46993000Y-14328250D01*
X46993000Y-14222000D01*
X51882198Y-14222000D01*
X52277878Y-14617680D01*
X52277878Y-14617680D01*
G37*
X52277878Y-14617680D02*
X52277838Y-14663167D01*
X52412056Y-14988000D01*
X46993000Y-14988000D01*
X46993000Y-14899750D01*
X46834250Y-14741000D01*
X46035000Y-14741000D01*
X46035000Y-14761000D01*
X45905440Y-14761000D01*
X45905440Y-14467000D01*
X46035000Y-14467000D01*
X46035000Y-14487000D01*
X46834250Y-14487000D01*
X46993000Y-14328250D01*
X46993000Y-14222000D01*
X51882198Y-14222000D01*
X52277878Y-14617680D01*
G36*
X13203946Y-48293285D02*
X13525853Y-48775054D01*
X14007622Y-49096961D01*
X14575907Y-49210000D01*
X14634093Y-49210000D01*
X15202378Y-49096961D01*
X15684147Y-48775054D01*
X15877954Y-48485000D01*
X16744025Y-48485000D01*
X16714569Y-48528110D01*
X16663560Y-48780000D01*
X16663560Y-50480000D01*
X16707838Y-50715317D01*
X16846910Y-50931441D01*
X17059110Y-51076431D01*
X17250644Y-51115218D01*
X16329636Y-51114414D01*
X15085057Y-51628663D01*
X14132010Y-52580048D01*
X13615589Y-53823728D01*
X13614414Y-55170364D01*
X14128663Y-56414943D01*
X15080048Y-57367990D01*
X16323728Y-57884411D01*
X17670364Y-57885586D01*
X18914943Y-57371337D01*
X18961611Y-57324750D01*
X20341000Y-57324750D01*
X20341000Y-57940309D01*
X20437673Y-58173698D01*
X20616301Y-58352327D01*
X20849690Y-58449000D01*
X21340250Y-58449000D01*
X21499000Y-58290250D01*
X21499000Y-57166000D01*
X21753000Y-57166000D01*
X21753000Y-58290250D01*
X21911750Y-58449000D01*
X22402310Y-58449000D01*
X22635699Y-58352327D01*
X22814327Y-58173698D01*
X22911000Y-57940309D01*
X22911000Y-57324750D01*
X22752250Y-57166000D01*
X21753000Y-57166000D01*
X21499000Y-57166000D01*
X20499750Y-57166000D01*
X20341000Y-57324750D01*
X18961611Y-57324750D01*
X19867990Y-56419952D01*
X19985194Y-56137691D01*
X20341000Y-56137691D01*
X20341000Y-56753250D01*
X20499750Y-56912000D01*
X21499000Y-56912000D01*
X21499000Y-55787750D01*
X21753000Y-55787750D01*
X21753000Y-56912000D01*
X22752250Y-56912000D01*
X22911000Y-56753250D01*
X22911000Y-56137691D01*
X22814327Y-55904302D01*
X22635699Y-55725673D01*
X22402310Y-55629000D01*
X21911750Y-55629000D01*
X21753000Y-55787750D01*
X21499000Y-55787750D01*
X21340250Y-55629000D01*
X20849690Y-55629000D01*
X20616301Y-55725673D01*
X20437673Y-55904302D01*
X20341000Y-56137691D01*
X19985194Y-56137691D01*
X20384411Y-55176272D01*
X20385586Y-53829636D01*
X19871337Y-52585057D01*
X18919952Y-51632010D01*
X17704812Y-51127440D01*
X19011000Y-51127440D01*
X19246317Y-51083162D01*
X19462441Y-50944090D01*
X19607431Y-50731890D01*
X19658440Y-50480000D01*
X19658440Y-49364750D01*
X20341000Y-49364750D01*
X20341000Y-49980309D01*
X20437673Y-50213698D01*
X20616301Y-50392327D01*
X20849690Y-50489000D01*
X21340250Y-50489000D01*
X21499000Y-50330250D01*
X21499000Y-49206000D01*
X21753000Y-49206000D01*
X21753000Y-50330250D01*
X21911750Y-50489000D01*
X22402310Y-50489000D01*
X22635699Y-50392327D01*
X22814327Y-50213698D01*
X22911000Y-49980309D01*
X22911000Y-49364750D01*
X22752250Y-49206000D01*
X21753000Y-49206000D01*
X21499000Y-49206000D01*
X20499750Y-49206000D01*
X20341000Y-49364750D01*
X19658440Y-49364750D01*
X19658440Y-48780000D01*
X19614162Y-48544683D01*
X19575757Y-48485000D01*
X20341000Y-48485000D01*
X20341000Y-48793250D01*
X20499750Y-48952000D01*
X21499000Y-48952000D01*
X21499000Y-48932000D01*
X21753000Y-48932000D01*
X21753000Y-48952000D01*
X22752250Y-48952000D01*
X22911000Y-48793250D01*
X22911000Y-48485000D01*
X24069198Y-48485000D01*
X24828560Y-49244362D01*
X24828560Y-49854000D01*
X24872838Y-50089317D01*
X25011910Y-50305441D01*
X25224110Y-50450431D01*
X25366000Y-50479164D01*
X25366000Y-55637258D01*
X25240683Y-55660838D01*
X25024559Y-55799910D01*
X24879569Y-56012110D01*
X24828560Y-56264000D01*
X24828560Y-57814000D01*
X24872838Y-58049317D01*
X25011910Y-58265441D01*
X25224110Y-58410431D01*
X25476000Y-58461440D01*
X26034758Y-58461440D01*
X25435583Y-59060615D01*
X25060000Y-58985907D01*
X24491715Y-59098946D01*
X24009946Y-59420853D01*
X23790000Y-59750026D01*
X23570054Y-59420853D01*
X23088285Y-59098946D01*
X22520000Y-58985907D01*
X21951715Y-59098946D01*
X21469946Y-59420853D01*
X21250000Y-59750026D01*
X21030054Y-59420853D01*
X20548285Y-59098946D01*
X19980000Y-58985907D01*
X19411715Y-59098946D01*
X18929946Y-59420853D01*
X18710000Y-59750026D01*
X18490054Y-59420853D01*
X18008285Y-59098946D01*
X17440000Y-58985907D01*
X16871715Y-59098946D01*
X16389946Y-59420853D01*
X16170000Y-59750026D01*
X15950054Y-59420853D01*
X15468285Y-59098946D01*
X14900000Y-58985907D01*
X14331715Y-59098946D01*
X13849946Y-59420853D01*
X13528039Y-59902622D01*
X13415000Y-60470907D01*
X13415000Y-60529093D01*
X13528039Y-61097378D01*
X13849946Y-61579147D01*
X14331715Y-61901054D01*
X14900000Y-62014093D01*
X15468285Y-61901054D01*
X15950054Y-61579147D01*
X16170000Y-61249974D01*
X16389946Y-61579147D01*
X16871715Y-61901054D01*
X17440000Y-62014093D01*
X18008285Y-61901054D01*
X18490054Y-61579147D01*
X18710000Y-61249974D01*
X18929946Y-61579147D01*
X19411715Y-61901054D01*
X19980000Y-62014093D01*
X20548285Y-61901054D01*
X21030054Y-61579147D01*
X21250000Y-61249974D01*
X21469946Y-61579147D01*
X21951715Y-61901054D01*
X22520000Y-62014093D01*
X23088285Y-61901054D01*
X23570054Y-61579147D01*
X23790000Y-61249974D01*
X24009946Y-61579147D01*
X24491715Y-61901054D01*
X25060000Y-62014093D01*
X25628285Y-61901054D01*
X26110054Y-61579147D01*
X26330000Y-61249974D01*
X26549946Y-61579147D01*
X27031715Y-61901054D01*
X27600000Y-62014093D01*
X28168285Y-61901054D01*
X28650054Y-61579147D01*
X28870000Y-61249974D01*
X29089946Y-61579147D01*
X29571715Y-61901054D01*
X30140000Y-62014093D01*
X30708285Y-61901054D01*
X31190054Y-61579147D01*
X31410000Y-61249974D01*
X31629946Y-61579147D01*
X32111715Y-61901054D01*
X32680000Y-62014093D01*
X33248285Y-61901054D01*
X33730054Y-61579147D01*
X33950000Y-61249974D01*
X34169946Y-61579147D01*
X34651715Y-61901054D01*
X35220000Y-62014093D01*
X35788285Y-61901054D01*
X36270054Y-61579147D01*
X36490000Y-61249974D01*
X36709946Y-61579147D01*
X37191715Y-61901054D01*
X37760000Y-62014093D01*
X38328285Y-61901054D01*
X38810054Y-61579147D01*
X39030000Y-61249974D01*
X39249946Y-61579147D01*
X39731715Y-61901054D01*
X40300000Y-62014093D01*
X40868285Y-61901054D01*
X41350054Y-61579147D01*
X41570000Y-61249974D01*
X41789946Y-61579147D01*
X42271715Y-61901054D01*
X42840000Y-62014093D01*
X43408285Y-61901054D01*
X43890054Y-61579147D01*
X44110000Y-61249974D01*
X44329946Y-61579147D01*
X44811715Y-61901054D01*
X45380000Y-62014093D01*
X45948285Y-61901054D01*
X46430054Y-61579147D01*
X46650000Y-61249974D01*
X46869946Y-61579147D01*
X47351715Y-61901054D01*
X47920000Y-62014093D01*
X48488285Y-61901054D01*
X48970054Y-61579147D01*
X49190000Y-61249974D01*
X49409946Y-61579147D01*
X49891715Y-61901054D01*
X50460000Y-62014093D01*
X51028285Y-61901054D01*
X51510054Y-61579147D01*
X51537850Y-61537548D01*
X51546838Y-61585317D01*
X51685910Y-61801441D01*
X51898110Y-61946431D01*
X52150000Y-61997440D01*
X53850000Y-61997440D01*
X54085317Y-61953162D01*
X54301441Y-61814090D01*
X54446431Y-61601890D01*
X54497440Y-61350000D01*
X54497440Y-59650000D01*
X54453162Y-59414683D01*
X54314090Y-59198559D01*
X54101890Y-59053569D01*
X53850000Y-59002560D01*
X52865362Y-59002560D01*
X50678236Y-56815434D01*
X50709839Y-56809148D01*
X50956401Y-56644401D01*
X51337401Y-56263401D01*
X51502148Y-56016840D01*
X51560000Y-55726000D01*
X51560000Y-54075000D01*
X51534340Y-53946000D01*
X55753000Y-53946000D01*
X56043839Y-53888148D01*
X56290401Y-53723401D01*
X57799592Y-52214210D01*
X58166000Y-52287093D01*
X58734285Y-52174054D01*
X59216054Y-51852147D01*
X59436000Y-51522974D01*
X59655946Y-51852147D01*
X60137715Y-52174054D01*
X60706000Y-52287093D01*
X61274285Y-52174054D01*
X61756054Y-51852147D01*
X62007208Y-51476268D01*
X62012839Y-51475148D01*
X62259401Y-51310401D01*
X62873000Y-50696802D01*
X62873000Y-57589082D01*
X62871337Y-57585057D01*
X61919952Y-56632010D01*
X60676272Y-56115589D01*
X59329636Y-56114414D01*
X58085057Y-56628663D01*
X57132010Y-57580048D01*
X56615589Y-58823728D01*
X56614414Y-60170364D01*
X57128663Y-61414943D01*
X58080048Y-62367990D01*
X58092113Y-62373000D01*
X13127000Y-62373000D01*
X13127000Y-47906452D01*
X13203946Y-48293285D01*
X13203946Y-48293285D01*
G37*
X13203946Y-48293285D02*
X13525853Y-48775054D01*
X14007622Y-49096961D01*
X14575907Y-49210000D01*
X14634093Y-49210000D01*
X15202378Y-49096961D01*
X15684147Y-48775054D01*
X15877954Y-48485000D01*
X16744025Y-48485000D01*
X16714569Y-48528110D01*
X16663560Y-48780000D01*
X16663560Y-50480000D01*
X16707838Y-50715317D01*
X16846910Y-50931441D01*
X17059110Y-51076431D01*
X17250644Y-51115218D01*
X16329636Y-51114414D01*
X15085057Y-51628663D01*
X14132010Y-52580048D01*
X13615589Y-53823728D01*
X13614414Y-55170364D01*
X14128663Y-56414943D01*
X15080048Y-57367990D01*
X16323728Y-57884411D01*
X17670364Y-57885586D01*
X18914943Y-57371337D01*
X18961611Y-57324750D01*
X20341000Y-57324750D01*
X20341000Y-57940309D01*
X20437673Y-58173698D01*
X20616301Y-58352327D01*
X20849690Y-58449000D01*
X21340250Y-58449000D01*
X21499000Y-58290250D01*
X21499000Y-57166000D01*
X21753000Y-57166000D01*
X21753000Y-58290250D01*
X21911750Y-58449000D01*
X22402310Y-58449000D01*
X22635699Y-58352327D01*
X22814327Y-58173698D01*
X22911000Y-57940309D01*
X22911000Y-57324750D01*
X22752250Y-57166000D01*
X21753000Y-57166000D01*
X21499000Y-57166000D01*
X20499750Y-57166000D01*
X20341000Y-57324750D01*
X18961611Y-57324750D01*
X19867990Y-56419952D01*
X19985194Y-56137691D01*
X20341000Y-56137691D01*
X20341000Y-56753250D01*
X20499750Y-56912000D01*
X21499000Y-56912000D01*
X21499000Y-55787750D01*
X21753000Y-55787750D01*
X21753000Y-56912000D01*
X22752250Y-56912000D01*
X22911000Y-56753250D01*
X22911000Y-56137691D01*
X22814327Y-55904302D01*
X22635699Y-55725673D01*
X22402310Y-55629000D01*
X21911750Y-55629000D01*
X21753000Y-55787750D01*
X21499000Y-55787750D01*
X21340250Y-55629000D01*
X20849690Y-55629000D01*
X20616301Y-55725673D01*
X20437673Y-55904302D01*
X20341000Y-56137691D01*
X19985194Y-56137691D01*
X20384411Y-55176272D01*
X20385586Y-53829636D01*
X19871337Y-52585057D01*
X18919952Y-51632010D01*
X17704812Y-51127440D01*
X19011000Y-51127440D01*
X19246317Y-51083162D01*
X19462441Y-50944090D01*
X19607431Y-50731890D01*
X19658440Y-50480000D01*
X19658440Y-49364750D01*
X20341000Y-49364750D01*
X20341000Y-49980309D01*
X20437673Y-50213698D01*
X20616301Y-50392327D01*
X20849690Y-50489000D01*
X21340250Y-50489000D01*
X21499000Y-50330250D01*
X21499000Y-49206000D01*
X21753000Y-49206000D01*
X21753000Y-50330250D01*
X21911750Y-50489000D01*
X22402310Y-50489000D01*
X22635699Y-50392327D01*
X22814327Y-50213698D01*
X22911000Y-49980309D01*
X22911000Y-49364750D01*
X22752250Y-49206000D01*
X21753000Y-49206000D01*
X21499000Y-49206000D01*
X20499750Y-49206000D01*
X20341000Y-49364750D01*
X19658440Y-49364750D01*
X19658440Y-48780000D01*
X19614162Y-48544683D01*
X19575757Y-48485000D01*
X20341000Y-48485000D01*
X20341000Y-48793250D01*
X20499750Y-48952000D01*
X21499000Y-48952000D01*
X21499000Y-48932000D01*
X21753000Y-48932000D01*
X21753000Y-48952000D01*
X22752250Y-48952000D01*
X22911000Y-48793250D01*
X22911000Y-48485000D01*
X24069198Y-48485000D01*
X24828560Y-49244362D01*
X24828560Y-49854000D01*
X24872838Y-50089317D01*
X25011910Y-50305441D01*
X25224110Y-50450431D01*
X25366000Y-50479164D01*
X25366000Y-55637258D01*
X25240683Y-55660838D01*
X25024559Y-55799910D01*
X24879569Y-56012110D01*
X24828560Y-56264000D01*
X24828560Y-57814000D01*
X24872838Y-58049317D01*
X25011910Y-58265441D01*
X25224110Y-58410431D01*
X25476000Y-58461440D01*
X26034758Y-58461440D01*
X25435583Y-59060615D01*
X25060000Y-58985907D01*
X24491715Y-59098946D01*
X24009946Y-59420853D01*
X23790000Y-59750026D01*
X23570054Y-59420853D01*
X23088285Y-59098946D01*
X22520000Y-58985907D01*
X21951715Y-59098946D01*
X21469946Y-59420853D01*
X21250000Y-59750026D01*
X21030054Y-59420853D01*
X20548285Y-59098946D01*
X19980000Y-58985907D01*
X19411715Y-59098946D01*
X18929946Y-59420853D01*
X18710000Y-59750026D01*
X18490054Y-59420853D01*
X18008285Y-59098946D01*
X17440000Y-58985907D01*
X16871715Y-59098946D01*
X16389946Y-59420853D01*
X16170000Y-59750026D01*
X15950054Y-59420853D01*
X15468285Y-59098946D01*
X14900000Y-58985907D01*
X14331715Y-59098946D01*
X13849946Y-59420853D01*
X13528039Y-59902622D01*
X13415000Y-60470907D01*
X13415000Y-60529093D01*
X13528039Y-61097378D01*
X13849946Y-61579147D01*
X14331715Y-61901054D01*
X14900000Y-62014093D01*
X15468285Y-61901054D01*
X15950054Y-61579147D01*
X16170000Y-61249974D01*
X16389946Y-61579147D01*
X16871715Y-61901054D01*
X17440000Y-62014093D01*
X18008285Y-61901054D01*
X18490054Y-61579147D01*
X18710000Y-61249974D01*
X18929946Y-61579147D01*
X19411715Y-61901054D01*
X19980000Y-62014093D01*
X20548285Y-61901054D01*
X21030054Y-61579147D01*
X21250000Y-61249974D01*
X21469946Y-61579147D01*
X21951715Y-61901054D01*
X22520000Y-62014093D01*
X23088285Y-61901054D01*
X23570054Y-61579147D01*
X23790000Y-61249974D01*
X24009946Y-61579147D01*
X24491715Y-61901054D01*
X25060000Y-62014093D01*
X25628285Y-61901054D01*
X26110054Y-61579147D01*
X26330000Y-61249974D01*
X26549946Y-61579147D01*
X27031715Y-61901054D01*
X27600000Y-62014093D01*
X28168285Y-61901054D01*
X28650054Y-61579147D01*
X28870000Y-61249974D01*
X29089946Y-61579147D01*
X29571715Y-61901054D01*
X30140000Y-62014093D01*
X30708285Y-61901054D01*
X31190054Y-61579147D01*
X31410000Y-61249974D01*
X31629946Y-61579147D01*
X32111715Y-61901054D01*
X32680000Y-62014093D01*
X33248285Y-61901054D01*
X33730054Y-61579147D01*
X33950000Y-61249974D01*
X34169946Y-61579147D01*
X34651715Y-61901054D01*
X35220000Y-62014093D01*
X35788285Y-61901054D01*
X36270054Y-61579147D01*
X36490000Y-61249974D01*
X36709946Y-61579147D01*
X37191715Y-61901054D01*
X37760000Y-62014093D01*
X38328285Y-61901054D01*
X38810054Y-61579147D01*
X39030000Y-61249974D01*
X39249946Y-61579147D01*
X39731715Y-61901054D01*
X40300000Y-62014093D01*
X40868285Y-61901054D01*
X41350054Y-61579147D01*
X41570000Y-61249974D01*
X41789946Y-61579147D01*
X42271715Y-61901054D01*
X42840000Y-62014093D01*
X43408285Y-61901054D01*
X43890054Y-61579147D01*
X44110000Y-61249974D01*
X44329946Y-61579147D01*
X44811715Y-61901054D01*
X45380000Y-62014093D01*
X45948285Y-61901054D01*
X46430054Y-61579147D01*
X46650000Y-61249974D01*
X46869946Y-61579147D01*
X47351715Y-61901054D01*
X47920000Y-62014093D01*
X48488285Y-61901054D01*
X48970054Y-61579147D01*
X49190000Y-61249974D01*
X49409946Y-61579147D01*
X49891715Y-61901054D01*
X50460000Y-62014093D01*
X51028285Y-61901054D01*
X51510054Y-61579147D01*
X51537850Y-61537548D01*
X51546838Y-61585317D01*
X51685910Y-61801441D01*
X51898110Y-61946431D01*
X52150000Y-61997440D01*
X53850000Y-61997440D01*
X54085317Y-61953162D01*
X54301441Y-61814090D01*
X54446431Y-61601890D01*
X54497440Y-61350000D01*
X54497440Y-59650000D01*
X54453162Y-59414683D01*
X54314090Y-59198559D01*
X54101890Y-59053569D01*
X53850000Y-59002560D01*
X52865362Y-59002560D01*
X50678236Y-56815434D01*
X50709839Y-56809148D01*
X50956401Y-56644401D01*
X51337401Y-56263401D01*
X51502148Y-56016840D01*
X51560000Y-55726000D01*
X51560000Y-54075000D01*
X51534340Y-53946000D01*
X55753000Y-53946000D01*
X56043839Y-53888148D01*
X56290401Y-53723401D01*
X57799592Y-52214210D01*
X58166000Y-52287093D01*
X58734285Y-52174054D01*
X59216054Y-51852147D01*
X59436000Y-51522974D01*
X59655946Y-51852147D01*
X60137715Y-52174054D01*
X60706000Y-52287093D01*
X61274285Y-52174054D01*
X61756054Y-51852147D01*
X62007208Y-51476268D01*
X62012839Y-51475148D01*
X62259401Y-51310401D01*
X62873000Y-50696802D01*
X62873000Y-57589082D01*
X62871337Y-57585057D01*
X61919952Y-56632010D01*
X60676272Y-56115589D01*
X59329636Y-56114414D01*
X58085057Y-56628663D01*
X57132010Y-57580048D01*
X56615589Y-58823728D01*
X56614414Y-60170364D01*
X57128663Y-61414943D01*
X58080048Y-62367990D01*
X58092113Y-62373000D01*
X13127000Y-62373000D01*
X13127000Y-47906452D01*
X13203946Y-48293285D01*
G36*
X45407298Y-55726100D02*
X45354329Y-55736067D01*
X45258000Y-55716560D01*
X44358000Y-55716560D01*
X44254329Y-55736067D01*
X44158000Y-55716560D01*
X43258000Y-55716560D01*
X43154329Y-55736067D01*
X43058000Y-55716560D01*
X42158000Y-55716560D01*
X42054329Y-55736067D01*
X41958000Y-55716560D01*
X41058000Y-55716560D01*
X40954329Y-55736067D01*
X40858000Y-55716560D01*
X39958000Y-55716560D01*
X39854329Y-55736067D01*
X39758000Y-55716560D01*
X38858000Y-55716560D01*
X38754329Y-55736067D01*
X38658000Y-55716560D01*
X37758000Y-55716560D01*
X37654329Y-55736067D01*
X37558000Y-55716560D01*
X36658000Y-55716560D01*
X36554329Y-55736067D01*
X36458000Y-55716560D01*
X35668000Y-55716560D01*
X35668000Y-55201000D01*
X35610148Y-54910161D01*
X35445401Y-54663599D01*
X34700401Y-53918599D01*
X34453839Y-53753852D01*
X34163000Y-53696000D01*
X31115000Y-53696000D01*
X30824161Y-53753852D01*
X30577599Y-53918599D01*
X27423440Y-57072758D01*
X27423440Y-56264000D01*
X27379162Y-56028683D01*
X27240090Y-55812559D01*
X27027890Y-55667569D01*
X26886000Y-55638836D01*
X26886000Y-50480742D01*
X27011317Y-50457162D01*
X27227441Y-50318090D01*
X27372431Y-50105890D01*
X27423440Y-49854000D01*
X27423440Y-48485000D01*
X38166198Y-48485000D01*
X45407298Y-55726100D01*
X45407298Y-55726100D01*
G37*
X45407298Y-55726100D02*
X45354329Y-55736067D01*
X45258000Y-55716560D01*
X44358000Y-55716560D01*
X44254329Y-55736067D01*
X44158000Y-55716560D01*
X43258000Y-55716560D01*
X43154329Y-55736067D01*
X43058000Y-55716560D01*
X42158000Y-55716560D01*
X42054329Y-55736067D01*
X41958000Y-55716560D01*
X41058000Y-55716560D01*
X40954329Y-55736067D01*
X40858000Y-55716560D01*
X39958000Y-55716560D01*
X39854329Y-55736067D01*
X39758000Y-55716560D01*
X38858000Y-55716560D01*
X38754329Y-55736067D01*
X38658000Y-55716560D01*
X37758000Y-55716560D01*
X37654329Y-55736067D01*
X37558000Y-55716560D01*
X36658000Y-55716560D01*
X36554329Y-55736067D01*
X36458000Y-55716560D01*
X35668000Y-55716560D01*
X35668000Y-55201000D01*
X35610148Y-54910161D01*
X35445401Y-54663599D01*
X34700401Y-53918599D01*
X34453839Y-53753852D01*
X34163000Y-53696000D01*
X31115000Y-53696000D01*
X30824161Y-53753852D01*
X30577599Y-53918599D01*
X27423440Y-57072758D01*
X27423440Y-56264000D01*
X27379162Y-56028683D01*
X27240090Y-55812559D01*
X27027890Y-55667569D01*
X26886000Y-55638836D01*
X26886000Y-50480742D01*
X27011317Y-50457162D01*
X27227441Y-50318090D01*
X27372431Y-50105890D01*
X27423440Y-49854000D01*
X27423440Y-48485000D01*
X38166198Y-48485000D01*
X45407298Y-55726100D01*
G36*
X42223638Y-38716560D02*
X42158000Y-38716560D01*
X42054329Y-38736067D01*
X41958000Y-38716560D01*
X41058000Y-38716560D01*
X40954329Y-38736067D01*
X40858000Y-38716560D01*
X39958000Y-38716560D01*
X39854329Y-38736067D01*
X39758000Y-38716560D01*
X38858000Y-38716560D01*
X38754329Y-38736067D01*
X38658000Y-38716560D01*
X37758000Y-38716560D01*
X37654329Y-38736067D01*
X37558000Y-38716560D01*
X36658000Y-38716560D01*
X36554329Y-38736067D01*
X36458000Y-38716560D01*
X35558000Y-38716560D01*
X35454329Y-38736067D01*
X35358000Y-38716560D01*
X34458000Y-38716560D01*
X34386677Y-38729980D01*
X34384310Y-38729000D01*
X34093750Y-38729000D01*
X33935000Y-38887750D01*
X33935000Y-39004640D01*
X33861569Y-39112110D01*
X33810560Y-39364000D01*
X33810560Y-40864000D01*
X33854838Y-41099317D01*
X33935000Y-41223892D01*
X33935000Y-41340250D01*
X34093750Y-41499000D01*
X34148000Y-41499000D01*
X34148000Y-41765507D01*
X34132808Y-41780673D01*
X33990162Y-42124201D01*
X33989838Y-42496167D01*
X34131883Y-42839943D01*
X34394673Y-43103192D01*
X34738201Y-43245838D01*
X35110167Y-43246162D01*
X35453943Y-43104117D01*
X35717192Y-42841327D01*
X35859838Y-42497799D01*
X35860162Y-42125833D01*
X35718117Y-41782057D01*
X35668000Y-41731852D01*
X35668000Y-41511440D01*
X36458000Y-41511440D01*
X36561671Y-41491933D01*
X36658000Y-41511440D01*
X37558000Y-41511440D01*
X37661671Y-41491933D01*
X37758000Y-41511440D01*
X38658000Y-41511440D01*
X38761671Y-41491933D01*
X38858000Y-41511440D01*
X39758000Y-41511440D01*
X39861671Y-41491933D01*
X39958000Y-41511440D01*
X40858000Y-41511440D01*
X40961671Y-41491933D01*
X41058000Y-41511440D01*
X41958000Y-41511440D01*
X42061671Y-41491933D01*
X42158000Y-41511440D01*
X43058000Y-41511440D01*
X43161671Y-41491933D01*
X43258000Y-41511440D01*
X43384638Y-41511440D01*
X43658599Y-41785401D01*
X43905160Y-41950148D01*
X44196000Y-42008000D01*
X47632026Y-42008000D01*
X47610560Y-42114000D01*
X47610560Y-43014000D01*
X47630067Y-43117671D01*
X47610560Y-43214000D01*
X47610560Y-44114000D01*
X47630067Y-44217671D01*
X47610560Y-44314000D01*
X47610560Y-45214000D01*
X47630067Y-45317671D01*
X47610560Y-45414000D01*
X47610560Y-46314000D01*
X47630067Y-46417671D01*
X47610560Y-46514000D01*
X47610560Y-47414000D01*
X47630067Y-47517671D01*
X47610560Y-47614000D01*
X47610560Y-48514000D01*
X47630067Y-48617671D01*
X47610560Y-48714000D01*
X47610560Y-49614000D01*
X47630067Y-49717671D01*
X47610560Y-49814000D01*
X47610560Y-50714000D01*
X47630067Y-50817671D01*
X47610560Y-50914000D01*
X47610560Y-51814000D01*
X47630067Y-51917671D01*
X47610560Y-52014000D01*
X47610560Y-52914000D01*
X47630067Y-53017671D01*
X47610560Y-53114000D01*
X47610560Y-53696000D01*
X46415802Y-53696000D01*
X45322758Y-52602956D01*
X45486943Y-52535117D01*
X45750192Y-52272327D01*
X45892838Y-51928799D01*
X45893162Y-51556833D01*
X45751117Y-51213057D01*
X45488327Y-50949808D01*
X45144799Y-50807162D01*
X44772833Y-50806838D01*
X44542523Y-50902000D01*
X44510802Y-50902000D01*
X39780401Y-46171599D01*
X39533839Y-46006852D01*
X39243000Y-45949000D01*
X20253802Y-45949000D01*
X19912440Y-45607638D01*
X19912440Y-44335000D01*
X19868162Y-44099683D01*
X19729090Y-43883559D01*
X19516890Y-43738569D01*
X19408893Y-43716699D01*
X19686645Y-43411924D01*
X19856476Y-43001890D01*
X19735155Y-42772000D01*
X18542000Y-42772000D01*
X18542000Y-42792000D01*
X18288000Y-42792000D01*
X18288000Y-42772000D01*
X17094845Y-42772000D01*
X16973524Y-43001890D01*
X17143355Y-43411924D01*
X17419501Y-43714937D01*
X17329683Y-43731838D01*
X17113559Y-43870910D01*
X16968569Y-44083110D01*
X16917560Y-44335000D01*
X16917560Y-45152758D01*
X16412401Y-44647599D01*
X16165839Y-44482852D01*
X15878407Y-44425678D01*
X15684147Y-44134946D01*
X15343447Y-43907298D01*
X15486358Y-43840183D01*
X15876645Y-43411924D01*
X16046476Y-43001890D01*
X15925155Y-42772000D01*
X14732000Y-42772000D01*
X14732000Y-42792000D01*
X14478000Y-42792000D01*
X14478000Y-42772000D01*
X14458000Y-42772000D01*
X14458000Y-42518000D01*
X14478000Y-42518000D01*
X14478000Y-42498000D01*
X14732000Y-42498000D01*
X14732000Y-42518000D01*
X15925155Y-42518000D01*
X16046476Y-42288110D01*
X16973524Y-42288110D01*
X17094845Y-42518000D01*
X18288000Y-42518000D01*
X18288000Y-41324181D01*
X18542000Y-41324181D01*
X18542000Y-42518000D01*
X19735155Y-42518000D01*
X19856476Y-42288110D01*
X19686645Y-41878076D01*
X19296358Y-41449817D01*
X18771892Y-41203514D01*
X18542000Y-41324181D01*
X18288000Y-41324181D01*
X18058108Y-41203514D01*
X17533642Y-41449817D01*
X17143355Y-41878076D01*
X16973524Y-42288110D01*
X16046476Y-42288110D01*
X15876645Y-41878076D01*
X15600499Y-41575063D01*
X15690317Y-41558162D01*
X15906441Y-41419090D01*
X16051431Y-41206890D01*
X16102440Y-40955000D01*
X16102440Y-40399750D01*
X32723000Y-40399750D01*
X32723000Y-40990309D01*
X32819673Y-41223698D01*
X32998301Y-41402327D01*
X33231690Y-41499000D01*
X33522250Y-41499000D01*
X33681000Y-41340250D01*
X33681000Y-40241000D01*
X32881750Y-40241000D01*
X32723000Y-40399750D01*
X16102440Y-40399750D01*
X16102440Y-39255000D01*
X16099184Y-39237691D01*
X32723000Y-39237691D01*
X32723000Y-39828250D01*
X32881750Y-39987000D01*
X33681000Y-39987000D01*
X33681000Y-38887750D01*
X33522250Y-38729000D01*
X33231690Y-38729000D01*
X32998301Y-38825673D01*
X32819673Y-39004302D01*
X32723000Y-39237691D01*
X16099184Y-39237691D01*
X16058162Y-39019683D01*
X15919090Y-38803559D01*
X15706890Y-38658569D01*
X15550998Y-38627000D01*
X42313198Y-38627000D01*
X42223638Y-38716560D01*
X42223638Y-38716560D01*
G37*
X42223638Y-38716560D02*
X42158000Y-38716560D01*
X42054329Y-38736067D01*
X41958000Y-38716560D01*
X41058000Y-38716560D01*
X40954329Y-38736067D01*
X40858000Y-38716560D01*
X39958000Y-38716560D01*
X39854329Y-38736067D01*
X39758000Y-38716560D01*
X38858000Y-38716560D01*
X38754329Y-38736067D01*
X38658000Y-38716560D01*
X37758000Y-38716560D01*
X37654329Y-38736067D01*
X37558000Y-38716560D01*
X36658000Y-38716560D01*
X36554329Y-38736067D01*
X36458000Y-38716560D01*
X35558000Y-38716560D01*
X35454329Y-38736067D01*
X35358000Y-38716560D01*
X34458000Y-38716560D01*
X34386677Y-38729980D01*
X34384310Y-38729000D01*
X34093750Y-38729000D01*
X33935000Y-38887750D01*
X33935000Y-39004640D01*
X33861569Y-39112110D01*
X33810560Y-39364000D01*
X33810560Y-40864000D01*
X33854838Y-41099317D01*
X33935000Y-41223892D01*
X33935000Y-41340250D01*
X34093750Y-41499000D01*
X34148000Y-41499000D01*
X34148000Y-41765507D01*
X34132808Y-41780673D01*
X33990162Y-42124201D01*
X33989838Y-42496167D01*
X34131883Y-42839943D01*
X34394673Y-43103192D01*
X34738201Y-43245838D01*
X35110167Y-43246162D01*
X35453943Y-43104117D01*
X35717192Y-42841327D01*
X35859838Y-42497799D01*
X35860162Y-42125833D01*
X35718117Y-41782057D01*
X35668000Y-41731852D01*
X35668000Y-41511440D01*
X36458000Y-41511440D01*
X36561671Y-41491933D01*
X36658000Y-41511440D01*
X37558000Y-41511440D01*
X37661671Y-41491933D01*
X37758000Y-41511440D01*
X38658000Y-41511440D01*
X38761671Y-41491933D01*
X38858000Y-41511440D01*
X39758000Y-41511440D01*
X39861671Y-41491933D01*
X39958000Y-41511440D01*
X40858000Y-41511440D01*
X40961671Y-41491933D01*
X41058000Y-41511440D01*
X41958000Y-41511440D01*
X42061671Y-41491933D01*
X42158000Y-41511440D01*
X43058000Y-41511440D01*
X43161671Y-41491933D01*
X43258000Y-41511440D01*
X43384638Y-41511440D01*
X43658599Y-41785401D01*
X43905160Y-41950148D01*
X44196000Y-42008000D01*
X47632026Y-42008000D01*
X47610560Y-42114000D01*
X47610560Y-43014000D01*
X47630067Y-43117671D01*
X47610560Y-43214000D01*
X47610560Y-44114000D01*
X47630067Y-44217671D01*
X47610560Y-44314000D01*
X47610560Y-45214000D01*
X47630067Y-45317671D01*
X47610560Y-45414000D01*
X47610560Y-46314000D01*
X47630067Y-46417671D01*
X47610560Y-46514000D01*
X47610560Y-47414000D01*
X47630067Y-47517671D01*
X47610560Y-47614000D01*
X47610560Y-48514000D01*
X47630067Y-48617671D01*
X47610560Y-48714000D01*
X47610560Y-49614000D01*
X47630067Y-49717671D01*
X47610560Y-49814000D01*
X47610560Y-50714000D01*
X47630067Y-50817671D01*
X47610560Y-50914000D01*
X47610560Y-51814000D01*
X47630067Y-51917671D01*
X47610560Y-52014000D01*
X47610560Y-52914000D01*
X47630067Y-53017671D01*
X47610560Y-53114000D01*
X47610560Y-53696000D01*
X46415802Y-53696000D01*
X45322758Y-52602956D01*
X45486943Y-52535117D01*
X45750192Y-52272327D01*
X45892838Y-51928799D01*
X45893162Y-51556833D01*
X45751117Y-51213057D01*
X45488327Y-50949808D01*
X45144799Y-50807162D01*
X44772833Y-50806838D01*
X44542523Y-50902000D01*
X44510802Y-50902000D01*
X39780401Y-46171599D01*
X39533839Y-46006852D01*
X39243000Y-45949000D01*
X20253802Y-45949000D01*
X19912440Y-45607638D01*
X19912440Y-44335000D01*
X19868162Y-44099683D01*
X19729090Y-43883559D01*
X19516890Y-43738569D01*
X19408893Y-43716699D01*
X19686645Y-43411924D01*
X19856476Y-43001890D01*
X19735155Y-42772000D01*
X18542000Y-42772000D01*
X18542000Y-42792000D01*
X18288000Y-42792000D01*
X18288000Y-42772000D01*
X17094845Y-42772000D01*
X16973524Y-43001890D01*
X17143355Y-43411924D01*
X17419501Y-43714937D01*
X17329683Y-43731838D01*
X17113559Y-43870910D01*
X16968569Y-44083110D01*
X16917560Y-44335000D01*
X16917560Y-45152758D01*
X16412401Y-44647599D01*
X16165839Y-44482852D01*
X15878407Y-44425678D01*
X15684147Y-44134946D01*
X15343447Y-43907298D01*
X15486358Y-43840183D01*
X15876645Y-43411924D01*
X16046476Y-43001890D01*
X15925155Y-42772000D01*
X14732000Y-42772000D01*
X14732000Y-42792000D01*
X14478000Y-42792000D01*
X14478000Y-42772000D01*
X14458000Y-42772000D01*
X14458000Y-42518000D01*
X14478000Y-42518000D01*
X14478000Y-42498000D01*
X14732000Y-42498000D01*
X14732000Y-42518000D01*
X15925155Y-42518000D01*
X16046476Y-42288110D01*
X16973524Y-42288110D01*
X17094845Y-42518000D01*
X18288000Y-42518000D01*
X18288000Y-41324181D01*
X18542000Y-41324181D01*
X18542000Y-42518000D01*
X19735155Y-42518000D01*
X19856476Y-42288110D01*
X19686645Y-41878076D01*
X19296358Y-41449817D01*
X18771892Y-41203514D01*
X18542000Y-41324181D01*
X18288000Y-41324181D01*
X18058108Y-41203514D01*
X17533642Y-41449817D01*
X17143355Y-41878076D01*
X16973524Y-42288110D01*
X16046476Y-42288110D01*
X15876645Y-41878076D01*
X15600499Y-41575063D01*
X15690317Y-41558162D01*
X15906441Y-41419090D01*
X16051431Y-41206890D01*
X16102440Y-40955000D01*
X16102440Y-40399750D01*
X32723000Y-40399750D01*
X32723000Y-40990309D01*
X32819673Y-41223698D01*
X32998301Y-41402327D01*
X33231690Y-41499000D01*
X33522250Y-41499000D01*
X33681000Y-41340250D01*
X33681000Y-40241000D01*
X32881750Y-40241000D01*
X32723000Y-40399750D01*
X16102440Y-40399750D01*
X16102440Y-39255000D01*
X16099184Y-39237691D01*
X32723000Y-39237691D01*
X32723000Y-39828250D01*
X32881750Y-39987000D01*
X33681000Y-39987000D01*
X33681000Y-38887750D01*
X33522250Y-38729000D01*
X33231690Y-38729000D01*
X32998301Y-38825673D01*
X32819673Y-39004302D01*
X32723000Y-39237691D01*
X16099184Y-39237691D01*
X16058162Y-39019683D01*
X15919090Y-38803559D01*
X15706890Y-38658569D01*
X15550998Y-38627000D01*
X42313198Y-38627000D01*
X42223638Y-38716560D01*
G36*
X58085057Y-38628663D02*
X57132010Y-39580048D01*
X56615589Y-40823728D01*
X56614414Y-42170364D01*
X57128663Y-43414943D01*
X58080048Y-44367990D01*
X58829043Y-44679000D01*
X51876802Y-44679000D01*
X51491802Y-44294000D01*
X53920537Y-44294000D01*
X53952673Y-44326192D01*
X54296201Y-44468838D01*
X54668167Y-44469162D01*
X55011943Y-44327117D01*
X55275192Y-44064327D01*
X55417838Y-43720799D01*
X55418162Y-43348833D01*
X55276117Y-43005057D01*
X55013327Y-42741808D01*
X54669799Y-42599162D01*
X54297833Y-42598838D01*
X53954057Y-42740883D01*
X53920882Y-42774000D01*
X51241802Y-42774000D01*
X50494401Y-42026599D01*
X50466566Y-42008000D01*
X53467000Y-42008000D01*
X53757839Y-41950148D01*
X54004401Y-41785401D01*
X54622680Y-41167122D01*
X54668167Y-41167162D01*
X55011943Y-41025117D01*
X55275192Y-40762327D01*
X55417838Y-40418799D01*
X55418162Y-40046833D01*
X55276117Y-39703057D01*
X55013327Y-39439808D01*
X54669799Y-39297162D01*
X54297833Y-39296838D01*
X53983724Y-39426625D01*
X53743327Y-39185808D01*
X53399799Y-39043162D01*
X53352923Y-39043121D01*
X52936802Y-38627000D01*
X58089082Y-38627000D01*
X58085057Y-38628663D01*
X58085057Y-38628663D01*
G37*
X58085057Y-38628663D02*
X57132010Y-39580048D01*
X56615589Y-40823728D01*
X56614414Y-42170364D01*
X57128663Y-43414943D01*
X58080048Y-44367990D01*
X58829043Y-44679000D01*
X51876802Y-44679000D01*
X51491802Y-44294000D01*
X53920537Y-44294000D01*
X53952673Y-44326192D01*
X54296201Y-44468838D01*
X54668167Y-44469162D01*
X55011943Y-44327117D01*
X55275192Y-44064327D01*
X55417838Y-43720799D01*
X55418162Y-43348833D01*
X55276117Y-43005057D01*
X55013327Y-42741808D01*
X54669799Y-42599162D01*
X54297833Y-42598838D01*
X53954057Y-42740883D01*
X53920882Y-42774000D01*
X51241802Y-42774000D01*
X50494401Y-42026599D01*
X50466566Y-42008000D01*
X53467000Y-42008000D01*
X53757839Y-41950148D01*
X54004401Y-41785401D01*
X54622680Y-41167122D01*
X54668167Y-41167162D01*
X55011943Y-41025117D01*
X55275192Y-40762327D01*
X55417838Y-40418799D01*
X55418162Y-40046833D01*
X55276117Y-39703057D01*
X55013327Y-39439808D01*
X54669799Y-39297162D01*
X54297833Y-39296838D01*
X53983724Y-39426625D01*
X53743327Y-39185808D01*
X53399799Y-39043162D01*
X53352923Y-39043121D01*
X52936802Y-38627000D01*
X58089082Y-38627000D01*
X58085057Y-38628663D01*
G36*
X52277878Y-40117680D02*
X52277838Y-40163167D01*
X52412056Y-40488000D01*
X46993000Y-40488000D01*
X46993000Y-40399750D01*
X46834250Y-40241000D01*
X46035000Y-40241000D01*
X46035000Y-40261000D01*
X45905440Y-40261000D01*
X45905440Y-39967000D01*
X46035000Y-39967000D01*
X46035000Y-39987000D01*
X46834250Y-39987000D01*
X46993000Y-39828250D01*
X46993000Y-39722000D01*
X51882198Y-39722000D01*
X52277878Y-40117680D01*
X52277878Y-40117680D01*
G37*
X52277878Y-40117680D02*
X52277838Y-40163167D01*
X52412056Y-40488000D01*
X46993000Y-40488000D01*
X46993000Y-40399750D01*
X46834250Y-40241000D01*
X46035000Y-40241000D01*
X46035000Y-40261000D01*
X45905440Y-40261000D01*
X45905440Y-39967000D01*
X46035000Y-39967000D01*
X46035000Y-39987000D01*
X46834250Y-39987000D01*
X46993000Y-39828250D01*
X46993000Y-39722000D01*
X51882198Y-39722000D01*
X52277878Y-40117680D01*
M02*
